%TF.GenerationSoftware,KiCad,Pcbnew,8.0.4*%
%TF.CreationDate,2024-08-07T19:34:09-04:00*%
%TF.ProjectId,button_board,62757474-6f6e-45f6-926f-6172642e6b69,rev?*%
%TF.SameCoordinates,Original*%
%TF.FileFunction,Copper,L1,Top*%
%TF.FilePolarity,Positive*%
%FSLAX46Y46*%
G04 Gerber Fmt 4.6, Leading zero omitted, Abs format (unit mm)*
G04 Created by KiCad (PCBNEW 8.0.4) date 2024-08-07 19:34:09*
%MOMM*%
%LPD*%
G01*
G04 APERTURE LIST*
G04 Aperture macros list*
%AMRoundRect*
0 Rectangle with rounded corners*
0 $1 Rounding radius*
0 $2 $3 $4 $5 $6 $7 $8 $9 X,Y pos of 4 corners*
0 Add a 4 corners polygon primitive as box body*
4,1,4,$2,$3,$4,$5,$6,$7,$8,$9,$2,$3,0*
0 Add four circle primitives for the rounded corners*
1,1,$1+$1,$2,$3*
1,1,$1+$1,$4,$5*
1,1,$1+$1,$6,$7*
1,1,$1+$1,$8,$9*
0 Add four rect primitives between the rounded corners*
20,1,$1+$1,$2,$3,$4,$5,0*
20,1,$1+$1,$4,$5,$6,$7,0*
20,1,$1+$1,$6,$7,$8,$9,0*
20,1,$1+$1,$8,$9,$2,$3,0*%
G04 Aperture macros list end*
%TA.AperFunction,SMDPad,CuDef*%
%ADD10RoundRect,0.250000X-0.337500X-0.475000X0.337500X-0.475000X0.337500X0.475000X-0.337500X0.475000X0*%
%TD*%
%TA.AperFunction,SMDPad,CuDef*%
%ADD11RoundRect,0.250000X-0.450000X0.350000X-0.450000X-0.350000X0.450000X-0.350000X0.450000X0.350000X0*%
%TD*%
%TA.AperFunction,SMDPad,CuDef*%
%ADD12RoundRect,0.250000X-0.350000X-0.450000X0.350000X-0.450000X0.350000X0.450000X-0.350000X0.450000X0*%
%TD*%
%TA.AperFunction,ComponentPad*%
%ADD13R,1.575000X1.575000*%
%TD*%
%TA.AperFunction,ComponentPad*%
%ADD14C,1.575000*%
%TD*%
%TA.AperFunction,SMDPad,CuDef*%
%ADD15RoundRect,0.150000X0.850000X0.150000X-0.850000X0.150000X-0.850000X-0.150000X0.850000X-0.150000X0*%
%TD*%
%TA.AperFunction,ComponentPad*%
%ADD16R,1.700000X1.700000*%
%TD*%
%TA.AperFunction,ComponentPad*%
%ADD17O,1.700000X1.700000*%
%TD*%
%TA.AperFunction,SMDPad,CuDef*%
%ADD18RoundRect,0.250000X0.350000X0.450000X-0.350000X0.450000X-0.350000X-0.450000X0.350000X-0.450000X0*%
%TD*%
%TA.AperFunction,SMDPad,CuDef*%
%ADD19RoundRect,0.250000X0.450000X-0.350000X0.450000X0.350000X-0.450000X0.350000X-0.450000X-0.350000X0*%
%TD*%
%TA.AperFunction,ComponentPad*%
%ADD20R,1.350000X1.350000*%
%TD*%
%TA.AperFunction,ComponentPad*%
%ADD21O,1.350000X1.350000*%
%TD*%
%TA.AperFunction,ViaPad*%
%ADD22C,0.600000*%
%TD*%
%TA.AperFunction,ViaPad*%
%ADD23C,0.800000*%
%TD*%
%TA.AperFunction,Conductor*%
%ADD24C,0.250000*%
%TD*%
%TA.AperFunction,Conductor*%
%ADD25C,0.200000*%
%TD*%
%ADD26C,0.300000*%
%ADD27C,0.350000*%
G04 APERTURE END LIST*
D10*
%TO.P,REF\u002A\u002A,1*%
%TO.N,VDD*%
X113800000Y-128800000D03*
%TO.P,REF\u002A\u002A,2*%
%TO.N,GND*%
X115875000Y-128800000D03*
%TD*%
D11*
%TO.P,R35,1*%
%TO.N,/Press buttons/Button 6*%
X147206000Y-87909000D03*
%TO.P,R35,2*%
%TO.N,VDD*%
X147206000Y-89909000D03*
%TD*%
D12*
%TO.P,R17,1*%
%TO.N,Net-(U4-QC)*%
X137456000Y-130959000D03*
%TO.P,R17,2*%
%TO.N,/Score display/C*%
X139456000Y-130959000D03*
%TD*%
%TO.P,R22,1*%
%TO.N,/Score display/Button 9*%
X108800000Y-129459000D03*
%TO.P,R22,2*%
%TO.N,VDD*%
X110800000Y-129459000D03*
%TD*%
%TO.P,R26,1*%
%TO.N,/Press buttons/Button 1*%
X119206000Y-80059000D03*
%TO.P,R26,2*%
%TO.N,VDD*%
X121206000Y-80059000D03*
%TD*%
D13*
%TO.P,SW9,1,1*%
%TO.N,GND*%
X159506000Y-83809000D03*
D14*
%TO.P,SW9,2,2*%
X166006000Y-83809000D03*
%TO.P,SW9,3,K*%
%TO.N,/Press buttons/Button 5*%
X159506000Y-79309000D03*
%TO.P,SW9,4,A*%
X166006000Y-79309000D03*
%TD*%
D13*
%TO.P,SW10,1,1*%
%TO.N,GND*%
X150506000Y-88309000D03*
D14*
%TO.P,SW10,2,2*%
X150506000Y-94809000D03*
%TO.P,SW10,3,K*%
%TO.N,/Press buttons/Button 6*%
X155006000Y-88309000D03*
%TO.P,SW10,4,A*%
X155006000Y-94809000D03*
%TD*%
D11*
%TO.P,R36,1*%
%TO.N,/Press buttons/Button 7*%
X156306000Y-100209000D03*
%TO.P,R36,2*%
%TO.N,VDD*%
X156306000Y-102209000D03*
%TD*%
D13*
%TO.P,SW5,1,1*%
%TO.N,GND*%
X109506000Y-83809000D03*
D14*
%TO.P,SW5,2,2*%
X116006000Y-83809000D03*
%TO.P,SW5,3,K*%
%TO.N,/Press buttons/Button 1*%
X109506000Y-79309000D03*
%TO.P,SW5,4,A*%
X116006000Y-79309000D03*
%TD*%
D13*
%TO.P,SW12,1,1*%
%TO.N,GND*%
X170506000Y-88309000D03*
D14*
%TO.P,SW12,2,2*%
X170506000Y-94809000D03*
%TO.P,SW12,3,K*%
%TO.N,/Press buttons/Button 8*%
X175006000Y-88309000D03*
%TO.P,SW12,4,A*%
X175006000Y-94809000D03*
%TD*%
D15*
%TO.P,U4,1,QB*%
%TO.N,Net-(U4-QB)*%
X118821000Y-126854000D03*
%TO.P,U4,2,QC*%
%TO.N,Net-(U4-QC)*%
X118821000Y-125584000D03*
%TO.P,U4,3,QD*%
%TO.N,Net-(U4-QD)*%
X118821000Y-124314000D03*
%TO.P,U4,4,QE*%
%TO.N,Net-(U4-QE)*%
X118821000Y-123044000D03*
%TO.P,U4,5,QF*%
%TO.N,Net-(U4-QF)*%
X118821000Y-121774000D03*
%TO.P,U4,6,QG*%
%TO.N,Net-(U4-QG)*%
X118821000Y-120504000D03*
%TO.P,U4,7,QH*%
%TO.N,unconnected-(U4-QH-Pad7)*%
X118821000Y-119234000D03*
%TO.P,U4,8,GND*%
%TO.N,GND*%
X118821000Y-117964000D03*
%TO.P,U4,9,QH'*%
%TO.N,unconnected-(U4-QH'-Pad9)*%
X113821000Y-117964000D03*
%TO.P,U4,10,~{SRCLR}*%
%TO.N,VDD*%
X113821000Y-119234000D03*
%TO.P,U4,11,SRCLK*%
%TO.N,Score clk*%
X113821000Y-120504000D03*
%TO.P,U4,12,RCLK*%
%TO.N,Score latch*%
X113821000Y-121774000D03*
%TO.P,U4,13,~{OE}*%
%TO.N,GND*%
X113821000Y-123044000D03*
%TO.P,U4,14,SER*%
%TO.N,Score data*%
X113821000Y-124314000D03*
%TO.P,U4,15,QA*%
%TO.N,Net-(U4-QA)*%
X113821000Y-125584000D03*
%TO.P,U4,16,VCC*%
%TO.N,VDD*%
X113821000Y-126854000D03*
%TD*%
D16*
%TO.P,U5,1,e*%
%TO.N,/Score display/E*%
X131306000Y-127609000D03*
D17*
%TO.P,U5,2,d*%
%TO.N,/Score display/D*%
X133846000Y-127609000D03*
%TO.P,U5,3,DPX*%
%TO.N,unconnected-(U5-DPX-Pad3)*%
X136386000Y-127609000D03*
%TO.P,U5,4,c*%
%TO.N,/Score display/C*%
X138926000Y-127609000D03*
%TO.P,U5,5,g*%
%TO.N,/Score display/G*%
X141466000Y-127609000D03*
%TO.P,U5,6,CA4*%
%TO.N,Multiplex 4*%
X144006000Y-127609000D03*
%TO.P,U5,7,b*%
%TO.N,/Score display/B*%
X144011000Y-117449000D03*
%TO.P,U5,8,CA3*%
%TO.N,Multiplex 3*%
X141471000Y-117449000D03*
%TO.P,U5,9,CA2*%
%TO.N,Multiplex 2*%
X138931000Y-117449000D03*
%TO.P,U5,10,f*%
%TO.N,/Score display/F*%
X136391000Y-117449000D03*
%TO.P,U5,11,a*%
%TO.N,/Score display/A*%
X133851000Y-117449000D03*
%TO.P,U5,12,CA1*%
%TO.N,Multiplex 1*%
X131311000Y-117449000D03*
%TD*%
D18*
%TO.P,R20,1*%
%TO.N,/Score display/E*%
X131221000Y-130959000D03*
%TO.P,R20,2*%
%TO.N,Net-(U4-QE)*%
X129221000Y-130959000D03*
%TD*%
D13*
%TO.P,SW3,1,1*%
%TO.N,GND*%
X100456000Y-119259000D03*
D14*
%TO.P,SW3,2,2*%
X100456000Y-125759000D03*
%TO.P,SW3,3,K*%
%TO.N,/Score display/Button 9*%
X104956000Y-119259000D03*
%TO.P,SW3,4,A*%
X104956000Y-125759000D03*
%TD*%
D13*
%TO.P,SW4,1,1*%
%TO.N,GND*%
X174956000Y-125759000D03*
D14*
%TO.P,SW4,2,2*%
X174956000Y-119259000D03*
%TO.P,SW4,3,K*%
%TO.N,/Score display/Button 10*%
X170456000Y-125759000D03*
%TO.P,SW4,4,A*%
X170456000Y-119259000D03*
%TD*%
D19*
%TO.P,R37,1*%
%TO.N,/Press buttons/Button 8*%
X167756000Y-90509000D03*
%TO.P,R37,2*%
%TO.N,VDD*%
X167756000Y-88509000D03*
%TD*%
D12*
%TO.P,R27,1*%
%TO.N,/Press buttons/Button 2*%
X107906000Y-90609000D03*
%TO.P,R27,2*%
%TO.N,VDD*%
X109906000Y-90609000D03*
%TD*%
D18*
%TO.P,R18,1*%
%TO.N,/Score display/G*%
X143456000Y-130959000D03*
%TO.P,R18,2*%
%TO.N,Net-(U4-QG)*%
X141456000Y-130959000D03*
%TD*%
D20*
%TO.P,J10,1,Pin_1*%
%TO.N,VDD*%
X169106000Y-79259000D03*
D21*
%TO.P,J10,2,Pin_2*%
%TO.N,GND*%
X171106000Y-79259000D03*
%TD*%
D19*
%TO.P,R23,1*%
%TO.N,/Score display/Button 10*%
X114100000Y-133400000D03*
%TO.P,R23,2*%
%TO.N,VDD*%
X114100000Y-131400000D03*
%TD*%
D20*
%TO.P,J11,1,Pin_1*%
%TO.N,/Press buttons/Button 1*%
X130256000Y-79259000D03*
D21*
%TO.P,J11,2,Pin_2*%
%TO.N,/Press buttons/Button 2*%
X132256000Y-79259000D03*
%TO.P,J11,3,Pin_3*%
%TO.N,/Press buttons/Button 3*%
X134256000Y-79259000D03*
%TO.P,J11,4,Pin_4*%
%TO.N,/Press buttons/Button 4*%
X136256000Y-79259000D03*
%TO.P,J11,5,Pin_5*%
%TO.N,/Press buttons/Button 5*%
X138256000Y-79259000D03*
%TO.P,J11,6,Pin_6*%
%TO.N,/Press buttons/Button 6*%
X140256000Y-79259000D03*
%TO.P,J11,7,Pin_7*%
%TO.N,/Press buttons/Button 7*%
X142256000Y-79259000D03*
%TO.P,J11,8,Pin_8*%
%TO.N,/Press buttons/Button 8*%
X144256000Y-79259000D03*
%TD*%
D11*
%TO.P,R29,1*%
%TO.N,/Press buttons/Button 4*%
X123806000Y-98659000D03*
%TO.P,R29,2*%
%TO.N,VDD*%
X123806000Y-100659000D03*
%TD*%
D13*
%TO.P,SW11,1,1*%
%TO.N,GND*%
X159506000Y-103809000D03*
D14*
%TO.P,SW11,2,2*%
X166006000Y-103809000D03*
%TO.P,SW11,3,K*%
%TO.N,/Press buttons/Button 7*%
X159506000Y-99309000D03*
%TO.P,SW11,4,A*%
X166006000Y-99309000D03*
%TD*%
D13*
%TO.P,SW8,1,1*%
%TO.N,GND*%
X120506000Y-88309000D03*
D14*
%TO.P,SW8,2,2*%
X120506000Y-94809000D03*
%TO.P,SW8,3,K*%
%TO.N,/Press buttons/Button 4*%
X125006000Y-88309000D03*
%TO.P,SW8,4,A*%
X125006000Y-94809000D03*
%TD*%
D20*
%TO.P,J9,1,Pin_1*%
%TO.N,/Score display/Button 9*%
X109071000Y-132659000D03*
D21*
%TO.P,J9,2,Pin_2*%
%TO.N,/Score display/Button 10*%
X111071000Y-132659000D03*
%TD*%
D13*
%TO.P,SW7,1,1*%
%TO.N,GND*%
X109506000Y-103809000D03*
D14*
%TO.P,SW7,2,2*%
X116006000Y-103809000D03*
%TO.P,SW7,3,K*%
%TO.N,/Press buttons/Button 3*%
X109506000Y-99309000D03*
%TO.P,SW7,4,A*%
X116006000Y-99309000D03*
%TD*%
D13*
%TO.P,SW6,1,1*%
%TO.N,GND*%
X100506000Y-88309000D03*
D14*
%TO.P,SW6,2,2*%
X100506000Y-94809000D03*
%TO.P,SW6,3,K*%
%TO.N,/Press buttons/Button 2*%
X105006000Y-88309000D03*
%TO.P,SW6,4,A*%
X105006000Y-94809000D03*
%TD*%
D20*
%TO.P,J6,1,Pin_1*%
%TO.N,VDD*%
X163206000Y-132259000D03*
D21*
%TO.P,J6,2,Pin_2*%
%TO.N,GND*%
X165206000Y-132259000D03*
%TD*%
D12*
%TO.P,R15,1*%
%TO.N,Net-(U4-QA)*%
X131721000Y-113709000D03*
%TO.P,R15,2*%
%TO.N,/Score display/A*%
X133721000Y-113709000D03*
%TD*%
%TO.P,R28,1*%
%TO.N,/Press buttons/Button 3*%
X109506000Y-96309000D03*
%TO.P,R28,2*%
%TO.N,VDD*%
X111506000Y-96309000D03*
%TD*%
D11*
%TO.P,R16,1*%
%TO.N,Net-(U4-QB)*%
X143921004Y-111989000D03*
%TO.P,R16,2*%
%TO.N,/Score display/B*%
X143921004Y-113989000D03*
%TD*%
D18*
%TO.P,R21,1*%
%TO.N,/Score display/D*%
X135456000Y-130959000D03*
%TO.P,R21,2*%
%TO.N,Net-(U4-QD)*%
X133456000Y-130959000D03*
%TD*%
D12*
%TO.P,R19,1*%
%TO.N,/Score display/F*%
X136356000Y-113959000D03*
%TO.P,R19,2*%
%TO.N,Net-(U4-QF)*%
X138356000Y-113959000D03*
%TD*%
D20*
%TO.P,J7,1,Pin_1*%
%TO.N,Multiplex 1*%
X146206000Y-131709000D03*
D21*
%TO.P,J7,2,Pin_2*%
%TO.N,Multiplex 2*%
X148206000Y-131709000D03*
%TO.P,J7,3,Pin_3*%
%TO.N,Multiplex 3*%
X150206000Y-131709000D03*
%TO.P,J7,4,Pin_4*%
%TO.N,Multiplex 4*%
X152206000Y-131709000D03*
%TD*%
D20*
%TO.P,J8,1,Pin_1*%
%TO.N,Score clk*%
X110206000Y-120609000D03*
D21*
%TO.P,J8,2,Pin_2*%
%TO.N,Score latch*%
X110206000Y-122609000D03*
%TO.P,J8,3,Pin_3*%
%TO.N,Score data*%
X110206000Y-124609000D03*
%TD*%
D11*
%TO.P,R34,1*%
%TO.N,/Press buttons/Button 5*%
X156956000Y-79359000D03*
%TO.P,R34,2*%
%TO.N,VDD*%
X156956000Y-81359000D03*
%TD*%
D22*
%TO.N,GND*%
X117300000Y-128800000D03*
D23*
X120871000Y-117959000D03*
X115446000Y-123059000D03*
%TO.N,Net-(U4-QB)*%
X119721000Y-128109000D03*
X141921000Y-112109000D03*
%TO.N,Net-(U4-QG)*%
X139956000Y-129459000D03*
X129956000Y-129459000D03*
%TO.N,Net-(U4-QF)*%
X134521000Y-111909000D03*
X120703000Y-122122000D03*
%TO.N,/Press buttons/Button 8*%
X160506000Y-86409000D03*
%TD*%
D24*
%TO.N,/Score display/Button 10*%
X111612000Y-133200000D02*
X111071000Y-132659000D01*
X113900000Y-133200000D02*
X111612000Y-133200000D01*
X114100000Y-133400000D02*
X113900000Y-133200000D01*
D25*
%TO.N,GND*%
X115875000Y-128800000D02*
X117300000Y-128800000D01*
%TO.N,VDD*%
X113800000Y-128800000D02*
X113800000Y-126875000D01*
X113800000Y-126875000D02*
X113821000Y-126854000D01*
D24*
%TO.N,GND*%
X118821000Y-117964000D02*
X120866000Y-117964000D01*
X115431000Y-123044000D02*
X115446000Y-123059000D01*
X120866000Y-117964000D02*
X120871000Y-117959000D01*
X113821000Y-123044000D02*
X115431000Y-123044000D01*
D25*
%TO.N,VDD*%
X113832500Y-126865500D02*
X113821000Y-126854000D01*
D24*
%TO.N,Multiplex 4*%
X144006000Y-127609000D02*
X148106000Y-127609000D01*
X148106000Y-127609000D02*
X152206000Y-131709000D01*
%TO.N,/Score display/A*%
X133721004Y-113989000D02*
X133721000Y-113989004D01*
X133721000Y-113989004D02*
X133721000Y-117404000D01*
X133721000Y-117404000D02*
X133766000Y-117449000D01*
%TO.N,Net-(U4-QA)*%
X114820999Y-125584000D02*
X116937000Y-123467999D01*
X116937000Y-123467999D02*
X116937000Y-116093000D01*
D25*
X114651004Y-125779000D02*
X113921004Y-125779000D01*
D24*
X113821000Y-125584000D02*
X114820999Y-125584000D01*
X119421000Y-113609000D02*
X131621000Y-113609000D01*
X131621000Y-113609000D02*
X131721000Y-113709000D01*
X116937000Y-116093000D02*
X119421000Y-113609000D01*
%TO.N,/Score display/B*%
X143921000Y-117444000D02*
X143926000Y-117449000D01*
X143921004Y-113989000D02*
X143921000Y-113989004D01*
X143921000Y-113989004D02*
X143921000Y-117444000D01*
%TO.N,Net-(U4-QB)*%
X141921000Y-112109000D02*
X143801004Y-112109000D01*
D25*
X118821000Y-126854000D02*
X118821000Y-127209000D01*
X118821000Y-127209000D02*
X119721000Y-128109000D01*
D24*
X143801004Y-112109000D02*
X143921004Y-111989000D01*
%TO.N,/Score display/C*%
X138821000Y-127629000D02*
X138841000Y-127609000D01*
X138821000Y-130324000D02*
X138821000Y-127629000D01*
X139456000Y-130959000D02*
X138821000Y-130324000D01*
%TO.N,Net-(U4-QC)*%
X119820999Y-125584000D02*
X118821000Y-125584000D01*
X127145999Y-132909000D02*
X119820999Y-125584000D01*
X135506000Y-132909000D02*
X127145999Y-132909000D01*
X137456000Y-130959000D02*
X135506000Y-132909000D01*
%TO.N,Net-(U4-QG)*%
X129456000Y-129459000D02*
X129956000Y-129459000D01*
X139956000Y-129459000D02*
X141456000Y-130959000D01*
X127456000Y-127459000D02*
X129456000Y-129459000D01*
X120501000Y-120504000D02*
X127456000Y-127459000D01*
X118821000Y-120504000D02*
X120501000Y-120504000D01*
%TO.N,/Score display/G*%
X143456000Y-129599000D02*
X141466000Y-127609000D01*
X143456000Y-130959000D02*
X143456000Y-129599000D01*
%TO.N,Net-(U4-QF)*%
X134521000Y-111909000D02*
X136241004Y-111909000D01*
X120703000Y-122122000D02*
X119169000Y-122122000D01*
X119169000Y-122122000D02*
X118821000Y-121774000D01*
X136241004Y-111909000D02*
X138291004Y-113959000D01*
X138291004Y-113959000D02*
X138356000Y-113959000D01*
%TO.N,/Score display/F*%
X136321004Y-113989000D02*
X136306000Y-114004004D01*
X136306000Y-114004004D02*
X136306000Y-117449000D01*
%TO.N,Net-(U4-QE)*%
X121156000Y-123044000D02*
X118821000Y-123044000D01*
X129071000Y-130959000D02*
X121156000Y-123044000D01*
X129221000Y-130959000D02*
X129071000Y-130959000D01*
%TO.N,/Score display/E*%
X131221000Y-127609000D02*
X131221000Y-130989000D01*
%TO.N,/Score display/D*%
X135456000Y-129219000D02*
X133846000Y-127609000D01*
X133821000Y-127669000D02*
X133761000Y-127609000D01*
X135456000Y-130959000D02*
X135456000Y-129219000D01*
%TO.N,Net-(U4-QD)*%
X120226000Y-124314000D02*
X118821000Y-124314000D01*
X128121000Y-132209000D02*
X120226000Y-124314000D01*
X133456000Y-130959000D02*
X132206000Y-132209000D01*
X132206000Y-132209000D02*
X128121000Y-132209000D01*
D25*
%TO.N,Score latch*%
X113821000Y-121774000D02*
X113006000Y-121774000D01*
X110856000Y-121959000D02*
X110206000Y-122609000D01*
X112821000Y-121959000D02*
X110856000Y-121959000D01*
X113006000Y-121774000D02*
X112821000Y-121959000D01*
%TO.N,Score data*%
X110501000Y-124314000D02*
X110206000Y-124609000D01*
X113821000Y-124314000D02*
X110501000Y-124314000D01*
%TO.N,Score clk*%
X112716001Y-120609000D02*
X110206000Y-120609000D01*
X112821001Y-120504000D02*
X112716001Y-120609000D01*
X113821000Y-120504000D02*
X112821001Y-120504000D01*
D24*
%TO.N,/Score display/Button 9*%
X108956000Y-129615000D02*
X108956000Y-132544000D01*
X108956000Y-132544000D02*
X109071000Y-132659000D01*
X108656000Y-132659000D02*
X104956000Y-128959000D01*
X104956000Y-128959000D02*
X104956000Y-125759000D01*
X109071000Y-132659000D02*
X108656000Y-132659000D01*
X104956000Y-119259000D02*
X104956000Y-125759000D01*
X108800000Y-129459000D02*
X108956000Y-129615000D01*
%TO.N,/Score display/Button 10*%
X170456000Y-119259000D02*
X170456000Y-125759000D01*
D25*
%TO.N,/Press buttons/Button 1*%
X119206000Y-80059000D02*
X120743500Y-78521500D01*
X129518500Y-78521500D02*
X130256000Y-79259000D01*
X116006000Y-79309000D02*
X116793500Y-78521500D01*
X120743500Y-78521500D02*
X120870000Y-78521500D01*
X116793500Y-78521500D02*
X120870000Y-78521500D01*
X109506000Y-79309000D02*
X116006000Y-79309000D01*
X120870000Y-78521500D02*
X129518500Y-78521500D01*
D24*
%TO.N,/Press buttons/Button 2*%
X107806000Y-90609000D02*
X107306000Y-90609000D01*
X129656000Y-81859000D02*
X132256000Y-79259000D01*
X105006000Y-88309000D02*
X105006000Y-94809000D01*
X119656000Y-83659000D02*
X126256000Y-83659000D01*
X107306000Y-90609000D02*
X105006000Y-88309000D01*
X126256000Y-83659000D02*
X128056000Y-81859000D01*
X117256000Y-86059000D02*
X119656000Y-83659000D01*
X107256000Y-86059000D02*
X117256000Y-86059000D01*
X105006000Y-88309000D02*
X107256000Y-86059000D01*
X128056000Y-81859000D02*
X129656000Y-81859000D01*
%TO.N,/Press buttons/Button 3*%
X128756000Y-82659000D02*
X130856000Y-82659000D01*
X130856000Y-82659000D02*
X134256000Y-79259000D01*
X120056000Y-85059000D02*
X126356000Y-85059000D01*
X126356000Y-85059000D02*
X128756000Y-82659000D01*
X116006000Y-99309000D02*
X116006000Y-89109000D01*
X116006000Y-89109000D02*
X120056000Y-85059000D01*
X109506000Y-96309000D02*
X109506000Y-99309000D01*
%TO.N,/Press buttons/Button 4*%
X125006000Y-94809000D02*
X125006000Y-88309000D01*
X131915000Y-83600000D02*
X136256000Y-79259000D01*
X125006000Y-88309000D02*
X129715000Y-83600000D01*
X123806000Y-98659000D02*
X123806000Y-96009000D01*
X129715000Y-83600000D02*
X131915000Y-83600000D01*
X123806000Y-96009000D02*
X125006000Y-94809000D01*
%TO.N,/Press buttons/Button 6*%
X153356000Y-86659000D02*
X155006000Y-88309000D01*
X155006000Y-88309000D02*
X155006000Y-94809000D01*
X148456000Y-86659000D02*
X153356000Y-86659000D01*
X147206000Y-87909000D02*
X148456000Y-86659000D01*
%TO.N,/Press buttons/Button 7*%
X148956000Y-98159000D02*
X158356000Y-98159000D01*
X156306000Y-100209000D02*
X158606000Y-100209000D01*
X142256000Y-91459000D02*
X148956000Y-98159000D01*
X159506000Y-99309000D02*
X166006000Y-99309000D01*
X158356000Y-98159000D02*
X159506000Y-99309000D01*
X142256000Y-79259000D02*
X142256000Y-91459000D01*
X158606000Y-100209000D02*
X159506000Y-99309000D01*
%TO.N,/Press buttons/Button 8*%
X160506000Y-86409000D02*
X155156000Y-86409000D01*
X155156000Y-86409000D02*
X154206000Y-85459000D01*
X145856000Y-85459000D02*
X144256000Y-83859000D01*
X144256000Y-83859000D02*
X144256000Y-79259000D01*
X167606000Y-90509000D02*
X172806000Y-90509000D01*
X175006000Y-88309000D02*
X175006000Y-94809000D01*
X154206000Y-85459000D02*
X145856000Y-85459000D01*
X172806000Y-90509000D02*
X175006000Y-88309000D01*
%TO.N,/Press buttons/Button 5*%
X157106000Y-79509000D02*
X159306000Y-79509000D01*
X159306000Y-79509000D02*
X159506000Y-79309000D01*
X159506000Y-79309000D02*
X166006000Y-79309000D01*
X157156000Y-77359000D02*
X159106000Y-79309000D01*
X156956000Y-79359000D02*
X157106000Y-79509000D01*
X139756000Y-77359000D02*
X157156000Y-77359000D01*
X137856000Y-79259000D02*
X139756000Y-77359000D01*
%TD*%
%TA.AperFunction,Conductor*%
%TO.N,VDD*%
G36*
X112586402Y-110009382D02*
G01*
X112587902Y-110009500D01*
X112587908Y-110009500D01*
X134824098Y-110009500D01*
X134825598Y-110009382D01*
X134835321Y-110009000D01*
X140576679Y-110009000D01*
X140586402Y-110009382D01*
X140587902Y-110009500D01*
X140587908Y-110009500D01*
X162830098Y-110009500D01*
X162831598Y-110009382D01*
X162841321Y-110009000D01*
X167576679Y-110009000D01*
X167586402Y-110009382D01*
X167587902Y-110009500D01*
X167587908Y-110009500D01*
X167640108Y-110009500D01*
X177081500Y-110009500D01*
X177148539Y-110029185D01*
X177194294Y-110081989D01*
X177205500Y-110133500D01*
X177205500Y-132505245D01*
X177205274Y-132512732D01*
X177187728Y-132802794D01*
X177185923Y-132817659D01*
X177134219Y-133099798D01*
X177130635Y-133114336D01*
X177045306Y-133388167D01*
X177039997Y-133402168D01*
X176922275Y-133663736D01*
X176915316Y-133676995D01*
X176766928Y-133922459D01*
X176758422Y-133934782D01*
X176581526Y-134160573D01*
X176571596Y-134171781D01*
X176368781Y-134374596D01*
X176357573Y-134384526D01*
X176131782Y-134561422D01*
X176119459Y-134569928D01*
X175873995Y-134718316D01*
X175860736Y-134725275D01*
X175599168Y-134842997D01*
X175585167Y-134848306D01*
X175311336Y-134933635D01*
X175296798Y-134937219D01*
X175014659Y-134988923D01*
X174999794Y-134990728D01*
X174709736Y-135008274D01*
X174702249Y-135008500D01*
X100709751Y-135008500D01*
X100702264Y-135008274D01*
X100412205Y-134990728D01*
X100397340Y-134988923D01*
X100115201Y-134937219D01*
X100100663Y-134933635D01*
X99826832Y-134848306D01*
X99812831Y-134842997D01*
X99551263Y-134725275D01*
X99538004Y-134718316D01*
X99292540Y-134569928D01*
X99280217Y-134561422D01*
X99054426Y-134384526D01*
X99043218Y-134374596D01*
X98840403Y-134171781D01*
X98830473Y-134160573D01*
X98653573Y-133934776D01*
X98645075Y-133922465D01*
X98496680Y-133676989D01*
X98489727Y-133663743D01*
X98372000Y-133402163D01*
X98366693Y-133388167D01*
X98364731Y-133381872D01*
X98281363Y-133114335D01*
X98277780Y-133099798D01*
X98240653Y-132897203D01*
X98226075Y-132817657D01*
X98224271Y-132802794D01*
X98206726Y-132512732D01*
X98206500Y-132505245D01*
X98206500Y-132087711D01*
X99155500Y-132087711D01*
X99155500Y-132330288D01*
X99187161Y-132570785D01*
X99249947Y-132805104D01*
X99342773Y-133029205D01*
X99342777Y-133029214D01*
X99349801Y-133041379D01*
X99464064Y-133239289D01*
X99464066Y-133239292D01*
X99464067Y-133239293D01*
X99611733Y-133431736D01*
X99611739Y-133431743D01*
X99783256Y-133603260D01*
X99783263Y-133603266D01*
X99870984Y-133670576D01*
X99975711Y-133750936D01*
X100185788Y-133872224D01*
X100409900Y-133965054D01*
X100644211Y-134027838D01*
X100824586Y-134051584D01*
X100884711Y-134059500D01*
X100884712Y-134059500D01*
X101127289Y-134059500D01*
X101175388Y-134053167D01*
X101367789Y-134027838D01*
X101602100Y-133965054D01*
X101826212Y-133872224D01*
X102036289Y-133750936D01*
X102228738Y-133603265D01*
X102400265Y-133431738D01*
X102547936Y-133239289D01*
X102669224Y-133029212D01*
X102762054Y-132805100D01*
X102824838Y-132570789D01*
X102856500Y-132330288D01*
X102856500Y-132087712D01*
X102824838Y-131847211D01*
X102762054Y-131612900D01*
X102669224Y-131388788D01*
X102547936Y-131178711D01*
X102480175Y-131090403D01*
X102400266Y-130986263D01*
X102400260Y-130986256D01*
X102228743Y-130814739D01*
X102228736Y-130814733D01*
X102036293Y-130667067D01*
X102036292Y-130667066D01*
X102036289Y-130667064D01*
X101833788Y-130550150D01*
X101826214Y-130545777D01*
X101826205Y-130545773D01*
X101602104Y-130452947D01*
X101367785Y-130390161D01*
X101127289Y-130358500D01*
X101127288Y-130358500D01*
X100884712Y-130358500D01*
X100884711Y-130358500D01*
X100644214Y-130390161D01*
X100409895Y-130452947D01*
X100185794Y-130545773D01*
X100185785Y-130545777D01*
X99975706Y-130667067D01*
X99783263Y-130814733D01*
X99783256Y-130814739D01*
X99611739Y-130986256D01*
X99611733Y-130986263D01*
X99464067Y-131178706D01*
X99342777Y-131388785D01*
X99342773Y-131388794D01*
X99249947Y-131612895D01*
X99187161Y-131847214D01*
X99155500Y-132087711D01*
X98206500Y-132087711D01*
X98206500Y-125758997D01*
X99163080Y-125758997D01*
X99163080Y-125759002D01*
X99182721Y-125983507D01*
X99182722Y-125983514D01*
X99241051Y-126201200D01*
X99241055Y-126201211D01*
X99294210Y-126315202D01*
X99336298Y-126405460D01*
X99465566Y-126590073D01*
X99624927Y-126749434D01*
X99809540Y-126878702D01*
X99863891Y-126904046D01*
X100013788Y-126973944D01*
X100013790Y-126973944D01*
X100013795Y-126973947D01*
X100231487Y-127032278D01*
X100391853Y-127046308D01*
X100455998Y-127051920D01*
X100456000Y-127051920D01*
X100456002Y-127051920D01*
X100512260Y-127046998D01*
X100680513Y-127032278D01*
X100898205Y-126973947D01*
X101102460Y-126878702D01*
X101287073Y-126749434D01*
X101446434Y-126590073D01*
X101575702Y-126405460D01*
X101670947Y-126201205D01*
X101729278Y-125983513D01*
X101748920Y-125759000D01*
X101729278Y-125534487D01*
X101670947Y-125316795D01*
X101575702Y-125112540D01*
X101446434Y-124927927D01*
X101287073Y-124768566D01*
X101102460Y-124639298D01*
X101102456Y-124639296D01*
X100898211Y-124544055D01*
X100898200Y-124544051D01*
X100680514Y-124485722D01*
X100680507Y-124485721D01*
X100456002Y-124466080D01*
X100455998Y-124466080D01*
X100231492Y-124485721D01*
X100231485Y-124485722D01*
X100013799Y-124544051D01*
X100013788Y-124544055D01*
X99809543Y-124639296D01*
X99809533Y-124639302D01*
X99624926Y-124768566D01*
X99465566Y-124927926D01*
X99336302Y-125112533D01*
X99336296Y-125112543D01*
X99241055Y-125316788D01*
X99241051Y-125316799D01*
X99182722Y-125534485D01*
X99182721Y-125534492D01*
X99163080Y-125758997D01*
X98206500Y-125758997D01*
X98206500Y-118423635D01*
X99168000Y-118423635D01*
X99168000Y-120094370D01*
X99168001Y-120094376D01*
X99174408Y-120153983D01*
X99224702Y-120288828D01*
X99224706Y-120288835D01*
X99310952Y-120404044D01*
X99310955Y-120404047D01*
X99426164Y-120490293D01*
X99426171Y-120490297D01*
X99561017Y-120540591D01*
X99561016Y-120540591D01*
X99567944Y-120541335D01*
X99620627Y-120547000D01*
X101291372Y-120546999D01*
X101350983Y-120540591D01*
X101485831Y-120490296D01*
X101601046Y-120404046D01*
X101687296Y-120288831D01*
X101737591Y-120153983D01*
X101744000Y-120094373D01*
X101743999Y-119258997D01*
X103663080Y-119258997D01*
X103663080Y-119259002D01*
X103682721Y-119483507D01*
X103682722Y-119483514D01*
X103741051Y-119701200D01*
X103741055Y-119701211D01*
X103836296Y-119905456D01*
X103836302Y-119905466D01*
X103891233Y-119983915D01*
X103965566Y-120090073D01*
X104124927Y-120249434D01*
X104277625Y-120356355D01*
X104321249Y-120410930D01*
X104330500Y-120457928D01*
X104330500Y-124560071D01*
X104310815Y-124627110D01*
X104277624Y-124661645D01*
X104124926Y-124768566D01*
X103965566Y-124927926D01*
X103836302Y-125112533D01*
X103836296Y-125112543D01*
X103741055Y-125316788D01*
X103741051Y-125316799D01*
X103682722Y-125534485D01*
X103682721Y-125534492D01*
X103663080Y-125758997D01*
X103663080Y-125759002D01*
X103682721Y-125983507D01*
X103682722Y-125983514D01*
X103741051Y-126201200D01*
X103741055Y-126201211D01*
X103794210Y-126315202D01*
X103836298Y-126405460D01*
X103965566Y-126590073D01*
X104124927Y-126749434D01*
X104277625Y-126856355D01*
X104321249Y-126910930D01*
X104330500Y-126957928D01*
X104330500Y-129020610D01*
X104354535Y-129141444D01*
X104354539Y-129141458D01*
X104363344Y-129162715D01*
X104401685Y-129255281D01*
X104433075Y-129302260D01*
X104433077Y-129302262D01*
X104470141Y-129357732D01*
X104470144Y-129357736D01*
X104561586Y-129449178D01*
X104561608Y-129449198D01*
X107859181Y-132746771D01*
X107892666Y-132808094D01*
X107895500Y-132834452D01*
X107895500Y-133381870D01*
X107895501Y-133381876D01*
X107901908Y-133441483D01*
X107952202Y-133576328D01*
X107952206Y-133576335D01*
X108038452Y-133691544D01*
X108038455Y-133691547D01*
X108153664Y-133777793D01*
X108153671Y-133777797D01*
X108288517Y-133828091D01*
X108288516Y-133828091D01*
X108295444Y-133828835D01*
X108348127Y-133834500D01*
X109793872Y-133834499D01*
X109853483Y-133828091D01*
X109988331Y-133777796D01*
X110103546Y-133691546D01*
X110165785Y-133608404D01*
X110221718Y-133566535D01*
X110291410Y-133561551D01*
X110348588Y-133591078D01*
X110359568Y-133601088D01*
X110359570Y-133601089D01*
X110359571Y-133601090D01*
X110544786Y-133715770D01*
X110544792Y-133715773D01*
X110567664Y-133724633D01*
X110747931Y-133794470D01*
X110962074Y-133834500D01*
X110962076Y-133834500D01*
X111179924Y-133834500D01*
X111179926Y-133834500D01*
X111371974Y-133798600D01*
X111423342Y-133801421D01*
X111423571Y-133800274D01*
X111429547Y-133801462D01*
X111429548Y-133801463D01*
X111449597Y-133805451D01*
X111483196Y-133812134D01*
X111550392Y-133825501D01*
X111550394Y-133825501D01*
X111679721Y-133825501D01*
X111679741Y-133825500D01*
X112794846Y-133825500D01*
X112861885Y-133845185D01*
X112907640Y-133897989D01*
X112912552Y-133910496D01*
X112965186Y-134069334D01*
X113057288Y-134218656D01*
X113181344Y-134342712D01*
X113330666Y-134434814D01*
X113497203Y-134489999D01*
X113599991Y-134500500D01*
X114600008Y-134500499D01*
X114600016Y-134500498D01*
X114600019Y-134500498D01*
X114656302Y-134494748D01*
X114702797Y-134489999D01*
X114869334Y-134434814D01*
X115018656Y-134342712D01*
X115142712Y-134218656D01*
X115234814Y-134069334D01*
X115289999Y-133902797D01*
X115300500Y-133800009D01*
X115300499Y-132999992D01*
X115289999Y-132897203D01*
X115234814Y-132730666D01*
X115142712Y-132581344D01*
X115048694Y-132487326D01*
X115015210Y-132426004D01*
X115020194Y-132356312D01*
X115048695Y-132311964D01*
X115142317Y-132218342D01*
X115234356Y-132069124D01*
X115234358Y-132069119D01*
X115289505Y-131902697D01*
X115289506Y-131902690D01*
X115299999Y-131799986D01*
X115300000Y-131799973D01*
X115300000Y-131650000D01*
X112900001Y-131650000D01*
X112900001Y-131799986D01*
X112910494Y-131902697D01*
X112965641Y-132069119D01*
X112965643Y-132069124D01*
X113057684Y-132218345D01*
X113151304Y-132311965D01*
X113184789Y-132373288D01*
X113179805Y-132442980D01*
X113151305Y-132487326D01*
X113100452Y-132538180D01*
X113039129Y-132571666D01*
X113012770Y-132574500D01*
X112356747Y-132574500D01*
X112289708Y-132554815D01*
X112243953Y-132502011D01*
X112233276Y-132461943D01*
X112232525Y-132453836D01*
X112231435Y-132442077D01*
X112171817Y-132232541D01*
X112074712Y-132037528D01*
X111943427Y-131863678D01*
X111938295Y-131859000D01*
X111826996Y-131757537D01*
X111782432Y-131716912D01*
X111782428Y-131716909D01*
X111782423Y-131716906D01*
X111597213Y-131602229D01*
X111597207Y-131602226D01*
X111512113Y-131569260D01*
X111394069Y-131523530D01*
X111179926Y-131483500D01*
X110962074Y-131483500D01*
X110747931Y-131523530D01*
X110704896Y-131540202D01*
X110544792Y-131602226D01*
X110544786Y-131602229D01*
X110359565Y-131716913D01*
X110348585Y-131726923D01*
X110285780Y-131757537D01*
X110216393Y-131749336D01*
X110165785Y-131709594D01*
X110139848Y-131674948D01*
X110103546Y-131626454D01*
X110103544Y-131626453D01*
X110103544Y-131626452D01*
X109988335Y-131540206D01*
X109988328Y-131540202D01*
X109853482Y-131489908D01*
X109853483Y-131489908D01*
X109793883Y-131483501D01*
X109793881Y-131483500D01*
X109793873Y-131483500D01*
X109793865Y-131483500D01*
X109705500Y-131483500D01*
X109638461Y-131463815D01*
X109592706Y-131411011D01*
X109581500Y-131359500D01*
X109581500Y-131000013D01*
X112900000Y-131000013D01*
X112900000Y-131150000D01*
X113850000Y-131150000D01*
X114350000Y-131150000D01*
X115299999Y-131150000D01*
X115299999Y-131000028D01*
X115299998Y-131000013D01*
X115289505Y-130897302D01*
X115234358Y-130730880D01*
X115234356Y-130730875D01*
X115142315Y-130581654D01*
X115018345Y-130457684D01*
X114869124Y-130365643D01*
X114869119Y-130365641D01*
X114702697Y-130310494D01*
X114702690Y-130310493D01*
X114599986Y-130300000D01*
X114350000Y-130300000D01*
X114350000Y-131150000D01*
X113850000Y-131150000D01*
X113850000Y-130300000D01*
X113600029Y-130300000D01*
X113600012Y-130300001D01*
X113497302Y-130310494D01*
X113330880Y-130365641D01*
X113330875Y-130365643D01*
X113181654Y-130457684D01*
X113057684Y-130581654D01*
X112965643Y-130730875D01*
X112965641Y-130730880D01*
X112910494Y-130897302D01*
X112910493Y-130897309D01*
X112900000Y-131000013D01*
X109581500Y-131000013D01*
X109581500Y-130590230D01*
X109601185Y-130523191D01*
X109617818Y-130502549D01*
X109618653Y-130501713D01*
X109618656Y-130501712D01*
X109712675Y-130407692D01*
X109773994Y-130374210D01*
X109843686Y-130379194D01*
X109888034Y-130407695D01*
X109981654Y-130501315D01*
X110130875Y-130593356D01*
X110130880Y-130593358D01*
X110297302Y-130648505D01*
X110297309Y-130648506D01*
X110400019Y-130658999D01*
X110549999Y-130658999D01*
X111050000Y-130658999D01*
X111199972Y-130658999D01*
X111199986Y-130658998D01*
X111302697Y-130648505D01*
X111469119Y-130593358D01*
X111469124Y-130593356D01*
X111618345Y-130501315D01*
X111742315Y-130377345D01*
X111834356Y-130228124D01*
X111834358Y-130228119D01*
X111889505Y-130061697D01*
X111889506Y-130061690D01*
X111899999Y-129958986D01*
X111900000Y-129958973D01*
X111900000Y-129709000D01*
X111050000Y-129709000D01*
X111050000Y-130658999D01*
X110549999Y-130658999D01*
X110550000Y-130658998D01*
X110550000Y-129324986D01*
X112712501Y-129324986D01*
X112722994Y-129427697D01*
X112778141Y-129594119D01*
X112778143Y-129594124D01*
X112870184Y-129743345D01*
X112994154Y-129867315D01*
X113143375Y-129959356D01*
X113143380Y-129959358D01*
X113309802Y-130014505D01*
X113309809Y-130014506D01*
X113412519Y-130024999D01*
X113549999Y-130024999D01*
X113550000Y-130024998D01*
X113550000Y-129050000D01*
X112712501Y-129050000D01*
X112712501Y-129324986D01*
X110550000Y-129324986D01*
X110550000Y-129209000D01*
X111050000Y-129209000D01*
X111899999Y-129209000D01*
X111899999Y-128959028D01*
X111899998Y-128959013D01*
X111889505Y-128856302D01*
X111834358Y-128689880D01*
X111834356Y-128689875D01*
X111742315Y-128540654D01*
X111618345Y-128416684D01*
X111469124Y-128324643D01*
X111469119Y-128324641D01*
X111302697Y-128269494D01*
X111302690Y-128269493D01*
X111199986Y-128259000D01*
X111050000Y-128259000D01*
X111050000Y-129209000D01*
X110550000Y-129209000D01*
X110550000Y-128259000D01*
X110400027Y-128259000D01*
X110400012Y-128259001D01*
X110297302Y-128269494D01*
X110130880Y-128324641D01*
X110130875Y-128324643D01*
X109981657Y-128416682D01*
X109888034Y-128510305D01*
X109826710Y-128543789D01*
X109757019Y-128538805D01*
X109712672Y-128510304D01*
X109618657Y-128416289D01*
X109618656Y-128416288D01*
X109469334Y-128324186D01*
X109302797Y-128269001D01*
X109302795Y-128269000D01*
X109200010Y-128258500D01*
X108399998Y-128258500D01*
X108399980Y-128258501D01*
X108297203Y-128269000D01*
X108297200Y-128269001D01*
X108130668Y-128324185D01*
X108130663Y-128324187D01*
X107981342Y-128416289D01*
X107857289Y-128540342D01*
X107765187Y-128689663D01*
X107765185Y-128689668D01*
X107746467Y-128746155D01*
X107710001Y-128856203D01*
X107710001Y-128856204D01*
X107710000Y-128856204D01*
X107699500Y-128958983D01*
X107699500Y-129959001D01*
X107699501Y-129959019D01*
X107710000Y-130061796D01*
X107710001Y-130061799D01*
X107733669Y-130133223D01*
X107765186Y-130228334D01*
X107857288Y-130377656D01*
X107981344Y-130501712D01*
X108130666Y-130593814D01*
X108245505Y-130631868D01*
X108302949Y-130671639D01*
X108329772Y-130736155D01*
X108330500Y-130749573D01*
X108330500Y-131149548D01*
X108310815Y-131216587D01*
X108258011Y-131262342D01*
X108188853Y-131272286D01*
X108125297Y-131243261D01*
X108118819Y-131237229D01*
X105617819Y-128736229D01*
X105584334Y-128674906D01*
X105581500Y-128648548D01*
X105581500Y-127104001D01*
X112323704Y-127104001D01*
X112323899Y-127106486D01*
X112369718Y-127264198D01*
X112453314Y-127405552D01*
X112453321Y-127405561D01*
X112569438Y-127521678D01*
X112569447Y-127521685D01*
X112710803Y-127605282D01*
X112710806Y-127605283D01*
X112827739Y-127639256D01*
X112886625Y-127676862D01*
X112915831Y-127740335D01*
X112906085Y-127809521D01*
X112880828Y-127846010D01*
X112870184Y-127856653D01*
X112778143Y-128005875D01*
X112778141Y-128005880D01*
X112722994Y-128172302D01*
X112722993Y-128172309D01*
X112712500Y-128275013D01*
X112712500Y-128550000D01*
X113550000Y-128550000D01*
X113550000Y-127693308D01*
X114050000Y-127693308D01*
X114050000Y-130024999D01*
X114187472Y-130024999D01*
X114187486Y-130024998D01*
X114290197Y-130014505D01*
X114456619Y-129959358D01*
X114456624Y-129959356D01*
X114605845Y-129867315D01*
X114729818Y-129743342D01*
X114731665Y-129740348D01*
X114733469Y-129738724D01*
X114734298Y-129737677D01*
X114734476Y-129737818D01*
X114783610Y-129693621D01*
X114852573Y-129682396D01*
X114916656Y-129710236D01*
X114942743Y-129740341D01*
X114944788Y-129743656D01*
X115068844Y-129867712D01*
X115218166Y-129959814D01*
X115384703Y-130014999D01*
X115487491Y-130025500D01*
X116262508Y-130025499D01*
X116262516Y-130025498D01*
X116262519Y-130025498D01*
X116318802Y-130019748D01*
X116365297Y-130014999D01*
X116531834Y-129959814D01*
X116681156Y-129867712D01*
X116805212Y-129743656D01*
X116889169Y-129607539D01*
X116941114Y-129560816D01*
X117010077Y-129549593D01*
X117035662Y-129555596D01*
X117120740Y-129585367D01*
X117120750Y-129585369D01*
X117299996Y-129605565D01*
X117300000Y-129605565D01*
X117300004Y-129605565D01*
X117479249Y-129585369D01*
X117479252Y-129585368D01*
X117479255Y-129585368D01*
X117649522Y-129525789D01*
X117802262Y-129429816D01*
X117929816Y-129302262D01*
X118025789Y-129149522D01*
X118085368Y-128979255D01*
X118086243Y-128971490D01*
X118105565Y-128800003D01*
X118105565Y-128799996D01*
X118085369Y-128620750D01*
X118085368Y-128620745D01*
X118077358Y-128597855D01*
X118025789Y-128450478D01*
X117929816Y-128297738D01*
X117802262Y-128170184D01*
X117649523Y-128074211D01*
X117479254Y-128014631D01*
X117479249Y-128014630D01*
X117300004Y-127994435D01*
X117299996Y-127994435D01*
X117120750Y-128014630D01*
X117120742Y-128014632D01*
X117035660Y-128044404D01*
X116965882Y-128047965D01*
X116905254Y-128013236D01*
X116889167Y-127992458D01*
X116844931Y-127920740D01*
X116805212Y-127856344D01*
X116681156Y-127732288D01*
X116550336Y-127651598D01*
X116531836Y-127640187D01*
X116531831Y-127640185D01*
X116484913Y-127624638D01*
X116365297Y-127585001D01*
X116365295Y-127585000D01*
X116262510Y-127574500D01*
X115487498Y-127574500D01*
X115487480Y-127574501D01*
X115384703Y-127585000D01*
X115384696Y-127585002D01*
X115319805Y-127606505D01*
X115249977Y-127608906D01*
X115189935Y-127573175D01*
X115158743Y-127510654D01*
X115166304Y-127441195D01*
X115185305Y-127412811D01*
X115183900Y-127411722D01*
X115188685Y-127405552D01*
X115272281Y-127264198D01*
X115318100Y-127106486D01*
X115318295Y-127104001D01*
X115318295Y-127104000D01*
X114071000Y-127104000D01*
X114071000Y-127624638D01*
X114051315Y-127691677D01*
X114050000Y-127693308D01*
X113550000Y-127693308D01*
X113550000Y-127604362D01*
X113569685Y-127537323D01*
X113571000Y-127535691D01*
X113571000Y-127104000D01*
X112323705Y-127104000D01*
X112323704Y-127104001D01*
X105581500Y-127104001D01*
X105581500Y-126957928D01*
X105601185Y-126890889D01*
X105634372Y-126856356D01*
X105787073Y-126749434D01*
X105946434Y-126590073D01*
X106075702Y-126405460D01*
X106170947Y-126201205D01*
X106229278Y-125983513D01*
X106248920Y-125759000D01*
X106229278Y-125534487D01*
X106170947Y-125316795D01*
X106075702Y-125112540D01*
X105946434Y-124927927D01*
X105787073Y-124768566D01*
X105634376Y-124661645D01*
X105590751Y-124607068D01*
X105581500Y-124560071D01*
X105581500Y-122608999D01*
X109025464Y-122608999D01*
X109025464Y-122609000D01*
X109045564Y-122825918D01*
X109105184Y-123035462D01*
X109202288Y-123230472D01*
X109333574Y-123404324D01*
X109457572Y-123517363D01*
X109493854Y-123577074D01*
X109492093Y-123646922D01*
X109457572Y-123700637D01*
X109333574Y-123813675D01*
X109202288Y-123987527D01*
X109105184Y-124182537D01*
X109045564Y-124392081D01*
X109025464Y-124608999D01*
X109025464Y-124609000D01*
X109045564Y-124825918D01*
X109045564Y-124825920D01*
X109045565Y-124825923D01*
X109091392Y-124986989D01*
X109105184Y-125035462D01*
X109173972Y-125173606D01*
X109202288Y-125230472D01*
X109333573Y-125404322D01*
X109494568Y-125551088D01*
X109494575Y-125551092D01*
X109494576Y-125551093D01*
X109679786Y-125665770D01*
X109679792Y-125665773D01*
X109702664Y-125674633D01*
X109882931Y-125744470D01*
X110097074Y-125784500D01*
X110097076Y-125784500D01*
X110314924Y-125784500D01*
X110314926Y-125784500D01*
X110529069Y-125744470D01*
X110732210Y-125665772D01*
X110917432Y-125551088D01*
X111078427Y-125404322D01*
X111209712Y-125230472D01*
X111306817Y-125035459D01*
X111315607Y-125004564D01*
X111352887Y-124945472D01*
X111416197Y-124915915D01*
X111434873Y-124914500D01*
X112305093Y-124914500D01*
X112372132Y-124934185D01*
X112417887Y-124986989D01*
X112427831Y-125056147D01*
X112411825Y-125101620D01*
X112369257Y-125173599D01*
X112369254Y-125173606D01*
X112323402Y-125331426D01*
X112323401Y-125331432D01*
X112320500Y-125368298D01*
X112320500Y-125799701D01*
X112323401Y-125836567D01*
X112323402Y-125836573D01*
X112369254Y-125994393D01*
X112369255Y-125994396D01*
X112369256Y-125994398D01*
X112452918Y-126135864D01*
X112457702Y-126142031D01*
X112455369Y-126143840D01*
X112482210Y-126192995D01*
X112477226Y-126262687D01*
X112456470Y-126295021D01*
X112458097Y-126296283D01*
X112453313Y-126302449D01*
X112369718Y-126443801D01*
X112323899Y-126601513D01*
X112323704Y-126603998D01*
X112323705Y-126604000D01*
X115318295Y-126604000D01*
X115318295Y-126603998D01*
X115318100Y-126601513D01*
X115272281Y-126443801D01*
X115188685Y-126302447D01*
X115183900Y-126296278D01*
X115186359Y-126294370D01*
X115159789Y-126245711D01*
X115164773Y-126176019D01*
X115185851Y-126143235D01*
X115184298Y-126142031D01*
X115189077Y-126135868D01*
X115189081Y-126135865D01*
X115232278Y-126062820D01*
X115251330Y-126038259D01*
X115306857Y-125982733D01*
X115306858Y-125982731D01*
X115313919Y-125975670D01*
X115313925Y-125975662D01*
X117108819Y-124180769D01*
X117170142Y-124147284D01*
X117239834Y-124152268D01*
X117295767Y-124194140D01*
X117320184Y-124259604D01*
X117320500Y-124268450D01*
X117320500Y-124529701D01*
X117323401Y-124566567D01*
X117323402Y-124566573D01*
X117369254Y-124724393D01*
X117369255Y-124724396D01*
X117452917Y-124865862D01*
X117457702Y-124872031D01*
X117455256Y-124873927D01*
X117481857Y-124922642D01*
X117476873Y-124992334D01*
X117456069Y-125024703D01*
X117457702Y-125025969D01*
X117452917Y-125032137D01*
X117369255Y-125173603D01*
X117369254Y-125173606D01*
X117323402Y-125331426D01*
X117323401Y-125331432D01*
X117320500Y-125368298D01*
X117320500Y-125799701D01*
X117323401Y-125836567D01*
X117323402Y-125836573D01*
X117369254Y-125994393D01*
X117369255Y-125994396D01*
X117369256Y-125994398D01*
X117452918Y-126135864D01*
X117457702Y-126142031D01*
X117455256Y-126143927D01*
X117481857Y-126192642D01*
X117476873Y-126262334D01*
X117456069Y-126294703D01*
X117457702Y-126295969D01*
X117452917Y-126302137D01*
X117369255Y-126443603D01*
X117369254Y-126443606D01*
X117323402Y-126601426D01*
X117323401Y-126601432D01*
X117320500Y-126638298D01*
X117320500Y-127069701D01*
X117323401Y-127106567D01*
X117323402Y-127106573D01*
X117369254Y-127264393D01*
X117369255Y-127264396D01*
X117369256Y-127264398D01*
X117406681Y-127327681D01*
X117452917Y-127405862D01*
X117452923Y-127405870D01*
X117569129Y-127522076D01*
X117569133Y-127522079D01*
X117569135Y-127522081D01*
X117710602Y-127605744D01*
X117721486Y-127608906D01*
X117868426Y-127651597D01*
X117868429Y-127651597D01*
X117868431Y-127651598D01*
X117905306Y-127654500D01*
X118365902Y-127654500D01*
X118432941Y-127674185D01*
X118453583Y-127690819D01*
X118459349Y-127696585D01*
X118459355Y-127696590D01*
X118779221Y-128016456D01*
X118812706Y-128077779D01*
X118815540Y-128104137D01*
X118815540Y-128108997D01*
X118815540Y-128109000D01*
X118835326Y-128297256D01*
X118835327Y-128297259D01*
X118893818Y-128477277D01*
X118893821Y-128477284D01*
X118988467Y-128641216D01*
X119082955Y-128746155D01*
X119115129Y-128781888D01*
X119268265Y-128893148D01*
X119268270Y-128893151D01*
X119441192Y-128970142D01*
X119441197Y-128970144D01*
X119626354Y-129009500D01*
X119626355Y-129009500D01*
X119815644Y-129009500D01*
X119815646Y-129009500D01*
X120000803Y-128970144D01*
X120173730Y-128893151D01*
X120326871Y-128781888D01*
X120453533Y-128641216D01*
X120548179Y-128477284D01*
X120606674Y-128297256D01*
X120626460Y-128109000D01*
X120606674Y-127920744D01*
X120548179Y-127740716D01*
X120453533Y-127576784D01*
X120326871Y-127436112D01*
X120309263Y-127423319D01*
X120266597Y-127367990D01*
X120260618Y-127298376D01*
X120270745Y-127272032D01*
X120269646Y-127271557D01*
X120272743Y-127264399D01*
X120272744Y-127264398D01*
X120291704Y-127199137D01*
X120329309Y-127140253D01*
X120392782Y-127111046D01*
X120461969Y-127120792D01*
X120498460Y-127146051D01*
X126660140Y-133307732D01*
X126660141Y-133307733D01*
X126712986Y-133360578D01*
X126747267Y-133394859D01*
X126849706Y-133463307D01*
X126849715Y-133463312D01*
X126870738Y-133472020D01*
X126963547Y-133510463D01*
X127023970Y-133522481D01*
X127084392Y-133534500D01*
X135567607Y-133534500D01*
X135628029Y-133522481D01*
X135688452Y-133510463D01*
X135722678Y-133496286D01*
X135802286Y-133463312D01*
X135853509Y-133429084D01*
X135904733Y-133394858D01*
X135991858Y-133307733D01*
X135991858Y-133307731D01*
X136002066Y-133297524D01*
X136002068Y-133297521D01*
X137103771Y-132195818D01*
X137165094Y-132162333D01*
X137191452Y-132159499D01*
X137856002Y-132159499D01*
X137856008Y-132159499D01*
X137958797Y-132148999D01*
X138125334Y-132093814D01*
X138274656Y-132001712D01*
X138368319Y-131908049D01*
X138429642Y-131874564D01*
X138499334Y-131879548D01*
X138543681Y-131908049D01*
X138637344Y-132001712D01*
X138786666Y-132093814D01*
X138953203Y-132148999D01*
X139055991Y-132159500D01*
X139856008Y-132159499D01*
X139856016Y-132159498D01*
X139856019Y-132159498D01*
X139912302Y-132153748D01*
X139958797Y-132148999D01*
X140125334Y-132093814D01*
X140274656Y-132001712D01*
X140368319Y-131908049D01*
X140429642Y-131874564D01*
X140499334Y-131879548D01*
X140543681Y-131908049D01*
X140637344Y-132001712D01*
X140786666Y-132093814D01*
X140953203Y-132148999D01*
X141055991Y-132159500D01*
X141856008Y-132159499D01*
X141856016Y-132159498D01*
X141856019Y-132159498D01*
X141912302Y-132153748D01*
X141958797Y-132148999D01*
X142125334Y-132093814D01*
X142274656Y-132001712D01*
X142368319Y-131908049D01*
X142429642Y-131874564D01*
X142499334Y-131879548D01*
X142543681Y-131908049D01*
X142637344Y-132001712D01*
X142786666Y-132093814D01*
X142953203Y-132148999D01*
X143055991Y-132159500D01*
X143856008Y-132159499D01*
X143856016Y-132159498D01*
X143856019Y-132159498D01*
X143912302Y-132153748D01*
X143958797Y-132148999D01*
X144125334Y-132093814D01*
X144274656Y-132001712D01*
X144398712Y-131877656D01*
X144490814Y-131728334D01*
X144545999Y-131561797D01*
X144556500Y-131459009D01*
X144556499Y-130458992D01*
X144556365Y-130457684D01*
X144545999Y-130356203D01*
X144545998Y-130356200D01*
X144490814Y-130189666D01*
X144398712Y-130040344D01*
X144274656Y-129916288D01*
X144140402Y-129833480D01*
X144093679Y-129781533D01*
X144081500Y-129727942D01*
X144081500Y-129537393D01*
X144081499Y-129537389D01*
X144076721Y-129513369D01*
X144057463Y-129416548D01*
X144025459Y-129339283D01*
X144010312Y-129302714D01*
X143964752Y-129234530D01*
X143941858Y-129200267D01*
X143941856Y-129200264D01*
X143917932Y-129176340D01*
X143884447Y-129115017D01*
X143889431Y-129045325D01*
X143931303Y-128989392D01*
X143996767Y-128964975D01*
X144005613Y-128964659D01*
X144006001Y-128964659D01*
X144045234Y-128961226D01*
X144241408Y-128944063D01*
X144469663Y-128882903D01*
X144683830Y-128783035D01*
X144877401Y-128647495D01*
X145044495Y-128480401D01*
X145179652Y-128287377D01*
X145234229Y-128243752D01*
X145281227Y-128234500D01*
X147795548Y-128234500D01*
X147862587Y-128254185D01*
X147883229Y-128270819D01*
X149971874Y-130359465D01*
X150005359Y-130420788D01*
X150000375Y-130490480D01*
X149958503Y-130546413D01*
X149906980Y-130569034D01*
X149882940Y-130573528D01*
X149882934Y-130573529D01*
X149882931Y-130573530D01*
X149861961Y-130581654D01*
X149679792Y-130652226D01*
X149679786Y-130652229D01*
X149494576Y-130766906D01*
X149494566Y-130766913D01*
X149333573Y-130913676D01*
X149304953Y-130951576D01*
X149248844Y-130993211D01*
X149179132Y-130997902D01*
X149117950Y-130964159D01*
X149107047Y-130951576D01*
X149078426Y-130913676D01*
X148917433Y-130766913D01*
X148917423Y-130766906D01*
X148732213Y-130652229D01*
X148732207Y-130652226D01*
X148647113Y-130619260D01*
X148529069Y-130573530D01*
X148314926Y-130533500D01*
X148097074Y-130533500D01*
X147882931Y-130573530D01*
X147861961Y-130581654D01*
X147679792Y-130652226D01*
X147679786Y-130652229D01*
X147494565Y-130766913D01*
X147483585Y-130776923D01*
X147420780Y-130807537D01*
X147351393Y-130799336D01*
X147300785Y-130759594D01*
X147274848Y-130724948D01*
X147238546Y-130676454D01*
X147238544Y-130676453D01*
X147238544Y-130676452D01*
X147123335Y-130590206D01*
X147123328Y-130590202D01*
X146988482Y-130539908D01*
X146988483Y-130539908D01*
X146928883Y-130533501D01*
X146928881Y-130533500D01*
X146928873Y-130533500D01*
X146928864Y-130533500D01*
X145483129Y-130533500D01*
X145483123Y-130533501D01*
X145423516Y-130539908D01*
X145288671Y-130590202D01*
X145288664Y-130590206D01*
X145173455Y-130676452D01*
X145173452Y-130676455D01*
X145087206Y-130791664D01*
X145087202Y-130791671D01*
X145036908Y-130926517D01*
X145030501Y-130986116D01*
X145030500Y-130986135D01*
X145030500Y-132431870D01*
X145030501Y-132431876D01*
X145036908Y-132491483D01*
X145087202Y-132626328D01*
X145087206Y-132626335D01*
X145173452Y-132741544D01*
X145173455Y-132741547D01*
X145288664Y-132827793D01*
X145288671Y-132827797D01*
X145423517Y-132878091D01*
X145423516Y-132878091D01*
X145430444Y-132878835D01*
X145483127Y-132884500D01*
X146928872Y-132884499D01*
X146988483Y-132878091D01*
X147123331Y-132827796D01*
X147238546Y-132741546D01*
X147300785Y-132658404D01*
X147356718Y-132616535D01*
X147426410Y-132611551D01*
X147483588Y-132641078D01*
X147494568Y-132651088D01*
X147494570Y-132651089D01*
X147494571Y-132651090D01*
X147679786Y-132765770D01*
X147679792Y-132765773D01*
X147702664Y-132774633D01*
X147882931Y-132844470D01*
X148097074Y-132884500D01*
X148097076Y-132884500D01*
X148314924Y-132884500D01*
X148314926Y-132884500D01*
X148529069Y-132844470D01*
X148732210Y-132765772D01*
X148917432Y-132651088D01*
X149078427Y-132504322D01*
X149107047Y-132466422D01*
X149163153Y-132424787D01*
X149232865Y-132420094D01*
X149294048Y-132453836D01*
X149304946Y-132466414D01*
X149333573Y-132504322D01*
X149333576Y-132504325D01*
X149333578Y-132504327D01*
X149406484Y-132570789D01*
X149494568Y-132651088D01*
X149494575Y-132651092D01*
X149494576Y-132651093D01*
X149679786Y-132765770D01*
X149679792Y-132765773D01*
X149702664Y-132774633D01*
X149882931Y-132844470D01*
X150097074Y-132884500D01*
X150097076Y-132884500D01*
X150314924Y-132884500D01*
X150314926Y-132884500D01*
X150529069Y-132844470D01*
X150732210Y-132765772D01*
X150917432Y-132651088D01*
X151078427Y-132504322D01*
X151107047Y-132466422D01*
X151163153Y-132424787D01*
X151232865Y-132420094D01*
X151294048Y-132453836D01*
X151304946Y-132466414D01*
X151333573Y-132504322D01*
X151333576Y-132504325D01*
X151333578Y-132504327D01*
X151406484Y-132570789D01*
X151494568Y-132651088D01*
X151494575Y-132651092D01*
X151494576Y-132651093D01*
X151679786Y-132765770D01*
X151679792Y-132765773D01*
X151702664Y-132774633D01*
X151882931Y-132844470D01*
X152097074Y-132884500D01*
X152097076Y-132884500D01*
X152314924Y-132884500D01*
X152314926Y-132884500D01*
X152529069Y-132844470D01*
X152732210Y-132765772D01*
X152917432Y-132651088D01*
X153078427Y-132504322D01*
X153209712Y-132330472D01*
X153306817Y-132135459D01*
X153366435Y-131925923D01*
X153386536Y-131709000D01*
X153370519Y-131536155D01*
X162031000Y-131536155D01*
X162031000Y-132009000D01*
X162890314Y-132009000D01*
X162885920Y-132013394D01*
X162833259Y-132104606D01*
X162806000Y-132206339D01*
X162806000Y-132311661D01*
X162833259Y-132413394D01*
X162885920Y-132504606D01*
X162890314Y-132509000D01*
X162031000Y-132509000D01*
X162031000Y-132981844D01*
X162037401Y-133041372D01*
X162037403Y-133041379D01*
X162087645Y-133176086D01*
X162087649Y-133176093D01*
X162173809Y-133291187D01*
X162173812Y-133291190D01*
X162288906Y-133377350D01*
X162288913Y-133377354D01*
X162423620Y-133427596D01*
X162423627Y-133427598D01*
X162483155Y-133433999D01*
X162483172Y-133434000D01*
X162956000Y-133434000D01*
X162956000Y-132574686D01*
X162960394Y-132579080D01*
X163051606Y-132631741D01*
X163153339Y-132659000D01*
X163258661Y-132659000D01*
X163360394Y-132631741D01*
X163451606Y-132579080D01*
X163456000Y-132574686D01*
X163456000Y-133434000D01*
X163928828Y-133434000D01*
X163928844Y-133433999D01*
X163988372Y-133427598D01*
X163988379Y-133427596D01*
X164123086Y-133377354D01*
X164123093Y-133377350D01*
X164238186Y-133291191D01*
X164300413Y-133208067D01*
X164356347Y-133166196D01*
X164426038Y-133161212D01*
X164483216Y-133190739D01*
X164494568Y-133201088D01*
X164494575Y-133201092D01*
X164494576Y-133201093D01*
X164679786Y-133315770D01*
X164679792Y-133315773D01*
X164702664Y-133324633D01*
X164882931Y-133394470D01*
X165097074Y-133434500D01*
X165097076Y-133434500D01*
X165314924Y-133434500D01*
X165314926Y-133434500D01*
X165529069Y-133394470D01*
X165732210Y-133315772D01*
X165917432Y-133201088D01*
X166078427Y-133054322D01*
X166209712Y-132880472D01*
X166306817Y-132685459D01*
X166366435Y-132475923D01*
X166386536Y-132259000D01*
X166384678Y-132238954D01*
X166371229Y-132093812D01*
X166370664Y-132087711D01*
X172555500Y-132087711D01*
X172555500Y-132330288D01*
X172587161Y-132570785D01*
X172649947Y-132805104D01*
X172742773Y-133029205D01*
X172742777Y-133029214D01*
X172749801Y-133041379D01*
X172864064Y-133239289D01*
X172864066Y-133239292D01*
X172864067Y-133239293D01*
X173011733Y-133431736D01*
X173011739Y-133431743D01*
X173183256Y-133603260D01*
X173183263Y-133603266D01*
X173270984Y-133670576D01*
X173375711Y-133750936D01*
X173585788Y-133872224D01*
X173809900Y-133965054D01*
X174044211Y-134027838D01*
X174224586Y-134051584D01*
X174284711Y-134059500D01*
X174284712Y-134059500D01*
X174527289Y-134059500D01*
X174575388Y-134053167D01*
X174767789Y-134027838D01*
X175002100Y-133965054D01*
X175226212Y-133872224D01*
X175436289Y-133750936D01*
X175628738Y-133603265D01*
X175800265Y-133431738D01*
X175947936Y-133239289D01*
X176069224Y-133029212D01*
X176162054Y-132805100D01*
X176224838Y-132570789D01*
X176256500Y-132330288D01*
X176256500Y-132087712D01*
X176224838Y-131847211D01*
X176162054Y-131612900D01*
X176069224Y-131388788D01*
X175947936Y-131178711D01*
X175880175Y-131090403D01*
X175800266Y-130986263D01*
X175800260Y-130986256D01*
X175628743Y-130814739D01*
X175628736Y-130814733D01*
X175436293Y-130667067D01*
X175436292Y-130667066D01*
X175436289Y-130667064D01*
X175233788Y-130550150D01*
X175226214Y-130545777D01*
X175226205Y-130545773D01*
X175002104Y-130452947D01*
X174767785Y-130390161D01*
X174527289Y-130358500D01*
X174527288Y-130358500D01*
X174284712Y-130358500D01*
X174284711Y-130358500D01*
X174044214Y-130390161D01*
X173809895Y-130452947D01*
X173585794Y-130545773D01*
X173585785Y-130545777D01*
X173375706Y-130667067D01*
X173183263Y-130814733D01*
X173183256Y-130814739D01*
X173011739Y-130986256D01*
X173011733Y-130986263D01*
X172864067Y-131178706D01*
X172742777Y-131388785D01*
X172742773Y-131388794D01*
X172649947Y-131612895D01*
X172587161Y-131847214D01*
X172555500Y-132087711D01*
X166370664Y-132087711D01*
X166366435Y-132042077D01*
X166306817Y-131832541D01*
X166209712Y-131637528D01*
X166078427Y-131463678D01*
X166073305Y-131459009D01*
X165917433Y-131316913D01*
X165917423Y-131316906D01*
X165732213Y-131202229D01*
X165732207Y-131202226D01*
X165647113Y-131169260D01*
X165529069Y-131123530D01*
X165314926Y-131083500D01*
X165097074Y-131083500D01*
X164882931Y-131123530D01*
X164838753Y-131140645D01*
X164679792Y-131202226D01*
X164679786Y-131202229D01*
X164494565Y-131316913D01*
X164483214Y-131327261D01*
X164420408Y-131357875D01*
X164351021Y-131349674D01*
X164300414Y-131309932D01*
X164238187Y-131226809D01*
X164123093Y-131140649D01*
X164123086Y-131140645D01*
X163988379Y-131090403D01*
X163988372Y-131090401D01*
X163928844Y-131084000D01*
X163456000Y-131084000D01*
X163456000Y-131943314D01*
X163451606Y-131938920D01*
X163360394Y-131886259D01*
X163258661Y-131859000D01*
X163153339Y-131859000D01*
X163051606Y-131886259D01*
X162960394Y-131938920D01*
X162956000Y-131943314D01*
X162956000Y-131084000D01*
X162483155Y-131084000D01*
X162423627Y-131090401D01*
X162423620Y-131090403D01*
X162288913Y-131140645D01*
X162288906Y-131140649D01*
X162173812Y-131226809D01*
X162173809Y-131226812D01*
X162087649Y-131341906D01*
X162087645Y-131341913D01*
X162037403Y-131476620D01*
X162037401Y-131476627D01*
X162031000Y-131536155D01*
X153370519Y-131536155D01*
X153366435Y-131492077D01*
X153306817Y-131282541D01*
X153209712Y-131087528D01*
X153078427Y-130913678D01*
X153060463Y-130897302D01*
X152961996Y-130807537D01*
X152917432Y-130766912D01*
X152917428Y-130766909D01*
X152917423Y-130766906D01*
X152732213Y-130652229D01*
X152732207Y-130652226D01*
X152647113Y-130619260D01*
X152529069Y-130573530D01*
X152314926Y-130533500D01*
X152097074Y-130533500D01*
X152097072Y-130533500D01*
X152007997Y-130550150D01*
X151938482Y-130543118D01*
X151897533Y-130515942D01*
X148598928Y-127217338D01*
X148598925Y-127217334D01*
X148598925Y-127217335D01*
X148591858Y-127210268D01*
X148591858Y-127210267D01*
X148504733Y-127123142D01*
X148504732Y-127123141D01*
X148504731Y-127123140D01*
X148453509Y-127088915D01*
X148417130Y-127064607D01*
X148402286Y-127054688D01*
X148402283Y-127054686D01*
X148402280Y-127054685D01*
X148321792Y-127021347D01*
X148288454Y-127007538D01*
X148288455Y-127007538D01*
X148288452Y-127007537D01*
X148288448Y-127007536D01*
X148288444Y-127007535D01*
X148201772Y-126990295D01*
X148201771Y-126990295D01*
X148167611Y-126983500D01*
X148167607Y-126983500D01*
X148167606Y-126983500D01*
X145281227Y-126983500D01*
X145214188Y-126963815D01*
X145179652Y-126930623D01*
X145044494Y-126737597D01*
X144877402Y-126570506D01*
X144877395Y-126570501D01*
X144683834Y-126434967D01*
X144683830Y-126434965D01*
X144620569Y-126405466D01*
X144469663Y-126335097D01*
X144469659Y-126335096D01*
X144469655Y-126335094D01*
X144241413Y-126273938D01*
X144241403Y-126273936D01*
X144006001Y-126253341D01*
X144005999Y-126253341D01*
X143770596Y-126273936D01*
X143770586Y-126273938D01*
X143542344Y-126335094D01*
X143542335Y-126335098D01*
X143328171Y-126434964D01*
X143328169Y-126434965D01*
X143134597Y-126570505D01*
X142967505Y-126737597D01*
X142837575Y-126923158D01*
X142782998Y-126966783D01*
X142713500Y-126973977D01*
X142651145Y-126942454D01*
X142634425Y-126923158D01*
X142504494Y-126737597D01*
X142337402Y-126570506D01*
X142337395Y-126570501D01*
X142143834Y-126434967D01*
X142143830Y-126434965D01*
X142080569Y-126405466D01*
X141929663Y-126335097D01*
X141929659Y-126335096D01*
X141929655Y-126335094D01*
X141701413Y-126273938D01*
X141701403Y-126273936D01*
X141466001Y-126253341D01*
X141465999Y-126253341D01*
X141230596Y-126273936D01*
X141230586Y-126273938D01*
X141002344Y-126335094D01*
X141002335Y-126335098D01*
X140788171Y-126434964D01*
X140788169Y-126434965D01*
X140594597Y-126570505D01*
X140427505Y-126737597D01*
X140297575Y-126923158D01*
X140242998Y-126966783D01*
X140173500Y-126973977D01*
X140111145Y-126942454D01*
X140094425Y-126923158D01*
X139964494Y-126737597D01*
X139797402Y-126570506D01*
X139797395Y-126570501D01*
X139603834Y-126434967D01*
X139603830Y-126434965D01*
X139540569Y-126405466D01*
X139389663Y-126335097D01*
X139389659Y-126335096D01*
X139389655Y-126335094D01*
X139161413Y-126273938D01*
X139161403Y-126273936D01*
X138926001Y-126253341D01*
X138925999Y-126253341D01*
X138690596Y-126273936D01*
X138690586Y-126273938D01*
X138462344Y-126335094D01*
X138462335Y-126335098D01*
X138248171Y-126434964D01*
X138248169Y-126434965D01*
X138054597Y-126570505D01*
X137887505Y-126737597D01*
X137757575Y-126923158D01*
X137702998Y-126966783D01*
X137633500Y-126973977D01*
X137571145Y-126942454D01*
X137554425Y-126923158D01*
X137424494Y-126737597D01*
X137257402Y-126570506D01*
X137257395Y-126570501D01*
X137063834Y-126434967D01*
X137063830Y-126434965D01*
X137000569Y-126405466D01*
X136849663Y-126335097D01*
X136849659Y-126335096D01*
X136849655Y-126335094D01*
X136621413Y-126273938D01*
X136621403Y-126273936D01*
X136386001Y-126253341D01*
X136385999Y-126253341D01*
X136150596Y-126273936D01*
X136150586Y-126273938D01*
X135922344Y-126335094D01*
X135922335Y-126335098D01*
X135708171Y-126434964D01*
X135708169Y-126434965D01*
X135514597Y-126570505D01*
X135347505Y-126737597D01*
X135217575Y-126923158D01*
X135162998Y-126966783D01*
X135093500Y-126973977D01*
X135031145Y-126942454D01*
X135014425Y-126923158D01*
X134884494Y-126737597D01*
X134717402Y-126570506D01*
X134717395Y-126570501D01*
X134523834Y-126434967D01*
X134523830Y-126434965D01*
X134460569Y-126405466D01*
X134309663Y-126335097D01*
X134309659Y-126335096D01*
X134309655Y-126335094D01*
X134081413Y-126273938D01*
X134081403Y-126273936D01*
X133846001Y-126253341D01*
X133845999Y-126253341D01*
X133610596Y-126273936D01*
X133610586Y-126273938D01*
X133382344Y-126335094D01*
X133382335Y-126335098D01*
X133168171Y-126434964D01*
X133168169Y-126434965D01*
X132974600Y-126570503D01*
X132852673Y-126692430D01*
X132791350Y-126725914D01*
X132721658Y-126720930D01*
X132665725Y-126679058D01*
X132648810Y-126648081D01*
X132599797Y-126516671D01*
X132599793Y-126516664D01*
X132513547Y-126401455D01*
X132513544Y-126401452D01*
X132398335Y-126315206D01*
X132398328Y-126315202D01*
X132263482Y-126264908D01*
X132263483Y-126264908D01*
X132203883Y-126258501D01*
X132203881Y-126258500D01*
X132203873Y-126258500D01*
X132203864Y-126258500D01*
X130408129Y-126258500D01*
X130408123Y-126258501D01*
X130348516Y-126264908D01*
X130213671Y-126315202D01*
X130213664Y-126315206D01*
X130098455Y-126401452D01*
X130098452Y-126401455D01*
X130012206Y-126516664D01*
X130012202Y-126516671D01*
X129961908Y-126651517D01*
X129955501Y-126711116D01*
X129955500Y-126711135D01*
X129955500Y-128438075D01*
X129935815Y-128505114D01*
X129883011Y-128550869D01*
X129857281Y-128559365D01*
X129676197Y-128597855D01*
X129676192Y-128597857D01*
X129617914Y-128623805D01*
X129548664Y-128633090D01*
X129485387Y-128603462D01*
X129479797Y-128598207D01*
X127946197Y-127064607D01*
X127946177Y-127064585D01*
X120993928Y-120112338D01*
X120993925Y-120112334D01*
X120993925Y-120112335D01*
X120986858Y-120105268D01*
X120986858Y-120105267D01*
X120899733Y-120018142D01*
X120899732Y-120018141D01*
X120899731Y-120018140D01*
X120848509Y-119983915D01*
X120800948Y-119952135D01*
X120797286Y-119949688D01*
X120788319Y-119945974D01*
X120764266Y-119936011D01*
X120708031Y-119912718D01*
X120708029Y-119912716D01*
X120683458Y-119902539D01*
X120683446Y-119902535D01*
X120600958Y-119886127D01*
X120600951Y-119886127D01*
X120562607Y-119878500D01*
X120562606Y-119878500D01*
X120351692Y-119878500D01*
X120284653Y-119858815D01*
X120238898Y-119806011D01*
X120228954Y-119736853D01*
X120244959Y-119691380D01*
X120272744Y-119644398D01*
X120318598Y-119486569D01*
X120321500Y-119449694D01*
X120321500Y-119258997D01*
X169163080Y-119258997D01*
X169163080Y-119259002D01*
X169182721Y-119483507D01*
X169182722Y-119483514D01*
X169241051Y-119701200D01*
X169241055Y-119701211D01*
X169336296Y-119905456D01*
X169336302Y-119905466D01*
X169391233Y-119983915D01*
X169465566Y-120090073D01*
X169624927Y-120249434D01*
X169777625Y-120356355D01*
X169821249Y-120410930D01*
X169830500Y-120457928D01*
X169830500Y-124560071D01*
X169810815Y-124627110D01*
X169777624Y-124661645D01*
X169624926Y-124768566D01*
X169465566Y-124927926D01*
X169336302Y-125112533D01*
X169336296Y-125112543D01*
X169241055Y-125316788D01*
X169241051Y-125316799D01*
X169182722Y-125534485D01*
X169182721Y-125534492D01*
X169163080Y-125758997D01*
X169163080Y-125759002D01*
X169182721Y-125983507D01*
X169182722Y-125983514D01*
X169241051Y-126201200D01*
X169241055Y-126201211D01*
X169294210Y-126315202D01*
X169336298Y-126405460D01*
X169465566Y-126590073D01*
X169624927Y-126749434D01*
X169809540Y-126878702D01*
X169863891Y-126904046D01*
X170013788Y-126973944D01*
X170013790Y-126973944D01*
X170013795Y-126973947D01*
X170231487Y-127032278D01*
X170391853Y-127046308D01*
X170455998Y-127051920D01*
X170456000Y-127051920D01*
X170456002Y-127051920D01*
X170512260Y-127046998D01*
X170680513Y-127032278D01*
X170898205Y-126973947D01*
X171102460Y-126878702D01*
X171287073Y-126749434D01*
X171446434Y-126590073D01*
X171575702Y-126405460D01*
X171670947Y-126201205D01*
X171729278Y-125983513D01*
X171748920Y-125759000D01*
X171729278Y-125534487D01*
X171670947Y-125316795D01*
X171575702Y-125112540D01*
X171446434Y-124927927D01*
X171442142Y-124923635D01*
X173668000Y-124923635D01*
X173668000Y-126594370D01*
X173668001Y-126594376D01*
X173674408Y-126653983D01*
X173724702Y-126788828D01*
X173724706Y-126788835D01*
X173810952Y-126904044D01*
X173810955Y-126904047D01*
X173926164Y-126990293D01*
X173926171Y-126990297D01*
X174061017Y-127040591D01*
X174061016Y-127040591D01*
X174067944Y-127041335D01*
X174120627Y-127047000D01*
X175791372Y-127046999D01*
X175850983Y-127040591D01*
X175985831Y-126990296D01*
X176101046Y-126904046D01*
X176187296Y-126788831D01*
X176237591Y-126653983D01*
X176244000Y-126594373D01*
X176243999Y-124923628D01*
X176238656Y-124873927D01*
X176237591Y-124864016D01*
X176187297Y-124729171D01*
X176187293Y-124729164D01*
X176101047Y-124613955D01*
X176101044Y-124613952D01*
X175985835Y-124527706D01*
X175985828Y-124527702D01*
X175850982Y-124477408D01*
X175850983Y-124477408D01*
X175791383Y-124471001D01*
X175791381Y-124471000D01*
X175791373Y-124471000D01*
X175791364Y-124471000D01*
X174120629Y-124471000D01*
X174120623Y-124471001D01*
X174061016Y-124477408D01*
X173926171Y-124527702D01*
X173926164Y-124527706D01*
X173810955Y-124613952D01*
X173810952Y-124613955D01*
X173724706Y-124729164D01*
X173724702Y-124729171D01*
X173674408Y-124864017D01*
X173668981Y-124914500D01*
X173668001Y-124923623D01*
X173668000Y-124923635D01*
X171442142Y-124923635D01*
X171287073Y-124768566D01*
X171134376Y-124661645D01*
X171090751Y-124607068D01*
X171081500Y-124560071D01*
X171081500Y-120457928D01*
X171101185Y-120390889D01*
X171134372Y-120356356D01*
X171287073Y-120249434D01*
X171446434Y-120090073D01*
X171575702Y-119905460D01*
X171670947Y-119701205D01*
X171729278Y-119483513D01*
X171748920Y-119259000D01*
X171748920Y-119258997D01*
X173663080Y-119258997D01*
X173663080Y-119259002D01*
X173682721Y-119483507D01*
X173682722Y-119483514D01*
X173741051Y-119701200D01*
X173741055Y-119701211D01*
X173836296Y-119905456D01*
X173836302Y-119905466D01*
X173891233Y-119983915D01*
X173965566Y-120090073D01*
X174124927Y-120249434D01*
X174309540Y-120378702D01*
X174363891Y-120404046D01*
X174513788Y-120473944D01*
X174513790Y-120473944D01*
X174513795Y-120473947D01*
X174731487Y-120532278D01*
X174891853Y-120546308D01*
X174955998Y-120551920D01*
X174956000Y-120551920D01*
X174956002Y-120551920D01*
X175012260Y-120546998D01*
X175180513Y-120532278D01*
X175398205Y-120473947D01*
X175602460Y-120378702D01*
X175787073Y-120249434D01*
X175946434Y-120090073D01*
X176075702Y-119905460D01*
X176170947Y-119701205D01*
X176229278Y-119483513D01*
X176248920Y-119259000D01*
X176229278Y-119034487D01*
X176170947Y-118816795D01*
X176136606Y-118743151D01*
X176108154Y-118682135D01*
X176075702Y-118612540D01*
X175946434Y-118427927D01*
X175787073Y-118268566D01*
X175660140Y-118179686D01*
X175602466Y-118139302D01*
X175602463Y-118139300D01*
X175602460Y-118139298D01*
X175575731Y-118126834D01*
X175398211Y-118044055D01*
X175398200Y-118044051D01*
X175180514Y-117985722D01*
X175180507Y-117985721D01*
X174956002Y-117966080D01*
X174955998Y-117966080D01*
X174731492Y-117985721D01*
X174731485Y-117985722D01*
X174513799Y-118044051D01*
X174513788Y-118044055D01*
X174309543Y-118139296D01*
X174309533Y-118139302D01*
X174124926Y-118268566D01*
X173965566Y-118427926D01*
X173836302Y-118612533D01*
X173836296Y-118612543D01*
X173741055Y-118816788D01*
X173741051Y-118816799D01*
X173682722Y-119034485D01*
X173682721Y-119034492D01*
X173663080Y-119258997D01*
X171748920Y-119258997D01*
X171729278Y-119034487D01*
X171670947Y-118816795D01*
X171636606Y-118743151D01*
X171608154Y-118682135D01*
X171575702Y-118612540D01*
X171446434Y-118427927D01*
X171287073Y-118268566D01*
X171160140Y-118179686D01*
X171102466Y-118139302D01*
X171102463Y-118139300D01*
X171102460Y-118139298D01*
X171075731Y-118126834D01*
X170898211Y-118044055D01*
X170898200Y-118044051D01*
X170680514Y-117985722D01*
X170680507Y-117985721D01*
X170456002Y-117966080D01*
X170455998Y-117966080D01*
X170231492Y-117985721D01*
X170231485Y-117985722D01*
X170013799Y-118044051D01*
X170013788Y-118044055D01*
X169809543Y-118139296D01*
X169809533Y-118139302D01*
X169624926Y-118268566D01*
X169465566Y-118427926D01*
X169336302Y-118612533D01*
X169336296Y-118612543D01*
X169241055Y-118816788D01*
X169241051Y-118816799D01*
X169182722Y-119034485D01*
X169182721Y-119034492D01*
X169163080Y-119258997D01*
X120321500Y-119258997D01*
X120321500Y-119018306D01*
X120318598Y-118981431D01*
X120298806Y-118913307D01*
X120299005Y-118843440D01*
X120336946Y-118784769D01*
X120400584Y-118755925D01*
X120468317Y-118765433D01*
X120591197Y-118820144D01*
X120776354Y-118859500D01*
X120776355Y-118859500D01*
X120965644Y-118859500D01*
X120965646Y-118859500D01*
X121150803Y-118820144D01*
X121323730Y-118743151D01*
X121476871Y-118631888D01*
X121603533Y-118491216D01*
X121698179Y-118327284D01*
X121756674Y-118147256D01*
X121776460Y-117959000D01*
X121756674Y-117770744D01*
X121698179Y-117590716D01*
X121603533Y-117426784D01*
X121476871Y-117286112D01*
X121476863Y-117286106D01*
X121323734Y-117174851D01*
X121323729Y-117174848D01*
X121150807Y-117097857D01*
X121150802Y-117097855D01*
X121005001Y-117066865D01*
X120965646Y-117058500D01*
X120776354Y-117058500D01*
X120743897Y-117065398D01*
X120591197Y-117097855D01*
X120591192Y-117097857D01*
X120418270Y-117174848D01*
X120418265Y-117174851D01*
X120265135Y-117286106D01*
X120265131Y-117286109D01*
X120256821Y-117295339D01*
X120197333Y-117331986D01*
X120127476Y-117330653D01*
X120076992Y-117300045D01*
X120072870Y-117295923D01*
X120072862Y-117295917D01*
X119931396Y-117212255D01*
X119931393Y-117212254D01*
X119773573Y-117166402D01*
X119773567Y-117166401D01*
X119736701Y-117163500D01*
X119736694Y-117163500D01*
X117905306Y-117163500D01*
X117905298Y-117163500D01*
X117868432Y-117166401D01*
X117721094Y-117209207D01*
X117651225Y-117209007D01*
X117592555Y-117171064D01*
X117563712Y-117107426D01*
X117562500Y-117090130D01*
X117562500Y-116403452D01*
X117582185Y-116336413D01*
X117598819Y-116315771D01*
X119643772Y-114270819D01*
X119705095Y-114237334D01*
X119731453Y-114234500D01*
X130515846Y-114234500D01*
X130582885Y-114254185D01*
X130628640Y-114306989D01*
X130633552Y-114319496D01*
X130656589Y-114389016D01*
X130686186Y-114478334D01*
X130778288Y-114627656D01*
X130902344Y-114751712D01*
X131051666Y-114843814D01*
X131218203Y-114898999D01*
X131320991Y-114909500D01*
X132121008Y-114909499D01*
X132121016Y-114909498D01*
X132121019Y-114909498D01*
X132177302Y-114903748D01*
X132223797Y-114898999D01*
X132390334Y-114843814D01*
X132539656Y-114751712D01*
X132633319Y-114658049D01*
X132694642Y-114624564D01*
X132764334Y-114629548D01*
X132808681Y-114658049D01*
X132902344Y-114751712D01*
X133036597Y-114834519D01*
X133083321Y-114886465D01*
X133095500Y-114940057D01*
X133095500Y-116264799D01*
X133075815Y-116331838D01*
X133042625Y-116366373D01*
X132979596Y-116410507D01*
X132812505Y-116577597D01*
X132682575Y-116763158D01*
X132627998Y-116806783D01*
X132558500Y-116813977D01*
X132496145Y-116782454D01*
X132479425Y-116763158D01*
X132349494Y-116577597D01*
X132182402Y-116410506D01*
X132182395Y-116410501D01*
X131988834Y-116274967D01*
X131988830Y-116274965D01*
X131923090Y-116244310D01*
X131774663Y-116175097D01*
X131774659Y-116175096D01*
X131774655Y-116175094D01*
X131546413Y-116113938D01*
X131546403Y-116113936D01*
X131311001Y-116093341D01*
X131310999Y-116093341D01*
X131075596Y-116113936D01*
X131075586Y-116113938D01*
X130847344Y-116175094D01*
X130847335Y-116175098D01*
X130633171Y-116274964D01*
X130633169Y-116274965D01*
X130439597Y-116410505D01*
X130272505Y-116577597D01*
X130136965Y-116771169D01*
X130136964Y-116771171D01*
X130037098Y-116985335D01*
X130037094Y-116985344D01*
X129975938Y-117213586D01*
X129975936Y-117213596D01*
X129955341Y-117448999D01*
X129955341Y-117449000D01*
X129975936Y-117684403D01*
X129975938Y-117684413D01*
X130037094Y-117912655D01*
X130037096Y-117912659D01*
X130037097Y-117912663D01*
X130098366Y-118044055D01*
X130136965Y-118126830D01*
X130136967Y-118126834D01*
X130208625Y-118229171D01*
X130272505Y-118320401D01*
X130439599Y-118487495D01*
X130490637Y-118523232D01*
X130633165Y-118623032D01*
X130633167Y-118623033D01*
X130633170Y-118623035D01*
X130847337Y-118722903D01*
X131075592Y-118784063D01*
X131263918Y-118800539D01*
X131310999Y-118804659D01*
X131311000Y-118804659D01*
X131311001Y-118804659D01*
X131350234Y-118801226D01*
X131546408Y-118784063D01*
X131774663Y-118722903D01*
X131988830Y-118623035D01*
X132182401Y-118487495D01*
X132349495Y-118320401D01*
X132479425Y-118134842D01*
X132534002Y-118091217D01*
X132603500Y-118084023D01*
X132665855Y-118115546D01*
X132682575Y-118134842D01*
X132812500Y-118320395D01*
X132812505Y-118320401D01*
X132979599Y-118487495D01*
X133030637Y-118523232D01*
X133173165Y-118623032D01*
X133173167Y-118623033D01*
X133173170Y-118623035D01*
X133387337Y-118722903D01*
X133615592Y-118784063D01*
X133803918Y-118800539D01*
X133850999Y-118804659D01*
X133851000Y-118804659D01*
X133851001Y-118804659D01*
X133890234Y-118801226D01*
X134086408Y-118784063D01*
X134314663Y-118722903D01*
X134528830Y-118623035D01*
X134722401Y-118487495D01*
X134889495Y-118320401D01*
X135019425Y-118134842D01*
X135074002Y-118091217D01*
X135143500Y-118084023D01*
X135205855Y-118115546D01*
X135222575Y-118134842D01*
X135352500Y-118320395D01*
X135352505Y-118320401D01*
X135519599Y-118487495D01*
X135570637Y-118523232D01*
X135713165Y-118623032D01*
X135713167Y-118623033D01*
X135713170Y-118623035D01*
X135927337Y-118722903D01*
X136155592Y-118784063D01*
X136343918Y-118800539D01*
X136390999Y-118804659D01*
X136391000Y-118804659D01*
X136391001Y-118804659D01*
X136430234Y-118801226D01*
X136626408Y-118784063D01*
X136854663Y-118722903D01*
X137068830Y-118623035D01*
X137262401Y-118487495D01*
X137429495Y-118320401D01*
X137559425Y-118134842D01*
X137614002Y-118091217D01*
X137683500Y-118084023D01*
X137745855Y-118115546D01*
X137762575Y-118134842D01*
X137892500Y-118320395D01*
X137892505Y-118320401D01*
X138059599Y-118487495D01*
X138110637Y-118523232D01*
X138253165Y-118623032D01*
X138253167Y-118623033D01*
X138253170Y-118623035D01*
X138467337Y-118722903D01*
X138695592Y-118784063D01*
X138883918Y-118800539D01*
X138930999Y-118804659D01*
X138931000Y-118804659D01*
X138931001Y-118804659D01*
X138970234Y-118801226D01*
X139166408Y-118784063D01*
X139394663Y-118722903D01*
X139608830Y-118623035D01*
X139802401Y-118487495D01*
X139969495Y-118320401D01*
X140099425Y-118134842D01*
X140154002Y-118091217D01*
X140223500Y-118084023D01*
X140285855Y-118115546D01*
X140302575Y-118134842D01*
X140432500Y-118320395D01*
X140432505Y-118320401D01*
X140599599Y-118487495D01*
X140650637Y-118523232D01*
X140793165Y-118623032D01*
X140793167Y-118623033D01*
X140793170Y-118623035D01*
X141007337Y-118722903D01*
X141235592Y-118784063D01*
X141423918Y-118800539D01*
X141470999Y-118804659D01*
X141471000Y-118804659D01*
X141471001Y-118804659D01*
X141510234Y-118801226D01*
X141706408Y-118784063D01*
X141934663Y-118722903D01*
X142148830Y-118623035D01*
X142342401Y-118487495D01*
X142509495Y-118320401D01*
X142639425Y-118134842D01*
X142694002Y-118091217D01*
X142763500Y-118084023D01*
X142825855Y-118115546D01*
X142842575Y-118134842D01*
X142972500Y-118320395D01*
X142972505Y-118320401D01*
X143139599Y-118487495D01*
X143190637Y-118523232D01*
X143333165Y-118623032D01*
X143333167Y-118623033D01*
X143333170Y-118623035D01*
X143547337Y-118722903D01*
X143775592Y-118784063D01*
X143963918Y-118800539D01*
X144010999Y-118804659D01*
X144011000Y-118804659D01*
X144011001Y-118804659D01*
X144050234Y-118801226D01*
X144246408Y-118784063D01*
X144474663Y-118722903D01*
X144688830Y-118623035D01*
X144882401Y-118487495D01*
X145049495Y-118320401D01*
X145185035Y-118126830D01*
X145284903Y-117912663D01*
X145346063Y-117684408D01*
X145366659Y-117449000D01*
X145346063Y-117213592D01*
X145284903Y-116985337D01*
X145185035Y-116771171D01*
X145179425Y-116763158D01*
X145049494Y-116577597D01*
X144882402Y-116410506D01*
X144882395Y-116410501D01*
X144688831Y-116274965D01*
X144688829Y-116274964D01*
X144618095Y-116241980D01*
X144565656Y-116195807D01*
X144546500Y-116129598D01*
X144546500Y-115161017D01*
X144566185Y-115093978D01*
X144618989Y-115048223D01*
X144631482Y-115043316D01*
X144690338Y-115023814D01*
X144839660Y-114931712D01*
X144963716Y-114807656D01*
X145055818Y-114658334D01*
X145111003Y-114491797D01*
X145121504Y-114389009D01*
X145121503Y-113588992D01*
X145111003Y-113486203D01*
X145055818Y-113319666D01*
X144963716Y-113170344D01*
X144870053Y-113076681D01*
X144836568Y-113015358D01*
X144841552Y-112945666D01*
X144870053Y-112901319D01*
X144895676Y-112875696D01*
X144963716Y-112807656D01*
X145037698Y-112687711D01*
X172555500Y-112687711D01*
X172555500Y-112930288D01*
X172587161Y-113170785D01*
X172649947Y-113405104D01*
X172726116Y-113588991D01*
X172742776Y-113629212D01*
X172864064Y-113839289D01*
X172864066Y-113839292D01*
X172864067Y-113839293D01*
X173011733Y-114031736D01*
X173011739Y-114031743D01*
X173183256Y-114203260D01*
X173183263Y-114203266D01*
X173249622Y-114254185D01*
X173375711Y-114350936D01*
X173585788Y-114472224D01*
X173809900Y-114565054D01*
X174044211Y-114627838D01*
X174224586Y-114651584D01*
X174284711Y-114659500D01*
X174284712Y-114659500D01*
X174527289Y-114659500D01*
X174575388Y-114653167D01*
X174767789Y-114627838D01*
X175002100Y-114565054D01*
X175226212Y-114472224D01*
X175436289Y-114350936D01*
X175628738Y-114203265D01*
X175800265Y-114031738D01*
X175947936Y-113839289D01*
X176069224Y-113629212D01*
X176162054Y-113405100D01*
X176224838Y-113170789D01*
X176256500Y-112930288D01*
X176256500Y-112687712D01*
X176254977Y-112676147D01*
X176236906Y-112538879D01*
X176224838Y-112447211D01*
X176162054Y-112212900D01*
X176069224Y-111988788D01*
X175947936Y-111778711D01*
X175887018Y-111699321D01*
X175800266Y-111586263D01*
X175800260Y-111586256D01*
X175628743Y-111414739D01*
X175628736Y-111414733D01*
X175436293Y-111267067D01*
X175436292Y-111267066D01*
X175436289Y-111267064D01*
X175226212Y-111145776D01*
X175226205Y-111145773D01*
X175002104Y-111052947D01*
X174767785Y-110990161D01*
X174527289Y-110958500D01*
X174527288Y-110958500D01*
X174284712Y-110958500D01*
X174284711Y-110958500D01*
X174044214Y-110990161D01*
X173809895Y-111052947D01*
X173585794Y-111145773D01*
X173585785Y-111145777D01*
X173403851Y-111250817D01*
X173381339Y-111263815D01*
X173375706Y-111267067D01*
X173183263Y-111414733D01*
X173183256Y-111414739D01*
X173011739Y-111586256D01*
X173011733Y-111586263D01*
X172864067Y-111778706D01*
X172742777Y-111988785D01*
X172742773Y-111988794D01*
X172649947Y-112212895D01*
X172587161Y-112447214D01*
X172555500Y-112687711D01*
X145037698Y-112687711D01*
X145055818Y-112658334D01*
X145111003Y-112491797D01*
X145121504Y-112389009D01*
X145121503Y-111588992D01*
X145116571Y-111540715D01*
X145111003Y-111486203D01*
X145111002Y-111486200D01*
X145090107Y-111423143D01*
X145055818Y-111319666D01*
X144963716Y-111170344D01*
X144839660Y-111046288D01*
X144690338Y-110954186D01*
X144523801Y-110899001D01*
X144523799Y-110899000D01*
X144421014Y-110888500D01*
X143421002Y-110888500D01*
X143420984Y-110888501D01*
X143318207Y-110899000D01*
X143318204Y-110899001D01*
X143151672Y-110954185D01*
X143151667Y-110954187D01*
X143002346Y-111046289D01*
X142878293Y-111170342D01*
X142786191Y-111319663D01*
X142786191Y-111319664D01*
X142786190Y-111319666D01*
X142767263Y-111376784D01*
X142760066Y-111398504D01*
X142720293Y-111455949D01*
X142655777Y-111482772D01*
X142642360Y-111483500D01*
X142624748Y-111483500D01*
X142557709Y-111463815D01*
X142532600Y-111442474D01*
X142526873Y-111436114D01*
X142526869Y-111436110D01*
X142373734Y-111324851D01*
X142373729Y-111324848D01*
X142200807Y-111247857D01*
X142200802Y-111247855D01*
X142055001Y-111216865D01*
X142015646Y-111208500D01*
X141826354Y-111208500D01*
X141793897Y-111215398D01*
X141641197Y-111247855D01*
X141641192Y-111247857D01*
X141468270Y-111324848D01*
X141468265Y-111324851D01*
X141315129Y-111436111D01*
X141188466Y-111576785D01*
X141093821Y-111740715D01*
X141093818Y-111740722D01*
X141039142Y-111909000D01*
X141035326Y-111920744D01*
X141015540Y-112109000D01*
X141035326Y-112297256D01*
X141035327Y-112297259D01*
X141093818Y-112477277D01*
X141093821Y-112477284D01*
X141188467Y-112641216D01*
X141304555Y-112770144D01*
X141315129Y-112781888D01*
X141468265Y-112893148D01*
X141468270Y-112893151D01*
X141641192Y-112970142D01*
X141641197Y-112970144D01*
X141826354Y-113009500D01*
X141826355Y-113009500D01*
X142015644Y-113009500D01*
X142015646Y-113009500D01*
X142200803Y-112970144D01*
X142373730Y-112893151D01*
X142526871Y-112781888D01*
X142529788Y-112778647D01*
X142532600Y-112775526D01*
X142592087Y-112738879D01*
X142624748Y-112734500D01*
X142763962Y-112734500D01*
X142831001Y-112754185D01*
X142869500Y-112793403D01*
X142878289Y-112807652D01*
X142878292Y-112807656D01*
X142971955Y-112901319D01*
X143005440Y-112962642D01*
X143000456Y-113032334D01*
X142971955Y-113076681D01*
X142878293Y-113170342D01*
X142786191Y-113319663D01*
X142786190Y-113319666D01*
X142731005Y-113486203D01*
X142731005Y-113486204D01*
X142731004Y-113486204D01*
X142720504Y-113588983D01*
X142720504Y-114389001D01*
X142720505Y-114389019D01*
X142731004Y-114491796D01*
X142731005Y-114491799D01*
X142776651Y-114629548D01*
X142786190Y-114658334D01*
X142878292Y-114807656D01*
X143002348Y-114931712D01*
X143151670Y-115023814D01*
X143210505Y-115043309D01*
X143267949Y-115083081D01*
X143294772Y-115147597D01*
X143295500Y-115161015D01*
X143295500Y-116236791D01*
X143275815Y-116303830D01*
X143242624Y-116338366D01*
X143139599Y-116410505D01*
X143139597Y-116410506D01*
X142972505Y-116577597D01*
X142842575Y-116763158D01*
X142787998Y-116806783D01*
X142718500Y-116813977D01*
X142656145Y-116782454D01*
X142639425Y-116763158D01*
X142509494Y-116577597D01*
X142342402Y-116410506D01*
X142342395Y-116410501D01*
X142148834Y-116274967D01*
X142148830Y-116274965D01*
X142083090Y-116244310D01*
X141934663Y-116175097D01*
X141934659Y-116175096D01*
X141934655Y-116175094D01*
X141706413Y-116113938D01*
X141706403Y-116113936D01*
X141471001Y-116093341D01*
X141470999Y-116093341D01*
X141235596Y-116113936D01*
X141235586Y-116113938D01*
X141007344Y-116175094D01*
X141007335Y-116175098D01*
X140793171Y-116274964D01*
X140793169Y-116274965D01*
X140599597Y-116410505D01*
X140432505Y-116577597D01*
X140302575Y-116763158D01*
X140247998Y-116806783D01*
X140178500Y-116813977D01*
X140116145Y-116782454D01*
X140099425Y-116763158D01*
X139969494Y-116577597D01*
X139802402Y-116410506D01*
X139802395Y-116410501D01*
X139608834Y-116274967D01*
X139608830Y-116274965D01*
X139543090Y-116244310D01*
X139394663Y-116175097D01*
X139394659Y-116175096D01*
X139394655Y-116175094D01*
X139166413Y-116113938D01*
X139166403Y-116113936D01*
X138931001Y-116093341D01*
X138930999Y-116093341D01*
X138695596Y-116113936D01*
X138695586Y-116113938D01*
X138467344Y-116175094D01*
X138467335Y-116175098D01*
X138253171Y-116274964D01*
X138253169Y-116274965D01*
X138059597Y-116410505D01*
X137892505Y-116577597D01*
X137762575Y-116763158D01*
X137707998Y-116806783D01*
X137638500Y-116813977D01*
X137576145Y-116782454D01*
X137559425Y-116763158D01*
X137429494Y-116577597D01*
X137262402Y-116410506D01*
X137262395Y-116410501D01*
X137068831Y-116274965D01*
X137068824Y-116274961D01*
X137003094Y-116244310D01*
X136950655Y-116198137D01*
X136931500Y-116131929D01*
X136931500Y-115214448D01*
X136951185Y-115147409D01*
X137003989Y-115101654D01*
X137016488Y-115096744D01*
X137025334Y-115093814D01*
X137174656Y-115001712D01*
X137268319Y-114908049D01*
X137329642Y-114874564D01*
X137399334Y-114879548D01*
X137443681Y-114908049D01*
X137537344Y-115001712D01*
X137686666Y-115093814D01*
X137853203Y-115148999D01*
X137955991Y-115159500D01*
X138756008Y-115159499D01*
X138756016Y-115159498D01*
X138756019Y-115159498D01*
X138812302Y-115153748D01*
X138858797Y-115148999D01*
X139025334Y-115093814D01*
X139174656Y-115001712D01*
X139298712Y-114877656D01*
X139390814Y-114728334D01*
X139445999Y-114561797D01*
X139456500Y-114459009D01*
X139456499Y-113458992D01*
X139445999Y-113356203D01*
X139390814Y-113189666D01*
X139298712Y-113040344D01*
X139174656Y-112916288D01*
X139025334Y-112824186D01*
X138858797Y-112769001D01*
X138858795Y-112769000D01*
X138756016Y-112758500D01*
X138756009Y-112758500D01*
X138026456Y-112758500D01*
X137959417Y-112738815D01*
X137938775Y-112722181D01*
X136731202Y-111514608D01*
X136731182Y-111514586D01*
X136639739Y-111423143D01*
X136602863Y-111398504D01*
X136586450Y-111387537D01*
X136586451Y-111387537D01*
X136586449Y-111387535D01*
X136537294Y-111354690D01*
X136537290Y-111354688D01*
X136452738Y-111319666D01*
X136452736Y-111319664D01*
X136423459Y-111307538D01*
X136423457Y-111307537D01*
X136423456Y-111307537D01*
X136363033Y-111295518D01*
X136302614Y-111283500D01*
X136302611Y-111283500D01*
X136302610Y-111283500D01*
X135224748Y-111283500D01*
X135157709Y-111263815D01*
X135132600Y-111242474D01*
X135126873Y-111236114D01*
X135126869Y-111236110D01*
X134973734Y-111124851D01*
X134973729Y-111124848D01*
X134800807Y-111047857D01*
X134800802Y-111047855D01*
X134655001Y-111016865D01*
X134615646Y-111008500D01*
X134426354Y-111008500D01*
X134393897Y-111015398D01*
X134241197Y-111047855D01*
X134241192Y-111047857D01*
X134068270Y-111124848D01*
X134068265Y-111124851D01*
X133915129Y-111236111D01*
X133788466Y-111376785D01*
X133693821Y-111540715D01*
X133693818Y-111540722D01*
X133635327Y-111720740D01*
X133635326Y-111720744D01*
X133615540Y-111909000D01*
X133635326Y-112097256D01*
X133635327Y-112097259D01*
X133693818Y-112277277D01*
X133693820Y-112277281D01*
X133693821Y-112277284D01*
X133705352Y-112297256D01*
X133719927Y-112322501D01*
X133736398Y-112390402D01*
X133713546Y-112456428D01*
X133658624Y-112499618D01*
X133612539Y-112508500D01*
X133320999Y-112508500D01*
X133320980Y-112508501D01*
X133218203Y-112519000D01*
X133218200Y-112519001D01*
X133051668Y-112574185D01*
X133051663Y-112574187D01*
X132902342Y-112666289D01*
X132808681Y-112759951D01*
X132747358Y-112793436D01*
X132677666Y-112788452D01*
X132633319Y-112759951D01*
X132539657Y-112666289D01*
X132539656Y-112666288D01*
X132402816Y-112581885D01*
X132390336Y-112574187D01*
X132390331Y-112574185D01*
X132388862Y-112573698D01*
X132223797Y-112519001D01*
X132223795Y-112519000D01*
X132121010Y-112508500D01*
X131320998Y-112508500D01*
X131320980Y-112508501D01*
X131218203Y-112519000D01*
X131218200Y-112519001D01*
X131051668Y-112574185D01*
X131051663Y-112574187D01*
X130902342Y-112666289D01*
X130778289Y-112790342D01*
X130778288Y-112790344D01*
X130709839Y-112901319D01*
X130695481Y-112924597D01*
X130643533Y-112971321D01*
X130589942Y-112983500D01*
X119359388Y-112983500D01*
X119238555Y-113007535D01*
X119238547Y-113007537D01*
X119124716Y-113054687D01*
X119022265Y-113123142D01*
X119022262Y-113123145D01*
X116538269Y-115607140D01*
X116451144Y-115694264D01*
X116451138Y-115694272D01*
X116382692Y-115796705D01*
X116382684Y-115796719D01*
X116349347Y-115877207D01*
X116343823Y-115890543D01*
X116335537Y-115910545D01*
X116335535Y-115910553D01*
X116311500Y-116031389D01*
X116311500Y-122351428D01*
X116291815Y-122418467D01*
X116239011Y-122464222D01*
X116169853Y-122474166D01*
X116106297Y-122445141D01*
X116095356Y-122434407D01*
X116051871Y-122386112D01*
X116051867Y-122386109D01*
X115898734Y-122274851D01*
X115898729Y-122274848D01*
X115725807Y-122197857D01*
X115725802Y-122197855D01*
X115580001Y-122166865D01*
X115540646Y-122158500D01*
X115442358Y-122158500D01*
X115375319Y-122138815D01*
X115329564Y-122086011D01*
X115318740Y-122024773D01*
X115321499Y-121989704D01*
X115321500Y-121989686D01*
X115321500Y-121558313D01*
X115321499Y-121558298D01*
X115318598Y-121521432D01*
X115318597Y-121521426D01*
X115272745Y-121363606D01*
X115272744Y-121363603D01*
X115272744Y-121363602D01*
X115189081Y-121222135D01*
X115189078Y-121222132D01*
X115184298Y-121215969D01*
X115186750Y-121214066D01*
X115160155Y-121165421D01*
X115165104Y-121095726D01*
X115185940Y-121063304D01*
X115184298Y-121062031D01*
X115189075Y-121055870D01*
X115189081Y-121055865D01*
X115272744Y-120914398D01*
X115318598Y-120756569D01*
X115321500Y-120719694D01*
X115321500Y-120288306D01*
X115318598Y-120251431D01*
X115318016Y-120249429D01*
X115278186Y-120112334D01*
X115272744Y-120093602D01*
X115189081Y-119952135D01*
X115189078Y-119952132D01*
X115184298Y-119945969D01*
X115186635Y-119944155D01*
X115159798Y-119895050D01*
X115164756Y-119825356D01*
X115185554Y-119792998D01*
X115183903Y-119791717D01*
X115188686Y-119785550D01*
X115272281Y-119644198D01*
X115318100Y-119486486D01*
X115318295Y-119484001D01*
X115318295Y-119484000D01*
X112323705Y-119484000D01*
X112323704Y-119484001D01*
X112323899Y-119486486D01*
X112369718Y-119644198D01*
X112453314Y-119785552D01*
X112458100Y-119791722D01*
X112455640Y-119793629D01*
X112482210Y-119842288D01*
X112477226Y-119911980D01*
X112456162Y-119944781D01*
X112457699Y-119945974D01*
X112452922Y-119952131D01*
X112452919Y-119952135D01*
X112452918Y-119952137D01*
X112448136Y-119958302D01*
X112445960Y-119956614D01*
X112404506Y-119995311D01*
X112348856Y-120008500D01*
X111505499Y-120008500D01*
X111438460Y-119988815D01*
X111392705Y-119936011D01*
X111382562Y-119889388D01*
X111381900Y-119889423D01*
X111381854Y-119889429D01*
X111381853Y-119889426D01*
X111381676Y-119889436D01*
X111381499Y-119886141D01*
X111381499Y-119886128D01*
X111375091Y-119826517D01*
X111362589Y-119792998D01*
X111324797Y-119691671D01*
X111324793Y-119691664D01*
X111238547Y-119576455D01*
X111238544Y-119576452D01*
X111123335Y-119490206D01*
X111123328Y-119490202D01*
X110988482Y-119439908D01*
X110988483Y-119439908D01*
X110928883Y-119433501D01*
X110928881Y-119433500D01*
X110928873Y-119433500D01*
X110928864Y-119433500D01*
X109483129Y-119433500D01*
X109483123Y-119433501D01*
X109423516Y-119439908D01*
X109288671Y-119490202D01*
X109288664Y-119490206D01*
X109173455Y-119576452D01*
X109173452Y-119576455D01*
X109087206Y-119691664D01*
X109087202Y-119691671D01*
X109036908Y-119826517D01*
X109030501Y-119886116D01*
X109030500Y-119886127D01*
X109030500Y-121331870D01*
X109030501Y-121331876D01*
X109036908Y-121391483D01*
X109087202Y-121526328D01*
X109087206Y-121526335D01*
X109156358Y-121618709D01*
X109173454Y-121641546D01*
X109259105Y-121705664D01*
X109300975Y-121761597D01*
X109305959Y-121831289D01*
X109283748Y-121879656D01*
X109202288Y-121987528D01*
X109105184Y-122182537D01*
X109045564Y-122392081D01*
X109025464Y-122608999D01*
X105581500Y-122608999D01*
X105581500Y-120457928D01*
X105601185Y-120390889D01*
X105634372Y-120356356D01*
X105787073Y-120249434D01*
X105946434Y-120090073D01*
X106075702Y-119905460D01*
X106170947Y-119701205D01*
X106229278Y-119483513D01*
X106248920Y-119259000D01*
X106229278Y-119034487D01*
X106170947Y-118816795D01*
X106136606Y-118743151D01*
X106108154Y-118682135D01*
X106075702Y-118612540D01*
X105946434Y-118427927D01*
X105787073Y-118268566D01*
X105660140Y-118179686D01*
X105602466Y-118139302D01*
X105602463Y-118139300D01*
X105602460Y-118139298D01*
X105575731Y-118126834D01*
X105398211Y-118044055D01*
X105398200Y-118044051D01*
X105180514Y-117985722D01*
X105180507Y-117985721D01*
X104956002Y-117966080D01*
X104955998Y-117966080D01*
X104731492Y-117985721D01*
X104731485Y-117985722D01*
X104513799Y-118044051D01*
X104513788Y-118044055D01*
X104309543Y-118139296D01*
X104309533Y-118139302D01*
X104124926Y-118268566D01*
X103965566Y-118427926D01*
X103836302Y-118612533D01*
X103836296Y-118612543D01*
X103741055Y-118816788D01*
X103741051Y-118816799D01*
X103682722Y-119034485D01*
X103682721Y-119034492D01*
X103663080Y-119258997D01*
X101743999Y-119258997D01*
X101743999Y-118423628D01*
X101737591Y-118364017D01*
X101723890Y-118327284D01*
X101687297Y-118229171D01*
X101687293Y-118229164D01*
X101601047Y-118113955D01*
X101601044Y-118113952D01*
X101485835Y-118027706D01*
X101485828Y-118027702D01*
X101350982Y-117977408D01*
X101350983Y-117977408D01*
X101291383Y-117971001D01*
X101291381Y-117971000D01*
X101291373Y-117971000D01*
X101291364Y-117971000D01*
X99620629Y-117971000D01*
X99620623Y-117971001D01*
X99561016Y-117977408D01*
X99426171Y-118027702D01*
X99426164Y-118027706D01*
X99310955Y-118113952D01*
X99310952Y-118113955D01*
X99224706Y-118229164D01*
X99224702Y-118229171D01*
X99174408Y-118364017D01*
X99168001Y-118423616D01*
X99168001Y-118423623D01*
X99168000Y-118423635D01*
X98206500Y-118423635D01*
X98206500Y-117748298D01*
X112320500Y-117748298D01*
X112320500Y-118179701D01*
X112323401Y-118216567D01*
X112323402Y-118216573D01*
X112369254Y-118374393D01*
X112369255Y-118374396D01*
X112369256Y-118374398D01*
X112398370Y-118423627D01*
X112452917Y-118515862D01*
X112457702Y-118522031D01*
X112455369Y-118523840D01*
X112482210Y-118572995D01*
X112477226Y-118642687D01*
X112456470Y-118675021D01*
X112458097Y-118676283D01*
X112453313Y-118682449D01*
X112369718Y-118823801D01*
X112323899Y-118981513D01*
X112323704Y-118983998D01*
X112323705Y-118984000D01*
X115318295Y-118984000D01*
X115318295Y-118983998D01*
X115318100Y-118981513D01*
X115272281Y-118823801D01*
X115188685Y-118682447D01*
X115183900Y-118676278D01*
X115186366Y-118674364D01*
X115159802Y-118625776D01*
X115164749Y-118556082D01*
X115185856Y-118523232D01*
X115184301Y-118522026D01*
X115189077Y-118515868D01*
X115189081Y-118515865D01*
X115272744Y-118374398D01*
X115318598Y-118216569D01*
X115321500Y-118179694D01*
X115321500Y-117748306D01*
X115318598Y-117711431D01*
X115310748Y-117684413D01*
X115272745Y-117553606D01*
X115272744Y-117553603D01*
X115272744Y-117553602D01*
X115189081Y-117412135D01*
X115189079Y-117412133D01*
X115189076Y-117412129D01*
X115072870Y-117295923D01*
X115072862Y-117295917D01*
X114931396Y-117212255D01*
X114931393Y-117212254D01*
X114773573Y-117166402D01*
X114773567Y-117166401D01*
X114736701Y-117163500D01*
X114736694Y-117163500D01*
X112905306Y-117163500D01*
X112905298Y-117163500D01*
X112868432Y-117166401D01*
X112868426Y-117166402D01*
X112710606Y-117212254D01*
X112710603Y-117212255D01*
X112569137Y-117295917D01*
X112569129Y-117295923D01*
X112452923Y-117412129D01*
X112452917Y-117412137D01*
X112369255Y-117553603D01*
X112369254Y-117553606D01*
X112323402Y-117711426D01*
X112323401Y-117711432D01*
X112320500Y-117748298D01*
X98206500Y-117748298D01*
X98206500Y-112687711D01*
X99155500Y-112687711D01*
X99155500Y-112930288D01*
X99187161Y-113170785D01*
X99249947Y-113405104D01*
X99326116Y-113588991D01*
X99342776Y-113629212D01*
X99464064Y-113839289D01*
X99464066Y-113839292D01*
X99464067Y-113839293D01*
X99611733Y-114031736D01*
X99611739Y-114031743D01*
X99783256Y-114203260D01*
X99783263Y-114203266D01*
X99849622Y-114254185D01*
X99975711Y-114350936D01*
X100185788Y-114472224D01*
X100409900Y-114565054D01*
X100644211Y-114627838D01*
X100824586Y-114651584D01*
X100884711Y-114659500D01*
X100884712Y-114659500D01*
X101127289Y-114659500D01*
X101175388Y-114653167D01*
X101367789Y-114627838D01*
X101602100Y-114565054D01*
X101826212Y-114472224D01*
X102036289Y-114350936D01*
X102228738Y-114203265D01*
X102400265Y-114031738D01*
X102547936Y-113839289D01*
X102669224Y-113629212D01*
X102762054Y-113405100D01*
X102824838Y-113170789D01*
X102856500Y-112930288D01*
X102856500Y-112687712D01*
X102854977Y-112676147D01*
X102836906Y-112538879D01*
X102824838Y-112447211D01*
X102762054Y-112212900D01*
X102669224Y-111988788D01*
X102547936Y-111778711D01*
X102487018Y-111699321D01*
X102400266Y-111586263D01*
X102400260Y-111586256D01*
X102228743Y-111414739D01*
X102228736Y-111414733D01*
X102036293Y-111267067D01*
X102036292Y-111267066D01*
X102036289Y-111267064D01*
X101826212Y-111145776D01*
X101826205Y-111145773D01*
X101602104Y-111052947D01*
X101367785Y-110990161D01*
X101127289Y-110958500D01*
X101127288Y-110958500D01*
X100884712Y-110958500D01*
X100884711Y-110958500D01*
X100644214Y-110990161D01*
X100409895Y-111052947D01*
X100185794Y-111145773D01*
X100185785Y-111145777D01*
X100003851Y-111250817D01*
X99981339Y-111263815D01*
X99975706Y-111267067D01*
X99783263Y-111414733D01*
X99783256Y-111414739D01*
X99611739Y-111586256D01*
X99611733Y-111586263D01*
X99464067Y-111778706D01*
X99342777Y-111988785D01*
X99342773Y-111988794D01*
X99249947Y-112212895D01*
X99187161Y-112447214D01*
X99155500Y-112687711D01*
X98206500Y-112687711D01*
X98206500Y-110133500D01*
X98226185Y-110066461D01*
X98278989Y-110020706D01*
X98330500Y-110009500D01*
X107824098Y-110009500D01*
X107825598Y-110009382D01*
X107835321Y-110009000D01*
X112576679Y-110009000D01*
X112586402Y-110009382D01*
G37*
%TD.AperFunction*%
%TA.AperFunction,Conductor*%
G36*
X174709736Y-76009726D02*
G01*
X174999796Y-76027271D01*
X175014659Y-76029076D01*
X175296798Y-76080780D01*
X175311335Y-76084363D01*
X175585172Y-76169695D01*
X175599163Y-76175000D01*
X175860743Y-76292727D01*
X175873989Y-76299680D01*
X176119465Y-76448075D01*
X176131776Y-76456573D01*
X176357573Y-76633473D01*
X176368781Y-76643403D01*
X176571596Y-76846218D01*
X176581526Y-76857426D01*
X176701481Y-77010538D01*
X176758422Y-77083217D01*
X176766928Y-77095540D01*
X176915316Y-77341004D01*
X176922275Y-77354263D01*
X177039997Y-77615831D01*
X177045306Y-77629832D01*
X177130635Y-77903663D01*
X177134219Y-77918201D01*
X177185923Y-78200340D01*
X177187728Y-78215205D01*
X177205274Y-78505263D01*
X177205500Y-78512750D01*
X177205500Y-106876000D01*
X177185815Y-106943039D01*
X177133011Y-106988794D01*
X177081500Y-107000000D01*
X98330500Y-107000000D01*
X98263461Y-106980315D01*
X98217706Y-106927511D01*
X98206500Y-106876000D01*
X98206500Y-104087711D01*
X99155500Y-104087711D01*
X99155500Y-104330288D01*
X99187161Y-104570785D01*
X99249947Y-104805104D01*
X99342773Y-105029205D01*
X99342776Y-105029212D01*
X99464064Y-105239289D01*
X99464066Y-105239292D01*
X99464067Y-105239293D01*
X99611733Y-105431736D01*
X99611739Y-105431743D01*
X99783256Y-105603260D01*
X99783262Y-105603265D01*
X99975711Y-105750936D01*
X100185788Y-105872224D01*
X100409900Y-105965054D01*
X100644211Y-106027838D01*
X100824586Y-106051584D01*
X100884711Y-106059500D01*
X100884712Y-106059500D01*
X101127289Y-106059500D01*
X101175388Y-106053167D01*
X101367789Y-106027838D01*
X101602100Y-105965054D01*
X101826212Y-105872224D01*
X102036289Y-105750936D01*
X102228738Y-105603265D01*
X102400265Y-105431738D01*
X102547936Y-105239289D01*
X102669224Y-105029212D01*
X102762054Y-104805100D01*
X102824838Y-104570789D01*
X102856500Y-104330288D01*
X102856500Y-104087712D01*
X102824838Y-103847211D01*
X102762054Y-103612900D01*
X102669224Y-103388788D01*
X102547936Y-103178711D01*
X102400265Y-102986262D01*
X102400260Y-102986256D01*
X102387639Y-102973635D01*
X108218000Y-102973635D01*
X108218000Y-104644370D01*
X108218001Y-104644376D01*
X108224408Y-104703983D01*
X108274702Y-104838828D01*
X108274706Y-104838835D01*
X108360952Y-104954044D01*
X108360955Y-104954047D01*
X108476164Y-105040293D01*
X108476171Y-105040297D01*
X108611017Y-105090591D01*
X108611016Y-105090591D01*
X108617944Y-105091335D01*
X108670627Y-105097000D01*
X110341372Y-105096999D01*
X110400983Y-105090591D01*
X110535831Y-105040296D01*
X110651046Y-104954046D01*
X110737296Y-104838831D01*
X110787591Y-104703983D01*
X110794000Y-104644373D01*
X110793999Y-103808997D01*
X114713080Y-103808997D01*
X114713080Y-103809002D01*
X114732721Y-104033507D01*
X114732722Y-104033514D01*
X114791051Y-104251200D01*
X114791055Y-104251211D01*
X114886296Y-104455456D01*
X114886298Y-104455460D01*
X115015566Y-104640073D01*
X115174927Y-104799434D01*
X115359540Y-104928702D01*
X115413891Y-104954046D01*
X115563788Y-105023944D01*
X115563790Y-105023944D01*
X115563795Y-105023947D01*
X115781487Y-105082278D01*
X115941853Y-105096308D01*
X116005998Y-105101920D01*
X116006000Y-105101920D01*
X116006002Y-105101920D01*
X116062260Y-105096998D01*
X116230513Y-105082278D01*
X116448205Y-105023947D01*
X116652460Y-104928702D01*
X116837073Y-104799434D01*
X116996434Y-104640073D01*
X117125702Y-104455460D01*
X117220947Y-104251205D01*
X117279278Y-104033513D01*
X117298920Y-103809000D01*
X117279278Y-103584487D01*
X117220947Y-103366795D01*
X117193996Y-103308999D01*
X117163387Y-103243356D01*
X117125702Y-103162540D01*
X116996434Y-102977927D01*
X116837073Y-102818566D01*
X116652460Y-102689298D01*
X116652456Y-102689296D01*
X116480231Y-102608986D01*
X155106001Y-102608986D01*
X155116494Y-102711697D01*
X155171641Y-102878119D01*
X155171643Y-102878124D01*
X155263684Y-103027345D01*
X155387654Y-103151315D01*
X155536875Y-103243356D01*
X155536880Y-103243358D01*
X155703302Y-103298505D01*
X155703309Y-103298506D01*
X155806019Y-103308999D01*
X156055999Y-103308999D01*
X156556000Y-103308999D01*
X156805972Y-103308999D01*
X156805986Y-103308998D01*
X156908697Y-103298505D01*
X157075119Y-103243358D01*
X157075124Y-103243356D01*
X157224345Y-103151315D01*
X157348315Y-103027345D01*
X157381444Y-102973635D01*
X158218000Y-102973635D01*
X158218000Y-104644370D01*
X158218001Y-104644376D01*
X158224408Y-104703983D01*
X158274702Y-104838828D01*
X158274706Y-104838835D01*
X158360952Y-104954044D01*
X158360955Y-104954047D01*
X158476164Y-105040293D01*
X158476171Y-105040297D01*
X158611017Y-105090591D01*
X158611016Y-105090591D01*
X158617944Y-105091335D01*
X158670627Y-105097000D01*
X160341372Y-105096999D01*
X160400983Y-105090591D01*
X160535831Y-105040296D01*
X160651046Y-104954046D01*
X160737296Y-104838831D01*
X160787591Y-104703983D01*
X160794000Y-104644373D01*
X160793999Y-103808997D01*
X164713080Y-103808997D01*
X164713080Y-103809002D01*
X164732721Y-104033507D01*
X164732722Y-104033514D01*
X164791051Y-104251200D01*
X164791055Y-104251211D01*
X164886296Y-104455456D01*
X164886298Y-104455460D01*
X165015566Y-104640073D01*
X165174927Y-104799434D01*
X165359540Y-104928702D01*
X165413891Y-104954046D01*
X165563788Y-105023944D01*
X165563790Y-105023944D01*
X165563795Y-105023947D01*
X165781487Y-105082278D01*
X165941853Y-105096308D01*
X166005998Y-105101920D01*
X166006000Y-105101920D01*
X166006002Y-105101920D01*
X166062260Y-105096998D01*
X166230513Y-105082278D01*
X166448205Y-105023947D01*
X166652460Y-104928702D01*
X166837073Y-104799434D01*
X166996434Y-104640073D01*
X167125702Y-104455460D01*
X167220947Y-104251205D01*
X167264756Y-104087711D01*
X172555500Y-104087711D01*
X172555500Y-104330288D01*
X172587161Y-104570785D01*
X172649947Y-104805104D01*
X172742773Y-105029205D01*
X172742776Y-105029212D01*
X172864064Y-105239289D01*
X172864066Y-105239292D01*
X172864067Y-105239293D01*
X173011733Y-105431736D01*
X173011739Y-105431743D01*
X173183256Y-105603260D01*
X173183262Y-105603265D01*
X173375711Y-105750936D01*
X173585788Y-105872224D01*
X173809900Y-105965054D01*
X174044211Y-106027838D01*
X174224586Y-106051584D01*
X174284711Y-106059500D01*
X174284712Y-106059500D01*
X174527289Y-106059500D01*
X174575388Y-106053167D01*
X174767789Y-106027838D01*
X175002100Y-105965054D01*
X175226212Y-105872224D01*
X175436289Y-105750936D01*
X175628738Y-105603265D01*
X175800265Y-105431738D01*
X175947936Y-105239289D01*
X176069224Y-105029212D01*
X176162054Y-104805100D01*
X176224838Y-104570789D01*
X176256500Y-104330288D01*
X176256500Y-104087712D01*
X176224838Y-103847211D01*
X176162054Y-103612900D01*
X176069224Y-103388788D01*
X175947936Y-103178711D01*
X175800265Y-102986262D01*
X175800260Y-102986256D01*
X175628742Y-102814738D01*
X175628736Y-102814733D01*
X175436293Y-102667067D01*
X175436292Y-102667066D01*
X175436289Y-102667064D01*
X175226212Y-102545776D01*
X175226205Y-102545773D01*
X175002104Y-102452947D01*
X174767785Y-102390161D01*
X174527289Y-102358500D01*
X174527288Y-102358500D01*
X174284712Y-102358500D01*
X174284711Y-102358500D01*
X174044214Y-102390161D01*
X173809895Y-102452947D01*
X173585794Y-102545773D01*
X173585785Y-102545777D01*
X173375706Y-102667067D01*
X173183263Y-102814733D01*
X173183258Y-102814738D01*
X173011739Y-102986256D01*
X173011733Y-102986263D01*
X172864067Y-103178706D01*
X172742777Y-103388785D01*
X172742773Y-103388794D01*
X172649947Y-103612895D01*
X172587161Y-103847214D01*
X172555500Y-104087711D01*
X167264756Y-104087711D01*
X167279278Y-104033513D01*
X167298920Y-103809000D01*
X167279278Y-103584487D01*
X167220947Y-103366795D01*
X167193996Y-103308999D01*
X167163387Y-103243356D01*
X167125702Y-103162540D01*
X166996434Y-102977927D01*
X166837073Y-102818566D01*
X166652460Y-102689298D01*
X166652456Y-102689296D01*
X166448211Y-102594055D01*
X166448200Y-102594051D01*
X166230514Y-102535722D01*
X166230507Y-102535721D01*
X166006002Y-102516080D01*
X166005998Y-102516080D01*
X165781492Y-102535721D01*
X165781485Y-102535722D01*
X165563799Y-102594051D01*
X165563788Y-102594055D01*
X165359543Y-102689296D01*
X165359533Y-102689302D01*
X165174926Y-102818566D01*
X165015566Y-102977926D01*
X164886302Y-103162533D01*
X164886296Y-103162543D01*
X164791055Y-103366788D01*
X164791051Y-103366799D01*
X164732722Y-103584485D01*
X164732721Y-103584492D01*
X164713080Y-103808997D01*
X160793999Y-103808997D01*
X160793999Y-102973628D01*
X160787591Y-102914017D01*
X160750562Y-102814738D01*
X160737297Y-102779171D01*
X160737293Y-102779164D01*
X160651047Y-102663955D01*
X160651044Y-102663952D01*
X160535835Y-102577706D01*
X160535828Y-102577702D01*
X160400982Y-102527408D01*
X160400983Y-102527408D01*
X160341383Y-102521001D01*
X160341381Y-102521000D01*
X160341373Y-102521000D01*
X160341364Y-102521000D01*
X158670629Y-102521000D01*
X158670623Y-102521001D01*
X158611016Y-102527408D01*
X158476171Y-102577702D01*
X158476164Y-102577706D01*
X158360955Y-102663952D01*
X158360952Y-102663955D01*
X158274706Y-102779164D01*
X158274702Y-102779171D01*
X158224408Y-102914017D01*
X158218001Y-102973616D01*
X158218001Y-102973623D01*
X158218000Y-102973635D01*
X157381444Y-102973635D01*
X157440356Y-102878124D01*
X157440358Y-102878119D01*
X157495505Y-102711697D01*
X157495506Y-102711690D01*
X157505999Y-102608986D01*
X157506000Y-102608973D01*
X157506000Y-102459000D01*
X156556000Y-102459000D01*
X156556000Y-103308999D01*
X156055999Y-103308999D01*
X156056000Y-103308998D01*
X156056000Y-102459000D01*
X155106001Y-102459000D01*
X155106001Y-102608986D01*
X116480231Y-102608986D01*
X116448211Y-102594055D01*
X116448200Y-102594051D01*
X116230514Y-102535722D01*
X116230507Y-102535721D01*
X116006002Y-102516080D01*
X116005998Y-102516080D01*
X115781492Y-102535721D01*
X115781485Y-102535722D01*
X115563799Y-102594051D01*
X115563788Y-102594055D01*
X115359543Y-102689296D01*
X115359533Y-102689302D01*
X115174926Y-102818566D01*
X115015566Y-102977926D01*
X114886302Y-103162533D01*
X114886296Y-103162543D01*
X114791055Y-103366788D01*
X114791051Y-103366799D01*
X114732722Y-103584485D01*
X114732721Y-103584492D01*
X114713080Y-103808997D01*
X110793999Y-103808997D01*
X110793999Y-102973628D01*
X110787591Y-102914017D01*
X110750562Y-102814738D01*
X110737297Y-102779171D01*
X110737293Y-102779164D01*
X110651047Y-102663955D01*
X110651044Y-102663952D01*
X110535835Y-102577706D01*
X110535828Y-102577702D01*
X110400982Y-102527408D01*
X110400983Y-102527408D01*
X110341383Y-102521001D01*
X110341381Y-102521000D01*
X110341373Y-102521000D01*
X110341364Y-102521000D01*
X108670629Y-102521000D01*
X108670623Y-102521001D01*
X108611016Y-102527408D01*
X108476171Y-102577702D01*
X108476164Y-102577706D01*
X108360955Y-102663952D01*
X108360952Y-102663955D01*
X108274706Y-102779164D01*
X108274702Y-102779171D01*
X108224408Y-102914017D01*
X108218001Y-102973616D01*
X108218001Y-102973623D01*
X108218000Y-102973635D01*
X102387639Y-102973635D01*
X102228742Y-102814738D01*
X102228736Y-102814733D01*
X102036293Y-102667067D01*
X102036292Y-102667066D01*
X102036289Y-102667064D01*
X101826212Y-102545776D01*
X101826205Y-102545773D01*
X101602104Y-102452947D01*
X101367785Y-102390161D01*
X101127289Y-102358500D01*
X101127288Y-102358500D01*
X100884712Y-102358500D01*
X100884711Y-102358500D01*
X100644214Y-102390161D01*
X100409895Y-102452947D01*
X100185794Y-102545773D01*
X100185785Y-102545777D01*
X99975706Y-102667067D01*
X99783263Y-102814733D01*
X99783258Y-102814738D01*
X99611739Y-102986256D01*
X99611733Y-102986263D01*
X99464067Y-103178706D01*
X99342777Y-103388785D01*
X99342773Y-103388794D01*
X99249947Y-103612895D01*
X99187161Y-103847214D01*
X99155500Y-104087711D01*
X98206500Y-104087711D01*
X98206500Y-101058986D01*
X122606001Y-101058986D01*
X122616494Y-101161697D01*
X122671641Y-101328119D01*
X122671643Y-101328124D01*
X122763684Y-101477345D01*
X122887654Y-101601315D01*
X123036875Y-101693356D01*
X123036880Y-101693358D01*
X123203302Y-101748505D01*
X123203309Y-101748506D01*
X123306019Y-101758999D01*
X123555999Y-101758999D01*
X124056000Y-101758999D01*
X124305972Y-101758999D01*
X124305986Y-101758998D01*
X124408697Y-101748505D01*
X124575119Y-101693358D01*
X124575124Y-101693356D01*
X124724345Y-101601315D01*
X124848315Y-101477345D01*
X124940356Y-101328124D01*
X124940358Y-101328119D01*
X124995505Y-101161697D01*
X124995506Y-101161690D01*
X125005999Y-101058986D01*
X125006000Y-101058973D01*
X125006000Y-100909000D01*
X124056000Y-100909000D01*
X124056000Y-101758999D01*
X123555999Y-101758999D01*
X123556000Y-101758998D01*
X123556000Y-100909000D01*
X122606001Y-100909000D01*
X122606001Y-101058986D01*
X98206500Y-101058986D01*
X98206500Y-99308997D01*
X108213080Y-99308997D01*
X108213080Y-99309002D01*
X108232721Y-99533507D01*
X108232722Y-99533514D01*
X108291051Y-99751200D01*
X108291055Y-99751211D01*
X108376524Y-99934500D01*
X108386298Y-99955460D01*
X108515566Y-100140073D01*
X108674927Y-100299434D01*
X108859540Y-100428702D01*
X108982424Y-100486003D01*
X109063788Y-100523944D01*
X109063790Y-100523944D01*
X109063795Y-100523947D01*
X109281487Y-100582278D01*
X109441853Y-100596308D01*
X109505998Y-100601920D01*
X109506000Y-100601920D01*
X109506002Y-100601920D01*
X109562128Y-100597009D01*
X109730513Y-100582278D01*
X109948205Y-100523947D01*
X110152460Y-100428702D01*
X110337073Y-100299434D01*
X110496434Y-100140073D01*
X110625702Y-99955460D01*
X110720947Y-99751205D01*
X110779278Y-99533513D01*
X110798920Y-99309000D01*
X110779278Y-99084487D01*
X110720947Y-98866795D01*
X110625702Y-98662540D01*
X110496434Y-98477927D01*
X110337073Y-98318566D01*
X110184376Y-98211645D01*
X110140751Y-98157068D01*
X110131500Y-98110071D01*
X110131500Y-97540057D01*
X110151185Y-97473018D01*
X110190401Y-97434520D01*
X110324656Y-97351712D01*
X110418675Y-97257692D01*
X110479994Y-97224210D01*
X110549686Y-97229194D01*
X110594034Y-97257695D01*
X110687654Y-97351315D01*
X110836875Y-97443356D01*
X110836880Y-97443358D01*
X111003302Y-97498505D01*
X111003309Y-97498506D01*
X111106019Y-97508999D01*
X111255999Y-97508999D01*
X111756000Y-97508999D01*
X111905972Y-97508999D01*
X111905986Y-97508998D01*
X112008697Y-97498505D01*
X112175119Y-97443358D01*
X112175124Y-97443356D01*
X112324345Y-97351315D01*
X112448315Y-97227345D01*
X112540356Y-97078124D01*
X112540358Y-97078119D01*
X112595505Y-96911697D01*
X112595506Y-96911690D01*
X112605999Y-96808986D01*
X112606000Y-96808973D01*
X112606000Y-96559000D01*
X111756000Y-96559000D01*
X111756000Y-97508999D01*
X111255999Y-97508999D01*
X111256000Y-97508998D01*
X111256000Y-96059000D01*
X111756000Y-96059000D01*
X112605999Y-96059000D01*
X112605999Y-95809028D01*
X112605998Y-95809013D01*
X112595505Y-95706302D01*
X112540358Y-95539880D01*
X112540356Y-95539875D01*
X112448315Y-95390654D01*
X112324345Y-95266684D01*
X112175124Y-95174643D01*
X112175119Y-95174641D01*
X112008697Y-95119494D01*
X112008690Y-95119493D01*
X111905986Y-95109000D01*
X111756000Y-95109000D01*
X111756000Y-96059000D01*
X111256000Y-96059000D01*
X111256000Y-95109000D01*
X111106027Y-95109000D01*
X111106012Y-95109001D01*
X111003302Y-95119494D01*
X110836880Y-95174641D01*
X110836875Y-95174643D01*
X110687657Y-95266682D01*
X110594034Y-95360305D01*
X110532710Y-95393789D01*
X110463019Y-95388805D01*
X110418672Y-95360304D01*
X110324657Y-95266289D01*
X110324656Y-95266288D01*
X110175334Y-95174186D01*
X110008797Y-95119001D01*
X110008795Y-95119000D01*
X109906010Y-95108500D01*
X109105998Y-95108500D01*
X109105980Y-95108501D01*
X109003203Y-95119000D01*
X109003200Y-95119001D01*
X108836668Y-95174185D01*
X108836663Y-95174187D01*
X108687342Y-95266289D01*
X108563289Y-95390342D01*
X108471187Y-95539663D01*
X108471185Y-95539668D01*
X108471115Y-95539880D01*
X108416001Y-95706203D01*
X108416001Y-95706204D01*
X108416000Y-95706204D01*
X108405500Y-95808983D01*
X108405500Y-96809001D01*
X108405501Y-96809019D01*
X108416000Y-96911796D01*
X108416001Y-96911799D01*
X108471115Y-97078119D01*
X108471186Y-97078334D01*
X108563288Y-97227656D01*
X108687344Y-97351712D01*
X108821597Y-97434519D01*
X108868321Y-97486465D01*
X108880500Y-97540057D01*
X108880500Y-98110071D01*
X108860815Y-98177110D01*
X108827624Y-98211645D01*
X108674926Y-98318566D01*
X108515566Y-98477926D01*
X108386302Y-98662533D01*
X108386296Y-98662543D01*
X108291055Y-98866788D01*
X108291051Y-98866799D01*
X108232722Y-99084485D01*
X108232721Y-99084492D01*
X108213080Y-99308997D01*
X98206500Y-99308997D01*
X98206500Y-94808997D01*
X99213080Y-94808997D01*
X99213080Y-94809002D01*
X99232721Y-95033507D01*
X99232722Y-95033514D01*
X99291051Y-95251200D01*
X99291055Y-95251211D01*
X99386296Y-95455456D01*
X99386302Y-95455466D01*
X99494699Y-95610272D01*
X99515566Y-95640073D01*
X99674927Y-95799434D01*
X99859540Y-95928702D01*
X99982424Y-95986003D01*
X100063788Y-96023944D01*
X100063790Y-96023944D01*
X100063795Y-96023947D01*
X100281487Y-96082278D01*
X100441853Y-96096308D01*
X100505998Y-96101920D01*
X100506000Y-96101920D01*
X100506002Y-96101920D01*
X100562128Y-96097009D01*
X100730513Y-96082278D01*
X100948205Y-96023947D01*
X101152460Y-95928702D01*
X101337073Y-95799434D01*
X101496434Y-95640073D01*
X101625702Y-95455460D01*
X101720947Y-95251205D01*
X101779278Y-95033513D01*
X101798920Y-94809000D01*
X101779278Y-94584487D01*
X101720947Y-94366795D01*
X101625702Y-94162540D01*
X101496434Y-93977927D01*
X101337073Y-93818566D01*
X101152460Y-93689298D01*
X101152456Y-93689296D01*
X100948211Y-93594055D01*
X100948200Y-93594051D01*
X100730514Y-93535722D01*
X100730507Y-93535721D01*
X100506002Y-93516080D01*
X100505998Y-93516080D01*
X100281492Y-93535721D01*
X100281485Y-93535722D01*
X100063799Y-93594051D01*
X100063788Y-93594055D01*
X99859543Y-93689296D01*
X99859533Y-93689302D01*
X99674926Y-93818566D01*
X99515566Y-93977926D01*
X99386302Y-94162533D01*
X99386296Y-94162543D01*
X99291055Y-94366788D01*
X99291051Y-94366799D01*
X99232722Y-94584485D01*
X99232721Y-94584492D01*
X99213080Y-94808997D01*
X98206500Y-94808997D01*
X98206500Y-87473635D01*
X99218000Y-87473635D01*
X99218000Y-89144370D01*
X99218001Y-89144376D01*
X99224408Y-89203983D01*
X99274702Y-89338828D01*
X99274706Y-89338835D01*
X99360952Y-89454044D01*
X99360955Y-89454047D01*
X99476164Y-89540293D01*
X99476171Y-89540297D01*
X99611017Y-89590591D01*
X99611016Y-89590591D01*
X99617944Y-89591335D01*
X99670627Y-89597000D01*
X101341372Y-89596999D01*
X101400983Y-89590591D01*
X101535831Y-89540296D01*
X101651046Y-89454046D01*
X101737296Y-89338831D01*
X101787591Y-89203983D01*
X101794000Y-89144373D01*
X101793999Y-88308997D01*
X103713080Y-88308997D01*
X103713080Y-88309002D01*
X103732721Y-88533507D01*
X103732722Y-88533514D01*
X103791051Y-88751200D01*
X103791053Y-88751205D01*
X103886296Y-88955456D01*
X103886302Y-88955466D01*
X103916784Y-88998999D01*
X104015566Y-89140073D01*
X104174927Y-89299434D01*
X104327625Y-89406355D01*
X104371249Y-89460930D01*
X104380500Y-89507928D01*
X104380500Y-93610071D01*
X104360815Y-93677110D01*
X104327624Y-93711645D01*
X104174926Y-93818566D01*
X104015566Y-93977926D01*
X103886302Y-94162533D01*
X103886296Y-94162543D01*
X103791055Y-94366788D01*
X103791051Y-94366799D01*
X103732722Y-94584485D01*
X103732721Y-94584492D01*
X103713080Y-94808997D01*
X103713080Y-94809002D01*
X103732721Y-95033507D01*
X103732722Y-95033514D01*
X103791051Y-95251200D01*
X103791055Y-95251211D01*
X103886296Y-95455456D01*
X103886302Y-95455466D01*
X103994699Y-95610272D01*
X104015566Y-95640073D01*
X104174927Y-95799434D01*
X104359540Y-95928702D01*
X104482424Y-95986003D01*
X104563788Y-96023944D01*
X104563790Y-96023944D01*
X104563795Y-96023947D01*
X104781487Y-96082278D01*
X104941853Y-96096308D01*
X105005998Y-96101920D01*
X105006000Y-96101920D01*
X105006002Y-96101920D01*
X105062128Y-96097009D01*
X105230513Y-96082278D01*
X105448205Y-96023947D01*
X105652460Y-95928702D01*
X105837073Y-95799434D01*
X105996434Y-95640073D01*
X106125702Y-95455460D01*
X106220947Y-95251205D01*
X106279278Y-95033513D01*
X106298920Y-94809000D01*
X106279278Y-94584487D01*
X106220947Y-94366795D01*
X106125702Y-94162540D01*
X105996434Y-93977927D01*
X105837073Y-93818566D01*
X105684376Y-93711645D01*
X105640751Y-93657068D01*
X105631500Y-93610071D01*
X105631500Y-90118452D01*
X105651185Y-90051413D01*
X105703989Y-90005658D01*
X105773147Y-89995714D01*
X105836703Y-90024739D01*
X105843181Y-90030771D01*
X106769181Y-90956771D01*
X106802666Y-91018094D01*
X106805500Y-91044450D01*
X106805500Y-91109000D01*
X106805501Y-91109019D01*
X106816000Y-91211796D01*
X106816001Y-91211799D01*
X106871185Y-91378331D01*
X106871187Y-91378336D01*
X106906069Y-91434888D01*
X106963288Y-91527656D01*
X107087344Y-91651712D01*
X107236666Y-91743814D01*
X107403203Y-91798999D01*
X107505991Y-91809500D01*
X108306008Y-91809499D01*
X108306016Y-91809498D01*
X108306019Y-91809498D01*
X108362302Y-91803748D01*
X108408797Y-91798999D01*
X108575334Y-91743814D01*
X108724656Y-91651712D01*
X108818675Y-91557692D01*
X108879994Y-91524210D01*
X108949686Y-91529194D01*
X108994034Y-91557695D01*
X109087654Y-91651315D01*
X109236875Y-91743356D01*
X109236880Y-91743358D01*
X109403302Y-91798505D01*
X109403309Y-91798506D01*
X109506019Y-91808999D01*
X109655999Y-91808999D01*
X110156000Y-91808999D01*
X110305972Y-91808999D01*
X110305986Y-91808998D01*
X110408697Y-91798505D01*
X110575119Y-91743358D01*
X110575124Y-91743356D01*
X110724345Y-91651315D01*
X110848315Y-91527345D01*
X110940356Y-91378124D01*
X110940358Y-91378119D01*
X110995505Y-91211697D01*
X110995506Y-91211690D01*
X111005999Y-91108986D01*
X111006000Y-91108973D01*
X111006000Y-90859000D01*
X110156000Y-90859000D01*
X110156000Y-91808999D01*
X109655999Y-91808999D01*
X109656000Y-91808998D01*
X109656000Y-90359000D01*
X110156000Y-90359000D01*
X111005999Y-90359000D01*
X111005999Y-90109028D01*
X111005998Y-90109013D01*
X110995505Y-90006302D01*
X110940358Y-89839880D01*
X110940356Y-89839875D01*
X110848315Y-89690654D01*
X110724345Y-89566684D01*
X110575124Y-89474643D01*
X110575119Y-89474641D01*
X110408697Y-89419494D01*
X110408690Y-89419493D01*
X110305986Y-89409000D01*
X110156000Y-89409000D01*
X110156000Y-90359000D01*
X109656000Y-90359000D01*
X109656000Y-89409000D01*
X109506027Y-89409000D01*
X109506012Y-89409001D01*
X109403302Y-89419494D01*
X109236880Y-89474641D01*
X109236875Y-89474643D01*
X109087657Y-89566682D01*
X108994034Y-89660305D01*
X108932710Y-89693789D01*
X108863019Y-89688805D01*
X108818672Y-89660304D01*
X108724657Y-89566289D01*
X108724656Y-89566288D01*
X108630039Y-89507928D01*
X108575336Y-89474187D01*
X108575331Y-89474185D01*
X108535330Y-89460930D01*
X108408797Y-89419001D01*
X108408795Y-89419000D01*
X108306010Y-89408500D01*
X107505998Y-89408500D01*
X107505980Y-89408501D01*
X107403203Y-89419000D01*
X107403200Y-89419001D01*
X107236666Y-89474186D01*
X107236665Y-89474186D01*
X107208229Y-89491725D01*
X107140836Y-89510163D01*
X107074173Y-89489238D01*
X107055455Y-89473865D01*
X106295206Y-88713616D01*
X106261721Y-88652293D01*
X106263113Y-88593840D01*
X106279276Y-88533520D01*
X106279275Y-88533520D01*
X106279278Y-88533513D01*
X106296197Y-88340118D01*
X106298920Y-88309002D01*
X106298920Y-88308997D01*
X106281425Y-88109028D01*
X106279278Y-88084487D01*
X106263112Y-88024155D01*
X106264775Y-87954307D01*
X106295204Y-87904384D01*
X107478772Y-86720819D01*
X107540095Y-86687334D01*
X107566453Y-86684500D01*
X117246547Y-86684500D01*
X117313586Y-86704185D01*
X117359341Y-86756989D01*
X117369285Y-86826147D01*
X117340260Y-86889703D01*
X117334228Y-86896181D01*
X115607270Y-88623139D01*
X115607267Y-88623142D01*
X115578116Y-88652293D01*
X115520142Y-88710266D01*
X115517904Y-88713616D01*
X115492788Y-88751205D01*
X115451688Y-88812714D01*
X115451686Y-88812716D01*
X115451686Y-88812718D01*
X115451685Y-88812719D01*
X115404540Y-88926538D01*
X115404535Y-88926554D01*
X115388037Y-89009500D01*
X115380500Y-89047389D01*
X115380500Y-98110071D01*
X115360815Y-98177110D01*
X115327624Y-98211645D01*
X115174926Y-98318566D01*
X115015566Y-98477926D01*
X114886302Y-98662533D01*
X114886296Y-98662543D01*
X114791055Y-98866788D01*
X114791051Y-98866799D01*
X114732722Y-99084485D01*
X114732721Y-99084492D01*
X114713080Y-99308997D01*
X114713080Y-99309002D01*
X114732721Y-99533507D01*
X114732722Y-99533514D01*
X114791051Y-99751200D01*
X114791055Y-99751211D01*
X114876524Y-99934500D01*
X114886298Y-99955460D01*
X115015566Y-100140073D01*
X115174927Y-100299434D01*
X115359540Y-100428702D01*
X115482424Y-100486003D01*
X115563788Y-100523944D01*
X115563790Y-100523944D01*
X115563795Y-100523947D01*
X115781487Y-100582278D01*
X115941853Y-100596308D01*
X116005998Y-100601920D01*
X116006000Y-100601920D01*
X116006002Y-100601920D01*
X116062128Y-100597009D01*
X116230513Y-100582278D01*
X116448205Y-100523947D01*
X116652460Y-100428702D01*
X116837073Y-100299434D01*
X116996434Y-100140073D01*
X117125702Y-99955460D01*
X117220947Y-99751205D01*
X117279278Y-99533513D01*
X117298920Y-99309000D01*
X117279278Y-99084487D01*
X117220947Y-98866795D01*
X117125702Y-98662540D01*
X116996434Y-98477927D01*
X116837073Y-98318566D01*
X116684376Y-98211645D01*
X116640751Y-98157068D01*
X116631500Y-98110071D01*
X116631500Y-94808997D01*
X119213080Y-94808997D01*
X119213080Y-94809002D01*
X119232721Y-95033507D01*
X119232722Y-95033514D01*
X119291051Y-95251200D01*
X119291055Y-95251211D01*
X119386296Y-95455456D01*
X119386302Y-95455466D01*
X119494699Y-95610272D01*
X119515566Y-95640073D01*
X119674927Y-95799434D01*
X119859540Y-95928702D01*
X119982424Y-95986003D01*
X120063788Y-96023944D01*
X120063790Y-96023944D01*
X120063795Y-96023947D01*
X120281487Y-96082278D01*
X120441853Y-96096308D01*
X120505998Y-96101920D01*
X120506000Y-96101920D01*
X120506002Y-96101920D01*
X120562128Y-96097009D01*
X120730513Y-96082278D01*
X120948205Y-96023947D01*
X121152460Y-95928702D01*
X121337073Y-95799434D01*
X121496434Y-95640073D01*
X121625702Y-95455460D01*
X121720947Y-95251205D01*
X121779278Y-95033513D01*
X121798920Y-94809000D01*
X121779278Y-94584487D01*
X121720947Y-94366795D01*
X121625702Y-94162540D01*
X121496434Y-93977927D01*
X121337073Y-93818566D01*
X121152460Y-93689298D01*
X121152456Y-93689296D01*
X120948211Y-93594055D01*
X120948200Y-93594051D01*
X120730514Y-93535722D01*
X120730507Y-93535721D01*
X120506002Y-93516080D01*
X120505998Y-93516080D01*
X120281492Y-93535721D01*
X120281485Y-93535722D01*
X120063799Y-93594051D01*
X120063788Y-93594055D01*
X119859543Y-93689296D01*
X119859533Y-93689302D01*
X119674926Y-93818566D01*
X119515566Y-93977926D01*
X119386302Y-94162533D01*
X119386296Y-94162543D01*
X119291055Y-94366788D01*
X119291051Y-94366799D01*
X119232722Y-94584485D01*
X119232721Y-94584492D01*
X119213080Y-94808997D01*
X116631500Y-94808997D01*
X116631500Y-89419452D01*
X116651185Y-89352413D01*
X116667819Y-89331771D01*
X118525955Y-87473635D01*
X119218000Y-87473635D01*
X119218000Y-89144370D01*
X119218001Y-89144376D01*
X119224408Y-89203983D01*
X119274702Y-89338828D01*
X119274706Y-89338835D01*
X119360952Y-89454044D01*
X119360955Y-89454047D01*
X119476164Y-89540293D01*
X119476171Y-89540297D01*
X119611017Y-89590591D01*
X119611016Y-89590591D01*
X119617944Y-89591335D01*
X119670627Y-89597000D01*
X121341372Y-89596999D01*
X121400983Y-89590591D01*
X121535831Y-89540296D01*
X121651046Y-89454046D01*
X121737296Y-89338831D01*
X121787591Y-89203983D01*
X121794000Y-89144373D01*
X121793999Y-87473628D01*
X121787591Y-87414017D01*
X121785720Y-87409001D01*
X121737297Y-87279171D01*
X121737293Y-87279164D01*
X121651047Y-87163955D01*
X121651044Y-87163952D01*
X121535835Y-87077706D01*
X121535828Y-87077702D01*
X121400982Y-87027408D01*
X121400983Y-87027408D01*
X121341383Y-87021001D01*
X121341381Y-87021000D01*
X121341373Y-87021000D01*
X121341364Y-87021000D01*
X119670629Y-87021000D01*
X119670623Y-87021001D01*
X119611016Y-87027408D01*
X119476171Y-87077702D01*
X119476164Y-87077706D01*
X119360955Y-87163952D01*
X119360952Y-87163955D01*
X119274706Y-87279164D01*
X119274702Y-87279171D01*
X119224408Y-87414017D01*
X119218001Y-87473616D01*
X119218001Y-87473623D01*
X119218000Y-87473635D01*
X118525955Y-87473635D01*
X120278771Y-85720819D01*
X120340094Y-85687334D01*
X120366452Y-85684500D01*
X126417606Y-85684500D01*
X126417607Y-85684500D01*
X126426503Y-85682730D01*
X126496093Y-85688953D01*
X126551273Y-85731813D01*
X126574522Y-85797701D01*
X126558458Y-85865699D01*
X126538381Y-85892027D01*
X125410615Y-87019793D01*
X125349292Y-87053278D01*
X125290841Y-87051887D01*
X125239877Y-87038231D01*
X125230514Y-87035722D01*
X125230507Y-87035721D01*
X125006002Y-87016080D01*
X125005998Y-87016080D01*
X124781492Y-87035721D01*
X124781485Y-87035722D01*
X124563799Y-87094051D01*
X124563788Y-87094055D01*
X124359543Y-87189296D01*
X124359533Y-87189302D01*
X124174926Y-87318566D01*
X124015566Y-87477926D01*
X123886302Y-87662533D01*
X123886296Y-87662543D01*
X123791055Y-87866788D01*
X123791051Y-87866799D01*
X123732722Y-88084485D01*
X123732721Y-88084492D01*
X123713080Y-88308997D01*
X123713080Y-88309002D01*
X123732721Y-88533507D01*
X123732722Y-88533514D01*
X123791051Y-88751200D01*
X123791053Y-88751205D01*
X123886296Y-88955456D01*
X123886302Y-88955466D01*
X123916784Y-88998999D01*
X124015566Y-89140073D01*
X124174927Y-89299434D01*
X124327625Y-89406355D01*
X124371249Y-89460930D01*
X124380500Y-89507928D01*
X124380500Y-93610071D01*
X124360815Y-93677110D01*
X124327624Y-93711645D01*
X124174926Y-93818566D01*
X124015566Y-93977926D01*
X123886302Y-94162533D01*
X123886296Y-94162543D01*
X123791055Y-94366788D01*
X123791051Y-94366799D01*
X123732722Y-94584485D01*
X123732721Y-94584492D01*
X123713080Y-94808997D01*
X123713080Y-94809002D01*
X123732721Y-95033507D01*
X123732722Y-95033514D01*
X123748887Y-95093840D01*
X123747224Y-95163690D01*
X123716793Y-95213615D01*
X123407270Y-95523139D01*
X123320144Y-95610264D01*
X123320138Y-95610272D01*
X123251690Y-95712708D01*
X123251688Y-95712713D01*
X123234302Y-95754688D01*
X123234302Y-95754689D01*
X123204538Y-95826545D01*
X123204535Y-95826555D01*
X123180500Y-95947389D01*
X123180500Y-97486983D01*
X123160815Y-97554022D01*
X123108011Y-97599777D01*
X123095510Y-97604686D01*
X123036666Y-97624186D01*
X123036663Y-97624187D01*
X122887342Y-97716289D01*
X122763289Y-97840342D01*
X122671187Y-97989663D01*
X122671185Y-97989668D01*
X122651119Y-98050224D01*
X122616001Y-98156203D01*
X122616001Y-98156204D01*
X122616000Y-98156204D01*
X122605500Y-98258983D01*
X122605500Y-99059001D01*
X122605501Y-99059019D01*
X122616000Y-99161796D01*
X122616001Y-99161799D01*
X122671185Y-99328331D01*
X122671187Y-99328336D01*
X122763289Y-99477657D01*
X122857304Y-99571672D01*
X122890789Y-99632995D01*
X122885805Y-99702687D01*
X122857305Y-99747034D01*
X122763682Y-99840657D01*
X122671643Y-99989875D01*
X122671641Y-99989880D01*
X122616494Y-100156302D01*
X122616493Y-100156309D01*
X122606000Y-100259013D01*
X122606000Y-100409000D01*
X125005999Y-100409000D01*
X125005999Y-100259028D01*
X125005998Y-100259013D01*
X124995505Y-100156302D01*
X124940358Y-99989880D01*
X124940356Y-99989875D01*
X124848315Y-99840654D01*
X124754695Y-99747034D01*
X124721210Y-99685711D01*
X124726194Y-99616019D01*
X124754691Y-99571676D01*
X124848712Y-99477656D01*
X124940814Y-99328334D01*
X124995999Y-99161797D01*
X125006500Y-99059009D01*
X125006499Y-98258992D01*
X125001662Y-98211645D01*
X124995999Y-98156203D01*
X124995998Y-98156200D01*
X124950797Y-98019793D01*
X124940814Y-97989666D01*
X124848712Y-97840344D01*
X124724656Y-97716288D01*
X124575334Y-97624186D01*
X124516493Y-97604688D01*
X124459051Y-97564916D01*
X124432228Y-97500400D01*
X124431500Y-97486983D01*
X124431500Y-96319451D01*
X124451185Y-96252412D01*
X124467810Y-96231779D01*
X124601385Y-96098203D01*
X124662704Y-96064721D01*
X124721155Y-96066111D01*
X124781487Y-96082278D01*
X124941853Y-96096308D01*
X125005998Y-96101920D01*
X125006000Y-96101920D01*
X125006002Y-96101920D01*
X125062128Y-96097009D01*
X125230513Y-96082278D01*
X125448205Y-96023947D01*
X125652460Y-95928702D01*
X125837073Y-95799434D01*
X125996434Y-95640073D01*
X126125702Y-95455460D01*
X126220947Y-95251205D01*
X126279278Y-95033513D01*
X126298920Y-94809000D01*
X126279278Y-94584487D01*
X126220947Y-94366795D01*
X126125702Y-94162540D01*
X125996434Y-93977927D01*
X125837073Y-93818566D01*
X125684376Y-93711645D01*
X125640751Y-93657068D01*
X125631500Y-93610071D01*
X125631500Y-89507928D01*
X125651185Y-89440889D01*
X125684372Y-89406356D01*
X125837073Y-89299434D01*
X125996434Y-89140073D01*
X126125702Y-88955460D01*
X126220947Y-88751205D01*
X126279278Y-88533513D01*
X126294009Y-88365128D01*
X126298920Y-88309002D01*
X126298920Y-88308997D01*
X126281425Y-88109028D01*
X126279278Y-88084487D01*
X126263112Y-88024155D01*
X126264775Y-87954307D01*
X126295204Y-87904384D01*
X129937772Y-84261819D01*
X129999095Y-84228334D01*
X130025453Y-84225500D01*
X131976608Y-84225500D01*
X131976608Y-84225499D01*
X132037886Y-84213311D01*
X132037887Y-84213311D01*
X132058108Y-84209288D01*
X132097452Y-84201463D01*
X132130792Y-84187652D01*
X132211286Y-84154312D01*
X132280405Y-84108127D01*
X132313733Y-84085858D01*
X132400858Y-83998733D01*
X132400859Y-83998731D01*
X132407925Y-83991665D01*
X132407928Y-83991661D01*
X135947534Y-80452054D01*
X136008855Y-80418571D01*
X136057993Y-80417848D01*
X136147074Y-80434500D01*
X136147076Y-80434500D01*
X136364924Y-80434500D01*
X136364926Y-80434500D01*
X136579069Y-80394470D01*
X136782210Y-80315772D01*
X136967432Y-80201088D01*
X137128427Y-80054322D01*
X137157047Y-80016422D01*
X137213153Y-79974787D01*
X137282865Y-79970094D01*
X137344048Y-80003836D01*
X137354946Y-80016414D01*
X137383573Y-80054322D01*
X137383576Y-80054325D01*
X137383578Y-80054327D01*
X137477642Y-80140077D01*
X137544568Y-80201088D01*
X137544575Y-80201092D01*
X137544576Y-80201093D01*
X137729786Y-80315770D01*
X137729792Y-80315773D01*
X137749379Y-80323361D01*
X137932931Y-80394470D01*
X138147074Y-80434500D01*
X138147076Y-80434500D01*
X138364924Y-80434500D01*
X138364926Y-80434500D01*
X138579069Y-80394470D01*
X138782210Y-80315772D01*
X138967432Y-80201088D01*
X139128427Y-80054322D01*
X139157047Y-80016422D01*
X139213153Y-79974787D01*
X139282865Y-79970094D01*
X139344048Y-80003836D01*
X139354946Y-80016414D01*
X139383573Y-80054322D01*
X139383576Y-80054325D01*
X139383578Y-80054327D01*
X139477642Y-80140077D01*
X139544568Y-80201088D01*
X139544575Y-80201092D01*
X139544576Y-80201093D01*
X139729786Y-80315770D01*
X139729792Y-80315773D01*
X139749379Y-80323361D01*
X139932931Y-80394470D01*
X140147074Y-80434500D01*
X140147076Y-80434500D01*
X140364924Y-80434500D01*
X140364926Y-80434500D01*
X140579069Y-80394470D01*
X140782210Y-80315772D01*
X140967432Y-80201088D01*
X141128427Y-80054322D01*
X141157047Y-80016422D01*
X141213153Y-79974787D01*
X141282865Y-79970094D01*
X141344048Y-80003836D01*
X141354946Y-80016414D01*
X141383573Y-80054322D01*
X141383576Y-80054325D01*
X141383578Y-80054327D01*
X141477642Y-80140077D01*
X141544568Y-80201088D01*
X141571776Y-80217934D01*
X141618412Y-80269960D01*
X141630500Y-80323361D01*
X141630500Y-91520611D01*
X141654535Y-91641444D01*
X141654540Y-91641461D01*
X141701685Y-91755281D01*
X141701688Y-91755287D01*
X141716241Y-91777066D01*
X141730895Y-91798996D01*
X141730896Y-91798999D01*
X141730897Y-91798999D01*
X141770141Y-91857733D01*
X141861586Y-91949178D01*
X141861608Y-91949198D01*
X148467016Y-98554606D01*
X148467045Y-98554637D01*
X148557264Y-98644856D01*
X148557267Y-98644858D01*
X148615097Y-98683498D01*
X148615098Y-98683500D01*
X148632969Y-98695440D01*
X148659715Y-98713312D01*
X148726396Y-98740931D01*
X148726398Y-98740933D01*
X148766640Y-98757601D01*
X148773548Y-98760463D01*
X148833971Y-98772481D01*
X148894393Y-98784500D01*
X148894394Y-98784500D01*
X158045548Y-98784500D01*
X158112587Y-98804185D01*
X158133229Y-98820819D01*
X158216793Y-98904383D01*
X158250278Y-98965706D01*
X158248887Y-99024157D01*
X158232722Y-99084484D01*
X158232722Y-99084487D01*
X158226174Y-99159324D01*
X158213080Y-99308998D01*
X158213080Y-99309002D01*
X158225301Y-99448693D01*
X158211534Y-99517193D01*
X158162919Y-99567376D01*
X158101773Y-99583500D01*
X157537058Y-99583500D01*
X157470019Y-99563815D01*
X157431519Y-99524597D01*
X157348712Y-99390344D01*
X157224656Y-99266288D01*
X157075334Y-99174186D01*
X156908797Y-99119001D01*
X156908795Y-99119000D01*
X156806010Y-99108500D01*
X155805998Y-99108500D01*
X155805980Y-99108501D01*
X155703203Y-99119000D01*
X155703200Y-99119001D01*
X155536668Y-99174185D01*
X155536663Y-99174187D01*
X155387342Y-99266289D01*
X155263289Y-99390342D01*
X155171187Y-99539663D01*
X155171185Y-99539668D01*
X155160580Y-99571672D01*
X155116001Y-99706203D01*
X155116001Y-99706204D01*
X155116000Y-99706204D01*
X155105500Y-99808983D01*
X155105500Y-100609001D01*
X155105501Y-100609019D01*
X155116000Y-100711796D01*
X155116001Y-100711799D01*
X155171185Y-100878331D01*
X155171187Y-100878336D01*
X155263289Y-101027657D01*
X155357304Y-101121672D01*
X155390789Y-101182995D01*
X155385805Y-101252687D01*
X155357305Y-101297034D01*
X155263682Y-101390657D01*
X155171643Y-101539875D01*
X155171641Y-101539880D01*
X155116494Y-101706302D01*
X155116493Y-101706309D01*
X155106000Y-101809013D01*
X155106000Y-101959000D01*
X157505999Y-101959000D01*
X157505999Y-101809028D01*
X157505998Y-101809013D01*
X157495505Y-101706302D01*
X157440358Y-101539880D01*
X157440356Y-101539875D01*
X157348315Y-101390654D01*
X157254695Y-101297034D01*
X157221210Y-101235711D01*
X157226194Y-101166019D01*
X157254691Y-101121676D01*
X157348712Y-101027656D01*
X157431519Y-100893402D01*
X157483467Y-100846679D01*
X157537058Y-100834500D01*
X158667607Y-100834500D01*
X158728029Y-100822481D01*
X158788452Y-100810463D01*
X158788455Y-100810461D01*
X158788458Y-100810461D01*
X158821787Y-100796654D01*
X158821786Y-100796654D01*
X158821792Y-100796652D01*
X158902286Y-100763312D01*
X158953509Y-100729084D01*
X159004733Y-100694858D01*
X159091858Y-100607733D01*
X159091859Y-100607731D01*
X159098925Y-100600665D01*
X159098928Y-100600661D01*
X159101384Y-100598204D01*
X159162705Y-100564721D01*
X159221155Y-100566111D01*
X159281487Y-100582278D01*
X159441853Y-100596308D01*
X159505998Y-100601920D01*
X159506000Y-100601920D01*
X159506002Y-100601920D01*
X159562128Y-100597009D01*
X159730513Y-100582278D01*
X159948205Y-100523947D01*
X160152460Y-100428702D01*
X160337073Y-100299434D01*
X160496434Y-100140073D01*
X160603355Y-99987374D01*
X160657930Y-99943751D01*
X160704928Y-99934500D01*
X164807072Y-99934500D01*
X164874111Y-99954185D01*
X164908643Y-99987372D01*
X165015566Y-100140073D01*
X165174927Y-100299434D01*
X165359540Y-100428702D01*
X165482424Y-100486003D01*
X165563788Y-100523944D01*
X165563790Y-100523944D01*
X165563795Y-100523947D01*
X165781487Y-100582278D01*
X165941853Y-100596308D01*
X166005998Y-100601920D01*
X166006000Y-100601920D01*
X166006002Y-100601920D01*
X166062128Y-100597009D01*
X166230513Y-100582278D01*
X166448205Y-100523947D01*
X166652460Y-100428702D01*
X166837073Y-100299434D01*
X166996434Y-100140073D01*
X167125702Y-99955460D01*
X167220947Y-99751205D01*
X167279278Y-99533513D01*
X167298920Y-99309000D01*
X167279278Y-99084487D01*
X167220947Y-98866795D01*
X167125702Y-98662540D01*
X166996434Y-98477927D01*
X166837073Y-98318566D01*
X166652466Y-98189302D01*
X166652463Y-98189300D01*
X166652460Y-98189298D01*
X166652456Y-98189296D01*
X166448211Y-98094055D01*
X166448200Y-98094051D01*
X166230514Y-98035722D01*
X166230507Y-98035721D01*
X166006002Y-98016080D01*
X166005998Y-98016080D01*
X165781492Y-98035721D01*
X165781485Y-98035722D01*
X165563799Y-98094051D01*
X165563788Y-98094055D01*
X165359543Y-98189296D01*
X165359533Y-98189302D01*
X165174926Y-98318566D01*
X165015570Y-98477922D01*
X165015567Y-98477925D01*
X165015566Y-98477927D01*
X164908644Y-98630625D01*
X164854070Y-98674249D01*
X164807072Y-98683500D01*
X160704928Y-98683500D01*
X160637889Y-98663815D01*
X160603356Y-98630627D01*
X160496434Y-98477927D01*
X160337073Y-98318566D01*
X160152466Y-98189302D01*
X160152463Y-98189300D01*
X160152460Y-98189298D01*
X160152456Y-98189296D01*
X159948211Y-98094055D01*
X159948200Y-98094051D01*
X159730514Y-98035722D01*
X159730507Y-98035721D01*
X159506002Y-98016080D01*
X159505998Y-98016080D01*
X159356324Y-98029174D01*
X159281487Y-98035722D01*
X159281484Y-98035722D01*
X159221157Y-98051887D01*
X159151307Y-98050224D01*
X159101383Y-98019793D01*
X158848928Y-97767338D01*
X158848925Y-97767334D01*
X158848925Y-97767335D01*
X158841858Y-97760268D01*
X158841858Y-97760267D01*
X158754733Y-97673142D01*
X158754732Y-97673141D01*
X158754731Y-97673140D01*
X158703509Y-97638915D01*
X158652286Y-97604688D01*
X158652283Y-97604686D01*
X158652280Y-97604685D01*
X158566130Y-97569001D01*
X158566130Y-97569002D01*
X158566128Y-97569001D01*
X158538452Y-97557537D01*
X158478029Y-97545518D01*
X158417610Y-97533500D01*
X158417607Y-97533500D01*
X158417606Y-97533500D01*
X149266452Y-97533500D01*
X149199413Y-97513815D01*
X149178771Y-97497181D01*
X146490587Y-94808997D01*
X149213080Y-94808997D01*
X149213080Y-94809002D01*
X149232721Y-95033507D01*
X149232722Y-95033514D01*
X149291051Y-95251200D01*
X149291055Y-95251211D01*
X149386296Y-95455456D01*
X149386302Y-95455466D01*
X149494699Y-95610272D01*
X149515566Y-95640073D01*
X149674927Y-95799434D01*
X149859540Y-95928702D01*
X149982424Y-95986003D01*
X150063788Y-96023944D01*
X150063790Y-96023944D01*
X150063795Y-96023947D01*
X150281487Y-96082278D01*
X150441853Y-96096308D01*
X150505998Y-96101920D01*
X150506000Y-96101920D01*
X150506002Y-96101920D01*
X150562128Y-96097009D01*
X150730513Y-96082278D01*
X150948205Y-96023947D01*
X151152460Y-95928702D01*
X151337073Y-95799434D01*
X151496434Y-95640073D01*
X151625702Y-95455460D01*
X151720947Y-95251205D01*
X151779278Y-95033513D01*
X151798920Y-94809000D01*
X151779278Y-94584487D01*
X151720947Y-94366795D01*
X151625702Y-94162540D01*
X151496434Y-93977927D01*
X151337073Y-93818566D01*
X151152460Y-93689298D01*
X151152456Y-93689296D01*
X150948211Y-93594055D01*
X150948200Y-93594051D01*
X150730514Y-93535722D01*
X150730507Y-93535721D01*
X150506002Y-93516080D01*
X150505998Y-93516080D01*
X150281492Y-93535721D01*
X150281485Y-93535722D01*
X150063799Y-93594051D01*
X150063788Y-93594055D01*
X149859543Y-93689296D01*
X149859533Y-93689302D01*
X149674926Y-93818566D01*
X149515566Y-93977926D01*
X149386302Y-94162533D01*
X149386296Y-94162543D01*
X149291055Y-94366788D01*
X149291051Y-94366799D01*
X149232722Y-94584485D01*
X149232721Y-94584492D01*
X149213080Y-94808997D01*
X146490587Y-94808997D01*
X142917819Y-91236229D01*
X142884334Y-91174906D01*
X142881500Y-91148548D01*
X142881500Y-90308986D01*
X146006001Y-90308986D01*
X146016494Y-90411697D01*
X146071641Y-90578119D01*
X146071643Y-90578124D01*
X146163684Y-90727345D01*
X146287654Y-90851315D01*
X146436875Y-90943356D01*
X146436880Y-90943358D01*
X146603302Y-90998505D01*
X146603309Y-90998506D01*
X146706019Y-91008999D01*
X146955999Y-91008999D01*
X147456000Y-91008999D01*
X147705972Y-91008999D01*
X147705986Y-91008998D01*
X147808697Y-90998505D01*
X147975119Y-90943358D01*
X147975124Y-90943356D01*
X148124345Y-90851315D01*
X148248315Y-90727345D01*
X148340356Y-90578124D01*
X148340358Y-90578119D01*
X148395505Y-90411697D01*
X148395506Y-90411690D01*
X148405999Y-90308986D01*
X148406000Y-90308973D01*
X148406000Y-90159000D01*
X147456000Y-90159000D01*
X147456000Y-91008999D01*
X146955999Y-91008999D01*
X146956000Y-91008998D01*
X146956000Y-90159000D01*
X146006001Y-90159000D01*
X146006001Y-90308986D01*
X142881500Y-90308986D01*
X142881500Y-80323361D01*
X142901185Y-80256322D01*
X142940223Y-80217934D01*
X142967432Y-80201088D01*
X143128427Y-80054322D01*
X143157047Y-80016422D01*
X143213153Y-79974787D01*
X143282865Y-79970094D01*
X143344048Y-80003836D01*
X143354946Y-80016414D01*
X143383573Y-80054322D01*
X143383576Y-80054325D01*
X143383578Y-80054327D01*
X143477642Y-80140077D01*
X143544568Y-80201088D01*
X143571776Y-80217934D01*
X143618412Y-80269960D01*
X143630500Y-80323361D01*
X143630500Y-83920611D01*
X143654535Y-84041444D01*
X143654540Y-84041461D01*
X143701685Y-84155280D01*
X143701687Y-84155283D01*
X143701688Y-84155286D01*
X143732543Y-84201463D01*
X143735914Y-84206507D01*
X143735915Y-84206509D01*
X143770140Y-84257731D01*
X143770141Y-84257732D01*
X143770142Y-84257733D01*
X143857267Y-84344858D01*
X143857268Y-84344858D01*
X143864335Y-84351925D01*
X143864334Y-84351925D01*
X143864338Y-84351928D01*
X145457263Y-85944855D01*
X145457267Y-85944858D01*
X145559710Y-86013309D01*
X145559711Y-86013309D01*
X145559715Y-86013312D01*
X145608454Y-86033500D01*
X145673548Y-86060463D01*
X145693597Y-86064451D01*
X145727196Y-86071134D01*
X145794392Y-86084501D01*
X145794394Y-86084501D01*
X145923721Y-86084501D01*
X145923741Y-86084500D01*
X147846547Y-86084500D01*
X147913586Y-86104185D01*
X147959341Y-86156989D01*
X147969285Y-86226147D01*
X147940260Y-86289703D01*
X147934228Y-86296181D01*
X147458227Y-86772181D01*
X147396904Y-86805666D01*
X147370546Y-86808500D01*
X146705998Y-86808500D01*
X146705980Y-86808501D01*
X146603203Y-86819000D01*
X146603200Y-86819001D01*
X146436668Y-86874185D01*
X146436663Y-86874187D01*
X146287342Y-86966289D01*
X146163289Y-87090342D01*
X146071187Y-87239663D01*
X146071185Y-87239668D01*
X146043349Y-87323670D01*
X146016001Y-87406203D01*
X146016001Y-87406204D01*
X146016000Y-87406204D01*
X146005500Y-87508983D01*
X146005500Y-88309001D01*
X146005501Y-88309019D01*
X146016000Y-88411796D01*
X146016001Y-88411799D01*
X146056332Y-88533507D01*
X146071186Y-88578334D01*
X146152562Y-88710267D01*
X146163289Y-88727657D01*
X146257304Y-88821672D01*
X146290789Y-88882995D01*
X146285805Y-88952687D01*
X146257305Y-88997034D01*
X146163682Y-89090657D01*
X146071643Y-89239875D01*
X146071641Y-89239880D01*
X146016494Y-89406302D01*
X146016493Y-89406309D01*
X146006000Y-89509013D01*
X146006000Y-89659000D01*
X148405999Y-89659000D01*
X148405999Y-89509028D01*
X148405998Y-89509013D01*
X148395505Y-89406302D01*
X148340358Y-89239880D01*
X148340356Y-89239875D01*
X148248315Y-89090654D01*
X148154695Y-88997034D01*
X148121210Y-88935711D01*
X148126194Y-88866019D01*
X148154691Y-88821676D01*
X148248712Y-88727656D01*
X148340814Y-88578334D01*
X148395999Y-88411797D01*
X148406500Y-88309009D01*
X148406499Y-87644451D01*
X148426183Y-87577413D01*
X148442818Y-87556771D01*
X148678771Y-87320819D01*
X148740094Y-87287334D01*
X148766452Y-87284500D01*
X149100288Y-87284500D01*
X149167327Y-87304185D01*
X149213082Y-87356989D01*
X149223577Y-87421756D01*
X149218000Y-87473618D01*
X149218000Y-89144370D01*
X149218001Y-89144376D01*
X149224408Y-89203983D01*
X149274702Y-89338828D01*
X149274706Y-89338835D01*
X149360952Y-89454044D01*
X149360955Y-89454047D01*
X149476164Y-89540293D01*
X149476171Y-89540297D01*
X149611017Y-89590591D01*
X149611016Y-89590591D01*
X149617944Y-89591335D01*
X149670627Y-89597000D01*
X151341372Y-89596999D01*
X151400983Y-89590591D01*
X151535831Y-89540296D01*
X151651046Y-89454046D01*
X151737296Y-89338831D01*
X151787591Y-89203983D01*
X151794000Y-89144373D01*
X151793999Y-87473628D01*
X151788423Y-87421753D01*
X151800830Y-87352993D01*
X151848441Y-87301857D01*
X151911713Y-87284500D01*
X153045548Y-87284500D01*
X153112587Y-87304185D01*
X153133229Y-87320819D01*
X153716793Y-87904383D01*
X153750278Y-87965706D01*
X153748887Y-88024157D01*
X153732722Y-88084484D01*
X153732722Y-88084488D01*
X153713080Y-88308998D01*
X153713080Y-88309002D01*
X153732721Y-88533507D01*
X153732722Y-88533514D01*
X153791051Y-88751200D01*
X153791053Y-88751205D01*
X153886296Y-88955456D01*
X153886302Y-88955466D01*
X153916784Y-88998999D01*
X154015566Y-89140073D01*
X154174927Y-89299434D01*
X154327625Y-89406355D01*
X154371249Y-89460930D01*
X154380500Y-89507928D01*
X154380500Y-93610071D01*
X154360815Y-93677110D01*
X154327624Y-93711645D01*
X154174926Y-93818566D01*
X154015566Y-93977926D01*
X153886302Y-94162533D01*
X153886296Y-94162543D01*
X153791055Y-94366788D01*
X153791051Y-94366799D01*
X153732722Y-94584485D01*
X153732721Y-94584492D01*
X153713080Y-94808997D01*
X153713080Y-94809002D01*
X153732721Y-95033507D01*
X153732722Y-95033514D01*
X153791051Y-95251200D01*
X153791055Y-95251211D01*
X153886296Y-95455456D01*
X153886302Y-95455466D01*
X153994699Y-95610272D01*
X154015566Y-95640073D01*
X154174927Y-95799434D01*
X154359540Y-95928702D01*
X154482424Y-95986003D01*
X154563788Y-96023944D01*
X154563790Y-96023944D01*
X154563795Y-96023947D01*
X154781487Y-96082278D01*
X154941853Y-96096308D01*
X155005998Y-96101920D01*
X155006000Y-96101920D01*
X155006002Y-96101920D01*
X155062128Y-96097009D01*
X155230513Y-96082278D01*
X155448205Y-96023947D01*
X155652460Y-95928702D01*
X155837073Y-95799434D01*
X155996434Y-95640073D01*
X156125702Y-95455460D01*
X156220947Y-95251205D01*
X156279278Y-95033513D01*
X156298920Y-94809000D01*
X156298920Y-94808997D01*
X169213080Y-94808997D01*
X169213080Y-94809002D01*
X169232721Y-95033507D01*
X169232722Y-95033514D01*
X169291051Y-95251200D01*
X169291055Y-95251211D01*
X169386296Y-95455456D01*
X169386302Y-95455466D01*
X169494699Y-95610272D01*
X169515566Y-95640073D01*
X169674927Y-95799434D01*
X169859540Y-95928702D01*
X169982424Y-95986003D01*
X170063788Y-96023944D01*
X170063790Y-96023944D01*
X170063795Y-96023947D01*
X170281487Y-96082278D01*
X170441853Y-96096308D01*
X170505998Y-96101920D01*
X170506000Y-96101920D01*
X170506002Y-96101920D01*
X170562128Y-96097009D01*
X170730513Y-96082278D01*
X170948205Y-96023947D01*
X171152460Y-95928702D01*
X171337073Y-95799434D01*
X171496434Y-95640073D01*
X171625702Y-95455460D01*
X171720947Y-95251205D01*
X171779278Y-95033513D01*
X171798920Y-94809000D01*
X171779278Y-94584487D01*
X171720947Y-94366795D01*
X171625702Y-94162540D01*
X171496434Y-93977927D01*
X171337073Y-93818566D01*
X171152460Y-93689298D01*
X171152456Y-93689296D01*
X170948211Y-93594055D01*
X170948200Y-93594051D01*
X170730514Y-93535722D01*
X170730507Y-93535721D01*
X170506002Y-93516080D01*
X170505998Y-93516080D01*
X170281492Y-93535721D01*
X170281485Y-93535722D01*
X170063799Y-93594051D01*
X170063788Y-93594055D01*
X169859543Y-93689296D01*
X169859533Y-93689302D01*
X169674926Y-93818566D01*
X169515566Y-93977926D01*
X169386302Y-94162533D01*
X169386296Y-94162543D01*
X169291055Y-94366788D01*
X169291051Y-94366799D01*
X169232722Y-94584485D01*
X169232721Y-94584492D01*
X169213080Y-94808997D01*
X156298920Y-94808997D01*
X156279278Y-94584487D01*
X156220947Y-94366795D01*
X156125702Y-94162540D01*
X155996434Y-93977927D01*
X155837073Y-93818566D01*
X155684376Y-93711645D01*
X155640751Y-93657068D01*
X155631500Y-93610071D01*
X155631500Y-90108983D01*
X166555500Y-90108983D01*
X166555500Y-90909001D01*
X166555501Y-90909019D01*
X166566000Y-91011796D01*
X166566001Y-91011799D01*
X166621185Y-91178331D01*
X166621187Y-91178336D01*
X166634494Y-91199910D01*
X166713288Y-91327656D01*
X166837344Y-91451712D01*
X166986666Y-91543814D01*
X167153203Y-91598999D01*
X167255991Y-91609500D01*
X168256008Y-91609499D01*
X168256016Y-91609498D01*
X168256019Y-91609498D01*
X168312302Y-91603748D01*
X168358797Y-91598999D01*
X168525334Y-91543814D01*
X168674656Y-91451712D01*
X168798712Y-91327656D01*
X168881519Y-91193402D01*
X168933467Y-91146679D01*
X168987058Y-91134500D01*
X172867607Y-91134500D01*
X172928029Y-91122481D01*
X172988452Y-91110463D01*
X172988455Y-91110461D01*
X172988458Y-91110461D01*
X173021787Y-91096654D01*
X173021786Y-91096654D01*
X173021792Y-91096652D01*
X173102286Y-91063312D01*
X173153509Y-91029084D01*
X173204733Y-90994858D01*
X173291858Y-90907733D01*
X173291859Y-90907731D01*
X173298925Y-90900665D01*
X173298927Y-90900661D01*
X174168820Y-90030769D01*
X174230142Y-89997285D01*
X174299834Y-90002269D01*
X174355767Y-90044141D01*
X174380184Y-90109605D01*
X174380500Y-90118451D01*
X174380500Y-93610071D01*
X174360815Y-93677110D01*
X174327624Y-93711645D01*
X174174926Y-93818566D01*
X174015566Y-93977926D01*
X173886302Y-94162533D01*
X173886296Y-94162543D01*
X173791055Y-94366788D01*
X173791051Y-94366799D01*
X173732722Y-94584485D01*
X173732721Y-94584492D01*
X173713080Y-94808997D01*
X173713080Y-94809002D01*
X173732721Y-95033507D01*
X173732722Y-95033514D01*
X173791051Y-95251200D01*
X173791055Y-95251211D01*
X173886296Y-95455456D01*
X173886302Y-95455466D01*
X173994699Y-95610272D01*
X174015566Y-95640073D01*
X174174927Y-95799434D01*
X174359540Y-95928702D01*
X174482424Y-95986003D01*
X174563788Y-96023944D01*
X174563790Y-96023944D01*
X174563795Y-96023947D01*
X174781487Y-96082278D01*
X174941853Y-96096308D01*
X175005998Y-96101920D01*
X175006000Y-96101920D01*
X175006002Y-96101920D01*
X175062128Y-96097009D01*
X175230513Y-96082278D01*
X175448205Y-96023947D01*
X175652460Y-95928702D01*
X175837073Y-95799434D01*
X175996434Y-95640073D01*
X176125702Y-95455460D01*
X176220947Y-95251205D01*
X176279278Y-95033513D01*
X176298920Y-94809000D01*
X176279278Y-94584487D01*
X176220947Y-94366795D01*
X176125702Y-94162540D01*
X175996434Y-93977927D01*
X175837073Y-93818566D01*
X175684376Y-93711645D01*
X175640751Y-93657068D01*
X175631500Y-93610071D01*
X175631500Y-89507928D01*
X175651185Y-89440889D01*
X175684372Y-89406356D01*
X175837073Y-89299434D01*
X175996434Y-89140073D01*
X176125702Y-88955460D01*
X176220947Y-88751205D01*
X176279278Y-88533513D01*
X176294009Y-88365128D01*
X176298920Y-88309002D01*
X176298920Y-88308997D01*
X176281425Y-88109028D01*
X176279278Y-88084487D01*
X176220947Y-87866795D01*
X176208396Y-87839880D01*
X176183003Y-87785424D01*
X176125702Y-87662540D01*
X175996434Y-87477927D01*
X175837073Y-87318566D01*
X175753540Y-87260075D01*
X175652466Y-87189302D01*
X175652463Y-87189300D01*
X175652460Y-87189298D01*
X175652456Y-87189296D01*
X175448211Y-87094055D01*
X175448200Y-87094051D01*
X175230514Y-87035722D01*
X175230507Y-87035721D01*
X175006002Y-87016080D01*
X175005998Y-87016080D01*
X174781492Y-87035721D01*
X174781485Y-87035722D01*
X174563799Y-87094051D01*
X174563788Y-87094055D01*
X174359543Y-87189296D01*
X174359533Y-87189302D01*
X174174926Y-87318566D01*
X174015566Y-87477926D01*
X173886302Y-87662533D01*
X173886296Y-87662543D01*
X173791055Y-87866788D01*
X173791051Y-87866799D01*
X173732722Y-88084485D01*
X173732721Y-88084492D01*
X173713080Y-88308997D01*
X173713080Y-88309002D01*
X173732721Y-88533507D01*
X173732723Y-88533518D01*
X173748887Y-88593842D01*
X173747224Y-88663692D01*
X173716793Y-88713616D01*
X172583229Y-89847181D01*
X172521906Y-89880666D01*
X172495548Y-89883500D01*
X168987058Y-89883500D01*
X168920019Y-89863815D01*
X168881519Y-89824597D01*
X168798712Y-89690344D01*
X168704695Y-89596327D01*
X168671210Y-89535004D01*
X168676194Y-89465312D01*
X168704695Y-89420964D01*
X168798317Y-89327342D01*
X168890356Y-89178124D01*
X168890358Y-89178119D01*
X168945505Y-89011697D01*
X168945506Y-89011690D01*
X168955999Y-88908986D01*
X168956000Y-88908973D01*
X168956000Y-88759000D01*
X166556001Y-88759000D01*
X166556001Y-88908986D01*
X166566494Y-89011697D01*
X166621641Y-89178119D01*
X166621643Y-89178124D01*
X166713684Y-89327345D01*
X166807304Y-89420965D01*
X166840789Y-89482288D01*
X166835805Y-89551980D01*
X166807305Y-89596327D01*
X166713287Y-89690345D01*
X166621187Y-89839663D01*
X166621185Y-89839668D01*
X166613184Y-89863815D01*
X166566001Y-90006203D01*
X166566001Y-90006204D01*
X166566000Y-90006204D01*
X166555500Y-90108983D01*
X155631500Y-90108983D01*
X155631500Y-89507928D01*
X155651185Y-89440889D01*
X155684372Y-89406356D01*
X155837073Y-89299434D01*
X155996434Y-89140073D01*
X156125702Y-88955460D01*
X156220947Y-88751205D01*
X156279278Y-88533513D01*
X156294009Y-88365128D01*
X156298920Y-88309002D01*
X156298920Y-88308997D01*
X156281425Y-88109028D01*
X156281424Y-88109013D01*
X166556000Y-88109013D01*
X166556000Y-88259000D01*
X167506000Y-88259000D01*
X168006000Y-88259000D01*
X168955999Y-88259000D01*
X168955999Y-88109028D01*
X168955998Y-88109013D01*
X168945505Y-88006302D01*
X168890358Y-87839880D01*
X168890356Y-87839875D01*
X168798315Y-87690654D01*
X168674345Y-87566684D01*
X168525124Y-87474643D01*
X168525119Y-87474641D01*
X168522083Y-87473635D01*
X169218000Y-87473635D01*
X169218000Y-89144370D01*
X169218001Y-89144376D01*
X169224408Y-89203983D01*
X169274702Y-89338828D01*
X169274706Y-89338835D01*
X169360952Y-89454044D01*
X169360955Y-89454047D01*
X169476164Y-89540293D01*
X169476171Y-89540297D01*
X169611017Y-89590591D01*
X169611016Y-89590591D01*
X169617944Y-89591335D01*
X169670627Y-89597000D01*
X171341372Y-89596999D01*
X171400983Y-89590591D01*
X171535831Y-89540296D01*
X171651046Y-89454046D01*
X171737296Y-89338831D01*
X171787591Y-89203983D01*
X171794000Y-89144373D01*
X171793999Y-87473628D01*
X171787591Y-87414017D01*
X171785720Y-87409001D01*
X171737297Y-87279171D01*
X171737293Y-87279164D01*
X171651047Y-87163955D01*
X171651044Y-87163952D01*
X171535835Y-87077706D01*
X171535828Y-87077702D01*
X171400982Y-87027408D01*
X171400983Y-87027408D01*
X171341383Y-87021001D01*
X171341381Y-87021000D01*
X171341373Y-87021000D01*
X171341364Y-87021000D01*
X169670629Y-87021000D01*
X169670623Y-87021001D01*
X169611016Y-87027408D01*
X169476171Y-87077702D01*
X169476164Y-87077706D01*
X169360955Y-87163952D01*
X169360952Y-87163955D01*
X169274706Y-87279164D01*
X169274702Y-87279171D01*
X169224408Y-87414017D01*
X169218001Y-87473616D01*
X169218001Y-87473623D01*
X169218000Y-87473635D01*
X168522083Y-87473635D01*
X168358697Y-87419494D01*
X168358690Y-87419493D01*
X168255986Y-87409000D01*
X168006000Y-87409000D01*
X168006000Y-88259000D01*
X167506000Y-88259000D01*
X167506000Y-87409000D01*
X167256029Y-87409000D01*
X167256012Y-87409001D01*
X167153302Y-87419494D01*
X166986880Y-87474641D01*
X166986875Y-87474643D01*
X166837654Y-87566684D01*
X166713684Y-87690654D01*
X166621643Y-87839875D01*
X166621641Y-87839880D01*
X166566494Y-88006302D01*
X166566493Y-88006309D01*
X166556000Y-88109013D01*
X156281424Y-88109013D01*
X156279278Y-88084487D01*
X156220947Y-87866795D01*
X156208396Y-87839880D01*
X156183003Y-87785424D01*
X156125702Y-87662540D01*
X155996434Y-87477927D01*
X155837073Y-87318566D01*
X155753535Y-87260072D01*
X155709913Y-87205498D01*
X155702721Y-87135999D01*
X155734243Y-87073645D01*
X155794473Y-87038231D01*
X155824662Y-87034500D01*
X159802252Y-87034500D01*
X159869291Y-87054185D01*
X159894400Y-87075526D01*
X159900126Y-87081885D01*
X159900130Y-87081889D01*
X160053265Y-87193148D01*
X160053270Y-87193151D01*
X160226192Y-87270142D01*
X160226197Y-87270144D01*
X160411354Y-87309500D01*
X160411355Y-87309500D01*
X160600644Y-87309500D01*
X160600646Y-87309500D01*
X160785803Y-87270144D01*
X160958730Y-87193151D01*
X161111871Y-87081888D01*
X161238533Y-86941216D01*
X161333179Y-86777284D01*
X161391674Y-86597256D01*
X161411460Y-86409000D01*
X161391674Y-86220744D01*
X161333179Y-86040716D01*
X161238533Y-85876784D01*
X161111871Y-85736112D01*
X161111870Y-85736111D01*
X160958734Y-85624851D01*
X160958729Y-85624848D01*
X160785807Y-85547857D01*
X160785802Y-85547855D01*
X160640001Y-85516865D01*
X160600646Y-85508500D01*
X160411354Y-85508500D01*
X160378897Y-85515398D01*
X160226197Y-85547855D01*
X160226192Y-85547857D01*
X160053270Y-85624848D01*
X160053265Y-85624851D01*
X159900130Y-85736110D01*
X159900126Y-85736114D01*
X159894400Y-85742474D01*
X159834913Y-85779121D01*
X159802252Y-85783500D01*
X155466452Y-85783500D01*
X155399413Y-85763815D01*
X155378771Y-85747181D01*
X154696198Y-85064608D01*
X154696178Y-85064586D01*
X154604735Y-84973143D01*
X154576151Y-84954044D01*
X154538224Y-84928702D01*
X154538225Y-84928702D01*
X154538223Y-84928700D01*
X154502290Y-84904690D01*
X154502286Y-84904688D01*
X154421792Y-84871347D01*
X154388452Y-84857537D01*
X154388448Y-84857536D01*
X154388444Y-84857535D01*
X154294417Y-84838831D01*
X154294408Y-84838831D01*
X154267607Y-84833500D01*
X154267606Y-84833500D01*
X146166453Y-84833500D01*
X146099414Y-84813815D01*
X146078772Y-84797181D01*
X144917819Y-83636228D01*
X144884334Y-83574905D01*
X144881500Y-83548547D01*
X144881500Y-82973635D01*
X158218000Y-82973635D01*
X158218000Y-84644370D01*
X158218001Y-84644376D01*
X158224408Y-84703983D01*
X158274702Y-84838828D01*
X158274706Y-84838835D01*
X158360952Y-84954044D01*
X158360955Y-84954047D01*
X158476164Y-85040293D01*
X158476171Y-85040297D01*
X158611017Y-85090591D01*
X158611016Y-85090591D01*
X158617944Y-85091335D01*
X158670627Y-85097000D01*
X160341372Y-85096999D01*
X160400983Y-85090591D01*
X160535831Y-85040296D01*
X160651046Y-84954046D01*
X160737296Y-84838831D01*
X160787591Y-84703983D01*
X160794000Y-84644373D01*
X160793999Y-83808997D01*
X164713080Y-83808997D01*
X164713080Y-83809002D01*
X164732721Y-84033507D01*
X164732722Y-84033514D01*
X164791051Y-84251200D01*
X164791055Y-84251211D01*
X164876058Y-84433500D01*
X164886298Y-84455460D01*
X165015566Y-84640073D01*
X165174927Y-84799434D01*
X165359533Y-84928697D01*
X165359540Y-84928702D01*
X165563788Y-85023944D01*
X165563790Y-85023944D01*
X165563795Y-85023947D01*
X165781487Y-85082278D01*
X165941853Y-85096308D01*
X166005998Y-85101920D01*
X166006000Y-85101920D01*
X166006002Y-85101920D01*
X166062260Y-85096998D01*
X166230513Y-85082278D01*
X166448205Y-85023947D01*
X166652460Y-84928702D01*
X166837073Y-84799434D01*
X166996434Y-84640073D01*
X167125702Y-84455460D01*
X167220947Y-84251205D01*
X167279278Y-84033513D01*
X167298920Y-83809000D01*
X167279278Y-83584487D01*
X167220947Y-83366795D01*
X167125702Y-83162540D01*
X166996434Y-82977927D01*
X166837073Y-82818566D01*
X166652460Y-82689298D01*
X166652456Y-82689296D01*
X166448211Y-82594055D01*
X166448200Y-82594051D01*
X166230514Y-82535722D01*
X166230507Y-82535721D01*
X166006002Y-82516080D01*
X166005998Y-82516080D01*
X165781492Y-82535721D01*
X165781485Y-82535722D01*
X165563799Y-82594051D01*
X165563788Y-82594055D01*
X165359543Y-82689296D01*
X165359533Y-82689302D01*
X165174926Y-82818566D01*
X165015566Y-82977926D01*
X164886302Y-83162533D01*
X164886296Y-83162543D01*
X164791055Y-83366788D01*
X164791051Y-83366799D01*
X164732722Y-83584485D01*
X164732721Y-83584492D01*
X164713080Y-83808997D01*
X160793999Y-83808997D01*
X160793999Y-82973628D01*
X160787591Y-82914017D01*
X160737296Y-82779169D01*
X160737295Y-82779168D01*
X160737293Y-82779164D01*
X160651047Y-82663955D01*
X160651044Y-82663952D01*
X160535835Y-82577706D01*
X160535828Y-82577702D01*
X160400982Y-82527408D01*
X160400983Y-82527408D01*
X160341383Y-82521001D01*
X160341381Y-82521000D01*
X160341373Y-82521000D01*
X160341364Y-82521000D01*
X158670629Y-82521000D01*
X158670623Y-82521001D01*
X158611016Y-82527408D01*
X158476171Y-82577702D01*
X158476164Y-82577706D01*
X158360955Y-82663952D01*
X158360952Y-82663955D01*
X158274706Y-82779164D01*
X158274702Y-82779171D01*
X158224408Y-82914017D01*
X158218001Y-82973616D01*
X158218001Y-82973623D01*
X158218000Y-82973635D01*
X144881500Y-82973635D01*
X144881500Y-81758986D01*
X155756001Y-81758986D01*
X155766494Y-81861697D01*
X155821641Y-82028119D01*
X155821643Y-82028124D01*
X155913684Y-82177345D01*
X156037654Y-82301315D01*
X156186875Y-82393356D01*
X156186880Y-82393358D01*
X156353302Y-82448505D01*
X156353309Y-82448506D01*
X156456019Y-82458999D01*
X156705999Y-82458999D01*
X157206000Y-82458999D01*
X157455972Y-82458999D01*
X157455986Y-82458998D01*
X157558697Y-82448505D01*
X157725119Y-82393358D01*
X157725124Y-82393356D01*
X157874345Y-82301315D01*
X157998315Y-82177345D01*
X158090356Y-82028124D01*
X158090358Y-82028119D01*
X158145505Y-81861697D01*
X158145506Y-81861690D01*
X158155999Y-81758986D01*
X158156000Y-81758973D01*
X158156000Y-81609000D01*
X157206000Y-81609000D01*
X157206000Y-82458999D01*
X156705999Y-82458999D01*
X156706000Y-82458998D01*
X156706000Y-81609000D01*
X155756001Y-81609000D01*
X155756001Y-81758986D01*
X144881500Y-81758986D01*
X144881500Y-80323361D01*
X144901185Y-80256322D01*
X144940223Y-80217934D01*
X144967432Y-80201088D01*
X145128427Y-80054322D01*
X145259712Y-79880472D01*
X145356817Y-79685459D01*
X145416435Y-79475923D01*
X145436536Y-79259000D01*
X145416435Y-79042077D01*
X145356817Y-78832541D01*
X145259712Y-78637528D01*
X145128427Y-78463678D01*
X145101016Y-78438690D01*
X145003370Y-78349674D01*
X144967432Y-78316912D01*
X144967428Y-78316909D01*
X144967423Y-78316906D01*
X144801105Y-78213927D01*
X144754469Y-78161899D01*
X144743365Y-78092918D01*
X144771318Y-78028883D01*
X144829453Y-77990127D01*
X144866382Y-77984500D01*
X156845548Y-77984500D01*
X156912587Y-78004185D01*
X156933229Y-78020819D01*
X156959229Y-78046819D01*
X156992714Y-78108142D01*
X156987730Y-78177834D01*
X156945858Y-78233767D01*
X156880394Y-78258184D01*
X156871548Y-78258500D01*
X156455998Y-78258500D01*
X156455980Y-78258501D01*
X156353203Y-78269000D01*
X156353200Y-78269001D01*
X156186668Y-78324185D01*
X156186663Y-78324187D01*
X156037342Y-78416289D01*
X155913289Y-78540342D01*
X155821187Y-78689663D01*
X155821185Y-78689668D01*
X155814945Y-78708500D01*
X155766001Y-78856203D01*
X155766001Y-78856204D01*
X155766000Y-78856204D01*
X155755500Y-78958983D01*
X155755500Y-79759001D01*
X155755501Y-79759019D01*
X155766000Y-79861796D01*
X155766001Y-79861799D01*
X155821185Y-80028331D01*
X155821187Y-80028336D01*
X155856069Y-80084888D01*
X155912473Y-80176335D01*
X155913289Y-80177657D01*
X156007304Y-80271672D01*
X156040789Y-80332995D01*
X156035805Y-80402687D01*
X156007305Y-80447034D01*
X155913682Y-80540657D01*
X155821643Y-80689875D01*
X155821641Y-80689880D01*
X155766494Y-80856302D01*
X155766493Y-80856309D01*
X155756000Y-80959013D01*
X155756000Y-81109000D01*
X158155999Y-81109000D01*
X158155999Y-80959028D01*
X158155998Y-80959013D01*
X158145505Y-80856302D01*
X158090358Y-80689880D01*
X158090356Y-80689875D01*
X157998315Y-80540654D01*
X157904695Y-80447034D01*
X157871210Y-80385711D01*
X157876194Y-80316019D01*
X157904691Y-80271676D01*
X157998712Y-80177656D01*
X157998713Y-80177653D01*
X158003819Y-80172548D01*
X158005705Y-80174434D01*
X158052625Y-80141212D01*
X158092868Y-80134500D01*
X158458631Y-80134500D01*
X158525670Y-80154185D01*
X158546312Y-80170819D01*
X158674927Y-80299434D01*
X158859540Y-80428702D01*
X158914185Y-80454183D01*
X159063788Y-80523944D01*
X159063790Y-80523944D01*
X159063795Y-80523947D01*
X159281487Y-80582278D01*
X159441853Y-80596308D01*
X159505998Y-80601920D01*
X159506000Y-80601920D01*
X159506002Y-80601920D01*
X159562128Y-80597009D01*
X159730513Y-80582278D01*
X159948205Y-80523947D01*
X160152460Y-80428702D01*
X160337073Y-80299434D01*
X160496434Y-80140073D01*
X160603355Y-79987374D01*
X160657930Y-79943751D01*
X160704928Y-79934500D01*
X164807072Y-79934500D01*
X164874111Y-79954185D01*
X164908643Y-79987372D01*
X165015566Y-80140073D01*
X165174927Y-80299434D01*
X165359540Y-80428702D01*
X165414185Y-80454183D01*
X165563788Y-80523944D01*
X165563790Y-80523944D01*
X165563795Y-80523947D01*
X165781487Y-80582278D01*
X165941853Y-80596308D01*
X166005998Y-80601920D01*
X166006000Y-80601920D01*
X166006002Y-80601920D01*
X166062128Y-80597009D01*
X166230513Y-80582278D01*
X166448205Y-80523947D01*
X166652460Y-80428702D01*
X166837073Y-80299434D01*
X166996434Y-80140073D01*
X167125702Y-79955460D01*
X167220947Y-79751205D01*
X167279278Y-79533513D01*
X167298920Y-79309000D01*
X167279278Y-79084487D01*
X167220947Y-78866795D01*
X167216008Y-78856204D01*
X167147133Y-78708500D01*
X167125702Y-78662540D01*
X167037206Y-78536155D01*
X167931000Y-78536155D01*
X167931000Y-79009000D01*
X168790314Y-79009000D01*
X168785920Y-79013394D01*
X168733259Y-79104606D01*
X168706000Y-79206339D01*
X168706000Y-79311661D01*
X168733259Y-79413394D01*
X168785920Y-79504606D01*
X168790314Y-79509000D01*
X167931000Y-79509000D01*
X167931000Y-79981844D01*
X167937401Y-80041372D01*
X167937403Y-80041379D01*
X167987645Y-80176086D01*
X167987649Y-80176093D01*
X168073809Y-80291187D01*
X168073812Y-80291190D01*
X168188906Y-80377350D01*
X168188913Y-80377354D01*
X168323620Y-80427596D01*
X168323627Y-80427598D01*
X168383155Y-80433999D01*
X168383172Y-80434000D01*
X168856000Y-80434000D01*
X168856000Y-79574686D01*
X168860394Y-79579080D01*
X168951606Y-79631741D01*
X169053339Y-79659000D01*
X169158661Y-79659000D01*
X169260394Y-79631741D01*
X169351606Y-79579080D01*
X169356000Y-79574686D01*
X169356000Y-80434000D01*
X169828828Y-80434000D01*
X169828844Y-80433999D01*
X169888372Y-80427598D01*
X169888379Y-80427596D01*
X170023086Y-80377354D01*
X170023093Y-80377350D01*
X170138186Y-80291191D01*
X170200413Y-80208067D01*
X170256347Y-80166196D01*
X170326038Y-80161212D01*
X170383216Y-80190739D01*
X170394568Y-80201088D01*
X170394575Y-80201092D01*
X170394576Y-80201093D01*
X170579786Y-80315770D01*
X170579792Y-80315773D01*
X170599379Y-80323361D01*
X170782931Y-80394470D01*
X170997074Y-80434500D01*
X170997076Y-80434500D01*
X171214924Y-80434500D01*
X171214926Y-80434500D01*
X171429069Y-80394470D01*
X171632210Y-80315772D01*
X171817432Y-80201088D01*
X171978427Y-80054322D01*
X172109712Y-79880472D01*
X172206817Y-79685459D01*
X172266435Y-79475923D01*
X172286536Y-79259000D01*
X172266435Y-79042077D01*
X172206817Y-78832541D01*
X172134700Y-78687711D01*
X172555500Y-78687711D01*
X172555500Y-78930288D01*
X172583153Y-79140344D01*
X172587162Y-79170789D01*
X172596688Y-79206339D01*
X172649947Y-79405104D01*
X172742773Y-79629205D01*
X172742776Y-79629212D01*
X172864064Y-79839289D01*
X172864066Y-79839292D01*
X172864067Y-79839293D01*
X173011733Y-80031736D01*
X173011739Y-80031743D01*
X173183256Y-80203260D01*
X173183263Y-80203266D01*
X173249764Y-80254294D01*
X173375711Y-80350936D01*
X173585788Y-80472224D01*
X173750993Y-80540654D01*
X173795250Y-80558986D01*
X173809900Y-80565054D01*
X174044211Y-80627838D01*
X174183535Y-80646180D01*
X174284711Y-80659500D01*
X174284712Y-80659500D01*
X174527289Y-80659500D01*
X174575388Y-80653167D01*
X174767789Y-80627838D01*
X175002100Y-80565054D01*
X175226212Y-80472224D01*
X175436289Y-80350936D01*
X175628738Y-80203265D01*
X175800265Y-80031738D01*
X175947936Y-79839289D01*
X176069224Y-79629212D01*
X176162054Y-79405100D01*
X176224838Y-79170789D01*
X176256500Y-78930288D01*
X176256500Y-78687712D01*
X176255945Y-78683500D01*
X176236547Y-78536155D01*
X176224838Y-78447211D01*
X176162054Y-78212900D01*
X176156851Y-78200340D01*
X176131942Y-78140204D01*
X176069224Y-77988788D01*
X175947936Y-77778711D01*
X175854868Y-77657422D01*
X175800266Y-77586263D01*
X175800260Y-77586256D01*
X175628743Y-77414739D01*
X175628736Y-77414733D01*
X175436293Y-77267067D01*
X175436292Y-77267066D01*
X175436289Y-77267064D01*
X175226212Y-77145776D01*
X175226205Y-77145773D01*
X175002104Y-77052947D01*
X174884944Y-77021554D01*
X174767789Y-76990162D01*
X174767788Y-76990161D01*
X174767785Y-76990161D01*
X174527289Y-76958500D01*
X174527288Y-76958500D01*
X174284712Y-76958500D01*
X174284711Y-76958500D01*
X174044214Y-76990161D01*
X173809895Y-77052947D01*
X173585794Y-77145773D01*
X173585785Y-77145777D01*
X173375706Y-77267067D01*
X173183263Y-77414733D01*
X173183256Y-77414739D01*
X173011739Y-77586256D01*
X173011733Y-77586263D01*
X172864067Y-77778706D01*
X172742777Y-77988785D01*
X172742773Y-77988794D01*
X172649947Y-78212895D01*
X172587161Y-78447214D01*
X172555500Y-78687711D01*
X172134700Y-78687711D01*
X172109712Y-78637528D01*
X171978427Y-78463678D01*
X171951016Y-78438690D01*
X171853370Y-78349674D01*
X171817432Y-78316912D01*
X171817428Y-78316909D01*
X171817423Y-78316906D01*
X171632213Y-78202229D01*
X171632207Y-78202226D01*
X171547113Y-78169260D01*
X171429069Y-78123530D01*
X171214926Y-78083500D01*
X170997074Y-78083500D01*
X170782931Y-78123530D01*
X170739896Y-78140202D01*
X170579792Y-78202226D01*
X170579786Y-78202229D01*
X170394565Y-78316913D01*
X170383214Y-78327261D01*
X170320408Y-78357875D01*
X170251021Y-78349674D01*
X170200414Y-78309932D01*
X170138187Y-78226809D01*
X170023093Y-78140649D01*
X170023086Y-78140645D01*
X169888379Y-78090403D01*
X169888372Y-78090401D01*
X169828844Y-78084000D01*
X169356000Y-78084000D01*
X169356000Y-78943314D01*
X169351606Y-78938920D01*
X169260394Y-78886259D01*
X169158661Y-78859000D01*
X169053339Y-78859000D01*
X168951606Y-78886259D01*
X168860394Y-78938920D01*
X168856000Y-78943314D01*
X168856000Y-78084000D01*
X168383155Y-78084000D01*
X168323627Y-78090401D01*
X168323620Y-78090403D01*
X168188913Y-78140645D01*
X168188906Y-78140649D01*
X168073812Y-78226809D01*
X168073809Y-78226812D01*
X167987649Y-78341906D01*
X167987645Y-78341913D01*
X167937403Y-78476620D01*
X167937401Y-78476627D01*
X167931000Y-78536155D01*
X167037206Y-78536155D01*
X166996434Y-78477927D01*
X166837073Y-78318566D01*
X166715968Y-78233767D01*
X166652466Y-78189302D01*
X166652463Y-78189300D01*
X166652460Y-78189298D01*
X166652456Y-78189296D01*
X166448211Y-78094055D01*
X166448200Y-78094051D01*
X166230514Y-78035722D01*
X166230507Y-78035721D01*
X166006002Y-78016080D01*
X166005998Y-78016080D01*
X165781492Y-78035721D01*
X165781485Y-78035722D01*
X165563799Y-78094051D01*
X165563788Y-78094055D01*
X165359543Y-78189296D01*
X165359533Y-78189302D01*
X165174926Y-78318566D01*
X165015570Y-78477922D01*
X165015567Y-78477925D01*
X165015566Y-78477927D01*
X164908644Y-78630625D01*
X164854070Y-78674249D01*
X164807072Y-78683500D01*
X160704928Y-78683500D01*
X160637889Y-78663815D01*
X160603356Y-78630627D01*
X160496434Y-78477927D01*
X160337073Y-78318566D01*
X160215968Y-78233767D01*
X160152466Y-78189302D01*
X160152463Y-78189300D01*
X160152460Y-78189298D01*
X160152456Y-78189296D01*
X159948211Y-78094055D01*
X159948200Y-78094051D01*
X159730514Y-78035722D01*
X159730507Y-78035721D01*
X159506002Y-78016080D01*
X159505998Y-78016080D01*
X159281492Y-78035721D01*
X159281485Y-78035722D01*
X159063798Y-78094051D01*
X158945968Y-78148995D01*
X158876890Y-78159486D01*
X158813107Y-78130965D01*
X158805884Y-78124293D01*
X157648928Y-76967338D01*
X157648925Y-76967334D01*
X157648925Y-76967335D01*
X157641858Y-76960268D01*
X157641858Y-76960267D01*
X157554733Y-76873142D01*
X157554732Y-76873141D01*
X157554731Y-76873140D01*
X157503509Y-76838915D01*
X157452287Y-76804689D01*
X157452286Y-76804688D01*
X157452283Y-76804686D01*
X157452280Y-76804685D01*
X157371792Y-76771347D01*
X157338453Y-76757537D01*
X157328427Y-76755543D01*
X157278029Y-76745518D01*
X157217610Y-76733500D01*
X157217607Y-76733500D01*
X157217606Y-76733500D01*
X139817607Y-76733500D01*
X139694393Y-76733500D01*
X139694389Y-76733500D01*
X139633971Y-76745518D01*
X139573548Y-76757537D01*
X139573543Y-76757538D01*
X139540207Y-76771347D01*
X139526397Y-76777067D01*
X139504169Y-76786274D01*
X139459713Y-76804688D01*
X139449557Y-76811475D01*
X139449449Y-76811547D01*
X139357268Y-76873140D01*
X139313705Y-76916703D01*
X139270142Y-76960267D01*
X139270139Y-76960270D01*
X138174024Y-78056384D01*
X138112701Y-78089869D01*
X138109129Y-78090591D01*
X137932935Y-78123528D01*
X137729792Y-78202226D01*
X137729786Y-78202229D01*
X137544576Y-78316906D01*
X137544566Y-78316913D01*
X137383573Y-78463676D01*
X137354953Y-78501576D01*
X137298844Y-78543211D01*
X137229132Y-78547902D01*
X137167950Y-78514159D01*
X137157047Y-78501576D01*
X137128426Y-78463676D01*
X136967433Y-78316913D01*
X136967423Y-78316906D01*
X136782213Y-78202229D01*
X136782207Y-78202226D01*
X136697113Y-78169260D01*
X136579069Y-78123530D01*
X136364926Y-78083500D01*
X136147074Y-78083500D01*
X135932931Y-78123530D01*
X135889896Y-78140202D01*
X135729792Y-78202226D01*
X135729786Y-78202229D01*
X135544576Y-78316906D01*
X135544566Y-78316913D01*
X135383573Y-78463676D01*
X135354953Y-78501576D01*
X135298844Y-78543211D01*
X135229132Y-78547902D01*
X135167950Y-78514159D01*
X135157047Y-78501576D01*
X135128426Y-78463676D01*
X134967433Y-78316913D01*
X134967423Y-78316906D01*
X134782213Y-78202229D01*
X134782207Y-78202226D01*
X134697113Y-78169260D01*
X134579069Y-78123530D01*
X134364926Y-78083500D01*
X134147074Y-78083500D01*
X133932931Y-78123530D01*
X133889896Y-78140202D01*
X133729792Y-78202226D01*
X133729786Y-78202229D01*
X133544576Y-78316906D01*
X133544566Y-78316913D01*
X133383573Y-78463676D01*
X133354953Y-78501576D01*
X133298844Y-78543211D01*
X133229132Y-78547902D01*
X133167950Y-78514159D01*
X133157047Y-78501576D01*
X133128426Y-78463676D01*
X132967433Y-78316913D01*
X132967423Y-78316906D01*
X132782213Y-78202229D01*
X132782207Y-78202226D01*
X132697113Y-78169260D01*
X132579069Y-78123530D01*
X132364926Y-78083500D01*
X132147074Y-78083500D01*
X131932931Y-78123530D01*
X131889896Y-78140202D01*
X131729792Y-78202226D01*
X131729786Y-78202229D01*
X131544565Y-78316913D01*
X131533585Y-78326923D01*
X131470780Y-78357537D01*
X131401393Y-78349336D01*
X131350785Y-78309594D01*
X131312536Y-78258501D01*
X131288546Y-78226454D01*
X131288544Y-78226453D01*
X131288544Y-78226452D01*
X131173335Y-78140206D01*
X131173328Y-78140202D01*
X131038482Y-78089908D01*
X131038483Y-78089908D01*
X130978883Y-78083501D01*
X130978881Y-78083500D01*
X130978873Y-78083500D01*
X130978865Y-78083500D01*
X129981098Y-78083500D01*
X129914059Y-78063815D01*
X129893417Y-78047181D01*
X129887217Y-78040981D01*
X129887216Y-78040980D01*
X129789389Y-77984500D01*
X129750285Y-77961923D01*
X129597557Y-77920999D01*
X129439443Y-77920999D01*
X129431847Y-77920999D01*
X129431831Y-77921000D01*
X116714443Y-77921000D01*
X116561713Y-77961923D01*
X116522611Y-77984500D01*
X116522610Y-77984500D01*
X116417746Y-78045043D01*
X116416517Y-78042914D01*
X116362924Y-78063633D01*
X116320516Y-78059838D01*
X116230513Y-78035722D01*
X116006002Y-78016080D01*
X116005998Y-78016080D01*
X115781492Y-78035721D01*
X115781485Y-78035722D01*
X115563799Y-78094051D01*
X115563788Y-78094055D01*
X115359543Y-78189296D01*
X115359533Y-78189302D01*
X115174926Y-78318566D01*
X115015566Y-78477926D01*
X114891140Y-78655624D01*
X114836563Y-78699249D01*
X114789566Y-78708500D01*
X110722434Y-78708500D01*
X110655395Y-78688815D01*
X110620860Y-78655624D01*
X110496433Y-78477926D01*
X110337073Y-78318566D01*
X110152466Y-78189302D01*
X110152463Y-78189300D01*
X110152460Y-78189298D01*
X110152456Y-78189296D01*
X109948211Y-78094055D01*
X109948200Y-78094051D01*
X109730514Y-78035722D01*
X109730507Y-78035721D01*
X109506002Y-78016080D01*
X109505998Y-78016080D01*
X109281492Y-78035721D01*
X109281485Y-78035722D01*
X109063799Y-78094051D01*
X109063788Y-78094055D01*
X108859543Y-78189296D01*
X108859533Y-78189302D01*
X108674926Y-78318566D01*
X108515566Y-78477926D01*
X108386302Y-78662533D01*
X108386296Y-78662543D01*
X108291055Y-78866788D01*
X108291051Y-78866799D01*
X108232722Y-79084485D01*
X108232721Y-79084492D01*
X108213080Y-79308997D01*
X108213080Y-79309002D01*
X108232721Y-79533507D01*
X108232722Y-79533514D01*
X108291051Y-79751200D01*
X108291055Y-79751211D01*
X108386296Y-79955456D01*
X108386302Y-79955466D01*
X108455522Y-80054322D01*
X108515566Y-80140073D01*
X108674927Y-80299434D01*
X108859540Y-80428702D01*
X108914185Y-80454183D01*
X109063788Y-80523944D01*
X109063790Y-80523944D01*
X109063795Y-80523947D01*
X109281487Y-80582278D01*
X109441853Y-80596308D01*
X109505998Y-80601920D01*
X109506000Y-80601920D01*
X109506002Y-80601920D01*
X109562128Y-80597009D01*
X109730513Y-80582278D01*
X109948205Y-80523947D01*
X110152460Y-80428702D01*
X110337073Y-80299434D01*
X110496434Y-80140073D01*
X110574677Y-80028331D01*
X110620860Y-79962376D01*
X110675437Y-79918751D01*
X110722434Y-79909500D01*
X114789566Y-79909500D01*
X114856605Y-79929185D01*
X114891140Y-79962376D01*
X115011664Y-80134500D01*
X115015566Y-80140073D01*
X115174927Y-80299434D01*
X115359540Y-80428702D01*
X115414185Y-80454183D01*
X115563788Y-80523944D01*
X115563790Y-80523944D01*
X115563795Y-80523947D01*
X115781487Y-80582278D01*
X115941853Y-80596308D01*
X116005998Y-80601920D01*
X116006000Y-80601920D01*
X116006002Y-80601920D01*
X116062128Y-80597009D01*
X116230513Y-80582278D01*
X116448205Y-80523947D01*
X116652460Y-80428702D01*
X116837073Y-80299434D01*
X116996434Y-80140073D01*
X117125702Y-79955460D01*
X117220947Y-79751205D01*
X117279278Y-79533513D01*
X117298920Y-79309000D01*
X117294354Y-79256807D01*
X117308121Y-79188307D01*
X117356736Y-79138124D01*
X117417882Y-79122000D01*
X118055025Y-79122000D01*
X118122064Y-79141685D01*
X118167819Y-79194489D01*
X118177763Y-79263647D01*
X118172731Y-79285004D01*
X118116001Y-79456203D01*
X118116000Y-79456204D01*
X118105500Y-79558983D01*
X118105500Y-80559001D01*
X118105501Y-80559019D01*
X118116000Y-80661796D01*
X118116001Y-80661799D01*
X118171115Y-80828119D01*
X118171186Y-80828334D01*
X118263288Y-80977656D01*
X118387344Y-81101712D01*
X118536666Y-81193814D01*
X118703203Y-81248999D01*
X118805991Y-81259500D01*
X119606008Y-81259499D01*
X119606016Y-81259498D01*
X119606019Y-81259498D01*
X119662302Y-81253748D01*
X119708797Y-81248999D01*
X119875334Y-81193814D01*
X120024656Y-81101712D01*
X120118675Y-81007692D01*
X120179994Y-80974210D01*
X120249686Y-80979194D01*
X120294034Y-81007695D01*
X120387654Y-81101315D01*
X120536875Y-81193356D01*
X120536880Y-81193358D01*
X120703302Y-81248505D01*
X120703309Y-81248506D01*
X120806019Y-81258999D01*
X120955999Y-81258999D01*
X121456000Y-81258999D01*
X121605972Y-81258999D01*
X121605986Y-81258998D01*
X121708697Y-81248505D01*
X121875119Y-81193358D01*
X121875124Y-81193356D01*
X122024345Y-81101315D01*
X122148315Y-80977345D01*
X122240356Y-80828124D01*
X122240358Y-80828119D01*
X122295505Y-80661697D01*
X122295506Y-80661690D01*
X122305999Y-80558986D01*
X122306000Y-80558973D01*
X122306000Y-80309000D01*
X121456000Y-80309000D01*
X121456000Y-81258999D01*
X120955999Y-81258999D01*
X120956000Y-81258998D01*
X120956000Y-79933000D01*
X120975685Y-79865961D01*
X121028489Y-79820206D01*
X121080000Y-79809000D01*
X122305999Y-79809000D01*
X122305999Y-79559028D01*
X122305998Y-79559013D01*
X122295506Y-79456304D01*
X122238742Y-79285005D01*
X122236340Y-79215176D01*
X122272071Y-79155134D01*
X122334592Y-79123941D01*
X122356448Y-79122000D01*
X128956500Y-79122000D01*
X129023539Y-79141685D01*
X129069294Y-79194489D01*
X129080500Y-79246000D01*
X129080500Y-79981870D01*
X129080501Y-79981876D01*
X129086908Y-80041483D01*
X129137202Y-80176328D01*
X129137206Y-80176335D01*
X129223452Y-80291544D01*
X129223455Y-80291547D01*
X129338664Y-80377793D01*
X129338671Y-80377797D01*
X129383372Y-80394469D01*
X129473517Y-80428091D01*
X129533127Y-80434500D01*
X129896548Y-80434499D01*
X129963586Y-80454183D01*
X130009341Y-80506987D01*
X130019285Y-80576146D01*
X129990260Y-80639701D01*
X129984228Y-80646180D01*
X129433229Y-81197181D01*
X129371906Y-81230666D01*
X129345548Y-81233500D01*
X127994388Y-81233500D01*
X127873555Y-81257535D01*
X127873547Y-81257537D01*
X127759716Y-81304687D01*
X127657265Y-81373142D01*
X127657262Y-81373145D01*
X126033229Y-82997181D01*
X125971906Y-83030666D01*
X125945548Y-83033500D01*
X119723741Y-83033500D01*
X119723721Y-83033499D01*
X119717607Y-83033499D01*
X119594394Y-83033499D01*
X119493597Y-83053548D01*
X119493592Y-83053548D01*
X119473549Y-83057536D01*
X119473547Y-83057536D01*
X119426397Y-83077067D01*
X119359719Y-83104685D01*
X119359717Y-83104686D01*
X119257266Y-83173141D01*
X119257263Y-83173144D01*
X117033229Y-85397181D01*
X116971906Y-85430666D01*
X116945548Y-85433500D01*
X107323741Y-85433500D01*
X107323721Y-85433499D01*
X107317607Y-85433499D01*
X107194394Y-85433499D01*
X107093597Y-85453548D01*
X107093592Y-85453548D01*
X107073549Y-85457536D01*
X107073547Y-85457536D01*
X107026397Y-85477067D01*
X106959719Y-85504685D01*
X106959717Y-85504686D01*
X106857266Y-85573141D01*
X105410615Y-87019792D01*
X105349292Y-87053277D01*
X105290842Y-87051886D01*
X105230521Y-87035724D01*
X105230518Y-87035723D01*
X105230513Y-87035722D01*
X105230510Y-87035721D01*
X105230507Y-87035721D01*
X105006002Y-87016080D01*
X105005998Y-87016080D01*
X104781492Y-87035721D01*
X104781485Y-87035722D01*
X104563799Y-87094051D01*
X104563788Y-87094055D01*
X104359543Y-87189296D01*
X104359533Y-87189302D01*
X104174926Y-87318566D01*
X104015566Y-87477926D01*
X103886302Y-87662533D01*
X103886296Y-87662543D01*
X103791055Y-87866788D01*
X103791051Y-87866799D01*
X103732722Y-88084485D01*
X103732721Y-88084492D01*
X103713080Y-88308997D01*
X101793999Y-88308997D01*
X101793999Y-87473628D01*
X101787591Y-87414017D01*
X101785720Y-87409001D01*
X101737297Y-87279171D01*
X101737293Y-87279164D01*
X101651047Y-87163955D01*
X101651044Y-87163952D01*
X101535835Y-87077706D01*
X101535828Y-87077702D01*
X101400982Y-87027408D01*
X101400983Y-87027408D01*
X101341383Y-87021001D01*
X101341381Y-87021000D01*
X101341373Y-87021000D01*
X101341364Y-87021000D01*
X99670629Y-87021000D01*
X99670623Y-87021001D01*
X99611016Y-87027408D01*
X99476171Y-87077702D01*
X99476164Y-87077706D01*
X99360955Y-87163952D01*
X99360952Y-87163955D01*
X99274706Y-87279164D01*
X99274702Y-87279171D01*
X99224408Y-87414017D01*
X99218001Y-87473616D01*
X99218001Y-87473623D01*
X99218000Y-87473635D01*
X98206500Y-87473635D01*
X98206500Y-82973635D01*
X108218000Y-82973635D01*
X108218000Y-84644370D01*
X108218001Y-84644376D01*
X108224408Y-84703983D01*
X108274702Y-84838828D01*
X108274706Y-84838835D01*
X108360952Y-84954044D01*
X108360955Y-84954047D01*
X108476164Y-85040293D01*
X108476171Y-85040297D01*
X108611017Y-85090591D01*
X108611016Y-85090591D01*
X108617944Y-85091335D01*
X108670627Y-85097000D01*
X110341372Y-85096999D01*
X110400983Y-85090591D01*
X110535831Y-85040296D01*
X110651046Y-84954046D01*
X110737296Y-84838831D01*
X110787591Y-84703983D01*
X110794000Y-84644373D01*
X110793999Y-83808997D01*
X114713080Y-83808997D01*
X114713080Y-83809002D01*
X114732721Y-84033507D01*
X114732722Y-84033514D01*
X114791051Y-84251200D01*
X114791055Y-84251211D01*
X114876058Y-84433500D01*
X114886298Y-84455460D01*
X115015566Y-84640073D01*
X115174927Y-84799434D01*
X115359533Y-84928697D01*
X115359540Y-84928702D01*
X115563788Y-85023944D01*
X115563790Y-85023944D01*
X115563795Y-85023947D01*
X115781487Y-85082278D01*
X115941853Y-85096308D01*
X116005998Y-85101920D01*
X116006000Y-85101920D01*
X116006002Y-85101920D01*
X116062260Y-85096998D01*
X116230513Y-85082278D01*
X116448205Y-85023947D01*
X116652460Y-84928702D01*
X116837073Y-84799434D01*
X116996434Y-84640073D01*
X117125702Y-84455460D01*
X117220947Y-84251205D01*
X117279278Y-84033513D01*
X117298920Y-83809000D01*
X117279278Y-83584487D01*
X117220947Y-83366795D01*
X117125702Y-83162540D01*
X116996434Y-82977927D01*
X116837073Y-82818566D01*
X116652460Y-82689298D01*
X116652456Y-82689296D01*
X116448211Y-82594055D01*
X116448200Y-82594051D01*
X116230514Y-82535722D01*
X116230507Y-82535721D01*
X116006002Y-82516080D01*
X116005998Y-82516080D01*
X115781492Y-82535721D01*
X115781485Y-82535722D01*
X115563799Y-82594051D01*
X115563788Y-82594055D01*
X115359543Y-82689296D01*
X115359533Y-82689302D01*
X115174926Y-82818566D01*
X115015566Y-82977926D01*
X114886302Y-83162533D01*
X114886296Y-83162543D01*
X114791055Y-83366788D01*
X114791051Y-83366799D01*
X114732722Y-83584485D01*
X114732721Y-83584492D01*
X114713080Y-83808997D01*
X110793999Y-83808997D01*
X110793999Y-82973628D01*
X110787591Y-82914017D01*
X110737296Y-82779169D01*
X110737295Y-82779168D01*
X110737293Y-82779164D01*
X110651047Y-82663955D01*
X110651044Y-82663952D01*
X110535835Y-82577706D01*
X110535828Y-82577702D01*
X110400982Y-82527408D01*
X110400983Y-82527408D01*
X110341383Y-82521001D01*
X110341381Y-82521000D01*
X110341373Y-82521000D01*
X110341364Y-82521000D01*
X108670629Y-82521000D01*
X108670623Y-82521001D01*
X108611016Y-82527408D01*
X108476171Y-82577702D01*
X108476164Y-82577706D01*
X108360955Y-82663952D01*
X108360952Y-82663955D01*
X108274706Y-82779164D01*
X108274702Y-82779171D01*
X108224408Y-82914017D01*
X108218001Y-82973616D01*
X108218001Y-82973623D01*
X108218000Y-82973635D01*
X98206500Y-82973635D01*
X98206500Y-78687711D01*
X99155500Y-78687711D01*
X99155500Y-78930288D01*
X99183153Y-79140344D01*
X99187162Y-79170789D01*
X99196688Y-79206339D01*
X99249947Y-79405104D01*
X99342773Y-79629205D01*
X99342776Y-79629212D01*
X99464064Y-79839289D01*
X99464066Y-79839292D01*
X99464067Y-79839293D01*
X99611733Y-80031736D01*
X99611739Y-80031743D01*
X99783256Y-80203260D01*
X99783263Y-80203266D01*
X99849764Y-80254294D01*
X99975711Y-80350936D01*
X100185788Y-80472224D01*
X100350993Y-80540654D01*
X100395250Y-80558986D01*
X100409900Y-80565054D01*
X100644211Y-80627838D01*
X100783535Y-80646180D01*
X100884711Y-80659500D01*
X100884712Y-80659500D01*
X101127289Y-80659500D01*
X101175388Y-80653167D01*
X101367789Y-80627838D01*
X101602100Y-80565054D01*
X101826212Y-80472224D01*
X102036289Y-80350936D01*
X102228738Y-80203265D01*
X102400265Y-80031738D01*
X102547936Y-79839289D01*
X102669224Y-79629212D01*
X102762054Y-79405100D01*
X102824838Y-79170789D01*
X102856500Y-78930288D01*
X102856500Y-78687712D01*
X102855945Y-78683500D01*
X102836547Y-78536155D01*
X102824838Y-78447211D01*
X102762054Y-78212900D01*
X102756851Y-78200340D01*
X102731942Y-78140204D01*
X102669224Y-77988788D01*
X102547936Y-77778711D01*
X102454868Y-77657422D01*
X102400266Y-77586263D01*
X102400260Y-77586256D01*
X102228743Y-77414739D01*
X102228736Y-77414733D01*
X102036293Y-77267067D01*
X102036292Y-77267066D01*
X102036289Y-77267064D01*
X101826212Y-77145776D01*
X101826205Y-77145773D01*
X101602104Y-77052947D01*
X101484944Y-77021554D01*
X101367789Y-76990162D01*
X101367788Y-76990161D01*
X101367785Y-76990161D01*
X101127289Y-76958500D01*
X101127288Y-76958500D01*
X100884712Y-76958500D01*
X100884711Y-76958500D01*
X100644214Y-76990161D01*
X100409895Y-77052947D01*
X100185794Y-77145773D01*
X100185785Y-77145777D01*
X99975706Y-77267067D01*
X99783263Y-77414733D01*
X99783256Y-77414739D01*
X99611739Y-77586256D01*
X99611733Y-77586263D01*
X99464067Y-77778706D01*
X99342777Y-77988785D01*
X99342773Y-77988794D01*
X99249947Y-78212895D01*
X99187161Y-78447214D01*
X99155500Y-78687711D01*
X98206500Y-78687711D01*
X98206500Y-78512750D01*
X98206726Y-78505263D01*
X98206949Y-78501576D01*
X98224271Y-78215201D01*
X98226076Y-78200340D01*
X98228026Y-78189703D01*
X98277780Y-77918197D01*
X98281364Y-77903663D01*
X98320301Y-77778711D01*
X98366696Y-77629822D01*
X98371998Y-77615841D01*
X98489731Y-77354249D01*
X98496676Y-77341016D01*
X98645080Y-77095526D01*
X98653567Y-77083230D01*
X98830480Y-76857417D01*
X98840395Y-76846226D01*
X99043226Y-76643395D01*
X99054417Y-76633480D01*
X99280230Y-76456567D01*
X99292526Y-76448080D01*
X99538016Y-76299676D01*
X99551249Y-76292731D01*
X99812841Y-76174998D01*
X99826822Y-76169696D01*
X100100668Y-76084362D01*
X100115197Y-76080780D01*
X100397344Y-76029075D01*
X100412201Y-76027271D01*
X100702264Y-76009726D01*
X100709751Y-76009500D01*
X100771892Y-76009500D01*
X174640108Y-76009500D01*
X174702249Y-76009500D01*
X174709736Y-76009726D01*
G37*
%TD.AperFunction*%
%TD*%
D26*
X117300000Y-128800000D03*
D27*
X120871000Y-117959000D03*
X115446000Y-123059000D03*
X119721000Y-128109000D03*
X141921000Y-112109000D03*
X139956000Y-129459000D03*
X129956000Y-129459000D03*
X134521000Y-111909000D03*
X120703000Y-122122000D03*
X160506000Y-86409000D03*
X174406000Y-112809000D03*
X101006000Y-78809000D03*
X159506000Y-83809000D03*
X166006000Y-83809000D03*
X159506000Y-79309000D03*
X166006000Y-79309000D03*
X150506000Y-88309000D03*
X150506000Y-94809000D03*
X155006000Y-88309000D03*
X155006000Y-94809000D03*
X174406000Y-78809000D03*
X174406000Y-132209000D03*
X101006000Y-132209000D03*
X174406000Y-104209000D03*
X109506000Y-83809000D03*
X116006000Y-83809000D03*
X109506000Y-79309000D03*
X116006000Y-79309000D03*
X170506000Y-88309000D03*
X170506000Y-94809000D03*
X175006000Y-88309000D03*
X175006000Y-94809000D03*
X131306000Y-127609000D03*
X133846000Y-127609000D03*
X136386000Y-127609000D03*
X138926000Y-127609000D03*
X141466000Y-127609000D03*
X144006000Y-127609000D03*
X144011000Y-117449000D03*
X141471000Y-117449000D03*
X138931000Y-117449000D03*
X136391000Y-117449000D03*
X133851000Y-117449000D03*
X131311000Y-117449000D03*
X100456000Y-119259000D03*
X100456000Y-125759000D03*
X104956000Y-119259000D03*
X104956000Y-125759000D03*
X101006000Y-104209000D03*
X174956000Y-125759000D03*
X174956000Y-119259000D03*
X170456000Y-125759000D03*
X170456000Y-119259000D03*
X169106000Y-79259000D03*
X171106000Y-79259000D03*
X130256000Y-79259000D03*
X132256000Y-79259000D03*
X134256000Y-79259000D03*
X136256000Y-79259000D03*
X138256000Y-79259000D03*
X140256000Y-79259000D03*
X142256000Y-79259000D03*
X144256000Y-79259000D03*
X159506000Y-103809000D03*
X166006000Y-103809000D03*
X159506000Y-99309000D03*
X166006000Y-99309000D03*
X120506000Y-88309000D03*
X120506000Y-94809000D03*
X125006000Y-88309000D03*
X125006000Y-94809000D03*
X109071000Y-132659000D03*
X111071000Y-132659000D03*
X109506000Y-103809000D03*
X116006000Y-103809000D03*
X109506000Y-99309000D03*
X116006000Y-99309000D03*
X100506000Y-88309000D03*
X100506000Y-94809000D03*
X105006000Y-88309000D03*
X105006000Y-94809000D03*
X163206000Y-132259000D03*
X165206000Y-132259000D03*
X146206000Y-131709000D03*
X148206000Y-131709000D03*
X150206000Y-131709000D03*
X152206000Y-131709000D03*
X110206000Y-120609000D03*
X110206000Y-122609000D03*
X110206000Y-124609000D03*
X101006000Y-112809000D03*
M02*
