%TF.GenerationSoftware,KiCad,Pcbnew,8.0.4*%
%TF.CreationDate,2024-08-07T19:34:09-04:00*%
%TF.ProjectId,button_board,62757474-6f6e-45f6-926f-6172642e6b69,rev?*%
%TF.SameCoordinates,Original*%
%TF.FileFunction,Copper,L2,Bot*%
%TF.FilePolarity,Positive*%
%FSLAX46Y46*%
G04 Gerber Fmt 4.6, Leading zero omitted, Abs format (unit mm)*
G04 Created by KiCad (PCBNEW 8.0.4) date 2024-08-07 19:34:09*
%MOMM*%
%LPD*%
G01*
G04 APERTURE LIST*
G04 Aperture macros list*
%AMRoundRect*
0 Rectangle with rounded corners*
0 $1 Rounding radius*
0 $2 $3 $4 $5 $6 $7 $8 $9 X,Y pos of 4 corners*
0 Add a 4 corners polygon primitive as box body*
4,1,4,$2,$3,$4,$5,$6,$7,$8,$9,$2,$3,0*
0 Add four circle primitives for the rounded corners*
1,1,$1+$1,$2,$3*
1,1,$1+$1,$4,$5*
1,1,$1+$1,$6,$7*
1,1,$1+$1,$8,$9*
0 Add four rect primitives between the rounded corners*
20,1,$1+$1,$2,$3,$4,$5,0*
20,1,$1+$1,$4,$5,$6,$7,0*
20,1,$1+$1,$6,$7,$8,$9,0*
20,1,$1+$1,$8,$9,$2,$3,0*%
G04 Aperture macros list end*
%TA.AperFunction,ComponentPad*%
%ADD10R,1.575000X1.575000*%
%TD*%
%TA.AperFunction,ComponentPad*%
%ADD11C,1.575000*%
%TD*%
%TA.AperFunction,ComponentPad*%
%ADD12R,1.700000X1.700000*%
%TD*%
%TA.AperFunction,ComponentPad*%
%ADD13O,1.700000X1.700000*%
%TD*%
%TA.AperFunction,ComponentPad*%
%ADD14R,1.350000X1.350000*%
%TD*%
%TA.AperFunction,ComponentPad*%
%ADD15O,1.350000X1.350000*%
%TD*%
%TA.AperFunction,SMDPad,CuDef*%
%ADD16RoundRect,0.250000X-0.337500X-0.475000X0.337500X-0.475000X0.337500X0.475000X-0.337500X0.475000X0*%
%TD*%
%TA.AperFunction,SMDPad,CuDef*%
%ADD17RoundRect,0.250000X0.350000X0.450000X-0.350000X0.450000X-0.350000X-0.450000X0.350000X-0.450000X0*%
%TD*%
%TA.AperFunction,SMDPad,CuDef*%
%ADD18RoundRect,0.250000X-0.475000X0.337500X-0.475000X-0.337500X0.475000X-0.337500X0.475000X0.337500X0*%
%TD*%
%TA.AperFunction,SMDPad,CuDef*%
%ADD19RoundRect,0.250000X0.450000X-0.350000X0.450000X0.350000X-0.450000X0.350000X-0.450000X-0.350000X0*%
%TD*%
%TA.AperFunction,SMDPad,CuDef*%
%ADD20RoundRect,0.250000X-0.450000X0.350000X-0.450000X-0.350000X0.450000X-0.350000X0.450000X0.350000X0*%
%TD*%
%TA.AperFunction,SMDPad,CuDef*%
%ADD21RoundRect,0.250000X0.475000X-0.337500X0.475000X0.337500X-0.475000X0.337500X-0.475000X-0.337500X0*%
%TD*%
%TA.AperFunction,ViaPad*%
%ADD22C,0.600000*%
%TD*%
%TA.AperFunction,ViaPad*%
%ADD23C,0.800000*%
%TD*%
%TA.AperFunction,Conductor*%
%ADD24C,0.200000*%
%TD*%
%TA.AperFunction,Conductor*%
%ADD25C,0.250000*%
%TD*%
%ADD26C,0.300000*%
%ADD27C,0.350000*%
G04 APERTURE END LIST*
D10*
%TO.P,SW9,1,1*%
%TO.N,GND*%
X159506000Y-83809000D03*
D11*
%TO.P,SW9,2,2*%
X166006000Y-83809000D03*
%TO.P,SW9,3,K*%
%TO.N,/Press buttons/Button 5*%
X159506000Y-79309000D03*
%TO.P,SW9,4,A*%
X166006000Y-79309000D03*
%TD*%
D10*
%TO.P,SW10,1,1*%
%TO.N,GND*%
X150506000Y-88309000D03*
D11*
%TO.P,SW10,2,2*%
X150506000Y-94809000D03*
%TO.P,SW10,3,K*%
%TO.N,/Press buttons/Button 6*%
X155006000Y-88309000D03*
%TO.P,SW10,4,A*%
X155006000Y-94809000D03*
%TD*%
D10*
%TO.P,SW5,1,1*%
%TO.N,GND*%
X109506000Y-83809000D03*
D11*
%TO.P,SW5,2,2*%
X116006000Y-83809000D03*
%TO.P,SW5,3,K*%
%TO.N,/Press buttons/Button 1*%
X109506000Y-79309000D03*
%TO.P,SW5,4,A*%
X116006000Y-79309000D03*
%TD*%
D10*
%TO.P,SW12,1,1*%
%TO.N,GND*%
X170506000Y-88309000D03*
D11*
%TO.P,SW12,2,2*%
X170506000Y-94809000D03*
%TO.P,SW12,3,K*%
%TO.N,/Press buttons/Button 8*%
X175006000Y-88309000D03*
%TO.P,SW12,4,A*%
X175006000Y-94809000D03*
%TD*%
D12*
%TO.P,U5,1,e*%
%TO.N,/Score display/E*%
X131306000Y-127609000D03*
D13*
%TO.P,U5,2,d*%
%TO.N,/Score display/D*%
X133846000Y-127609000D03*
%TO.P,U5,3,DPX*%
%TO.N,unconnected-(U5-DPX-Pad3)*%
X136386000Y-127609000D03*
%TO.P,U5,4,c*%
%TO.N,/Score display/C*%
X138926000Y-127609000D03*
%TO.P,U5,5,g*%
%TO.N,/Score display/G*%
X141466000Y-127609000D03*
%TO.P,U5,6,CA4*%
%TO.N,Multiplex 4*%
X144006000Y-127609000D03*
%TO.P,U5,7,b*%
%TO.N,/Score display/B*%
X144011000Y-117449000D03*
%TO.P,U5,8,CA3*%
%TO.N,Multiplex 3*%
X141471000Y-117449000D03*
%TO.P,U5,9,CA2*%
%TO.N,Multiplex 2*%
X138931000Y-117449000D03*
%TO.P,U5,10,f*%
%TO.N,/Score display/F*%
X136391000Y-117449000D03*
%TO.P,U5,11,a*%
%TO.N,/Score display/A*%
X133851000Y-117449000D03*
%TO.P,U5,12,CA1*%
%TO.N,Multiplex 1*%
X131311000Y-117449000D03*
%TD*%
D10*
%TO.P,SW3,1,1*%
%TO.N,GND*%
X100456000Y-119259000D03*
D11*
%TO.P,SW3,2,2*%
X100456000Y-125759000D03*
%TO.P,SW3,3,K*%
%TO.N,/Score display/Button 9*%
X104956000Y-119259000D03*
%TO.P,SW3,4,A*%
X104956000Y-125759000D03*
%TD*%
D10*
%TO.P,SW4,1,1*%
%TO.N,GND*%
X174956000Y-125759000D03*
D11*
%TO.P,SW4,2,2*%
X174956000Y-119259000D03*
%TO.P,SW4,3,K*%
%TO.N,/Score display/Button 10*%
X170456000Y-125759000D03*
%TO.P,SW4,4,A*%
X170456000Y-119259000D03*
%TD*%
D14*
%TO.P,J10,1,Pin_1*%
%TO.N,VDD*%
X169106000Y-79259000D03*
D15*
%TO.P,J10,2,Pin_2*%
%TO.N,GND*%
X171106000Y-79259000D03*
%TD*%
D14*
%TO.P,J11,1,Pin_1*%
%TO.N,/Press buttons/Button 1*%
X130256000Y-79259000D03*
D15*
%TO.P,J11,2,Pin_2*%
%TO.N,/Press buttons/Button 2*%
X132256000Y-79259000D03*
%TO.P,J11,3,Pin_3*%
%TO.N,/Press buttons/Button 3*%
X134256000Y-79259000D03*
%TO.P,J11,4,Pin_4*%
%TO.N,/Press buttons/Button 4*%
X136256000Y-79259000D03*
%TO.P,J11,5,Pin_5*%
%TO.N,/Press buttons/Button 5*%
X138256000Y-79259000D03*
%TO.P,J11,6,Pin_6*%
%TO.N,/Press buttons/Button 6*%
X140256000Y-79259000D03*
%TO.P,J11,7,Pin_7*%
%TO.N,/Press buttons/Button 7*%
X142256000Y-79259000D03*
%TO.P,J11,8,Pin_8*%
%TO.N,/Press buttons/Button 8*%
X144256000Y-79259000D03*
%TD*%
D10*
%TO.P,SW11,1,1*%
%TO.N,GND*%
X159506000Y-103809000D03*
D11*
%TO.P,SW11,2,2*%
X166006000Y-103809000D03*
%TO.P,SW11,3,K*%
%TO.N,/Press buttons/Button 7*%
X159506000Y-99309000D03*
%TO.P,SW11,4,A*%
X166006000Y-99309000D03*
%TD*%
D10*
%TO.P,SW8,1,1*%
%TO.N,GND*%
X120506000Y-88309000D03*
D11*
%TO.P,SW8,2,2*%
X120506000Y-94809000D03*
%TO.P,SW8,3,K*%
%TO.N,/Press buttons/Button 4*%
X125006000Y-88309000D03*
%TO.P,SW8,4,A*%
X125006000Y-94809000D03*
%TD*%
D14*
%TO.P,J9,1,Pin_1*%
%TO.N,/Score display/Button 9*%
X109071000Y-132659000D03*
D15*
%TO.P,J9,2,Pin_2*%
%TO.N,/Score display/Button 10*%
X111071000Y-132659000D03*
%TD*%
D10*
%TO.P,SW7,1,1*%
%TO.N,GND*%
X109506000Y-103809000D03*
D11*
%TO.P,SW7,2,2*%
X116006000Y-103809000D03*
%TO.P,SW7,3,K*%
%TO.N,/Press buttons/Button 3*%
X109506000Y-99309000D03*
%TO.P,SW7,4,A*%
X116006000Y-99309000D03*
%TD*%
D10*
%TO.P,SW6,1,1*%
%TO.N,GND*%
X100506000Y-88309000D03*
D11*
%TO.P,SW6,2,2*%
X100506000Y-94809000D03*
%TO.P,SW6,3,K*%
%TO.N,/Press buttons/Button 2*%
X105006000Y-88309000D03*
%TO.P,SW6,4,A*%
X105006000Y-94809000D03*
%TD*%
D14*
%TO.P,J6,1,Pin_1*%
%TO.N,VDD*%
X163206000Y-132259000D03*
D15*
%TO.P,J6,2,Pin_2*%
%TO.N,GND*%
X165206000Y-132259000D03*
%TD*%
D14*
%TO.P,J7,1,Pin_1*%
%TO.N,Multiplex 1*%
X146206000Y-131709000D03*
D15*
%TO.P,J7,2,Pin_2*%
%TO.N,Multiplex 2*%
X148206000Y-131709000D03*
%TO.P,J7,3,Pin_3*%
%TO.N,Multiplex 3*%
X150206000Y-131709000D03*
%TO.P,J7,4,Pin_4*%
%TO.N,Multiplex 4*%
X152206000Y-131709000D03*
%TD*%
D14*
%TO.P,J8,1,Pin_1*%
%TO.N,Score clk*%
X110206000Y-120609000D03*
D15*
%TO.P,J8,2,Pin_2*%
%TO.N,Score latch*%
X110206000Y-122609000D03*
%TO.P,J8,3,Pin_3*%
%TO.N,Score data*%
X110206000Y-124609000D03*
%TD*%
D16*
%TO.P,C14,1*%
%TO.N,/Press buttons/Button 2*%
X107868500Y-90609000D03*
%TO.P,C14,2*%
%TO.N,Net-(C14-Pad2)*%
X109943500Y-90609000D03*
%TD*%
D17*
%TO.P,R31,1*%
%TO.N,Net-(C14-Pad2)*%
X109906000Y-93009000D03*
%TO.P,R31,2*%
%TO.N,GND*%
X107906000Y-93009000D03*
%TD*%
D18*
%TO.P,C15,1*%
%TO.N,/Press buttons/Button 3*%
X106706000Y-97671500D03*
%TO.P,C15,2*%
%TO.N,Net-(C15-Pad2)*%
X106706000Y-99746500D03*
%TD*%
D17*
%TO.P,R30,1*%
%TO.N,Net-(C13-Pad2)*%
X120968500Y-82509000D03*
%TO.P,R30,2*%
%TO.N,GND*%
X118968500Y-82509000D03*
%TD*%
D19*
%TO.P,R39,1*%
%TO.N,Net-(C18-Pad2)*%
X147256000Y-91996500D03*
%TO.P,R39,2*%
%TO.N,GND*%
X147256000Y-89996500D03*
%TD*%
D20*
%TO.P,R40,1*%
%TO.N,Net-(C19-Pad2)*%
X153906000Y-100209000D03*
%TO.P,R40,2*%
%TO.N,GND*%
X153906000Y-102209000D03*
%TD*%
D18*
%TO.P,C16,1*%
%TO.N,/Press buttons/Button 4*%
X123806000Y-98621500D03*
%TO.P,C16,2*%
%TO.N,Net-(C16-Pad2)*%
X123806000Y-100696500D03*
%TD*%
D19*
%TO.P,R41,1*%
%TO.N,Net-(C20-Pad2)*%
X165106000Y-92759000D03*
%TO.P,R41,2*%
%TO.N,GND*%
X165106000Y-90759000D03*
%TD*%
D21*
%TO.P,C17,1*%
%TO.N,/Press buttons/Button 5*%
X153606000Y-81546500D03*
%TO.P,C17,2*%
%TO.N,Net-(C17-Pad2)*%
X153606000Y-79471500D03*
%TD*%
D20*
%TO.P,R24,1*%
%TO.N,Net-(C11-Pad2)*%
X105456000Y-114959000D03*
%TO.P,R24,2*%
%TO.N,GND*%
X105456000Y-116959000D03*
%TD*%
%TO.P,R32,1*%
%TO.N,Net-(C15-Pad2)*%
X106706000Y-101809000D03*
%TO.P,R32,2*%
%TO.N,GND*%
X106706000Y-103809000D03*
%TD*%
D21*
%TO.P,C11,1*%
%TO.N,/Score display/Button 9*%
X108206000Y-116996500D03*
%TO.P,C11,2*%
%TO.N,Net-(C11-Pad2)*%
X108206000Y-114921500D03*
%TD*%
D19*
%TO.P,R33,1*%
%TO.N,Net-(C16-Pad2)*%
X121506000Y-100659000D03*
%TO.P,R33,2*%
%TO.N,GND*%
X121506000Y-98659000D03*
%TD*%
D16*
%TO.P,C13,1*%
%TO.N,/Press buttons/Button 1*%
X118968500Y-80209000D03*
%TO.P,C13,2*%
%TO.N,Net-(C13-Pad2)*%
X121043500Y-80209000D03*
%TD*%
D18*
%TO.P,C20,1*%
%TO.N,/Press buttons/Button 8*%
X167756000Y-90559000D03*
%TO.P,C20,2*%
%TO.N,Net-(C20-Pad2)*%
X167756000Y-92634000D03*
%TD*%
D21*
%TO.P,C19,1*%
%TO.N,/Press buttons/Button 7*%
X156106000Y-102284000D03*
%TO.P,C19,2*%
%TO.N,Net-(C19-Pad2)*%
X156106000Y-100209000D03*
%TD*%
D20*
%TO.P,R38,1*%
%TO.N,Net-(C17-Pad2)*%
X156106000Y-79509000D03*
%TO.P,R38,2*%
%TO.N,GND*%
X156106000Y-81509000D03*
%TD*%
D18*
%TO.P,C18,1*%
%TO.N,/Press buttons/Button 6*%
X144606000Y-90009000D03*
%TO.P,C18,2*%
%TO.N,Net-(C18-Pad2)*%
X144606000Y-92084000D03*
%TD*%
D16*
%TO.P,C12,1*%
%TO.N,/Score display/Button 10*%
X165918500Y-123709000D03*
%TO.P,C12,2*%
%TO.N,Net-(C12-Pad2)*%
X167993500Y-123709000D03*
%TD*%
D17*
%TO.P,R25,1*%
%TO.N,Net-(C12-Pad2)*%
X167956000Y-121209000D03*
%TO.P,R25,2*%
%TO.N,GND*%
X165956000Y-121209000D03*
%TD*%
D22*
%TO.N,GND*%
X117300000Y-128800000D03*
D23*
X120871000Y-117959000D03*
X115446000Y-123059000D03*
%TO.N,Net-(U4-QB)*%
X119721000Y-128109000D03*
X141921000Y-112109000D03*
%TO.N,Net-(U4-QG)*%
X139956000Y-129459000D03*
X129956000Y-129459000D03*
%TO.N,Net-(U4-QF)*%
X134521000Y-111909000D03*
X120703000Y-122122000D03*
%TO.N,/Press buttons/Button 8*%
X160506000Y-86409000D03*
%TD*%
D24*
%TO.N,*%
X230900000Y23875000D02*
X230900000Y24075000D01*
X230900000Y24075000D02*
X231125000Y24300000D01*
%TO.N,Multiplex 1*%
X139321000Y-119309000D02*
X146121000Y-126109000D01*
X131226000Y-117814000D02*
X132721000Y-119309000D01*
X146121000Y-131624000D02*
X146206000Y-131709000D01*
X146121000Y-126109000D02*
X146121000Y-131624000D01*
X131226000Y-117449000D02*
X131226000Y-117814000D01*
X132721000Y-119309000D02*
X139321000Y-119309000D01*
%TO.N,Multiplex 2*%
X138846000Y-117449000D02*
X148121000Y-126724000D01*
X148121000Y-131624000D02*
X148206000Y-131709000D01*
X148121000Y-126724000D02*
X148121000Y-131624000D01*
%TO.N,Multiplex 3*%
X150206000Y-127594000D02*
X150206000Y-131709000D01*
X141386000Y-117449000D02*
X141386000Y-118774000D01*
X141386000Y-118774000D02*
X150206000Y-127594000D01*
%TO.N,Net-(U4-QB)*%
X130471000Y-115309000D02*
X140121000Y-115309000D01*
X140121000Y-115309000D02*
X141921000Y-113509000D01*
X119721000Y-128109000D02*
X122921000Y-128109000D01*
X128921000Y-116859000D02*
X130471000Y-115309000D01*
X128921000Y-122109000D02*
X128921000Y-116859000D01*
X141921000Y-113509000D02*
X141921000Y-112109000D01*
X122921000Y-128109000D02*
X128921000Y-122109000D01*
D25*
%TO.N,Net-(U4-QG)*%
X139956000Y-129459000D02*
X129956000Y-129459000D01*
%TO.N,Net-(U4-QF)*%
X125721000Y-111909000D02*
X134521000Y-111909000D01*
X122388000Y-115242000D02*
X125721000Y-111909000D01*
X120703000Y-122122000D02*
X122388000Y-120437000D01*
X122388000Y-120437000D02*
X122388000Y-115242000D01*
%TO.N,Net-(C11-Pad2)*%
X105493500Y-114921500D02*
X105456000Y-114959000D01*
X108206000Y-114921500D02*
X105493500Y-114921500D01*
%TO.N,Net-(C12-Pad2)*%
X167993500Y-121246500D02*
X167956000Y-121209000D01*
X167993500Y-123709000D02*
X167993500Y-121246500D01*
%TO.N,Net-(C13-Pad2)*%
X121043500Y-80209000D02*
X121043500Y-82434000D01*
X121043500Y-82434000D02*
X120968500Y-82509000D01*
%TO.N,Net-(C14-Pad2)*%
X109943500Y-90609000D02*
X109943500Y-92971500D01*
X109943500Y-92971500D02*
X109906000Y-93009000D01*
X109906000Y-90646500D02*
X109943500Y-90609000D01*
%TO.N,Net-(C15-Pad2)*%
X106706000Y-99746500D02*
X106706000Y-101809000D01*
%TO.N,Net-(C16-Pad2)*%
X121506000Y-100659000D02*
X123768500Y-100659000D01*
X123768500Y-100659000D02*
X123806000Y-100696500D01*
%TO.N,Net-(C17-Pad2)*%
X156068500Y-79471500D02*
X156106000Y-79509000D01*
X153606000Y-79471500D02*
X156068500Y-79471500D01*
%TO.N,Net-(C18-Pad2)*%
X147256000Y-91996500D02*
X144693500Y-91996500D01*
X144693500Y-91996500D02*
X144606000Y-92084000D01*
%TO.N,/Score display/Button 9*%
X106156000Y-119259000D02*
X104956000Y-119259000D01*
X108206000Y-116996500D02*
X108206000Y-117209000D01*
X108206000Y-117209000D02*
X106156000Y-119259000D01*
%TO.N,/Score display/Button 10*%
X158456000Y-133209000D02*
X165906000Y-125759000D01*
X165906000Y-125759000D02*
X167706000Y-125759000D01*
X167706000Y-125759000D02*
X170456000Y-125759000D01*
X165918500Y-123971500D02*
X167706000Y-125759000D01*
X165918500Y-123709000D02*
X165918500Y-123971500D01*
X111071000Y-132659000D02*
X111621000Y-133209000D01*
X111621000Y-133209000D02*
X158456000Y-133209000D01*
D24*
%TO.N,/Press buttons/Button 1*%
X116906000Y-80209000D02*
X116006000Y-79309000D01*
X118968500Y-80209000D02*
X116906000Y-80209000D01*
D25*
%TO.N,/Press buttons/Button 2*%
X107306000Y-90609000D02*
X107868500Y-90609000D01*
X105006000Y-88309000D02*
X107306000Y-90609000D01*
%TO.N,/Press buttons/Button 3*%
X109506000Y-99309000D02*
X116006000Y-99309000D01*
X106706000Y-97671500D02*
X107868500Y-97671500D01*
X107868500Y-97671500D02*
X109506000Y-99309000D01*
%TO.N,/Press buttons/Button 4*%
X123806000Y-98621500D02*
X123806000Y-96009000D01*
X123806000Y-96009000D02*
X125006000Y-94809000D01*
%TO.N,/Press buttons/Button 6*%
X153206000Y-86509000D02*
X155006000Y-88309000D01*
X147506000Y-86509000D02*
X145506000Y-86509000D01*
X147506000Y-86509000D02*
X153206000Y-86509000D01*
X145506000Y-86509000D02*
X140256000Y-81259000D01*
X144606000Y-90009000D02*
X144606000Y-89409000D01*
X144606000Y-89409000D02*
X147506000Y-86509000D01*
X140256000Y-81259000D02*
X140256000Y-79259000D01*
%TO.N,/Press buttons/Button 7*%
X156531000Y-102284000D02*
X159506000Y-99309000D01*
X156106000Y-102284000D02*
X156531000Y-102284000D01*
%TO.N,Net-(C19-Pad2)*%
X156106000Y-100209000D02*
X153906000Y-100209000D01*
%TO.N,/Press buttons/Button 8*%
X167756000Y-90559000D02*
X172756000Y-90559000D01*
X172756000Y-90559000D02*
X175006000Y-88309000D01*
X160506000Y-86409000D02*
X173106000Y-86409000D01*
X173106000Y-86409000D02*
X175006000Y-88309000D01*
%TO.N,Net-(C20-Pad2)*%
X165216000Y-92634000D02*
X167756000Y-92634000D01*
%TO.N,/Press buttons/Button 5*%
X158306000Y-80509000D02*
X159506000Y-79309000D01*
X153606000Y-81546500D02*
X154643500Y-80509000D01*
X154643500Y-80509000D02*
X158306000Y-80509000D01*
X153543500Y-81546500D02*
X153506000Y-81509000D01*
%TD*%
%TA.AperFunction,Conductor*%
%TO.N,GND*%
G36*
X112586402Y-110009382D02*
G01*
X112587902Y-110009500D01*
X112587908Y-110009500D01*
X134824098Y-110009500D01*
X134825598Y-110009382D01*
X134835321Y-110009000D01*
X140576679Y-110009000D01*
X140586402Y-110009382D01*
X140587902Y-110009500D01*
X140587908Y-110009500D01*
X162830098Y-110009500D01*
X162831598Y-110009382D01*
X162841321Y-110009000D01*
X167576679Y-110009000D01*
X167586402Y-110009382D01*
X167587902Y-110009500D01*
X167587908Y-110009500D01*
X167640108Y-110009500D01*
X177081500Y-110009500D01*
X177148539Y-110029185D01*
X177194294Y-110081989D01*
X177205500Y-110133500D01*
X177205500Y-132505249D01*
X177205274Y-132512736D01*
X177187728Y-132802794D01*
X177185923Y-132817659D01*
X177134219Y-133099798D01*
X177130635Y-133114336D01*
X177045306Y-133388167D01*
X177039997Y-133402168D01*
X176922275Y-133663736D01*
X176915316Y-133676995D01*
X176766928Y-133922459D01*
X176758422Y-133934782D01*
X176581526Y-134160573D01*
X176571596Y-134171781D01*
X176368781Y-134374596D01*
X176357573Y-134384526D01*
X176131782Y-134561422D01*
X176119459Y-134569928D01*
X175873995Y-134718316D01*
X175860736Y-134725275D01*
X175599168Y-134842997D01*
X175585167Y-134848306D01*
X175311336Y-134933635D01*
X175296798Y-134937219D01*
X175014659Y-134988923D01*
X174999794Y-134990728D01*
X174709736Y-135008274D01*
X174702249Y-135008500D01*
X100709751Y-135008500D01*
X100702264Y-135008274D01*
X100412205Y-134990728D01*
X100397340Y-134988923D01*
X100115201Y-134937219D01*
X100100663Y-134933635D01*
X99826832Y-134848306D01*
X99812831Y-134842997D01*
X99551263Y-134725275D01*
X99538004Y-134718316D01*
X99292540Y-134569928D01*
X99280217Y-134561422D01*
X99054426Y-134384526D01*
X99043218Y-134374596D01*
X98840403Y-134171781D01*
X98830473Y-134160573D01*
X98653573Y-133934776D01*
X98645075Y-133922465D01*
X98496680Y-133676989D01*
X98489727Y-133663743D01*
X98372000Y-133402163D01*
X98366693Y-133388167D01*
X98364731Y-133381872D01*
X98281363Y-133114335D01*
X98277780Y-133099798D01*
X98226076Y-132817659D01*
X98224271Y-132802794D01*
X98206726Y-132512736D01*
X98206500Y-132505249D01*
X98206500Y-132087711D01*
X99155500Y-132087711D01*
X99155500Y-132330288D01*
X99187161Y-132570785D01*
X99249947Y-132805104D01*
X99323169Y-132981876D01*
X99342776Y-133029212D01*
X99464064Y-133239289D01*
X99464066Y-133239292D01*
X99464067Y-133239293D01*
X99611733Y-133431736D01*
X99611739Y-133431743D01*
X99783256Y-133603260D01*
X99783263Y-133603266D01*
X99870984Y-133670576D01*
X99975711Y-133750936D01*
X100185788Y-133872224D01*
X100409900Y-133965054D01*
X100644211Y-134027838D01*
X100824586Y-134051584D01*
X100884711Y-134059500D01*
X100884712Y-134059500D01*
X101127289Y-134059500D01*
X101175388Y-134053167D01*
X101367789Y-134027838D01*
X101602100Y-133965054D01*
X101826212Y-133872224D01*
X102036289Y-133750936D01*
X102228738Y-133603265D01*
X102400265Y-133431738D01*
X102547936Y-133239289D01*
X102669224Y-133029212D01*
X102762054Y-132805100D01*
X102824838Y-132570789D01*
X102856500Y-132330288D01*
X102856500Y-132087712D01*
X102836545Y-131936135D01*
X107895500Y-131936135D01*
X107895500Y-133381870D01*
X107895501Y-133381876D01*
X107901908Y-133441483D01*
X107952202Y-133576328D01*
X107952206Y-133576335D01*
X108038452Y-133691544D01*
X108038455Y-133691547D01*
X108153664Y-133777793D01*
X108153671Y-133777797D01*
X108288517Y-133828091D01*
X108288516Y-133828091D01*
X108295444Y-133828835D01*
X108348127Y-133834500D01*
X109793872Y-133834499D01*
X109853483Y-133828091D01*
X109988331Y-133777796D01*
X110103546Y-133691546D01*
X110165785Y-133608404D01*
X110221718Y-133566535D01*
X110291410Y-133561551D01*
X110348588Y-133591078D01*
X110359568Y-133601088D01*
X110359570Y-133601089D01*
X110359571Y-133601090D01*
X110544786Y-133715770D01*
X110544792Y-133715773D01*
X110567664Y-133724633D01*
X110747931Y-133794470D01*
X110962074Y-133834500D01*
X110962076Y-133834500D01*
X111179924Y-133834500D01*
X111179926Y-133834500D01*
X111361906Y-133800482D01*
X111431421Y-133807513D01*
X111432145Y-133807811D01*
X111438542Y-133810461D01*
X111438544Y-133810461D01*
X111438548Y-133810463D01*
X111559383Y-133834498D01*
X111559388Y-133834499D01*
X111559392Y-133834500D01*
X111559393Y-133834500D01*
X158517607Y-133834500D01*
X158578029Y-133822481D01*
X158638452Y-133810463D01*
X158677062Y-133794470D01*
X158752286Y-133763312D01*
X158803509Y-133729084D01*
X158854733Y-133694858D01*
X158941858Y-133607733D01*
X158941859Y-133607731D01*
X158948925Y-133600665D01*
X158948927Y-133600661D01*
X161013454Y-131536135D01*
X162030500Y-131536135D01*
X162030500Y-132981870D01*
X162030501Y-132981876D01*
X162036908Y-133041483D01*
X162087202Y-133176328D01*
X162087206Y-133176335D01*
X162173452Y-133291544D01*
X162173455Y-133291547D01*
X162288664Y-133377793D01*
X162288671Y-133377797D01*
X162423517Y-133428091D01*
X162423516Y-133428091D01*
X162430444Y-133428835D01*
X162483127Y-133434500D01*
X163928872Y-133434499D01*
X163988483Y-133428091D01*
X164123331Y-133377796D01*
X164238546Y-133291546D01*
X164277666Y-133239289D01*
X164301087Y-133208003D01*
X164357020Y-133166132D01*
X164426712Y-133161148D01*
X164483891Y-133190677D01*
X164494869Y-133200685D01*
X164494874Y-133200689D01*
X164680012Y-133315322D01*
X164680023Y-133315327D01*
X164883060Y-133393984D01*
X164956000Y-133407619D01*
X164956000Y-132574686D01*
X164960394Y-132579080D01*
X165051606Y-132631741D01*
X165153339Y-132659000D01*
X165258661Y-132659000D01*
X165360394Y-132631741D01*
X165451606Y-132579080D01*
X165456000Y-132574686D01*
X165456000Y-133407619D01*
X165528939Y-133393984D01*
X165731976Y-133315327D01*
X165731987Y-133315322D01*
X165917130Y-133200685D01*
X165917131Y-133200685D01*
X166078054Y-133053985D01*
X166209284Y-132880208D01*
X166306348Y-132685280D01*
X166356505Y-132509000D01*
X165521686Y-132509000D01*
X165526080Y-132504606D01*
X165578741Y-132413394D01*
X165606000Y-132311661D01*
X165606000Y-132206339D01*
X165578741Y-132104606D01*
X165568987Y-132087711D01*
X172555500Y-132087711D01*
X172555500Y-132330288D01*
X172587161Y-132570785D01*
X172649947Y-132805104D01*
X172723169Y-132981876D01*
X172742776Y-133029212D01*
X172864064Y-133239289D01*
X172864066Y-133239292D01*
X172864067Y-133239293D01*
X173011733Y-133431736D01*
X173011739Y-133431743D01*
X173183256Y-133603260D01*
X173183263Y-133603266D01*
X173270984Y-133670576D01*
X173375711Y-133750936D01*
X173585788Y-133872224D01*
X173809900Y-133965054D01*
X174044211Y-134027838D01*
X174224586Y-134051584D01*
X174284711Y-134059500D01*
X174284712Y-134059500D01*
X174527289Y-134059500D01*
X174575388Y-134053167D01*
X174767789Y-134027838D01*
X175002100Y-133965054D01*
X175226212Y-133872224D01*
X175436289Y-133750936D01*
X175628738Y-133603265D01*
X175800265Y-133431738D01*
X175947936Y-133239289D01*
X176069224Y-133029212D01*
X176162054Y-132805100D01*
X176224838Y-132570789D01*
X176256500Y-132330288D01*
X176256500Y-132087712D01*
X176224838Y-131847211D01*
X176162054Y-131612900D01*
X176069224Y-131388788D01*
X175947936Y-131178711D01*
X175800265Y-130986262D01*
X175800260Y-130986256D01*
X175628743Y-130814739D01*
X175628736Y-130814733D01*
X175436293Y-130667067D01*
X175436292Y-130667066D01*
X175436289Y-130667064D01*
X175226212Y-130545776D01*
X175212048Y-130539909D01*
X175002104Y-130452947D01*
X174767785Y-130390161D01*
X174527289Y-130358500D01*
X174527288Y-130358500D01*
X174284712Y-130358500D01*
X174284711Y-130358500D01*
X174044214Y-130390161D01*
X173809895Y-130452947D01*
X173585794Y-130545773D01*
X173585785Y-130545777D01*
X173375706Y-130667067D01*
X173183263Y-130814733D01*
X173183256Y-130814739D01*
X173011739Y-130986256D01*
X173011733Y-130986263D01*
X172864067Y-131178706D01*
X172742777Y-131388785D01*
X172742773Y-131388794D01*
X172649947Y-131612895D01*
X172587161Y-131847214D01*
X172555500Y-132087711D01*
X165568987Y-132087711D01*
X165526080Y-132013394D01*
X165521686Y-132009000D01*
X166356505Y-132009000D01*
X166356505Y-132008999D01*
X166306348Y-131832719D01*
X166209284Y-131637791D01*
X166078054Y-131464014D01*
X165917131Y-131317314D01*
X165731987Y-131202677D01*
X165731985Y-131202676D01*
X165528931Y-131124013D01*
X165528921Y-131124010D01*
X165456001Y-131110378D01*
X165456000Y-131110379D01*
X165456000Y-131943314D01*
X165451606Y-131938920D01*
X165360394Y-131886259D01*
X165258661Y-131859000D01*
X165153339Y-131859000D01*
X165051606Y-131886259D01*
X164960394Y-131938920D01*
X164956000Y-131943314D01*
X164956000Y-131110379D01*
X164955998Y-131110378D01*
X164883078Y-131124010D01*
X164883068Y-131124013D01*
X164680014Y-131202676D01*
X164680012Y-131202677D01*
X164494869Y-131317314D01*
X164494868Y-131317314D01*
X164483887Y-131327325D01*
X164421082Y-131357940D01*
X164351695Y-131349740D01*
X164301086Y-131309997D01*
X164238546Y-131226454D01*
X164174770Y-131178711D01*
X164123335Y-131140206D01*
X164123328Y-131140202D01*
X163988482Y-131089908D01*
X163988483Y-131089908D01*
X163928883Y-131083501D01*
X163928881Y-131083500D01*
X163928873Y-131083500D01*
X163928864Y-131083500D01*
X162483129Y-131083500D01*
X162483123Y-131083501D01*
X162423516Y-131089908D01*
X162288671Y-131140202D01*
X162288664Y-131140206D01*
X162173455Y-131226452D01*
X162173452Y-131226455D01*
X162087206Y-131341664D01*
X162087202Y-131341671D01*
X162036908Y-131476517D01*
X162030501Y-131536116D01*
X162030500Y-131536135D01*
X161013454Y-131536135D01*
X166128771Y-126420819D01*
X166190094Y-126387334D01*
X166216452Y-126384500D01*
X167644394Y-126384500D01*
X167767607Y-126384500D01*
X169257072Y-126384500D01*
X169324111Y-126404185D01*
X169358643Y-126437372D01*
X169465566Y-126590073D01*
X169624927Y-126749434D01*
X169809540Y-126878702D01*
X169904877Y-126923158D01*
X170013788Y-126973944D01*
X170013790Y-126973944D01*
X170013795Y-126973947D01*
X170231487Y-127032278D01*
X170391853Y-127046308D01*
X170455998Y-127051920D01*
X170456000Y-127051920D01*
X170456002Y-127051920D01*
X170517963Y-127046499D01*
X170680513Y-127032278D01*
X170898205Y-126973947D01*
X171102460Y-126878702D01*
X171287073Y-126749434D01*
X171446434Y-126590073D01*
X171575702Y-126405460D01*
X171670947Y-126201205D01*
X171729278Y-125983513D01*
X171748920Y-125759000D01*
X171729278Y-125534487D01*
X171670947Y-125316795D01*
X171650591Y-125273142D01*
X171618671Y-125204688D01*
X171575702Y-125112540D01*
X171446434Y-124927927D01*
X171442162Y-124923655D01*
X173668500Y-124923655D01*
X173668500Y-125509000D01*
X174494120Y-125509000D01*
X174466778Y-125556358D01*
X174431000Y-125689882D01*
X174431000Y-125828118D01*
X174466778Y-125961642D01*
X174494120Y-126009000D01*
X173668500Y-126009000D01*
X173668500Y-126594344D01*
X173674901Y-126653872D01*
X173674903Y-126653879D01*
X173725145Y-126788586D01*
X173725149Y-126788593D01*
X173811309Y-126903687D01*
X173811312Y-126903690D01*
X173926406Y-126989850D01*
X173926413Y-126989854D01*
X174061120Y-127040096D01*
X174061127Y-127040098D01*
X174120655Y-127046499D01*
X174120672Y-127046500D01*
X174706000Y-127046500D01*
X174706000Y-126220879D01*
X174753358Y-126248222D01*
X174886882Y-126284000D01*
X175025118Y-126284000D01*
X175158642Y-126248222D01*
X175206000Y-126220879D01*
X175206000Y-127046500D01*
X175791328Y-127046500D01*
X175791344Y-127046499D01*
X175850872Y-127040098D01*
X175850879Y-127040096D01*
X175985586Y-126989854D01*
X175985593Y-126989850D01*
X176100687Y-126903690D01*
X176100690Y-126903687D01*
X176186850Y-126788593D01*
X176186854Y-126788586D01*
X176237096Y-126653879D01*
X176237098Y-126653872D01*
X176243499Y-126594344D01*
X176243500Y-126594327D01*
X176243500Y-126009000D01*
X175417880Y-126009000D01*
X175445222Y-125961642D01*
X175481000Y-125828118D01*
X175481000Y-125689882D01*
X175445222Y-125556358D01*
X175417880Y-125509000D01*
X176243500Y-125509000D01*
X176243500Y-124923672D01*
X176243499Y-124923655D01*
X176237098Y-124864127D01*
X176237096Y-124864120D01*
X176186854Y-124729413D01*
X176186850Y-124729406D01*
X176100690Y-124614312D01*
X176100687Y-124614309D01*
X175985593Y-124528149D01*
X175985586Y-124528145D01*
X175850879Y-124477903D01*
X175850872Y-124477901D01*
X175791344Y-124471500D01*
X175206000Y-124471500D01*
X175206000Y-125297120D01*
X175158642Y-125269778D01*
X175025118Y-125234000D01*
X174886882Y-125234000D01*
X174753358Y-125269778D01*
X174706000Y-125297120D01*
X174706000Y-124471500D01*
X174120655Y-124471500D01*
X174061127Y-124477901D01*
X174061120Y-124477903D01*
X173926413Y-124528145D01*
X173926406Y-124528149D01*
X173811312Y-124614309D01*
X173811309Y-124614312D01*
X173725149Y-124729406D01*
X173725145Y-124729413D01*
X173674903Y-124864120D01*
X173674901Y-124864127D01*
X173668500Y-124923655D01*
X171442162Y-124923655D01*
X171287073Y-124768566D01*
X171103084Y-124639735D01*
X171102466Y-124639302D01*
X171102463Y-124639300D01*
X171102460Y-124639298D01*
X171102456Y-124639296D01*
X170898211Y-124544055D01*
X170898200Y-124544051D01*
X170680514Y-124485722D01*
X170680507Y-124485721D01*
X170456002Y-124466080D01*
X170455998Y-124466080D01*
X170231492Y-124485721D01*
X170231485Y-124485722D01*
X170013799Y-124544051D01*
X170013788Y-124544055D01*
X169809543Y-124639296D01*
X169809533Y-124639302D01*
X169624926Y-124768566D01*
X169465570Y-124927922D01*
X169465567Y-124927925D01*
X169465566Y-124927927D01*
X169358644Y-125080625D01*
X169304070Y-125124249D01*
X169257072Y-125133500D01*
X168619989Y-125133500D01*
X168552950Y-125113815D01*
X168507195Y-125061011D01*
X168497251Y-124991853D01*
X168526276Y-124928297D01*
X168580982Y-124891794D01*
X168650334Y-124868814D01*
X168799656Y-124776712D01*
X168923712Y-124652656D01*
X169015814Y-124503334D01*
X169070999Y-124336797D01*
X169081500Y-124234009D01*
X169081499Y-123183992D01*
X169070999Y-123081203D01*
X169015814Y-122914666D01*
X168923712Y-122765344D01*
X168799656Y-122641288D01*
X168677902Y-122566190D01*
X168631179Y-122514243D01*
X168619000Y-122460652D01*
X168619000Y-122416927D01*
X168638685Y-122349888D01*
X168677901Y-122311390D01*
X168774656Y-122251712D01*
X168898712Y-122127656D01*
X168990814Y-121978334D01*
X169045999Y-121811797D01*
X169056500Y-121709009D01*
X169056499Y-120708992D01*
X169045999Y-120606203D01*
X168990814Y-120439666D01*
X168898712Y-120290344D01*
X168774656Y-120166288D01*
X168625334Y-120074186D01*
X168458797Y-120019001D01*
X168458795Y-120019000D01*
X168356010Y-120008500D01*
X167555998Y-120008500D01*
X167555980Y-120008501D01*
X167453203Y-120019000D01*
X167453200Y-120019001D01*
X167286668Y-120074185D01*
X167286663Y-120074187D01*
X167137345Y-120166287D01*
X167043327Y-120260305D01*
X166982003Y-120293789D01*
X166912312Y-120288805D01*
X166867965Y-120260304D01*
X166774345Y-120166684D01*
X166625124Y-120074643D01*
X166625119Y-120074641D01*
X166458697Y-120019494D01*
X166458690Y-120019493D01*
X166355986Y-120009000D01*
X166206000Y-120009000D01*
X166206000Y-121335000D01*
X166186315Y-121402039D01*
X166133511Y-121447794D01*
X166082000Y-121459000D01*
X164856001Y-121459000D01*
X164856001Y-121708986D01*
X164866494Y-121811697D01*
X164921641Y-121978119D01*
X164921643Y-121978124D01*
X165013684Y-122127345D01*
X165137654Y-122251315D01*
X165270323Y-122333146D01*
X165317047Y-122385094D01*
X165328270Y-122454057D01*
X165300426Y-122518139D01*
X165266910Y-122543931D01*
X165267813Y-122545395D01*
X165261667Y-122549185D01*
X165261666Y-122549186D01*
X165163419Y-122609784D01*
X165112342Y-122641289D01*
X164988289Y-122765342D01*
X164896187Y-122914663D01*
X164896186Y-122914666D01*
X164841001Y-123081203D01*
X164841001Y-123081204D01*
X164841000Y-123081204D01*
X164830500Y-123183983D01*
X164830500Y-124234001D01*
X164830501Y-124234019D01*
X164841000Y-124336796D01*
X164841001Y-124336799D01*
X164896185Y-124503331D01*
X164896187Y-124503336D01*
X164921303Y-124544055D01*
X164988288Y-124652656D01*
X165112344Y-124776712D01*
X165261666Y-124868814D01*
X165428203Y-124923999D01*
X165530991Y-124934500D01*
X165638618Y-124934499D01*
X165705656Y-124954183D01*
X165751411Y-125006987D01*
X165761355Y-125076145D01*
X165732331Y-125139701D01*
X165686070Y-125173060D01*
X165609715Y-125204687D01*
X165609709Y-125204690D01*
X165571126Y-125230472D01*
X165571125Y-125230473D01*
X165507268Y-125273140D01*
X165463705Y-125316703D01*
X165420142Y-125360267D01*
X165420139Y-125360270D01*
X161810266Y-128970144D01*
X158233229Y-132547181D01*
X158171906Y-132580666D01*
X158145548Y-132583500D01*
X153267660Y-132583500D01*
X153200621Y-132563815D01*
X153154866Y-132511011D01*
X153144922Y-132441853D01*
X153168706Y-132384773D01*
X153171698Y-132380810D01*
X153209712Y-132330472D01*
X153306817Y-132135459D01*
X153366435Y-131925923D01*
X153386536Y-131709000D01*
X153366435Y-131492077D01*
X153306817Y-131282541D01*
X153209712Y-131087528D01*
X153078427Y-130913678D01*
X153051016Y-130888690D01*
X152944584Y-130791664D01*
X152917432Y-130766912D01*
X152917428Y-130766909D01*
X152917423Y-130766906D01*
X152732213Y-130652229D01*
X152732207Y-130652226D01*
X152647113Y-130619260D01*
X152529069Y-130573530D01*
X152314926Y-130533500D01*
X152097074Y-130533500D01*
X151882931Y-130573530D01*
X151839896Y-130590202D01*
X151679792Y-130652226D01*
X151679786Y-130652229D01*
X151494576Y-130766906D01*
X151494566Y-130766913D01*
X151333573Y-130913676D01*
X151304953Y-130951576D01*
X151248844Y-130993211D01*
X151179132Y-130997902D01*
X151117950Y-130964159D01*
X151107047Y-130951576D01*
X151078426Y-130913676D01*
X150929524Y-130777935D01*
X150917432Y-130766912D01*
X150865222Y-130734585D01*
X150818587Y-130682557D01*
X150806500Y-130629158D01*
X150806500Y-127683060D01*
X150806501Y-127683047D01*
X150806501Y-127514944D01*
X150806501Y-127514943D01*
X150765577Y-127362216D01*
X150744005Y-127324851D01*
X150686524Y-127225290D01*
X150686518Y-127225282D01*
X146483736Y-123022500D01*
X144170248Y-120709013D01*
X164856000Y-120709013D01*
X164856000Y-120959000D01*
X165706000Y-120959000D01*
X165706000Y-120009000D01*
X165556027Y-120009000D01*
X165556012Y-120009001D01*
X165453302Y-120019494D01*
X165286880Y-120074641D01*
X165286875Y-120074643D01*
X165137654Y-120166684D01*
X165013684Y-120290654D01*
X164921643Y-120439875D01*
X164921641Y-120439880D01*
X164866494Y-120606302D01*
X164866493Y-120606309D01*
X164856000Y-120709013D01*
X144170248Y-120709013D01*
X142720232Y-119258997D01*
X169163080Y-119258997D01*
X169163080Y-119259002D01*
X169182721Y-119483507D01*
X169182722Y-119483514D01*
X169241051Y-119701200D01*
X169241055Y-119701211D01*
X169336296Y-119905456D01*
X169336302Y-119905466D01*
X169415800Y-120019000D01*
X169465566Y-120090073D01*
X169624927Y-120249434D01*
X169809540Y-120378702D01*
X169932424Y-120436003D01*
X170013788Y-120473944D01*
X170013790Y-120473944D01*
X170013795Y-120473947D01*
X170231487Y-120532278D01*
X170391853Y-120546308D01*
X170455998Y-120551920D01*
X170456000Y-120551920D01*
X170456002Y-120551920D01*
X170517963Y-120546499D01*
X170680513Y-120532278D01*
X170898205Y-120473947D01*
X171102460Y-120378702D01*
X171287073Y-120249434D01*
X171446434Y-120090073D01*
X171575702Y-119905460D01*
X171670947Y-119701205D01*
X171729278Y-119483513D01*
X171748920Y-119259000D01*
X171748920Y-119258999D01*
X173663582Y-119258999D01*
X173663582Y-119259000D01*
X173683216Y-119483421D01*
X173683218Y-119483431D01*
X173741521Y-119701025D01*
X173741525Y-119701034D01*
X173836732Y-119905207D01*
X173836733Y-119905209D01*
X173885949Y-119975497D01*
X174452624Y-119408822D01*
X174466778Y-119461642D01*
X174535896Y-119581357D01*
X174633643Y-119679104D01*
X174753358Y-119748222D01*
X174806177Y-119762375D01*
X174239501Y-120329049D01*
X174309791Y-120378267D01*
X174513965Y-120473474D01*
X174513974Y-120473478D01*
X174731568Y-120531781D01*
X174731578Y-120531783D01*
X174955999Y-120551418D01*
X174956001Y-120551418D01*
X175180421Y-120531783D01*
X175180431Y-120531781D01*
X175398025Y-120473478D01*
X175398034Y-120473474D01*
X175602208Y-120378267D01*
X175602212Y-120378265D01*
X175672497Y-120329050D01*
X175105822Y-119762375D01*
X175158642Y-119748222D01*
X175278357Y-119679104D01*
X175376104Y-119581357D01*
X175445222Y-119461642D01*
X175459375Y-119408822D01*
X176026050Y-119975497D01*
X176075265Y-119905212D01*
X176075267Y-119905208D01*
X176170474Y-119701034D01*
X176170478Y-119701025D01*
X176228781Y-119483431D01*
X176228783Y-119483421D01*
X176248418Y-119259000D01*
X176248418Y-119258999D01*
X176228783Y-119034578D01*
X176228781Y-119034568D01*
X176170478Y-118816974D01*
X176170474Y-118816965D01*
X176075267Y-118612791D01*
X176026049Y-118542501D01*
X175459374Y-119109176D01*
X175445222Y-119056358D01*
X175376104Y-118936643D01*
X175278357Y-118838896D01*
X175158642Y-118769778D01*
X175105822Y-118755624D01*
X175672497Y-118188949D01*
X175672497Y-118188948D01*
X175602209Y-118139733D01*
X175602207Y-118139732D01*
X175398034Y-118044525D01*
X175398025Y-118044521D01*
X175180431Y-117986218D01*
X175180421Y-117986216D01*
X174956001Y-117966582D01*
X174955999Y-117966582D01*
X174731578Y-117986216D01*
X174731568Y-117986218D01*
X174513974Y-118044521D01*
X174513965Y-118044525D01*
X174309787Y-118139735D01*
X174239502Y-118188948D01*
X174239501Y-118188949D01*
X174806177Y-118755624D01*
X174753358Y-118769778D01*
X174633643Y-118838896D01*
X174535896Y-118936643D01*
X174466778Y-119056358D01*
X174452625Y-119109177D01*
X173885949Y-118542501D01*
X173885948Y-118542502D01*
X173836735Y-118612787D01*
X173741525Y-118816965D01*
X173741521Y-118816974D01*
X173683218Y-119034568D01*
X173683216Y-119034578D01*
X173663582Y-119258999D01*
X171748920Y-119258999D01*
X171729278Y-119034487D01*
X171670947Y-118816795D01*
X171575702Y-118612540D01*
X171446434Y-118427927D01*
X171287073Y-118268566D01*
X171202516Y-118209358D01*
X171102466Y-118139302D01*
X171102463Y-118139300D01*
X171102460Y-118139298D01*
X171075731Y-118126834D01*
X170898211Y-118044055D01*
X170898200Y-118044051D01*
X170680514Y-117985722D01*
X170680507Y-117985721D01*
X170456002Y-117966080D01*
X170455998Y-117966080D01*
X170231492Y-117985721D01*
X170231485Y-117985722D01*
X170013799Y-118044051D01*
X170013788Y-118044055D01*
X169809543Y-118139296D01*
X169809533Y-118139302D01*
X169624926Y-118268566D01*
X169465566Y-118427926D01*
X169336302Y-118612533D01*
X169336296Y-118612543D01*
X169241055Y-118816788D01*
X169241051Y-118816799D01*
X169182722Y-119034485D01*
X169182721Y-119034492D01*
X169163080Y-119258997D01*
X142720232Y-119258997D01*
X142215351Y-118754116D01*
X142181867Y-118692794D01*
X142186851Y-118623102D01*
X142228723Y-118567169D01*
X142231880Y-118564882D01*
X142342401Y-118487495D01*
X142509495Y-118320401D01*
X142639425Y-118134842D01*
X142694002Y-118091217D01*
X142763500Y-118084023D01*
X142825855Y-118115546D01*
X142842575Y-118134842D01*
X142972500Y-118320395D01*
X142972505Y-118320401D01*
X143139599Y-118487495D01*
X143218156Y-118542501D01*
X143333165Y-118623032D01*
X143333167Y-118623033D01*
X143333170Y-118623035D01*
X143547337Y-118722903D01*
X143775592Y-118784063D01*
X143959109Y-118800119D01*
X144010999Y-118804659D01*
X144011000Y-118804659D01*
X144011001Y-118804659D01*
X144062891Y-118800119D01*
X144246408Y-118784063D01*
X144474663Y-118722903D01*
X144688830Y-118623035D01*
X144882401Y-118487495D01*
X145049495Y-118320401D01*
X145185035Y-118126830D01*
X145284903Y-117912663D01*
X145346063Y-117684408D01*
X145366659Y-117449000D01*
X145346063Y-117213592D01*
X145284903Y-116985337D01*
X145185035Y-116771171D01*
X145179425Y-116763158D01*
X145049494Y-116577597D01*
X144882402Y-116410506D01*
X144882395Y-116410501D01*
X144688834Y-116274967D01*
X144688830Y-116274965D01*
X144688828Y-116274964D01*
X144474663Y-116175097D01*
X144474659Y-116175096D01*
X144474655Y-116175094D01*
X144246413Y-116113938D01*
X144246403Y-116113936D01*
X144011001Y-116093341D01*
X144010999Y-116093341D01*
X143775596Y-116113936D01*
X143775586Y-116113938D01*
X143547344Y-116175094D01*
X143547335Y-116175098D01*
X143333171Y-116274964D01*
X143333169Y-116274965D01*
X143139597Y-116410505D01*
X142972505Y-116577597D01*
X142842575Y-116763158D01*
X142787998Y-116806783D01*
X142718500Y-116813977D01*
X142656145Y-116782454D01*
X142639425Y-116763158D01*
X142509494Y-116577597D01*
X142342402Y-116410506D01*
X142342395Y-116410501D01*
X142148834Y-116274967D01*
X142148830Y-116274965D01*
X142148828Y-116274964D01*
X141934663Y-116175097D01*
X141934659Y-116175096D01*
X141934655Y-116175094D01*
X141706413Y-116113938D01*
X141706403Y-116113936D01*
X141471001Y-116093341D01*
X141470999Y-116093341D01*
X141235596Y-116113936D01*
X141235586Y-116113938D01*
X141007344Y-116175094D01*
X141007335Y-116175098D01*
X140793171Y-116274964D01*
X140793169Y-116274965D01*
X140599597Y-116410505D01*
X140432505Y-116577597D01*
X140302575Y-116763158D01*
X140247998Y-116806783D01*
X140178500Y-116813977D01*
X140116145Y-116782454D01*
X140099425Y-116763158D01*
X139969494Y-116577597D01*
X139802402Y-116410506D01*
X139802395Y-116410501D01*
X139608834Y-116274967D01*
X139608830Y-116274965D01*
X139608828Y-116274964D01*
X139394663Y-116175097D01*
X139394659Y-116175096D01*
X139394655Y-116175094D01*
X139313222Y-116153275D01*
X139253561Y-116116910D01*
X139223032Y-116054063D01*
X139231326Y-115984688D01*
X139275812Y-115930810D01*
X139342364Y-115909535D01*
X139345315Y-115909500D01*
X140034331Y-115909500D01*
X140034347Y-115909501D01*
X140041943Y-115909501D01*
X140200054Y-115909501D01*
X140200057Y-115909501D01*
X140352785Y-115868577D01*
X140402904Y-115839639D01*
X140489716Y-115789520D01*
X140601520Y-115677716D01*
X140601520Y-115677714D01*
X140611728Y-115667507D01*
X140611730Y-115667504D01*
X142279506Y-113999728D01*
X142279511Y-113999724D01*
X142289714Y-113989520D01*
X142289716Y-113989520D01*
X142401520Y-113877716D01*
X142480577Y-113740784D01*
X142521500Y-113588057D01*
X142521500Y-112835452D01*
X142541185Y-112768413D01*
X142553350Y-112752480D01*
X142611669Y-112687711D01*
X172555500Y-112687711D01*
X172555500Y-112930288D01*
X172587161Y-113170785D01*
X172649947Y-113405104D01*
X172725729Y-113588057D01*
X172742776Y-113629212D01*
X172864064Y-113839289D01*
X172864066Y-113839292D01*
X172864067Y-113839293D01*
X173011733Y-114031736D01*
X173011739Y-114031743D01*
X173183256Y-114203260D01*
X173183263Y-114203266D01*
X173263284Y-114264668D01*
X173375711Y-114350936D01*
X173585788Y-114472224D01*
X173809900Y-114565054D01*
X174044211Y-114627838D01*
X174224586Y-114651584D01*
X174284711Y-114659500D01*
X174284712Y-114659500D01*
X174527289Y-114659500D01*
X174575388Y-114653167D01*
X174767789Y-114627838D01*
X175002100Y-114565054D01*
X175226212Y-114472224D01*
X175436289Y-114350936D01*
X175628738Y-114203265D01*
X175800265Y-114031738D01*
X175947936Y-113839289D01*
X176069224Y-113629212D01*
X176162054Y-113405100D01*
X176224838Y-113170789D01*
X176256500Y-112930288D01*
X176256500Y-112687712D01*
X176224838Y-112447211D01*
X176162054Y-112212900D01*
X176069224Y-111988788D01*
X175947936Y-111778711D01*
X175800265Y-111586262D01*
X175800260Y-111586256D01*
X175628743Y-111414739D01*
X175628736Y-111414733D01*
X175436293Y-111267067D01*
X175436292Y-111267066D01*
X175436289Y-111267064D01*
X175226212Y-111145776D01*
X175226205Y-111145773D01*
X175002104Y-111052947D01*
X174767785Y-110990161D01*
X174527289Y-110958500D01*
X174527288Y-110958500D01*
X174284712Y-110958500D01*
X174284711Y-110958500D01*
X174044214Y-110990161D01*
X173809895Y-111052947D01*
X173585794Y-111145773D01*
X173585785Y-111145777D01*
X173375706Y-111267067D01*
X173183263Y-111414733D01*
X173183256Y-111414739D01*
X173011739Y-111586256D01*
X173011733Y-111586263D01*
X172864067Y-111778706D01*
X172742777Y-111988785D01*
X172742773Y-111988794D01*
X172649947Y-112212895D01*
X172587161Y-112447214D01*
X172555500Y-112687711D01*
X142611669Y-112687711D01*
X142653533Y-112641216D01*
X142748179Y-112477284D01*
X142806674Y-112297256D01*
X142826460Y-112109000D01*
X142806674Y-111920744D01*
X142748179Y-111740716D01*
X142653533Y-111576784D01*
X142526871Y-111436112D01*
X142526870Y-111436111D01*
X142373734Y-111324851D01*
X142373729Y-111324848D01*
X142200807Y-111247857D01*
X142200802Y-111247855D01*
X142055001Y-111216865D01*
X142015646Y-111208500D01*
X141826354Y-111208500D01*
X141793897Y-111215398D01*
X141641197Y-111247855D01*
X141641192Y-111247857D01*
X141468270Y-111324848D01*
X141468265Y-111324851D01*
X141315129Y-111436111D01*
X141188466Y-111576785D01*
X141093821Y-111740715D01*
X141093818Y-111740722D01*
X141039142Y-111909000D01*
X141035326Y-111920744D01*
X141015540Y-112109000D01*
X141035326Y-112297256D01*
X141035327Y-112297259D01*
X141093818Y-112477277D01*
X141093821Y-112477284D01*
X141188467Y-112641216D01*
X141235227Y-112693148D01*
X141288650Y-112752480D01*
X141318880Y-112815471D01*
X141320500Y-112835452D01*
X141320500Y-113208903D01*
X141300815Y-113275942D01*
X141284181Y-113296584D01*
X139908584Y-114672181D01*
X139847261Y-114705666D01*
X139820903Y-114708500D01*
X130557669Y-114708500D01*
X130557653Y-114708499D01*
X130550057Y-114708499D01*
X130391943Y-114708499D01*
X130277397Y-114739192D01*
X130239214Y-114749423D01*
X130192232Y-114776549D01*
X130192231Y-114776549D01*
X130102287Y-114828477D01*
X130102282Y-114828481D01*
X128440481Y-116490282D01*
X128440475Y-116490290D01*
X128398863Y-116562366D01*
X128398863Y-116562368D01*
X128361423Y-116627214D01*
X128361423Y-116627215D01*
X128320499Y-116779943D01*
X128320499Y-116779945D01*
X128320499Y-116948046D01*
X128320500Y-116948059D01*
X128320500Y-121808903D01*
X128300815Y-121875942D01*
X128284181Y-121896584D01*
X122708584Y-127472181D01*
X122647261Y-127505666D01*
X122620903Y-127508500D01*
X120447258Y-127508500D01*
X120380219Y-127488815D01*
X120355109Y-127467473D01*
X120326871Y-127436112D01*
X120326864Y-127436106D01*
X120173734Y-127324851D01*
X120173729Y-127324848D01*
X120000807Y-127247857D01*
X120000802Y-127247855D01*
X119850583Y-127215926D01*
X119815646Y-127208500D01*
X119626354Y-127208500D01*
X119593897Y-127215398D01*
X119441197Y-127247855D01*
X119441192Y-127247857D01*
X119268270Y-127324848D01*
X119268265Y-127324851D01*
X119115129Y-127436111D01*
X118988466Y-127576785D01*
X118893821Y-127740715D01*
X118893818Y-127740722D01*
X118860129Y-127844408D01*
X118835326Y-127920744D01*
X118815540Y-128109000D01*
X118835326Y-128297256D01*
X118835327Y-128297259D01*
X118893818Y-128477277D01*
X118893821Y-128477284D01*
X118988467Y-128641216D01*
X119088969Y-128752834D01*
X119115129Y-128781888D01*
X119268265Y-128893148D01*
X119268270Y-128893151D01*
X119441192Y-128970142D01*
X119441197Y-128970144D01*
X119626354Y-129009500D01*
X119626355Y-129009500D01*
X119815644Y-129009500D01*
X119815646Y-129009500D01*
X120000803Y-128970144D01*
X120173730Y-128893151D01*
X120326871Y-128781888D01*
X120355109Y-128750527D01*
X120414595Y-128713879D01*
X120447258Y-128709500D01*
X122834331Y-128709500D01*
X122834347Y-128709501D01*
X122841943Y-128709501D01*
X123000054Y-128709501D01*
X123000057Y-128709501D01*
X123152785Y-128668577D01*
X123202904Y-128639639D01*
X123289716Y-128589520D01*
X123401520Y-128477716D01*
X123401520Y-128477714D01*
X123411728Y-128467507D01*
X123411730Y-128467504D01*
X129279506Y-122599728D01*
X129279511Y-122599724D01*
X129289714Y-122589520D01*
X129289716Y-122589520D01*
X129401520Y-122477716D01*
X129480577Y-122340784D01*
X129521500Y-122188057D01*
X129521500Y-117159097D01*
X129541185Y-117092058D01*
X129557819Y-117071416D01*
X129691178Y-116938057D01*
X129883388Y-116745846D01*
X129944709Y-116712363D01*
X130014400Y-116717347D01*
X130070334Y-116759218D01*
X130094751Y-116824683D01*
X130083449Y-116885933D01*
X130037099Y-116985330D01*
X130037094Y-116985344D01*
X129975938Y-117213586D01*
X129975936Y-117213596D01*
X129955341Y-117448999D01*
X129955341Y-117449000D01*
X129975936Y-117684403D01*
X129975938Y-117684413D01*
X130037094Y-117912655D01*
X130037096Y-117912659D01*
X130037097Y-117912663D01*
X130116868Y-118083732D01*
X130136965Y-118126830D01*
X130136967Y-118126834D01*
X130208794Y-118229413D01*
X130272505Y-118320401D01*
X130439599Y-118487495D01*
X130518156Y-118542501D01*
X130633165Y-118623032D01*
X130633167Y-118623033D01*
X130633170Y-118623035D01*
X130847337Y-118722903D01*
X131075592Y-118784063D01*
X131259109Y-118800119D01*
X131310999Y-118804659D01*
X131316062Y-118804659D01*
X131383101Y-118824344D01*
X131403743Y-118840978D01*
X132236139Y-119673374D01*
X132236149Y-119673385D01*
X132240479Y-119677715D01*
X132240480Y-119677716D01*
X132352284Y-119789520D01*
X132431989Y-119835537D01*
X132489215Y-119868577D01*
X132641942Y-119909500D01*
X132641943Y-119909500D01*
X139020903Y-119909500D01*
X139087942Y-119929185D01*
X139108584Y-119945819D01*
X145484181Y-126321416D01*
X145517666Y-126382739D01*
X145520500Y-126409097D01*
X145520500Y-127103132D01*
X145500815Y-127170171D01*
X145448011Y-127215926D01*
X145378853Y-127225870D01*
X145315297Y-127196845D01*
X145282964Y-127149883D01*
X145282191Y-127150244D01*
X145280047Y-127145646D01*
X145279982Y-127145552D01*
X145279906Y-127145345D01*
X145279903Y-127145340D01*
X145279903Y-127145337D01*
X145180035Y-126931171D01*
X145174425Y-126923158D01*
X145044494Y-126737597D01*
X144877402Y-126570506D01*
X144877395Y-126570501D01*
X144683834Y-126434967D01*
X144683830Y-126434965D01*
X144620569Y-126405466D01*
X144469663Y-126335097D01*
X144469659Y-126335096D01*
X144469655Y-126335094D01*
X144241413Y-126273938D01*
X144241403Y-126273936D01*
X144006001Y-126253341D01*
X144005999Y-126253341D01*
X143770596Y-126273936D01*
X143770586Y-126273938D01*
X143542344Y-126335094D01*
X143542335Y-126335098D01*
X143328171Y-126434964D01*
X143328169Y-126434965D01*
X143134597Y-126570505D01*
X142967505Y-126737597D01*
X142837575Y-126923158D01*
X142782998Y-126966783D01*
X142713500Y-126973977D01*
X142651145Y-126942454D01*
X142634425Y-126923158D01*
X142504494Y-126737597D01*
X142337402Y-126570506D01*
X142337395Y-126570501D01*
X142143834Y-126434967D01*
X142143830Y-126434965D01*
X142080569Y-126405466D01*
X141929663Y-126335097D01*
X141929659Y-126335096D01*
X141929655Y-126335094D01*
X141701413Y-126273938D01*
X141701403Y-126273936D01*
X141466001Y-126253341D01*
X141465999Y-126253341D01*
X141230596Y-126273936D01*
X141230586Y-126273938D01*
X141002344Y-126335094D01*
X141002335Y-126335098D01*
X140788171Y-126434964D01*
X140788169Y-126434965D01*
X140594597Y-126570505D01*
X140427505Y-126737597D01*
X140297575Y-126923158D01*
X140242998Y-126966783D01*
X140173500Y-126973977D01*
X140111145Y-126942454D01*
X140094425Y-126923158D01*
X139964494Y-126737597D01*
X139797402Y-126570506D01*
X139797395Y-126570501D01*
X139603834Y-126434967D01*
X139603830Y-126434965D01*
X139540569Y-126405466D01*
X139389663Y-126335097D01*
X139389659Y-126335096D01*
X139389655Y-126335094D01*
X139161413Y-126273938D01*
X139161403Y-126273936D01*
X138926001Y-126253341D01*
X138925999Y-126253341D01*
X138690596Y-126273936D01*
X138690586Y-126273938D01*
X138462344Y-126335094D01*
X138462335Y-126335098D01*
X138248171Y-126434964D01*
X138248169Y-126434965D01*
X138054597Y-126570505D01*
X137887505Y-126737597D01*
X137757575Y-126923158D01*
X137702998Y-126966783D01*
X137633500Y-126973977D01*
X137571145Y-126942454D01*
X137554425Y-126923158D01*
X137424494Y-126737597D01*
X137257402Y-126570506D01*
X137257395Y-126570501D01*
X137063834Y-126434967D01*
X137063830Y-126434965D01*
X137000569Y-126405466D01*
X136849663Y-126335097D01*
X136849659Y-126335096D01*
X136849655Y-126335094D01*
X136621413Y-126273938D01*
X136621403Y-126273936D01*
X136386001Y-126253341D01*
X136385999Y-126253341D01*
X136150596Y-126273936D01*
X136150586Y-126273938D01*
X135922344Y-126335094D01*
X135922335Y-126335098D01*
X135708171Y-126434964D01*
X135708169Y-126434965D01*
X135514597Y-126570505D01*
X135347505Y-126737597D01*
X135217575Y-126923158D01*
X135162998Y-126966783D01*
X135093500Y-126973977D01*
X135031145Y-126942454D01*
X135014425Y-126923158D01*
X134884494Y-126737597D01*
X134717402Y-126570506D01*
X134717395Y-126570501D01*
X134523834Y-126434967D01*
X134523830Y-126434965D01*
X134460569Y-126405466D01*
X134309663Y-126335097D01*
X134309659Y-126335096D01*
X134309655Y-126335094D01*
X134081413Y-126273938D01*
X134081403Y-126273936D01*
X133846001Y-126253341D01*
X133845999Y-126253341D01*
X133610596Y-126273936D01*
X133610586Y-126273938D01*
X133382344Y-126335094D01*
X133382335Y-126335098D01*
X133168171Y-126434964D01*
X133168169Y-126434965D01*
X132974600Y-126570503D01*
X132852673Y-126692430D01*
X132791350Y-126725914D01*
X132721658Y-126720930D01*
X132665725Y-126679058D01*
X132648810Y-126648081D01*
X132599797Y-126516671D01*
X132599793Y-126516664D01*
X132513547Y-126401455D01*
X132513544Y-126401452D01*
X132398335Y-126315206D01*
X132398328Y-126315202D01*
X132263482Y-126264908D01*
X132263483Y-126264908D01*
X132203883Y-126258501D01*
X132203881Y-126258500D01*
X132203873Y-126258500D01*
X132203864Y-126258500D01*
X130408129Y-126258500D01*
X130408123Y-126258501D01*
X130348516Y-126264908D01*
X130213671Y-126315202D01*
X130213664Y-126315206D01*
X130098455Y-126401452D01*
X130098452Y-126401455D01*
X130012206Y-126516664D01*
X130012202Y-126516671D01*
X129961908Y-126651517D01*
X129955501Y-126711116D01*
X129955500Y-126711135D01*
X129955500Y-128438075D01*
X129935815Y-128505114D01*
X129883011Y-128550869D01*
X129857281Y-128559365D01*
X129676197Y-128597855D01*
X129676192Y-128597857D01*
X129503270Y-128674848D01*
X129503265Y-128674851D01*
X129350129Y-128786111D01*
X129223466Y-128926785D01*
X129128821Y-129090715D01*
X129128818Y-129090722D01*
X129070327Y-129270740D01*
X129070326Y-129270744D01*
X129050540Y-129459000D01*
X129070326Y-129647256D01*
X129070327Y-129647259D01*
X129128818Y-129827277D01*
X129128821Y-129827284D01*
X129223467Y-129991216D01*
X129325185Y-130104185D01*
X129350129Y-130131888D01*
X129503265Y-130243148D01*
X129503270Y-130243151D01*
X129676192Y-130320142D01*
X129676197Y-130320144D01*
X129861354Y-130359500D01*
X129861355Y-130359500D01*
X130050644Y-130359500D01*
X130050646Y-130359500D01*
X130235803Y-130320144D01*
X130408730Y-130243151D01*
X130561871Y-130131888D01*
X130564788Y-130128647D01*
X130567600Y-130125526D01*
X130627087Y-130088879D01*
X130659748Y-130084500D01*
X139252252Y-130084500D01*
X139319291Y-130104185D01*
X139344400Y-130125526D01*
X139350126Y-130131885D01*
X139350130Y-130131889D01*
X139503265Y-130243148D01*
X139503270Y-130243151D01*
X139676192Y-130320142D01*
X139676197Y-130320144D01*
X139861354Y-130359500D01*
X139861355Y-130359500D01*
X140050644Y-130359500D01*
X140050646Y-130359500D01*
X140235803Y-130320144D01*
X140408730Y-130243151D01*
X140561871Y-130131888D01*
X140688533Y-129991216D01*
X140783179Y-129827284D01*
X140841674Y-129647256D01*
X140861460Y-129459000D01*
X140841674Y-129270744D01*
X140783179Y-129090716D01*
X140734894Y-129007084D01*
X140718422Y-128939187D01*
X140741274Y-128873160D01*
X140796195Y-128829970D01*
X140865749Y-128823328D01*
X140894687Y-128832705D01*
X140896392Y-128833500D01*
X141002337Y-128882903D01*
X141002343Y-128882904D01*
X141002344Y-128882905D01*
X141057285Y-128897626D01*
X141230592Y-128944063D01*
X141418918Y-128960539D01*
X141465999Y-128964659D01*
X141466000Y-128964659D01*
X141466001Y-128964659D01*
X141505234Y-128961226D01*
X141701408Y-128944063D01*
X141929663Y-128882903D01*
X142143830Y-128783035D01*
X142337401Y-128647495D01*
X142504495Y-128480401D01*
X142634425Y-128294842D01*
X142689002Y-128251217D01*
X142758500Y-128244023D01*
X142820855Y-128275546D01*
X142837575Y-128294842D01*
X142967500Y-128480395D01*
X142967505Y-128480401D01*
X143134599Y-128647495D01*
X143185508Y-128683142D01*
X143328165Y-128783032D01*
X143328167Y-128783033D01*
X143328170Y-128783035D01*
X143542337Y-128882903D01*
X143542343Y-128882904D01*
X143542344Y-128882905D01*
X143597285Y-128897626D01*
X143770592Y-128944063D01*
X143958918Y-128960539D01*
X144005999Y-128964659D01*
X144006000Y-128964659D01*
X144006001Y-128964659D01*
X144045234Y-128961226D01*
X144241408Y-128944063D01*
X144469663Y-128882903D01*
X144683830Y-128783035D01*
X144877401Y-128647495D01*
X145044495Y-128480401D01*
X145180035Y-128286830D01*
X145279903Y-128072663D01*
X145279904Y-128072655D01*
X145279979Y-128072454D01*
X145280037Y-128072375D01*
X145282191Y-128067756D01*
X145283119Y-128068188D01*
X145321407Y-128016191D01*
X145386676Y-127991257D01*
X145455064Y-128005568D01*
X145504859Y-128054581D01*
X145520500Y-128114867D01*
X145520500Y-130418877D01*
X145500815Y-130485916D01*
X145448011Y-130531671D01*
X145425028Y-130539551D01*
X145423521Y-130539907D01*
X145288671Y-130590202D01*
X145288664Y-130590206D01*
X145173455Y-130676452D01*
X145173452Y-130676455D01*
X145087206Y-130791664D01*
X145087202Y-130791671D01*
X145036908Y-130926517D01*
X145030501Y-130986116D01*
X145030500Y-130986135D01*
X145030500Y-132431870D01*
X145030501Y-132431879D01*
X145032046Y-132446248D01*
X145019639Y-132515007D01*
X144972027Y-132566143D01*
X144908756Y-132583500D01*
X112357581Y-132583500D01*
X112290542Y-132563815D01*
X112244787Y-132511011D01*
X112234110Y-132470942D01*
X112233122Y-132460282D01*
X112231435Y-132442077D01*
X112171817Y-132232541D01*
X112074712Y-132037528D01*
X111943427Y-131863678D01*
X111938295Y-131859000D01*
X111826996Y-131757537D01*
X111782432Y-131716912D01*
X111782428Y-131716909D01*
X111782423Y-131716906D01*
X111597213Y-131602229D01*
X111597207Y-131602226D01*
X111512113Y-131569260D01*
X111394069Y-131523530D01*
X111179926Y-131483500D01*
X110962074Y-131483500D01*
X110747931Y-131523530D01*
X110715443Y-131536116D01*
X110544792Y-131602226D01*
X110544786Y-131602229D01*
X110359565Y-131716913D01*
X110348585Y-131726923D01*
X110285780Y-131757537D01*
X110216393Y-131749336D01*
X110165785Y-131709594D01*
X110139848Y-131674948D01*
X110103546Y-131626454D01*
X110103544Y-131626453D01*
X110103544Y-131626452D01*
X109988335Y-131540206D01*
X109988328Y-131540202D01*
X109853482Y-131489908D01*
X109853483Y-131489908D01*
X109793883Y-131483501D01*
X109793881Y-131483500D01*
X109793873Y-131483500D01*
X109793864Y-131483500D01*
X108348129Y-131483500D01*
X108348123Y-131483501D01*
X108288516Y-131489908D01*
X108153671Y-131540202D01*
X108153664Y-131540206D01*
X108038455Y-131626452D01*
X108038452Y-131626455D01*
X107952206Y-131741664D01*
X107952202Y-131741671D01*
X107901908Y-131876517D01*
X107895501Y-131936116D01*
X107895500Y-131936135D01*
X102836545Y-131936135D01*
X102824838Y-131847211D01*
X102762054Y-131612900D01*
X102669224Y-131388788D01*
X102547936Y-131178711D01*
X102400265Y-130986262D01*
X102400260Y-130986256D01*
X102228743Y-130814739D01*
X102228736Y-130814733D01*
X102036293Y-130667067D01*
X102036292Y-130667066D01*
X102036289Y-130667064D01*
X101826212Y-130545776D01*
X101812048Y-130539909D01*
X101602104Y-130452947D01*
X101367785Y-130390161D01*
X101127289Y-130358500D01*
X101127288Y-130358500D01*
X100884712Y-130358500D01*
X100884711Y-130358500D01*
X100644214Y-130390161D01*
X100409895Y-130452947D01*
X100185794Y-130545773D01*
X100185785Y-130545777D01*
X99975706Y-130667067D01*
X99783263Y-130814733D01*
X99783256Y-130814739D01*
X99611739Y-130986256D01*
X99611733Y-130986263D01*
X99464067Y-131178706D01*
X99342777Y-131388785D01*
X99342773Y-131388794D01*
X99249947Y-131612895D01*
X99187161Y-131847214D01*
X99155500Y-132087711D01*
X98206500Y-132087711D01*
X98206500Y-125758999D01*
X99163582Y-125758999D01*
X99163582Y-125759000D01*
X99183216Y-125983421D01*
X99183218Y-125983431D01*
X99241521Y-126201025D01*
X99241525Y-126201034D01*
X99336732Y-126405207D01*
X99336733Y-126405209D01*
X99385949Y-126475497D01*
X99952624Y-125908822D01*
X99966778Y-125961642D01*
X100035896Y-126081357D01*
X100133643Y-126179104D01*
X100253358Y-126248222D01*
X100306177Y-126262375D01*
X99739501Y-126829049D01*
X99809791Y-126878267D01*
X100013965Y-126973474D01*
X100013974Y-126973478D01*
X100231568Y-127031781D01*
X100231578Y-127031783D01*
X100455999Y-127051418D01*
X100456001Y-127051418D01*
X100680421Y-127031783D01*
X100680431Y-127031781D01*
X100898025Y-126973478D01*
X100898034Y-126973474D01*
X101102208Y-126878267D01*
X101102212Y-126878265D01*
X101172497Y-126829050D01*
X100605822Y-126262375D01*
X100658642Y-126248222D01*
X100778357Y-126179104D01*
X100876104Y-126081357D01*
X100945222Y-125961642D01*
X100959375Y-125908822D01*
X101526050Y-126475497D01*
X101575265Y-126405212D01*
X101575267Y-126405208D01*
X101670474Y-126201034D01*
X101670478Y-126201025D01*
X101728781Y-125983431D01*
X101728783Y-125983421D01*
X101748418Y-125759000D01*
X101748418Y-125758999D01*
X101748418Y-125758997D01*
X103663080Y-125758997D01*
X103663080Y-125759002D01*
X103682721Y-125983507D01*
X103682722Y-125983514D01*
X103741051Y-126201200D01*
X103741055Y-126201211D01*
X103836296Y-126405456D01*
X103836302Y-126405466D01*
X103856957Y-126434964D01*
X103965566Y-126590073D01*
X104124927Y-126749434D01*
X104309540Y-126878702D01*
X104404877Y-126923158D01*
X104513788Y-126973944D01*
X104513790Y-126973944D01*
X104513795Y-126973947D01*
X104731487Y-127032278D01*
X104891853Y-127046308D01*
X104955998Y-127051920D01*
X104956000Y-127051920D01*
X104956002Y-127051920D01*
X105017963Y-127046499D01*
X105180513Y-127032278D01*
X105398205Y-126973947D01*
X105602460Y-126878702D01*
X105787073Y-126749434D01*
X105946434Y-126590073D01*
X106075702Y-126405460D01*
X106170947Y-126201205D01*
X106229278Y-125983513D01*
X106248920Y-125759000D01*
X106229278Y-125534487D01*
X106170947Y-125316795D01*
X106150591Y-125273142D01*
X106118671Y-125204688D01*
X106075702Y-125112540D01*
X105946434Y-124927927D01*
X105787073Y-124768566D01*
X105603084Y-124639735D01*
X105602466Y-124639302D01*
X105602463Y-124639300D01*
X105602460Y-124639298D01*
X105602456Y-124639296D01*
X105398211Y-124544055D01*
X105398200Y-124544051D01*
X105180514Y-124485722D01*
X105180507Y-124485721D01*
X104956002Y-124466080D01*
X104955998Y-124466080D01*
X104731492Y-124485721D01*
X104731485Y-124485722D01*
X104513799Y-124544051D01*
X104513788Y-124544055D01*
X104309543Y-124639296D01*
X104309533Y-124639302D01*
X104124926Y-124768566D01*
X103965566Y-124927926D01*
X103836302Y-125112533D01*
X103836296Y-125112543D01*
X103741055Y-125316788D01*
X103741051Y-125316799D01*
X103682722Y-125534485D01*
X103682721Y-125534492D01*
X103663080Y-125758997D01*
X101748418Y-125758997D01*
X101728783Y-125534578D01*
X101728781Y-125534568D01*
X101670478Y-125316974D01*
X101670474Y-125316965D01*
X101575267Y-125112791D01*
X101526049Y-125042501D01*
X100959374Y-125609176D01*
X100945222Y-125556358D01*
X100876104Y-125436643D01*
X100778357Y-125338896D01*
X100658642Y-125269778D01*
X100605822Y-125255624D01*
X101172497Y-124688949D01*
X101172497Y-124688948D01*
X101102209Y-124639733D01*
X101102207Y-124639732D01*
X100898034Y-124544525D01*
X100898025Y-124544521D01*
X100680431Y-124486218D01*
X100680421Y-124486216D01*
X100456001Y-124466582D01*
X100455999Y-124466582D01*
X100231578Y-124486216D01*
X100231568Y-124486218D01*
X100013974Y-124544521D01*
X100013965Y-124544525D01*
X99809787Y-124639735D01*
X99739502Y-124688948D01*
X99739501Y-124688949D01*
X100306177Y-125255624D01*
X100253358Y-125269778D01*
X100133643Y-125338896D01*
X100035896Y-125436643D01*
X99966778Y-125556358D01*
X99952625Y-125609177D01*
X99385949Y-125042501D01*
X99385948Y-125042502D01*
X99336735Y-125112787D01*
X99241525Y-125316965D01*
X99241521Y-125316974D01*
X99183218Y-125534568D01*
X99183216Y-125534578D01*
X99163582Y-125758999D01*
X98206500Y-125758999D01*
X98206500Y-122608999D01*
X109025464Y-122608999D01*
X109025464Y-122609000D01*
X109045564Y-122825918D01*
X109105184Y-123035462D01*
X109202288Y-123230472D01*
X109333574Y-123404324D01*
X109457572Y-123517363D01*
X109493854Y-123577074D01*
X109492093Y-123646922D01*
X109457572Y-123700637D01*
X109333574Y-123813675D01*
X109202288Y-123987527D01*
X109105184Y-124182537D01*
X109105183Y-124182541D01*
X109061294Y-124336797D01*
X109045564Y-124392081D01*
X109025464Y-124608999D01*
X109025464Y-124609000D01*
X109045564Y-124825918D01*
X109045564Y-124825920D01*
X109045565Y-124825923D01*
X109076458Y-124934500D01*
X109105184Y-125035462D01*
X109202288Y-125230472D01*
X109333574Y-125404323D01*
X109387238Y-125453244D01*
X109494568Y-125551088D01*
X109494575Y-125551092D01*
X109494576Y-125551093D01*
X109679786Y-125665770D01*
X109679792Y-125665773D01*
X109702664Y-125674633D01*
X109882931Y-125744470D01*
X110097074Y-125784500D01*
X110097076Y-125784500D01*
X110314924Y-125784500D01*
X110314926Y-125784500D01*
X110529069Y-125744470D01*
X110732210Y-125665772D01*
X110917432Y-125551088D01*
X111078427Y-125404322D01*
X111209712Y-125230472D01*
X111306817Y-125035459D01*
X111366435Y-124825923D01*
X111386536Y-124609000D01*
X111366435Y-124392077D01*
X111306817Y-124182541D01*
X111209712Y-123987528D01*
X111078427Y-123813678D01*
X110954423Y-123700634D01*
X110918145Y-123640927D01*
X110919905Y-123571079D01*
X110954423Y-123517365D01*
X111078427Y-123404322D01*
X111209712Y-123230472D01*
X111306817Y-123035459D01*
X111366435Y-122825923D01*
X111386536Y-122609000D01*
X111385676Y-122599724D01*
X111380031Y-122538802D01*
X111366435Y-122392077D01*
X111306817Y-122182541D01*
X111276671Y-122122000D01*
X119797540Y-122122000D01*
X119817326Y-122310256D01*
X119817327Y-122310259D01*
X119875818Y-122490277D01*
X119875821Y-122490284D01*
X119970467Y-122654216D01*
X120075630Y-122771011D01*
X120097129Y-122794888D01*
X120250265Y-122906148D01*
X120250270Y-122906151D01*
X120423192Y-122983142D01*
X120423197Y-122983144D01*
X120608354Y-123022500D01*
X120608355Y-123022500D01*
X120797644Y-123022500D01*
X120797646Y-123022500D01*
X120982803Y-122983144D01*
X121155730Y-122906151D01*
X121308871Y-122794888D01*
X121435533Y-122654216D01*
X121530179Y-122490284D01*
X121588674Y-122310256D01*
X121606321Y-122142345D01*
X121632905Y-122077732D01*
X121641952Y-122067636D01*
X122786729Y-120922860D01*
X122786733Y-120922858D01*
X122873858Y-120835733D01*
X122942311Y-120733286D01*
X122942312Y-120733285D01*
X122942313Y-120733282D01*
X122942315Y-120733279D01*
X122953471Y-120706343D01*
X122978865Y-120645037D01*
X122989463Y-120619452D01*
X123002896Y-120551920D01*
X123003975Y-120546499D01*
X123013500Y-120498606D01*
X123013500Y-115552452D01*
X123033185Y-115485413D01*
X123049819Y-115464771D01*
X125943771Y-112570819D01*
X126005094Y-112537334D01*
X126031452Y-112534500D01*
X133817252Y-112534500D01*
X133884291Y-112554185D01*
X133909400Y-112575526D01*
X133915126Y-112581885D01*
X133915130Y-112581889D01*
X134068265Y-112693148D01*
X134068270Y-112693151D01*
X134241192Y-112770142D01*
X134241197Y-112770144D01*
X134426354Y-112809500D01*
X134426355Y-112809500D01*
X134615644Y-112809500D01*
X134615646Y-112809500D01*
X134800803Y-112770144D01*
X134973730Y-112693151D01*
X135126871Y-112581888D01*
X135253533Y-112441216D01*
X135348179Y-112277284D01*
X135406674Y-112097256D01*
X135426460Y-111909000D01*
X135406674Y-111720744D01*
X135348179Y-111540716D01*
X135253533Y-111376784D01*
X135126871Y-111236112D01*
X135126870Y-111236111D01*
X134973734Y-111124851D01*
X134973729Y-111124848D01*
X134800807Y-111047857D01*
X134800802Y-111047855D01*
X134655001Y-111016865D01*
X134615646Y-111008500D01*
X134426354Y-111008500D01*
X134393897Y-111015398D01*
X134241197Y-111047855D01*
X134241192Y-111047857D01*
X134068270Y-111124848D01*
X134068265Y-111124851D01*
X133915130Y-111236110D01*
X133915126Y-111236114D01*
X133909400Y-111242474D01*
X133849913Y-111279121D01*
X133817252Y-111283500D01*
X125659389Y-111283500D01*
X125598971Y-111295518D01*
X125538548Y-111307537D01*
X125538546Y-111307537D01*
X125538545Y-111307538D01*
X125538543Y-111307538D01*
X125496752Y-111324849D01*
X125424715Y-111354686D01*
X125414627Y-111361428D01*
X125414626Y-111361429D01*
X125322268Y-111423140D01*
X125278705Y-111466703D01*
X125235142Y-111510267D01*
X121902144Y-114843264D01*
X121902138Y-114843272D01*
X121867914Y-114894489D01*
X121867915Y-114894490D01*
X121833691Y-114945708D01*
X121833689Y-114945712D01*
X121833688Y-114945714D01*
X121818200Y-114983107D01*
X121786538Y-115059545D01*
X121786535Y-115059555D01*
X121762500Y-115180389D01*
X121762500Y-120126548D01*
X121742815Y-120193587D01*
X121726181Y-120214229D01*
X120755229Y-121185181D01*
X120693906Y-121218666D01*
X120667548Y-121221500D01*
X120608354Y-121221500D01*
X120575897Y-121228398D01*
X120423197Y-121260855D01*
X120423192Y-121260857D01*
X120250270Y-121337848D01*
X120250265Y-121337851D01*
X120097129Y-121449111D01*
X119970466Y-121589785D01*
X119875821Y-121753715D01*
X119875818Y-121753722D01*
X119829400Y-121896584D01*
X119817326Y-121933744D01*
X119797540Y-122122000D01*
X111276671Y-122122000D01*
X111209712Y-121987528D01*
X111128251Y-121879656D01*
X111103560Y-121814297D01*
X111118125Y-121745962D01*
X111152895Y-121705665D01*
X111200545Y-121669993D01*
X111238546Y-121641546D01*
X111324796Y-121526331D01*
X111375091Y-121391483D01*
X111381500Y-121331873D01*
X111381499Y-119886128D01*
X111375091Y-119826517D01*
X111370165Y-119813311D01*
X111324797Y-119691671D01*
X111324793Y-119691664D01*
X111238547Y-119576455D01*
X111238544Y-119576452D01*
X111123335Y-119490206D01*
X111123328Y-119490202D01*
X110988482Y-119439908D01*
X110988483Y-119439908D01*
X110928883Y-119433501D01*
X110928881Y-119433500D01*
X110928873Y-119433500D01*
X110928864Y-119433500D01*
X109483129Y-119433500D01*
X109483123Y-119433501D01*
X109423516Y-119439908D01*
X109288671Y-119490202D01*
X109288664Y-119490206D01*
X109173455Y-119576452D01*
X109173452Y-119576455D01*
X109087206Y-119691664D01*
X109087202Y-119691671D01*
X109036908Y-119826517D01*
X109030675Y-119884499D01*
X109030501Y-119886123D01*
X109030500Y-119886135D01*
X109030500Y-121331870D01*
X109030501Y-121331876D01*
X109036908Y-121391483D01*
X109087202Y-121526328D01*
X109087206Y-121526335D01*
X109156358Y-121618709D01*
X109173454Y-121641546D01*
X109259105Y-121705664D01*
X109300975Y-121761597D01*
X109305959Y-121831289D01*
X109283748Y-121879656D01*
X109202288Y-121987528D01*
X109105184Y-122182537D01*
X109045564Y-122392081D01*
X109025464Y-122608999D01*
X98206500Y-122608999D01*
X98206500Y-118423655D01*
X99168500Y-118423655D01*
X99168500Y-119009000D01*
X99994120Y-119009000D01*
X99966778Y-119056358D01*
X99931000Y-119189882D01*
X99931000Y-119328118D01*
X99966778Y-119461642D01*
X99994120Y-119509000D01*
X99168500Y-119509000D01*
X99168500Y-120094344D01*
X99174901Y-120153872D01*
X99174903Y-120153879D01*
X99225145Y-120288586D01*
X99225149Y-120288593D01*
X99311309Y-120403687D01*
X99311312Y-120403690D01*
X99426406Y-120489850D01*
X99426413Y-120489854D01*
X99561120Y-120540096D01*
X99561127Y-120540098D01*
X99620655Y-120546499D01*
X99620672Y-120546500D01*
X100206000Y-120546500D01*
X100206000Y-119720879D01*
X100253358Y-119748222D01*
X100386882Y-119784000D01*
X100525118Y-119784000D01*
X100658642Y-119748222D01*
X100706000Y-119720879D01*
X100706000Y-120546500D01*
X101291328Y-120546500D01*
X101291344Y-120546499D01*
X101350872Y-120540098D01*
X101350879Y-120540096D01*
X101485586Y-120489854D01*
X101485593Y-120489850D01*
X101600687Y-120403690D01*
X101600690Y-120403687D01*
X101686850Y-120288593D01*
X101686854Y-120288586D01*
X101737096Y-120153879D01*
X101737098Y-120153872D01*
X101743499Y-120094344D01*
X101743500Y-120094327D01*
X101743500Y-119509000D01*
X100917880Y-119509000D01*
X100945222Y-119461642D01*
X100981000Y-119328118D01*
X100981000Y-119258997D01*
X103663080Y-119258997D01*
X103663080Y-119259002D01*
X103682721Y-119483507D01*
X103682722Y-119483514D01*
X103741051Y-119701200D01*
X103741055Y-119701211D01*
X103836296Y-119905456D01*
X103836302Y-119905466D01*
X103915800Y-120019000D01*
X103965566Y-120090073D01*
X104124927Y-120249434D01*
X104309540Y-120378702D01*
X104432424Y-120436003D01*
X104513788Y-120473944D01*
X104513790Y-120473944D01*
X104513795Y-120473947D01*
X104731487Y-120532278D01*
X104891853Y-120546308D01*
X104955998Y-120551920D01*
X104956000Y-120551920D01*
X104956002Y-120551920D01*
X105017963Y-120546499D01*
X105180513Y-120532278D01*
X105398205Y-120473947D01*
X105602460Y-120378702D01*
X105787073Y-120249434D01*
X105946434Y-120090073D01*
X106053355Y-119937374D01*
X106107930Y-119893751D01*
X106154928Y-119884500D01*
X106217608Y-119884500D01*
X106217608Y-119884499D01*
X106297659Y-119868577D01*
X106297661Y-119868577D01*
X106338442Y-119860465D01*
X106338442Y-119860464D01*
X106338452Y-119860463D01*
X106371792Y-119846652D01*
X106452286Y-119813312D01*
X106503509Y-119779084D01*
X106554733Y-119744858D01*
X106641858Y-119657733D01*
X106641859Y-119657731D01*
X106648925Y-119650665D01*
X106648928Y-119650661D01*
X108178771Y-118120818D01*
X108240094Y-118087333D01*
X108266452Y-118084499D01*
X108731002Y-118084499D01*
X108731008Y-118084499D01*
X108738517Y-118083732D01*
X108748895Y-118082671D01*
X108833797Y-118073999D01*
X109000334Y-118018814D01*
X109149656Y-117926712D01*
X109273712Y-117802656D01*
X109365814Y-117653334D01*
X109420999Y-117486797D01*
X109431500Y-117384009D01*
X109431499Y-116608992D01*
X109420999Y-116506203D01*
X109365814Y-116339666D01*
X109273712Y-116190344D01*
X109149656Y-116066288D01*
X109146819Y-116064538D01*
X109145283Y-116062830D01*
X109143989Y-116061807D01*
X109144163Y-116061585D01*
X109100096Y-116012594D01*
X109088872Y-115943632D01*
X109116713Y-115879549D01*
X109146817Y-115853462D01*
X109149656Y-115851712D01*
X109273712Y-115727656D01*
X109365814Y-115578334D01*
X109420999Y-115411797D01*
X109431500Y-115309009D01*
X109431499Y-114533992D01*
X109420999Y-114431203D01*
X109365814Y-114264666D01*
X109273712Y-114115344D01*
X109149656Y-113991288D01*
X109000334Y-113899186D01*
X108833797Y-113844001D01*
X108833795Y-113844000D01*
X108731010Y-113833500D01*
X107680998Y-113833500D01*
X107680980Y-113833501D01*
X107578203Y-113844000D01*
X107578200Y-113844001D01*
X107411668Y-113899185D01*
X107411663Y-113899187D01*
X107262342Y-113991289D01*
X107138289Y-114115342D01*
X107138288Y-114115344D01*
X107084062Y-114203260D01*
X107063191Y-114237097D01*
X107011243Y-114283821D01*
X106957652Y-114296000D01*
X106663928Y-114296000D01*
X106596889Y-114276315D01*
X106558389Y-114237097D01*
X106537522Y-114203266D01*
X106498712Y-114140344D01*
X106374656Y-114016288D01*
X106225334Y-113924186D01*
X106058797Y-113869001D01*
X106058795Y-113869000D01*
X105956010Y-113858500D01*
X104955998Y-113858500D01*
X104955980Y-113858501D01*
X104853203Y-113869000D01*
X104853200Y-113869001D01*
X104686668Y-113924185D01*
X104686663Y-113924187D01*
X104537342Y-114016289D01*
X104413289Y-114140342D01*
X104321187Y-114289663D01*
X104321186Y-114289666D01*
X104266001Y-114456203D01*
X104266001Y-114456204D01*
X104266000Y-114456204D01*
X104255500Y-114558983D01*
X104255500Y-115359001D01*
X104255501Y-115359019D01*
X104266000Y-115461796D01*
X104266001Y-115461799D01*
X104321185Y-115628331D01*
X104321187Y-115628336D01*
X104413289Y-115777657D01*
X104507304Y-115871672D01*
X104540789Y-115932995D01*
X104535805Y-116002687D01*
X104507305Y-116047034D01*
X104413682Y-116140657D01*
X104321643Y-116289875D01*
X104321641Y-116289880D01*
X104266494Y-116456302D01*
X104266493Y-116456309D01*
X104256000Y-116559013D01*
X104256000Y-116709000D01*
X106655999Y-116709000D01*
X106655999Y-116559028D01*
X106655998Y-116559013D01*
X106645505Y-116456302D01*
X106590358Y-116289880D01*
X106590356Y-116289875D01*
X106498315Y-116140654D01*
X106404695Y-116047034D01*
X106371210Y-115985711D01*
X106376194Y-115916019D01*
X106404691Y-115871676D01*
X106498712Y-115777656D01*
X106590814Y-115628334D01*
X106590814Y-115628331D01*
X106590817Y-115628328D01*
X106593869Y-115621784D01*
X106595987Y-115622771D01*
X106629372Y-115574552D01*
X106693887Y-115547728D01*
X106707307Y-115547000D01*
X106957652Y-115547000D01*
X107024691Y-115566685D01*
X107063189Y-115605901D01*
X107101188Y-115667507D01*
X107138289Y-115727657D01*
X107262346Y-115851714D01*
X107265182Y-115853463D01*
X107266717Y-115855170D01*
X107268011Y-115856193D01*
X107267836Y-115856414D01*
X107311905Y-115905411D01*
X107323126Y-115974374D01*
X107295282Y-116038456D01*
X107265182Y-116064537D01*
X107262346Y-116066285D01*
X107138289Y-116190342D01*
X107046187Y-116339663D01*
X107046186Y-116339666D01*
X106991001Y-116506203D01*
X106991001Y-116506204D01*
X106991000Y-116506204D01*
X106980500Y-116608983D01*
X106980500Y-117384001D01*
X106980501Y-117384019D01*
X106989889Y-117475914D01*
X106977119Y-117544607D01*
X106954212Y-117576196D01*
X106805726Y-117724682D01*
X106744403Y-117758167D01*
X106674711Y-117753183D01*
X106618778Y-117711311D01*
X106594361Y-117645847D01*
X106600339Y-117597996D01*
X106645505Y-117461694D01*
X106645506Y-117461690D01*
X106655999Y-117358986D01*
X106656000Y-117358973D01*
X106656000Y-117209000D01*
X104256001Y-117209000D01*
X104256001Y-117358986D01*
X104266494Y-117461697D01*
X104321641Y-117628119D01*
X104321643Y-117628124D01*
X104413684Y-117777345D01*
X104502190Y-117865851D01*
X104535675Y-117927174D01*
X104530691Y-117996866D01*
X104488819Y-118052799D01*
X104466913Y-118065914D01*
X104309543Y-118139296D01*
X104309533Y-118139302D01*
X104124926Y-118268566D01*
X103965566Y-118427926D01*
X103836302Y-118612533D01*
X103836296Y-118612543D01*
X103741055Y-118816788D01*
X103741051Y-118816799D01*
X103682722Y-119034485D01*
X103682721Y-119034492D01*
X103663080Y-119258997D01*
X100981000Y-119258997D01*
X100981000Y-119189882D01*
X100945222Y-119056358D01*
X100917880Y-119009000D01*
X101743500Y-119009000D01*
X101743500Y-118423672D01*
X101743499Y-118423655D01*
X101737098Y-118364127D01*
X101737096Y-118364120D01*
X101686854Y-118229413D01*
X101686850Y-118229406D01*
X101600690Y-118114312D01*
X101600687Y-118114309D01*
X101485593Y-118028149D01*
X101485586Y-118028145D01*
X101350879Y-117977903D01*
X101350872Y-117977901D01*
X101291344Y-117971500D01*
X100706000Y-117971500D01*
X100706000Y-118797120D01*
X100658642Y-118769778D01*
X100525118Y-118734000D01*
X100386882Y-118734000D01*
X100253358Y-118769778D01*
X100206000Y-118797120D01*
X100206000Y-117971500D01*
X99620655Y-117971500D01*
X99561127Y-117977901D01*
X99561120Y-117977903D01*
X99426413Y-118028145D01*
X99426406Y-118028149D01*
X99311312Y-118114309D01*
X99311309Y-118114312D01*
X99225149Y-118229406D01*
X99225145Y-118229413D01*
X99174903Y-118364120D01*
X99174901Y-118364127D01*
X99168500Y-118423655D01*
X98206500Y-118423655D01*
X98206500Y-112687711D01*
X99155500Y-112687711D01*
X99155500Y-112930288D01*
X99187161Y-113170785D01*
X99249947Y-113405104D01*
X99325729Y-113588057D01*
X99342776Y-113629212D01*
X99464064Y-113839289D01*
X99464066Y-113839292D01*
X99464067Y-113839293D01*
X99611733Y-114031736D01*
X99611739Y-114031743D01*
X99783256Y-114203260D01*
X99783263Y-114203266D01*
X99863284Y-114264668D01*
X99975711Y-114350936D01*
X100185788Y-114472224D01*
X100409900Y-114565054D01*
X100644211Y-114627838D01*
X100824586Y-114651584D01*
X100884711Y-114659500D01*
X100884712Y-114659500D01*
X101127289Y-114659500D01*
X101175388Y-114653167D01*
X101367789Y-114627838D01*
X101602100Y-114565054D01*
X101826212Y-114472224D01*
X102036289Y-114350936D01*
X102228738Y-114203265D01*
X102400265Y-114031738D01*
X102547936Y-113839289D01*
X102669224Y-113629212D01*
X102762054Y-113405100D01*
X102824838Y-113170789D01*
X102856500Y-112930288D01*
X102856500Y-112687712D01*
X102824838Y-112447211D01*
X102762054Y-112212900D01*
X102669224Y-111988788D01*
X102547936Y-111778711D01*
X102400265Y-111586262D01*
X102400260Y-111586256D01*
X102228743Y-111414739D01*
X102228736Y-111414733D01*
X102036293Y-111267067D01*
X102036292Y-111267066D01*
X102036289Y-111267064D01*
X101826212Y-111145776D01*
X101826205Y-111145773D01*
X101602104Y-111052947D01*
X101367785Y-110990161D01*
X101127289Y-110958500D01*
X101127288Y-110958500D01*
X100884712Y-110958500D01*
X100884711Y-110958500D01*
X100644214Y-110990161D01*
X100409895Y-111052947D01*
X100185794Y-111145773D01*
X100185785Y-111145777D01*
X99975706Y-111267067D01*
X99783263Y-111414733D01*
X99783256Y-111414739D01*
X99611739Y-111586256D01*
X99611733Y-111586263D01*
X99464067Y-111778706D01*
X99342777Y-111988785D01*
X99342773Y-111988794D01*
X99249947Y-112212895D01*
X99187161Y-112447214D01*
X99155500Y-112687711D01*
X98206500Y-112687711D01*
X98206500Y-110133500D01*
X98226185Y-110066461D01*
X98278989Y-110020706D01*
X98330500Y-110009500D01*
X107824098Y-110009500D01*
X107825598Y-110009382D01*
X107835321Y-110009000D01*
X112576679Y-110009000D01*
X112586402Y-110009382D01*
G37*
%TD.AperFunction*%
%TA.AperFunction,Conductor*%
G36*
X174709736Y-76009726D02*
G01*
X174999796Y-76027271D01*
X175014659Y-76029076D01*
X175296798Y-76080780D01*
X175311335Y-76084363D01*
X175585172Y-76169695D01*
X175599163Y-76175000D01*
X175860743Y-76292727D01*
X175873989Y-76299680D01*
X176119465Y-76448075D01*
X176131776Y-76456573D01*
X176357573Y-76633473D01*
X176368781Y-76643403D01*
X176571596Y-76846218D01*
X176581526Y-76857426D01*
X176701481Y-77010538D01*
X176758422Y-77083217D01*
X176766928Y-77095540D01*
X176915316Y-77341004D01*
X176922275Y-77354263D01*
X177039997Y-77615831D01*
X177045306Y-77629832D01*
X177130635Y-77903663D01*
X177134219Y-77918201D01*
X177185923Y-78200340D01*
X177187728Y-78215205D01*
X177205274Y-78505263D01*
X177205500Y-78512750D01*
X177205500Y-106876000D01*
X177185815Y-106943039D01*
X177133011Y-106988794D01*
X177081500Y-107000000D01*
X98330500Y-107000000D01*
X98263461Y-106980315D01*
X98217706Y-106927511D01*
X98206500Y-106876000D01*
X98206500Y-104087711D01*
X99155500Y-104087711D01*
X99155500Y-104330288D01*
X99187161Y-104570785D01*
X99249947Y-104805104D01*
X99311494Y-104953690D01*
X99342776Y-105029212D01*
X99464064Y-105239289D01*
X99464066Y-105239292D01*
X99464067Y-105239293D01*
X99611733Y-105431736D01*
X99611739Y-105431743D01*
X99783256Y-105603260D01*
X99783262Y-105603265D01*
X99975711Y-105750936D01*
X100185788Y-105872224D01*
X100409900Y-105965054D01*
X100644211Y-106027838D01*
X100824586Y-106051584D01*
X100884711Y-106059500D01*
X100884712Y-106059500D01*
X101127289Y-106059500D01*
X101175388Y-106053167D01*
X101367789Y-106027838D01*
X101602100Y-105965054D01*
X101826212Y-105872224D01*
X102036289Y-105750936D01*
X102228738Y-105603265D01*
X102400265Y-105431738D01*
X102547936Y-105239289D01*
X102669224Y-105029212D01*
X102762054Y-104805100D01*
X102824838Y-104570789D01*
X102856500Y-104330288D01*
X102856500Y-104208986D01*
X105506001Y-104208986D01*
X105516494Y-104311697D01*
X105571641Y-104478119D01*
X105571643Y-104478124D01*
X105663684Y-104627345D01*
X105787654Y-104751315D01*
X105936875Y-104843356D01*
X105936880Y-104843358D01*
X106103302Y-104898505D01*
X106103309Y-104898506D01*
X106206019Y-104908999D01*
X106455999Y-104908999D01*
X106956000Y-104908999D01*
X107205972Y-104908999D01*
X107205986Y-104908998D01*
X107308697Y-104898505D01*
X107475119Y-104843358D01*
X107475124Y-104843356D01*
X107624345Y-104751315D01*
X107748315Y-104627345D01*
X107840356Y-104478124D01*
X107840358Y-104478119D01*
X107895505Y-104311697D01*
X107895506Y-104311690D01*
X107905999Y-104208986D01*
X107906000Y-104208973D01*
X107906000Y-104059000D01*
X106956000Y-104059000D01*
X106956000Y-104908999D01*
X106455999Y-104908999D01*
X106456000Y-104908998D01*
X106456000Y-104059000D01*
X105506001Y-104059000D01*
X105506001Y-104208986D01*
X102856500Y-104208986D01*
X102856500Y-104087712D01*
X102824838Y-103847211D01*
X102762054Y-103612900D01*
X102669224Y-103388788D01*
X102547936Y-103178711D01*
X102431789Y-103027345D01*
X102400266Y-102986263D01*
X102400260Y-102986256D01*
X102228743Y-102814739D01*
X102228736Y-102814733D01*
X102036293Y-102667067D01*
X102036292Y-102667066D01*
X102036289Y-102667064D01*
X101826212Y-102545776D01*
X101783058Y-102527901D01*
X101602104Y-102452947D01*
X101367785Y-102390161D01*
X101127289Y-102358500D01*
X101127288Y-102358500D01*
X100884712Y-102358500D01*
X100884711Y-102358500D01*
X100644214Y-102390161D01*
X100409895Y-102452947D01*
X100185794Y-102545773D01*
X100185785Y-102545777D01*
X99975706Y-102667067D01*
X99783263Y-102814733D01*
X99783256Y-102814739D01*
X99611739Y-102986256D01*
X99611733Y-102986263D01*
X99464067Y-103178706D01*
X99342777Y-103388785D01*
X99342773Y-103388794D01*
X99249947Y-103612895D01*
X99187161Y-103847214D01*
X99155500Y-104087711D01*
X98206500Y-104087711D01*
X98206500Y-97283983D01*
X105480500Y-97283983D01*
X105480500Y-98059001D01*
X105480501Y-98059019D01*
X105491000Y-98161796D01*
X105491001Y-98161799D01*
X105546185Y-98328331D01*
X105546187Y-98328336D01*
X105638289Y-98477657D01*
X105762346Y-98601714D01*
X105765182Y-98603463D01*
X105766717Y-98605170D01*
X105768011Y-98606193D01*
X105767836Y-98606414D01*
X105811905Y-98655411D01*
X105823126Y-98724374D01*
X105795282Y-98788456D01*
X105765182Y-98814537D01*
X105762346Y-98816285D01*
X105638289Y-98940342D01*
X105546187Y-99089663D01*
X105546185Y-99089668D01*
X105532323Y-99131501D01*
X105491001Y-99256203D01*
X105491001Y-99256204D01*
X105491000Y-99256204D01*
X105480500Y-99358983D01*
X105480500Y-100134001D01*
X105480501Y-100134019D01*
X105491000Y-100236796D01*
X105491001Y-100236799D01*
X105546185Y-100403331D01*
X105546187Y-100403336D01*
X105556905Y-100420712D01*
X105620580Y-100523947D01*
X105638289Y-100552657D01*
X105762343Y-100676711D01*
X105768011Y-100681193D01*
X105767087Y-100682360D01*
X105808310Y-100728195D01*
X105819530Y-100797158D01*
X105791684Y-100861239D01*
X105784169Y-100869463D01*
X105663287Y-100990345D01*
X105571187Y-101139663D01*
X105571186Y-101139666D01*
X105516001Y-101306203D01*
X105516001Y-101306204D01*
X105516000Y-101306204D01*
X105505500Y-101408983D01*
X105505500Y-102209001D01*
X105505501Y-102209019D01*
X105516000Y-102311796D01*
X105516001Y-102311799D01*
X105564779Y-102459000D01*
X105571186Y-102478334D01*
X105651772Y-102608986D01*
X105663289Y-102627657D01*
X105757304Y-102721672D01*
X105790789Y-102782995D01*
X105785805Y-102852687D01*
X105757305Y-102897034D01*
X105663682Y-102990657D01*
X105571643Y-103139875D01*
X105571641Y-103139880D01*
X105516494Y-103306302D01*
X105516493Y-103306309D01*
X105506000Y-103409013D01*
X105506000Y-103559000D01*
X107905999Y-103559000D01*
X107905999Y-103409028D01*
X107905998Y-103409013D01*
X107895505Y-103306302D01*
X107840358Y-103139880D01*
X107840356Y-103139875D01*
X107748315Y-102990654D01*
X107731316Y-102973655D01*
X108218500Y-102973655D01*
X108218500Y-103559000D01*
X109044120Y-103559000D01*
X109016778Y-103606358D01*
X108981000Y-103739882D01*
X108981000Y-103878118D01*
X109016778Y-104011642D01*
X109044120Y-104059000D01*
X108218500Y-104059000D01*
X108218500Y-104644344D01*
X108224901Y-104703872D01*
X108224903Y-104703879D01*
X108275145Y-104838586D01*
X108275149Y-104838593D01*
X108361309Y-104953687D01*
X108361312Y-104953690D01*
X108476406Y-105039850D01*
X108476413Y-105039854D01*
X108611120Y-105090096D01*
X108611127Y-105090098D01*
X108670655Y-105096499D01*
X108670672Y-105096500D01*
X109256000Y-105096500D01*
X109256000Y-104270879D01*
X109303358Y-104298222D01*
X109436882Y-104334000D01*
X109575118Y-104334000D01*
X109708642Y-104298222D01*
X109756000Y-104270879D01*
X109756000Y-105096500D01*
X110341328Y-105096500D01*
X110341344Y-105096499D01*
X110400872Y-105090098D01*
X110400879Y-105090096D01*
X110535586Y-105039854D01*
X110535593Y-105039850D01*
X110650687Y-104953690D01*
X110650690Y-104953687D01*
X110736850Y-104838593D01*
X110736854Y-104838586D01*
X110787096Y-104703879D01*
X110787098Y-104703872D01*
X110793499Y-104644344D01*
X110793500Y-104644327D01*
X110793500Y-104059000D01*
X109967880Y-104059000D01*
X109995222Y-104011642D01*
X110031000Y-103878118D01*
X110031000Y-103808999D01*
X114713582Y-103808999D01*
X114713582Y-103809000D01*
X114733216Y-104033421D01*
X114733218Y-104033431D01*
X114791521Y-104251025D01*
X114791525Y-104251034D01*
X114886732Y-104455207D01*
X114886733Y-104455209D01*
X114935949Y-104525497D01*
X115502624Y-103958822D01*
X115516778Y-104011642D01*
X115585896Y-104131357D01*
X115683643Y-104229104D01*
X115803358Y-104298222D01*
X115856177Y-104312375D01*
X115289501Y-104879049D01*
X115359791Y-104928267D01*
X115563965Y-105023474D01*
X115563974Y-105023478D01*
X115781568Y-105081781D01*
X115781578Y-105081783D01*
X116005999Y-105101418D01*
X116006001Y-105101418D01*
X116230421Y-105081783D01*
X116230431Y-105081781D01*
X116448025Y-105023478D01*
X116448034Y-105023474D01*
X116652208Y-104928267D01*
X116652212Y-104928265D01*
X116722497Y-104879050D01*
X116155822Y-104312375D01*
X116208642Y-104298222D01*
X116328357Y-104229104D01*
X116426104Y-104131357D01*
X116495222Y-104011642D01*
X116509375Y-103958822D01*
X117076050Y-104525497D01*
X117125265Y-104455212D01*
X117125267Y-104455208D01*
X117220474Y-104251034D01*
X117220478Y-104251025D01*
X117278781Y-104033431D01*
X117278783Y-104033421D01*
X117298418Y-103809000D01*
X117298418Y-103808999D01*
X117278783Y-103584578D01*
X117278781Y-103584568D01*
X117220478Y-103366974D01*
X117220474Y-103366965D01*
X117125267Y-103162791D01*
X117076049Y-103092501D01*
X116509374Y-103659176D01*
X116495222Y-103606358D01*
X116426104Y-103486643D01*
X116328357Y-103388896D01*
X116208642Y-103319778D01*
X116155822Y-103305624D01*
X116722497Y-102738949D01*
X116722497Y-102738948D01*
X116652209Y-102689733D01*
X116652207Y-102689732D01*
X116479046Y-102608986D01*
X152706001Y-102608986D01*
X152716494Y-102711697D01*
X152771641Y-102878119D01*
X152771643Y-102878124D01*
X152863684Y-103027345D01*
X152987654Y-103151315D01*
X153136875Y-103243356D01*
X153136880Y-103243358D01*
X153303302Y-103298505D01*
X153303309Y-103298506D01*
X153406019Y-103308999D01*
X153655999Y-103308999D01*
X153656000Y-103308998D01*
X153656000Y-102459000D01*
X152706001Y-102459000D01*
X152706001Y-102608986D01*
X116479046Y-102608986D01*
X116448034Y-102594525D01*
X116448025Y-102594521D01*
X116230431Y-102536218D01*
X116230421Y-102536216D01*
X116006001Y-102516582D01*
X116005999Y-102516582D01*
X115781578Y-102536216D01*
X115781568Y-102536218D01*
X115563974Y-102594521D01*
X115563965Y-102594525D01*
X115359787Y-102689735D01*
X115289502Y-102738948D01*
X115289501Y-102738949D01*
X115856177Y-103305624D01*
X115803358Y-103319778D01*
X115683643Y-103388896D01*
X115585896Y-103486643D01*
X115516778Y-103606358D01*
X115502625Y-103659177D01*
X114935949Y-103092501D01*
X114935948Y-103092502D01*
X114886735Y-103162787D01*
X114791525Y-103366965D01*
X114791521Y-103366974D01*
X114733218Y-103584568D01*
X114733216Y-103584578D01*
X114713582Y-103808999D01*
X110031000Y-103808999D01*
X110031000Y-103739882D01*
X109995222Y-103606358D01*
X109967880Y-103559000D01*
X110793500Y-103559000D01*
X110793500Y-102973672D01*
X110793499Y-102973655D01*
X110787098Y-102914127D01*
X110787096Y-102914120D01*
X110736854Y-102779413D01*
X110736850Y-102779406D01*
X110650690Y-102664312D01*
X110650687Y-102664309D01*
X110535593Y-102578149D01*
X110535586Y-102578145D01*
X110400879Y-102527903D01*
X110400872Y-102527901D01*
X110341344Y-102521500D01*
X109756000Y-102521500D01*
X109756000Y-103347120D01*
X109708642Y-103319778D01*
X109575118Y-103284000D01*
X109436882Y-103284000D01*
X109303358Y-103319778D01*
X109256000Y-103347120D01*
X109256000Y-102521500D01*
X108670655Y-102521500D01*
X108611127Y-102527901D01*
X108611120Y-102527903D01*
X108476413Y-102578145D01*
X108476406Y-102578149D01*
X108361312Y-102664309D01*
X108361309Y-102664312D01*
X108275149Y-102779406D01*
X108275145Y-102779413D01*
X108224903Y-102914120D01*
X108224901Y-102914127D01*
X108218500Y-102973655D01*
X107731316Y-102973655D01*
X107654695Y-102897034D01*
X107621210Y-102835711D01*
X107626194Y-102766019D01*
X107654691Y-102721676D01*
X107748712Y-102627656D01*
X107840814Y-102478334D01*
X107895999Y-102311797D01*
X107906500Y-102209009D01*
X107906499Y-101408992D01*
X107900813Y-101353334D01*
X107895999Y-101306203D01*
X107895998Y-101306200D01*
X107881247Y-101261686D01*
X107840814Y-101139666D01*
X107748712Y-100990344D01*
X107627831Y-100869463D01*
X107594346Y-100808140D01*
X107599330Y-100738448D01*
X107641202Y-100682515D01*
X107649218Y-100677058D01*
X107649650Y-100676715D01*
X107649656Y-100676712D01*
X107773712Y-100552656D01*
X107865814Y-100403334D01*
X107920999Y-100236797D01*
X107931500Y-100134009D01*
X107931499Y-99358992D01*
X107926392Y-99309002D01*
X107920999Y-99256203D01*
X107920998Y-99256200D01*
X107865814Y-99089666D01*
X107773712Y-98940344D01*
X107649656Y-98816288D01*
X107646819Y-98814538D01*
X107645283Y-98812830D01*
X107643989Y-98811807D01*
X107644163Y-98811585D01*
X107600096Y-98762594D01*
X107588872Y-98693632D01*
X107616713Y-98629549D01*
X107646817Y-98603462D01*
X107649656Y-98601712D01*
X107694208Y-98557159D01*
X107755529Y-98523675D01*
X107825220Y-98528659D01*
X107869569Y-98557160D01*
X108216793Y-98904383D01*
X108250278Y-98965706D01*
X108248887Y-99024157D01*
X108232722Y-99084484D01*
X108232722Y-99084487D01*
X108228609Y-99131500D01*
X108213080Y-99308998D01*
X108213080Y-99309002D01*
X108232721Y-99533507D01*
X108232722Y-99533514D01*
X108291051Y-99751200D01*
X108291055Y-99751211D01*
X108332619Y-99840345D01*
X108386298Y-99955460D01*
X108515566Y-100140073D01*
X108674927Y-100299434D01*
X108859540Y-100428702D01*
X108982424Y-100486003D01*
X109063788Y-100523944D01*
X109063790Y-100523944D01*
X109063795Y-100523947D01*
X109281487Y-100582278D01*
X109441853Y-100596308D01*
X109505998Y-100601920D01*
X109506000Y-100601920D01*
X109506002Y-100601920D01*
X109567849Y-100596509D01*
X109730513Y-100582278D01*
X109948205Y-100523947D01*
X110152460Y-100428702D01*
X110337073Y-100299434D01*
X110496434Y-100140073D01*
X110603355Y-99987374D01*
X110657930Y-99943751D01*
X110704928Y-99934500D01*
X114807072Y-99934500D01*
X114874111Y-99954185D01*
X114908643Y-99987372D01*
X115015566Y-100140073D01*
X115174927Y-100299434D01*
X115359540Y-100428702D01*
X115482424Y-100486003D01*
X115563788Y-100523944D01*
X115563790Y-100523944D01*
X115563795Y-100523947D01*
X115781487Y-100582278D01*
X115941853Y-100596308D01*
X116005998Y-100601920D01*
X116006000Y-100601920D01*
X116006002Y-100601920D01*
X116067849Y-100596509D01*
X116230513Y-100582278D01*
X116448205Y-100523947D01*
X116652460Y-100428702D01*
X116837073Y-100299434D01*
X116877524Y-100258983D01*
X120305500Y-100258983D01*
X120305500Y-101059001D01*
X120305501Y-101059019D01*
X120316000Y-101161796D01*
X120316001Y-101161799D01*
X120363852Y-101306203D01*
X120371186Y-101328334D01*
X120463288Y-101477656D01*
X120587344Y-101601712D01*
X120736666Y-101693814D01*
X120903203Y-101748999D01*
X121005991Y-101759500D01*
X122006008Y-101759499D01*
X122006016Y-101759498D01*
X122006019Y-101759498D01*
X122062302Y-101753748D01*
X122108797Y-101748999D01*
X122275334Y-101693814D01*
X122424656Y-101601712D01*
X122545539Y-101480828D01*
X122606858Y-101447346D01*
X122676550Y-101452330D01*
X122732484Y-101494201D01*
X122737938Y-101502214D01*
X122738288Y-101502656D01*
X122862344Y-101626712D01*
X123011666Y-101718814D01*
X123178203Y-101773999D01*
X123280991Y-101784500D01*
X124331008Y-101784499D01*
X124331016Y-101784498D01*
X124331019Y-101784498D01*
X124387302Y-101778748D01*
X124433797Y-101773999D01*
X124600334Y-101718814D01*
X124749656Y-101626712D01*
X124873712Y-101502656D01*
X124965814Y-101353334D01*
X125020999Y-101186797D01*
X125031500Y-101084009D01*
X125031499Y-100308992D01*
X125020999Y-100206203D01*
X124965814Y-100039666D01*
X124873712Y-99890344D01*
X124792351Y-99808983D01*
X152705500Y-99808983D01*
X152705500Y-100609001D01*
X152705501Y-100609019D01*
X152716000Y-100711796D01*
X152716001Y-100711799D01*
X152771185Y-100878331D01*
X152771187Y-100878336D01*
X152863289Y-101027657D01*
X152957304Y-101121672D01*
X152990789Y-101182995D01*
X152985805Y-101252687D01*
X152957305Y-101297034D01*
X152863682Y-101390657D01*
X152771643Y-101539875D01*
X152771641Y-101539880D01*
X152716494Y-101706302D01*
X152716493Y-101706309D01*
X152706000Y-101809013D01*
X152706000Y-101959000D01*
X154032000Y-101959000D01*
X154099039Y-101978685D01*
X154144794Y-102031489D01*
X154156000Y-102083000D01*
X154156000Y-103308999D01*
X154405972Y-103308999D01*
X154405986Y-103308998D01*
X154508697Y-103298505D01*
X154675119Y-103243358D01*
X154675124Y-103243356D01*
X154824345Y-103151315D01*
X154874214Y-103101446D01*
X154935537Y-103067960D01*
X155005229Y-103072944D01*
X155049577Y-103101445D01*
X155162344Y-103214212D01*
X155311666Y-103306314D01*
X155478203Y-103361499D01*
X155580991Y-103372000D01*
X156631008Y-103371999D01*
X156631016Y-103371998D01*
X156631019Y-103371998D01*
X156687302Y-103366248D01*
X156733797Y-103361499D01*
X156900334Y-103306314D01*
X157049656Y-103214212D01*
X157173712Y-103090156D01*
X157245570Y-102973655D01*
X158218500Y-102973655D01*
X158218500Y-103559000D01*
X159044120Y-103559000D01*
X159016778Y-103606358D01*
X158981000Y-103739882D01*
X158981000Y-103878118D01*
X159016778Y-104011642D01*
X159044120Y-104059000D01*
X158218500Y-104059000D01*
X158218500Y-104644344D01*
X158224901Y-104703872D01*
X158224903Y-104703879D01*
X158275145Y-104838586D01*
X158275149Y-104838593D01*
X158361309Y-104953687D01*
X158361312Y-104953690D01*
X158476406Y-105039850D01*
X158476413Y-105039854D01*
X158611120Y-105090096D01*
X158611127Y-105090098D01*
X158670655Y-105096499D01*
X158670672Y-105096500D01*
X159256000Y-105096500D01*
X159256000Y-104270879D01*
X159303358Y-104298222D01*
X159436882Y-104334000D01*
X159575118Y-104334000D01*
X159708642Y-104298222D01*
X159756000Y-104270879D01*
X159756000Y-105096500D01*
X160341328Y-105096500D01*
X160341344Y-105096499D01*
X160400872Y-105090098D01*
X160400879Y-105090096D01*
X160535586Y-105039854D01*
X160535593Y-105039850D01*
X160650687Y-104953690D01*
X160650690Y-104953687D01*
X160736850Y-104838593D01*
X160736854Y-104838586D01*
X160787096Y-104703879D01*
X160787098Y-104703872D01*
X160793499Y-104644344D01*
X160793500Y-104644327D01*
X160793500Y-104059000D01*
X159967880Y-104059000D01*
X159995222Y-104011642D01*
X160031000Y-103878118D01*
X160031000Y-103808999D01*
X164713582Y-103808999D01*
X164713582Y-103809000D01*
X164733216Y-104033421D01*
X164733218Y-104033431D01*
X164791521Y-104251025D01*
X164791525Y-104251034D01*
X164886732Y-104455207D01*
X164886733Y-104455209D01*
X164935949Y-104525497D01*
X165502624Y-103958822D01*
X165516778Y-104011642D01*
X165585896Y-104131357D01*
X165683643Y-104229104D01*
X165803358Y-104298222D01*
X165856177Y-104312375D01*
X165289501Y-104879049D01*
X165359791Y-104928267D01*
X165563965Y-105023474D01*
X165563974Y-105023478D01*
X165781568Y-105081781D01*
X165781578Y-105081783D01*
X166005999Y-105101418D01*
X166006001Y-105101418D01*
X166230421Y-105081783D01*
X166230431Y-105081781D01*
X166448025Y-105023478D01*
X166448034Y-105023474D01*
X166652208Y-104928267D01*
X166652212Y-104928265D01*
X166722497Y-104879050D01*
X166155822Y-104312375D01*
X166208642Y-104298222D01*
X166328357Y-104229104D01*
X166426104Y-104131357D01*
X166495222Y-104011642D01*
X166509375Y-103958822D01*
X167076050Y-104525497D01*
X167125265Y-104455212D01*
X167125267Y-104455208D01*
X167220474Y-104251034D01*
X167220478Y-104251025D01*
X167264237Y-104087711D01*
X172555500Y-104087711D01*
X172555500Y-104330288D01*
X172587161Y-104570785D01*
X172649947Y-104805104D01*
X172711494Y-104953690D01*
X172742776Y-105029212D01*
X172864064Y-105239289D01*
X172864066Y-105239292D01*
X172864067Y-105239293D01*
X173011733Y-105431736D01*
X173011739Y-105431743D01*
X173183256Y-105603260D01*
X173183262Y-105603265D01*
X173375711Y-105750936D01*
X173585788Y-105872224D01*
X173809900Y-105965054D01*
X174044211Y-106027838D01*
X174224586Y-106051584D01*
X174284711Y-106059500D01*
X174284712Y-106059500D01*
X174527289Y-106059500D01*
X174575388Y-106053167D01*
X174767789Y-106027838D01*
X175002100Y-105965054D01*
X175226212Y-105872224D01*
X175436289Y-105750936D01*
X175628738Y-105603265D01*
X175800265Y-105431738D01*
X175947936Y-105239289D01*
X176069224Y-105029212D01*
X176162054Y-104805100D01*
X176224838Y-104570789D01*
X176256500Y-104330288D01*
X176256500Y-104087712D01*
X176224838Y-103847211D01*
X176162054Y-103612900D01*
X176069224Y-103388788D01*
X175947936Y-103178711D01*
X175831789Y-103027345D01*
X175800266Y-102986263D01*
X175800260Y-102986256D01*
X175628743Y-102814739D01*
X175628736Y-102814733D01*
X175436293Y-102667067D01*
X175436292Y-102667066D01*
X175436289Y-102667064D01*
X175226212Y-102545776D01*
X175183058Y-102527901D01*
X175002104Y-102452947D01*
X174767785Y-102390161D01*
X174527289Y-102358500D01*
X174527288Y-102358500D01*
X174284712Y-102358500D01*
X174284711Y-102358500D01*
X174044214Y-102390161D01*
X173809895Y-102452947D01*
X173585794Y-102545773D01*
X173585785Y-102545777D01*
X173375706Y-102667067D01*
X173183263Y-102814733D01*
X173183256Y-102814739D01*
X173011739Y-102986256D01*
X173011733Y-102986263D01*
X172864067Y-103178706D01*
X172742777Y-103388785D01*
X172742773Y-103388794D01*
X172649947Y-103612895D01*
X172587161Y-103847214D01*
X172555500Y-104087711D01*
X167264237Y-104087711D01*
X167278781Y-104033431D01*
X167278783Y-104033421D01*
X167298418Y-103809000D01*
X167298418Y-103808999D01*
X167278783Y-103584578D01*
X167278781Y-103584568D01*
X167220478Y-103366974D01*
X167220474Y-103366965D01*
X167125267Y-103162791D01*
X167076049Y-103092501D01*
X166509374Y-103659176D01*
X166495222Y-103606358D01*
X166426104Y-103486643D01*
X166328357Y-103388896D01*
X166208642Y-103319778D01*
X166155822Y-103305624D01*
X166722497Y-102738949D01*
X166722497Y-102738948D01*
X166652209Y-102689733D01*
X166652207Y-102689732D01*
X166448034Y-102594525D01*
X166448025Y-102594521D01*
X166230431Y-102536218D01*
X166230421Y-102536216D01*
X166006001Y-102516582D01*
X166005999Y-102516582D01*
X165781578Y-102536216D01*
X165781568Y-102536218D01*
X165563974Y-102594521D01*
X165563965Y-102594525D01*
X165359787Y-102689735D01*
X165289502Y-102738948D01*
X165289501Y-102738949D01*
X165856177Y-103305624D01*
X165803358Y-103319778D01*
X165683643Y-103388896D01*
X165585896Y-103486643D01*
X165516778Y-103606358D01*
X165502625Y-103659177D01*
X164935949Y-103092501D01*
X164935948Y-103092502D01*
X164886735Y-103162787D01*
X164791525Y-103366965D01*
X164791521Y-103366974D01*
X164733218Y-103584568D01*
X164733216Y-103584578D01*
X164713582Y-103808999D01*
X160031000Y-103808999D01*
X160031000Y-103739882D01*
X159995222Y-103606358D01*
X159967880Y-103559000D01*
X160793500Y-103559000D01*
X160793500Y-102973672D01*
X160793499Y-102973655D01*
X160787098Y-102914127D01*
X160787096Y-102914120D01*
X160736854Y-102779413D01*
X160736850Y-102779406D01*
X160650690Y-102664312D01*
X160650687Y-102664309D01*
X160535593Y-102578149D01*
X160535586Y-102578145D01*
X160400879Y-102527903D01*
X160400872Y-102527901D01*
X160341344Y-102521500D01*
X159756000Y-102521500D01*
X159756000Y-103347120D01*
X159708642Y-103319778D01*
X159575118Y-103284000D01*
X159436882Y-103284000D01*
X159303358Y-103319778D01*
X159256000Y-103347120D01*
X159256000Y-102521500D01*
X158670655Y-102521500D01*
X158611127Y-102527901D01*
X158611120Y-102527903D01*
X158476413Y-102578145D01*
X158476406Y-102578149D01*
X158361312Y-102664309D01*
X158361309Y-102664312D01*
X158275149Y-102779406D01*
X158275145Y-102779413D01*
X158224903Y-102914120D01*
X158224901Y-102914127D01*
X158218500Y-102973655D01*
X157245570Y-102973655D01*
X157265814Y-102940834D01*
X157320999Y-102774297D01*
X157331500Y-102671509D01*
X157331499Y-102419450D01*
X157351183Y-102352412D01*
X157367813Y-102331775D01*
X159101385Y-100598204D01*
X159162706Y-100564721D01*
X159221159Y-100566113D01*
X159281479Y-100582276D01*
X159281480Y-100582276D01*
X159281487Y-100582278D01*
X159472564Y-100598994D01*
X159505998Y-100601920D01*
X159506000Y-100601920D01*
X159506002Y-100601920D01*
X159567849Y-100596509D01*
X159730513Y-100582278D01*
X159948205Y-100523947D01*
X160152460Y-100428702D01*
X160337073Y-100299434D01*
X160496434Y-100140073D01*
X160625702Y-99955460D01*
X160720947Y-99751205D01*
X160779278Y-99533513D01*
X160798920Y-99309000D01*
X160798920Y-99308997D01*
X164713080Y-99308997D01*
X164713080Y-99309002D01*
X164732721Y-99533507D01*
X164732722Y-99533514D01*
X164791051Y-99751200D01*
X164791055Y-99751211D01*
X164832619Y-99840345D01*
X164886298Y-99955460D01*
X165015566Y-100140073D01*
X165174927Y-100299434D01*
X165359540Y-100428702D01*
X165482424Y-100486003D01*
X165563788Y-100523944D01*
X165563790Y-100523944D01*
X165563795Y-100523947D01*
X165781487Y-100582278D01*
X165941853Y-100596308D01*
X166005998Y-100601920D01*
X166006000Y-100601920D01*
X166006002Y-100601920D01*
X166067849Y-100596509D01*
X166230513Y-100582278D01*
X166448205Y-100523947D01*
X166652460Y-100428702D01*
X166837073Y-100299434D01*
X166996434Y-100140073D01*
X167125702Y-99955460D01*
X167220947Y-99751205D01*
X167279278Y-99533513D01*
X167298920Y-99309000D01*
X167279278Y-99084487D01*
X167220947Y-98866795D01*
X167125702Y-98662540D01*
X166996434Y-98477927D01*
X166837073Y-98318566D01*
X166716298Y-98233998D01*
X166652466Y-98189302D01*
X166652463Y-98189300D01*
X166652460Y-98189298D01*
X166593488Y-98161799D01*
X166448211Y-98094055D01*
X166448200Y-98094051D01*
X166230514Y-98035722D01*
X166230507Y-98035721D01*
X166006002Y-98016080D01*
X166005998Y-98016080D01*
X165781492Y-98035721D01*
X165781485Y-98035722D01*
X165563799Y-98094051D01*
X165563788Y-98094055D01*
X165359543Y-98189296D01*
X165359533Y-98189302D01*
X165174926Y-98318566D01*
X165015566Y-98477926D01*
X164886302Y-98662533D01*
X164886296Y-98662543D01*
X164791055Y-98866788D01*
X164791051Y-98866799D01*
X164732722Y-99084485D01*
X164732721Y-99084492D01*
X164713080Y-99308997D01*
X160798920Y-99308997D01*
X160779278Y-99084487D01*
X160720947Y-98866795D01*
X160625702Y-98662540D01*
X160496434Y-98477927D01*
X160337073Y-98318566D01*
X160216298Y-98233998D01*
X160152466Y-98189302D01*
X160152463Y-98189300D01*
X160152460Y-98189298D01*
X160093488Y-98161799D01*
X159948211Y-98094055D01*
X159948200Y-98094051D01*
X159730514Y-98035722D01*
X159730507Y-98035721D01*
X159506002Y-98016080D01*
X159505998Y-98016080D01*
X159281492Y-98035721D01*
X159281485Y-98035722D01*
X159063799Y-98094051D01*
X159063788Y-98094055D01*
X158859543Y-98189296D01*
X158859533Y-98189302D01*
X158674926Y-98318566D01*
X158515566Y-98477926D01*
X158386302Y-98662533D01*
X158386296Y-98662543D01*
X158291055Y-98866788D01*
X158291051Y-98866799D01*
X158232722Y-99084485D01*
X158232721Y-99084492D01*
X158213080Y-99308997D01*
X158213080Y-99309002D01*
X158232721Y-99533507D01*
X158232724Y-99533521D01*
X158248886Y-99593842D01*
X158247223Y-99663692D01*
X158216792Y-99713615D01*
X157543180Y-100387227D01*
X157481857Y-100420712D01*
X157412165Y-100415728D01*
X157356232Y-100373856D01*
X157331815Y-100308392D01*
X157331499Y-100299563D01*
X157331499Y-99821492D01*
X157325379Y-99761585D01*
X157320999Y-99718703D01*
X157320998Y-99718700D01*
X157316857Y-99706203D01*
X157265814Y-99552166D01*
X157173712Y-99402844D01*
X157049656Y-99278788D01*
X156900334Y-99186686D01*
X156733797Y-99131501D01*
X156733795Y-99131500D01*
X156631010Y-99121000D01*
X155580998Y-99121000D01*
X155580980Y-99121001D01*
X155478203Y-99131500D01*
X155478200Y-99131501D01*
X155311668Y-99186685D01*
X155311663Y-99186687D01*
X155162342Y-99278789D01*
X155087431Y-99353701D01*
X155026108Y-99387186D01*
X154956416Y-99382202D01*
X154912069Y-99353701D01*
X154824657Y-99266289D01*
X154824656Y-99266288D01*
X154731888Y-99209069D01*
X154675336Y-99174187D01*
X154675331Y-99174185D01*
X154673862Y-99173698D01*
X154508797Y-99119001D01*
X154508795Y-99119000D01*
X154406010Y-99108500D01*
X153405998Y-99108500D01*
X153405980Y-99108501D01*
X153303203Y-99119000D01*
X153303200Y-99119001D01*
X153136668Y-99174185D01*
X153136663Y-99174187D01*
X152987342Y-99266289D01*
X152863289Y-99390342D01*
X152771187Y-99539663D01*
X152771185Y-99539668D01*
X152757970Y-99579549D01*
X152716001Y-99706203D01*
X152716001Y-99706204D01*
X152716000Y-99706204D01*
X152705500Y-99808983D01*
X124792351Y-99808983D01*
X124749656Y-99766288D01*
X124746819Y-99764538D01*
X124745283Y-99762830D01*
X124743989Y-99761807D01*
X124744163Y-99761585D01*
X124700096Y-99712594D01*
X124688872Y-99643632D01*
X124716713Y-99579549D01*
X124746817Y-99553462D01*
X124749656Y-99551712D01*
X124873712Y-99427656D01*
X124965814Y-99278334D01*
X125020999Y-99111797D01*
X125031500Y-99009009D01*
X125031499Y-98233992D01*
X125026933Y-98189298D01*
X125020999Y-98131203D01*
X125020998Y-98131200D01*
X125000856Y-98070416D01*
X124965814Y-97964666D01*
X124873712Y-97815344D01*
X124749656Y-97691288D01*
X124600334Y-97599186D01*
X124516495Y-97571404D01*
X124459051Y-97531632D01*
X124432228Y-97467116D01*
X124431500Y-97453699D01*
X124431500Y-96319451D01*
X124451185Y-96252412D01*
X124467810Y-96231779D01*
X124601385Y-96098203D01*
X124662704Y-96064721D01*
X124721155Y-96066111D01*
X124781487Y-96082278D01*
X124941853Y-96096308D01*
X125005998Y-96101920D01*
X125006000Y-96101920D01*
X125006002Y-96101920D01*
X125062128Y-96097009D01*
X125230513Y-96082278D01*
X125448205Y-96023947D01*
X125652460Y-95928702D01*
X125837073Y-95799434D01*
X125996434Y-95640073D01*
X126125702Y-95455460D01*
X126220947Y-95251205D01*
X126279278Y-95033513D01*
X126298920Y-94809000D01*
X126298920Y-94808999D01*
X149213582Y-94808999D01*
X149213582Y-94809000D01*
X149233216Y-95033421D01*
X149233218Y-95033431D01*
X149291521Y-95251025D01*
X149291525Y-95251034D01*
X149386732Y-95455207D01*
X149386733Y-95455209D01*
X149435949Y-95525497D01*
X150002624Y-94958822D01*
X150016778Y-95011642D01*
X150085896Y-95131357D01*
X150183643Y-95229104D01*
X150303358Y-95298222D01*
X150356177Y-95312375D01*
X149789501Y-95879049D01*
X149859791Y-95928267D01*
X150063965Y-96023474D01*
X150063974Y-96023478D01*
X150281568Y-96081781D01*
X150281578Y-96081783D01*
X150505999Y-96101418D01*
X150506001Y-96101418D01*
X150730421Y-96081783D01*
X150730431Y-96081781D01*
X150948025Y-96023478D01*
X150948034Y-96023474D01*
X151152208Y-95928267D01*
X151152212Y-95928265D01*
X151222497Y-95879050D01*
X150655822Y-95312375D01*
X150708642Y-95298222D01*
X150828357Y-95229104D01*
X150926104Y-95131357D01*
X150995222Y-95011642D01*
X151009375Y-94958822D01*
X151576050Y-95525497D01*
X151625265Y-95455212D01*
X151625267Y-95455208D01*
X151720474Y-95251034D01*
X151720478Y-95251025D01*
X151778781Y-95033431D01*
X151778783Y-95033421D01*
X151798418Y-94809000D01*
X151798418Y-94808999D01*
X151798418Y-94808997D01*
X153713080Y-94808997D01*
X153713080Y-94809002D01*
X153732721Y-95033507D01*
X153732722Y-95033514D01*
X153791051Y-95251200D01*
X153791055Y-95251211D01*
X153886296Y-95455456D01*
X153886302Y-95455466D01*
X153994699Y-95610272D01*
X154015566Y-95640073D01*
X154174927Y-95799434D01*
X154359540Y-95928702D01*
X154482424Y-95986003D01*
X154563788Y-96023944D01*
X154563790Y-96023944D01*
X154563795Y-96023947D01*
X154781487Y-96082278D01*
X154941853Y-96096308D01*
X155005998Y-96101920D01*
X155006000Y-96101920D01*
X155006002Y-96101920D01*
X155062128Y-96097009D01*
X155230513Y-96082278D01*
X155448205Y-96023947D01*
X155652460Y-95928702D01*
X155837073Y-95799434D01*
X155996434Y-95640073D01*
X156125702Y-95455460D01*
X156220947Y-95251205D01*
X156279278Y-95033513D01*
X156298920Y-94809000D01*
X156298920Y-94808999D01*
X169213582Y-94808999D01*
X169213582Y-94809000D01*
X169233216Y-95033421D01*
X169233218Y-95033431D01*
X169291521Y-95251025D01*
X169291525Y-95251034D01*
X169386732Y-95455207D01*
X169386733Y-95455209D01*
X169435949Y-95525497D01*
X170002624Y-94958822D01*
X170016778Y-95011642D01*
X170085896Y-95131357D01*
X170183643Y-95229104D01*
X170303358Y-95298222D01*
X170356177Y-95312375D01*
X169789501Y-95879049D01*
X169859791Y-95928267D01*
X170063965Y-96023474D01*
X170063974Y-96023478D01*
X170281568Y-96081781D01*
X170281578Y-96081783D01*
X170505999Y-96101418D01*
X170506001Y-96101418D01*
X170730421Y-96081783D01*
X170730431Y-96081781D01*
X170948025Y-96023478D01*
X170948034Y-96023474D01*
X171152208Y-95928267D01*
X171152212Y-95928265D01*
X171222497Y-95879050D01*
X170655822Y-95312375D01*
X170708642Y-95298222D01*
X170828357Y-95229104D01*
X170926104Y-95131357D01*
X170995222Y-95011642D01*
X171009375Y-94958822D01*
X171576050Y-95525497D01*
X171625265Y-95455212D01*
X171625267Y-95455208D01*
X171720474Y-95251034D01*
X171720478Y-95251025D01*
X171778781Y-95033431D01*
X171778783Y-95033421D01*
X171798418Y-94809000D01*
X171798418Y-94808999D01*
X171798418Y-94808997D01*
X173713080Y-94808997D01*
X173713080Y-94809002D01*
X173732721Y-95033507D01*
X173732722Y-95033514D01*
X173791051Y-95251200D01*
X173791055Y-95251211D01*
X173886296Y-95455456D01*
X173886302Y-95455466D01*
X173994699Y-95610272D01*
X174015566Y-95640073D01*
X174174927Y-95799434D01*
X174359540Y-95928702D01*
X174482424Y-95986003D01*
X174563788Y-96023944D01*
X174563790Y-96023944D01*
X174563795Y-96023947D01*
X174781487Y-96082278D01*
X174941853Y-96096308D01*
X175005998Y-96101920D01*
X175006000Y-96101920D01*
X175006002Y-96101920D01*
X175062128Y-96097009D01*
X175230513Y-96082278D01*
X175448205Y-96023947D01*
X175652460Y-95928702D01*
X175837073Y-95799434D01*
X175996434Y-95640073D01*
X176125702Y-95455460D01*
X176220947Y-95251205D01*
X176279278Y-95033513D01*
X176298920Y-94809000D01*
X176279278Y-94584487D01*
X176220947Y-94366795D01*
X176125702Y-94162540D01*
X175996434Y-93977927D01*
X175837073Y-93818566D01*
X175653084Y-93689735D01*
X175652466Y-93689302D01*
X175652463Y-93689300D01*
X175652460Y-93689298D01*
X175652456Y-93689296D01*
X175448211Y-93594055D01*
X175448200Y-93594051D01*
X175230514Y-93535722D01*
X175230507Y-93535721D01*
X175006002Y-93516080D01*
X175005998Y-93516080D01*
X174781492Y-93535721D01*
X174781485Y-93535722D01*
X174563799Y-93594051D01*
X174563788Y-93594055D01*
X174359543Y-93689296D01*
X174359533Y-93689302D01*
X174174926Y-93818566D01*
X174015566Y-93977926D01*
X173886302Y-94162533D01*
X173886296Y-94162543D01*
X173791055Y-94366788D01*
X173791051Y-94366799D01*
X173732722Y-94584485D01*
X173732721Y-94584492D01*
X173713080Y-94808997D01*
X171798418Y-94808997D01*
X171778783Y-94584578D01*
X171778781Y-94584568D01*
X171720478Y-94366974D01*
X171720474Y-94366965D01*
X171625267Y-94162791D01*
X171576049Y-94092501D01*
X171009374Y-94659176D01*
X170995222Y-94606358D01*
X170926104Y-94486643D01*
X170828357Y-94388896D01*
X170708642Y-94319778D01*
X170655822Y-94305624D01*
X171222497Y-93738949D01*
X171222497Y-93738948D01*
X171152209Y-93689733D01*
X171152207Y-93689732D01*
X170948034Y-93594525D01*
X170948025Y-93594521D01*
X170730431Y-93536218D01*
X170730421Y-93536216D01*
X170506001Y-93516582D01*
X170505999Y-93516582D01*
X170281578Y-93536216D01*
X170281568Y-93536218D01*
X170063974Y-93594521D01*
X170063965Y-93594525D01*
X169859787Y-93689735D01*
X169789502Y-93738948D01*
X169789501Y-93738949D01*
X170356177Y-94305624D01*
X170303358Y-94319778D01*
X170183643Y-94388896D01*
X170085896Y-94486643D01*
X170016778Y-94606358D01*
X170002625Y-94659177D01*
X169435949Y-94092501D01*
X169435948Y-94092502D01*
X169386735Y-94162787D01*
X169291525Y-94366965D01*
X169291521Y-94366974D01*
X169233218Y-94584568D01*
X169233216Y-94584578D01*
X169213582Y-94808999D01*
X156298920Y-94808999D01*
X156279278Y-94584487D01*
X156220947Y-94366795D01*
X156125702Y-94162540D01*
X155996434Y-93977927D01*
X155837073Y-93818566D01*
X155653084Y-93689735D01*
X155652466Y-93689302D01*
X155652463Y-93689300D01*
X155652460Y-93689298D01*
X155652456Y-93689296D01*
X155448211Y-93594055D01*
X155448200Y-93594051D01*
X155230514Y-93535722D01*
X155230507Y-93535721D01*
X155006002Y-93516080D01*
X155005998Y-93516080D01*
X154781492Y-93535721D01*
X154781485Y-93535722D01*
X154563799Y-93594051D01*
X154563788Y-93594055D01*
X154359543Y-93689296D01*
X154359533Y-93689302D01*
X154174926Y-93818566D01*
X154015566Y-93977926D01*
X153886302Y-94162533D01*
X153886296Y-94162543D01*
X153791055Y-94366788D01*
X153791051Y-94366799D01*
X153732722Y-94584485D01*
X153732721Y-94584492D01*
X153713080Y-94808997D01*
X151798418Y-94808997D01*
X151778783Y-94584578D01*
X151778781Y-94584568D01*
X151720478Y-94366974D01*
X151720474Y-94366965D01*
X151625267Y-94162791D01*
X151576049Y-94092501D01*
X151009374Y-94659176D01*
X150995222Y-94606358D01*
X150926104Y-94486643D01*
X150828357Y-94388896D01*
X150708642Y-94319778D01*
X150655822Y-94305624D01*
X151222497Y-93738949D01*
X151222497Y-93738948D01*
X151152209Y-93689733D01*
X151152207Y-93689732D01*
X150948034Y-93594525D01*
X150948025Y-93594521D01*
X150730431Y-93536218D01*
X150730421Y-93536216D01*
X150506001Y-93516582D01*
X150505999Y-93516582D01*
X150281578Y-93536216D01*
X150281568Y-93536218D01*
X150063974Y-93594521D01*
X150063965Y-93594525D01*
X149859787Y-93689735D01*
X149789502Y-93738948D01*
X149789501Y-93738949D01*
X150356177Y-94305624D01*
X150303358Y-94319778D01*
X150183643Y-94388896D01*
X150085896Y-94486643D01*
X150016778Y-94606358D01*
X150002625Y-94659177D01*
X149435949Y-94092501D01*
X149435948Y-94092502D01*
X149386735Y-94162787D01*
X149291525Y-94366965D01*
X149291521Y-94366974D01*
X149233218Y-94584568D01*
X149233216Y-94584578D01*
X149213582Y-94808999D01*
X126298920Y-94808999D01*
X126279278Y-94584487D01*
X126220947Y-94366795D01*
X126125702Y-94162540D01*
X125996434Y-93977927D01*
X125837073Y-93818566D01*
X125653084Y-93689735D01*
X125652466Y-93689302D01*
X125652463Y-93689300D01*
X125652460Y-93689298D01*
X125652456Y-93689296D01*
X125448211Y-93594055D01*
X125448200Y-93594051D01*
X125230514Y-93535722D01*
X125230507Y-93535721D01*
X125006002Y-93516080D01*
X125005998Y-93516080D01*
X124781492Y-93535721D01*
X124781485Y-93535722D01*
X124563799Y-93594051D01*
X124563788Y-93594055D01*
X124359543Y-93689296D01*
X124359533Y-93689302D01*
X124174926Y-93818566D01*
X124015566Y-93977926D01*
X123886302Y-94162533D01*
X123886296Y-94162543D01*
X123791055Y-94366788D01*
X123791051Y-94366799D01*
X123732722Y-94584485D01*
X123732721Y-94584492D01*
X123713080Y-94808997D01*
X123713080Y-94809002D01*
X123732721Y-95033507D01*
X123732722Y-95033514D01*
X123748887Y-95093840D01*
X123747224Y-95163690D01*
X123716793Y-95213615D01*
X123407270Y-95523139D01*
X123320144Y-95610264D01*
X123320138Y-95610272D01*
X123251692Y-95712705D01*
X123251684Y-95712719D01*
X123218347Y-95793207D01*
X123215768Y-95799434D01*
X123204537Y-95826545D01*
X123204535Y-95826553D01*
X123180500Y-95947389D01*
X123180500Y-97453699D01*
X123160815Y-97520738D01*
X123108011Y-97566493D01*
X123095507Y-97571403D01*
X123062962Y-97582188D01*
X123011668Y-97599185D01*
X123011663Y-97599187D01*
X122862342Y-97691289D01*
X122738288Y-97815343D01*
X122733807Y-97821011D01*
X122732754Y-97820178D01*
X122686537Y-97861747D01*
X122617575Y-97872968D01*
X122553493Y-97845124D01*
X122545267Y-97837606D01*
X122424345Y-97716684D01*
X122275124Y-97624643D01*
X122275119Y-97624641D01*
X122108697Y-97569494D01*
X122108690Y-97569493D01*
X122005986Y-97559000D01*
X121756000Y-97559000D01*
X121756000Y-98785000D01*
X121736315Y-98852039D01*
X121683511Y-98897794D01*
X121632000Y-98909000D01*
X120306001Y-98909000D01*
X120306001Y-99058986D01*
X120316494Y-99161697D01*
X120371641Y-99328119D01*
X120371643Y-99328124D01*
X120463684Y-99477345D01*
X120557304Y-99570965D01*
X120590789Y-99632288D01*
X120585805Y-99701980D01*
X120557305Y-99746327D01*
X120463287Y-99840345D01*
X120371187Y-99989663D01*
X120371185Y-99989668D01*
X120354617Y-100039668D01*
X120316001Y-100156203D01*
X120316001Y-100156204D01*
X120316000Y-100156204D01*
X120305500Y-100258983D01*
X116877524Y-100258983D01*
X116996434Y-100140073D01*
X117125702Y-99955460D01*
X117220947Y-99751205D01*
X117279278Y-99533513D01*
X117298920Y-99309000D01*
X117279278Y-99084487D01*
X117220947Y-98866795D01*
X117125702Y-98662540D01*
X116996434Y-98477927D01*
X116837073Y-98318566D01*
X116752023Y-98259013D01*
X120306000Y-98259013D01*
X120306000Y-98409000D01*
X121256000Y-98409000D01*
X121256000Y-97559000D01*
X121006029Y-97559000D01*
X121006012Y-97559001D01*
X120903302Y-97569494D01*
X120736880Y-97624641D01*
X120736875Y-97624643D01*
X120587654Y-97716684D01*
X120463684Y-97840654D01*
X120371643Y-97989875D01*
X120371641Y-97989880D01*
X120316494Y-98156302D01*
X120316493Y-98156309D01*
X120306000Y-98259013D01*
X116752023Y-98259013D01*
X116716298Y-98233998D01*
X116652466Y-98189302D01*
X116652463Y-98189300D01*
X116652460Y-98189298D01*
X116593488Y-98161799D01*
X116448211Y-98094055D01*
X116448200Y-98094051D01*
X116230514Y-98035722D01*
X116230507Y-98035721D01*
X116006002Y-98016080D01*
X116005998Y-98016080D01*
X115781492Y-98035721D01*
X115781485Y-98035722D01*
X115563799Y-98094051D01*
X115563788Y-98094055D01*
X115359543Y-98189296D01*
X115359533Y-98189302D01*
X115174926Y-98318566D01*
X115015570Y-98477922D01*
X115015567Y-98477925D01*
X115015566Y-98477927D01*
X114908644Y-98630625D01*
X114854070Y-98674249D01*
X114807072Y-98683500D01*
X110704928Y-98683500D01*
X110637889Y-98663815D01*
X110603356Y-98630627D01*
X110496434Y-98477927D01*
X110337073Y-98318566D01*
X110216298Y-98233998D01*
X110152466Y-98189302D01*
X110152463Y-98189300D01*
X110152460Y-98189298D01*
X110093488Y-98161799D01*
X109948211Y-98094055D01*
X109948200Y-98094051D01*
X109730514Y-98035722D01*
X109730507Y-98035721D01*
X109506002Y-98016080D01*
X109505998Y-98016080D01*
X109356324Y-98029174D01*
X109281487Y-98035722D01*
X109281484Y-98035722D01*
X109221157Y-98051887D01*
X109151307Y-98050224D01*
X109101383Y-98019793D01*
X108361428Y-97279838D01*
X108361425Y-97279834D01*
X108361425Y-97279835D01*
X108354358Y-97272768D01*
X108354358Y-97272767D01*
X108267233Y-97185642D01*
X108267232Y-97185641D01*
X108267231Y-97185640D01*
X108216009Y-97151415D01*
X108164787Y-97117189D01*
X108164786Y-97117188D01*
X108164783Y-97117186D01*
X108164780Y-97117185D01*
X108084292Y-97083847D01*
X108050953Y-97070037D01*
X108040927Y-97068043D01*
X107990529Y-97058018D01*
X107981532Y-97056228D01*
X107931837Y-97046343D01*
X107869926Y-97013957D01*
X107850490Y-96989822D01*
X107773712Y-96865344D01*
X107649657Y-96741289D01*
X107649656Y-96741288D01*
X107500334Y-96649186D01*
X107333797Y-96594001D01*
X107333795Y-96594000D01*
X107231010Y-96583500D01*
X106180998Y-96583500D01*
X106180980Y-96583501D01*
X106078203Y-96594000D01*
X106078200Y-96594001D01*
X105911668Y-96649185D01*
X105911663Y-96649187D01*
X105762342Y-96741289D01*
X105638289Y-96865342D01*
X105546187Y-97014663D01*
X105546185Y-97014668D01*
X105531820Y-97058019D01*
X105491001Y-97181203D01*
X105491001Y-97181204D01*
X105491000Y-97181204D01*
X105480500Y-97283983D01*
X98206500Y-97283983D01*
X98206500Y-94808999D01*
X99213582Y-94808999D01*
X99213582Y-94809000D01*
X99233216Y-95033421D01*
X99233218Y-95033431D01*
X99291521Y-95251025D01*
X99291525Y-95251034D01*
X99386732Y-95455207D01*
X99386733Y-95455209D01*
X99435949Y-95525497D01*
X100002624Y-94958822D01*
X100016778Y-95011642D01*
X100085896Y-95131357D01*
X100183643Y-95229104D01*
X100303358Y-95298222D01*
X100356177Y-95312375D01*
X99789501Y-95879049D01*
X99859791Y-95928267D01*
X100063965Y-96023474D01*
X100063974Y-96023478D01*
X100281568Y-96081781D01*
X100281578Y-96081783D01*
X100505999Y-96101418D01*
X100506001Y-96101418D01*
X100730421Y-96081783D01*
X100730431Y-96081781D01*
X100948025Y-96023478D01*
X100948034Y-96023474D01*
X101152208Y-95928267D01*
X101152212Y-95928265D01*
X101222497Y-95879050D01*
X100655822Y-95312375D01*
X100708642Y-95298222D01*
X100828357Y-95229104D01*
X100926104Y-95131357D01*
X100995222Y-95011642D01*
X101009375Y-94958822D01*
X101576050Y-95525497D01*
X101625265Y-95455212D01*
X101625267Y-95455208D01*
X101720474Y-95251034D01*
X101720478Y-95251025D01*
X101778781Y-95033431D01*
X101778783Y-95033421D01*
X101798418Y-94809000D01*
X101798418Y-94808999D01*
X101798418Y-94808997D01*
X103713080Y-94808997D01*
X103713080Y-94809002D01*
X103732721Y-95033507D01*
X103732722Y-95033514D01*
X103791051Y-95251200D01*
X103791055Y-95251211D01*
X103886296Y-95455456D01*
X103886302Y-95455466D01*
X103994699Y-95610272D01*
X104015566Y-95640073D01*
X104174927Y-95799434D01*
X104359540Y-95928702D01*
X104482424Y-95986003D01*
X104563788Y-96023944D01*
X104563790Y-96023944D01*
X104563795Y-96023947D01*
X104781487Y-96082278D01*
X104941853Y-96096308D01*
X105005998Y-96101920D01*
X105006000Y-96101920D01*
X105006002Y-96101920D01*
X105062128Y-96097009D01*
X105230513Y-96082278D01*
X105448205Y-96023947D01*
X105652460Y-95928702D01*
X105837073Y-95799434D01*
X105996434Y-95640073D01*
X106125702Y-95455460D01*
X106220947Y-95251205D01*
X106279278Y-95033513D01*
X106298920Y-94809000D01*
X106298920Y-94808999D01*
X119213582Y-94808999D01*
X119213582Y-94809000D01*
X119233216Y-95033421D01*
X119233218Y-95033431D01*
X119291521Y-95251025D01*
X119291525Y-95251034D01*
X119386732Y-95455207D01*
X119386733Y-95455209D01*
X119435949Y-95525497D01*
X120002624Y-94958822D01*
X120016778Y-95011642D01*
X120085896Y-95131357D01*
X120183643Y-95229104D01*
X120303358Y-95298222D01*
X120356177Y-95312375D01*
X119789501Y-95879049D01*
X119859791Y-95928267D01*
X120063965Y-96023474D01*
X120063974Y-96023478D01*
X120281568Y-96081781D01*
X120281578Y-96081783D01*
X120505999Y-96101418D01*
X120506001Y-96101418D01*
X120730421Y-96081783D01*
X120730431Y-96081781D01*
X120948025Y-96023478D01*
X120948034Y-96023474D01*
X121152208Y-95928267D01*
X121152212Y-95928265D01*
X121222497Y-95879050D01*
X120655822Y-95312375D01*
X120708642Y-95298222D01*
X120828357Y-95229104D01*
X120926104Y-95131357D01*
X120995222Y-95011642D01*
X121009375Y-94958822D01*
X121576050Y-95525497D01*
X121625265Y-95455212D01*
X121625267Y-95455208D01*
X121720474Y-95251034D01*
X121720478Y-95251025D01*
X121778781Y-95033431D01*
X121778783Y-95033421D01*
X121798418Y-94809000D01*
X121798418Y-94808999D01*
X121778783Y-94584578D01*
X121778781Y-94584568D01*
X121720478Y-94366974D01*
X121720474Y-94366965D01*
X121625267Y-94162791D01*
X121576049Y-94092501D01*
X121009374Y-94659176D01*
X120995222Y-94606358D01*
X120926104Y-94486643D01*
X120828357Y-94388896D01*
X120708642Y-94319778D01*
X120655822Y-94305624D01*
X121222497Y-93738949D01*
X121222497Y-93738948D01*
X121152209Y-93689733D01*
X121152207Y-93689732D01*
X120948034Y-93594525D01*
X120948025Y-93594521D01*
X120730431Y-93536218D01*
X120730421Y-93536216D01*
X120506001Y-93516582D01*
X120505999Y-93516582D01*
X120281578Y-93536216D01*
X120281568Y-93536218D01*
X120063974Y-93594521D01*
X120063965Y-93594525D01*
X119859787Y-93689735D01*
X119789502Y-93738948D01*
X119789501Y-93738949D01*
X120356177Y-94305624D01*
X120303358Y-94319778D01*
X120183643Y-94388896D01*
X120085896Y-94486643D01*
X120016778Y-94606358D01*
X120002625Y-94659177D01*
X119435949Y-94092501D01*
X119435948Y-94092502D01*
X119386735Y-94162787D01*
X119291525Y-94366965D01*
X119291521Y-94366974D01*
X119233218Y-94584568D01*
X119233216Y-94584578D01*
X119213582Y-94808999D01*
X106298920Y-94808999D01*
X106279278Y-94584487D01*
X106220947Y-94366795D01*
X106125702Y-94162540D01*
X105996434Y-93977927D01*
X105837073Y-93818566D01*
X105653084Y-93689735D01*
X105652466Y-93689302D01*
X105652463Y-93689300D01*
X105652460Y-93689298D01*
X105652456Y-93689296D01*
X105448211Y-93594055D01*
X105448200Y-93594051D01*
X105230514Y-93535722D01*
X105230507Y-93535721D01*
X105006002Y-93516080D01*
X105005998Y-93516080D01*
X104781492Y-93535721D01*
X104781485Y-93535722D01*
X104563799Y-93594051D01*
X104563788Y-93594055D01*
X104359543Y-93689296D01*
X104359533Y-93689302D01*
X104174926Y-93818566D01*
X104015566Y-93977926D01*
X103886302Y-94162533D01*
X103886296Y-94162543D01*
X103791055Y-94366788D01*
X103791051Y-94366799D01*
X103732722Y-94584485D01*
X103732721Y-94584492D01*
X103713080Y-94808997D01*
X101798418Y-94808997D01*
X101778783Y-94584578D01*
X101778781Y-94584568D01*
X101720478Y-94366974D01*
X101720474Y-94366965D01*
X101625267Y-94162791D01*
X101576049Y-94092501D01*
X101009374Y-94659176D01*
X100995222Y-94606358D01*
X100926104Y-94486643D01*
X100828357Y-94388896D01*
X100708642Y-94319778D01*
X100655822Y-94305624D01*
X101222497Y-93738949D01*
X101222497Y-93738948D01*
X101152209Y-93689733D01*
X101152207Y-93689732D01*
X100948034Y-93594525D01*
X100948025Y-93594521D01*
X100730431Y-93536218D01*
X100730421Y-93536216D01*
X100506001Y-93516582D01*
X100505999Y-93516582D01*
X100281578Y-93536216D01*
X100281568Y-93536218D01*
X100063974Y-93594521D01*
X100063965Y-93594525D01*
X99859787Y-93689735D01*
X99789502Y-93738948D01*
X99789501Y-93738949D01*
X100356177Y-94305624D01*
X100303358Y-94319778D01*
X100183643Y-94388896D01*
X100085896Y-94486643D01*
X100016778Y-94606358D01*
X100002625Y-94659177D01*
X99435949Y-94092501D01*
X99435948Y-94092502D01*
X99386735Y-94162787D01*
X99291525Y-94366965D01*
X99291521Y-94366974D01*
X99233218Y-94584568D01*
X99233216Y-94584578D01*
X99213582Y-94808999D01*
X98206500Y-94808999D01*
X98206500Y-93508986D01*
X106806001Y-93508986D01*
X106816494Y-93611697D01*
X106871641Y-93778119D01*
X106871643Y-93778124D01*
X106963684Y-93927345D01*
X107087654Y-94051315D01*
X107236875Y-94143356D01*
X107236880Y-94143358D01*
X107403302Y-94198505D01*
X107403309Y-94198506D01*
X107506019Y-94208999D01*
X107655999Y-94208999D01*
X107656000Y-94208998D01*
X107656000Y-93259000D01*
X106806001Y-93259000D01*
X106806001Y-93508986D01*
X98206500Y-93508986D01*
X98206500Y-87473655D01*
X99218500Y-87473655D01*
X99218500Y-88059000D01*
X100044120Y-88059000D01*
X100016778Y-88106358D01*
X99981000Y-88239882D01*
X99981000Y-88378118D01*
X100016778Y-88511642D01*
X100044120Y-88559000D01*
X99218500Y-88559000D01*
X99218500Y-89144344D01*
X99224901Y-89203872D01*
X99224903Y-89203879D01*
X99275145Y-89338586D01*
X99275149Y-89338593D01*
X99361309Y-89453687D01*
X99361312Y-89453690D01*
X99476406Y-89539850D01*
X99476413Y-89539854D01*
X99611120Y-89590096D01*
X99611127Y-89590098D01*
X99670655Y-89596499D01*
X99670672Y-89596500D01*
X100256000Y-89596500D01*
X100256000Y-88770879D01*
X100303358Y-88798222D01*
X100436882Y-88834000D01*
X100575118Y-88834000D01*
X100708642Y-88798222D01*
X100756000Y-88770879D01*
X100756000Y-89596500D01*
X101341328Y-89596500D01*
X101341344Y-89596499D01*
X101400872Y-89590098D01*
X101400879Y-89590096D01*
X101535586Y-89539854D01*
X101535593Y-89539850D01*
X101650687Y-89453690D01*
X101650690Y-89453687D01*
X101736850Y-89338593D01*
X101736854Y-89338586D01*
X101787096Y-89203879D01*
X101787098Y-89203872D01*
X101793499Y-89144344D01*
X101793500Y-89144327D01*
X101793500Y-88559000D01*
X100967880Y-88559000D01*
X100995222Y-88511642D01*
X101031000Y-88378118D01*
X101031000Y-88308997D01*
X103713080Y-88308997D01*
X103713080Y-88309002D01*
X103732721Y-88533507D01*
X103732722Y-88533514D01*
X103791051Y-88751200D01*
X103791055Y-88751211D01*
X103886296Y-88955456D01*
X103886302Y-88955466D01*
X103908162Y-88986685D01*
X104015566Y-89140073D01*
X104174927Y-89299434D01*
X104359540Y-89428702D01*
X104472769Y-89481501D01*
X104563788Y-89523944D01*
X104563790Y-89523944D01*
X104563795Y-89523947D01*
X104781487Y-89582278D01*
X104941853Y-89596308D01*
X105005998Y-89601920D01*
X105006000Y-89601920D01*
X105006002Y-89601920D01*
X105037118Y-89599197D01*
X105230513Y-89582278D01*
X105290840Y-89566113D01*
X105360690Y-89567774D01*
X105410616Y-89598206D01*
X106744181Y-90931771D01*
X106777666Y-90993094D01*
X106780500Y-91019451D01*
X106780500Y-91134000D01*
X106780501Y-91134019D01*
X106791000Y-91236796D01*
X106791001Y-91236799D01*
X106846185Y-91403331D01*
X106846187Y-91403336D01*
X106881069Y-91459888D01*
X106938288Y-91552656D01*
X107062344Y-91676712D01*
X107106245Y-91703790D01*
X107138952Y-91723964D01*
X107185677Y-91775912D01*
X107196900Y-91844874D01*
X107169056Y-91908957D01*
X107138954Y-91935041D01*
X107087656Y-91966682D01*
X106963684Y-92090654D01*
X106871643Y-92239875D01*
X106871641Y-92239880D01*
X106816494Y-92406302D01*
X106816493Y-92406309D01*
X106806000Y-92509013D01*
X106806000Y-92759000D01*
X108032000Y-92759000D01*
X108099039Y-92778685D01*
X108144794Y-92831489D01*
X108156000Y-92883000D01*
X108156000Y-94208999D01*
X108305972Y-94208999D01*
X108305986Y-94208998D01*
X108408697Y-94198505D01*
X108575119Y-94143358D01*
X108575124Y-94143356D01*
X108724342Y-94051317D01*
X108817964Y-93957695D01*
X108879287Y-93924210D01*
X108948979Y-93929194D01*
X108993327Y-93957695D01*
X109087344Y-94051712D01*
X109236666Y-94143814D01*
X109403203Y-94198999D01*
X109505991Y-94209500D01*
X110306008Y-94209499D01*
X110306016Y-94209498D01*
X110306019Y-94209498D01*
X110362302Y-94203748D01*
X110408797Y-94198999D01*
X110575334Y-94143814D01*
X110724656Y-94051712D01*
X110848712Y-93927656D01*
X110940814Y-93778334D01*
X110995999Y-93611797D01*
X111006500Y-93509009D01*
X111006499Y-92508992D01*
X111005508Y-92499295D01*
X110995999Y-92406203D01*
X110995998Y-92406200D01*
X110946294Y-92256204D01*
X110940814Y-92239666D01*
X110848712Y-92090344D01*
X110724656Y-91966288D01*
X110688892Y-91944229D01*
X110673523Y-91934749D01*
X110626798Y-91882801D01*
X110615575Y-91813839D01*
X110643419Y-91749756D01*
X110673523Y-91723671D01*
X110705755Y-91703790D01*
X110749656Y-91676712D01*
X110873712Y-91552656D01*
X110965814Y-91403334D01*
X111020999Y-91236797D01*
X111031500Y-91134009D01*
X111031499Y-90083992D01*
X111029937Y-90068704D01*
X111020999Y-89981203D01*
X111020998Y-89981200D01*
X111005192Y-89933500D01*
X110965814Y-89814666D01*
X110873712Y-89665344D01*
X110749656Y-89541288D01*
X110635700Y-89471000D01*
X110600336Y-89449187D01*
X110600331Y-89449185D01*
X110598862Y-89448698D01*
X110433797Y-89394001D01*
X110433795Y-89394000D01*
X110331010Y-89383500D01*
X109555998Y-89383500D01*
X109555980Y-89383501D01*
X109453203Y-89394000D01*
X109453200Y-89394001D01*
X109286668Y-89449185D01*
X109286663Y-89449187D01*
X109137342Y-89541289D01*
X109013285Y-89665346D01*
X109011537Y-89668182D01*
X109009829Y-89669717D01*
X109008807Y-89671011D01*
X109008585Y-89670836D01*
X108959589Y-89714905D01*
X108890626Y-89726126D01*
X108826544Y-89698282D01*
X108800463Y-89668182D01*
X108798714Y-89665346D01*
X108674657Y-89541289D01*
X108674656Y-89541288D01*
X108560700Y-89471000D01*
X108525336Y-89449187D01*
X108525331Y-89449185D01*
X108523862Y-89448698D01*
X108358797Y-89394001D01*
X108358795Y-89394000D01*
X108256010Y-89383500D01*
X107480998Y-89383500D01*
X107480980Y-89383501D01*
X107378203Y-89394000D01*
X107378200Y-89394001D01*
X107211666Y-89449186D01*
X107211665Y-89449186D01*
X107183229Y-89466725D01*
X107115836Y-89485163D01*
X107049173Y-89464238D01*
X107030455Y-89448865D01*
X106295206Y-88713616D01*
X106261721Y-88652293D01*
X106263113Y-88593840D01*
X106279276Y-88533520D01*
X106279275Y-88533520D01*
X106279278Y-88533513D01*
X106298920Y-88309000D01*
X106279278Y-88084487D01*
X106220947Y-87866795D01*
X106125702Y-87662540D01*
X105996434Y-87477927D01*
X105992162Y-87473655D01*
X119218500Y-87473655D01*
X119218500Y-88059000D01*
X120044120Y-88059000D01*
X120016778Y-88106358D01*
X119981000Y-88239882D01*
X119981000Y-88378118D01*
X120016778Y-88511642D01*
X120044120Y-88559000D01*
X119218500Y-88559000D01*
X119218500Y-89144344D01*
X119224901Y-89203872D01*
X119224903Y-89203879D01*
X119275145Y-89338586D01*
X119275149Y-89338593D01*
X119361309Y-89453687D01*
X119361312Y-89453690D01*
X119476406Y-89539850D01*
X119476413Y-89539854D01*
X119611120Y-89590096D01*
X119611127Y-89590098D01*
X119670655Y-89596499D01*
X119670672Y-89596500D01*
X120256000Y-89596500D01*
X120256000Y-88770879D01*
X120303358Y-88798222D01*
X120436882Y-88834000D01*
X120575118Y-88834000D01*
X120708642Y-88798222D01*
X120756000Y-88770879D01*
X120756000Y-89596500D01*
X121341328Y-89596500D01*
X121341344Y-89596499D01*
X121400872Y-89590098D01*
X121400879Y-89590096D01*
X121535586Y-89539854D01*
X121535593Y-89539850D01*
X121650687Y-89453690D01*
X121650690Y-89453687D01*
X121736850Y-89338593D01*
X121736854Y-89338586D01*
X121787096Y-89203879D01*
X121787098Y-89203872D01*
X121793499Y-89144344D01*
X121793500Y-89144327D01*
X121793500Y-88559000D01*
X120967880Y-88559000D01*
X120995222Y-88511642D01*
X121031000Y-88378118D01*
X121031000Y-88308997D01*
X123713080Y-88308997D01*
X123713080Y-88309002D01*
X123732721Y-88533507D01*
X123732722Y-88533514D01*
X123791051Y-88751200D01*
X123791055Y-88751211D01*
X123886296Y-88955456D01*
X123886302Y-88955466D01*
X123908162Y-88986685D01*
X124015566Y-89140073D01*
X124174927Y-89299434D01*
X124359540Y-89428702D01*
X124472769Y-89481501D01*
X124563788Y-89523944D01*
X124563790Y-89523944D01*
X124563795Y-89523947D01*
X124781487Y-89582278D01*
X124941853Y-89596308D01*
X125005998Y-89601920D01*
X125006000Y-89601920D01*
X125006002Y-89601920D01*
X125067963Y-89596499D01*
X125230513Y-89582278D01*
X125448205Y-89523947D01*
X125652460Y-89428702D01*
X125837073Y-89299434D01*
X125996434Y-89140073D01*
X126125702Y-88955460D01*
X126220947Y-88751205D01*
X126279278Y-88533513D01*
X126298920Y-88309000D01*
X126279278Y-88084487D01*
X126220947Y-87866795D01*
X126125702Y-87662540D01*
X125996434Y-87477927D01*
X125837073Y-87318566D01*
X125713647Y-87232142D01*
X125652466Y-87189302D01*
X125652463Y-87189300D01*
X125652460Y-87189298D01*
X125652456Y-87189296D01*
X125448211Y-87094055D01*
X125448200Y-87094051D01*
X125230514Y-87035722D01*
X125230507Y-87035721D01*
X125006002Y-87016080D01*
X125005998Y-87016080D01*
X124781492Y-87035721D01*
X124781485Y-87035722D01*
X124563799Y-87094051D01*
X124563788Y-87094055D01*
X124359543Y-87189296D01*
X124359533Y-87189302D01*
X124174926Y-87318566D01*
X124015566Y-87477926D01*
X123886302Y-87662533D01*
X123886296Y-87662543D01*
X123791055Y-87866788D01*
X123791051Y-87866799D01*
X123732722Y-88084485D01*
X123732721Y-88084492D01*
X123713080Y-88308997D01*
X121031000Y-88308997D01*
X121031000Y-88239882D01*
X120995222Y-88106358D01*
X120967880Y-88059000D01*
X121793500Y-88059000D01*
X121793500Y-87473672D01*
X121793499Y-87473655D01*
X121787098Y-87414127D01*
X121787096Y-87414120D01*
X121736854Y-87279413D01*
X121736850Y-87279406D01*
X121650690Y-87164312D01*
X121650687Y-87164309D01*
X121535593Y-87078149D01*
X121535586Y-87078145D01*
X121400879Y-87027903D01*
X121400872Y-87027901D01*
X121341344Y-87021500D01*
X120756000Y-87021500D01*
X120756000Y-87847120D01*
X120708642Y-87819778D01*
X120575118Y-87784000D01*
X120436882Y-87784000D01*
X120303358Y-87819778D01*
X120256000Y-87847120D01*
X120256000Y-87021500D01*
X119670655Y-87021500D01*
X119611127Y-87027901D01*
X119611120Y-87027903D01*
X119476413Y-87078145D01*
X119476406Y-87078149D01*
X119361312Y-87164309D01*
X119361309Y-87164312D01*
X119275149Y-87279406D01*
X119275145Y-87279413D01*
X119224903Y-87414120D01*
X119224901Y-87414127D01*
X119218500Y-87473655D01*
X105992162Y-87473655D01*
X105837073Y-87318566D01*
X105713647Y-87232142D01*
X105652466Y-87189302D01*
X105652463Y-87189300D01*
X105652460Y-87189298D01*
X105652456Y-87189296D01*
X105448211Y-87094055D01*
X105448200Y-87094051D01*
X105230514Y-87035722D01*
X105230507Y-87035721D01*
X105006002Y-87016080D01*
X105005998Y-87016080D01*
X104781492Y-87035721D01*
X104781485Y-87035722D01*
X104563799Y-87094051D01*
X104563788Y-87094055D01*
X104359543Y-87189296D01*
X104359533Y-87189302D01*
X104174926Y-87318566D01*
X104015566Y-87477926D01*
X103886302Y-87662533D01*
X103886296Y-87662543D01*
X103791055Y-87866788D01*
X103791051Y-87866799D01*
X103732722Y-88084485D01*
X103732721Y-88084492D01*
X103713080Y-88308997D01*
X101031000Y-88308997D01*
X101031000Y-88239882D01*
X100995222Y-88106358D01*
X100967880Y-88059000D01*
X101793500Y-88059000D01*
X101793500Y-87473672D01*
X101793499Y-87473655D01*
X101787098Y-87414127D01*
X101787096Y-87414120D01*
X101736854Y-87279413D01*
X101736850Y-87279406D01*
X101650690Y-87164312D01*
X101650687Y-87164309D01*
X101535593Y-87078149D01*
X101535586Y-87078145D01*
X101400879Y-87027903D01*
X101400872Y-87027901D01*
X101341344Y-87021500D01*
X100756000Y-87021500D01*
X100756000Y-87847120D01*
X100708642Y-87819778D01*
X100575118Y-87784000D01*
X100436882Y-87784000D01*
X100303358Y-87819778D01*
X100256000Y-87847120D01*
X100256000Y-87021500D01*
X99670655Y-87021500D01*
X99611127Y-87027901D01*
X99611120Y-87027903D01*
X99476413Y-87078145D01*
X99476406Y-87078149D01*
X99361312Y-87164309D01*
X99361309Y-87164312D01*
X99275149Y-87279406D01*
X99275145Y-87279413D01*
X99224903Y-87414120D01*
X99224901Y-87414127D01*
X99218500Y-87473655D01*
X98206500Y-87473655D01*
X98206500Y-82973655D01*
X108218500Y-82973655D01*
X108218500Y-83559000D01*
X109044120Y-83559000D01*
X109016778Y-83606358D01*
X108981000Y-83739882D01*
X108981000Y-83878118D01*
X109016778Y-84011642D01*
X109044120Y-84059000D01*
X108218500Y-84059000D01*
X108218500Y-84644344D01*
X108224901Y-84703872D01*
X108224903Y-84703879D01*
X108275145Y-84838586D01*
X108275149Y-84838593D01*
X108361309Y-84953687D01*
X108361312Y-84953690D01*
X108476406Y-85039850D01*
X108476413Y-85039854D01*
X108611120Y-85090096D01*
X108611127Y-85090098D01*
X108670655Y-85096499D01*
X108670672Y-85096500D01*
X109256000Y-85096500D01*
X109256000Y-84270879D01*
X109303358Y-84298222D01*
X109436882Y-84334000D01*
X109575118Y-84334000D01*
X109708642Y-84298222D01*
X109756000Y-84270879D01*
X109756000Y-85096500D01*
X110341328Y-85096500D01*
X110341344Y-85096499D01*
X110400872Y-85090098D01*
X110400879Y-85090096D01*
X110535586Y-85039854D01*
X110535593Y-85039850D01*
X110650687Y-84953690D01*
X110650690Y-84953687D01*
X110736850Y-84838593D01*
X110736854Y-84838586D01*
X110787096Y-84703879D01*
X110787098Y-84703872D01*
X110793499Y-84644344D01*
X110793500Y-84644327D01*
X110793500Y-84059000D01*
X109967880Y-84059000D01*
X109995222Y-84011642D01*
X110031000Y-83878118D01*
X110031000Y-83808999D01*
X114713582Y-83808999D01*
X114713582Y-83809000D01*
X114733216Y-84033421D01*
X114733218Y-84033431D01*
X114791521Y-84251025D01*
X114791525Y-84251034D01*
X114886732Y-84455207D01*
X114886733Y-84455209D01*
X114935949Y-84525497D01*
X115502624Y-83958822D01*
X115516778Y-84011642D01*
X115585896Y-84131357D01*
X115683643Y-84229104D01*
X115803358Y-84298222D01*
X115856177Y-84312375D01*
X115289501Y-84879049D01*
X115359791Y-84928267D01*
X115563965Y-85023474D01*
X115563974Y-85023478D01*
X115781568Y-85081781D01*
X115781578Y-85081783D01*
X116005999Y-85101418D01*
X116006001Y-85101418D01*
X116230421Y-85081783D01*
X116230431Y-85081781D01*
X116448025Y-85023478D01*
X116448034Y-85023474D01*
X116652208Y-84928267D01*
X116652212Y-84928265D01*
X116722497Y-84879050D01*
X116155822Y-84312375D01*
X116208642Y-84298222D01*
X116328357Y-84229104D01*
X116426104Y-84131357D01*
X116495222Y-84011642D01*
X116509375Y-83958822D01*
X117076050Y-84525497D01*
X117125265Y-84455212D01*
X117125267Y-84455208D01*
X117220474Y-84251034D01*
X117220478Y-84251025D01*
X117278781Y-84033431D01*
X117278783Y-84033421D01*
X117298418Y-83809000D01*
X117298418Y-83808999D01*
X117278783Y-83584578D01*
X117278781Y-83584568D01*
X117220478Y-83366974D01*
X117220474Y-83366965D01*
X117125267Y-83162791D01*
X117076049Y-83092501D01*
X116509374Y-83659176D01*
X116495222Y-83606358D01*
X116426104Y-83486643D01*
X116328357Y-83388896D01*
X116208642Y-83319778D01*
X116155822Y-83305624D01*
X116452460Y-83008986D01*
X117868501Y-83008986D01*
X117878994Y-83111697D01*
X117934141Y-83278119D01*
X117934143Y-83278124D01*
X118026184Y-83427345D01*
X118150154Y-83551315D01*
X118299375Y-83643356D01*
X118299380Y-83643358D01*
X118465802Y-83698505D01*
X118465809Y-83698506D01*
X118568519Y-83708999D01*
X118718499Y-83708999D01*
X118718500Y-83708998D01*
X118718500Y-82759000D01*
X117868501Y-82759000D01*
X117868501Y-83008986D01*
X116452460Y-83008986D01*
X116722497Y-82738949D01*
X116722497Y-82738948D01*
X116652209Y-82689733D01*
X116652207Y-82689732D01*
X116448034Y-82594525D01*
X116448025Y-82594521D01*
X116230431Y-82536218D01*
X116230421Y-82536216D01*
X116006001Y-82516582D01*
X116005999Y-82516582D01*
X115781578Y-82536216D01*
X115781568Y-82536218D01*
X115563974Y-82594521D01*
X115563965Y-82594525D01*
X115359787Y-82689735D01*
X115289502Y-82738948D01*
X115289501Y-82738949D01*
X115856177Y-83305624D01*
X115803358Y-83319778D01*
X115683643Y-83388896D01*
X115585896Y-83486643D01*
X115516778Y-83606358D01*
X115502625Y-83659177D01*
X114935949Y-83092501D01*
X114935948Y-83092502D01*
X114886735Y-83162787D01*
X114791525Y-83366965D01*
X114791521Y-83366974D01*
X114733218Y-83584568D01*
X114733216Y-83584578D01*
X114713582Y-83808999D01*
X110031000Y-83808999D01*
X110031000Y-83739882D01*
X109995222Y-83606358D01*
X109967880Y-83559000D01*
X110793500Y-83559000D01*
X110793500Y-82973672D01*
X110793499Y-82973655D01*
X110787098Y-82914127D01*
X110787096Y-82914120D01*
X110736854Y-82779413D01*
X110736850Y-82779406D01*
X110650690Y-82664312D01*
X110650687Y-82664309D01*
X110535593Y-82578149D01*
X110535586Y-82578145D01*
X110400879Y-82527903D01*
X110400872Y-82527901D01*
X110341344Y-82521500D01*
X109756000Y-82521500D01*
X109756000Y-83347120D01*
X109708642Y-83319778D01*
X109575118Y-83284000D01*
X109436882Y-83284000D01*
X109303358Y-83319778D01*
X109256000Y-83347120D01*
X109256000Y-82521500D01*
X108670655Y-82521500D01*
X108611127Y-82527901D01*
X108611120Y-82527903D01*
X108476413Y-82578145D01*
X108476406Y-82578149D01*
X108361312Y-82664309D01*
X108361309Y-82664312D01*
X108275149Y-82779406D01*
X108275145Y-82779413D01*
X108224903Y-82914120D01*
X108224901Y-82914127D01*
X108218500Y-82973655D01*
X98206500Y-82973655D01*
X98206500Y-78687711D01*
X99155500Y-78687711D01*
X99155500Y-78930288D01*
X99187161Y-79170785D01*
X99249947Y-79405104D01*
X99322785Y-79580949D01*
X99342776Y-79629212D01*
X99464064Y-79839289D01*
X99464066Y-79839292D01*
X99464067Y-79839293D01*
X99611733Y-80031736D01*
X99611739Y-80031743D01*
X99783256Y-80203260D01*
X99783263Y-80203266D01*
X99849764Y-80254294D01*
X99975711Y-80350936D01*
X100185788Y-80472224D01*
X100409900Y-80565054D01*
X100644211Y-80627838D01*
X100824586Y-80651584D01*
X100884711Y-80659500D01*
X100884712Y-80659500D01*
X101127289Y-80659500D01*
X101175388Y-80653167D01*
X101367789Y-80627838D01*
X101602100Y-80565054D01*
X101826212Y-80472224D01*
X102036289Y-80350936D01*
X102228738Y-80203265D01*
X102400265Y-80031738D01*
X102547936Y-79839289D01*
X102669224Y-79629212D01*
X102762054Y-79405100D01*
X102787805Y-79308997D01*
X108213080Y-79308997D01*
X108213080Y-79309002D01*
X108232721Y-79533507D01*
X108232722Y-79533514D01*
X108291051Y-79751200D01*
X108291055Y-79751211D01*
X108386296Y-79955456D01*
X108386302Y-79955466D01*
X108455522Y-80054322D01*
X108515566Y-80140073D01*
X108674927Y-80299434D01*
X108859540Y-80428702D01*
X108916818Y-80455411D01*
X109063788Y-80523944D01*
X109063790Y-80523944D01*
X109063795Y-80523947D01*
X109281487Y-80582278D01*
X109441853Y-80596308D01*
X109505998Y-80601920D01*
X109506000Y-80601920D01*
X109506002Y-80601920D01*
X109562128Y-80597009D01*
X109730513Y-80582278D01*
X109948205Y-80523947D01*
X110152460Y-80428702D01*
X110337073Y-80299434D01*
X110496434Y-80140073D01*
X110625702Y-79955460D01*
X110720947Y-79751205D01*
X110779278Y-79533513D01*
X110797422Y-79326126D01*
X110798920Y-79309002D01*
X110798920Y-79308997D01*
X114713080Y-79308997D01*
X114713080Y-79309002D01*
X114732721Y-79533507D01*
X114732722Y-79533514D01*
X114791051Y-79751200D01*
X114791055Y-79751211D01*
X114886296Y-79955456D01*
X114886302Y-79955466D01*
X114955522Y-80054322D01*
X115015566Y-80140073D01*
X115174927Y-80299434D01*
X115359540Y-80428702D01*
X115416818Y-80455411D01*
X115563788Y-80523944D01*
X115563790Y-80523944D01*
X115563795Y-80523947D01*
X115781487Y-80582278D01*
X115941853Y-80596308D01*
X116005998Y-80601920D01*
X116006000Y-80601920D01*
X116006002Y-80601920D01*
X116062128Y-80597009D01*
X116230513Y-80582278D01*
X116318726Y-80558641D01*
X116388572Y-80560304D01*
X116438498Y-80590734D01*
X116537284Y-80689520D01*
X116614340Y-80734008D01*
X116674215Y-80768577D01*
X116826942Y-80809500D01*
X116826943Y-80809500D01*
X117792415Y-80809500D01*
X117859454Y-80829185D01*
X117905209Y-80881989D01*
X117910118Y-80894489D01*
X117946186Y-81003334D01*
X118038287Y-81152655D01*
X118038289Y-81152657D01*
X118164523Y-81278891D01*
X118198008Y-81340214D01*
X118193024Y-81409906D01*
X118153759Y-81463834D01*
X118150154Y-81466684D01*
X118026184Y-81590654D01*
X117934143Y-81739875D01*
X117934141Y-81739880D01*
X117878994Y-81906302D01*
X117878993Y-81906309D01*
X117868500Y-82009013D01*
X117868500Y-82259000D01*
X119094500Y-82259000D01*
X119161539Y-82278685D01*
X119207294Y-82331489D01*
X119218500Y-82383000D01*
X119218500Y-83708999D01*
X119368472Y-83708999D01*
X119368486Y-83708998D01*
X119471197Y-83698505D01*
X119637619Y-83643358D01*
X119637624Y-83643356D01*
X119786842Y-83551317D01*
X119880464Y-83457695D01*
X119941787Y-83424210D01*
X120011479Y-83429194D01*
X120055827Y-83457695D01*
X120149844Y-83551712D01*
X120299166Y-83643814D01*
X120465703Y-83698999D01*
X120568491Y-83709500D01*
X121368508Y-83709499D01*
X121368516Y-83709498D01*
X121368519Y-83709498D01*
X121424802Y-83703748D01*
X121471297Y-83698999D01*
X121637834Y-83643814D01*
X121787156Y-83551712D01*
X121911212Y-83427656D01*
X122003314Y-83278334D01*
X122058499Y-83111797D01*
X122069000Y-83009009D01*
X122068999Y-82008992D01*
X122058499Y-81906203D01*
X122003314Y-81739666D01*
X121911212Y-81590344D01*
X121804637Y-81483769D01*
X121771152Y-81422446D01*
X121776136Y-81352754D01*
X121818008Y-81296821D01*
X121827212Y-81290555D01*
X121849656Y-81276712D01*
X121973712Y-81152656D01*
X122065814Y-81003334D01*
X122120999Y-80836797D01*
X122131500Y-80734009D01*
X122131499Y-79683992D01*
X122129425Y-79663692D01*
X122120999Y-79581203D01*
X122120998Y-79581200D01*
X122120915Y-79580949D01*
X122065814Y-79414666D01*
X121973712Y-79265344D01*
X121849656Y-79141288D01*
X121700334Y-79049186D01*
X121533797Y-78994001D01*
X121533795Y-78994000D01*
X121431010Y-78983500D01*
X120655998Y-78983500D01*
X120655980Y-78983501D01*
X120553203Y-78994000D01*
X120553200Y-78994001D01*
X120386668Y-79049185D01*
X120386663Y-79049187D01*
X120237342Y-79141289D01*
X120113285Y-79265346D01*
X120111537Y-79268182D01*
X120109829Y-79269717D01*
X120108807Y-79271011D01*
X120108585Y-79270836D01*
X120059589Y-79314905D01*
X119990626Y-79326126D01*
X119926544Y-79298282D01*
X119900463Y-79268182D01*
X119898714Y-79265346D01*
X119774657Y-79141289D01*
X119774656Y-79141288D01*
X119625334Y-79049186D01*
X119458797Y-78994001D01*
X119458795Y-78994000D01*
X119356010Y-78983500D01*
X118580998Y-78983500D01*
X118580980Y-78983501D01*
X118478203Y-78994000D01*
X118478200Y-78994001D01*
X118311668Y-79049185D01*
X118311663Y-79049187D01*
X118162342Y-79141289D01*
X118038289Y-79265342D01*
X117946187Y-79414663D01*
X117946185Y-79414668D01*
X117910121Y-79523504D01*
X117870348Y-79580949D01*
X117805833Y-79607772D01*
X117792415Y-79608500D01*
X117408039Y-79608500D01*
X117341000Y-79588815D01*
X117295245Y-79536011D01*
X117284511Y-79473694D01*
X117298920Y-79309000D01*
X117297982Y-79298282D01*
X117281422Y-79108992D01*
X117279278Y-79084487D01*
X117220947Y-78866795D01*
X117125702Y-78662540D01*
X117037192Y-78536135D01*
X129080500Y-78536135D01*
X129080500Y-79981870D01*
X129080501Y-79981876D01*
X129086908Y-80041483D01*
X129137202Y-80176328D01*
X129137206Y-80176335D01*
X129223452Y-80291544D01*
X129223455Y-80291547D01*
X129338664Y-80377793D01*
X129338671Y-80377797D01*
X129473517Y-80428091D01*
X129473516Y-80428091D01*
X129479153Y-80428697D01*
X129533127Y-80434500D01*
X130978872Y-80434499D01*
X131038483Y-80428091D01*
X131173331Y-80377796D01*
X131288546Y-80291546D01*
X131350785Y-80208404D01*
X131406718Y-80166535D01*
X131476410Y-80161551D01*
X131533588Y-80191078D01*
X131544568Y-80201088D01*
X131544570Y-80201089D01*
X131544571Y-80201090D01*
X131729786Y-80315770D01*
X131729792Y-80315773D01*
X131749379Y-80323361D01*
X131932931Y-80394470D01*
X132147074Y-80434500D01*
X132147076Y-80434500D01*
X132364924Y-80434500D01*
X132364926Y-80434500D01*
X132579069Y-80394470D01*
X132782210Y-80315772D01*
X132967432Y-80201088D01*
X133128427Y-80054322D01*
X133157047Y-80016422D01*
X133213153Y-79974787D01*
X133282865Y-79970094D01*
X133344048Y-80003836D01*
X133354946Y-80016414D01*
X133383573Y-80054322D01*
X133383576Y-80054325D01*
X133383578Y-80054327D01*
X133498569Y-80159154D01*
X133544568Y-80201088D01*
X133544575Y-80201092D01*
X133544576Y-80201093D01*
X133729786Y-80315770D01*
X133729792Y-80315773D01*
X133749379Y-80323361D01*
X133932931Y-80394470D01*
X134147074Y-80434500D01*
X134147076Y-80434500D01*
X134364924Y-80434500D01*
X134364926Y-80434500D01*
X134579069Y-80394470D01*
X134782210Y-80315772D01*
X134967432Y-80201088D01*
X135128427Y-80054322D01*
X135157047Y-80016422D01*
X135213153Y-79974787D01*
X135282865Y-79970094D01*
X135344048Y-80003836D01*
X135354946Y-80016414D01*
X135383573Y-80054322D01*
X135383576Y-80054325D01*
X135383578Y-80054327D01*
X135498569Y-80159154D01*
X135544568Y-80201088D01*
X135544575Y-80201092D01*
X135544576Y-80201093D01*
X135729786Y-80315770D01*
X135729792Y-80315773D01*
X135749379Y-80323361D01*
X135932931Y-80394470D01*
X136147074Y-80434500D01*
X136147076Y-80434500D01*
X136364924Y-80434500D01*
X136364926Y-80434500D01*
X136579069Y-80394470D01*
X136782210Y-80315772D01*
X136967432Y-80201088D01*
X137128427Y-80054322D01*
X137157047Y-80016422D01*
X137213153Y-79974787D01*
X137282865Y-79970094D01*
X137344048Y-80003836D01*
X137354946Y-80016414D01*
X137383573Y-80054322D01*
X137383576Y-80054325D01*
X137383578Y-80054327D01*
X137498569Y-80159154D01*
X137544568Y-80201088D01*
X137544575Y-80201092D01*
X137544576Y-80201093D01*
X137729786Y-80315770D01*
X137729792Y-80315773D01*
X137749379Y-80323361D01*
X137932931Y-80394470D01*
X138147074Y-80434500D01*
X138147076Y-80434500D01*
X138364924Y-80434500D01*
X138364926Y-80434500D01*
X138579069Y-80394470D01*
X138782210Y-80315772D01*
X138967432Y-80201088D01*
X139128427Y-80054322D01*
X139157047Y-80016422D01*
X139213153Y-79974787D01*
X139282865Y-79970094D01*
X139344048Y-80003836D01*
X139354946Y-80016414D01*
X139383573Y-80054322D01*
X139383576Y-80054325D01*
X139383578Y-80054327D01*
X139498569Y-80159154D01*
X139544568Y-80201088D01*
X139571776Y-80217934D01*
X139618412Y-80269960D01*
X139630500Y-80323361D01*
X139630500Y-81320610D01*
X139651065Y-81423999D01*
X139654537Y-81441452D01*
X139664988Y-81466683D01*
X139668347Y-81474792D01*
X139668347Y-81474793D01*
X139701685Y-81555281D01*
X139701690Y-81555290D01*
X139725114Y-81590345D01*
X139725115Y-81590346D01*
X139770141Y-81657732D01*
X139770144Y-81657736D01*
X139861586Y-81749178D01*
X139861608Y-81749198D01*
X145017016Y-86904606D01*
X145017045Y-86904637D01*
X145107263Y-86994855D01*
X145107267Y-86994858D01*
X145209707Y-87063307D01*
X145209713Y-87063310D01*
X145209714Y-87063311D01*
X145323548Y-87110463D01*
X145383971Y-87122481D01*
X145444393Y-87134500D01*
X145444394Y-87134500D01*
X145696547Y-87134500D01*
X145763586Y-87154185D01*
X145809341Y-87206989D01*
X145819285Y-87276147D01*
X145790260Y-87339703D01*
X145784228Y-87346181D01*
X144245727Y-88884681D01*
X144184404Y-88918166D01*
X144158048Y-88921000D01*
X144080999Y-88921000D01*
X144080980Y-88921001D01*
X143978203Y-88931500D01*
X143978200Y-88931501D01*
X143811668Y-88986685D01*
X143811663Y-88986687D01*
X143662342Y-89078789D01*
X143538289Y-89202842D01*
X143446187Y-89352163D01*
X143446185Y-89352168D01*
X143432323Y-89394001D01*
X143391001Y-89518703D01*
X143391001Y-89518704D01*
X143391000Y-89518704D01*
X143380500Y-89621483D01*
X143380500Y-90396501D01*
X143380501Y-90396519D01*
X143391000Y-90499296D01*
X143391001Y-90499299D01*
X143394216Y-90509000D01*
X143446186Y-90665834D01*
X143538096Y-90814845D01*
X143538289Y-90815157D01*
X143662346Y-90939214D01*
X143665182Y-90940963D01*
X143666717Y-90942670D01*
X143668011Y-90943693D01*
X143667836Y-90943914D01*
X143711905Y-90992911D01*
X143723126Y-91061874D01*
X143695282Y-91125956D01*
X143665182Y-91152037D01*
X143662346Y-91153785D01*
X143538289Y-91277842D01*
X143446187Y-91427163D01*
X143446185Y-91427168D01*
X143424480Y-91492670D01*
X143391001Y-91593703D01*
X143391001Y-91593704D01*
X143391000Y-91593704D01*
X143380500Y-91696483D01*
X143380500Y-92471501D01*
X143380501Y-92471519D01*
X143391000Y-92574296D01*
X143391001Y-92574299D01*
X143446185Y-92740831D01*
X143446187Y-92740836D01*
X143481069Y-92797388D01*
X143538288Y-92890156D01*
X143662344Y-93014212D01*
X143811666Y-93106314D01*
X143978203Y-93161499D01*
X144080991Y-93172000D01*
X145131008Y-93171999D01*
X145131016Y-93171998D01*
X145131019Y-93171998D01*
X145187302Y-93166248D01*
X145233797Y-93161499D01*
X145400334Y-93106314D01*
X145549656Y-93014212D01*
X145673712Y-92890156D01*
X145765814Y-92740834D01*
X145777028Y-92706994D01*
X145816801Y-92649550D01*
X145881317Y-92622728D01*
X145894733Y-92622000D01*
X146024942Y-92622000D01*
X146091981Y-92641685D01*
X146130479Y-92680901D01*
X146213288Y-92815156D01*
X146337344Y-92939212D01*
X146486666Y-93031314D01*
X146653203Y-93086499D01*
X146755991Y-93097000D01*
X147756008Y-93096999D01*
X147756016Y-93096998D01*
X147756019Y-93096998D01*
X147812302Y-93091248D01*
X147858797Y-93086499D01*
X148025334Y-93031314D01*
X148174656Y-92939212D01*
X148298712Y-92815156D01*
X148390814Y-92665834D01*
X148445999Y-92499297D01*
X148456500Y-92396509D01*
X148456499Y-91596492D01*
X148451574Y-91548283D01*
X148445999Y-91493703D01*
X148445998Y-91493700D01*
X148424268Y-91428124D01*
X148390814Y-91327166D01*
X148298712Y-91177844D01*
X148204695Y-91083827D01*
X148171210Y-91022504D01*
X148176194Y-90952812D01*
X148204695Y-90908464D01*
X148298317Y-90814842D01*
X148390356Y-90665624D01*
X148390358Y-90665619D01*
X148445505Y-90499197D01*
X148445506Y-90499190D01*
X148455999Y-90396486D01*
X148456000Y-90396473D01*
X148456000Y-90359013D01*
X163906000Y-90359013D01*
X163906000Y-90509000D01*
X164856000Y-90509000D01*
X164856000Y-89659000D01*
X164606029Y-89659000D01*
X164606012Y-89659001D01*
X164503302Y-89669494D01*
X164336880Y-89724641D01*
X164336875Y-89724643D01*
X164187654Y-89816684D01*
X164063684Y-89940654D01*
X163971643Y-90089875D01*
X163971641Y-90089880D01*
X163916494Y-90256302D01*
X163916493Y-90256309D01*
X163906000Y-90359013D01*
X148456000Y-90359013D01*
X148456000Y-90246500D01*
X147130000Y-90246500D01*
X147062961Y-90226815D01*
X147017206Y-90174011D01*
X147006000Y-90122500D01*
X147006000Y-89746500D01*
X147506000Y-89746500D01*
X148455999Y-89746500D01*
X148455999Y-89596528D01*
X148455998Y-89596513D01*
X148445505Y-89493802D01*
X148390358Y-89327380D01*
X148390356Y-89327375D01*
X148298315Y-89178154D01*
X148174345Y-89054184D01*
X148025124Y-88962143D01*
X148025119Y-88962141D01*
X147858697Y-88906994D01*
X147858690Y-88906993D01*
X147755986Y-88896500D01*
X147506000Y-88896500D01*
X147506000Y-89746500D01*
X147006000Y-89746500D01*
X147006000Y-88896500D01*
X146756029Y-88896500D01*
X146756012Y-88896501D01*
X146653302Y-88906994D01*
X146486880Y-88962141D01*
X146486875Y-88962143D01*
X146337654Y-89054184D01*
X146213684Y-89178154D01*
X146121643Y-89327375D01*
X146121641Y-89327380D01*
X146066494Y-89493802D01*
X146066492Y-89493815D01*
X146065408Y-89504421D01*
X146039008Y-89569111D01*
X145981825Y-89609259D01*
X145912014Y-89612118D01*
X145851740Y-89576781D01*
X145824437Y-89524696D01*
X145823129Y-89525130D01*
X145791176Y-89428703D01*
X145765814Y-89352166D01*
X145733969Y-89300536D01*
X145715529Y-89233147D01*
X145736451Y-89166484D01*
X145751822Y-89147766D01*
X147728772Y-87170819D01*
X147790095Y-87137334D01*
X147816453Y-87134500D01*
X149150602Y-87134500D01*
X149217641Y-87154185D01*
X149263396Y-87206989D01*
X149273340Y-87276147D01*
X149266784Y-87301833D01*
X149224903Y-87414120D01*
X149224901Y-87414127D01*
X149218500Y-87473655D01*
X149218500Y-88059000D01*
X150044120Y-88059000D01*
X150016778Y-88106358D01*
X149981000Y-88239882D01*
X149981000Y-88378118D01*
X150016778Y-88511642D01*
X150044120Y-88559000D01*
X149218500Y-88559000D01*
X149218500Y-89144344D01*
X149224901Y-89203872D01*
X149224903Y-89203879D01*
X149275145Y-89338586D01*
X149275149Y-89338593D01*
X149361309Y-89453687D01*
X149361312Y-89453690D01*
X149476406Y-89539850D01*
X149476413Y-89539854D01*
X149611120Y-89590096D01*
X149611127Y-89590098D01*
X149670655Y-89596499D01*
X149670672Y-89596500D01*
X150256000Y-89596500D01*
X150256000Y-88770879D01*
X150303358Y-88798222D01*
X150436882Y-88834000D01*
X150575118Y-88834000D01*
X150708642Y-88798222D01*
X150756000Y-88770879D01*
X150756000Y-89596500D01*
X151341328Y-89596500D01*
X151341344Y-89596499D01*
X151400872Y-89590098D01*
X151400879Y-89590096D01*
X151535586Y-89539854D01*
X151535593Y-89539850D01*
X151650687Y-89453690D01*
X151650690Y-89453687D01*
X151736850Y-89338593D01*
X151736854Y-89338586D01*
X151787096Y-89203879D01*
X151787098Y-89203872D01*
X151793499Y-89144344D01*
X151793500Y-89144327D01*
X151793500Y-88559000D01*
X150967880Y-88559000D01*
X150995222Y-88511642D01*
X151031000Y-88378118D01*
X151031000Y-88239882D01*
X150995222Y-88106358D01*
X150967880Y-88059000D01*
X151793500Y-88059000D01*
X151793500Y-87473672D01*
X151793499Y-87473655D01*
X151787098Y-87414127D01*
X151787096Y-87414120D01*
X151745216Y-87301833D01*
X151740232Y-87232142D01*
X151773717Y-87170819D01*
X151835040Y-87137334D01*
X151861398Y-87134500D01*
X152895548Y-87134500D01*
X152962587Y-87154185D01*
X152983229Y-87170819D01*
X153716793Y-87904383D01*
X153750278Y-87965706D01*
X153748887Y-88024157D01*
X153732722Y-88084484D01*
X153732722Y-88084488D01*
X153713080Y-88308998D01*
X153713080Y-88309002D01*
X153732721Y-88533507D01*
X153732722Y-88533514D01*
X153791051Y-88751200D01*
X153791055Y-88751211D01*
X153886296Y-88955456D01*
X153886302Y-88955466D01*
X153908162Y-88986685D01*
X154015566Y-89140073D01*
X154174927Y-89299434D01*
X154359540Y-89428702D01*
X154472769Y-89481501D01*
X154563788Y-89523944D01*
X154563790Y-89523944D01*
X154563795Y-89523947D01*
X154781487Y-89582278D01*
X154941853Y-89596308D01*
X155005998Y-89601920D01*
X155006000Y-89601920D01*
X155006002Y-89601920D01*
X155067963Y-89596499D01*
X155230513Y-89582278D01*
X155448205Y-89523947D01*
X155652460Y-89428702D01*
X155837073Y-89299434D01*
X155996434Y-89140073D01*
X156125702Y-88955460D01*
X156220947Y-88751205D01*
X156279278Y-88533513D01*
X156298920Y-88309000D01*
X156279278Y-88084487D01*
X156220947Y-87866795D01*
X156125702Y-87662540D01*
X155996434Y-87477927D01*
X155837073Y-87318566D01*
X155713647Y-87232142D01*
X155652466Y-87189302D01*
X155652463Y-87189300D01*
X155652460Y-87189298D01*
X155652456Y-87189296D01*
X155448211Y-87094055D01*
X155448200Y-87094051D01*
X155230514Y-87035722D01*
X155230507Y-87035721D01*
X155006002Y-87016080D01*
X155005998Y-87016080D01*
X154870883Y-87027901D01*
X154781487Y-87035722D01*
X154781484Y-87035722D01*
X154721157Y-87051887D01*
X154651307Y-87050224D01*
X154601383Y-87019793D01*
X153990590Y-86409000D01*
X159600540Y-86409000D01*
X159620326Y-86597256D01*
X159620327Y-86597259D01*
X159678818Y-86777277D01*
X159678821Y-86777284D01*
X159773467Y-86941216D01*
X159871118Y-87049668D01*
X159900129Y-87081888D01*
X160053265Y-87193148D01*
X160053270Y-87193151D01*
X160226192Y-87270142D01*
X160226197Y-87270144D01*
X160411354Y-87309500D01*
X160411355Y-87309500D01*
X160600644Y-87309500D01*
X160600646Y-87309500D01*
X160785803Y-87270144D01*
X160958730Y-87193151D01*
X161111871Y-87081888D01*
X161115241Y-87078145D01*
X161117600Y-87075526D01*
X161177087Y-87038879D01*
X161209748Y-87034500D01*
X169210765Y-87034500D01*
X169277804Y-87054185D01*
X169323559Y-87106989D01*
X169333503Y-87176147D01*
X169310032Y-87232811D01*
X169275146Y-87279411D01*
X169275145Y-87279413D01*
X169224903Y-87414120D01*
X169224901Y-87414127D01*
X169218500Y-87473655D01*
X169218500Y-88059000D01*
X170044120Y-88059000D01*
X170016778Y-88106358D01*
X169981000Y-88239882D01*
X169981000Y-88378118D01*
X170016778Y-88511642D01*
X170044120Y-88559000D01*
X169218500Y-88559000D01*
X169218500Y-89144344D01*
X169224901Y-89203872D01*
X169224903Y-89203879D01*
X169275145Y-89338586D01*
X169275149Y-89338593D01*
X169361309Y-89453687D01*
X169361312Y-89453690D01*
X169476406Y-89539850D01*
X169476413Y-89539854D01*
X169611120Y-89590096D01*
X169611127Y-89590098D01*
X169670655Y-89596499D01*
X169670672Y-89596500D01*
X170256000Y-89596500D01*
X170256000Y-88770879D01*
X170303358Y-88798222D01*
X170436882Y-88834000D01*
X170575118Y-88834000D01*
X170708642Y-88798222D01*
X170756000Y-88770879D01*
X170756000Y-89596500D01*
X171341328Y-89596500D01*
X171341344Y-89596499D01*
X171400872Y-89590098D01*
X171400879Y-89590096D01*
X171535586Y-89539854D01*
X171535593Y-89539850D01*
X171650687Y-89453690D01*
X171650690Y-89453687D01*
X171736850Y-89338593D01*
X171736854Y-89338586D01*
X171787096Y-89203879D01*
X171787098Y-89203872D01*
X171793499Y-89144344D01*
X171793500Y-89144327D01*
X171793500Y-88559000D01*
X170967880Y-88559000D01*
X170995222Y-88511642D01*
X171031000Y-88378118D01*
X171031000Y-88239882D01*
X170995222Y-88106358D01*
X170967880Y-88059000D01*
X171793500Y-88059000D01*
X171793500Y-87473672D01*
X171793499Y-87473655D01*
X171787098Y-87414127D01*
X171787096Y-87414120D01*
X171736854Y-87279413D01*
X171736853Y-87279411D01*
X171701968Y-87232811D01*
X171677551Y-87167347D01*
X171692402Y-87099074D01*
X171741807Y-87049668D01*
X171801235Y-87034500D01*
X172795548Y-87034500D01*
X172862587Y-87054185D01*
X172883229Y-87070819D01*
X173716793Y-87904383D01*
X173750278Y-87965706D01*
X173748887Y-88024157D01*
X173732722Y-88084484D01*
X173732722Y-88084488D01*
X173713080Y-88308998D01*
X173713080Y-88309002D01*
X173732721Y-88533507D01*
X173732724Y-88533521D01*
X173748886Y-88593842D01*
X173747223Y-88663692D01*
X173716792Y-88713615D01*
X172533229Y-89897181D01*
X172471906Y-89930666D01*
X172445548Y-89933500D01*
X169004348Y-89933500D01*
X168937309Y-89913815D01*
X168898809Y-89874597D01*
X168823712Y-89752844D01*
X168699656Y-89628788D01*
X168557795Y-89541288D01*
X168550336Y-89536687D01*
X168550331Y-89536685D01*
X168515460Y-89525130D01*
X168383797Y-89481501D01*
X168383795Y-89481500D01*
X168281010Y-89471000D01*
X167230998Y-89471000D01*
X167230980Y-89471001D01*
X167128203Y-89481500D01*
X167128200Y-89481501D01*
X166961668Y-89536685D01*
X166961663Y-89536687D01*
X166812342Y-89628789D01*
X166688289Y-89752842D01*
X166596187Y-89902163D01*
X166596186Y-89902166D01*
X166541001Y-90068703D01*
X166541001Y-90068704D01*
X166541000Y-90068704D01*
X166530500Y-90171483D01*
X166530500Y-90197044D01*
X166510815Y-90264083D01*
X166458011Y-90309838D01*
X166388853Y-90319782D01*
X166325297Y-90290757D01*
X166288794Y-90236048D01*
X166240358Y-90089880D01*
X166240356Y-90089875D01*
X166148315Y-89940654D01*
X166024345Y-89816684D01*
X165875124Y-89724643D01*
X165875119Y-89724641D01*
X165708697Y-89669494D01*
X165708690Y-89669493D01*
X165605986Y-89659000D01*
X165356000Y-89659000D01*
X165356000Y-90885000D01*
X165336315Y-90952039D01*
X165283511Y-90997794D01*
X165232000Y-91009000D01*
X163906001Y-91009000D01*
X163906001Y-91158986D01*
X163916494Y-91261697D01*
X163971641Y-91428119D01*
X163971643Y-91428124D01*
X164063684Y-91577345D01*
X164157304Y-91670965D01*
X164190789Y-91732288D01*
X164185805Y-91801980D01*
X164157305Y-91846327D01*
X164063287Y-91940345D01*
X163971187Y-92089663D01*
X163971185Y-92089668D01*
X163953281Y-92143700D01*
X163916001Y-92256203D01*
X163916001Y-92256204D01*
X163916000Y-92256204D01*
X163905500Y-92358983D01*
X163905500Y-93159001D01*
X163905501Y-93159019D01*
X163916000Y-93261796D01*
X163916001Y-93261799D01*
X163971185Y-93428331D01*
X163971186Y-93428334D01*
X164063288Y-93577656D01*
X164187344Y-93701712D01*
X164336666Y-93793814D01*
X164503203Y-93848999D01*
X164605991Y-93859500D01*
X165606008Y-93859499D01*
X165606016Y-93859498D01*
X165606019Y-93859498D01*
X165662302Y-93853748D01*
X165708797Y-93848999D01*
X165875334Y-93793814D01*
X166024656Y-93701712D01*
X166148712Y-93577656D01*
X166240814Y-93428334D01*
X166268595Y-93344495D01*
X166308368Y-93287051D01*
X166372884Y-93260228D01*
X166386301Y-93259500D01*
X166507652Y-93259500D01*
X166574691Y-93279185D01*
X166613189Y-93318401D01*
X166688288Y-93440156D01*
X166812344Y-93564212D01*
X166961666Y-93656314D01*
X167128203Y-93711499D01*
X167230991Y-93722000D01*
X168281008Y-93721999D01*
X168281016Y-93721998D01*
X168281019Y-93721998D01*
X168337302Y-93716248D01*
X168383797Y-93711499D01*
X168550334Y-93656314D01*
X168699656Y-93564212D01*
X168823712Y-93440156D01*
X168915814Y-93290834D01*
X168970999Y-93124297D01*
X168981500Y-93021509D01*
X168981499Y-92246492D01*
X168980801Y-92239663D01*
X168970999Y-92143703D01*
X168970998Y-92143700D01*
X168953420Y-92090654D01*
X168915814Y-91977166D01*
X168823712Y-91827844D01*
X168699656Y-91703788D01*
X168696819Y-91702038D01*
X168695283Y-91700330D01*
X168693989Y-91699307D01*
X168694163Y-91699085D01*
X168650096Y-91650094D01*
X168638872Y-91581132D01*
X168666713Y-91517049D01*
X168696817Y-91490962D01*
X168699656Y-91489212D01*
X168823712Y-91365156D01*
X168898809Y-91243402D01*
X168950757Y-91196679D01*
X169004348Y-91184500D01*
X172817607Y-91184500D01*
X172878029Y-91172481D01*
X172938452Y-91160463D01*
X172938455Y-91160461D01*
X172938458Y-91160461D01*
X172971787Y-91146654D01*
X172971786Y-91146654D01*
X172971792Y-91146652D01*
X173052286Y-91113312D01*
X173103509Y-91079084D01*
X173154733Y-91044858D01*
X173241858Y-90957733D01*
X173241858Y-90957731D01*
X173252066Y-90947524D01*
X173252067Y-90947521D01*
X174601385Y-89598204D01*
X174662706Y-89564721D01*
X174721159Y-89566113D01*
X174781479Y-89582276D01*
X174781480Y-89582276D01*
X174781487Y-89582278D01*
X174972564Y-89598994D01*
X175005998Y-89601920D01*
X175006000Y-89601920D01*
X175006002Y-89601920D01*
X175067963Y-89596499D01*
X175230513Y-89582278D01*
X175448205Y-89523947D01*
X175652460Y-89428702D01*
X175837073Y-89299434D01*
X175996434Y-89140073D01*
X176125702Y-88955460D01*
X176220947Y-88751205D01*
X176279278Y-88533513D01*
X176298920Y-88309000D01*
X176279278Y-88084487D01*
X176220947Y-87866795D01*
X176125702Y-87662540D01*
X175996434Y-87477927D01*
X175837073Y-87318566D01*
X175713647Y-87232142D01*
X175652466Y-87189302D01*
X175652463Y-87189300D01*
X175652460Y-87189298D01*
X175652456Y-87189296D01*
X175448211Y-87094055D01*
X175448200Y-87094051D01*
X175230514Y-87035722D01*
X175230507Y-87035721D01*
X175006002Y-87016080D01*
X175005998Y-87016080D01*
X174870883Y-87027901D01*
X174781487Y-87035722D01*
X174781484Y-87035722D01*
X174721157Y-87051887D01*
X174651307Y-87050224D01*
X174601383Y-87019793D01*
X173596198Y-86014608D01*
X173596178Y-86014586D01*
X173504736Y-85923144D01*
X173504732Y-85923141D01*
X173445405Y-85883500D01*
X173402286Y-85854688D01*
X173321792Y-85821347D01*
X173288453Y-85807537D01*
X173278427Y-85805543D01*
X173228029Y-85795518D01*
X173167610Y-85783500D01*
X173167607Y-85783500D01*
X173167606Y-85783500D01*
X161209748Y-85783500D01*
X161142709Y-85763815D01*
X161117600Y-85742474D01*
X161111873Y-85736114D01*
X161111869Y-85736110D01*
X160958734Y-85624851D01*
X160958729Y-85624848D01*
X160785807Y-85547857D01*
X160785802Y-85547855D01*
X160640001Y-85516865D01*
X160600646Y-85508500D01*
X160411354Y-85508500D01*
X160378897Y-85515398D01*
X160226197Y-85547855D01*
X160226192Y-85547857D01*
X160053270Y-85624848D01*
X160053265Y-85624851D01*
X159900129Y-85736111D01*
X159773466Y-85876785D01*
X159678821Y-86040715D01*
X159678818Y-86040722D01*
X159620327Y-86220740D01*
X159620326Y-86220744D01*
X159600540Y-86409000D01*
X153990590Y-86409000D01*
X153698928Y-86117338D01*
X153698925Y-86117334D01*
X153698925Y-86117335D01*
X153691858Y-86110268D01*
X153691858Y-86110267D01*
X153604733Y-86023142D01*
X153604732Y-86023141D01*
X153604731Y-86023140D01*
X153553509Y-85988915D01*
X153502287Y-85954689D01*
X153502286Y-85954688D01*
X153502283Y-85954686D01*
X153502280Y-85954685D01*
X153421792Y-85921347D01*
X153388453Y-85907537D01*
X153378427Y-85905543D01*
X153328029Y-85895518D01*
X153267610Y-85883500D01*
X153267607Y-85883500D01*
X153267606Y-85883500D01*
X147567606Y-85883500D01*
X145816452Y-85883500D01*
X145749413Y-85863815D01*
X145728771Y-85847181D01*
X142855245Y-82973655D01*
X158218500Y-82973655D01*
X158218500Y-83559000D01*
X159044120Y-83559000D01*
X159016778Y-83606358D01*
X158981000Y-83739882D01*
X158981000Y-83878118D01*
X159016778Y-84011642D01*
X159044120Y-84059000D01*
X158218500Y-84059000D01*
X158218500Y-84644344D01*
X158224901Y-84703872D01*
X158224903Y-84703879D01*
X158275145Y-84838586D01*
X158275149Y-84838593D01*
X158361309Y-84953687D01*
X158361312Y-84953690D01*
X158476406Y-85039850D01*
X158476413Y-85039854D01*
X158611120Y-85090096D01*
X158611127Y-85090098D01*
X158670655Y-85096499D01*
X158670672Y-85096500D01*
X159256000Y-85096500D01*
X159256000Y-84270879D01*
X159303358Y-84298222D01*
X159436882Y-84334000D01*
X159575118Y-84334000D01*
X159708642Y-84298222D01*
X159756000Y-84270879D01*
X159756000Y-85096500D01*
X160341328Y-85096500D01*
X160341344Y-85096499D01*
X160400872Y-85090098D01*
X160400879Y-85090096D01*
X160535586Y-85039854D01*
X160535593Y-85039850D01*
X160650687Y-84953690D01*
X160650690Y-84953687D01*
X160736850Y-84838593D01*
X160736854Y-84838586D01*
X160787096Y-84703879D01*
X160787098Y-84703872D01*
X160793499Y-84644344D01*
X160793500Y-84644327D01*
X160793500Y-84059000D01*
X159967880Y-84059000D01*
X159995222Y-84011642D01*
X160031000Y-83878118D01*
X160031000Y-83808999D01*
X164713582Y-83808999D01*
X164713582Y-83809000D01*
X164733216Y-84033421D01*
X164733218Y-84033431D01*
X164791521Y-84251025D01*
X164791525Y-84251034D01*
X164886732Y-84455207D01*
X164886733Y-84455209D01*
X164935949Y-84525497D01*
X165502624Y-83958822D01*
X165516778Y-84011642D01*
X165585896Y-84131357D01*
X165683643Y-84229104D01*
X165803358Y-84298222D01*
X165856177Y-84312375D01*
X165289501Y-84879049D01*
X165359791Y-84928267D01*
X165563965Y-85023474D01*
X165563974Y-85023478D01*
X165781568Y-85081781D01*
X165781578Y-85081783D01*
X166005999Y-85101418D01*
X166006001Y-85101418D01*
X166230421Y-85081783D01*
X166230431Y-85081781D01*
X166448025Y-85023478D01*
X166448034Y-85023474D01*
X166652208Y-84928267D01*
X166652212Y-84928265D01*
X166722497Y-84879050D01*
X166155822Y-84312375D01*
X166208642Y-84298222D01*
X166328357Y-84229104D01*
X166426104Y-84131357D01*
X166495222Y-84011642D01*
X166509375Y-83958822D01*
X167076050Y-84525497D01*
X167125265Y-84455212D01*
X167125267Y-84455208D01*
X167220474Y-84251034D01*
X167220478Y-84251025D01*
X167278781Y-84033431D01*
X167278783Y-84033421D01*
X167298418Y-83809000D01*
X167298418Y-83808999D01*
X167278783Y-83584578D01*
X167278781Y-83584568D01*
X167220478Y-83366974D01*
X167220474Y-83366965D01*
X167125267Y-83162791D01*
X167076049Y-83092501D01*
X166509374Y-83659176D01*
X166495222Y-83606358D01*
X166426104Y-83486643D01*
X166328357Y-83388896D01*
X166208642Y-83319778D01*
X166155822Y-83305624D01*
X166722497Y-82738949D01*
X166722497Y-82738948D01*
X166652209Y-82689733D01*
X166652207Y-82689732D01*
X166448034Y-82594525D01*
X166448025Y-82594521D01*
X166230431Y-82536218D01*
X166230421Y-82536216D01*
X166006001Y-82516582D01*
X166005999Y-82516582D01*
X165781578Y-82536216D01*
X165781568Y-82536218D01*
X165563974Y-82594521D01*
X165563965Y-82594525D01*
X165359787Y-82689735D01*
X165289502Y-82738948D01*
X165289501Y-82738949D01*
X165856177Y-83305624D01*
X165803358Y-83319778D01*
X165683643Y-83388896D01*
X165585896Y-83486643D01*
X165516778Y-83606358D01*
X165502625Y-83659177D01*
X164935949Y-83092501D01*
X164935948Y-83092502D01*
X164886735Y-83162787D01*
X164791525Y-83366965D01*
X164791521Y-83366974D01*
X164733218Y-83584568D01*
X164733216Y-83584578D01*
X164713582Y-83808999D01*
X160031000Y-83808999D01*
X160031000Y-83739882D01*
X159995222Y-83606358D01*
X159967880Y-83559000D01*
X160793500Y-83559000D01*
X160793500Y-82973672D01*
X160793499Y-82973655D01*
X160787098Y-82914127D01*
X160787096Y-82914120D01*
X160736854Y-82779413D01*
X160736850Y-82779406D01*
X160650690Y-82664312D01*
X160650687Y-82664309D01*
X160535593Y-82578149D01*
X160535586Y-82578145D01*
X160400879Y-82527903D01*
X160400872Y-82527901D01*
X160341344Y-82521500D01*
X159756000Y-82521500D01*
X159756000Y-83347120D01*
X159708642Y-83319778D01*
X159575118Y-83284000D01*
X159436882Y-83284000D01*
X159303358Y-83319778D01*
X159256000Y-83347120D01*
X159256000Y-82521500D01*
X158670655Y-82521500D01*
X158611127Y-82527901D01*
X158611120Y-82527903D01*
X158476413Y-82578145D01*
X158476406Y-82578149D01*
X158361312Y-82664309D01*
X158361309Y-82664312D01*
X158275149Y-82779406D01*
X158275145Y-82779413D01*
X158224903Y-82914120D01*
X158224901Y-82914127D01*
X158218500Y-82973655D01*
X142855245Y-82973655D01*
X140917819Y-81036229D01*
X140884334Y-80974906D01*
X140881500Y-80948548D01*
X140881500Y-80323361D01*
X140901185Y-80256322D01*
X140940223Y-80217934D01*
X140967432Y-80201088D01*
X141128427Y-80054322D01*
X141157047Y-80016422D01*
X141213153Y-79974787D01*
X141282865Y-79970094D01*
X141344048Y-80003836D01*
X141354946Y-80016414D01*
X141383573Y-80054322D01*
X141383576Y-80054325D01*
X141383578Y-80054327D01*
X141498569Y-80159154D01*
X141544568Y-80201088D01*
X141544575Y-80201092D01*
X141544576Y-80201093D01*
X141729786Y-80315770D01*
X141729792Y-80315773D01*
X141749379Y-80323361D01*
X141932931Y-80394470D01*
X142147074Y-80434500D01*
X142147076Y-80434500D01*
X142364924Y-80434500D01*
X142364926Y-80434500D01*
X142579069Y-80394470D01*
X142782210Y-80315772D01*
X142967432Y-80201088D01*
X143128427Y-80054322D01*
X143157047Y-80016422D01*
X143213153Y-79974787D01*
X143282865Y-79970094D01*
X143344048Y-80003836D01*
X143354946Y-80016414D01*
X143383573Y-80054322D01*
X143383576Y-80054325D01*
X143383578Y-80054327D01*
X143498569Y-80159154D01*
X143544568Y-80201088D01*
X143544575Y-80201092D01*
X143544576Y-80201093D01*
X143729786Y-80315770D01*
X143729792Y-80315773D01*
X143749379Y-80323361D01*
X143932931Y-80394470D01*
X144147074Y-80434500D01*
X144147076Y-80434500D01*
X144364924Y-80434500D01*
X144364926Y-80434500D01*
X144579069Y-80394470D01*
X144782210Y-80315772D01*
X144967432Y-80201088D01*
X145128427Y-80054322D01*
X145259712Y-79880472D01*
X145356817Y-79685459D01*
X145416435Y-79475923D01*
X145436536Y-79259000D01*
X145420318Y-79083983D01*
X152380500Y-79083983D01*
X152380500Y-79859001D01*
X152380501Y-79859019D01*
X152391000Y-79961796D01*
X152391001Y-79961799D01*
X152446185Y-80128331D01*
X152446187Y-80128336D01*
X152466426Y-80161148D01*
X152523878Y-80254294D01*
X152538289Y-80277657D01*
X152662346Y-80401714D01*
X152665182Y-80403463D01*
X152666717Y-80405170D01*
X152668011Y-80406193D01*
X152667836Y-80406414D01*
X152711905Y-80455411D01*
X152723126Y-80524374D01*
X152695282Y-80588456D01*
X152665182Y-80614537D01*
X152662346Y-80616285D01*
X152538289Y-80740342D01*
X152446187Y-80889663D01*
X152446185Y-80889668D01*
X152440199Y-80907733D01*
X152391001Y-81056203D01*
X152391001Y-81056204D01*
X152391000Y-81056204D01*
X152380500Y-81158983D01*
X152380500Y-81934001D01*
X152380501Y-81934019D01*
X152391000Y-82036796D01*
X152391001Y-82036799D01*
X152437832Y-82178124D01*
X152446186Y-82203334D01*
X152538288Y-82352656D01*
X152662344Y-82476712D01*
X152811666Y-82568814D01*
X152978203Y-82623999D01*
X153080991Y-82634500D01*
X154131008Y-82634499D01*
X154131016Y-82634498D01*
X154131019Y-82634498D01*
X154187302Y-82628748D01*
X154233797Y-82623999D01*
X154400334Y-82568814D01*
X154549656Y-82476712D01*
X154673712Y-82352656D01*
X154765814Y-82203334D01*
X154765815Y-82203331D01*
X154769605Y-82197187D01*
X154771743Y-82198505D01*
X154810073Y-82154948D01*
X154877261Y-82135777D01*
X154944148Y-82155973D01*
X154981853Y-82194676D01*
X155063684Y-82327345D01*
X155187654Y-82451315D01*
X155336875Y-82543356D01*
X155336880Y-82543358D01*
X155503302Y-82598505D01*
X155503309Y-82598506D01*
X155606019Y-82608999D01*
X155855999Y-82608999D01*
X156356000Y-82608999D01*
X156605972Y-82608999D01*
X156605986Y-82608998D01*
X156708697Y-82598505D01*
X156875119Y-82543358D01*
X156875124Y-82543356D01*
X157024345Y-82451315D01*
X157148315Y-82327345D01*
X157240356Y-82178124D01*
X157240358Y-82178119D01*
X157295505Y-82011697D01*
X157295506Y-82011690D01*
X157305999Y-81908986D01*
X157306000Y-81908973D01*
X157306000Y-81759000D01*
X156356000Y-81759000D01*
X156356000Y-82608999D01*
X155855999Y-82608999D01*
X155856000Y-82608998D01*
X155856000Y-81383000D01*
X155875685Y-81315961D01*
X155928489Y-81270206D01*
X155980000Y-81259000D01*
X157305999Y-81259000D01*
X157305999Y-81258500D01*
X157325684Y-81191461D01*
X157378488Y-81145706D01*
X157429999Y-81134500D01*
X158367607Y-81134500D01*
X158428029Y-81122481D01*
X158488452Y-81110463D01*
X158488455Y-81110461D01*
X158488458Y-81110461D01*
X158521787Y-81096654D01*
X158521786Y-81096654D01*
X158521792Y-81096652D01*
X158602286Y-81063312D01*
X158653509Y-81029084D01*
X158704733Y-80994858D01*
X158791858Y-80907733D01*
X158791859Y-80907731D01*
X158798925Y-80900665D01*
X158798928Y-80900661D01*
X159101384Y-80598204D01*
X159162705Y-80564721D01*
X159221155Y-80566111D01*
X159281487Y-80582278D01*
X159441853Y-80596308D01*
X159505998Y-80601920D01*
X159506000Y-80601920D01*
X159506002Y-80601920D01*
X159562128Y-80597009D01*
X159730513Y-80582278D01*
X159948205Y-80523947D01*
X160152460Y-80428702D01*
X160337073Y-80299434D01*
X160496434Y-80140073D01*
X160625702Y-79955460D01*
X160720947Y-79751205D01*
X160779278Y-79533513D01*
X160797422Y-79326126D01*
X160798920Y-79309002D01*
X160798920Y-79308997D01*
X164713080Y-79308997D01*
X164713080Y-79309002D01*
X164732721Y-79533507D01*
X164732722Y-79533514D01*
X164791051Y-79751200D01*
X164791055Y-79751211D01*
X164886296Y-79955456D01*
X164886302Y-79955466D01*
X164955522Y-80054322D01*
X165015566Y-80140073D01*
X165174927Y-80299434D01*
X165359540Y-80428702D01*
X165416818Y-80455411D01*
X165563788Y-80523944D01*
X165563790Y-80523944D01*
X165563795Y-80523947D01*
X165781487Y-80582278D01*
X165941853Y-80596308D01*
X166005998Y-80601920D01*
X166006000Y-80601920D01*
X166006002Y-80601920D01*
X166062128Y-80597009D01*
X166230513Y-80582278D01*
X166448205Y-80523947D01*
X166652460Y-80428702D01*
X166837073Y-80299434D01*
X166996434Y-80140073D01*
X167125702Y-79955460D01*
X167220947Y-79751205D01*
X167279278Y-79533513D01*
X167297422Y-79326126D01*
X167298920Y-79309002D01*
X167298920Y-79308997D01*
X167281422Y-79108992D01*
X167279278Y-79084487D01*
X167220947Y-78866795D01*
X167125702Y-78662540D01*
X167037192Y-78536135D01*
X167930500Y-78536135D01*
X167930500Y-79981870D01*
X167930501Y-79981876D01*
X167936908Y-80041483D01*
X167987202Y-80176328D01*
X167987206Y-80176335D01*
X168073452Y-80291544D01*
X168073455Y-80291547D01*
X168188664Y-80377793D01*
X168188671Y-80377797D01*
X168323517Y-80428091D01*
X168323516Y-80428091D01*
X168329153Y-80428697D01*
X168383127Y-80434500D01*
X169828872Y-80434499D01*
X169888483Y-80428091D01*
X170023331Y-80377796D01*
X170138546Y-80291546D01*
X170200785Y-80208406D01*
X170201087Y-80208003D01*
X170257020Y-80166132D01*
X170326712Y-80161148D01*
X170383891Y-80190677D01*
X170394869Y-80200685D01*
X170394874Y-80200689D01*
X170580012Y-80315322D01*
X170580023Y-80315327D01*
X170783060Y-80393984D01*
X170856000Y-80407619D01*
X170856000Y-79574686D01*
X170860394Y-79579080D01*
X170951606Y-79631741D01*
X171053339Y-79659000D01*
X171158661Y-79659000D01*
X171260394Y-79631741D01*
X171351606Y-79579080D01*
X171356000Y-79574686D01*
X171356000Y-80407619D01*
X171428939Y-80393984D01*
X171631976Y-80315327D01*
X171631987Y-80315322D01*
X171817130Y-80200685D01*
X171817131Y-80200685D01*
X171978054Y-80053985D01*
X172109284Y-79880208D01*
X172206348Y-79685280D01*
X172256505Y-79509000D01*
X171421686Y-79509000D01*
X171426080Y-79504606D01*
X171478741Y-79413394D01*
X171506000Y-79311661D01*
X171506000Y-79206339D01*
X171478741Y-79104606D01*
X171426080Y-79013394D01*
X171421686Y-79009000D01*
X172256505Y-79009000D01*
X172256505Y-79008999D01*
X172206348Y-78832719D01*
X172134142Y-78687711D01*
X172555500Y-78687711D01*
X172555500Y-78930288D01*
X172587161Y-79170785D01*
X172649947Y-79405104D01*
X172722785Y-79580949D01*
X172742776Y-79629212D01*
X172864064Y-79839289D01*
X172864066Y-79839292D01*
X172864067Y-79839293D01*
X173011733Y-80031736D01*
X173011739Y-80031743D01*
X173183256Y-80203260D01*
X173183263Y-80203266D01*
X173249764Y-80254294D01*
X173375711Y-80350936D01*
X173585788Y-80472224D01*
X173809900Y-80565054D01*
X174044211Y-80627838D01*
X174224586Y-80651584D01*
X174284711Y-80659500D01*
X174284712Y-80659500D01*
X174527289Y-80659500D01*
X174575388Y-80653167D01*
X174767789Y-80627838D01*
X175002100Y-80565054D01*
X175226212Y-80472224D01*
X175436289Y-80350936D01*
X175628738Y-80203265D01*
X175800265Y-80031738D01*
X175947936Y-79839289D01*
X176069224Y-79629212D01*
X176162054Y-79405100D01*
X176224838Y-79170789D01*
X176256500Y-78930288D01*
X176256500Y-78687712D01*
X176253186Y-78662543D01*
X176240515Y-78566289D01*
X176224838Y-78447211D01*
X176162054Y-78212900D01*
X176156851Y-78200340D01*
X176131942Y-78140204D01*
X176069224Y-77988788D01*
X175947936Y-77778711D01*
X175854868Y-77657422D01*
X175800266Y-77586263D01*
X175800260Y-77586256D01*
X175628743Y-77414739D01*
X175628736Y-77414733D01*
X175436293Y-77267067D01*
X175436292Y-77267066D01*
X175436289Y-77267064D01*
X175226212Y-77145776D01*
X175226205Y-77145773D01*
X175002104Y-77052947D01*
X174884944Y-77021554D01*
X174767789Y-76990162D01*
X174767788Y-76990161D01*
X174767785Y-76990161D01*
X174527289Y-76958500D01*
X174527288Y-76958500D01*
X174284712Y-76958500D01*
X174284711Y-76958500D01*
X174044214Y-76990161D01*
X173809895Y-77052947D01*
X173585794Y-77145773D01*
X173585785Y-77145777D01*
X173375706Y-77267067D01*
X173183263Y-77414733D01*
X173183256Y-77414739D01*
X173011739Y-77586256D01*
X173011733Y-77586263D01*
X172864067Y-77778706D01*
X172742777Y-77988785D01*
X172742773Y-77988794D01*
X172649947Y-78212895D01*
X172587161Y-78447214D01*
X172555500Y-78687711D01*
X172134142Y-78687711D01*
X172109284Y-78637791D01*
X171978054Y-78464014D01*
X171817131Y-78317314D01*
X171631987Y-78202677D01*
X171631985Y-78202676D01*
X171428931Y-78124013D01*
X171428921Y-78124010D01*
X171356001Y-78110378D01*
X171356000Y-78110379D01*
X171356000Y-78943314D01*
X171351606Y-78938920D01*
X171260394Y-78886259D01*
X171158661Y-78859000D01*
X171053339Y-78859000D01*
X170951606Y-78886259D01*
X170860394Y-78938920D01*
X170856000Y-78943314D01*
X170856000Y-78110379D01*
X170855998Y-78110378D01*
X170783078Y-78124010D01*
X170783068Y-78124013D01*
X170580014Y-78202676D01*
X170580012Y-78202677D01*
X170394869Y-78317314D01*
X170394868Y-78317314D01*
X170383887Y-78327325D01*
X170321082Y-78357940D01*
X170251695Y-78349740D01*
X170201086Y-78309997D01*
X170138546Y-78226454D01*
X170103662Y-78200340D01*
X170023335Y-78140206D01*
X170023328Y-78140202D01*
X169888482Y-78089908D01*
X169888483Y-78089908D01*
X169828883Y-78083501D01*
X169828881Y-78083500D01*
X169828873Y-78083500D01*
X169828864Y-78083500D01*
X168383129Y-78083500D01*
X168383123Y-78083501D01*
X168323516Y-78089908D01*
X168188671Y-78140202D01*
X168188664Y-78140206D01*
X168073455Y-78226452D01*
X168073452Y-78226455D01*
X167987206Y-78341664D01*
X167987202Y-78341671D01*
X167936908Y-78476517D01*
X167930501Y-78536116D01*
X167930500Y-78536135D01*
X167037192Y-78536135D01*
X166996434Y-78477927D01*
X166837073Y-78318566D01*
X166824260Y-78309594D01*
X166652466Y-78189302D01*
X166652463Y-78189300D01*
X166652460Y-78189298D01*
X166652456Y-78189296D01*
X166448211Y-78094055D01*
X166448200Y-78094051D01*
X166230514Y-78035722D01*
X166230507Y-78035721D01*
X166006002Y-78016080D01*
X166005998Y-78016080D01*
X165781492Y-78035721D01*
X165781485Y-78035722D01*
X165563799Y-78094051D01*
X165563788Y-78094055D01*
X165359543Y-78189296D01*
X165359533Y-78189302D01*
X165174926Y-78318566D01*
X165015566Y-78477926D01*
X164886302Y-78662533D01*
X164886296Y-78662543D01*
X164791055Y-78866788D01*
X164791051Y-78866799D01*
X164732722Y-79084485D01*
X164732721Y-79084492D01*
X164713080Y-79308997D01*
X160798920Y-79308997D01*
X160781422Y-79108992D01*
X160779278Y-79084487D01*
X160720947Y-78866795D01*
X160625702Y-78662540D01*
X160496434Y-78477927D01*
X160337073Y-78318566D01*
X160324260Y-78309594D01*
X160152466Y-78189302D01*
X160152463Y-78189300D01*
X160152460Y-78189298D01*
X160152456Y-78189296D01*
X159948211Y-78094055D01*
X159948200Y-78094051D01*
X159730514Y-78035722D01*
X159730507Y-78035721D01*
X159506002Y-78016080D01*
X159505998Y-78016080D01*
X159281492Y-78035721D01*
X159281485Y-78035722D01*
X159063799Y-78094051D01*
X159063788Y-78094055D01*
X158859543Y-78189296D01*
X158859533Y-78189302D01*
X158674926Y-78318566D01*
X158515566Y-78477926D01*
X158386302Y-78662533D01*
X158386296Y-78662543D01*
X158291055Y-78866788D01*
X158291051Y-78866799D01*
X158232722Y-79084485D01*
X158232721Y-79084492D01*
X158213080Y-79308997D01*
X158213080Y-79309002D01*
X158232721Y-79533507D01*
X158232723Y-79533518D01*
X158248887Y-79593842D01*
X158247224Y-79663692D01*
X158216795Y-79713614D01*
X158083227Y-79847182D01*
X158021907Y-79880666D01*
X157995548Y-79883500D01*
X157430500Y-79883500D01*
X157363461Y-79863815D01*
X157317706Y-79811011D01*
X157306500Y-79759500D01*
X157306499Y-79108998D01*
X157306498Y-79108980D01*
X157295999Y-79006203D01*
X157295998Y-79006200D01*
X157287715Y-78981203D01*
X157240814Y-78839666D01*
X157148712Y-78690344D01*
X157024656Y-78566288D01*
X156919741Y-78501576D01*
X156875336Y-78474187D01*
X156875331Y-78474185D01*
X156843617Y-78463676D01*
X156708797Y-78419001D01*
X156708795Y-78419000D01*
X156606010Y-78408500D01*
X155605998Y-78408500D01*
X155605980Y-78408501D01*
X155503203Y-78419000D01*
X155503200Y-78419001D01*
X155336668Y-78474185D01*
X155336663Y-78474187D01*
X155187342Y-78566289D01*
X155063289Y-78690342D01*
X155003611Y-78787097D01*
X154951663Y-78833821D01*
X154898072Y-78846000D01*
X154854348Y-78846000D01*
X154787309Y-78826315D01*
X154748809Y-78787097D01*
X154673712Y-78665344D01*
X154549656Y-78541288D01*
X154424374Y-78464014D01*
X154400336Y-78449187D01*
X154400331Y-78449185D01*
X154368659Y-78438690D01*
X154233797Y-78394001D01*
X154233795Y-78394000D01*
X154131010Y-78383500D01*
X153080998Y-78383500D01*
X153080980Y-78383501D01*
X152978203Y-78394000D01*
X152978200Y-78394001D01*
X152811668Y-78449185D01*
X152811663Y-78449187D01*
X152662342Y-78541289D01*
X152538289Y-78665342D01*
X152446187Y-78814663D01*
X152446185Y-78814668D01*
X152437903Y-78839663D01*
X152391001Y-78981203D01*
X152391001Y-78981204D01*
X152391000Y-78981204D01*
X152380500Y-79083983D01*
X145420318Y-79083983D01*
X145416435Y-79042077D01*
X145356817Y-78832541D01*
X145259712Y-78637528D01*
X145128427Y-78463678D01*
X145101016Y-78438690D01*
X145003443Y-78349740D01*
X144967432Y-78316912D01*
X144967428Y-78316909D01*
X144967423Y-78316906D01*
X144782213Y-78202229D01*
X144782207Y-78202226D01*
X144697113Y-78169260D01*
X144579069Y-78123530D01*
X144364926Y-78083500D01*
X144147074Y-78083500D01*
X143932931Y-78123530D01*
X143889896Y-78140202D01*
X143729792Y-78202226D01*
X143729786Y-78202229D01*
X143544576Y-78316906D01*
X143544566Y-78316913D01*
X143383573Y-78463676D01*
X143354953Y-78501576D01*
X143298844Y-78543211D01*
X143229132Y-78547902D01*
X143167950Y-78514159D01*
X143157047Y-78501576D01*
X143128426Y-78463676D01*
X142967433Y-78316913D01*
X142967423Y-78316906D01*
X142782213Y-78202229D01*
X142782207Y-78202226D01*
X142697113Y-78169260D01*
X142579069Y-78123530D01*
X142364926Y-78083500D01*
X142147074Y-78083500D01*
X141932931Y-78123530D01*
X141889896Y-78140202D01*
X141729792Y-78202226D01*
X141729786Y-78202229D01*
X141544576Y-78316906D01*
X141544566Y-78316913D01*
X141383573Y-78463676D01*
X141354953Y-78501576D01*
X141298844Y-78543211D01*
X141229132Y-78547902D01*
X141167950Y-78514159D01*
X141157047Y-78501576D01*
X141128426Y-78463676D01*
X140967433Y-78316913D01*
X140967423Y-78316906D01*
X140782213Y-78202229D01*
X140782207Y-78202226D01*
X140697113Y-78169260D01*
X140579069Y-78123530D01*
X140364926Y-78083500D01*
X140147074Y-78083500D01*
X139932931Y-78123530D01*
X139889896Y-78140202D01*
X139729792Y-78202226D01*
X139729786Y-78202229D01*
X139544576Y-78316906D01*
X139544566Y-78316913D01*
X139383573Y-78463676D01*
X139354953Y-78501576D01*
X139298844Y-78543211D01*
X139229132Y-78547902D01*
X139167950Y-78514159D01*
X139157047Y-78501576D01*
X139128426Y-78463676D01*
X138967433Y-78316913D01*
X138967423Y-78316906D01*
X138782213Y-78202229D01*
X138782207Y-78202226D01*
X138697113Y-78169260D01*
X138579069Y-78123530D01*
X138364926Y-78083500D01*
X138147074Y-78083500D01*
X137932931Y-78123530D01*
X137889896Y-78140202D01*
X137729792Y-78202226D01*
X137729786Y-78202229D01*
X137544576Y-78316906D01*
X137544566Y-78316913D01*
X137383573Y-78463676D01*
X137354953Y-78501576D01*
X137298844Y-78543211D01*
X137229132Y-78547902D01*
X137167950Y-78514159D01*
X137157047Y-78501576D01*
X137128426Y-78463676D01*
X136967433Y-78316913D01*
X136967423Y-78316906D01*
X136782213Y-78202229D01*
X136782207Y-78202226D01*
X136697113Y-78169260D01*
X136579069Y-78123530D01*
X136364926Y-78083500D01*
X136147074Y-78083500D01*
X135932931Y-78123530D01*
X135889896Y-78140202D01*
X135729792Y-78202226D01*
X135729786Y-78202229D01*
X135544576Y-78316906D01*
X135544566Y-78316913D01*
X135383573Y-78463676D01*
X135354953Y-78501576D01*
X135298844Y-78543211D01*
X135229132Y-78547902D01*
X135167950Y-78514159D01*
X135157047Y-78501576D01*
X135128426Y-78463676D01*
X134967433Y-78316913D01*
X134967423Y-78316906D01*
X134782213Y-78202229D01*
X134782207Y-78202226D01*
X134697113Y-78169260D01*
X134579069Y-78123530D01*
X134364926Y-78083500D01*
X134147074Y-78083500D01*
X133932931Y-78123530D01*
X133889896Y-78140202D01*
X133729792Y-78202226D01*
X133729786Y-78202229D01*
X133544576Y-78316906D01*
X133544566Y-78316913D01*
X133383573Y-78463676D01*
X133354953Y-78501576D01*
X133298844Y-78543211D01*
X133229132Y-78547902D01*
X133167950Y-78514159D01*
X133157047Y-78501576D01*
X133128426Y-78463676D01*
X132967433Y-78316913D01*
X132967423Y-78316906D01*
X132782213Y-78202229D01*
X132782207Y-78202226D01*
X132697113Y-78169260D01*
X132579069Y-78123530D01*
X132364926Y-78083500D01*
X132147074Y-78083500D01*
X131932931Y-78123530D01*
X131889896Y-78140202D01*
X131729792Y-78202226D01*
X131729786Y-78202229D01*
X131544565Y-78316913D01*
X131533585Y-78326923D01*
X131470780Y-78357537D01*
X131401393Y-78349336D01*
X131350785Y-78309594D01*
X131324848Y-78274948D01*
X131288546Y-78226454D01*
X131288544Y-78226453D01*
X131288544Y-78226452D01*
X131173335Y-78140206D01*
X131173328Y-78140202D01*
X131038482Y-78089908D01*
X131038483Y-78089908D01*
X130978883Y-78083501D01*
X130978881Y-78083500D01*
X130978873Y-78083500D01*
X130978864Y-78083500D01*
X129533129Y-78083500D01*
X129533123Y-78083501D01*
X129473516Y-78089908D01*
X129338671Y-78140202D01*
X129338664Y-78140206D01*
X129223455Y-78226452D01*
X129223452Y-78226455D01*
X129137206Y-78341664D01*
X129137202Y-78341671D01*
X129086908Y-78476517D01*
X129080501Y-78536116D01*
X129080500Y-78536135D01*
X117037192Y-78536135D01*
X116996434Y-78477927D01*
X116837073Y-78318566D01*
X116824260Y-78309594D01*
X116652466Y-78189302D01*
X116652463Y-78189300D01*
X116652460Y-78189298D01*
X116652456Y-78189296D01*
X116448211Y-78094055D01*
X116448200Y-78094051D01*
X116230514Y-78035722D01*
X116230507Y-78035721D01*
X116006002Y-78016080D01*
X116005998Y-78016080D01*
X115781492Y-78035721D01*
X115781485Y-78035722D01*
X115563799Y-78094051D01*
X115563788Y-78094055D01*
X115359543Y-78189296D01*
X115359533Y-78189302D01*
X115174926Y-78318566D01*
X115015566Y-78477926D01*
X114886302Y-78662533D01*
X114886296Y-78662543D01*
X114791055Y-78866788D01*
X114791051Y-78866799D01*
X114732722Y-79084485D01*
X114732721Y-79084492D01*
X114713080Y-79308997D01*
X110798920Y-79308997D01*
X110781422Y-79108992D01*
X110779278Y-79084487D01*
X110720947Y-78866795D01*
X110625702Y-78662540D01*
X110496434Y-78477927D01*
X110337073Y-78318566D01*
X110324260Y-78309594D01*
X110152466Y-78189302D01*
X110152463Y-78189300D01*
X110152460Y-78189298D01*
X110152456Y-78189296D01*
X109948211Y-78094055D01*
X109948200Y-78094051D01*
X109730514Y-78035722D01*
X109730507Y-78035721D01*
X109506002Y-78016080D01*
X109505998Y-78016080D01*
X109281492Y-78035721D01*
X109281485Y-78035722D01*
X109063799Y-78094051D01*
X109063788Y-78094055D01*
X108859543Y-78189296D01*
X108859533Y-78189302D01*
X108674926Y-78318566D01*
X108515566Y-78477926D01*
X108386302Y-78662533D01*
X108386296Y-78662543D01*
X108291055Y-78866788D01*
X108291051Y-78866799D01*
X108232722Y-79084485D01*
X108232721Y-79084492D01*
X108213080Y-79308997D01*
X102787805Y-79308997D01*
X102824838Y-79170789D01*
X102856500Y-78930288D01*
X102856500Y-78687712D01*
X102853186Y-78662543D01*
X102840515Y-78566289D01*
X102824838Y-78447211D01*
X102762054Y-78212900D01*
X102756851Y-78200340D01*
X102731942Y-78140204D01*
X102669224Y-77988788D01*
X102547936Y-77778711D01*
X102454868Y-77657422D01*
X102400266Y-77586263D01*
X102400260Y-77586256D01*
X102228743Y-77414739D01*
X102228736Y-77414733D01*
X102036293Y-77267067D01*
X102036292Y-77267066D01*
X102036289Y-77267064D01*
X101826212Y-77145776D01*
X101826205Y-77145773D01*
X101602104Y-77052947D01*
X101484944Y-77021554D01*
X101367789Y-76990162D01*
X101367788Y-76990161D01*
X101367785Y-76990161D01*
X101127289Y-76958500D01*
X101127288Y-76958500D01*
X100884712Y-76958500D01*
X100884711Y-76958500D01*
X100644214Y-76990161D01*
X100409895Y-77052947D01*
X100185794Y-77145773D01*
X100185785Y-77145777D01*
X99975706Y-77267067D01*
X99783263Y-77414733D01*
X99783256Y-77414739D01*
X99611739Y-77586256D01*
X99611733Y-77586263D01*
X99464067Y-77778706D01*
X99342777Y-77988785D01*
X99342773Y-77988794D01*
X99249947Y-78212895D01*
X99187161Y-78447214D01*
X99155500Y-78687711D01*
X98206500Y-78687711D01*
X98206500Y-78512750D01*
X98206726Y-78505263D01*
X98206949Y-78501576D01*
X98224271Y-78215201D01*
X98226076Y-78200340D01*
X98237097Y-78140204D01*
X98277780Y-77918197D01*
X98281364Y-77903663D01*
X98320301Y-77778711D01*
X98366696Y-77629822D01*
X98371998Y-77615841D01*
X98489731Y-77354249D01*
X98496676Y-77341016D01*
X98645080Y-77095526D01*
X98653567Y-77083230D01*
X98830480Y-76857417D01*
X98840395Y-76846226D01*
X99043226Y-76643395D01*
X99054417Y-76633480D01*
X99280230Y-76456567D01*
X99292526Y-76448080D01*
X99538016Y-76299676D01*
X99551249Y-76292731D01*
X99812841Y-76174998D01*
X99826822Y-76169696D01*
X100100668Y-76084362D01*
X100115197Y-76080780D01*
X100397344Y-76029075D01*
X100412201Y-76027271D01*
X100702264Y-76009726D01*
X100709751Y-76009500D01*
X100771892Y-76009500D01*
X174640108Y-76009500D01*
X174702249Y-76009500D01*
X174709736Y-76009726D01*
G37*
%TD.AperFunction*%
%TD*%
D26*
X117300000Y-128800000D03*
D27*
X120871000Y-117959000D03*
X115446000Y-123059000D03*
X119721000Y-128109000D03*
X141921000Y-112109000D03*
X139956000Y-129459000D03*
X129956000Y-129459000D03*
X134521000Y-111909000D03*
X120703000Y-122122000D03*
X160506000Y-86409000D03*
X174406000Y-112809000D03*
X101006000Y-78809000D03*
X159506000Y-83809000D03*
X166006000Y-83809000D03*
X159506000Y-79309000D03*
X166006000Y-79309000D03*
X150506000Y-88309000D03*
X150506000Y-94809000D03*
X155006000Y-88309000D03*
X155006000Y-94809000D03*
X174406000Y-78809000D03*
X174406000Y-132209000D03*
X101006000Y-132209000D03*
X174406000Y-104209000D03*
X109506000Y-83809000D03*
X116006000Y-83809000D03*
X109506000Y-79309000D03*
X116006000Y-79309000D03*
X170506000Y-88309000D03*
X170506000Y-94809000D03*
X175006000Y-88309000D03*
X175006000Y-94809000D03*
X131306000Y-127609000D03*
X133846000Y-127609000D03*
X136386000Y-127609000D03*
X138926000Y-127609000D03*
X141466000Y-127609000D03*
X144006000Y-127609000D03*
X144011000Y-117449000D03*
X141471000Y-117449000D03*
X138931000Y-117449000D03*
X136391000Y-117449000D03*
X133851000Y-117449000D03*
X131311000Y-117449000D03*
X100456000Y-119259000D03*
X100456000Y-125759000D03*
X104956000Y-119259000D03*
X104956000Y-125759000D03*
X101006000Y-104209000D03*
X174956000Y-125759000D03*
X174956000Y-119259000D03*
X170456000Y-125759000D03*
X170456000Y-119259000D03*
X169106000Y-79259000D03*
X171106000Y-79259000D03*
X130256000Y-79259000D03*
X132256000Y-79259000D03*
X134256000Y-79259000D03*
X136256000Y-79259000D03*
X138256000Y-79259000D03*
X140256000Y-79259000D03*
X142256000Y-79259000D03*
X144256000Y-79259000D03*
X159506000Y-103809000D03*
X166006000Y-103809000D03*
X159506000Y-99309000D03*
X166006000Y-99309000D03*
X120506000Y-88309000D03*
X120506000Y-94809000D03*
X125006000Y-88309000D03*
X125006000Y-94809000D03*
X109071000Y-132659000D03*
X111071000Y-132659000D03*
X109506000Y-103809000D03*
X116006000Y-103809000D03*
X109506000Y-99309000D03*
X116006000Y-99309000D03*
X100506000Y-88309000D03*
X100506000Y-94809000D03*
X105006000Y-88309000D03*
X105006000Y-94809000D03*
X163206000Y-132259000D03*
X165206000Y-132259000D03*
X146206000Y-131709000D03*
X148206000Y-131709000D03*
X150206000Y-131709000D03*
X152206000Y-131709000D03*
X110206000Y-120609000D03*
X110206000Y-122609000D03*
X110206000Y-124609000D03*
X101006000Y-112809000D03*
M02*
