%TF.GenerationSoftware,KiCad,Pcbnew,8.0.4*%
%TF.CreationDate,2024-08-07T19:34:08-04:00*%
%TF.ProjectId,button_board,62757474-6f6e-45f6-926f-6172642e6b69,rev?*%
%TF.SameCoordinates,Original*%
%TF.FileFunction,Legend,Bot*%
%TF.FilePolarity,Positive*%
%FSLAX46Y46*%
G04 Gerber Fmt 4.6, Leading zero omitted, Abs format (unit mm)*
G04 Created by KiCad (PCBNEW 8.0.4) date 2024-08-07 19:34:08*
%MOMM*%
%LPD*%
G01*
G04 APERTURE LIST*
%ADD10C,0.150000*%
%ADD11C,0.120000*%
%ADD12C,0.350000*%
G04 APERTURE END LIST*
D10*
X112748857Y-90968580D02*
X112796476Y-91016200D01*
X112796476Y-91016200D02*
X112939333Y-91063819D01*
X112939333Y-91063819D02*
X113034571Y-91063819D01*
X113034571Y-91063819D02*
X113177428Y-91016200D01*
X113177428Y-91016200D02*
X113272666Y-90920961D01*
X113272666Y-90920961D02*
X113320285Y-90825723D01*
X113320285Y-90825723D02*
X113367904Y-90635247D01*
X113367904Y-90635247D02*
X113367904Y-90492390D01*
X113367904Y-90492390D02*
X113320285Y-90301914D01*
X113320285Y-90301914D02*
X113272666Y-90206676D01*
X113272666Y-90206676D02*
X113177428Y-90111438D01*
X113177428Y-90111438D02*
X113034571Y-90063819D01*
X113034571Y-90063819D02*
X112939333Y-90063819D01*
X112939333Y-90063819D02*
X112796476Y-90111438D01*
X112796476Y-90111438D02*
X112748857Y-90159057D01*
X111796476Y-91063819D02*
X112367904Y-91063819D01*
X112082190Y-91063819D02*
X112082190Y-90063819D01*
X112082190Y-90063819D02*
X112177428Y-90206676D01*
X112177428Y-90206676D02*
X112272666Y-90301914D01*
X112272666Y-90301914D02*
X112367904Y-90349533D01*
X110939333Y-90397152D02*
X110939333Y-91063819D01*
X111177428Y-90016200D02*
X111415523Y-90730485D01*
X111415523Y-90730485D02*
X110796476Y-90730485D01*
X112648857Y-93463819D02*
X112982190Y-92987628D01*
X113220285Y-93463819D02*
X113220285Y-92463819D01*
X113220285Y-92463819D02*
X112839333Y-92463819D01*
X112839333Y-92463819D02*
X112744095Y-92511438D01*
X112744095Y-92511438D02*
X112696476Y-92559057D01*
X112696476Y-92559057D02*
X112648857Y-92654295D01*
X112648857Y-92654295D02*
X112648857Y-92797152D01*
X112648857Y-92797152D02*
X112696476Y-92892390D01*
X112696476Y-92892390D02*
X112744095Y-92940009D01*
X112744095Y-92940009D02*
X112839333Y-92987628D01*
X112839333Y-92987628D02*
X113220285Y-92987628D01*
X112315523Y-92463819D02*
X111696476Y-92463819D01*
X111696476Y-92463819D02*
X112029809Y-92844771D01*
X112029809Y-92844771D02*
X111886952Y-92844771D01*
X111886952Y-92844771D02*
X111791714Y-92892390D01*
X111791714Y-92892390D02*
X111744095Y-92940009D01*
X111744095Y-92940009D02*
X111696476Y-93035247D01*
X111696476Y-93035247D02*
X111696476Y-93273342D01*
X111696476Y-93273342D02*
X111744095Y-93368580D01*
X111744095Y-93368580D02*
X111791714Y-93416200D01*
X111791714Y-93416200D02*
X111886952Y-93463819D01*
X111886952Y-93463819D02*
X112172666Y-93463819D01*
X112172666Y-93463819D02*
X112267904Y-93416200D01*
X112267904Y-93416200D02*
X112315523Y-93368580D01*
X110744095Y-93463819D02*
X111315523Y-93463819D01*
X111029809Y-93463819D02*
X111029809Y-92463819D01*
X111029809Y-92463819D02*
X111125047Y-92606676D01*
X111125047Y-92606676D02*
X111220285Y-92701914D01*
X111220285Y-92701914D02*
X111315523Y-92749533D01*
X105465580Y-98066142D02*
X105513200Y-98018523D01*
X105513200Y-98018523D02*
X105560819Y-97875666D01*
X105560819Y-97875666D02*
X105560819Y-97780428D01*
X105560819Y-97780428D02*
X105513200Y-97637571D01*
X105513200Y-97637571D02*
X105417961Y-97542333D01*
X105417961Y-97542333D02*
X105322723Y-97494714D01*
X105322723Y-97494714D02*
X105132247Y-97447095D01*
X105132247Y-97447095D02*
X104989390Y-97447095D01*
X104989390Y-97447095D02*
X104798914Y-97494714D01*
X104798914Y-97494714D02*
X104703676Y-97542333D01*
X104703676Y-97542333D02*
X104608438Y-97637571D01*
X104608438Y-97637571D02*
X104560819Y-97780428D01*
X104560819Y-97780428D02*
X104560819Y-97875666D01*
X104560819Y-97875666D02*
X104608438Y-98018523D01*
X104608438Y-98018523D02*
X104656057Y-98066142D01*
X105560819Y-99018523D02*
X105560819Y-98447095D01*
X105560819Y-98732809D02*
X104560819Y-98732809D01*
X104560819Y-98732809D02*
X104703676Y-98637571D01*
X104703676Y-98637571D02*
X104798914Y-98542333D01*
X104798914Y-98542333D02*
X104846533Y-98447095D01*
X104560819Y-99923285D02*
X104560819Y-99447095D01*
X104560819Y-99447095D02*
X105037009Y-99399476D01*
X105037009Y-99399476D02*
X104989390Y-99447095D01*
X104989390Y-99447095D02*
X104941771Y-99542333D01*
X104941771Y-99542333D02*
X104941771Y-99780428D01*
X104941771Y-99780428D02*
X104989390Y-99875666D01*
X104989390Y-99875666D02*
X105037009Y-99923285D01*
X105037009Y-99923285D02*
X105132247Y-99970904D01*
X105132247Y-99970904D02*
X105370342Y-99970904D01*
X105370342Y-99970904D02*
X105465580Y-99923285D01*
X105465580Y-99923285D02*
X105513200Y-99875666D01*
X105513200Y-99875666D02*
X105560819Y-99780428D01*
X105560819Y-99780428D02*
X105560819Y-99542333D01*
X105560819Y-99542333D02*
X105513200Y-99447095D01*
X105513200Y-99447095D02*
X105465580Y-99399476D01*
X124011357Y-82963819D02*
X124344690Y-82487628D01*
X124582785Y-82963819D02*
X124582785Y-81963819D01*
X124582785Y-81963819D02*
X124201833Y-81963819D01*
X124201833Y-81963819D02*
X124106595Y-82011438D01*
X124106595Y-82011438D02*
X124058976Y-82059057D01*
X124058976Y-82059057D02*
X124011357Y-82154295D01*
X124011357Y-82154295D02*
X124011357Y-82297152D01*
X124011357Y-82297152D02*
X124058976Y-82392390D01*
X124058976Y-82392390D02*
X124106595Y-82440009D01*
X124106595Y-82440009D02*
X124201833Y-82487628D01*
X124201833Y-82487628D02*
X124582785Y-82487628D01*
X123678023Y-81963819D02*
X123058976Y-81963819D01*
X123058976Y-81963819D02*
X123392309Y-82344771D01*
X123392309Y-82344771D02*
X123249452Y-82344771D01*
X123249452Y-82344771D02*
X123154214Y-82392390D01*
X123154214Y-82392390D02*
X123106595Y-82440009D01*
X123106595Y-82440009D02*
X123058976Y-82535247D01*
X123058976Y-82535247D02*
X123058976Y-82773342D01*
X123058976Y-82773342D02*
X123106595Y-82868580D01*
X123106595Y-82868580D02*
X123154214Y-82916200D01*
X123154214Y-82916200D02*
X123249452Y-82963819D01*
X123249452Y-82963819D02*
X123535166Y-82963819D01*
X123535166Y-82963819D02*
X123630404Y-82916200D01*
X123630404Y-82916200D02*
X123678023Y-82868580D01*
X122439928Y-81963819D02*
X122344690Y-81963819D01*
X122344690Y-81963819D02*
X122249452Y-82011438D01*
X122249452Y-82011438D02*
X122201833Y-82059057D01*
X122201833Y-82059057D02*
X122154214Y-82154295D01*
X122154214Y-82154295D02*
X122106595Y-82344771D01*
X122106595Y-82344771D02*
X122106595Y-82582866D01*
X122106595Y-82582866D02*
X122154214Y-82773342D01*
X122154214Y-82773342D02*
X122201833Y-82868580D01*
X122201833Y-82868580D02*
X122249452Y-82916200D01*
X122249452Y-82916200D02*
X122344690Y-82963819D01*
X122344690Y-82963819D02*
X122439928Y-82963819D01*
X122439928Y-82963819D02*
X122535166Y-82916200D01*
X122535166Y-82916200D02*
X122582785Y-82868580D01*
X122582785Y-82868580D02*
X122630404Y-82773342D01*
X122630404Y-82773342D02*
X122678023Y-82582866D01*
X122678023Y-82582866D02*
X122678023Y-82344771D01*
X122678023Y-82344771D02*
X122630404Y-82154295D01*
X122630404Y-82154295D02*
X122582785Y-82059057D01*
X122582785Y-82059057D02*
X122535166Y-82011438D01*
X122535166Y-82011438D02*
X122439928Y-81963819D01*
X147710819Y-93753642D02*
X147234628Y-93420309D01*
X147710819Y-93182214D02*
X146710819Y-93182214D01*
X146710819Y-93182214D02*
X146710819Y-93563166D01*
X146710819Y-93563166D02*
X146758438Y-93658404D01*
X146758438Y-93658404D02*
X146806057Y-93706023D01*
X146806057Y-93706023D02*
X146901295Y-93753642D01*
X146901295Y-93753642D02*
X147044152Y-93753642D01*
X147044152Y-93753642D02*
X147139390Y-93706023D01*
X147139390Y-93706023D02*
X147187009Y-93658404D01*
X147187009Y-93658404D02*
X147234628Y-93563166D01*
X147234628Y-93563166D02*
X147234628Y-93182214D01*
X146710819Y-94086976D02*
X146710819Y-94706023D01*
X146710819Y-94706023D02*
X147091771Y-94372690D01*
X147091771Y-94372690D02*
X147091771Y-94515547D01*
X147091771Y-94515547D02*
X147139390Y-94610785D01*
X147139390Y-94610785D02*
X147187009Y-94658404D01*
X147187009Y-94658404D02*
X147282247Y-94706023D01*
X147282247Y-94706023D02*
X147520342Y-94706023D01*
X147520342Y-94706023D02*
X147615580Y-94658404D01*
X147615580Y-94658404D02*
X147663200Y-94610785D01*
X147663200Y-94610785D02*
X147710819Y-94515547D01*
X147710819Y-94515547D02*
X147710819Y-94229833D01*
X147710819Y-94229833D02*
X147663200Y-94134595D01*
X147663200Y-94134595D02*
X147615580Y-94086976D01*
X147710819Y-95182214D02*
X147710819Y-95372690D01*
X147710819Y-95372690D02*
X147663200Y-95467928D01*
X147663200Y-95467928D02*
X147615580Y-95515547D01*
X147615580Y-95515547D02*
X147472723Y-95610785D01*
X147472723Y-95610785D02*
X147282247Y-95658404D01*
X147282247Y-95658404D02*
X146901295Y-95658404D01*
X146901295Y-95658404D02*
X146806057Y-95610785D01*
X146806057Y-95610785D02*
X146758438Y-95563166D01*
X146758438Y-95563166D02*
X146710819Y-95467928D01*
X146710819Y-95467928D02*
X146710819Y-95277452D01*
X146710819Y-95277452D02*
X146758438Y-95182214D01*
X146758438Y-95182214D02*
X146806057Y-95134595D01*
X146806057Y-95134595D02*
X146901295Y-95086976D01*
X146901295Y-95086976D02*
X147139390Y-95086976D01*
X147139390Y-95086976D02*
X147234628Y-95134595D01*
X147234628Y-95134595D02*
X147282247Y-95182214D01*
X147282247Y-95182214D02*
X147329866Y-95277452D01*
X147329866Y-95277452D02*
X147329866Y-95467928D01*
X147329866Y-95467928D02*
X147282247Y-95563166D01*
X147282247Y-95563166D02*
X147234628Y-95610785D01*
X147234628Y-95610785D02*
X147139390Y-95658404D01*
X152710819Y-100566142D02*
X152234628Y-100232809D01*
X152710819Y-99994714D02*
X151710819Y-99994714D01*
X151710819Y-99994714D02*
X151710819Y-100375666D01*
X151710819Y-100375666D02*
X151758438Y-100470904D01*
X151758438Y-100470904D02*
X151806057Y-100518523D01*
X151806057Y-100518523D02*
X151901295Y-100566142D01*
X151901295Y-100566142D02*
X152044152Y-100566142D01*
X152044152Y-100566142D02*
X152139390Y-100518523D01*
X152139390Y-100518523D02*
X152187009Y-100470904D01*
X152187009Y-100470904D02*
X152234628Y-100375666D01*
X152234628Y-100375666D02*
X152234628Y-99994714D01*
X152044152Y-101423285D02*
X152710819Y-101423285D01*
X151663200Y-101185190D02*
X152377485Y-100947095D01*
X152377485Y-100947095D02*
X152377485Y-101566142D01*
X151710819Y-102137571D02*
X151710819Y-102232809D01*
X151710819Y-102232809D02*
X151758438Y-102328047D01*
X151758438Y-102328047D02*
X151806057Y-102375666D01*
X151806057Y-102375666D02*
X151901295Y-102423285D01*
X151901295Y-102423285D02*
X152091771Y-102470904D01*
X152091771Y-102470904D02*
X152329866Y-102470904D01*
X152329866Y-102470904D02*
X152520342Y-102423285D01*
X152520342Y-102423285D02*
X152615580Y-102375666D01*
X152615580Y-102375666D02*
X152663200Y-102328047D01*
X152663200Y-102328047D02*
X152710819Y-102232809D01*
X152710819Y-102232809D02*
X152710819Y-102137571D01*
X152710819Y-102137571D02*
X152663200Y-102042333D01*
X152663200Y-102042333D02*
X152615580Y-101994714D01*
X152615580Y-101994714D02*
X152520342Y-101947095D01*
X152520342Y-101947095D02*
X152329866Y-101899476D01*
X152329866Y-101899476D02*
X152091771Y-101899476D01*
X152091771Y-101899476D02*
X151901295Y-101947095D01*
X151901295Y-101947095D02*
X151806057Y-101994714D01*
X151806057Y-101994714D02*
X151758438Y-102042333D01*
X151758438Y-102042333D02*
X151710819Y-102137571D01*
X124165580Y-102516142D02*
X124213200Y-102468523D01*
X124213200Y-102468523D02*
X124260819Y-102325666D01*
X124260819Y-102325666D02*
X124260819Y-102230428D01*
X124260819Y-102230428D02*
X124213200Y-102087571D01*
X124213200Y-102087571D02*
X124117961Y-101992333D01*
X124117961Y-101992333D02*
X124022723Y-101944714D01*
X124022723Y-101944714D02*
X123832247Y-101897095D01*
X123832247Y-101897095D02*
X123689390Y-101897095D01*
X123689390Y-101897095D02*
X123498914Y-101944714D01*
X123498914Y-101944714D02*
X123403676Y-101992333D01*
X123403676Y-101992333D02*
X123308438Y-102087571D01*
X123308438Y-102087571D02*
X123260819Y-102230428D01*
X123260819Y-102230428D02*
X123260819Y-102325666D01*
X123260819Y-102325666D02*
X123308438Y-102468523D01*
X123308438Y-102468523D02*
X123356057Y-102516142D01*
X124260819Y-103468523D02*
X124260819Y-102897095D01*
X124260819Y-103182809D02*
X123260819Y-103182809D01*
X123260819Y-103182809D02*
X123403676Y-103087571D01*
X123403676Y-103087571D02*
X123498914Y-102992333D01*
X123498914Y-102992333D02*
X123546533Y-102897095D01*
X123260819Y-104325666D02*
X123260819Y-104135190D01*
X123260819Y-104135190D02*
X123308438Y-104039952D01*
X123308438Y-104039952D02*
X123356057Y-103992333D01*
X123356057Y-103992333D02*
X123498914Y-103897095D01*
X123498914Y-103897095D02*
X123689390Y-103849476D01*
X123689390Y-103849476D02*
X124070342Y-103849476D01*
X124070342Y-103849476D02*
X124165580Y-103897095D01*
X124165580Y-103897095D02*
X124213200Y-103944714D01*
X124213200Y-103944714D02*
X124260819Y-104039952D01*
X124260819Y-104039952D02*
X124260819Y-104230428D01*
X124260819Y-104230428D02*
X124213200Y-104325666D01*
X124213200Y-104325666D02*
X124165580Y-104373285D01*
X124165580Y-104373285D02*
X124070342Y-104420904D01*
X124070342Y-104420904D02*
X123832247Y-104420904D01*
X123832247Y-104420904D02*
X123737009Y-104373285D01*
X123737009Y-104373285D02*
X123689390Y-104325666D01*
X123689390Y-104325666D02*
X123641771Y-104230428D01*
X123641771Y-104230428D02*
X123641771Y-104039952D01*
X123641771Y-104039952D02*
X123689390Y-103944714D01*
X123689390Y-103944714D02*
X123737009Y-103897095D01*
X123737009Y-103897095D02*
X123832247Y-103849476D01*
X163960819Y-91116142D02*
X163484628Y-90782809D01*
X163960819Y-90544714D02*
X162960819Y-90544714D01*
X162960819Y-90544714D02*
X162960819Y-90925666D01*
X162960819Y-90925666D02*
X163008438Y-91020904D01*
X163008438Y-91020904D02*
X163056057Y-91068523D01*
X163056057Y-91068523D02*
X163151295Y-91116142D01*
X163151295Y-91116142D02*
X163294152Y-91116142D01*
X163294152Y-91116142D02*
X163389390Y-91068523D01*
X163389390Y-91068523D02*
X163437009Y-91020904D01*
X163437009Y-91020904D02*
X163484628Y-90925666D01*
X163484628Y-90925666D02*
X163484628Y-90544714D01*
X163294152Y-91973285D02*
X163960819Y-91973285D01*
X162913200Y-91735190D02*
X163627485Y-91497095D01*
X163627485Y-91497095D02*
X163627485Y-92116142D01*
X163960819Y-93020904D02*
X163960819Y-92449476D01*
X163960819Y-92735190D02*
X162960819Y-92735190D01*
X162960819Y-92735190D02*
X163103676Y-92639952D01*
X163103676Y-92639952D02*
X163198914Y-92544714D01*
X163198914Y-92544714D02*
X163246533Y-92449476D01*
X153965580Y-76766142D02*
X154013200Y-76718523D01*
X154013200Y-76718523D02*
X154060819Y-76575666D01*
X154060819Y-76575666D02*
X154060819Y-76480428D01*
X154060819Y-76480428D02*
X154013200Y-76337571D01*
X154013200Y-76337571D02*
X153917961Y-76242333D01*
X153917961Y-76242333D02*
X153822723Y-76194714D01*
X153822723Y-76194714D02*
X153632247Y-76147095D01*
X153632247Y-76147095D02*
X153489390Y-76147095D01*
X153489390Y-76147095D02*
X153298914Y-76194714D01*
X153298914Y-76194714D02*
X153203676Y-76242333D01*
X153203676Y-76242333D02*
X153108438Y-76337571D01*
X153108438Y-76337571D02*
X153060819Y-76480428D01*
X153060819Y-76480428D02*
X153060819Y-76575666D01*
X153060819Y-76575666D02*
X153108438Y-76718523D01*
X153108438Y-76718523D02*
X153156057Y-76766142D01*
X154060819Y-77718523D02*
X154060819Y-77147095D01*
X154060819Y-77432809D02*
X153060819Y-77432809D01*
X153060819Y-77432809D02*
X153203676Y-77337571D01*
X153203676Y-77337571D02*
X153298914Y-77242333D01*
X153298914Y-77242333D02*
X153346533Y-77147095D01*
X153060819Y-78051857D02*
X153060819Y-78718523D01*
X153060819Y-78718523D02*
X154060819Y-78289952D01*
X104260819Y-115316142D02*
X103784628Y-114982809D01*
X104260819Y-114744714D02*
X103260819Y-114744714D01*
X103260819Y-114744714D02*
X103260819Y-115125666D01*
X103260819Y-115125666D02*
X103308438Y-115220904D01*
X103308438Y-115220904D02*
X103356057Y-115268523D01*
X103356057Y-115268523D02*
X103451295Y-115316142D01*
X103451295Y-115316142D02*
X103594152Y-115316142D01*
X103594152Y-115316142D02*
X103689390Y-115268523D01*
X103689390Y-115268523D02*
X103737009Y-115220904D01*
X103737009Y-115220904D02*
X103784628Y-115125666D01*
X103784628Y-115125666D02*
X103784628Y-114744714D01*
X103356057Y-115697095D02*
X103308438Y-115744714D01*
X103308438Y-115744714D02*
X103260819Y-115839952D01*
X103260819Y-115839952D02*
X103260819Y-116078047D01*
X103260819Y-116078047D02*
X103308438Y-116173285D01*
X103308438Y-116173285D02*
X103356057Y-116220904D01*
X103356057Y-116220904D02*
X103451295Y-116268523D01*
X103451295Y-116268523D02*
X103546533Y-116268523D01*
X103546533Y-116268523D02*
X103689390Y-116220904D01*
X103689390Y-116220904D02*
X104260819Y-115649476D01*
X104260819Y-115649476D02*
X104260819Y-116268523D01*
X103594152Y-117125666D02*
X104260819Y-117125666D01*
X103213200Y-116887571D02*
X103927485Y-116649476D01*
X103927485Y-116649476D02*
X103927485Y-117268523D01*
X107348857Y-105863819D02*
X107682190Y-105387628D01*
X107920285Y-105863819D02*
X107920285Y-104863819D01*
X107920285Y-104863819D02*
X107539333Y-104863819D01*
X107539333Y-104863819D02*
X107444095Y-104911438D01*
X107444095Y-104911438D02*
X107396476Y-104959057D01*
X107396476Y-104959057D02*
X107348857Y-105054295D01*
X107348857Y-105054295D02*
X107348857Y-105197152D01*
X107348857Y-105197152D02*
X107396476Y-105292390D01*
X107396476Y-105292390D02*
X107444095Y-105340009D01*
X107444095Y-105340009D02*
X107539333Y-105387628D01*
X107539333Y-105387628D02*
X107920285Y-105387628D01*
X107015523Y-104863819D02*
X106396476Y-104863819D01*
X106396476Y-104863819D02*
X106729809Y-105244771D01*
X106729809Y-105244771D02*
X106586952Y-105244771D01*
X106586952Y-105244771D02*
X106491714Y-105292390D01*
X106491714Y-105292390D02*
X106444095Y-105340009D01*
X106444095Y-105340009D02*
X106396476Y-105435247D01*
X106396476Y-105435247D02*
X106396476Y-105673342D01*
X106396476Y-105673342D02*
X106444095Y-105768580D01*
X106444095Y-105768580D02*
X106491714Y-105816200D01*
X106491714Y-105816200D02*
X106586952Y-105863819D01*
X106586952Y-105863819D02*
X106872666Y-105863819D01*
X106872666Y-105863819D02*
X106967904Y-105816200D01*
X106967904Y-105816200D02*
X107015523Y-105768580D01*
X106015523Y-104959057D02*
X105967904Y-104911438D01*
X105967904Y-104911438D02*
X105872666Y-104863819D01*
X105872666Y-104863819D02*
X105634571Y-104863819D01*
X105634571Y-104863819D02*
X105539333Y-104911438D01*
X105539333Y-104911438D02*
X105491714Y-104959057D01*
X105491714Y-104959057D02*
X105444095Y-105054295D01*
X105444095Y-105054295D02*
X105444095Y-105149533D01*
X105444095Y-105149533D02*
X105491714Y-105292390D01*
X105491714Y-105292390D02*
X106063142Y-105863819D01*
X106063142Y-105863819D02*
X105444095Y-105863819D01*
X110245580Y-115316142D02*
X110293200Y-115268523D01*
X110293200Y-115268523D02*
X110340819Y-115125666D01*
X110340819Y-115125666D02*
X110340819Y-115030428D01*
X110340819Y-115030428D02*
X110293200Y-114887571D01*
X110293200Y-114887571D02*
X110197961Y-114792333D01*
X110197961Y-114792333D02*
X110102723Y-114744714D01*
X110102723Y-114744714D02*
X109912247Y-114697095D01*
X109912247Y-114697095D02*
X109769390Y-114697095D01*
X109769390Y-114697095D02*
X109578914Y-114744714D01*
X109578914Y-114744714D02*
X109483676Y-114792333D01*
X109483676Y-114792333D02*
X109388438Y-114887571D01*
X109388438Y-114887571D02*
X109340819Y-115030428D01*
X109340819Y-115030428D02*
X109340819Y-115125666D01*
X109340819Y-115125666D02*
X109388438Y-115268523D01*
X109388438Y-115268523D02*
X109436057Y-115316142D01*
X110340819Y-116268523D02*
X110340819Y-115697095D01*
X110340819Y-115982809D02*
X109340819Y-115982809D01*
X109340819Y-115982809D02*
X109483676Y-115887571D01*
X109483676Y-115887571D02*
X109578914Y-115792333D01*
X109578914Y-115792333D02*
X109626533Y-115697095D01*
X110340819Y-117220904D02*
X110340819Y-116649476D01*
X110340819Y-116935190D02*
X109340819Y-116935190D01*
X109340819Y-116935190D02*
X109483676Y-116839952D01*
X109483676Y-116839952D02*
X109578914Y-116744714D01*
X109578914Y-116744714D02*
X109626533Y-116649476D01*
X121960819Y-102416142D02*
X121484628Y-102082809D01*
X121960819Y-101844714D02*
X120960819Y-101844714D01*
X120960819Y-101844714D02*
X120960819Y-102225666D01*
X120960819Y-102225666D02*
X121008438Y-102320904D01*
X121008438Y-102320904D02*
X121056057Y-102368523D01*
X121056057Y-102368523D02*
X121151295Y-102416142D01*
X121151295Y-102416142D02*
X121294152Y-102416142D01*
X121294152Y-102416142D02*
X121389390Y-102368523D01*
X121389390Y-102368523D02*
X121437009Y-102320904D01*
X121437009Y-102320904D02*
X121484628Y-102225666D01*
X121484628Y-102225666D02*
X121484628Y-101844714D01*
X120960819Y-102749476D02*
X120960819Y-103368523D01*
X120960819Y-103368523D02*
X121341771Y-103035190D01*
X121341771Y-103035190D02*
X121341771Y-103178047D01*
X121341771Y-103178047D02*
X121389390Y-103273285D01*
X121389390Y-103273285D02*
X121437009Y-103320904D01*
X121437009Y-103320904D02*
X121532247Y-103368523D01*
X121532247Y-103368523D02*
X121770342Y-103368523D01*
X121770342Y-103368523D02*
X121865580Y-103320904D01*
X121865580Y-103320904D02*
X121913200Y-103273285D01*
X121913200Y-103273285D02*
X121960819Y-103178047D01*
X121960819Y-103178047D02*
X121960819Y-102892333D01*
X121960819Y-102892333D02*
X121913200Y-102797095D01*
X121913200Y-102797095D02*
X121865580Y-102749476D01*
X120960819Y-103701857D02*
X120960819Y-104320904D01*
X120960819Y-104320904D02*
X121341771Y-103987571D01*
X121341771Y-103987571D02*
X121341771Y-104130428D01*
X121341771Y-104130428D02*
X121389390Y-104225666D01*
X121389390Y-104225666D02*
X121437009Y-104273285D01*
X121437009Y-104273285D02*
X121532247Y-104320904D01*
X121532247Y-104320904D02*
X121770342Y-104320904D01*
X121770342Y-104320904D02*
X121865580Y-104273285D01*
X121865580Y-104273285D02*
X121913200Y-104225666D01*
X121913200Y-104225666D02*
X121960819Y-104130428D01*
X121960819Y-104130428D02*
X121960819Y-103844714D01*
X121960819Y-103844714D02*
X121913200Y-103749476D01*
X121913200Y-103749476D02*
X121865580Y-103701857D01*
X124011357Y-80568580D02*
X124058976Y-80616200D01*
X124058976Y-80616200D02*
X124201833Y-80663819D01*
X124201833Y-80663819D02*
X124297071Y-80663819D01*
X124297071Y-80663819D02*
X124439928Y-80616200D01*
X124439928Y-80616200D02*
X124535166Y-80520961D01*
X124535166Y-80520961D02*
X124582785Y-80425723D01*
X124582785Y-80425723D02*
X124630404Y-80235247D01*
X124630404Y-80235247D02*
X124630404Y-80092390D01*
X124630404Y-80092390D02*
X124582785Y-79901914D01*
X124582785Y-79901914D02*
X124535166Y-79806676D01*
X124535166Y-79806676D02*
X124439928Y-79711438D01*
X124439928Y-79711438D02*
X124297071Y-79663819D01*
X124297071Y-79663819D02*
X124201833Y-79663819D01*
X124201833Y-79663819D02*
X124058976Y-79711438D01*
X124058976Y-79711438D02*
X124011357Y-79759057D01*
X123058976Y-80663819D02*
X123630404Y-80663819D01*
X123344690Y-80663819D02*
X123344690Y-79663819D01*
X123344690Y-79663819D02*
X123439928Y-79806676D01*
X123439928Y-79806676D02*
X123535166Y-79901914D01*
X123535166Y-79901914D02*
X123630404Y-79949533D01*
X122725642Y-79663819D02*
X122106595Y-79663819D01*
X122106595Y-79663819D02*
X122439928Y-80044771D01*
X122439928Y-80044771D02*
X122297071Y-80044771D01*
X122297071Y-80044771D02*
X122201833Y-80092390D01*
X122201833Y-80092390D02*
X122154214Y-80140009D01*
X122154214Y-80140009D02*
X122106595Y-80235247D01*
X122106595Y-80235247D02*
X122106595Y-80473342D01*
X122106595Y-80473342D02*
X122154214Y-80568580D01*
X122154214Y-80568580D02*
X122201833Y-80616200D01*
X122201833Y-80616200D02*
X122297071Y-80663819D01*
X122297071Y-80663819D02*
X122582785Y-80663819D01*
X122582785Y-80663819D02*
X122678023Y-80616200D01*
X122678023Y-80616200D02*
X122725642Y-80568580D01*
X168115580Y-87503642D02*
X168163200Y-87456023D01*
X168163200Y-87456023D02*
X168210819Y-87313166D01*
X168210819Y-87313166D02*
X168210819Y-87217928D01*
X168210819Y-87217928D02*
X168163200Y-87075071D01*
X168163200Y-87075071D02*
X168067961Y-86979833D01*
X168067961Y-86979833D02*
X167972723Y-86932214D01*
X167972723Y-86932214D02*
X167782247Y-86884595D01*
X167782247Y-86884595D02*
X167639390Y-86884595D01*
X167639390Y-86884595D02*
X167448914Y-86932214D01*
X167448914Y-86932214D02*
X167353676Y-86979833D01*
X167353676Y-86979833D02*
X167258438Y-87075071D01*
X167258438Y-87075071D02*
X167210819Y-87217928D01*
X167210819Y-87217928D02*
X167210819Y-87313166D01*
X167210819Y-87313166D02*
X167258438Y-87456023D01*
X167258438Y-87456023D02*
X167306057Y-87503642D01*
X167306057Y-87884595D02*
X167258438Y-87932214D01*
X167258438Y-87932214D02*
X167210819Y-88027452D01*
X167210819Y-88027452D02*
X167210819Y-88265547D01*
X167210819Y-88265547D02*
X167258438Y-88360785D01*
X167258438Y-88360785D02*
X167306057Y-88408404D01*
X167306057Y-88408404D02*
X167401295Y-88456023D01*
X167401295Y-88456023D02*
X167496533Y-88456023D01*
X167496533Y-88456023D02*
X167639390Y-88408404D01*
X167639390Y-88408404D02*
X168210819Y-87836976D01*
X168210819Y-87836976D02*
X168210819Y-88456023D01*
X167210819Y-89075071D02*
X167210819Y-89170309D01*
X167210819Y-89170309D02*
X167258438Y-89265547D01*
X167258438Y-89265547D02*
X167306057Y-89313166D01*
X167306057Y-89313166D02*
X167401295Y-89360785D01*
X167401295Y-89360785D02*
X167591771Y-89408404D01*
X167591771Y-89408404D02*
X167829866Y-89408404D01*
X167829866Y-89408404D02*
X168020342Y-89360785D01*
X168020342Y-89360785D02*
X168115580Y-89313166D01*
X168115580Y-89313166D02*
X168163200Y-89265547D01*
X168163200Y-89265547D02*
X168210819Y-89170309D01*
X168210819Y-89170309D02*
X168210819Y-89075071D01*
X168210819Y-89075071D02*
X168163200Y-88979833D01*
X168163200Y-88979833D02*
X168115580Y-88932214D01*
X168115580Y-88932214D02*
X168020342Y-88884595D01*
X168020342Y-88884595D02*
X167829866Y-88836976D01*
X167829866Y-88836976D02*
X167591771Y-88836976D01*
X167591771Y-88836976D02*
X167401295Y-88884595D01*
X167401295Y-88884595D02*
X167306057Y-88932214D01*
X167306057Y-88932214D02*
X167258438Y-88979833D01*
X167258438Y-88979833D02*
X167210819Y-89075071D01*
X158145580Y-100603642D02*
X158193200Y-100556023D01*
X158193200Y-100556023D02*
X158240819Y-100413166D01*
X158240819Y-100413166D02*
X158240819Y-100317928D01*
X158240819Y-100317928D02*
X158193200Y-100175071D01*
X158193200Y-100175071D02*
X158097961Y-100079833D01*
X158097961Y-100079833D02*
X158002723Y-100032214D01*
X158002723Y-100032214D02*
X157812247Y-99984595D01*
X157812247Y-99984595D02*
X157669390Y-99984595D01*
X157669390Y-99984595D02*
X157478914Y-100032214D01*
X157478914Y-100032214D02*
X157383676Y-100079833D01*
X157383676Y-100079833D02*
X157288438Y-100175071D01*
X157288438Y-100175071D02*
X157240819Y-100317928D01*
X157240819Y-100317928D02*
X157240819Y-100413166D01*
X157240819Y-100413166D02*
X157288438Y-100556023D01*
X157288438Y-100556023D02*
X157336057Y-100603642D01*
X158240819Y-101556023D02*
X158240819Y-100984595D01*
X158240819Y-101270309D02*
X157240819Y-101270309D01*
X157240819Y-101270309D02*
X157383676Y-101175071D01*
X157383676Y-101175071D02*
X157478914Y-101079833D01*
X157478914Y-101079833D02*
X157526533Y-100984595D01*
X158240819Y-102032214D02*
X158240819Y-102222690D01*
X158240819Y-102222690D02*
X158193200Y-102317928D01*
X158193200Y-102317928D02*
X158145580Y-102365547D01*
X158145580Y-102365547D02*
X158002723Y-102460785D01*
X158002723Y-102460785D02*
X157812247Y-102508404D01*
X157812247Y-102508404D02*
X157431295Y-102508404D01*
X157431295Y-102508404D02*
X157336057Y-102460785D01*
X157336057Y-102460785D02*
X157288438Y-102413166D01*
X157288438Y-102413166D02*
X157240819Y-102317928D01*
X157240819Y-102317928D02*
X157240819Y-102127452D01*
X157240819Y-102127452D02*
X157288438Y-102032214D01*
X157288438Y-102032214D02*
X157336057Y-101984595D01*
X157336057Y-101984595D02*
X157431295Y-101936976D01*
X157431295Y-101936976D02*
X157669390Y-101936976D01*
X157669390Y-101936976D02*
X157764628Y-101984595D01*
X157764628Y-101984595D02*
X157812247Y-102032214D01*
X157812247Y-102032214D02*
X157859866Y-102127452D01*
X157859866Y-102127452D02*
X157859866Y-102317928D01*
X157859866Y-102317928D02*
X157812247Y-102413166D01*
X157812247Y-102413166D02*
X157764628Y-102460785D01*
X157764628Y-102460785D02*
X157669390Y-102508404D01*
X156560819Y-76766142D02*
X156084628Y-76432809D01*
X156560819Y-76194714D02*
X155560819Y-76194714D01*
X155560819Y-76194714D02*
X155560819Y-76575666D01*
X155560819Y-76575666D02*
X155608438Y-76670904D01*
X155608438Y-76670904D02*
X155656057Y-76718523D01*
X155656057Y-76718523D02*
X155751295Y-76766142D01*
X155751295Y-76766142D02*
X155894152Y-76766142D01*
X155894152Y-76766142D02*
X155989390Y-76718523D01*
X155989390Y-76718523D02*
X156037009Y-76670904D01*
X156037009Y-76670904D02*
X156084628Y-76575666D01*
X156084628Y-76575666D02*
X156084628Y-76194714D01*
X155560819Y-77099476D02*
X155560819Y-77718523D01*
X155560819Y-77718523D02*
X155941771Y-77385190D01*
X155941771Y-77385190D02*
X155941771Y-77528047D01*
X155941771Y-77528047D02*
X155989390Y-77623285D01*
X155989390Y-77623285D02*
X156037009Y-77670904D01*
X156037009Y-77670904D02*
X156132247Y-77718523D01*
X156132247Y-77718523D02*
X156370342Y-77718523D01*
X156370342Y-77718523D02*
X156465580Y-77670904D01*
X156465580Y-77670904D02*
X156513200Y-77623285D01*
X156513200Y-77623285D02*
X156560819Y-77528047D01*
X156560819Y-77528047D02*
X156560819Y-77242333D01*
X156560819Y-77242333D02*
X156513200Y-77147095D01*
X156513200Y-77147095D02*
X156465580Y-77099476D01*
X155989390Y-78289952D02*
X155941771Y-78194714D01*
X155941771Y-78194714D02*
X155894152Y-78147095D01*
X155894152Y-78147095D02*
X155798914Y-78099476D01*
X155798914Y-78099476D02*
X155751295Y-78099476D01*
X155751295Y-78099476D02*
X155656057Y-78147095D01*
X155656057Y-78147095D02*
X155608438Y-78194714D01*
X155608438Y-78194714D02*
X155560819Y-78289952D01*
X155560819Y-78289952D02*
X155560819Y-78480428D01*
X155560819Y-78480428D02*
X155608438Y-78575666D01*
X155608438Y-78575666D02*
X155656057Y-78623285D01*
X155656057Y-78623285D02*
X155751295Y-78670904D01*
X155751295Y-78670904D02*
X155798914Y-78670904D01*
X155798914Y-78670904D02*
X155894152Y-78623285D01*
X155894152Y-78623285D02*
X155941771Y-78575666D01*
X155941771Y-78575666D02*
X155989390Y-78480428D01*
X155989390Y-78480428D02*
X155989390Y-78289952D01*
X155989390Y-78289952D02*
X156037009Y-78194714D01*
X156037009Y-78194714D02*
X156084628Y-78147095D01*
X156084628Y-78147095D02*
X156179866Y-78099476D01*
X156179866Y-78099476D02*
X156370342Y-78099476D01*
X156370342Y-78099476D02*
X156465580Y-78147095D01*
X156465580Y-78147095D02*
X156513200Y-78194714D01*
X156513200Y-78194714D02*
X156560819Y-78289952D01*
X156560819Y-78289952D02*
X156560819Y-78480428D01*
X156560819Y-78480428D02*
X156513200Y-78575666D01*
X156513200Y-78575666D02*
X156465580Y-78623285D01*
X156465580Y-78623285D02*
X156370342Y-78670904D01*
X156370342Y-78670904D02*
X156179866Y-78670904D01*
X156179866Y-78670904D02*
X156084628Y-78623285D01*
X156084628Y-78623285D02*
X156037009Y-78575666D01*
X156037009Y-78575666D02*
X155989390Y-78480428D01*
X144965580Y-93841142D02*
X145013200Y-93793523D01*
X145013200Y-93793523D02*
X145060819Y-93650666D01*
X145060819Y-93650666D02*
X145060819Y-93555428D01*
X145060819Y-93555428D02*
X145013200Y-93412571D01*
X145013200Y-93412571D02*
X144917961Y-93317333D01*
X144917961Y-93317333D02*
X144822723Y-93269714D01*
X144822723Y-93269714D02*
X144632247Y-93222095D01*
X144632247Y-93222095D02*
X144489390Y-93222095D01*
X144489390Y-93222095D02*
X144298914Y-93269714D01*
X144298914Y-93269714D02*
X144203676Y-93317333D01*
X144203676Y-93317333D02*
X144108438Y-93412571D01*
X144108438Y-93412571D02*
X144060819Y-93555428D01*
X144060819Y-93555428D02*
X144060819Y-93650666D01*
X144060819Y-93650666D02*
X144108438Y-93793523D01*
X144108438Y-93793523D02*
X144156057Y-93841142D01*
X145060819Y-94793523D02*
X145060819Y-94222095D01*
X145060819Y-94507809D02*
X144060819Y-94507809D01*
X144060819Y-94507809D02*
X144203676Y-94412571D01*
X144203676Y-94412571D02*
X144298914Y-94317333D01*
X144298914Y-94317333D02*
X144346533Y-94222095D01*
X144489390Y-95364952D02*
X144441771Y-95269714D01*
X144441771Y-95269714D02*
X144394152Y-95222095D01*
X144394152Y-95222095D02*
X144298914Y-95174476D01*
X144298914Y-95174476D02*
X144251295Y-95174476D01*
X144251295Y-95174476D02*
X144156057Y-95222095D01*
X144156057Y-95222095D02*
X144108438Y-95269714D01*
X144108438Y-95269714D02*
X144060819Y-95364952D01*
X144060819Y-95364952D02*
X144060819Y-95555428D01*
X144060819Y-95555428D02*
X144108438Y-95650666D01*
X144108438Y-95650666D02*
X144156057Y-95698285D01*
X144156057Y-95698285D02*
X144251295Y-95745904D01*
X144251295Y-95745904D02*
X144298914Y-95745904D01*
X144298914Y-95745904D02*
X144394152Y-95698285D01*
X144394152Y-95698285D02*
X144441771Y-95650666D01*
X144441771Y-95650666D02*
X144489390Y-95555428D01*
X144489390Y-95555428D02*
X144489390Y-95364952D01*
X144489390Y-95364952D02*
X144537009Y-95269714D01*
X144537009Y-95269714D02*
X144584628Y-95222095D01*
X144584628Y-95222095D02*
X144679866Y-95174476D01*
X144679866Y-95174476D02*
X144870342Y-95174476D01*
X144870342Y-95174476D02*
X144965580Y-95222095D01*
X144965580Y-95222095D02*
X145013200Y-95269714D01*
X145013200Y-95269714D02*
X145060819Y-95364952D01*
X145060819Y-95364952D02*
X145060819Y-95555428D01*
X145060819Y-95555428D02*
X145013200Y-95650666D01*
X145013200Y-95650666D02*
X144965580Y-95698285D01*
X144965580Y-95698285D02*
X144870342Y-95745904D01*
X144870342Y-95745904D02*
X144679866Y-95745904D01*
X144679866Y-95745904D02*
X144584628Y-95698285D01*
X144584628Y-95698285D02*
X144537009Y-95650666D01*
X144537009Y-95650666D02*
X144489390Y-95555428D01*
X167598857Y-125748580D02*
X167646476Y-125796200D01*
X167646476Y-125796200D02*
X167789333Y-125843819D01*
X167789333Y-125843819D02*
X167884571Y-125843819D01*
X167884571Y-125843819D02*
X168027428Y-125796200D01*
X168027428Y-125796200D02*
X168122666Y-125700961D01*
X168122666Y-125700961D02*
X168170285Y-125605723D01*
X168170285Y-125605723D02*
X168217904Y-125415247D01*
X168217904Y-125415247D02*
X168217904Y-125272390D01*
X168217904Y-125272390D02*
X168170285Y-125081914D01*
X168170285Y-125081914D02*
X168122666Y-124986676D01*
X168122666Y-124986676D02*
X168027428Y-124891438D01*
X168027428Y-124891438D02*
X167884571Y-124843819D01*
X167884571Y-124843819D02*
X167789333Y-124843819D01*
X167789333Y-124843819D02*
X167646476Y-124891438D01*
X167646476Y-124891438D02*
X167598857Y-124939057D01*
X166646476Y-125843819D02*
X167217904Y-125843819D01*
X166932190Y-125843819D02*
X166932190Y-124843819D01*
X166932190Y-124843819D02*
X167027428Y-124986676D01*
X167027428Y-124986676D02*
X167122666Y-125081914D01*
X167122666Y-125081914D02*
X167217904Y-125129533D01*
X166265523Y-124939057D02*
X166217904Y-124891438D01*
X166217904Y-124891438D02*
X166122666Y-124843819D01*
X166122666Y-124843819D02*
X165884571Y-124843819D01*
X165884571Y-124843819D02*
X165789333Y-124891438D01*
X165789333Y-124891438D02*
X165741714Y-124939057D01*
X165741714Y-124939057D02*
X165694095Y-125034295D01*
X165694095Y-125034295D02*
X165694095Y-125129533D01*
X165694095Y-125129533D02*
X165741714Y-125272390D01*
X165741714Y-125272390D02*
X166313142Y-125843819D01*
X166313142Y-125843819D02*
X165694095Y-125843819D01*
X167598857Y-120013819D02*
X167932190Y-119537628D01*
X168170285Y-120013819D02*
X168170285Y-119013819D01*
X168170285Y-119013819D02*
X167789333Y-119013819D01*
X167789333Y-119013819D02*
X167694095Y-119061438D01*
X167694095Y-119061438D02*
X167646476Y-119109057D01*
X167646476Y-119109057D02*
X167598857Y-119204295D01*
X167598857Y-119204295D02*
X167598857Y-119347152D01*
X167598857Y-119347152D02*
X167646476Y-119442390D01*
X167646476Y-119442390D02*
X167694095Y-119490009D01*
X167694095Y-119490009D02*
X167789333Y-119537628D01*
X167789333Y-119537628D02*
X168170285Y-119537628D01*
X167217904Y-119109057D02*
X167170285Y-119061438D01*
X167170285Y-119061438D02*
X167075047Y-119013819D01*
X167075047Y-119013819D02*
X166836952Y-119013819D01*
X166836952Y-119013819D02*
X166741714Y-119061438D01*
X166741714Y-119061438D02*
X166694095Y-119109057D01*
X166694095Y-119109057D02*
X166646476Y-119204295D01*
X166646476Y-119204295D02*
X166646476Y-119299533D01*
X166646476Y-119299533D02*
X166694095Y-119442390D01*
X166694095Y-119442390D02*
X167265523Y-120013819D01*
X167265523Y-120013819D02*
X166646476Y-120013819D01*
X165741714Y-119013819D02*
X166217904Y-119013819D01*
X166217904Y-119013819D02*
X166265523Y-119490009D01*
X166265523Y-119490009D02*
X166217904Y-119442390D01*
X166217904Y-119442390D02*
X166122666Y-119394771D01*
X166122666Y-119394771D02*
X165884571Y-119394771D01*
X165884571Y-119394771D02*
X165789333Y-119442390D01*
X165789333Y-119442390D02*
X165741714Y-119490009D01*
X165741714Y-119490009D02*
X165694095Y-119585247D01*
X165694095Y-119585247D02*
X165694095Y-119823342D01*
X165694095Y-119823342D02*
X165741714Y-119918580D01*
X165741714Y-119918580D02*
X165789333Y-119966200D01*
X165789333Y-119966200D02*
X165884571Y-120013819D01*
X165884571Y-120013819D02*
X166122666Y-120013819D01*
X166122666Y-120013819D02*
X166217904Y-119966200D01*
X166217904Y-119966200D02*
X166265523Y-119918580D01*
D11*
%TO.C,C14*%
X109167252Y-89874000D02*
X108644748Y-89874000D01*
X109167252Y-91344000D02*
X108644748Y-91344000D01*
%TO.C,R31*%
X108678936Y-92274000D02*
X109133064Y-92274000D01*
X108678936Y-93744000D02*
X109133064Y-93744000D01*
%TO.C,C15*%
X105971000Y-98970252D02*
X105971000Y-98447748D01*
X107441000Y-98970252D02*
X107441000Y-98447748D01*
%TO.C,R30*%
X119741436Y-81774000D02*
X120195564Y-81774000D01*
X119741436Y-83244000D02*
X120195564Y-83244000D01*
%TO.C,R39*%
X146521000Y-90769436D02*
X146521000Y-91223564D01*
X147991000Y-90769436D02*
X147991000Y-91223564D01*
%TO.C,R40*%
X153171000Y-101436064D02*
X153171000Y-100981936D01*
X154641000Y-101436064D02*
X154641000Y-100981936D01*
%TO.C,C16*%
X123071000Y-99920252D02*
X123071000Y-99397748D01*
X124541000Y-99920252D02*
X124541000Y-99397748D01*
%TO.C,R41*%
X164371000Y-91531936D02*
X164371000Y-91986064D01*
X165841000Y-91531936D02*
X165841000Y-91986064D01*
%TO.C,C17*%
X152871000Y-80247748D02*
X152871000Y-80770252D01*
X154341000Y-80247748D02*
X154341000Y-80770252D01*
%TO.C,R24*%
X104721000Y-116186064D02*
X104721000Y-115731936D01*
X106191000Y-116186064D02*
X106191000Y-115731936D01*
%TO.C,R32*%
X105971000Y-103036064D02*
X105971000Y-102581936D01*
X107441000Y-103036064D02*
X107441000Y-102581936D01*
%TO.C,C11*%
X107471000Y-115697748D02*
X107471000Y-116220252D01*
X108941000Y-115697748D02*
X108941000Y-116220252D01*
%TO.C,R33*%
X120771000Y-99431936D02*
X120771000Y-99886064D01*
X122241000Y-99431936D02*
X122241000Y-99886064D01*
%TO.C,C13*%
X120267252Y-79474000D02*
X119744748Y-79474000D01*
X120267252Y-80944000D02*
X119744748Y-80944000D01*
%TO.C,C20*%
X167021000Y-91857752D02*
X167021000Y-91335248D01*
X168491000Y-91857752D02*
X168491000Y-91335248D01*
%TO.C,C19*%
X155371000Y-100985248D02*
X155371000Y-101507752D01*
X156841000Y-100985248D02*
X156841000Y-101507752D01*
%TO.C,R38*%
X155371000Y-80736064D02*
X155371000Y-80281936D01*
X156841000Y-80736064D02*
X156841000Y-80281936D01*
%TO.C,C18*%
X143871000Y-91307752D02*
X143871000Y-90785248D01*
X145341000Y-91307752D02*
X145341000Y-90785248D01*
%TO.C,C12*%
X167217252Y-122974000D02*
X166694748Y-122974000D01*
X167217252Y-124444000D02*
X166694748Y-124444000D01*
%TO.C,R25*%
X166728936Y-120474000D02*
X167183064Y-120474000D01*
X166728936Y-121944000D02*
X167183064Y-121944000D01*
%TD*%
D12*
X174406000Y-112809000D03*
X101006000Y-78809000D03*
X159506000Y-83809000D03*
X166006000Y-83809000D03*
X159506000Y-79309000D03*
X166006000Y-79309000D03*
X150506000Y-88309000D03*
X150506000Y-94809000D03*
X155006000Y-88309000D03*
X155006000Y-94809000D03*
X174406000Y-78809000D03*
X174406000Y-132209000D03*
X101006000Y-132209000D03*
X174406000Y-104209000D03*
X109506000Y-83809000D03*
X116006000Y-83809000D03*
X109506000Y-79309000D03*
X116006000Y-79309000D03*
X170506000Y-88309000D03*
X170506000Y-94809000D03*
X175006000Y-88309000D03*
X175006000Y-94809000D03*
X131306000Y-127609000D03*
X133846000Y-127609000D03*
X136386000Y-127609000D03*
X138926000Y-127609000D03*
X141466000Y-127609000D03*
X144006000Y-127609000D03*
X144011000Y-117449000D03*
X141471000Y-117449000D03*
X138931000Y-117449000D03*
X136391000Y-117449000D03*
X133851000Y-117449000D03*
X131311000Y-117449000D03*
X100456000Y-119259000D03*
X100456000Y-125759000D03*
X104956000Y-119259000D03*
X104956000Y-125759000D03*
X101006000Y-104209000D03*
X174956000Y-125759000D03*
X174956000Y-119259000D03*
X170456000Y-125759000D03*
X170456000Y-119259000D03*
X169106000Y-79259000D03*
X171106000Y-79259000D03*
X130256000Y-79259000D03*
X132256000Y-79259000D03*
X134256000Y-79259000D03*
X136256000Y-79259000D03*
X138256000Y-79259000D03*
X140256000Y-79259000D03*
X142256000Y-79259000D03*
X144256000Y-79259000D03*
X159506000Y-103809000D03*
X166006000Y-103809000D03*
X159506000Y-99309000D03*
X166006000Y-99309000D03*
X120506000Y-88309000D03*
X120506000Y-94809000D03*
X125006000Y-88309000D03*
X125006000Y-94809000D03*
X109071000Y-132659000D03*
X111071000Y-132659000D03*
X109506000Y-103809000D03*
X116006000Y-103809000D03*
X109506000Y-99309000D03*
X116006000Y-99309000D03*
X100506000Y-88309000D03*
X100506000Y-94809000D03*
X105006000Y-88309000D03*
X105006000Y-94809000D03*
X163206000Y-132259000D03*
X165206000Y-132259000D03*
X146206000Y-131709000D03*
X148206000Y-131709000D03*
X150206000Y-131709000D03*
X152206000Y-131709000D03*
X110206000Y-120609000D03*
X110206000Y-122609000D03*
X110206000Y-124609000D03*
X101006000Y-112809000D03*
M02*
