M48
METRIC,TZ
T1C0.300
T2C0.400
T3C0.800
T4C1.000
T5C1.050
%
G90
G05
T1
X117300Y-128800
T2
X115446Y-123059
X119721Y-128109
X120703Y-122122
X120871Y-117959
X129956Y-129459
X134521Y-111909
X139956Y-129459
X141921Y-112109
X160506Y-86409
T3
X109071Y-132659
X110206Y-120609
X110206Y-122609
X110206Y-124609
X111071Y-132659
X130256Y-79259
X132256Y-79259
X134256Y-79259
X136256Y-79259
X138256Y-79259
X140256Y-79259
X142256Y-79259
X144256Y-79259
X146206Y-131709
X148206Y-131709
X150206Y-131709
X152206Y-131709
X163206Y-132259
X165206Y-132259
X169106Y-79259
X171106Y-79259
T4
X131306Y-127609
X131311Y-117449
X133846Y-127609
X133851Y-117449
X136386Y-127609
X136391Y-117449
X138926Y-127609
X138931Y-117449
X141466Y-127609
X141471Y-117449
X144006Y-127609
X144011Y-117449
T5
X100456Y-119259
X100456Y-125759
X100506Y-88309
X100506Y-94809
X104956Y-119259
X104956Y-125759
X105006Y-88309
X105006Y-94809
X109506Y-79309
X109506Y-83809
X109506Y-99309
X109506Y-103809
X116006Y-79309
X116006Y-83809
X116006Y-99309
X116006Y-103809
X120506Y-88309
X120506Y-94809
X125006Y-88309
X125006Y-94809
X150506Y-88309
X150506Y-94809
X155006Y-88309
X155006Y-94809
X159506Y-79309
X159506Y-83809
X159506Y-99309
X159506Y-103809
X166006Y-79309
X166006Y-83809
X166006Y-99309
X166006Y-103809
X170456Y-119259
X170456Y-125759
X170506Y-88309
X170506Y-94809
X174956Y-119259
X174956Y-125759
X175006Y-88309
X175006Y-94809
M30
