%TF.GenerationSoftware,KiCad,Pcbnew,8.0.4*%
%TF.CreationDate,2024-08-07T19:34:09-04:00*%
%TF.ProjectId,button_board,62757474-6f6e-45f6-926f-6172642e6b69,rev?*%
%TF.SameCoordinates,Original*%
%TF.FileFunction,Legend,Top*%
%TF.FilePolarity,Positive*%
%FSLAX46Y46*%
G04 Gerber Fmt 4.6, Leading zero omitted, Abs format (unit mm)*
G04 Created by KiCad (PCBNEW 8.0.4) date 2024-08-07 19:34:09*
%MOMM*%
%LPD*%
G01*
G04 APERTURE LIST*
%ADD10C,0.150000*%
%ADD11C,0.100000*%
%ADD12C,0.120000*%
%ADD13C,0.127000*%
%ADD14C,0.200000*%
%ADD15C,0.350000*%
G04 APERTURE END LIST*
D10*
X163042779Y-130197866D02*
X163804684Y-130197866D01*
X163423731Y-130578819D02*
X163423731Y-129816914D01*
X168742779Y-81047866D02*
X169504684Y-81047866D01*
X169123731Y-81428819D02*
X169123731Y-80666914D01*
X146010819Y-89551857D02*
X145534628Y-89885190D01*
X146010819Y-90123285D02*
X145010819Y-90123285D01*
X145010819Y-90123285D02*
X145010819Y-89742333D01*
X145010819Y-89742333D02*
X145058438Y-89647095D01*
X145058438Y-89647095D02*
X145106057Y-89599476D01*
X145106057Y-89599476D02*
X145201295Y-89551857D01*
X145201295Y-89551857D02*
X145344152Y-89551857D01*
X145344152Y-89551857D02*
X145439390Y-89599476D01*
X145439390Y-89599476D02*
X145487009Y-89647095D01*
X145487009Y-89647095D02*
X145534628Y-89742333D01*
X145534628Y-89742333D02*
X145534628Y-90123285D01*
X145010819Y-89218523D02*
X145010819Y-88599476D01*
X145010819Y-88599476D02*
X145391771Y-88932809D01*
X145391771Y-88932809D02*
X145391771Y-88789952D01*
X145391771Y-88789952D02*
X145439390Y-88694714D01*
X145439390Y-88694714D02*
X145487009Y-88647095D01*
X145487009Y-88647095D02*
X145582247Y-88599476D01*
X145582247Y-88599476D02*
X145820342Y-88599476D01*
X145820342Y-88599476D02*
X145915580Y-88647095D01*
X145915580Y-88647095D02*
X145963200Y-88694714D01*
X145963200Y-88694714D02*
X146010819Y-88789952D01*
X146010819Y-88789952D02*
X146010819Y-89075666D01*
X146010819Y-89075666D02*
X145963200Y-89170904D01*
X145963200Y-89170904D02*
X145915580Y-89218523D01*
X145010819Y-87694714D02*
X145010819Y-88170904D01*
X145010819Y-88170904D02*
X145487009Y-88218523D01*
X145487009Y-88218523D02*
X145439390Y-88170904D01*
X145439390Y-88170904D02*
X145391771Y-88075666D01*
X145391771Y-88075666D02*
X145391771Y-87837571D01*
X145391771Y-87837571D02*
X145439390Y-87742333D01*
X145439390Y-87742333D02*
X145487009Y-87694714D01*
X145487009Y-87694714D02*
X145582247Y-87647095D01*
X145582247Y-87647095D02*
X145820342Y-87647095D01*
X145820342Y-87647095D02*
X145915580Y-87694714D01*
X145915580Y-87694714D02*
X145963200Y-87742333D01*
X145963200Y-87742333D02*
X146010819Y-87837571D01*
X146010819Y-87837571D02*
X146010819Y-88075666D01*
X146010819Y-88075666D02*
X145963200Y-88170904D01*
X145963200Y-88170904D02*
X145915580Y-88218523D01*
X137813142Y-133163819D02*
X137479809Y-132687628D01*
X137241714Y-133163819D02*
X137241714Y-132163819D01*
X137241714Y-132163819D02*
X137622666Y-132163819D01*
X137622666Y-132163819D02*
X137717904Y-132211438D01*
X137717904Y-132211438D02*
X137765523Y-132259057D01*
X137765523Y-132259057D02*
X137813142Y-132354295D01*
X137813142Y-132354295D02*
X137813142Y-132497152D01*
X137813142Y-132497152D02*
X137765523Y-132592390D01*
X137765523Y-132592390D02*
X137717904Y-132640009D01*
X137717904Y-132640009D02*
X137622666Y-132687628D01*
X137622666Y-132687628D02*
X137241714Y-132687628D01*
X138765523Y-133163819D02*
X138194095Y-133163819D01*
X138479809Y-133163819D02*
X138479809Y-132163819D01*
X138479809Y-132163819D02*
X138384571Y-132306676D01*
X138384571Y-132306676D02*
X138289333Y-132401914D01*
X138289333Y-132401914D02*
X138194095Y-132449533D01*
X139098857Y-132163819D02*
X139765523Y-132163819D01*
X139765523Y-132163819D02*
X139336952Y-133163819D01*
X109157142Y-128263819D02*
X108823809Y-127787628D01*
X108585714Y-128263819D02*
X108585714Y-127263819D01*
X108585714Y-127263819D02*
X108966666Y-127263819D01*
X108966666Y-127263819D02*
X109061904Y-127311438D01*
X109061904Y-127311438D02*
X109109523Y-127359057D01*
X109109523Y-127359057D02*
X109157142Y-127454295D01*
X109157142Y-127454295D02*
X109157142Y-127597152D01*
X109157142Y-127597152D02*
X109109523Y-127692390D01*
X109109523Y-127692390D02*
X109061904Y-127740009D01*
X109061904Y-127740009D02*
X108966666Y-127787628D01*
X108966666Y-127787628D02*
X108585714Y-127787628D01*
X109538095Y-127359057D02*
X109585714Y-127311438D01*
X109585714Y-127311438D02*
X109680952Y-127263819D01*
X109680952Y-127263819D02*
X109919047Y-127263819D01*
X109919047Y-127263819D02*
X110014285Y-127311438D01*
X110014285Y-127311438D02*
X110061904Y-127359057D01*
X110061904Y-127359057D02*
X110109523Y-127454295D01*
X110109523Y-127454295D02*
X110109523Y-127549533D01*
X110109523Y-127549533D02*
X110061904Y-127692390D01*
X110061904Y-127692390D02*
X109490476Y-128263819D01*
X109490476Y-128263819D02*
X110109523Y-128263819D01*
X110490476Y-127359057D02*
X110538095Y-127311438D01*
X110538095Y-127311438D02*
X110633333Y-127263819D01*
X110633333Y-127263819D02*
X110871428Y-127263819D01*
X110871428Y-127263819D02*
X110966666Y-127311438D01*
X110966666Y-127311438D02*
X111014285Y-127359057D01*
X111014285Y-127359057D02*
X111061904Y-127454295D01*
X111061904Y-127454295D02*
X111061904Y-127549533D01*
X111061904Y-127549533D02*
X111014285Y-127692390D01*
X111014285Y-127692390D02*
X110442857Y-128263819D01*
X110442857Y-128263819D02*
X111061904Y-128263819D01*
X119563142Y-78863819D02*
X119229809Y-78387628D01*
X118991714Y-78863819D02*
X118991714Y-77863819D01*
X118991714Y-77863819D02*
X119372666Y-77863819D01*
X119372666Y-77863819D02*
X119467904Y-77911438D01*
X119467904Y-77911438D02*
X119515523Y-77959057D01*
X119515523Y-77959057D02*
X119563142Y-78054295D01*
X119563142Y-78054295D02*
X119563142Y-78197152D01*
X119563142Y-78197152D02*
X119515523Y-78292390D01*
X119515523Y-78292390D02*
X119467904Y-78340009D01*
X119467904Y-78340009D02*
X119372666Y-78387628D01*
X119372666Y-78387628D02*
X118991714Y-78387628D01*
X119944095Y-77959057D02*
X119991714Y-77911438D01*
X119991714Y-77911438D02*
X120086952Y-77863819D01*
X120086952Y-77863819D02*
X120325047Y-77863819D01*
X120325047Y-77863819D02*
X120420285Y-77911438D01*
X120420285Y-77911438D02*
X120467904Y-77959057D01*
X120467904Y-77959057D02*
X120515523Y-78054295D01*
X120515523Y-78054295D02*
X120515523Y-78149533D01*
X120515523Y-78149533D02*
X120467904Y-78292390D01*
X120467904Y-78292390D02*
X119896476Y-78863819D01*
X119896476Y-78863819D02*
X120515523Y-78863819D01*
X121372666Y-77863819D02*
X121182190Y-77863819D01*
X121182190Y-77863819D02*
X121086952Y-77911438D01*
X121086952Y-77911438D02*
X121039333Y-77959057D01*
X121039333Y-77959057D02*
X120944095Y-78101914D01*
X120944095Y-78101914D02*
X120896476Y-78292390D01*
X120896476Y-78292390D02*
X120896476Y-78673342D01*
X120896476Y-78673342D02*
X120944095Y-78768580D01*
X120944095Y-78768580D02*
X120991714Y-78816200D01*
X120991714Y-78816200D02*
X121086952Y-78863819D01*
X121086952Y-78863819D02*
X121277428Y-78863819D01*
X121277428Y-78863819D02*
X121372666Y-78816200D01*
X121372666Y-78816200D02*
X121420285Y-78768580D01*
X121420285Y-78768580D02*
X121467904Y-78673342D01*
X121467904Y-78673342D02*
X121467904Y-78435247D01*
X121467904Y-78435247D02*
X121420285Y-78340009D01*
X121420285Y-78340009D02*
X121372666Y-78292390D01*
X121372666Y-78292390D02*
X121277428Y-78244771D01*
X121277428Y-78244771D02*
X121086952Y-78244771D01*
X121086952Y-78244771D02*
X120991714Y-78292390D01*
X120991714Y-78292390D02*
X120944095Y-78340009D01*
X120944095Y-78340009D02*
X120896476Y-78435247D01*
X161597667Y-77838700D02*
X161740524Y-77886319D01*
X161740524Y-77886319D02*
X161978619Y-77886319D01*
X161978619Y-77886319D02*
X162073857Y-77838700D01*
X162073857Y-77838700D02*
X162121476Y-77791080D01*
X162121476Y-77791080D02*
X162169095Y-77695842D01*
X162169095Y-77695842D02*
X162169095Y-77600604D01*
X162169095Y-77600604D02*
X162121476Y-77505366D01*
X162121476Y-77505366D02*
X162073857Y-77457747D01*
X162073857Y-77457747D02*
X161978619Y-77410128D01*
X161978619Y-77410128D02*
X161788143Y-77362509D01*
X161788143Y-77362509D02*
X161692905Y-77314890D01*
X161692905Y-77314890D02*
X161645286Y-77267271D01*
X161645286Y-77267271D02*
X161597667Y-77172033D01*
X161597667Y-77172033D02*
X161597667Y-77076795D01*
X161597667Y-77076795D02*
X161645286Y-76981557D01*
X161645286Y-76981557D02*
X161692905Y-76933938D01*
X161692905Y-76933938D02*
X161788143Y-76886319D01*
X161788143Y-76886319D02*
X162026238Y-76886319D01*
X162026238Y-76886319D02*
X162169095Y-76933938D01*
X162502429Y-76886319D02*
X162740524Y-77886319D01*
X162740524Y-77886319D02*
X162931000Y-77172033D01*
X162931000Y-77172033D02*
X163121476Y-77886319D01*
X163121476Y-77886319D02*
X163359572Y-76886319D01*
X163788143Y-77886319D02*
X163978619Y-77886319D01*
X163978619Y-77886319D02*
X164073857Y-77838700D01*
X164073857Y-77838700D02*
X164121476Y-77791080D01*
X164121476Y-77791080D02*
X164216714Y-77648223D01*
X164216714Y-77648223D02*
X164264333Y-77457747D01*
X164264333Y-77457747D02*
X164264333Y-77076795D01*
X164264333Y-77076795D02*
X164216714Y-76981557D01*
X164216714Y-76981557D02*
X164169095Y-76933938D01*
X164169095Y-76933938D02*
X164073857Y-76886319D01*
X164073857Y-76886319D02*
X163883381Y-76886319D01*
X163883381Y-76886319D02*
X163788143Y-76933938D01*
X163788143Y-76933938D02*
X163740524Y-76981557D01*
X163740524Y-76981557D02*
X163692905Y-77076795D01*
X163692905Y-77076795D02*
X163692905Y-77314890D01*
X163692905Y-77314890D02*
X163740524Y-77410128D01*
X163740524Y-77410128D02*
X163788143Y-77457747D01*
X163788143Y-77457747D02*
X163883381Y-77505366D01*
X163883381Y-77505366D02*
X164073857Y-77505366D01*
X164073857Y-77505366D02*
X164169095Y-77457747D01*
X164169095Y-77457747D02*
X164216714Y-77410128D01*
X164216714Y-77410128D02*
X164264333Y-77314890D01*
X157290700Y-93543523D02*
X157338319Y-93400666D01*
X157338319Y-93400666D02*
X157338319Y-93162571D01*
X157338319Y-93162571D02*
X157290700Y-93067333D01*
X157290700Y-93067333D02*
X157243080Y-93019714D01*
X157243080Y-93019714D02*
X157147842Y-92972095D01*
X157147842Y-92972095D02*
X157052604Y-92972095D01*
X157052604Y-92972095D02*
X156957366Y-93019714D01*
X156957366Y-93019714D02*
X156909747Y-93067333D01*
X156909747Y-93067333D02*
X156862128Y-93162571D01*
X156862128Y-93162571D02*
X156814509Y-93353047D01*
X156814509Y-93353047D02*
X156766890Y-93448285D01*
X156766890Y-93448285D02*
X156719271Y-93495904D01*
X156719271Y-93495904D02*
X156624033Y-93543523D01*
X156624033Y-93543523D02*
X156528795Y-93543523D01*
X156528795Y-93543523D02*
X156433557Y-93495904D01*
X156433557Y-93495904D02*
X156385938Y-93448285D01*
X156385938Y-93448285D02*
X156338319Y-93353047D01*
X156338319Y-93353047D02*
X156338319Y-93114952D01*
X156338319Y-93114952D02*
X156385938Y-92972095D01*
X156338319Y-92638761D02*
X157338319Y-92400666D01*
X157338319Y-92400666D02*
X156624033Y-92210190D01*
X156624033Y-92210190D02*
X157338319Y-92019714D01*
X157338319Y-92019714D02*
X156338319Y-91781619D01*
X157338319Y-90876857D02*
X157338319Y-91448285D01*
X157338319Y-91162571D02*
X156338319Y-91162571D01*
X156338319Y-91162571D02*
X156481176Y-91257809D01*
X156481176Y-91257809D02*
X156576414Y-91353047D01*
X156576414Y-91353047D02*
X156624033Y-91448285D01*
X156338319Y-90257809D02*
X156338319Y-90162571D01*
X156338319Y-90162571D02*
X156385938Y-90067333D01*
X156385938Y-90067333D02*
X156433557Y-90019714D01*
X156433557Y-90019714D02*
X156528795Y-89972095D01*
X156528795Y-89972095D02*
X156719271Y-89924476D01*
X156719271Y-89924476D02*
X156957366Y-89924476D01*
X156957366Y-89924476D02*
X157147842Y-89972095D01*
X157147842Y-89972095D02*
X157243080Y-90019714D01*
X157243080Y-90019714D02*
X157290700Y-90067333D01*
X157290700Y-90067333D02*
X157338319Y-90162571D01*
X157338319Y-90162571D02*
X157338319Y-90257809D01*
X157338319Y-90257809D02*
X157290700Y-90353047D01*
X157290700Y-90353047D02*
X157243080Y-90400666D01*
X157243080Y-90400666D02*
X157147842Y-90448285D01*
X157147842Y-90448285D02*
X156957366Y-90495904D01*
X156957366Y-90495904D02*
X156719271Y-90495904D01*
X156719271Y-90495904D02*
X156528795Y-90448285D01*
X156528795Y-90448285D02*
X156433557Y-90400666D01*
X156433557Y-90400666D02*
X156385938Y-90353047D01*
X156385938Y-90353047D02*
X156338319Y-90257809D01*
X158410819Y-101851857D02*
X157934628Y-102185190D01*
X158410819Y-102423285D02*
X157410819Y-102423285D01*
X157410819Y-102423285D02*
X157410819Y-102042333D01*
X157410819Y-102042333D02*
X157458438Y-101947095D01*
X157458438Y-101947095D02*
X157506057Y-101899476D01*
X157506057Y-101899476D02*
X157601295Y-101851857D01*
X157601295Y-101851857D02*
X157744152Y-101851857D01*
X157744152Y-101851857D02*
X157839390Y-101899476D01*
X157839390Y-101899476D02*
X157887009Y-101947095D01*
X157887009Y-101947095D02*
X157934628Y-102042333D01*
X157934628Y-102042333D02*
X157934628Y-102423285D01*
X157410819Y-101518523D02*
X157410819Y-100899476D01*
X157410819Y-100899476D02*
X157791771Y-101232809D01*
X157791771Y-101232809D02*
X157791771Y-101089952D01*
X157791771Y-101089952D02*
X157839390Y-100994714D01*
X157839390Y-100994714D02*
X157887009Y-100947095D01*
X157887009Y-100947095D02*
X157982247Y-100899476D01*
X157982247Y-100899476D02*
X158220342Y-100899476D01*
X158220342Y-100899476D02*
X158315580Y-100947095D01*
X158315580Y-100947095D02*
X158363200Y-100994714D01*
X158363200Y-100994714D02*
X158410819Y-101089952D01*
X158410819Y-101089952D02*
X158410819Y-101375666D01*
X158410819Y-101375666D02*
X158363200Y-101470904D01*
X158363200Y-101470904D02*
X158315580Y-101518523D01*
X157410819Y-100042333D02*
X157410819Y-100232809D01*
X157410819Y-100232809D02*
X157458438Y-100328047D01*
X157458438Y-100328047D02*
X157506057Y-100375666D01*
X157506057Y-100375666D02*
X157648914Y-100470904D01*
X157648914Y-100470904D02*
X157839390Y-100518523D01*
X157839390Y-100518523D02*
X158220342Y-100518523D01*
X158220342Y-100518523D02*
X158315580Y-100470904D01*
X158315580Y-100470904D02*
X158363200Y-100423285D01*
X158363200Y-100423285D02*
X158410819Y-100328047D01*
X158410819Y-100328047D02*
X158410819Y-100137571D01*
X158410819Y-100137571D02*
X158363200Y-100042333D01*
X158363200Y-100042333D02*
X158315580Y-99994714D01*
X158315580Y-99994714D02*
X158220342Y-99947095D01*
X158220342Y-99947095D02*
X157982247Y-99947095D01*
X157982247Y-99947095D02*
X157887009Y-99994714D01*
X157887009Y-99994714D02*
X157839390Y-100042333D01*
X157839390Y-100042333D02*
X157791771Y-100137571D01*
X157791771Y-100137571D02*
X157791771Y-100328047D01*
X157791771Y-100328047D02*
X157839390Y-100423285D01*
X157839390Y-100423285D02*
X157887009Y-100470904D01*
X157887009Y-100470904D02*
X157982247Y-100518523D01*
X111597667Y-77838700D02*
X111740524Y-77886319D01*
X111740524Y-77886319D02*
X111978619Y-77886319D01*
X111978619Y-77886319D02*
X112073857Y-77838700D01*
X112073857Y-77838700D02*
X112121476Y-77791080D01*
X112121476Y-77791080D02*
X112169095Y-77695842D01*
X112169095Y-77695842D02*
X112169095Y-77600604D01*
X112169095Y-77600604D02*
X112121476Y-77505366D01*
X112121476Y-77505366D02*
X112073857Y-77457747D01*
X112073857Y-77457747D02*
X111978619Y-77410128D01*
X111978619Y-77410128D02*
X111788143Y-77362509D01*
X111788143Y-77362509D02*
X111692905Y-77314890D01*
X111692905Y-77314890D02*
X111645286Y-77267271D01*
X111645286Y-77267271D02*
X111597667Y-77172033D01*
X111597667Y-77172033D02*
X111597667Y-77076795D01*
X111597667Y-77076795D02*
X111645286Y-76981557D01*
X111645286Y-76981557D02*
X111692905Y-76933938D01*
X111692905Y-76933938D02*
X111788143Y-76886319D01*
X111788143Y-76886319D02*
X112026238Y-76886319D01*
X112026238Y-76886319D02*
X112169095Y-76933938D01*
X112502429Y-76886319D02*
X112740524Y-77886319D01*
X112740524Y-77886319D02*
X112931000Y-77172033D01*
X112931000Y-77172033D02*
X113121476Y-77886319D01*
X113121476Y-77886319D02*
X113359572Y-76886319D01*
X114216714Y-76886319D02*
X113740524Y-76886319D01*
X113740524Y-76886319D02*
X113692905Y-77362509D01*
X113692905Y-77362509D02*
X113740524Y-77314890D01*
X113740524Y-77314890D02*
X113835762Y-77267271D01*
X113835762Y-77267271D02*
X114073857Y-77267271D01*
X114073857Y-77267271D02*
X114169095Y-77314890D01*
X114169095Y-77314890D02*
X114216714Y-77362509D01*
X114216714Y-77362509D02*
X114264333Y-77457747D01*
X114264333Y-77457747D02*
X114264333Y-77695842D01*
X114264333Y-77695842D02*
X114216714Y-77791080D01*
X114216714Y-77791080D02*
X114169095Y-77838700D01*
X114169095Y-77838700D02*
X114073857Y-77886319D01*
X114073857Y-77886319D02*
X113835762Y-77886319D01*
X113835762Y-77886319D02*
X113740524Y-77838700D01*
X113740524Y-77838700D02*
X113692905Y-77791080D01*
X170946476Y-96966200D02*
X171089333Y-97013819D01*
X171089333Y-97013819D02*
X171327428Y-97013819D01*
X171327428Y-97013819D02*
X171422666Y-96966200D01*
X171422666Y-96966200D02*
X171470285Y-96918580D01*
X171470285Y-96918580D02*
X171517904Y-96823342D01*
X171517904Y-96823342D02*
X171517904Y-96728104D01*
X171517904Y-96728104D02*
X171470285Y-96632866D01*
X171470285Y-96632866D02*
X171422666Y-96585247D01*
X171422666Y-96585247D02*
X171327428Y-96537628D01*
X171327428Y-96537628D02*
X171136952Y-96490009D01*
X171136952Y-96490009D02*
X171041714Y-96442390D01*
X171041714Y-96442390D02*
X170994095Y-96394771D01*
X170994095Y-96394771D02*
X170946476Y-96299533D01*
X170946476Y-96299533D02*
X170946476Y-96204295D01*
X170946476Y-96204295D02*
X170994095Y-96109057D01*
X170994095Y-96109057D02*
X171041714Y-96061438D01*
X171041714Y-96061438D02*
X171136952Y-96013819D01*
X171136952Y-96013819D02*
X171375047Y-96013819D01*
X171375047Y-96013819D02*
X171517904Y-96061438D01*
X171851238Y-96013819D02*
X172089333Y-97013819D01*
X172089333Y-97013819D02*
X172279809Y-96299533D01*
X172279809Y-96299533D02*
X172470285Y-97013819D01*
X172470285Y-97013819D02*
X172708381Y-96013819D01*
X173613142Y-97013819D02*
X173041714Y-97013819D01*
X173327428Y-97013819D02*
X173327428Y-96013819D01*
X173327428Y-96013819D02*
X173232190Y-96156676D01*
X173232190Y-96156676D02*
X173136952Y-96251914D01*
X173136952Y-96251914D02*
X173041714Y-96299533D01*
X173994095Y-96109057D02*
X174041714Y-96061438D01*
X174041714Y-96061438D02*
X174136952Y-96013819D01*
X174136952Y-96013819D02*
X174375047Y-96013819D01*
X174375047Y-96013819D02*
X174470285Y-96061438D01*
X174470285Y-96061438D02*
X174517904Y-96109057D01*
X174517904Y-96109057D02*
X174565523Y-96204295D01*
X174565523Y-96204295D02*
X174565523Y-96299533D01*
X174565523Y-96299533D02*
X174517904Y-96442390D01*
X174517904Y-96442390D02*
X173946476Y-97013819D01*
X173946476Y-97013819D02*
X174565523Y-97013819D01*
X115559095Y-115954819D02*
X115559095Y-116764342D01*
X115559095Y-116764342D02*
X115606714Y-116859580D01*
X115606714Y-116859580D02*
X115654333Y-116907200D01*
X115654333Y-116907200D02*
X115749571Y-116954819D01*
X115749571Y-116954819D02*
X115940047Y-116954819D01*
X115940047Y-116954819D02*
X116035285Y-116907200D01*
X116035285Y-116907200D02*
X116082904Y-116859580D01*
X116082904Y-116859580D02*
X116130523Y-116764342D01*
X116130523Y-116764342D02*
X116130523Y-115954819D01*
X117035285Y-116288152D02*
X117035285Y-116954819D01*
X116797190Y-115907200D02*
X116559095Y-116621485D01*
X116559095Y-116621485D02*
X117178142Y-116621485D01*
D11*
X122844095Y-114066419D02*
X122844095Y-114875942D01*
X122844095Y-114875942D02*
X122891714Y-114971180D01*
X122891714Y-114971180D02*
X122939333Y-115018800D01*
X122939333Y-115018800D02*
X123034571Y-115066419D01*
X123034571Y-115066419D02*
X123225047Y-115066419D01*
X123225047Y-115066419D02*
X123320285Y-115018800D01*
X123320285Y-115018800D02*
X123367904Y-114971180D01*
X123367904Y-114971180D02*
X123415523Y-114875942D01*
X123415523Y-114875942D02*
X123415523Y-114066419D01*
X124367904Y-114066419D02*
X123891714Y-114066419D01*
X123891714Y-114066419D02*
X123844095Y-114542609D01*
X123844095Y-114542609D02*
X123891714Y-114494990D01*
X123891714Y-114494990D02*
X123986952Y-114447371D01*
X123986952Y-114447371D02*
X124225047Y-114447371D01*
X124225047Y-114447371D02*
X124320285Y-114494990D01*
X124320285Y-114494990D02*
X124367904Y-114542609D01*
X124367904Y-114542609D02*
X124415523Y-114637847D01*
X124415523Y-114637847D02*
X124415523Y-114875942D01*
X124415523Y-114875942D02*
X124367904Y-114971180D01*
X124367904Y-114971180D02*
X124320285Y-115018800D01*
X124320285Y-115018800D02*
X124225047Y-115066419D01*
X124225047Y-115066419D02*
X123986952Y-115066419D01*
X123986952Y-115066419D02*
X123891714Y-115018800D01*
X123891714Y-115018800D02*
X123844095Y-114971180D01*
D10*
X129578142Y-133013819D02*
X129244809Y-132537628D01*
X129006714Y-133013819D02*
X129006714Y-132013819D01*
X129006714Y-132013819D02*
X129387666Y-132013819D01*
X129387666Y-132013819D02*
X129482904Y-132061438D01*
X129482904Y-132061438D02*
X129530523Y-132109057D01*
X129530523Y-132109057D02*
X129578142Y-132204295D01*
X129578142Y-132204295D02*
X129578142Y-132347152D01*
X129578142Y-132347152D02*
X129530523Y-132442390D01*
X129530523Y-132442390D02*
X129482904Y-132490009D01*
X129482904Y-132490009D02*
X129387666Y-132537628D01*
X129387666Y-132537628D02*
X129006714Y-132537628D01*
X129959095Y-132109057D02*
X130006714Y-132061438D01*
X130006714Y-132061438D02*
X130101952Y-132013819D01*
X130101952Y-132013819D02*
X130340047Y-132013819D01*
X130340047Y-132013819D02*
X130435285Y-132061438D01*
X130435285Y-132061438D02*
X130482904Y-132109057D01*
X130482904Y-132109057D02*
X130530523Y-132204295D01*
X130530523Y-132204295D02*
X130530523Y-132299533D01*
X130530523Y-132299533D02*
X130482904Y-132442390D01*
X130482904Y-132442390D02*
X129911476Y-133013819D01*
X129911476Y-133013819D02*
X130530523Y-133013819D01*
X131149571Y-132013819D02*
X131244809Y-132013819D01*
X131244809Y-132013819D02*
X131340047Y-132061438D01*
X131340047Y-132061438D02*
X131387666Y-132109057D01*
X131387666Y-132109057D02*
X131435285Y-132204295D01*
X131435285Y-132204295D02*
X131482904Y-132394771D01*
X131482904Y-132394771D02*
X131482904Y-132632866D01*
X131482904Y-132632866D02*
X131435285Y-132823342D01*
X131435285Y-132823342D02*
X131387666Y-132918580D01*
X131387666Y-132918580D02*
X131340047Y-132966200D01*
X131340047Y-132966200D02*
X131244809Y-133013819D01*
X131244809Y-133013819D02*
X131149571Y-133013819D01*
X131149571Y-133013819D02*
X131054333Y-132966200D01*
X131054333Y-132966200D02*
X131006714Y-132918580D01*
X131006714Y-132918580D02*
X130959095Y-132823342D01*
X130959095Y-132823342D02*
X130911476Y-132632866D01*
X130911476Y-132632866D02*
X130911476Y-132394771D01*
X130911476Y-132394771D02*
X130959095Y-132204295D01*
X130959095Y-132204295D02*
X131006714Y-132109057D01*
X131006714Y-132109057D02*
X131054333Y-132061438D01*
X131054333Y-132061438D02*
X131149571Y-132013819D01*
X101372667Y-127466200D02*
X101515524Y-127513819D01*
X101515524Y-127513819D02*
X101753619Y-127513819D01*
X101753619Y-127513819D02*
X101848857Y-127466200D01*
X101848857Y-127466200D02*
X101896476Y-127418580D01*
X101896476Y-127418580D02*
X101944095Y-127323342D01*
X101944095Y-127323342D02*
X101944095Y-127228104D01*
X101944095Y-127228104D02*
X101896476Y-127132866D01*
X101896476Y-127132866D02*
X101848857Y-127085247D01*
X101848857Y-127085247D02*
X101753619Y-127037628D01*
X101753619Y-127037628D02*
X101563143Y-126990009D01*
X101563143Y-126990009D02*
X101467905Y-126942390D01*
X101467905Y-126942390D02*
X101420286Y-126894771D01*
X101420286Y-126894771D02*
X101372667Y-126799533D01*
X101372667Y-126799533D02*
X101372667Y-126704295D01*
X101372667Y-126704295D02*
X101420286Y-126609057D01*
X101420286Y-126609057D02*
X101467905Y-126561438D01*
X101467905Y-126561438D02*
X101563143Y-126513819D01*
X101563143Y-126513819D02*
X101801238Y-126513819D01*
X101801238Y-126513819D02*
X101944095Y-126561438D01*
X102277429Y-126513819D02*
X102515524Y-127513819D01*
X102515524Y-127513819D02*
X102706000Y-126799533D01*
X102706000Y-126799533D02*
X102896476Y-127513819D01*
X102896476Y-127513819D02*
X103134572Y-126513819D01*
X103420286Y-126513819D02*
X104039333Y-126513819D01*
X104039333Y-126513819D02*
X103706000Y-126894771D01*
X103706000Y-126894771D02*
X103848857Y-126894771D01*
X103848857Y-126894771D02*
X103944095Y-126942390D01*
X103944095Y-126942390D02*
X103991714Y-126990009D01*
X103991714Y-126990009D02*
X104039333Y-127085247D01*
X104039333Y-127085247D02*
X104039333Y-127323342D01*
X104039333Y-127323342D02*
X103991714Y-127418580D01*
X103991714Y-127418580D02*
X103944095Y-127466200D01*
X103944095Y-127466200D02*
X103848857Y-127513819D01*
X103848857Y-127513819D02*
X103563143Y-127513819D01*
X103563143Y-127513819D02*
X103467905Y-127466200D01*
X103467905Y-127466200D02*
X103420286Y-127418580D01*
X171372667Y-127366200D02*
X171515524Y-127413819D01*
X171515524Y-127413819D02*
X171753619Y-127413819D01*
X171753619Y-127413819D02*
X171848857Y-127366200D01*
X171848857Y-127366200D02*
X171896476Y-127318580D01*
X171896476Y-127318580D02*
X171944095Y-127223342D01*
X171944095Y-127223342D02*
X171944095Y-127128104D01*
X171944095Y-127128104D02*
X171896476Y-127032866D01*
X171896476Y-127032866D02*
X171848857Y-126985247D01*
X171848857Y-126985247D02*
X171753619Y-126937628D01*
X171753619Y-126937628D02*
X171563143Y-126890009D01*
X171563143Y-126890009D02*
X171467905Y-126842390D01*
X171467905Y-126842390D02*
X171420286Y-126794771D01*
X171420286Y-126794771D02*
X171372667Y-126699533D01*
X171372667Y-126699533D02*
X171372667Y-126604295D01*
X171372667Y-126604295D02*
X171420286Y-126509057D01*
X171420286Y-126509057D02*
X171467905Y-126461438D01*
X171467905Y-126461438D02*
X171563143Y-126413819D01*
X171563143Y-126413819D02*
X171801238Y-126413819D01*
X171801238Y-126413819D02*
X171944095Y-126461438D01*
X172277429Y-126413819D02*
X172515524Y-127413819D01*
X172515524Y-127413819D02*
X172706000Y-126699533D01*
X172706000Y-126699533D02*
X172896476Y-127413819D01*
X172896476Y-127413819D02*
X173134572Y-126413819D01*
X173944095Y-126747152D02*
X173944095Y-127413819D01*
X173706000Y-126366200D02*
X173467905Y-127080485D01*
X173467905Y-127080485D02*
X174086952Y-127080485D01*
X166360819Y-91001857D02*
X165884628Y-91335190D01*
X166360819Y-91573285D02*
X165360819Y-91573285D01*
X165360819Y-91573285D02*
X165360819Y-91192333D01*
X165360819Y-91192333D02*
X165408438Y-91097095D01*
X165408438Y-91097095D02*
X165456057Y-91049476D01*
X165456057Y-91049476D02*
X165551295Y-91001857D01*
X165551295Y-91001857D02*
X165694152Y-91001857D01*
X165694152Y-91001857D02*
X165789390Y-91049476D01*
X165789390Y-91049476D02*
X165837009Y-91097095D01*
X165837009Y-91097095D02*
X165884628Y-91192333D01*
X165884628Y-91192333D02*
X165884628Y-91573285D01*
X165360819Y-90668523D02*
X165360819Y-90049476D01*
X165360819Y-90049476D02*
X165741771Y-90382809D01*
X165741771Y-90382809D02*
X165741771Y-90239952D01*
X165741771Y-90239952D02*
X165789390Y-90144714D01*
X165789390Y-90144714D02*
X165837009Y-90097095D01*
X165837009Y-90097095D02*
X165932247Y-90049476D01*
X165932247Y-90049476D02*
X166170342Y-90049476D01*
X166170342Y-90049476D02*
X166265580Y-90097095D01*
X166265580Y-90097095D02*
X166313200Y-90144714D01*
X166313200Y-90144714D02*
X166360819Y-90239952D01*
X166360819Y-90239952D02*
X166360819Y-90525666D01*
X166360819Y-90525666D02*
X166313200Y-90620904D01*
X166313200Y-90620904D02*
X166265580Y-90668523D01*
X165360819Y-89716142D02*
X165360819Y-89049476D01*
X165360819Y-89049476D02*
X166360819Y-89478047D01*
X108263142Y-89413819D02*
X107929809Y-88937628D01*
X107691714Y-89413819D02*
X107691714Y-88413819D01*
X107691714Y-88413819D02*
X108072666Y-88413819D01*
X108072666Y-88413819D02*
X108167904Y-88461438D01*
X108167904Y-88461438D02*
X108215523Y-88509057D01*
X108215523Y-88509057D02*
X108263142Y-88604295D01*
X108263142Y-88604295D02*
X108263142Y-88747152D01*
X108263142Y-88747152D02*
X108215523Y-88842390D01*
X108215523Y-88842390D02*
X108167904Y-88890009D01*
X108167904Y-88890009D02*
X108072666Y-88937628D01*
X108072666Y-88937628D02*
X107691714Y-88937628D01*
X108644095Y-88509057D02*
X108691714Y-88461438D01*
X108691714Y-88461438D02*
X108786952Y-88413819D01*
X108786952Y-88413819D02*
X109025047Y-88413819D01*
X109025047Y-88413819D02*
X109120285Y-88461438D01*
X109120285Y-88461438D02*
X109167904Y-88509057D01*
X109167904Y-88509057D02*
X109215523Y-88604295D01*
X109215523Y-88604295D02*
X109215523Y-88699533D01*
X109215523Y-88699533D02*
X109167904Y-88842390D01*
X109167904Y-88842390D02*
X108596476Y-89413819D01*
X108596476Y-89413819D02*
X109215523Y-89413819D01*
X109548857Y-88413819D02*
X110215523Y-88413819D01*
X110215523Y-88413819D02*
X109786952Y-89413819D01*
X141813142Y-133063819D02*
X141479809Y-132587628D01*
X141241714Y-133063819D02*
X141241714Y-132063819D01*
X141241714Y-132063819D02*
X141622666Y-132063819D01*
X141622666Y-132063819D02*
X141717904Y-132111438D01*
X141717904Y-132111438D02*
X141765523Y-132159057D01*
X141765523Y-132159057D02*
X141813142Y-132254295D01*
X141813142Y-132254295D02*
X141813142Y-132397152D01*
X141813142Y-132397152D02*
X141765523Y-132492390D01*
X141765523Y-132492390D02*
X141717904Y-132540009D01*
X141717904Y-132540009D02*
X141622666Y-132587628D01*
X141622666Y-132587628D02*
X141241714Y-132587628D01*
X142765523Y-133063819D02*
X142194095Y-133063819D01*
X142479809Y-133063819D02*
X142479809Y-132063819D01*
X142479809Y-132063819D02*
X142384571Y-132206676D01*
X142384571Y-132206676D02*
X142289333Y-132301914D01*
X142289333Y-132301914D02*
X142194095Y-132349533D01*
X143336952Y-132492390D02*
X143241714Y-132444771D01*
X143241714Y-132444771D02*
X143194095Y-132397152D01*
X143194095Y-132397152D02*
X143146476Y-132301914D01*
X143146476Y-132301914D02*
X143146476Y-132254295D01*
X143146476Y-132254295D02*
X143194095Y-132159057D01*
X143194095Y-132159057D02*
X143241714Y-132111438D01*
X143241714Y-132111438D02*
X143336952Y-132063819D01*
X143336952Y-132063819D02*
X143527428Y-132063819D01*
X143527428Y-132063819D02*
X143622666Y-132111438D01*
X143622666Y-132111438D02*
X143670285Y-132159057D01*
X143670285Y-132159057D02*
X143717904Y-132254295D01*
X143717904Y-132254295D02*
X143717904Y-132301914D01*
X143717904Y-132301914D02*
X143670285Y-132397152D01*
X143670285Y-132397152D02*
X143622666Y-132444771D01*
X143622666Y-132444771D02*
X143527428Y-132492390D01*
X143527428Y-132492390D02*
X143336952Y-132492390D01*
X143336952Y-132492390D02*
X143241714Y-132540009D01*
X143241714Y-132540009D02*
X143194095Y-132587628D01*
X143194095Y-132587628D02*
X143146476Y-132682866D01*
X143146476Y-132682866D02*
X143146476Y-132873342D01*
X143146476Y-132873342D02*
X143194095Y-132968580D01*
X143194095Y-132968580D02*
X143241714Y-133016200D01*
X143241714Y-133016200D02*
X143336952Y-133063819D01*
X143336952Y-133063819D02*
X143527428Y-133063819D01*
X143527428Y-133063819D02*
X143622666Y-133016200D01*
X143622666Y-133016200D02*
X143670285Y-132968580D01*
X143670285Y-132968580D02*
X143717904Y-132873342D01*
X143717904Y-132873342D02*
X143717904Y-132682866D01*
X143717904Y-132682866D02*
X143670285Y-132587628D01*
X143670285Y-132587628D02*
X143622666Y-132540009D01*
X143622666Y-132540009D02*
X143527428Y-132492390D01*
X168296476Y-76713819D02*
X168296476Y-77428104D01*
X168296476Y-77428104D02*
X168248857Y-77570961D01*
X168248857Y-77570961D02*
X168153619Y-77666200D01*
X168153619Y-77666200D02*
X168010762Y-77713819D01*
X168010762Y-77713819D02*
X167915524Y-77713819D01*
X169296476Y-77713819D02*
X168725048Y-77713819D01*
X169010762Y-77713819D02*
X169010762Y-76713819D01*
X169010762Y-76713819D02*
X168915524Y-76856676D01*
X168915524Y-76856676D02*
X168820286Y-76951914D01*
X168820286Y-76951914D02*
X168725048Y-76999533D01*
X169915524Y-76713819D02*
X170010762Y-76713819D01*
X170010762Y-76713819D02*
X170106000Y-76761438D01*
X170106000Y-76761438D02*
X170153619Y-76809057D01*
X170153619Y-76809057D02*
X170201238Y-76904295D01*
X170201238Y-76904295D02*
X170248857Y-77094771D01*
X170248857Y-77094771D02*
X170248857Y-77332866D01*
X170248857Y-77332866D02*
X170201238Y-77523342D01*
X170201238Y-77523342D02*
X170153619Y-77618580D01*
X170153619Y-77618580D02*
X170106000Y-77666200D01*
X170106000Y-77666200D02*
X170010762Y-77713819D01*
X170010762Y-77713819D02*
X169915524Y-77713819D01*
X169915524Y-77713819D02*
X169820286Y-77666200D01*
X169820286Y-77666200D02*
X169772667Y-77618580D01*
X169772667Y-77618580D02*
X169725048Y-77523342D01*
X169725048Y-77523342D02*
X169677429Y-77332866D01*
X169677429Y-77332866D02*
X169677429Y-77094771D01*
X169677429Y-77094771D02*
X169725048Y-76904295D01*
X169725048Y-76904295D02*
X169772667Y-76809057D01*
X169772667Y-76809057D02*
X169820286Y-76761438D01*
X169820286Y-76761438D02*
X169915524Y-76713819D01*
X116304819Y-133042857D02*
X115828628Y-133376190D01*
X116304819Y-133614285D02*
X115304819Y-133614285D01*
X115304819Y-133614285D02*
X115304819Y-133233333D01*
X115304819Y-133233333D02*
X115352438Y-133138095D01*
X115352438Y-133138095D02*
X115400057Y-133090476D01*
X115400057Y-133090476D02*
X115495295Y-133042857D01*
X115495295Y-133042857D02*
X115638152Y-133042857D01*
X115638152Y-133042857D02*
X115733390Y-133090476D01*
X115733390Y-133090476D02*
X115781009Y-133138095D01*
X115781009Y-133138095D02*
X115828628Y-133233333D01*
X115828628Y-133233333D02*
X115828628Y-133614285D01*
X115400057Y-132661904D02*
X115352438Y-132614285D01*
X115352438Y-132614285D02*
X115304819Y-132519047D01*
X115304819Y-132519047D02*
X115304819Y-132280952D01*
X115304819Y-132280952D02*
X115352438Y-132185714D01*
X115352438Y-132185714D02*
X115400057Y-132138095D01*
X115400057Y-132138095D02*
X115495295Y-132090476D01*
X115495295Y-132090476D02*
X115590533Y-132090476D01*
X115590533Y-132090476D02*
X115733390Y-132138095D01*
X115733390Y-132138095D02*
X116304819Y-132709523D01*
X116304819Y-132709523D02*
X116304819Y-132090476D01*
X115304819Y-131757142D02*
X115304819Y-131138095D01*
X115304819Y-131138095D02*
X115685771Y-131471428D01*
X115685771Y-131471428D02*
X115685771Y-131328571D01*
X115685771Y-131328571D02*
X115733390Y-131233333D01*
X115733390Y-131233333D02*
X115781009Y-131185714D01*
X115781009Y-131185714D02*
X115876247Y-131138095D01*
X115876247Y-131138095D02*
X116114342Y-131138095D01*
X116114342Y-131138095D02*
X116209580Y-131185714D01*
X116209580Y-131185714D02*
X116257200Y-131233333D01*
X116257200Y-131233333D02*
X116304819Y-131328571D01*
X116304819Y-131328571D02*
X116304819Y-131614285D01*
X116304819Y-131614285D02*
X116257200Y-131709523D01*
X116257200Y-131709523D02*
X116209580Y-131757142D01*
X127210819Y-80068523D02*
X127925104Y-80068523D01*
X127925104Y-80068523D02*
X128067961Y-80116142D01*
X128067961Y-80116142D02*
X128163200Y-80211380D01*
X128163200Y-80211380D02*
X128210819Y-80354237D01*
X128210819Y-80354237D02*
X128210819Y-80449475D01*
X128210819Y-79068523D02*
X128210819Y-79639951D01*
X128210819Y-79354237D02*
X127210819Y-79354237D01*
X127210819Y-79354237D02*
X127353676Y-79449475D01*
X127353676Y-79449475D02*
X127448914Y-79544713D01*
X127448914Y-79544713D02*
X127496533Y-79639951D01*
X128210819Y-78116142D02*
X128210819Y-78687570D01*
X128210819Y-78401856D02*
X127210819Y-78401856D01*
X127210819Y-78401856D02*
X127353676Y-78497094D01*
X127353676Y-78497094D02*
X127448914Y-78592332D01*
X127448914Y-78592332D02*
X127496533Y-78687570D01*
X125910819Y-100301857D02*
X125434628Y-100635190D01*
X125910819Y-100873285D02*
X124910819Y-100873285D01*
X124910819Y-100873285D02*
X124910819Y-100492333D01*
X124910819Y-100492333D02*
X124958438Y-100397095D01*
X124958438Y-100397095D02*
X125006057Y-100349476D01*
X125006057Y-100349476D02*
X125101295Y-100301857D01*
X125101295Y-100301857D02*
X125244152Y-100301857D01*
X125244152Y-100301857D02*
X125339390Y-100349476D01*
X125339390Y-100349476D02*
X125387009Y-100397095D01*
X125387009Y-100397095D02*
X125434628Y-100492333D01*
X125434628Y-100492333D02*
X125434628Y-100873285D01*
X125006057Y-99920904D02*
X124958438Y-99873285D01*
X124958438Y-99873285D02*
X124910819Y-99778047D01*
X124910819Y-99778047D02*
X124910819Y-99539952D01*
X124910819Y-99539952D02*
X124958438Y-99444714D01*
X124958438Y-99444714D02*
X125006057Y-99397095D01*
X125006057Y-99397095D02*
X125101295Y-99349476D01*
X125101295Y-99349476D02*
X125196533Y-99349476D01*
X125196533Y-99349476D02*
X125339390Y-99397095D01*
X125339390Y-99397095D02*
X125910819Y-99968523D01*
X125910819Y-99968523D02*
X125910819Y-99349476D01*
X125910819Y-98873285D02*
X125910819Y-98682809D01*
X125910819Y-98682809D02*
X125863200Y-98587571D01*
X125863200Y-98587571D02*
X125815580Y-98539952D01*
X125815580Y-98539952D02*
X125672723Y-98444714D01*
X125672723Y-98444714D02*
X125482247Y-98397095D01*
X125482247Y-98397095D02*
X125101295Y-98397095D01*
X125101295Y-98397095D02*
X125006057Y-98444714D01*
X125006057Y-98444714D02*
X124958438Y-98492333D01*
X124958438Y-98492333D02*
X124910819Y-98587571D01*
X124910819Y-98587571D02*
X124910819Y-98778047D01*
X124910819Y-98778047D02*
X124958438Y-98873285D01*
X124958438Y-98873285D02*
X125006057Y-98920904D01*
X125006057Y-98920904D02*
X125101295Y-98968523D01*
X125101295Y-98968523D02*
X125339390Y-98968523D01*
X125339390Y-98968523D02*
X125434628Y-98920904D01*
X125434628Y-98920904D02*
X125482247Y-98873285D01*
X125482247Y-98873285D02*
X125529866Y-98778047D01*
X125529866Y-98778047D02*
X125529866Y-98587571D01*
X125529866Y-98587571D02*
X125482247Y-98492333D01*
X125482247Y-98492333D02*
X125434628Y-98444714D01*
X125434628Y-98444714D02*
X125339390Y-98397095D01*
X161121476Y-97838700D02*
X161264333Y-97886319D01*
X161264333Y-97886319D02*
X161502428Y-97886319D01*
X161502428Y-97886319D02*
X161597666Y-97838700D01*
X161597666Y-97838700D02*
X161645285Y-97791080D01*
X161645285Y-97791080D02*
X161692904Y-97695842D01*
X161692904Y-97695842D02*
X161692904Y-97600604D01*
X161692904Y-97600604D02*
X161645285Y-97505366D01*
X161645285Y-97505366D02*
X161597666Y-97457747D01*
X161597666Y-97457747D02*
X161502428Y-97410128D01*
X161502428Y-97410128D02*
X161311952Y-97362509D01*
X161311952Y-97362509D02*
X161216714Y-97314890D01*
X161216714Y-97314890D02*
X161169095Y-97267271D01*
X161169095Y-97267271D02*
X161121476Y-97172033D01*
X161121476Y-97172033D02*
X161121476Y-97076795D01*
X161121476Y-97076795D02*
X161169095Y-96981557D01*
X161169095Y-96981557D02*
X161216714Y-96933938D01*
X161216714Y-96933938D02*
X161311952Y-96886319D01*
X161311952Y-96886319D02*
X161550047Y-96886319D01*
X161550047Y-96886319D02*
X161692904Y-96933938D01*
X162026238Y-96886319D02*
X162264333Y-97886319D01*
X162264333Y-97886319D02*
X162454809Y-97172033D01*
X162454809Y-97172033D02*
X162645285Y-97886319D01*
X162645285Y-97886319D02*
X162883381Y-96886319D01*
X163788142Y-97886319D02*
X163216714Y-97886319D01*
X163502428Y-97886319D02*
X163502428Y-96886319D01*
X163502428Y-96886319D02*
X163407190Y-97029176D01*
X163407190Y-97029176D02*
X163311952Y-97124414D01*
X163311952Y-97124414D02*
X163216714Y-97172033D01*
X164740523Y-97886319D02*
X164169095Y-97886319D01*
X164454809Y-97886319D02*
X164454809Y-96886319D01*
X164454809Y-96886319D02*
X164359571Y-97029176D01*
X164359571Y-97029176D02*
X164264333Y-97124414D01*
X164264333Y-97124414D02*
X164169095Y-97172033D01*
X126888200Y-92804832D02*
X126935819Y-92661975D01*
X126935819Y-92661975D02*
X126935819Y-92423880D01*
X126935819Y-92423880D02*
X126888200Y-92328642D01*
X126888200Y-92328642D02*
X126840580Y-92281023D01*
X126840580Y-92281023D02*
X126745342Y-92233404D01*
X126745342Y-92233404D02*
X126650104Y-92233404D01*
X126650104Y-92233404D02*
X126554866Y-92281023D01*
X126554866Y-92281023D02*
X126507247Y-92328642D01*
X126507247Y-92328642D02*
X126459628Y-92423880D01*
X126459628Y-92423880D02*
X126412009Y-92614356D01*
X126412009Y-92614356D02*
X126364390Y-92709594D01*
X126364390Y-92709594D02*
X126316771Y-92757213D01*
X126316771Y-92757213D02*
X126221533Y-92804832D01*
X126221533Y-92804832D02*
X126126295Y-92804832D01*
X126126295Y-92804832D02*
X126031057Y-92757213D01*
X126031057Y-92757213D02*
X125983438Y-92709594D01*
X125983438Y-92709594D02*
X125935819Y-92614356D01*
X125935819Y-92614356D02*
X125935819Y-92376261D01*
X125935819Y-92376261D02*
X125983438Y-92233404D01*
X125935819Y-91900070D02*
X126935819Y-91661975D01*
X126935819Y-91661975D02*
X126221533Y-91471499D01*
X126221533Y-91471499D02*
X126935819Y-91281023D01*
X126935819Y-91281023D02*
X125935819Y-91042928D01*
X126364390Y-90519118D02*
X126316771Y-90614356D01*
X126316771Y-90614356D02*
X126269152Y-90661975D01*
X126269152Y-90661975D02*
X126173914Y-90709594D01*
X126173914Y-90709594D02*
X126126295Y-90709594D01*
X126126295Y-90709594D02*
X126031057Y-90661975D01*
X126031057Y-90661975D02*
X125983438Y-90614356D01*
X125983438Y-90614356D02*
X125935819Y-90519118D01*
X125935819Y-90519118D02*
X125935819Y-90328642D01*
X125935819Y-90328642D02*
X125983438Y-90233404D01*
X125983438Y-90233404D02*
X126031057Y-90185785D01*
X126031057Y-90185785D02*
X126126295Y-90138166D01*
X126126295Y-90138166D02*
X126173914Y-90138166D01*
X126173914Y-90138166D02*
X126269152Y-90185785D01*
X126269152Y-90185785D02*
X126316771Y-90233404D01*
X126316771Y-90233404D02*
X126364390Y-90328642D01*
X126364390Y-90328642D02*
X126364390Y-90519118D01*
X126364390Y-90519118D02*
X126412009Y-90614356D01*
X126412009Y-90614356D02*
X126459628Y-90661975D01*
X126459628Y-90661975D02*
X126554866Y-90709594D01*
X126554866Y-90709594D02*
X126745342Y-90709594D01*
X126745342Y-90709594D02*
X126840580Y-90661975D01*
X126840580Y-90661975D02*
X126888200Y-90614356D01*
X126888200Y-90614356D02*
X126935819Y-90519118D01*
X126935819Y-90519118D02*
X126935819Y-90328642D01*
X126935819Y-90328642D02*
X126888200Y-90233404D01*
X126888200Y-90233404D02*
X126840580Y-90185785D01*
X126840580Y-90185785D02*
X126745342Y-90138166D01*
X126745342Y-90138166D02*
X126554866Y-90138166D01*
X126554866Y-90138166D02*
X126459628Y-90185785D01*
X126459628Y-90185785D02*
X126412009Y-90233404D01*
X126412009Y-90233404D02*
X126364390Y-90328642D01*
X104825819Y-132992333D02*
X105540104Y-132992333D01*
X105540104Y-132992333D02*
X105682961Y-133039952D01*
X105682961Y-133039952D02*
X105778200Y-133135190D01*
X105778200Y-133135190D02*
X105825819Y-133278047D01*
X105825819Y-133278047D02*
X105825819Y-133373285D01*
X105825819Y-132468523D02*
X105825819Y-132278047D01*
X105825819Y-132278047D02*
X105778200Y-132182809D01*
X105778200Y-132182809D02*
X105730580Y-132135190D01*
X105730580Y-132135190D02*
X105587723Y-132039952D01*
X105587723Y-132039952D02*
X105397247Y-131992333D01*
X105397247Y-131992333D02*
X105016295Y-131992333D01*
X105016295Y-131992333D02*
X104921057Y-132039952D01*
X104921057Y-132039952D02*
X104873438Y-132087571D01*
X104873438Y-132087571D02*
X104825819Y-132182809D01*
X104825819Y-132182809D02*
X104825819Y-132373285D01*
X104825819Y-132373285D02*
X104873438Y-132468523D01*
X104873438Y-132468523D02*
X104921057Y-132516142D01*
X104921057Y-132516142D02*
X105016295Y-132563761D01*
X105016295Y-132563761D02*
X105254390Y-132563761D01*
X105254390Y-132563761D02*
X105349628Y-132516142D01*
X105349628Y-132516142D02*
X105397247Y-132468523D01*
X105397247Y-132468523D02*
X105444866Y-132373285D01*
X105444866Y-132373285D02*
X105444866Y-132182809D01*
X105444866Y-132182809D02*
X105397247Y-132087571D01*
X105397247Y-132087571D02*
X105349628Y-132039952D01*
X105349628Y-132039952D02*
X105254390Y-131992333D01*
X117963200Y-102792332D02*
X118010819Y-102649475D01*
X118010819Y-102649475D02*
X118010819Y-102411380D01*
X118010819Y-102411380D02*
X117963200Y-102316142D01*
X117963200Y-102316142D02*
X117915580Y-102268523D01*
X117915580Y-102268523D02*
X117820342Y-102220904D01*
X117820342Y-102220904D02*
X117725104Y-102220904D01*
X117725104Y-102220904D02*
X117629866Y-102268523D01*
X117629866Y-102268523D02*
X117582247Y-102316142D01*
X117582247Y-102316142D02*
X117534628Y-102411380D01*
X117534628Y-102411380D02*
X117487009Y-102601856D01*
X117487009Y-102601856D02*
X117439390Y-102697094D01*
X117439390Y-102697094D02*
X117391771Y-102744713D01*
X117391771Y-102744713D02*
X117296533Y-102792332D01*
X117296533Y-102792332D02*
X117201295Y-102792332D01*
X117201295Y-102792332D02*
X117106057Y-102744713D01*
X117106057Y-102744713D02*
X117058438Y-102697094D01*
X117058438Y-102697094D02*
X117010819Y-102601856D01*
X117010819Y-102601856D02*
X117010819Y-102363761D01*
X117010819Y-102363761D02*
X117058438Y-102220904D01*
X117010819Y-101887570D02*
X118010819Y-101649475D01*
X118010819Y-101649475D02*
X117296533Y-101458999D01*
X117296533Y-101458999D02*
X118010819Y-101268523D01*
X118010819Y-101268523D02*
X117010819Y-101030428D01*
X117010819Y-100744713D02*
X117010819Y-100078047D01*
X117010819Y-100078047D02*
X118010819Y-100506618D01*
X101422667Y-87966200D02*
X101565524Y-88013819D01*
X101565524Y-88013819D02*
X101803619Y-88013819D01*
X101803619Y-88013819D02*
X101898857Y-87966200D01*
X101898857Y-87966200D02*
X101946476Y-87918580D01*
X101946476Y-87918580D02*
X101994095Y-87823342D01*
X101994095Y-87823342D02*
X101994095Y-87728104D01*
X101994095Y-87728104D02*
X101946476Y-87632866D01*
X101946476Y-87632866D02*
X101898857Y-87585247D01*
X101898857Y-87585247D02*
X101803619Y-87537628D01*
X101803619Y-87537628D02*
X101613143Y-87490009D01*
X101613143Y-87490009D02*
X101517905Y-87442390D01*
X101517905Y-87442390D02*
X101470286Y-87394771D01*
X101470286Y-87394771D02*
X101422667Y-87299533D01*
X101422667Y-87299533D02*
X101422667Y-87204295D01*
X101422667Y-87204295D02*
X101470286Y-87109057D01*
X101470286Y-87109057D02*
X101517905Y-87061438D01*
X101517905Y-87061438D02*
X101613143Y-87013819D01*
X101613143Y-87013819D02*
X101851238Y-87013819D01*
X101851238Y-87013819D02*
X101994095Y-87061438D01*
X102327429Y-87013819D02*
X102565524Y-88013819D01*
X102565524Y-88013819D02*
X102756000Y-87299533D01*
X102756000Y-87299533D02*
X102946476Y-88013819D01*
X102946476Y-88013819D02*
X103184572Y-87013819D01*
X103994095Y-87013819D02*
X103803619Y-87013819D01*
X103803619Y-87013819D02*
X103708381Y-87061438D01*
X103708381Y-87061438D02*
X103660762Y-87109057D01*
X103660762Y-87109057D02*
X103565524Y-87251914D01*
X103565524Y-87251914D02*
X103517905Y-87442390D01*
X103517905Y-87442390D02*
X103517905Y-87823342D01*
X103517905Y-87823342D02*
X103565524Y-87918580D01*
X103565524Y-87918580D02*
X103613143Y-87966200D01*
X103613143Y-87966200D02*
X103708381Y-88013819D01*
X103708381Y-88013819D02*
X103898857Y-88013819D01*
X103898857Y-88013819D02*
X103994095Y-87966200D01*
X103994095Y-87966200D02*
X104041714Y-87918580D01*
X104041714Y-87918580D02*
X104089333Y-87823342D01*
X104089333Y-87823342D02*
X104089333Y-87585247D01*
X104089333Y-87585247D02*
X104041714Y-87490009D01*
X104041714Y-87490009D02*
X103994095Y-87442390D01*
X103994095Y-87442390D02*
X103898857Y-87394771D01*
X103898857Y-87394771D02*
X103708381Y-87394771D01*
X103708381Y-87394771D02*
X103613143Y-87442390D01*
X103613143Y-87442390D02*
X103565524Y-87490009D01*
X103565524Y-87490009D02*
X103517905Y-87585247D01*
X160160819Y-132592333D02*
X160875104Y-132592333D01*
X160875104Y-132592333D02*
X161017961Y-132639952D01*
X161017961Y-132639952D02*
X161113200Y-132735190D01*
X161113200Y-132735190D02*
X161160819Y-132878047D01*
X161160819Y-132878047D02*
X161160819Y-132973285D01*
X160160819Y-131687571D02*
X160160819Y-131878047D01*
X160160819Y-131878047D02*
X160208438Y-131973285D01*
X160208438Y-131973285D02*
X160256057Y-132020904D01*
X160256057Y-132020904D02*
X160398914Y-132116142D01*
X160398914Y-132116142D02*
X160589390Y-132163761D01*
X160589390Y-132163761D02*
X160970342Y-132163761D01*
X160970342Y-132163761D02*
X161065580Y-132116142D01*
X161065580Y-132116142D02*
X161113200Y-132068523D01*
X161113200Y-132068523D02*
X161160819Y-131973285D01*
X161160819Y-131973285D02*
X161160819Y-131782809D01*
X161160819Y-131782809D02*
X161113200Y-131687571D01*
X161113200Y-131687571D02*
X161065580Y-131639952D01*
X161065580Y-131639952D02*
X160970342Y-131592333D01*
X160970342Y-131592333D02*
X160732247Y-131592333D01*
X160732247Y-131592333D02*
X160637009Y-131639952D01*
X160637009Y-131639952D02*
X160589390Y-131687571D01*
X160589390Y-131687571D02*
X160541771Y-131782809D01*
X160541771Y-131782809D02*
X160541771Y-131973285D01*
X160541771Y-131973285D02*
X160589390Y-132068523D01*
X160589390Y-132068523D02*
X160637009Y-132116142D01*
X160637009Y-132116142D02*
X160732247Y-132163761D01*
X132078142Y-112663819D02*
X131744809Y-112187628D01*
X131506714Y-112663819D02*
X131506714Y-111663819D01*
X131506714Y-111663819D02*
X131887666Y-111663819D01*
X131887666Y-111663819D02*
X131982904Y-111711438D01*
X131982904Y-111711438D02*
X132030523Y-111759057D01*
X132030523Y-111759057D02*
X132078142Y-111854295D01*
X132078142Y-111854295D02*
X132078142Y-111997152D01*
X132078142Y-111997152D02*
X132030523Y-112092390D01*
X132030523Y-112092390D02*
X131982904Y-112140009D01*
X131982904Y-112140009D02*
X131887666Y-112187628D01*
X131887666Y-112187628D02*
X131506714Y-112187628D01*
X133030523Y-112663819D02*
X132459095Y-112663819D01*
X132744809Y-112663819D02*
X132744809Y-111663819D01*
X132744809Y-111663819D02*
X132649571Y-111806676D01*
X132649571Y-111806676D02*
X132554333Y-111901914D01*
X132554333Y-111901914D02*
X132459095Y-111949533D01*
X133935285Y-111663819D02*
X133459095Y-111663819D01*
X133459095Y-111663819D02*
X133411476Y-112140009D01*
X133411476Y-112140009D02*
X133459095Y-112092390D01*
X133459095Y-112092390D02*
X133554333Y-112044771D01*
X133554333Y-112044771D02*
X133792428Y-112044771D01*
X133792428Y-112044771D02*
X133887666Y-112092390D01*
X133887666Y-112092390D02*
X133935285Y-112140009D01*
X133935285Y-112140009D02*
X133982904Y-112235247D01*
X133982904Y-112235247D02*
X133982904Y-112473342D01*
X133982904Y-112473342D02*
X133935285Y-112568580D01*
X133935285Y-112568580D02*
X133887666Y-112616200D01*
X133887666Y-112616200D02*
X133792428Y-112663819D01*
X133792428Y-112663819D02*
X133554333Y-112663819D01*
X133554333Y-112663819D02*
X133459095Y-112616200D01*
X133459095Y-112616200D02*
X133411476Y-112568580D01*
X109863142Y-95113819D02*
X109529809Y-94637628D01*
X109291714Y-95113819D02*
X109291714Y-94113819D01*
X109291714Y-94113819D02*
X109672666Y-94113819D01*
X109672666Y-94113819D02*
X109767904Y-94161438D01*
X109767904Y-94161438D02*
X109815523Y-94209057D01*
X109815523Y-94209057D02*
X109863142Y-94304295D01*
X109863142Y-94304295D02*
X109863142Y-94447152D01*
X109863142Y-94447152D02*
X109815523Y-94542390D01*
X109815523Y-94542390D02*
X109767904Y-94590009D01*
X109767904Y-94590009D02*
X109672666Y-94637628D01*
X109672666Y-94637628D02*
X109291714Y-94637628D01*
X110244095Y-94209057D02*
X110291714Y-94161438D01*
X110291714Y-94161438D02*
X110386952Y-94113819D01*
X110386952Y-94113819D02*
X110625047Y-94113819D01*
X110625047Y-94113819D02*
X110720285Y-94161438D01*
X110720285Y-94161438D02*
X110767904Y-94209057D01*
X110767904Y-94209057D02*
X110815523Y-94304295D01*
X110815523Y-94304295D02*
X110815523Y-94399533D01*
X110815523Y-94399533D02*
X110767904Y-94542390D01*
X110767904Y-94542390D02*
X110196476Y-95113819D01*
X110196476Y-95113819D02*
X110815523Y-95113819D01*
X111386952Y-94542390D02*
X111291714Y-94494771D01*
X111291714Y-94494771D02*
X111244095Y-94447152D01*
X111244095Y-94447152D02*
X111196476Y-94351914D01*
X111196476Y-94351914D02*
X111196476Y-94304295D01*
X111196476Y-94304295D02*
X111244095Y-94209057D01*
X111244095Y-94209057D02*
X111291714Y-94161438D01*
X111291714Y-94161438D02*
X111386952Y-94113819D01*
X111386952Y-94113819D02*
X111577428Y-94113819D01*
X111577428Y-94113819D02*
X111672666Y-94161438D01*
X111672666Y-94161438D02*
X111720285Y-94209057D01*
X111720285Y-94209057D02*
X111767904Y-94304295D01*
X111767904Y-94304295D02*
X111767904Y-94351914D01*
X111767904Y-94351914D02*
X111720285Y-94447152D01*
X111720285Y-94447152D02*
X111672666Y-94494771D01*
X111672666Y-94494771D02*
X111577428Y-94542390D01*
X111577428Y-94542390D02*
X111386952Y-94542390D01*
X111386952Y-94542390D02*
X111291714Y-94590009D01*
X111291714Y-94590009D02*
X111244095Y-94637628D01*
X111244095Y-94637628D02*
X111196476Y-94732866D01*
X111196476Y-94732866D02*
X111196476Y-94923342D01*
X111196476Y-94923342D02*
X111244095Y-95018580D01*
X111244095Y-95018580D02*
X111291714Y-95066200D01*
X111291714Y-95066200D02*
X111386952Y-95113819D01*
X111386952Y-95113819D02*
X111577428Y-95113819D01*
X111577428Y-95113819D02*
X111672666Y-95066200D01*
X111672666Y-95066200D02*
X111720285Y-95018580D01*
X111720285Y-95018580D02*
X111767904Y-94923342D01*
X111767904Y-94923342D02*
X111767904Y-94732866D01*
X111767904Y-94732866D02*
X111720285Y-94637628D01*
X111720285Y-94637628D02*
X111672666Y-94590009D01*
X111672666Y-94590009D02*
X111577428Y-94542390D01*
X146025823Y-113631857D02*
X145549632Y-113965190D01*
X146025823Y-114203285D02*
X145025823Y-114203285D01*
X145025823Y-114203285D02*
X145025823Y-113822333D01*
X145025823Y-113822333D02*
X145073442Y-113727095D01*
X145073442Y-113727095D02*
X145121061Y-113679476D01*
X145121061Y-113679476D02*
X145216299Y-113631857D01*
X145216299Y-113631857D02*
X145359156Y-113631857D01*
X145359156Y-113631857D02*
X145454394Y-113679476D01*
X145454394Y-113679476D02*
X145502013Y-113727095D01*
X145502013Y-113727095D02*
X145549632Y-113822333D01*
X145549632Y-113822333D02*
X145549632Y-114203285D01*
X146025823Y-112679476D02*
X146025823Y-113250904D01*
X146025823Y-112965190D02*
X145025823Y-112965190D01*
X145025823Y-112965190D02*
X145168680Y-113060428D01*
X145168680Y-113060428D02*
X145263918Y-113155666D01*
X145263918Y-113155666D02*
X145311537Y-113250904D01*
X145025823Y-111822333D02*
X145025823Y-112012809D01*
X145025823Y-112012809D02*
X145073442Y-112108047D01*
X145073442Y-112108047D02*
X145121061Y-112155666D01*
X145121061Y-112155666D02*
X145263918Y-112250904D01*
X145263918Y-112250904D02*
X145454394Y-112298523D01*
X145454394Y-112298523D02*
X145835346Y-112298523D01*
X145835346Y-112298523D02*
X145930584Y-112250904D01*
X145930584Y-112250904D02*
X145978204Y-112203285D01*
X145978204Y-112203285D02*
X146025823Y-112108047D01*
X146025823Y-112108047D02*
X146025823Y-111917571D01*
X146025823Y-111917571D02*
X145978204Y-111822333D01*
X145978204Y-111822333D02*
X145930584Y-111774714D01*
X145930584Y-111774714D02*
X145835346Y-111727095D01*
X145835346Y-111727095D02*
X145597251Y-111727095D01*
X145597251Y-111727095D02*
X145502013Y-111774714D01*
X145502013Y-111774714D02*
X145454394Y-111822333D01*
X145454394Y-111822333D02*
X145406775Y-111917571D01*
X145406775Y-111917571D02*
X145406775Y-112108047D01*
X145406775Y-112108047D02*
X145454394Y-112203285D01*
X145454394Y-112203285D02*
X145502013Y-112250904D01*
X145502013Y-112250904D02*
X145597251Y-112298523D01*
X133813142Y-133013819D02*
X133479809Y-132537628D01*
X133241714Y-133013819D02*
X133241714Y-132013819D01*
X133241714Y-132013819D02*
X133622666Y-132013819D01*
X133622666Y-132013819D02*
X133717904Y-132061438D01*
X133717904Y-132061438D02*
X133765523Y-132109057D01*
X133765523Y-132109057D02*
X133813142Y-132204295D01*
X133813142Y-132204295D02*
X133813142Y-132347152D01*
X133813142Y-132347152D02*
X133765523Y-132442390D01*
X133765523Y-132442390D02*
X133717904Y-132490009D01*
X133717904Y-132490009D02*
X133622666Y-132537628D01*
X133622666Y-132537628D02*
X133241714Y-132537628D01*
X134194095Y-132109057D02*
X134241714Y-132061438D01*
X134241714Y-132061438D02*
X134336952Y-132013819D01*
X134336952Y-132013819D02*
X134575047Y-132013819D01*
X134575047Y-132013819D02*
X134670285Y-132061438D01*
X134670285Y-132061438D02*
X134717904Y-132109057D01*
X134717904Y-132109057D02*
X134765523Y-132204295D01*
X134765523Y-132204295D02*
X134765523Y-132299533D01*
X134765523Y-132299533D02*
X134717904Y-132442390D01*
X134717904Y-132442390D02*
X134146476Y-133013819D01*
X134146476Y-133013819D02*
X134765523Y-133013819D01*
X135717904Y-133013819D02*
X135146476Y-133013819D01*
X135432190Y-133013819D02*
X135432190Y-132013819D01*
X135432190Y-132013819D02*
X135336952Y-132156676D01*
X135336952Y-132156676D02*
X135241714Y-132251914D01*
X135241714Y-132251914D02*
X135146476Y-132299533D01*
X136713142Y-112954819D02*
X136379809Y-112478628D01*
X136141714Y-112954819D02*
X136141714Y-111954819D01*
X136141714Y-111954819D02*
X136522666Y-111954819D01*
X136522666Y-111954819D02*
X136617904Y-112002438D01*
X136617904Y-112002438D02*
X136665523Y-112050057D01*
X136665523Y-112050057D02*
X136713142Y-112145295D01*
X136713142Y-112145295D02*
X136713142Y-112288152D01*
X136713142Y-112288152D02*
X136665523Y-112383390D01*
X136665523Y-112383390D02*
X136617904Y-112431009D01*
X136617904Y-112431009D02*
X136522666Y-112478628D01*
X136522666Y-112478628D02*
X136141714Y-112478628D01*
X137665523Y-112954819D02*
X137094095Y-112954819D01*
X137379809Y-112954819D02*
X137379809Y-111954819D01*
X137379809Y-111954819D02*
X137284571Y-112097676D01*
X137284571Y-112097676D02*
X137189333Y-112192914D01*
X137189333Y-112192914D02*
X137094095Y-112240533D01*
X138141714Y-112954819D02*
X138332190Y-112954819D01*
X138332190Y-112954819D02*
X138427428Y-112907200D01*
X138427428Y-112907200D02*
X138475047Y-112859580D01*
X138475047Y-112859580D02*
X138570285Y-112716723D01*
X138570285Y-112716723D02*
X138617904Y-112526247D01*
X138617904Y-112526247D02*
X138617904Y-112145295D01*
X138617904Y-112145295D02*
X138570285Y-112050057D01*
X138570285Y-112050057D02*
X138522666Y-112002438D01*
X138522666Y-112002438D02*
X138427428Y-111954819D01*
X138427428Y-111954819D02*
X138236952Y-111954819D01*
X138236952Y-111954819D02*
X138141714Y-112002438D01*
X138141714Y-112002438D02*
X138094095Y-112050057D01*
X138094095Y-112050057D02*
X138046476Y-112145295D01*
X138046476Y-112145295D02*
X138046476Y-112383390D01*
X138046476Y-112383390D02*
X138094095Y-112478628D01*
X138094095Y-112478628D02*
X138141714Y-112526247D01*
X138141714Y-112526247D02*
X138236952Y-112573866D01*
X138236952Y-112573866D02*
X138427428Y-112573866D01*
X138427428Y-112573866D02*
X138522666Y-112526247D01*
X138522666Y-112526247D02*
X138570285Y-112478628D01*
X138570285Y-112478628D02*
X138617904Y-112383390D01*
X153660819Y-132042333D02*
X154375104Y-132042333D01*
X154375104Y-132042333D02*
X154517961Y-132089952D01*
X154517961Y-132089952D02*
X154613200Y-132185190D01*
X154613200Y-132185190D02*
X154660819Y-132328047D01*
X154660819Y-132328047D02*
X154660819Y-132423285D01*
X153660819Y-131661380D02*
X153660819Y-130994714D01*
X153660819Y-130994714D02*
X154660819Y-131423285D01*
X109872666Y-117563819D02*
X109872666Y-118278104D01*
X109872666Y-118278104D02*
X109825047Y-118420961D01*
X109825047Y-118420961D02*
X109729809Y-118516200D01*
X109729809Y-118516200D02*
X109586952Y-118563819D01*
X109586952Y-118563819D02*
X109491714Y-118563819D01*
X110491714Y-117992390D02*
X110396476Y-117944771D01*
X110396476Y-117944771D02*
X110348857Y-117897152D01*
X110348857Y-117897152D02*
X110301238Y-117801914D01*
X110301238Y-117801914D02*
X110301238Y-117754295D01*
X110301238Y-117754295D02*
X110348857Y-117659057D01*
X110348857Y-117659057D02*
X110396476Y-117611438D01*
X110396476Y-117611438D02*
X110491714Y-117563819D01*
X110491714Y-117563819D02*
X110682190Y-117563819D01*
X110682190Y-117563819D02*
X110777428Y-117611438D01*
X110777428Y-117611438D02*
X110825047Y-117659057D01*
X110825047Y-117659057D02*
X110872666Y-117754295D01*
X110872666Y-117754295D02*
X110872666Y-117801914D01*
X110872666Y-117801914D02*
X110825047Y-117897152D01*
X110825047Y-117897152D02*
X110777428Y-117944771D01*
X110777428Y-117944771D02*
X110682190Y-117992390D01*
X110682190Y-117992390D02*
X110491714Y-117992390D01*
X110491714Y-117992390D02*
X110396476Y-118040009D01*
X110396476Y-118040009D02*
X110348857Y-118087628D01*
X110348857Y-118087628D02*
X110301238Y-118182866D01*
X110301238Y-118182866D02*
X110301238Y-118373342D01*
X110301238Y-118373342D02*
X110348857Y-118468580D01*
X110348857Y-118468580D02*
X110396476Y-118516200D01*
X110396476Y-118516200D02*
X110491714Y-118563819D01*
X110491714Y-118563819D02*
X110682190Y-118563819D01*
X110682190Y-118563819D02*
X110777428Y-118516200D01*
X110777428Y-118516200D02*
X110825047Y-118468580D01*
X110825047Y-118468580D02*
X110872666Y-118373342D01*
X110872666Y-118373342D02*
X110872666Y-118182866D01*
X110872666Y-118182866D02*
X110825047Y-118087628D01*
X110825047Y-118087628D02*
X110777428Y-118040009D01*
X110777428Y-118040009D02*
X110682190Y-117992390D01*
X159060819Y-81001857D02*
X158584628Y-81335190D01*
X159060819Y-81573285D02*
X158060819Y-81573285D01*
X158060819Y-81573285D02*
X158060819Y-81192333D01*
X158060819Y-81192333D02*
X158108438Y-81097095D01*
X158108438Y-81097095D02*
X158156057Y-81049476D01*
X158156057Y-81049476D02*
X158251295Y-81001857D01*
X158251295Y-81001857D02*
X158394152Y-81001857D01*
X158394152Y-81001857D02*
X158489390Y-81049476D01*
X158489390Y-81049476D02*
X158537009Y-81097095D01*
X158537009Y-81097095D02*
X158584628Y-81192333D01*
X158584628Y-81192333D02*
X158584628Y-81573285D01*
X158060819Y-80668523D02*
X158060819Y-80049476D01*
X158060819Y-80049476D02*
X158441771Y-80382809D01*
X158441771Y-80382809D02*
X158441771Y-80239952D01*
X158441771Y-80239952D02*
X158489390Y-80144714D01*
X158489390Y-80144714D02*
X158537009Y-80097095D01*
X158537009Y-80097095D02*
X158632247Y-80049476D01*
X158632247Y-80049476D02*
X158870342Y-80049476D01*
X158870342Y-80049476D02*
X158965580Y-80097095D01*
X158965580Y-80097095D02*
X159013200Y-80144714D01*
X159013200Y-80144714D02*
X159060819Y-80239952D01*
X159060819Y-80239952D02*
X159060819Y-80525666D01*
X159060819Y-80525666D02*
X159013200Y-80620904D01*
X159013200Y-80620904D02*
X158965580Y-80668523D01*
X158394152Y-79192333D02*
X159060819Y-79192333D01*
X158013200Y-79430428D02*
X158727485Y-79668523D01*
X158727485Y-79668523D02*
X158727485Y-79049476D01*
D12*
%TO.C,REF\u002A\u002A*%
X114576248Y-128065000D02*
X115098752Y-128065000D01*
X114576248Y-129535000D02*
X115098752Y-129535000D01*
%TO.C,R35*%
X146471000Y-88681936D02*
X146471000Y-89136064D01*
X147941000Y-88681936D02*
X147941000Y-89136064D01*
%TO.C,R17*%
X138228936Y-130224000D02*
X138683064Y-130224000D01*
X138228936Y-131694000D02*
X138683064Y-131694000D01*
%TO.C,R22*%
X109572936Y-128724000D02*
X110027064Y-128724000D01*
X109572936Y-130194000D02*
X110027064Y-130194000D01*
%TO.C,R26*%
X119978936Y-79324000D02*
X120433064Y-79324000D01*
X119978936Y-80794000D02*
X120433064Y-80794000D01*
D13*
%TO.C,SW9*%
X159756000Y-80379000D02*
X159756000Y-82739000D01*
X160576000Y-78559000D02*
X164936000Y-78559000D01*
X160576000Y-84559000D02*
X164936000Y-84559000D01*
X165756000Y-80379000D02*
X165756000Y-82739000D01*
D14*
X158106000Y-83809000D02*
G75*
G02*
X157906000Y-83809000I-100000J0D01*
G01*
X157906000Y-83809000D02*
G75*
G02*
X158106000Y-83809000I100000J0D01*
G01*
D13*
%TO.C,SW10*%
X149756000Y-89379000D02*
X149756000Y-93739000D01*
X153936000Y-88559000D02*
X151576000Y-88559000D01*
X153936000Y-94559000D02*
X151576000Y-94559000D01*
X155756000Y-89379000D02*
X155756000Y-93739000D01*
D14*
X150606000Y-86809000D02*
G75*
G02*
X150406000Y-86809000I-100000J0D01*
G01*
X150406000Y-86809000D02*
G75*
G02*
X150606000Y-86809000I100000J0D01*
G01*
D12*
%TO.C,R36*%
X155571000Y-100981936D02*
X155571000Y-101436064D01*
X157041000Y-100981936D02*
X157041000Y-101436064D01*
D13*
%TO.C,SW5*%
X109756000Y-80379000D02*
X109756000Y-82739000D01*
X110576000Y-78559000D02*
X114936000Y-78559000D01*
X110576000Y-84559000D02*
X114936000Y-84559000D01*
X115756000Y-80379000D02*
X115756000Y-82739000D01*
D14*
X108106000Y-83809000D02*
G75*
G02*
X107906000Y-83809000I-100000J0D01*
G01*
X107906000Y-83809000D02*
G75*
G02*
X108106000Y-83809000I100000J0D01*
G01*
D13*
%TO.C,SW12*%
X169756000Y-89379000D02*
X169756000Y-93739000D01*
X173936000Y-88559000D02*
X171576000Y-88559000D01*
X173936000Y-94559000D02*
X171576000Y-94559000D01*
X175756000Y-89379000D02*
X175756000Y-93739000D01*
D14*
X170606000Y-86809000D02*
G75*
G02*
X170406000Y-86809000I-100000J0D01*
G01*
X170406000Y-86809000D02*
G75*
G02*
X170606000Y-86809000I100000J0D01*
G01*
D12*
%TO.C,U4*%
X116321000Y-117349000D02*
X114371000Y-117349000D01*
X116321000Y-117349000D02*
X118271000Y-117349000D01*
X116321000Y-127469000D02*
X114371000Y-127469000D01*
X116321000Y-127469000D02*
X118271000Y-127469000D01*
X119286000Y-127744000D02*
X118806000Y-127744000D01*
X119046000Y-127414000D01*
X119286000Y-127744000D01*
G36*
X119286000Y-127744000D02*
G01*
X118806000Y-127744000D01*
X119046000Y-127414000D01*
X119286000Y-127744000D01*
G37*
D11*
%TO.C,U5*%
X122706000Y-115509000D02*
X152706000Y-115509000D01*
X122706000Y-129509000D02*
X122706000Y-115509000D01*
X123806000Y-126709000D02*
X124506000Y-126109000D01*
X124006000Y-123209000D02*
X123806000Y-126709000D01*
X124106000Y-127109000D02*
X128006000Y-127109000D01*
X124206000Y-121909000D02*
X124406000Y-122209000D01*
X124406000Y-122209000D02*
X124806000Y-121909000D01*
X124406000Y-122809000D02*
X124006000Y-123209000D01*
X124506000Y-118309000D02*
X124206000Y-121909000D01*
X124506000Y-126109000D02*
X124706000Y-123109000D01*
X124706000Y-122509000D02*
X125106000Y-122209000D01*
X124706000Y-123109000D02*
X124406000Y-122809000D01*
X124706000Y-126409000D02*
X124106000Y-127109000D01*
X124806000Y-121909000D02*
X125006000Y-118909000D01*
X124906000Y-118009000D02*
X128706000Y-118009000D01*
X125006000Y-118909000D02*
X124506000Y-118309000D01*
X125006000Y-122809000D02*
X124706000Y-122509000D01*
X125106000Y-122209000D02*
X127906000Y-122209000D01*
X125306000Y-118609000D02*
X124906000Y-118009000D01*
X127506000Y-126409000D02*
X124706000Y-126409000D01*
X127806000Y-126009000D02*
X128006000Y-123209000D01*
X127806000Y-126009000D02*
X128406000Y-126809000D01*
X127906000Y-122209000D02*
X128206000Y-122509000D01*
X127906000Y-122809000D02*
X125006000Y-122809000D01*
X128006000Y-123209000D02*
X128406000Y-122809000D01*
X128006000Y-127109000D02*
X127506000Y-126409000D01*
X128206000Y-118609000D02*
X125306000Y-118609000D01*
X128206000Y-121909000D02*
X128506000Y-122209000D01*
X128206000Y-122509000D02*
X127906000Y-122809000D01*
X128406000Y-118909000D02*
X128206000Y-121909000D01*
X128406000Y-122809000D02*
X128706000Y-123209000D01*
X128706000Y-118009000D02*
X128206000Y-118609000D01*
X128706000Y-123209000D02*
X128406000Y-126809000D01*
X128906000Y-121909000D02*
X128506000Y-122209000D01*
X129106000Y-118309000D02*
X128406000Y-118909000D01*
X129106000Y-118309000D02*
X128906000Y-121909000D01*
X137706000Y-129509000D02*
X122706000Y-129509000D01*
X152706000Y-115509000D02*
X152706000Y-129509000D01*
X152706000Y-129509000D02*
X137706000Y-129509000D01*
X129718311Y-126709000D02*
G75*
G02*
X128893689Y-126709000I-412311J0D01*
G01*
X128893689Y-126709000D02*
G75*
G02*
X129718311Y-126709000I412311J0D01*
G01*
D12*
%TO.C,R20*%
X130448064Y-130224000D02*
X129993936Y-130224000D01*
X130448064Y-131694000D02*
X129993936Y-131694000D01*
D13*
%TO.C,SW3*%
X99706000Y-120329000D02*
X99706000Y-124689000D01*
X103886000Y-119509000D02*
X101526000Y-119509000D01*
X103886000Y-125509000D02*
X101526000Y-125509000D01*
X105706000Y-120329000D02*
X105706000Y-124689000D01*
D14*
X100556000Y-117759000D02*
G75*
G02*
X100356000Y-117759000I-100000J0D01*
G01*
X100356000Y-117759000D02*
G75*
G02*
X100556000Y-117759000I100000J0D01*
G01*
D13*
%TO.C,SW4*%
X169706000Y-124689000D02*
X169706000Y-120329000D01*
X171526000Y-119509000D02*
X173886000Y-119509000D01*
X171526000Y-125509000D02*
X173886000Y-125509000D01*
X175706000Y-124689000D02*
X175706000Y-120329000D01*
D14*
X175056000Y-127259000D02*
G75*
G02*
X174856000Y-127259000I-100000J0D01*
G01*
X174856000Y-127259000D02*
G75*
G02*
X175056000Y-127259000I100000J0D01*
G01*
D12*
%TO.C,R37*%
X167021000Y-89736064D02*
X167021000Y-89281936D01*
X168491000Y-89736064D02*
X168491000Y-89281936D01*
%TO.C,R27*%
X108678936Y-89874000D02*
X109133064Y-89874000D01*
X108678936Y-91344000D02*
X109133064Y-91344000D01*
%TO.C,R18*%
X142683064Y-130224000D02*
X142228936Y-130224000D01*
X142683064Y-131694000D02*
X142228936Y-131694000D01*
%TO.C,J10*%
X168046000Y-78199000D02*
X169106000Y-78199000D01*
X168046000Y-79259000D02*
X168046000Y-78199000D01*
X170106000Y-78199000D02*
X172166000Y-78199000D01*
X170106000Y-80319000D02*
X170106000Y-78199000D01*
X170106000Y-80319000D02*
X172166000Y-80319000D01*
X172166000Y-80319000D02*
X172166000Y-78199000D01*
%TO.C,R23*%
X113365000Y-132627064D02*
X113365000Y-132172936D01*
X114835000Y-132627064D02*
X114835000Y-132172936D01*
%TO.C,J11*%
X129196000Y-78199000D02*
X130256000Y-78199000D01*
X129196000Y-79259000D02*
X129196000Y-78199000D01*
X131256000Y-78199000D02*
X145316000Y-78199000D01*
X131256000Y-80319000D02*
X131256000Y-78199000D01*
X131256000Y-80319000D02*
X145316000Y-80319000D01*
X145316000Y-80319000D02*
X145316000Y-78199000D01*
%TO.C,R29*%
X123071000Y-99431936D02*
X123071000Y-99886064D01*
X124541000Y-99431936D02*
X124541000Y-99886064D01*
D13*
%TO.C,SW11*%
X159756000Y-100379000D02*
X159756000Y-102739000D01*
X160576000Y-98559000D02*
X164936000Y-98559000D01*
X160576000Y-104559000D02*
X164936000Y-104559000D01*
X165756000Y-100379000D02*
X165756000Y-102739000D01*
D14*
X158106000Y-103809000D02*
G75*
G02*
X157906000Y-103809000I-100000J0D01*
G01*
X157906000Y-103809000D02*
G75*
G02*
X158106000Y-103809000I100000J0D01*
G01*
D13*
%TO.C,SW8*%
X119756000Y-89379000D02*
X119756000Y-93739000D01*
X123936000Y-88559000D02*
X121576000Y-88559000D01*
X123936000Y-94559000D02*
X121576000Y-94559000D01*
X125756000Y-89379000D02*
X125756000Y-93739000D01*
D14*
X120606000Y-86809000D02*
G75*
G02*
X120406000Y-86809000I-100000J0D01*
G01*
X120406000Y-86809000D02*
G75*
G02*
X120606000Y-86809000I100000J0D01*
G01*
D12*
%TO.C,J9*%
X108011000Y-131599000D02*
X109071000Y-131599000D01*
X108011000Y-132659000D02*
X108011000Y-131599000D01*
X110071000Y-131599000D02*
X112131000Y-131599000D01*
X110071000Y-133719000D02*
X110071000Y-131599000D01*
X110071000Y-133719000D02*
X112131000Y-133719000D01*
X112131000Y-133719000D02*
X112131000Y-131599000D01*
D13*
%TO.C,SW7*%
X109756000Y-100379000D02*
X109756000Y-102739000D01*
X110576000Y-98559000D02*
X114936000Y-98559000D01*
X110576000Y-104559000D02*
X114936000Y-104559000D01*
X115756000Y-100379000D02*
X115756000Y-102739000D01*
D14*
X108106000Y-103809000D02*
G75*
G02*
X107906000Y-103809000I-100000J0D01*
G01*
X107906000Y-103809000D02*
G75*
G02*
X108106000Y-103809000I100000J0D01*
G01*
D13*
%TO.C,SW6*%
X99756000Y-89379000D02*
X99756000Y-93739000D01*
X103936000Y-88559000D02*
X101576000Y-88559000D01*
X103936000Y-94559000D02*
X101576000Y-94559000D01*
X105756000Y-89379000D02*
X105756000Y-93739000D01*
D14*
X100606000Y-86809000D02*
G75*
G02*
X100406000Y-86809000I-100000J0D01*
G01*
X100406000Y-86809000D02*
G75*
G02*
X100606000Y-86809000I100000J0D01*
G01*
D12*
%TO.C,J6*%
X162146000Y-131199000D02*
X163206000Y-131199000D01*
X162146000Y-132259000D02*
X162146000Y-131199000D01*
X164206000Y-131199000D02*
X166266000Y-131199000D01*
X164206000Y-133319000D02*
X164206000Y-131199000D01*
X164206000Y-133319000D02*
X166266000Y-133319000D01*
X166266000Y-133319000D02*
X166266000Y-131199000D01*
%TO.C,R15*%
X132493936Y-112974000D02*
X132948064Y-112974000D01*
X132493936Y-114444000D02*
X132948064Y-114444000D01*
%TO.C,R28*%
X110278936Y-95574000D02*
X110733064Y-95574000D01*
X110278936Y-97044000D02*
X110733064Y-97044000D01*
%TO.C,R16*%
X143186004Y-112761936D02*
X143186004Y-113216064D01*
X144656004Y-112761936D02*
X144656004Y-113216064D01*
%TO.C,R21*%
X134683064Y-130224000D02*
X134228936Y-130224000D01*
X134683064Y-131694000D02*
X134228936Y-131694000D01*
%TO.C,R19*%
X137128936Y-113224000D02*
X137583064Y-113224000D01*
X137128936Y-114694000D02*
X137583064Y-114694000D01*
%TO.C,J7*%
X145146000Y-130649000D02*
X146206000Y-130649000D01*
X145146000Y-131709000D02*
X145146000Y-130649000D01*
X147206000Y-130649000D02*
X153266000Y-130649000D01*
X147206000Y-132769000D02*
X147206000Y-130649000D01*
X147206000Y-132769000D02*
X153266000Y-132769000D01*
X153266000Y-132769000D02*
X153266000Y-130649000D01*
%TO.C,J8*%
X109146000Y-121609000D02*
X109146000Y-125669000D01*
X109146000Y-121609000D02*
X111266000Y-121609000D01*
X109146000Y-125669000D02*
X111266000Y-125669000D01*
X110206000Y-119549000D02*
X111266000Y-119549000D01*
X111266000Y-119549000D02*
X111266000Y-120609000D01*
X111266000Y-121609000D02*
X111266000Y-125669000D01*
%TO.C,R34*%
X156221000Y-80131936D02*
X156221000Y-80586064D01*
X157691000Y-80131936D02*
X157691000Y-80586064D01*
%TD*%
D15*
X174406000Y-112809000D03*
X101006000Y-78809000D03*
X159506000Y-83809000D03*
X166006000Y-83809000D03*
X159506000Y-79309000D03*
X166006000Y-79309000D03*
X150506000Y-88309000D03*
X150506000Y-94809000D03*
X155006000Y-88309000D03*
X155006000Y-94809000D03*
X174406000Y-78809000D03*
X174406000Y-132209000D03*
X101006000Y-132209000D03*
X174406000Y-104209000D03*
X109506000Y-83809000D03*
X116006000Y-83809000D03*
X109506000Y-79309000D03*
X116006000Y-79309000D03*
X170506000Y-88309000D03*
X170506000Y-94809000D03*
X175006000Y-88309000D03*
X175006000Y-94809000D03*
X131306000Y-127609000D03*
X133846000Y-127609000D03*
X136386000Y-127609000D03*
X138926000Y-127609000D03*
X141466000Y-127609000D03*
X144006000Y-127609000D03*
X144011000Y-117449000D03*
X141471000Y-117449000D03*
X138931000Y-117449000D03*
X136391000Y-117449000D03*
X133851000Y-117449000D03*
X131311000Y-117449000D03*
X100456000Y-119259000D03*
X100456000Y-125759000D03*
X104956000Y-119259000D03*
X104956000Y-125759000D03*
X101006000Y-104209000D03*
X174956000Y-125759000D03*
X174956000Y-119259000D03*
X170456000Y-125759000D03*
X170456000Y-119259000D03*
X169106000Y-79259000D03*
X171106000Y-79259000D03*
X130256000Y-79259000D03*
X132256000Y-79259000D03*
X134256000Y-79259000D03*
X136256000Y-79259000D03*
X138256000Y-79259000D03*
X140256000Y-79259000D03*
X142256000Y-79259000D03*
X144256000Y-79259000D03*
X159506000Y-103809000D03*
X166006000Y-103809000D03*
X159506000Y-99309000D03*
X166006000Y-99309000D03*
X120506000Y-88309000D03*
X120506000Y-94809000D03*
X125006000Y-88309000D03*
X125006000Y-94809000D03*
X109071000Y-132659000D03*
X111071000Y-132659000D03*
X109506000Y-103809000D03*
X116006000Y-103809000D03*
X109506000Y-99309000D03*
X116006000Y-99309000D03*
X100506000Y-88309000D03*
X100506000Y-94809000D03*
X105006000Y-88309000D03*
X105006000Y-94809000D03*
X163206000Y-132259000D03*
X165206000Y-132259000D03*
X146206000Y-131709000D03*
X148206000Y-131709000D03*
X150206000Y-131709000D03*
X152206000Y-131709000D03*
X110206000Y-120609000D03*
X110206000Y-122609000D03*
X110206000Y-124609000D03*
X101006000Y-112809000D03*
M02*
