%TF.GenerationSoftware,KiCad,Pcbnew,8.0.4*%
%TF.CreationDate,2024-08-07T18:13:09-04:00*%
%TF.ProjectId,led_2048,6c65645f-3230-4343-982e-6b696361645f,rev?*%
%TF.SameCoordinates,Original*%
%TF.FileFunction,Soldermask,Top*%
%TF.FilePolarity,Negative*%
%FSLAX46Y46*%
G04 Gerber Fmt 4.6, Leading zero omitted, Abs format (unit mm)*
G04 Created by KiCad (PCBNEW 8.0.4) date 2024-08-07 18:13:09*
%MOMM*%
%LPD*%
G01*
G04 APERTURE LIST*
G04 Aperture macros list*
%AMRoundRect*
0 Rectangle with rounded corners*
0 $1 Rounding radius*
0 $2 $3 $4 $5 $6 $7 $8 $9 X,Y pos of 4 corners*
0 Add a 4 corners polygon primitive as box body*
4,1,4,$2,$3,$4,$5,$6,$7,$8,$9,$2,$3,0*
0 Add four circle primitives for the rounded corners*
1,1,$1+$1,$2,$3*
1,1,$1+$1,$4,$5*
1,1,$1+$1,$6,$7*
1,1,$1+$1,$8,$9*
0 Add four rect primitives between the rounded corners*
20,1,$1+$1,$2,$3,$4,$5,0*
20,1,$1+$1,$4,$5,$6,$7,0*
20,1,$1+$1,$6,$7,$8,$9,0*
20,1,$1+$1,$8,$9,$2,$3,0*%
%AMFreePoly0*
4,1,6,1.000000,0.000000,0.500000,-0.750000,-0.500000,-0.750000,-0.500000,0.750000,0.500000,0.750000,1.000000,0.000000,1.000000,0.000000,$1*%
%AMFreePoly1*
4,1,6,0.500000,-0.750000,-0.650000,-0.750000,-0.150000,0.000000,-0.650000,0.750000,0.500000,0.750000,0.500000,-0.750000,0.500000,-0.750000,$1*%
G04 Aperture macros list end*
%ADD10R,1.070000X1.800000*%
%ADD11O,1.070000X1.800000*%
%ADD12R,1.000000X2.000000*%
%ADD13RoundRect,0.250000X-0.450000X0.350000X-0.450000X-0.350000X0.450000X-0.350000X0.450000X0.350000X0*%
%ADD14RoundRect,0.250000X0.475000X-0.337500X0.475000X0.337500X-0.475000X0.337500X-0.475000X-0.337500X0*%
%ADD15C,2.006600*%
%ADD16C,1.320800*%
%ADD17RoundRect,0.102000X-0.787500X0.787500X-0.787500X-0.787500X0.787500X-0.787500X0.787500X0.787500X0*%
%ADD18C,1.779000*%
%ADD19FreePoly0,270.000000*%
%ADD20FreePoly1,270.000000*%
%ADD21R,1.800000X1.800000*%
%ADD22C,1.800000*%
%ADD23C,3.200000*%
%ADD24C,2.000000*%
%ADD25RoundRect,0.250001X0.624999X-0.462499X0.624999X0.462499X-0.624999X0.462499X-0.624999X-0.462499X0*%
%ADD26RoundRect,0.250000X0.337500X0.475000X-0.337500X0.475000X-0.337500X-0.475000X0.337500X-0.475000X0*%
%ADD27R,1.350000X1.350000*%
%ADD28O,1.350000X1.350000*%
%ADD29RoundRect,0.250000X0.350000X0.450000X-0.350000X0.450000X-0.350000X-0.450000X0.350000X-0.450000X0*%
G04 APERTURE END LIST*
D10*
%TO.C,D27*%
X205375000Y-78010000D03*
D11*
X206645000Y-78010000D03*
X207915000Y-78010000D03*
X209185000Y-78010000D03*
%TD*%
D12*
%TO.C,J1*%
X208700000Y-92000000D03*
X206160000Y-92000000D03*
X203620000Y-92000000D03*
X201080000Y-92000000D03*
X198540000Y-92000000D03*
%TD*%
D13*
%TO.C,R12*%
X203675000Y-84000000D03*
X203675000Y-86000000D03*
%TD*%
D14*
%TO.C,C8*%
X193125000Y-92747335D03*
X193125000Y-90672335D03*
%TD*%
D10*
%TO.C,D23*%
X211885000Y-71510000D03*
D11*
X213155000Y-71510000D03*
X214425000Y-71510000D03*
X215695000Y-71510000D03*
%TD*%
D10*
%TO.C,D12*%
X205385000Y-58510000D03*
D11*
X206655000Y-58510000D03*
X207925000Y-58510000D03*
X209195000Y-58510000D03*
%TD*%
D10*
%TO.C,D28*%
X211885000Y-78010000D03*
D11*
X213155000Y-78010000D03*
X214425000Y-78010000D03*
X215695000Y-78010000D03*
%TD*%
D15*
%TO.C,SW1*%
X223900000Y-76400001D03*
X223900000Y-84599999D03*
D16*
X223900000Y-78499999D03*
X223900000Y-80500000D03*
X223900000Y-82500000D03*
%TD*%
D10*
%TO.C,D7*%
X205385000Y-52010000D03*
D11*
X206655000Y-52010000D03*
X207925000Y-52010000D03*
X209195000Y-52010000D03*
%TD*%
D10*
%TO.C,D14*%
X185875000Y-65010000D03*
D11*
X187145000Y-65010000D03*
X188415000Y-65010000D03*
X189685000Y-65010000D03*
%TD*%
D10*
%TO.C,D22*%
X205380000Y-71510000D03*
D11*
X206650000Y-71510000D03*
X207920000Y-71510000D03*
X209190000Y-71510000D03*
%TD*%
D10*
%TO.C,D5*%
X192385000Y-52010000D03*
D11*
X193655000Y-52010000D03*
X194925000Y-52010000D03*
X196195000Y-52010000D03*
%TD*%
D10*
%TO.C,D13*%
X211885000Y-58510000D03*
D11*
X213155000Y-58510000D03*
X214425000Y-58510000D03*
X215695000Y-58510000D03*
%TD*%
D17*
%TO.C,SW2*%
X220125000Y-65750000D03*
D18*
X220125000Y-72250000D03*
X224625000Y-65750000D03*
X224625000Y-72250000D03*
%TD*%
D19*
%TO.C,JP1*%
X213390000Y-88625000D03*
D20*
X213390000Y-90075000D03*
%TD*%
D10*
%TO.C,D10*%
X192385000Y-58510000D03*
D11*
X193655000Y-58510000D03*
X194925000Y-58510000D03*
X196195000Y-58510000D03*
%TD*%
D10*
%TO.C,D8*%
X211885000Y-52010000D03*
D11*
X213155000Y-52010000D03*
X214425000Y-52010000D03*
X215695000Y-52010000D03*
%TD*%
D10*
%TO.C,D4*%
X185875000Y-52010000D03*
D11*
X187145000Y-52010000D03*
X188415000Y-52010000D03*
X189685000Y-52010000D03*
%TD*%
D10*
%TO.C,D26*%
X198875000Y-78010000D03*
D11*
X200145000Y-78010000D03*
X201415000Y-78010000D03*
X202685000Y-78010000D03*
%TD*%
D10*
%TO.C,D6*%
X198885000Y-52010000D03*
D11*
X200155000Y-52010000D03*
X201425000Y-52010000D03*
X202695000Y-52010000D03*
%TD*%
D21*
%TO.C,D29*%
X221475000Y-92959835D03*
D22*
X224015000Y-92959835D03*
%TD*%
D23*
%TO.C,H1*%
X180100000Y-93500000D03*
%TD*%
D24*
%TO.C,TP2*%
X216600000Y-88900000D03*
%TD*%
D25*
%TO.C,D2*%
X180900000Y-79087500D03*
X180900000Y-76112500D03*
%TD*%
D10*
%TO.C,D25*%
X192375000Y-78010000D03*
D11*
X193645000Y-78010000D03*
X194915000Y-78010000D03*
X196185000Y-78010000D03*
%TD*%
D26*
%TO.C,C6*%
X195137500Y-87400000D03*
X193062500Y-87400000D03*
%TD*%
D14*
%TO.C,C7*%
X195625000Y-92747335D03*
X195625000Y-90672335D03*
%TD*%
D10*
%TO.C,D20*%
X192375000Y-71510000D03*
D11*
X193645000Y-71510000D03*
X194915000Y-71510000D03*
X196185000Y-71510000D03*
%TD*%
D27*
%TO.C,J12*%
X224100000Y-62900000D03*
D28*
X224100000Y-60900000D03*
X224100000Y-58900000D03*
%TD*%
D13*
%TO.C,R1*%
X180900000Y-66800000D03*
X180900000Y-68800000D03*
%TD*%
D26*
%TO.C,C3*%
X195137500Y-85200000D03*
X193062500Y-85200000D03*
%TD*%
D27*
%TO.C,J4*%
X182325000Y-49375000D03*
D28*
X180325000Y-49375000D03*
%TD*%
D13*
%TO.C,R14*%
X201125000Y-83959835D03*
X201125000Y-85959835D03*
%TD*%
%TO.C,R13*%
X206200000Y-86000000D03*
X206200000Y-84000000D03*
%TD*%
D10*
%TO.C,D11*%
X198885000Y-58510000D03*
D11*
X200155000Y-58510000D03*
X201425000Y-58510000D03*
X202695000Y-58510000D03*
%TD*%
D10*
%TO.C,D15*%
X192375000Y-65010000D03*
D11*
X193645000Y-65010000D03*
X194915000Y-65010000D03*
X196185000Y-65010000D03*
%TD*%
D10*
%TO.C,D19*%
X185875000Y-71510000D03*
D11*
X187145000Y-71510000D03*
X188415000Y-71510000D03*
X189685000Y-71510000D03*
%TD*%
D10*
%TO.C,D16*%
X198875000Y-65010000D03*
D11*
X200145000Y-65010000D03*
X201415000Y-65010000D03*
X202685000Y-65010000D03*
%TD*%
D10*
%TO.C,D17*%
X205375000Y-65010000D03*
D11*
X206645000Y-65010000D03*
X207915000Y-65010000D03*
X209185000Y-65010000D03*
%TD*%
D10*
%TO.C,D24*%
X185875000Y-78010000D03*
D11*
X187145000Y-78010000D03*
X188415000Y-78010000D03*
X189685000Y-78010000D03*
%TD*%
D10*
%TO.C,D18*%
X211885000Y-65010000D03*
D11*
X213155000Y-65010000D03*
X214425000Y-65010000D03*
X215695000Y-65010000D03*
%TD*%
D24*
%TO.C,TP1*%
X219375000Y-82300000D03*
%TD*%
D23*
%TO.C,H2*%
X223300000Y-50300000D03*
%TD*%
D29*
%TO.C,R2*%
X189950000Y-83300000D03*
X187950000Y-83300000D03*
%TD*%
D25*
%TO.C,D1*%
X180900000Y-73587500D03*
X180900000Y-70612500D03*
%TD*%
D10*
%TO.C,D21*%
X198875000Y-71510000D03*
D11*
X200145000Y-71510000D03*
X201415000Y-71510000D03*
X202685000Y-71510000D03*
%TD*%
D29*
%TO.C,R3*%
X185500000Y-83300000D03*
X183500000Y-83300000D03*
%TD*%
D25*
%TO.C,D3*%
X181000000Y-84587500D03*
X181000000Y-81612500D03*
%TD*%
D10*
%TO.C,D9*%
X185875000Y-58510000D03*
D11*
X187145000Y-58510000D03*
X188415000Y-58510000D03*
X189685000Y-58510000D03*
%TD*%
D27*
%TO.C,J7*%
X218675000Y-55300000D03*
D28*
X220675000Y-55300000D03*
X222675000Y-55300000D03*
X224675000Y-55300000D03*
%TD*%
D27*
%TO.C,J5*%
X184290000Y-92870000D03*
D28*
X184290000Y-94870000D03*
%TD*%
D27*
%TO.C,J2*%
X183780801Y-88935721D03*
D28*
X181780801Y-88935721D03*
X183780801Y-86935721D03*
X181780801Y-86935721D03*
%TD*%
D27*
%TO.C,REF\u002A\u002A*%
X218100000Y-94700000D03*
D28*
X218100000Y-92700000D03*
%TD*%
D27*
%TO.C,REF\u002A\u002A*%
X218900000Y-49300000D03*
D28*
X218900000Y-51300000D03*
%TD*%
D27*
%TO.C,J3*%
X212550000Y-92775000D03*
D28*
X214550000Y-92775000D03*
X212550000Y-94775000D03*
X214550000Y-94775000D03*
%TD*%
M02*
