%TF.GenerationSoftware,KiCad,Pcbnew,8.0.4*%
%TF.CreationDate,2024-08-07T18:13:10-04:00*%
%TF.ProjectId,led_2048,6c65645f-3230-4343-982e-6b696361645f,rev?*%
%TF.SameCoordinates,Original*%
%TF.FileFunction,Profile,NP*%
%FSLAX46Y46*%
G04 Gerber Fmt 4.6, Leading zero omitted, Abs format (unit mm)*
G04 Created by KiCad (PCBNEW 8.0.4) date 2024-08-07 18:13:10*
%MOMM*%
%LPD*%
G01*
G04 APERTURE LIST*
%TA.AperFunction,Profile*%
%ADD10C,0.050000*%
%TD*%
%ADD11C,0.350000*%
G04 APERTURE END LIST*
D10*
X226625000Y-94000000D02*
G75*
G02*
X223625000Y-97000000I-3000000J0D01*
G01*
X176625000Y-50000000D02*
G75*
G02*
X179625000Y-47000000I3000000J0D01*
G01*
X179625000Y-47000000D02*
X223625000Y-47000000D01*
X179625000Y-97000000D02*
G75*
G02*
X176625000Y-94000000I0J3000000D01*
G01*
X223625000Y-47000000D02*
G75*
G02*
X226625000Y-50000000I0J-3000000D01*
G01*
X226625000Y-50000000D02*
X226625000Y-94000000D01*
X223625000Y-97000000D02*
X179625000Y-97000000D01*
X176625000Y-94000000D02*
X176625000Y-50000000D01*
D11*
X205375000Y-78010000D03*
X206645000Y-78010000D03*
X207915000Y-78010000D03*
X209185000Y-78010000D03*
X211885000Y-71510000D03*
X213155000Y-71510000D03*
X214425000Y-71510000D03*
X215695000Y-71510000D03*
X205385000Y-58510000D03*
X206655000Y-58510000D03*
X207925000Y-58510000D03*
X209195000Y-58510000D03*
X211885000Y-78010000D03*
X213155000Y-78010000D03*
X214425000Y-78010000D03*
X215695000Y-78010000D03*
X223900000Y-76400001D03*
X223900000Y-84599999D03*
X223900000Y-78499999D03*
X223900000Y-80500000D03*
X223900000Y-82500000D03*
X205385000Y-52010000D03*
X206655000Y-52010000D03*
X207925000Y-52010000D03*
X209195000Y-52010000D03*
X185875000Y-65010000D03*
X187145000Y-65010000D03*
X188415000Y-65010000D03*
X189685000Y-65010000D03*
X205380000Y-71510000D03*
X206650000Y-71510000D03*
X207920000Y-71510000D03*
X209190000Y-71510000D03*
X192385000Y-52010000D03*
X193655000Y-52010000D03*
X194925000Y-52010000D03*
X196195000Y-52010000D03*
X211885000Y-58510000D03*
X213155000Y-58510000D03*
X214425000Y-58510000D03*
X215695000Y-58510000D03*
X220125000Y-65750000D03*
X220125000Y-72250000D03*
X224625000Y-65750000D03*
X224625000Y-72250000D03*
X192385000Y-58510000D03*
X193655000Y-58510000D03*
X194925000Y-58510000D03*
X196195000Y-58510000D03*
X211885000Y-52010000D03*
X213155000Y-52010000D03*
X214425000Y-52010000D03*
X215695000Y-52010000D03*
X185875000Y-52010000D03*
X187145000Y-52010000D03*
X188415000Y-52010000D03*
X189685000Y-52010000D03*
X198875000Y-78010000D03*
X200145000Y-78010000D03*
X201415000Y-78010000D03*
X202685000Y-78010000D03*
X198885000Y-52010000D03*
X200155000Y-52010000D03*
X201425000Y-52010000D03*
X202695000Y-52010000D03*
X221475000Y-92959835D03*
X224015000Y-92959835D03*
X180100000Y-93500000D03*
X216600000Y-88900000D03*
X192375000Y-78010000D03*
X193645000Y-78010000D03*
X194915000Y-78010000D03*
X196185000Y-78010000D03*
X192375000Y-71510000D03*
X193645000Y-71510000D03*
X194915000Y-71510000D03*
X196185000Y-71510000D03*
X224100000Y-62900000D03*
X224100000Y-60900000D03*
X224100000Y-58900000D03*
X182325000Y-49375000D03*
X180325000Y-49375000D03*
X198885000Y-58510000D03*
X200155000Y-58510000D03*
X201425000Y-58510000D03*
X202695000Y-58510000D03*
X192375000Y-65010000D03*
X193645000Y-65010000D03*
X194915000Y-65010000D03*
X196185000Y-65010000D03*
X185875000Y-71510000D03*
X187145000Y-71510000D03*
X188415000Y-71510000D03*
X189685000Y-71510000D03*
X198875000Y-65010000D03*
X200145000Y-65010000D03*
X201415000Y-65010000D03*
X202685000Y-65010000D03*
X205375000Y-65010000D03*
X206645000Y-65010000D03*
X207915000Y-65010000D03*
X209185000Y-65010000D03*
X185875000Y-78010000D03*
X187145000Y-78010000D03*
X188415000Y-78010000D03*
X189685000Y-78010000D03*
X211885000Y-65010000D03*
X213155000Y-65010000D03*
X214425000Y-65010000D03*
X215695000Y-65010000D03*
X219375000Y-82300000D03*
X223300000Y-50300000D03*
X198875000Y-71510000D03*
X200145000Y-71510000D03*
X201415000Y-71510000D03*
X202685000Y-71510000D03*
X185875000Y-58510000D03*
X187145000Y-58510000D03*
X188415000Y-58510000D03*
X189685000Y-58510000D03*
X218675000Y-55300000D03*
X220675000Y-55300000D03*
X222675000Y-55300000D03*
X224675000Y-55300000D03*
X184290000Y-92870000D03*
X184290000Y-94870000D03*
X183780801Y-88935721D03*
X181780801Y-88935721D03*
X183780801Y-86935721D03*
X181780801Y-86935721D03*
X218100000Y-94700000D03*
X218100000Y-92700000D03*
X218900000Y-49300000D03*
X218900000Y-51300000D03*
X212550000Y-92775000D03*
X214550000Y-92775000D03*
X212550000Y-94775000D03*
X214550000Y-94775000D03*
M02*
