M48
METRIC,TZ
T1C0.300
T2C0.400
T3C0.800
T4C0.813
T5C0.900
T6C1.000
T7C1.050
T8C1.499
%
G90
G05
T1
X178000Y-87900
X178200Y-54600
X178600Y-86900
X180500Y-59600
X181200Y-51500
X182825Y-76450
X183375Y-58960
X183375Y-71210
X183625Y-52210
X183625Y-64710
X183675Y-73100
X183775Y-67200
X184275Y-76050
X185150Y-80700
X185900Y-87000
X186200Y-53800
X186400Y-60300
X186700Y-66800
X186700Y-73200
X187300Y-86800
X187500Y-81600
X187825Y-93970
X187845Y-95570
X188662Y-89908
X188775Y-90700
X189475Y-91300
X189600Y-60300
X189600Y-66800
X189600Y-73300
X189625Y-89060
X189800Y-53900
X190025Y-88360
X190163Y-93037
X190545Y-87660
X191138Y-92763
X191763Y-93300
X191900Y-87933
X192300Y-60300
X192600Y-83800
X193100Y-73400
X193200Y-66800
X193300Y-53700
X194250Y-90835
X194323Y-92449
X196000Y-66800
X196100Y-60200
X196200Y-73200
X196300Y-53800
X196500Y-86800
X196900Y-88100
X197068Y-91389
X197600Y-48500
X199100Y-87200
X199474Y-83110
X199646Y-92220
X199700Y-53600
X199700Y-60300
X199800Y-66800
X199800Y-73400
X202200Y-60300
X202400Y-86600
X202425Y-88360
X202500Y-66700
X202500Y-73300
X202600Y-53700
X202600Y-80000
X203675Y-82600
X203875Y-88210
X205525Y-89660
X206000Y-60300
X206100Y-66800
X206200Y-53600
X206200Y-73400
X207375Y-92000
X207600Y-90200
X207925Y-83160
X207925Y-86350
X208085Y-87460
X209000Y-60400
X209100Y-53800
X209100Y-66900
X209200Y-73300
X209331Y-90517
X209400Y-89600
X210700Y-48600
X212400Y-53700
X212700Y-66800
X212700Y-73300
X212825Y-84200
X212900Y-60200
X215500Y-66700
X215600Y-53600
X215600Y-60200
X215700Y-73300
X220300Y-69300
X220300Y-74200
X220700Y-53200
X221700Y-63200
X222700Y-95200
X223400Y-68900
X224900Y-90700
T2
X217800Y-84300
T3
X180325Y-49375
X181781Y-86936
X181781Y-88936
X182325Y-49375
X183781Y-86936
X183781Y-88936
X184290Y-92870
X184290Y-94870
X185875Y-52010
X185875Y-58510
X185875Y-65010
X185875Y-71510
X185875Y-78010
X187145Y-52010
X187145Y-58510
X187145Y-65010
X187145Y-71510
X187145Y-78010
X188415Y-52010
X188415Y-58510
X188415Y-65010
X188415Y-71510
X188415Y-78010
X189685Y-52010
X189685Y-58510
X189685Y-65010
X189685Y-71510
X189685Y-78010
X192375Y-65010
X192375Y-71510
X192375Y-78010
X192385Y-52010
X192385Y-58510
X193645Y-65010
X193645Y-71510
X193645Y-78010
X193655Y-52010
X193655Y-58510
X194915Y-65010
X194915Y-71510
X194915Y-78010
X194925Y-52010
X194925Y-58510
X196185Y-65010
X196185Y-71510
X196185Y-78010
X196195Y-52010
X196195Y-58510
X198875Y-65010
X198875Y-71510
X198875Y-78010
X198885Y-52010
X198885Y-58510
X200145Y-65010
X200145Y-71510
X200145Y-78010
X200155Y-52010
X200155Y-58510
X201415Y-65010
X201415Y-71510
X201415Y-78010
X201425Y-52010
X201425Y-58510
X202685Y-65010
X202685Y-71510
X202685Y-78010
X202695Y-52010
X202695Y-58510
X205375Y-65010
X205375Y-78010
X205380Y-71510
X205385Y-52010
X205385Y-58510
X206645Y-65010
X206645Y-78010
X206650Y-71510
X206655Y-52010
X206655Y-58510
X207915Y-65010
X207915Y-78010
X207920Y-71510
X207925Y-52010
X207925Y-58510
X209185Y-65010
X209185Y-78010
X209190Y-71510
X209195Y-52010
X209195Y-58510
X211885Y-52010
X211885Y-58510
X211885Y-65010
X211885Y-71510
X211885Y-78010
X212550Y-92775
X212550Y-94775
X213155Y-52010
X213155Y-58510
X213155Y-65010
X213155Y-71510
X213155Y-78010
X214425Y-52010
X214425Y-58510
X214425Y-65010
X214425Y-71510
X214425Y-78010
X214550Y-92775
X214550Y-94775
X215695Y-52010
X215695Y-58510
X215695Y-65010
X215695Y-71510
X215695Y-78010
X218100Y-92700
X218100Y-94700
X218675Y-55300
X218900Y-49300
X218900Y-51300
X220675Y-55300
X222675Y-55300
X224100Y-58900
X224100Y-60900
X224100Y-62900
X224675Y-55300
T4
X223900Y-78500
X223900Y-80500
X223900Y-82500
T5
X221475Y-92960
X224015Y-92960
T6
X216600Y-88900
X219375Y-82300
T7
X220125Y-65750
X220125Y-72250
X224625Y-65750
X224625Y-72250
T8
X223900Y-76400
X223900Y-84600
M30
