M48
; DRILL file {KiCad 8.0.4} date 2024-08-07T18:13:10-0400
; FORMAT={-:-/ absolute / metric / decimal}
; #@! TF.CreationDate,2024-08-07T18:13:10-04:00
; #@! TF.GenerationSoftware,Kicad,Pcbnew,8.0.4
; #@! TF.FileFunction,Plated,1,4,PTH
FMAT,2
METRIC
; #@! TA.AperFunction,Plated,PTH,ViaDrill
T1C0.300
; #@! TA.AperFunction,Plated,PTH,ViaDrill
T2C0.400
; #@! TA.AperFunction,Plated,PTH,ComponentDrill
T3C0.800
; #@! TA.AperFunction,Plated,PTH,ComponentDrill
T4C0.813
; #@! TA.AperFunction,Plated,PTH,ComponentDrill
T5C0.900
; #@! TA.AperFunction,Plated,PTH,ComponentDrill
T6C1.000
; #@! TA.AperFunction,Plated,PTH,ComponentDrill
T7C1.050
; #@! TA.AperFunction,Plated,PTH,ComponentDrill
T8C1.499
%
G90
G05
T1
X178.0Y-87.9
X178.2Y-54.6
X178.6Y-86.9
X180.5Y-59.6
X181.2Y-51.5
X182.825Y-76.45
X183.375Y-58.96
X183.375Y-71.21
X183.625Y-52.21
X183.625Y-64.71
X183.675Y-73.1
X183.775Y-67.2
X184.275Y-76.05
X185.15Y-80.7
X185.9Y-87.0
X186.2Y-53.8
X186.4Y-60.3
X186.7Y-66.8
X186.7Y-73.2
X187.3Y-86.8
X187.5Y-81.6
X187.825Y-93.97
X187.845Y-95.57
X188.662Y-89.908
X188.775Y-90.7
X189.475Y-91.3
X189.6Y-60.3
X189.6Y-66.8
X189.6Y-73.3
X189.625Y-89.06
X189.8Y-53.9
X190.025Y-88.36
X190.163Y-93.037
X190.545Y-87.66
X191.137Y-92.763
X191.762Y-93.3
X191.9Y-87.933
X192.3Y-60.3
X192.6Y-83.8
X193.1Y-73.4
X193.2Y-66.8
X193.3Y-53.7
X194.25Y-90.835
X194.323Y-92.449
X196.0Y-66.8
X196.1Y-60.2
X196.2Y-73.2
X196.3Y-53.8
X196.5Y-86.8
X196.9Y-88.1
X197.068Y-91.389
X197.6Y-48.5
X199.1Y-87.2
X199.474Y-83.11
X199.646Y-92.22
X199.7Y-53.6
X199.7Y-60.3
X199.8Y-66.8
X199.8Y-73.4
X202.2Y-60.3
X202.4Y-86.6
X202.425Y-88.36
X202.5Y-66.7
X202.5Y-73.3
X202.6Y-53.7
X202.6Y-80.0
X203.675Y-82.6
X203.875Y-88.21
X205.525Y-89.66
X206.0Y-60.3
X206.1Y-66.8
X206.2Y-53.6
X206.2Y-73.4
X207.375Y-92.0
X207.6Y-90.2
X207.925Y-83.16
X207.925Y-86.35
X208.085Y-87.46
X209.0Y-60.4
X209.1Y-53.8
X209.1Y-66.9
X209.2Y-73.3
X209.331Y-90.517
X209.4Y-89.6
X210.7Y-48.6
X212.4Y-53.7
X212.7Y-66.8
X212.7Y-73.3
X212.825Y-84.2
X212.9Y-60.2
X215.5Y-66.7
X215.6Y-53.6
X215.6Y-60.2
X215.7Y-73.3
X220.3Y-69.3
X220.3Y-74.2
X220.7Y-53.2
X221.7Y-63.2
X222.7Y-95.2
X223.4Y-68.9
X224.9Y-90.7
T2
X217.8Y-84.3
T3
X180.325Y-49.375
X181.781Y-86.936
X181.781Y-88.936
X182.325Y-49.375
X183.781Y-86.936
X183.781Y-88.936
X184.29Y-92.87
X184.29Y-94.87
X185.875Y-52.01
X185.875Y-58.51
X185.875Y-65.01
X185.875Y-71.51
X185.875Y-78.01
X187.145Y-52.01
X187.145Y-58.51
X187.145Y-65.01
X187.145Y-71.51
X187.145Y-78.01
X188.415Y-52.01
X188.415Y-58.51
X188.415Y-65.01
X188.415Y-71.51
X188.415Y-78.01
X189.685Y-52.01
X189.685Y-58.51
X189.685Y-65.01
X189.685Y-71.51
X189.685Y-78.01
X192.375Y-65.01
X192.375Y-71.51
X192.375Y-78.01
X192.385Y-52.01
X192.385Y-58.51
X193.645Y-65.01
X193.645Y-71.51
X193.645Y-78.01
X193.655Y-52.01
X193.655Y-58.51
X194.915Y-65.01
X194.915Y-71.51
X194.915Y-78.01
X194.925Y-52.01
X194.925Y-58.51
X196.185Y-65.01
X196.185Y-71.51
X196.185Y-78.01
X196.195Y-52.01
X196.195Y-58.51
X198.875Y-65.01
X198.875Y-71.51
X198.875Y-78.01
X198.885Y-52.01
X198.885Y-58.51
X200.145Y-65.01
X200.145Y-71.51
X200.145Y-78.01
X200.155Y-52.01
X200.155Y-58.51
X201.415Y-65.01
X201.415Y-71.51
X201.415Y-78.01
X201.425Y-52.01
X201.425Y-58.51
X202.685Y-65.01
X202.685Y-71.51
X202.685Y-78.01
X202.695Y-52.01
X202.695Y-58.51
X205.375Y-65.01
X205.375Y-78.01
X205.38Y-71.51
X205.385Y-52.01
X205.385Y-58.51
X206.645Y-65.01
X206.645Y-78.01
X206.65Y-71.51
X206.655Y-52.01
X206.655Y-58.51
X207.915Y-65.01
X207.915Y-78.01
X207.92Y-71.51
X207.925Y-52.01
X207.925Y-58.51
X209.185Y-65.01
X209.185Y-78.01
X209.19Y-71.51
X209.195Y-52.01
X209.195Y-58.51
X211.885Y-52.01
X211.885Y-58.51
X211.885Y-65.01
X211.885Y-71.51
X211.885Y-78.01
X212.55Y-92.775
X212.55Y-94.775
X213.155Y-52.01
X213.155Y-58.51
X213.155Y-65.01
X213.155Y-71.51
X213.155Y-78.01
X214.425Y-52.01
X214.425Y-58.51
X214.425Y-65.01
X214.425Y-71.51
X214.425Y-78.01
X214.55Y-92.775
X214.55Y-94.775
X215.695Y-52.01
X215.695Y-58.51
X215.695Y-65.01
X215.695Y-71.51
X215.695Y-78.01
X218.1Y-92.7
X218.1Y-94.7
X218.675Y-55.3
X218.9Y-49.3
X218.9Y-51.3
X220.675Y-55.3
X222.675Y-55.3
X224.1Y-58.9
X224.1Y-60.9
X224.1Y-62.9
X224.675Y-55.3
T4
X223.9Y-78.5
X223.9Y-80.5
X223.9Y-82.5
T5
X221.475Y-92.96
X224.015Y-92.96
T6
X216.6Y-88.9
X219.375Y-82.3
T7
X220.125Y-65.75
X220.125Y-72.25
X224.625Y-65.75
X224.625Y-72.25
T8
X223.9Y-76.4
X223.9Y-84.6
M30
