%TF.GenerationSoftware,KiCad,Pcbnew,8.0.4*%
%TF.CreationDate,2024-08-07T18:13:10-04:00*%
%TF.ProjectId,led_2048,6c65645f-3230-4343-982e-6b696361645f,rev?*%
%TF.SameCoordinates,Original*%
%TF.FileFunction,Legend,Top*%
%TF.FilePolarity,Positive*%
%FSLAX46Y46*%
G04 Gerber Fmt 4.6, Leading zero omitted, Abs format (unit mm)*
G04 Created by KiCad (PCBNEW 8.0.4) date 2024-08-07 18:13:10*
%MOMM*%
%LPD*%
G01*
G04 APERTURE LIST*
%ADD10C,0.150000*%
%ADD11C,0.120000*%
%ADD12C,0.508000*%
%ADD13C,0.152400*%
%ADD14C,0.127000*%
%ADD15C,0.200000*%
%ADD16C,0.350000*%
G04 APERTURE END LIST*
D10*
X216336779Y-94788866D02*
X217098684Y-94788866D01*
X216717731Y-95169819D02*
X216717731Y-94407914D01*
X205595112Y-89345963D02*
X205523684Y-89310249D01*
X205523684Y-89310249D02*
X205416541Y-89310249D01*
X205416541Y-89310249D02*
X205309398Y-89345963D01*
X205309398Y-89345963D02*
X205237969Y-89417392D01*
X205237969Y-89417392D02*
X205202255Y-89488820D01*
X205202255Y-89488820D02*
X205166541Y-89631677D01*
X205166541Y-89631677D02*
X205166541Y-89738820D01*
X205166541Y-89738820D02*
X205202255Y-89881677D01*
X205202255Y-89881677D02*
X205237969Y-89953106D01*
X205237969Y-89953106D02*
X205309398Y-90024535D01*
X205309398Y-90024535D02*
X205416541Y-90060249D01*
X205416541Y-90060249D02*
X205487969Y-90060249D01*
X205487969Y-90060249D02*
X205595112Y-90024535D01*
X205595112Y-90024535D02*
X205630826Y-89988820D01*
X205630826Y-89988820D02*
X205630826Y-89738820D01*
X205630826Y-89738820D02*
X205487969Y-89738820D01*
X205952255Y-90060249D02*
X205952255Y-89310249D01*
X205952255Y-89310249D02*
X206380826Y-90060249D01*
X206380826Y-90060249D02*
X206380826Y-89310249D01*
X206737969Y-90060249D02*
X206737969Y-89310249D01*
X206737969Y-89310249D02*
X206916540Y-89310249D01*
X206916540Y-89310249D02*
X207023683Y-89345963D01*
X207023683Y-89345963D02*
X207095112Y-89417392D01*
X207095112Y-89417392D02*
X207130826Y-89488820D01*
X207130826Y-89488820D02*
X207166540Y-89631677D01*
X207166540Y-89631677D02*
X207166540Y-89738820D01*
X207166540Y-89738820D02*
X207130826Y-89881677D01*
X207130826Y-89881677D02*
X207095112Y-89953106D01*
X207095112Y-89953106D02*
X207023683Y-90024535D01*
X207023683Y-90024535D02*
X206916540Y-90060249D01*
X206916540Y-90060249D02*
X206737969Y-90060249D01*
X207795112Y-89310249D02*
X208045112Y-90060249D01*
X208045112Y-90060249D02*
X208295112Y-89310249D01*
X208545112Y-90060249D02*
X208545112Y-89310249D01*
X208545112Y-89310249D02*
X208723683Y-89310249D01*
X208723683Y-89310249D02*
X208830826Y-89345963D01*
X208830826Y-89345963D02*
X208902255Y-89417392D01*
X208902255Y-89417392D02*
X208937969Y-89488820D01*
X208937969Y-89488820D02*
X208973683Y-89631677D01*
X208973683Y-89631677D02*
X208973683Y-89738820D01*
X208973683Y-89738820D02*
X208937969Y-89881677D01*
X208937969Y-89881677D02*
X208902255Y-89953106D01*
X208902255Y-89953106D02*
X208830826Y-90024535D01*
X208830826Y-90024535D02*
X208723683Y-90060249D01*
X208723683Y-90060249D02*
X208545112Y-90060249D01*
X209295112Y-90060249D02*
X209295112Y-89310249D01*
X209295112Y-89310249D02*
X209473683Y-89310249D01*
X209473683Y-89310249D02*
X209580826Y-89345963D01*
X209580826Y-89345963D02*
X209652255Y-89417392D01*
X209652255Y-89417392D02*
X209687969Y-89488820D01*
X209687969Y-89488820D02*
X209723683Y-89631677D01*
X209723683Y-89631677D02*
X209723683Y-89738820D01*
X209723683Y-89738820D02*
X209687969Y-89881677D01*
X209687969Y-89881677D02*
X209652255Y-89953106D01*
X209652255Y-89953106D02*
X209580826Y-90024535D01*
X209580826Y-90024535D02*
X209473683Y-90060249D01*
X209473683Y-90060249D02*
X209295112Y-90060249D01*
X203130826Y-89988820D02*
X203095112Y-90024535D01*
X203095112Y-90024535D02*
X202987969Y-90060249D01*
X202987969Y-90060249D02*
X202916541Y-90060249D01*
X202916541Y-90060249D02*
X202809398Y-90024535D01*
X202809398Y-90024535D02*
X202737969Y-89953106D01*
X202737969Y-89953106D02*
X202702255Y-89881677D01*
X202702255Y-89881677D02*
X202666541Y-89738820D01*
X202666541Y-89738820D02*
X202666541Y-89631677D01*
X202666541Y-89631677D02*
X202702255Y-89488820D01*
X202702255Y-89488820D02*
X202737969Y-89417392D01*
X202737969Y-89417392D02*
X202809398Y-89345963D01*
X202809398Y-89345963D02*
X202916541Y-89310249D01*
X202916541Y-89310249D02*
X202987969Y-89310249D01*
X202987969Y-89310249D02*
X203095112Y-89345963D01*
X203095112Y-89345963D02*
X203130826Y-89381677D01*
X203809398Y-90060249D02*
X203452255Y-90060249D01*
X203452255Y-90060249D02*
X203452255Y-89310249D01*
X204059398Y-90060249D02*
X204059398Y-89310249D01*
X204487969Y-90060249D02*
X204166541Y-89631677D01*
X204487969Y-89310249D02*
X204059398Y-89738820D01*
X197177255Y-90100414D02*
X197177255Y-89350414D01*
X197177255Y-89350414D02*
X197605826Y-90100414D01*
X197605826Y-90100414D02*
X197605826Y-89350414D01*
X198391540Y-90100414D02*
X198141540Y-89743271D01*
X197962969Y-90100414D02*
X197962969Y-89350414D01*
X197962969Y-89350414D02*
X198248683Y-89350414D01*
X198248683Y-89350414D02*
X198320112Y-89386128D01*
X198320112Y-89386128D02*
X198355826Y-89421842D01*
X198355826Y-89421842D02*
X198391540Y-89493271D01*
X198391540Y-89493271D02*
X198391540Y-89600414D01*
X198391540Y-89600414D02*
X198355826Y-89671842D01*
X198355826Y-89671842D02*
X198320112Y-89707557D01*
X198320112Y-89707557D02*
X198248683Y-89743271D01*
X198248683Y-89743271D02*
X197962969Y-89743271D01*
X198677255Y-90064700D02*
X198784398Y-90100414D01*
X198784398Y-90100414D02*
X198962969Y-90100414D01*
X198962969Y-90100414D02*
X199034398Y-90064700D01*
X199034398Y-90064700D02*
X199070112Y-90028985D01*
X199070112Y-90028985D02*
X199105826Y-89957557D01*
X199105826Y-89957557D02*
X199105826Y-89886128D01*
X199105826Y-89886128D02*
X199070112Y-89814700D01*
X199070112Y-89814700D02*
X199034398Y-89778985D01*
X199034398Y-89778985D02*
X198962969Y-89743271D01*
X198962969Y-89743271D02*
X198820112Y-89707557D01*
X198820112Y-89707557D02*
X198748683Y-89671842D01*
X198748683Y-89671842D02*
X198712969Y-89636128D01*
X198712969Y-89636128D02*
X198677255Y-89564700D01*
X198677255Y-89564700D02*
X198677255Y-89493271D01*
X198677255Y-89493271D02*
X198712969Y-89421842D01*
X198712969Y-89421842D02*
X198748683Y-89386128D01*
X198748683Y-89386128D02*
X198820112Y-89350414D01*
X198820112Y-89350414D02*
X198998683Y-89350414D01*
X198998683Y-89350414D02*
X199105826Y-89386128D01*
X199320112Y-89350414D02*
X199748684Y-89350414D01*
X199534398Y-90100414D02*
X199534398Y-89350414D01*
X197073684Y-89142200D02*
X199745113Y-89142200D01*
X220611779Y-49388866D02*
X221373684Y-49388866D01*
X220992731Y-49769819D02*
X220992731Y-49007914D01*
X200302255Y-90060249D02*
X200302255Y-89310249D01*
X200302255Y-89310249D02*
X200480826Y-89310249D01*
X200480826Y-89310249D02*
X200587969Y-89345963D01*
X200587969Y-89345963D02*
X200659398Y-89417392D01*
X200659398Y-89417392D02*
X200695112Y-89488820D01*
X200695112Y-89488820D02*
X200730826Y-89631677D01*
X200730826Y-89631677D02*
X200730826Y-89738820D01*
X200730826Y-89738820D02*
X200695112Y-89881677D01*
X200695112Y-89881677D02*
X200659398Y-89953106D01*
X200659398Y-89953106D02*
X200587969Y-90024535D01*
X200587969Y-90024535D02*
X200480826Y-90060249D01*
X200480826Y-90060249D02*
X200302255Y-90060249D01*
X201052255Y-90060249D02*
X201052255Y-89310249D01*
X201552255Y-89310249D02*
X201695112Y-89310249D01*
X201695112Y-89310249D02*
X201766541Y-89345963D01*
X201766541Y-89345963D02*
X201837969Y-89417392D01*
X201837969Y-89417392D02*
X201873684Y-89560249D01*
X201873684Y-89560249D02*
X201873684Y-89810249D01*
X201873684Y-89810249D02*
X201837969Y-89953106D01*
X201837969Y-89953106D02*
X201766541Y-90024535D01*
X201766541Y-90024535D02*
X201695112Y-90060249D01*
X201695112Y-90060249D02*
X201552255Y-90060249D01*
X201552255Y-90060249D02*
X201480827Y-90024535D01*
X201480827Y-90024535D02*
X201409398Y-89953106D01*
X201409398Y-89953106D02*
X201373684Y-89810249D01*
X201373684Y-89810249D02*
X201373684Y-89560249D01*
X201373684Y-89560249D02*
X201409398Y-89417392D01*
X201409398Y-89417392D02*
X201480827Y-89345963D01*
X201480827Y-89345963D02*
X201552255Y-89310249D01*
X218270112Y-80346009D02*
X218412969Y-80393628D01*
X218412969Y-80393628D02*
X218460588Y-80441247D01*
X218460588Y-80441247D02*
X218508207Y-80536485D01*
X218508207Y-80536485D02*
X218508207Y-80679342D01*
X218508207Y-80679342D02*
X218460588Y-80774580D01*
X218460588Y-80774580D02*
X218412969Y-80822200D01*
X218412969Y-80822200D02*
X218317731Y-80869819D01*
X218317731Y-80869819D02*
X217936779Y-80869819D01*
X217936779Y-80869819D02*
X217936779Y-79869819D01*
X217936779Y-79869819D02*
X218270112Y-79869819D01*
X218270112Y-79869819D02*
X218365350Y-79917438D01*
X218365350Y-79917438D02*
X218412969Y-79965057D01*
X218412969Y-79965057D02*
X218460588Y-80060295D01*
X218460588Y-80060295D02*
X218460588Y-80155533D01*
X218460588Y-80155533D02*
X218412969Y-80250771D01*
X218412969Y-80250771D02*
X218365350Y-80298390D01*
X218365350Y-80298390D02*
X218270112Y-80346009D01*
X218270112Y-80346009D02*
X217936779Y-80346009D01*
X218889160Y-80584104D02*
X219365350Y-80584104D01*
X218793922Y-80869819D02*
X219127255Y-79869819D01*
X219127255Y-79869819D02*
X219460588Y-80869819D01*
X219651065Y-79869819D02*
X220222493Y-79869819D01*
X219936779Y-80869819D02*
X219936779Y-79869819D01*
X220555827Y-80488866D02*
X221317732Y-80488866D01*
X220936779Y-80869819D02*
X220936779Y-80107914D01*
X225603447Y-80203152D02*
X224841542Y-80488866D01*
X224841542Y-80488866D02*
X225603447Y-80774580D01*
X218170112Y-84246009D02*
X218312969Y-84293628D01*
X218312969Y-84293628D02*
X218360588Y-84341247D01*
X218360588Y-84341247D02*
X218408207Y-84436485D01*
X218408207Y-84436485D02*
X218408207Y-84579342D01*
X218408207Y-84579342D02*
X218360588Y-84674580D01*
X218360588Y-84674580D02*
X218312969Y-84722200D01*
X218312969Y-84722200D02*
X218217731Y-84769819D01*
X218217731Y-84769819D02*
X217836779Y-84769819D01*
X217836779Y-84769819D02*
X217836779Y-83769819D01*
X217836779Y-83769819D02*
X218170112Y-83769819D01*
X218170112Y-83769819D02*
X218265350Y-83817438D01*
X218265350Y-83817438D02*
X218312969Y-83865057D01*
X218312969Y-83865057D02*
X218360588Y-83960295D01*
X218360588Y-83960295D02*
X218360588Y-84055533D01*
X218360588Y-84055533D02*
X218312969Y-84150771D01*
X218312969Y-84150771D02*
X218265350Y-84198390D01*
X218265350Y-84198390D02*
X218170112Y-84246009D01*
X218170112Y-84246009D02*
X217836779Y-84246009D01*
X218789160Y-84484104D02*
X219265350Y-84484104D01*
X218693922Y-84769819D02*
X219027255Y-83769819D01*
X219027255Y-83769819D02*
X219360588Y-84769819D01*
X219551065Y-83769819D02*
X220122493Y-83769819D01*
X219836779Y-84769819D02*
X219836779Y-83769819D01*
X220455827Y-84388866D02*
X221217732Y-84388866D01*
X225503447Y-84103152D02*
X224741542Y-84388866D01*
X224741542Y-84388866D02*
X225503447Y-84674580D01*
X205985714Y-82254819D02*
X205985714Y-81254819D01*
X205985714Y-81254819D02*
X206223809Y-81254819D01*
X206223809Y-81254819D02*
X206366666Y-81302438D01*
X206366666Y-81302438D02*
X206461904Y-81397676D01*
X206461904Y-81397676D02*
X206509523Y-81492914D01*
X206509523Y-81492914D02*
X206557142Y-81683390D01*
X206557142Y-81683390D02*
X206557142Y-81826247D01*
X206557142Y-81826247D02*
X206509523Y-82016723D01*
X206509523Y-82016723D02*
X206461904Y-82111961D01*
X206461904Y-82111961D02*
X206366666Y-82207200D01*
X206366666Y-82207200D02*
X206223809Y-82254819D01*
X206223809Y-82254819D02*
X205985714Y-82254819D01*
X206938095Y-81350057D02*
X206985714Y-81302438D01*
X206985714Y-81302438D02*
X207080952Y-81254819D01*
X207080952Y-81254819D02*
X207319047Y-81254819D01*
X207319047Y-81254819D02*
X207414285Y-81302438D01*
X207414285Y-81302438D02*
X207461904Y-81350057D01*
X207461904Y-81350057D02*
X207509523Y-81445295D01*
X207509523Y-81445295D02*
X207509523Y-81540533D01*
X207509523Y-81540533D02*
X207461904Y-81683390D01*
X207461904Y-81683390D02*
X206890476Y-82254819D01*
X206890476Y-82254819D02*
X207509523Y-82254819D01*
X207842857Y-81254819D02*
X208509523Y-81254819D01*
X208509523Y-81254819D02*
X208080952Y-82254819D01*
X210766666Y-95154819D02*
X210766666Y-95869104D01*
X210766666Y-95869104D02*
X210719047Y-96011961D01*
X210719047Y-96011961D02*
X210623809Y-96107200D01*
X210623809Y-96107200D02*
X210480952Y-96154819D01*
X210480952Y-96154819D02*
X210385714Y-96154819D01*
X211766666Y-96154819D02*
X211195238Y-96154819D01*
X211480952Y-96154819D02*
X211480952Y-95154819D01*
X211480952Y-95154819D02*
X211385714Y-95297676D01*
X211385714Y-95297676D02*
X211290476Y-95392914D01*
X211290476Y-95392914D02*
X211195238Y-95440533D01*
X203032142Y-87854819D02*
X202698809Y-87378628D01*
X202460714Y-87854819D02*
X202460714Y-86854819D01*
X202460714Y-86854819D02*
X202841666Y-86854819D01*
X202841666Y-86854819D02*
X202936904Y-86902438D01*
X202936904Y-86902438D02*
X202984523Y-86950057D01*
X202984523Y-86950057D02*
X203032142Y-87045295D01*
X203032142Y-87045295D02*
X203032142Y-87188152D01*
X203032142Y-87188152D02*
X202984523Y-87283390D01*
X202984523Y-87283390D02*
X202936904Y-87331009D01*
X202936904Y-87331009D02*
X202841666Y-87378628D01*
X202841666Y-87378628D02*
X202460714Y-87378628D01*
X203984523Y-87854819D02*
X203413095Y-87854819D01*
X203698809Y-87854819D02*
X203698809Y-86854819D01*
X203698809Y-86854819D02*
X203603571Y-86997676D01*
X203603571Y-86997676D02*
X203508333Y-87092914D01*
X203508333Y-87092914D02*
X203413095Y-87140533D01*
X204365476Y-86950057D02*
X204413095Y-86902438D01*
X204413095Y-86902438D02*
X204508333Y-86854819D01*
X204508333Y-86854819D02*
X204746428Y-86854819D01*
X204746428Y-86854819D02*
X204841666Y-86902438D01*
X204841666Y-86902438D02*
X204889285Y-86950057D01*
X204889285Y-86950057D02*
X204936904Y-87045295D01*
X204936904Y-87045295D02*
X204936904Y-87140533D01*
X204936904Y-87140533D02*
X204889285Y-87283390D01*
X204889285Y-87283390D02*
X204317857Y-87854819D01*
X204317857Y-87854819D02*
X204936904Y-87854819D01*
X192958333Y-94569415D02*
X192910714Y-94617035D01*
X192910714Y-94617035D02*
X192767857Y-94664654D01*
X192767857Y-94664654D02*
X192672619Y-94664654D01*
X192672619Y-94664654D02*
X192529762Y-94617035D01*
X192529762Y-94617035D02*
X192434524Y-94521796D01*
X192434524Y-94521796D02*
X192386905Y-94426558D01*
X192386905Y-94426558D02*
X192339286Y-94236082D01*
X192339286Y-94236082D02*
X192339286Y-94093225D01*
X192339286Y-94093225D02*
X192386905Y-93902749D01*
X192386905Y-93902749D02*
X192434524Y-93807511D01*
X192434524Y-93807511D02*
X192529762Y-93712273D01*
X192529762Y-93712273D02*
X192672619Y-93664654D01*
X192672619Y-93664654D02*
X192767857Y-93664654D01*
X192767857Y-93664654D02*
X192910714Y-93712273D01*
X192910714Y-93712273D02*
X192958333Y-93759892D01*
X193529762Y-94093225D02*
X193434524Y-94045606D01*
X193434524Y-94045606D02*
X193386905Y-93997987D01*
X193386905Y-93997987D02*
X193339286Y-93902749D01*
X193339286Y-93902749D02*
X193339286Y-93855130D01*
X193339286Y-93855130D02*
X193386905Y-93759892D01*
X193386905Y-93759892D02*
X193434524Y-93712273D01*
X193434524Y-93712273D02*
X193529762Y-93664654D01*
X193529762Y-93664654D02*
X193720238Y-93664654D01*
X193720238Y-93664654D02*
X193815476Y-93712273D01*
X193815476Y-93712273D02*
X193863095Y-93759892D01*
X193863095Y-93759892D02*
X193910714Y-93855130D01*
X193910714Y-93855130D02*
X193910714Y-93902749D01*
X193910714Y-93902749D02*
X193863095Y-93997987D01*
X193863095Y-93997987D02*
X193815476Y-94045606D01*
X193815476Y-94045606D02*
X193720238Y-94093225D01*
X193720238Y-94093225D02*
X193529762Y-94093225D01*
X193529762Y-94093225D02*
X193434524Y-94140844D01*
X193434524Y-94140844D02*
X193386905Y-94188463D01*
X193386905Y-94188463D02*
X193339286Y-94283701D01*
X193339286Y-94283701D02*
X193339286Y-94474177D01*
X193339286Y-94474177D02*
X193386905Y-94569415D01*
X193386905Y-94569415D02*
X193434524Y-94617035D01*
X193434524Y-94617035D02*
X193529762Y-94664654D01*
X193529762Y-94664654D02*
X193720238Y-94664654D01*
X193720238Y-94664654D02*
X193815476Y-94617035D01*
X193815476Y-94617035D02*
X193863095Y-94569415D01*
X193863095Y-94569415D02*
X193910714Y-94474177D01*
X193910714Y-94474177D02*
X193910714Y-94283701D01*
X193910714Y-94283701D02*
X193863095Y-94188463D01*
X193863095Y-94188463D02*
X193815476Y-94140844D01*
X193815476Y-94140844D02*
X193720238Y-94093225D01*
X218054819Y-72714285D02*
X217054819Y-72714285D01*
X217054819Y-72714285D02*
X217054819Y-72476190D01*
X217054819Y-72476190D02*
X217102438Y-72333333D01*
X217102438Y-72333333D02*
X217197676Y-72238095D01*
X217197676Y-72238095D02*
X217292914Y-72190476D01*
X217292914Y-72190476D02*
X217483390Y-72142857D01*
X217483390Y-72142857D02*
X217626247Y-72142857D01*
X217626247Y-72142857D02*
X217816723Y-72190476D01*
X217816723Y-72190476D02*
X217911961Y-72238095D01*
X217911961Y-72238095D02*
X218007200Y-72333333D01*
X218007200Y-72333333D02*
X218054819Y-72476190D01*
X218054819Y-72476190D02*
X218054819Y-72714285D01*
X217150057Y-71761904D02*
X217102438Y-71714285D01*
X217102438Y-71714285D02*
X217054819Y-71619047D01*
X217054819Y-71619047D02*
X217054819Y-71380952D01*
X217054819Y-71380952D02*
X217102438Y-71285714D01*
X217102438Y-71285714D02*
X217150057Y-71238095D01*
X217150057Y-71238095D02*
X217245295Y-71190476D01*
X217245295Y-71190476D02*
X217340533Y-71190476D01*
X217340533Y-71190476D02*
X217483390Y-71238095D01*
X217483390Y-71238095D02*
X218054819Y-71809523D01*
X218054819Y-71809523D02*
X218054819Y-71190476D01*
X217054819Y-70857142D02*
X217054819Y-70238095D01*
X217054819Y-70238095D02*
X217435771Y-70571428D01*
X217435771Y-70571428D02*
X217435771Y-70428571D01*
X217435771Y-70428571D02*
X217483390Y-70333333D01*
X217483390Y-70333333D02*
X217531009Y-70285714D01*
X217531009Y-70285714D02*
X217626247Y-70238095D01*
X217626247Y-70238095D02*
X217864342Y-70238095D01*
X217864342Y-70238095D02*
X217959580Y-70285714D01*
X217959580Y-70285714D02*
X218007200Y-70333333D01*
X218007200Y-70333333D02*
X218054819Y-70428571D01*
X218054819Y-70428571D02*
X218054819Y-70714285D01*
X218054819Y-70714285D02*
X218007200Y-70809523D01*
X218007200Y-70809523D02*
X217959580Y-70857142D01*
X206075714Y-55254819D02*
X206075714Y-54254819D01*
X206075714Y-54254819D02*
X206313809Y-54254819D01*
X206313809Y-54254819D02*
X206456666Y-54302438D01*
X206456666Y-54302438D02*
X206551904Y-54397676D01*
X206551904Y-54397676D02*
X206599523Y-54492914D01*
X206599523Y-54492914D02*
X206647142Y-54683390D01*
X206647142Y-54683390D02*
X206647142Y-54826247D01*
X206647142Y-54826247D02*
X206599523Y-55016723D01*
X206599523Y-55016723D02*
X206551904Y-55111961D01*
X206551904Y-55111961D02*
X206456666Y-55207200D01*
X206456666Y-55207200D02*
X206313809Y-55254819D01*
X206313809Y-55254819D02*
X206075714Y-55254819D01*
X207599523Y-55254819D02*
X207028095Y-55254819D01*
X207313809Y-55254819D02*
X207313809Y-54254819D01*
X207313809Y-54254819D02*
X207218571Y-54397676D01*
X207218571Y-54397676D02*
X207123333Y-54492914D01*
X207123333Y-54492914D02*
X207028095Y-54540533D01*
X207980476Y-54350057D02*
X208028095Y-54302438D01*
X208028095Y-54302438D02*
X208123333Y-54254819D01*
X208123333Y-54254819D02*
X208361428Y-54254819D01*
X208361428Y-54254819D02*
X208456666Y-54302438D01*
X208456666Y-54302438D02*
X208504285Y-54350057D01*
X208504285Y-54350057D02*
X208551904Y-54445295D01*
X208551904Y-54445295D02*
X208551904Y-54540533D01*
X208551904Y-54540533D02*
X208504285Y-54683390D01*
X208504285Y-54683390D02*
X207932857Y-55254819D01*
X207932857Y-55254819D02*
X208551904Y-55254819D01*
X218054819Y-79214285D02*
X217054819Y-79214285D01*
X217054819Y-79214285D02*
X217054819Y-78976190D01*
X217054819Y-78976190D02*
X217102438Y-78833333D01*
X217102438Y-78833333D02*
X217197676Y-78738095D01*
X217197676Y-78738095D02*
X217292914Y-78690476D01*
X217292914Y-78690476D02*
X217483390Y-78642857D01*
X217483390Y-78642857D02*
X217626247Y-78642857D01*
X217626247Y-78642857D02*
X217816723Y-78690476D01*
X217816723Y-78690476D02*
X217911961Y-78738095D01*
X217911961Y-78738095D02*
X218007200Y-78833333D01*
X218007200Y-78833333D02*
X218054819Y-78976190D01*
X218054819Y-78976190D02*
X218054819Y-79214285D01*
X217150057Y-78261904D02*
X217102438Y-78214285D01*
X217102438Y-78214285D02*
X217054819Y-78119047D01*
X217054819Y-78119047D02*
X217054819Y-77880952D01*
X217054819Y-77880952D02*
X217102438Y-77785714D01*
X217102438Y-77785714D02*
X217150057Y-77738095D01*
X217150057Y-77738095D02*
X217245295Y-77690476D01*
X217245295Y-77690476D02*
X217340533Y-77690476D01*
X217340533Y-77690476D02*
X217483390Y-77738095D01*
X217483390Y-77738095D02*
X218054819Y-78309523D01*
X218054819Y-78309523D02*
X218054819Y-77690476D01*
X217483390Y-77119047D02*
X217435771Y-77214285D01*
X217435771Y-77214285D02*
X217388152Y-77261904D01*
X217388152Y-77261904D02*
X217292914Y-77309523D01*
X217292914Y-77309523D02*
X217245295Y-77309523D01*
X217245295Y-77309523D02*
X217150057Y-77261904D01*
X217150057Y-77261904D02*
X217102438Y-77214285D01*
X217102438Y-77214285D02*
X217054819Y-77119047D01*
X217054819Y-77119047D02*
X217054819Y-76928571D01*
X217054819Y-76928571D02*
X217102438Y-76833333D01*
X217102438Y-76833333D02*
X217150057Y-76785714D01*
X217150057Y-76785714D02*
X217245295Y-76738095D01*
X217245295Y-76738095D02*
X217292914Y-76738095D01*
X217292914Y-76738095D02*
X217388152Y-76785714D01*
X217388152Y-76785714D02*
X217435771Y-76833333D01*
X217435771Y-76833333D02*
X217483390Y-76928571D01*
X217483390Y-76928571D02*
X217483390Y-77119047D01*
X217483390Y-77119047D02*
X217531009Y-77214285D01*
X217531009Y-77214285D02*
X217578628Y-77261904D01*
X217578628Y-77261904D02*
X217673866Y-77309523D01*
X217673866Y-77309523D02*
X217864342Y-77309523D01*
X217864342Y-77309523D02*
X217959580Y-77261904D01*
X217959580Y-77261904D02*
X218007200Y-77214285D01*
X218007200Y-77214285D02*
X218054819Y-77119047D01*
X218054819Y-77119047D02*
X218054819Y-76928571D01*
X218054819Y-76928571D02*
X218007200Y-76833333D01*
X218007200Y-76833333D02*
X217959580Y-76785714D01*
X217959580Y-76785714D02*
X217864342Y-76738095D01*
X217864342Y-76738095D02*
X217673866Y-76738095D01*
X217673866Y-76738095D02*
X217578628Y-76785714D01*
X217578628Y-76785714D02*
X217531009Y-76833333D01*
X217531009Y-76833333D02*
X217483390Y-76928571D01*
X225092800Y-85666667D02*
X225045180Y-85809524D01*
X225045180Y-85809524D02*
X225045180Y-86047619D01*
X225045180Y-86047619D02*
X225092800Y-86142857D01*
X225092800Y-86142857D02*
X225140419Y-86190476D01*
X225140419Y-86190476D02*
X225235657Y-86238095D01*
X225235657Y-86238095D02*
X225330895Y-86238095D01*
X225330895Y-86238095D02*
X225426133Y-86190476D01*
X225426133Y-86190476D02*
X225473752Y-86142857D01*
X225473752Y-86142857D02*
X225521371Y-86047619D01*
X225521371Y-86047619D02*
X225568990Y-85857143D01*
X225568990Y-85857143D02*
X225616609Y-85761905D01*
X225616609Y-85761905D02*
X225664228Y-85714286D01*
X225664228Y-85714286D02*
X225759466Y-85666667D01*
X225759466Y-85666667D02*
X225854704Y-85666667D01*
X225854704Y-85666667D02*
X225949942Y-85714286D01*
X225949942Y-85714286D02*
X225997561Y-85761905D01*
X225997561Y-85761905D02*
X226045180Y-85857143D01*
X226045180Y-85857143D02*
X226045180Y-86095238D01*
X226045180Y-86095238D02*
X225997561Y-86238095D01*
X226045180Y-86571429D02*
X225045180Y-86809524D01*
X225045180Y-86809524D02*
X225759466Y-87000000D01*
X225759466Y-87000000D02*
X225045180Y-87190476D01*
X225045180Y-87190476D02*
X226045180Y-87428572D01*
X225045180Y-88333333D02*
X225045180Y-87761905D01*
X225045180Y-88047619D02*
X226045180Y-88047619D01*
X226045180Y-88047619D02*
X225902323Y-87952381D01*
X225902323Y-87952381D02*
X225807085Y-87857143D01*
X225807085Y-87857143D02*
X225759466Y-87761905D01*
X206551905Y-48754819D02*
X206551905Y-47754819D01*
X206551905Y-47754819D02*
X206790000Y-47754819D01*
X206790000Y-47754819D02*
X206932857Y-47802438D01*
X206932857Y-47802438D02*
X207028095Y-47897676D01*
X207028095Y-47897676D02*
X207075714Y-47992914D01*
X207075714Y-47992914D02*
X207123333Y-48183390D01*
X207123333Y-48183390D02*
X207123333Y-48326247D01*
X207123333Y-48326247D02*
X207075714Y-48516723D01*
X207075714Y-48516723D02*
X207028095Y-48611961D01*
X207028095Y-48611961D02*
X206932857Y-48707200D01*
X206932857Y-48707200D02*
X206790000Y-48754819D01*
X206790000Y-48754819D02*
X206551905Y-48754819D01*
X207456667Y-47754819D02*
X208123333Y-47754819D01*
X208123333Y-47754819D02*
X207694762Y-48754819D01*
X185004819Y-66214285D02*
X184004819Y-66214285D01*
X184004819Y-66214285D02*
X184004819Y-65976190D01*
X184004819Y-65976190D02*
X184052438Y-65833333D01*
X184052438Y-65833333D02*
X184147676Y-65738095D01*
X184147676Y-65738095D02*
X184242914Y-65690476D01*
X184242914Y-65690476D02*
X184433390Y-65642857D01*
X184433390Y-65642857D02*
X184576247Y-65642857D01*
X184576247Y-65642857D02*
X184766723Y-65690476D01*
X184766723Y-65690476D02*
X184861961Y-65738095D01*
X184861961Y-65738095D02*
X184957200Y-65833333D01*
X184957200Y-65833333D02*
X185004819Y-65976190D01*
X185004819Y-65976190D02*
X185004819Y-66214285D01*
X185004819Y-64690476D02*
X185004819Y-65261904D01*
X185004819Y-64976190D02*
X184004819Y-64976190D01*
X184004819Y-64976190D02*
X184147676Y-65071428D01*
X184147676Y-65071428D02*
X184242914Y-65166666D01*
X184242914Y-65166666D02*
X184290533Y-65261904D01*
X184338152Y-63833333D02*
X185004819Y-63833333D01*
X183957200Y-64071428D02*
X184671485Y-64309523D01*
X184671485Y-64309523D02*
X184671485Y-63690476D01*
X206070714Y-68254819D02*
X206070714Y-67254819D01*
X206070714Y-67254819D02*
X206308809Y-67254819D01*
X206308809Y-67254819D02*
X206451666Y-67302438D01*
X206451666Y-67302438D02*
X206546904Y-67397676D01*
X206546904Y-67397676D02*
X206594523Y-67492914D01*
X206594523Y-67492914D02*
X206642142Y-67683390D01*
X206642142Y-67683390D02*
X206642142Y-67826247D01*
X206642142Y-67826247D02*
X206594523Y-68016723D01*
X206594523Y-68016723D02*
X206546904Y-68111961D01*
X206546904Y-68111961D02*
X206451666Y-68207200D01*
X206451666Y-68207200D02*
X206308809Y-68254819D01*
X206308809Y-68254819D02*
X206070714Y-68254819D01*
X207023095Y-67350057D02*
X207070714Y-67302438D01*
X207070714Y-67302438D02*
X207165952Y-67254819D01*
X207165952Y-67254819D02*
X207404047Y-67254819D01*
X207404047Y-67254819D02*
X207499285Y-67302438D01*
X207499285Y-67302438D02*
X207546904Y-67350057D01*
X207546904Y-67350057D02*
X207594523Y-67445295D01*
X207594523Y-67445295D02*
X207594523Y-67540533D01*
X207594523Y-67540533D02*
X207546904Y-67683390D01*
X207546904Y-67683390D02*
X206975476Y-68254819D01*
X206975476Y-68254819D02*
X207594523Y-68254819D01*
X207975476Y-67350057D02*
X208023095Y-67302438D01*
X208023095Y-67302438D02*
X208118333Y-67254819D01*
X208118333Y-67254819D02*
X208356428Y-67254819D01*
X208356428Y-67254819D02*
X208451666Y-67302438D01*
X208451666Y-67302438D02*
X208499285Y-67350057D01*
X208499285Y-67350057D02*
X208546904Y-67445295D01*
X208546904Y-67445295D02*
X208546904Y-67540533D01*
X208546904Y-67540533D02*
X208499285Y-67683390D01*
X208499285Y-67683390D02*
X207927857Y-68254819D01*
X207927857Y-68254819D02*
X208546904Y-68254819D01*
X193551905Y-48754819D02*
X193551905Y-47754819D01*
X193551905Y-47754819D02*
X193790000Y-47754819D01*
X193790000Y-47754819D02*
X193932857Y-47802438D01*
X193932857Y-47802438D02*
X194028095Y-47897676D01*
X194028095Y-47897676D02*
X194075714Y-47992914D01*
X194075714Y-47992914D02*
X194123333Y-48183390D01*
X194123333Y-48183390D02*
X194123333Y-48326247D01*
X194123333Y-48326247D02*
X194075714Y-48516723D01*
X194075714Y-48516723D02*
X194028095Y-48611961D01*
X194028095Y-48611961D02*
X193932857Y-48707200D01*
X193932857Y-48707200D02*
X193790000Y-48754819D01*
X193790000Y-48754819D02*
X193551905Y-48754819D01*
X195028095Y-47754819D02*
X194551905Y-47754819D01*
X194551905Y-47754819D02*
X194504286Y-48231009D01*
X194504286Y-48231009D02*
X194551905Y-48183390D01*
X194551905Y-48183390D02*
X194647143Y-48135771D01*
X194647143Y-48135771D02*
X194885238Y-48135771D01*
X194885238Y-48135771D02*
X194980476Y-48183390D01*
X194980476Y-48183390D02*
X195028095Y-48231009D01*
X195028095Y-48231009D02*
X195075714Y-48326247D01*
X195075714Y-48326247D02*
X195075714Y-48564342D01*
X195075714Y-48564342D02*
X195028095Y-48659580D01*
X195028095Y-48659580D02*
X194980476Y-48707200D01*
X194980476Y-48707200D02*
X194885238Y-48754819D01*
X194885238Y-48754819D02*
X194647143Y-48754819D01*
X194647143Y-48754819D02*
X194551905Y-48707200D01*
X194551905Y-48707200D02*
X194504286Y-48659580D01*
X217954819Y-59714285D02*
X216954819Y-59714285D01*
X216954819Y-59714285D02*
X216954819Y-59476190D01*
X216954819Y-59476190D02*
X217002438Y-59333333D01*
X217002438Y-59333333D02*
X217097676Y-59238095D01*
X217097676Y-59238095D02*
X217192914Y-59190476D01*
X217192914Y-59190476D02*
X217383390Y-59142857D01*
X217383390Y-59142857D02*
X217526247Y-59142857D01*
X217526247Y-59142857D02*
X217716723Y-59190476D01*
X217716723Y-59190476D02*
X217811961Y-59238095D01*
X217811961Y-59238095D02*
X217907200Y-59333333D01*
X217907200Y-59333333D02*
X217954819Y-59476190D01*
X217954819Y-59476190D02*
X217954819Y-59714285D01*
X217954819Y-58190476D02*
X217954819Y-58761904D01*
X217954819Y-58476190D02*
X216954819Y-58476190D01*
X216954819Y-58476190D02*
X217097676Y-58571428D01*
X217097676Y-58571428D02*
X217192914Y-58666666D01*
X217192914Y-58666666D02*
X217240533Y-58761904D01*
X216954819Y-57857142D02*
X216954819Y-57238095D01*
X216954819Y-57238095D02*
X217335771Y-57571428D01*
X217335771Y-57571428D02*
X217335771Y-57428571D01*
X217335771Y-57428571D02*
X217383390Y-57333333D01*
X217383390Y-57333333D02*
X217431009Y-57285714D01*
X217431009Y-57285714D02*
X217526247Y-57238095D01*
X217526247Y-57238095D02*
X217764342Y-57238095D01*
X217764342Y-57238095D02*
X217859580Y-57285714D01*
X217859580Y-57285714D02*
X217907200Y-57333333D01*
X217907200Y-57333333D02*
X217954819Y-57428571D01*
X217954819Y-57428571D02*
X217954819Y-57714285D01*
X217954819Y-57714285D02*
X217907200Y-57809523D01*
X217907200Y-57809523D02*
X217859580Y-57857142D01*
X221041667Y-73407200D02*
X221184524Y-73454819D01*
X221184524Y-73454819D02*
X221422619Y-73454819D01*
X221422619Y-73454819D02*
X221517857Y-73407200D01*
X221517857Y-73407200D02*
X221565476Y-73359580D01*
X221565476Y-73359580D02*
X221613095Y-73264342D01*
X221613095Y-73264342D02*
X221613095Y-73169104D01*
X221613095Y-73169104D02*
X221565476Y-73073866D01*
X221565476Y-73073866D02*
X221517857Y-73026247D01*
X221517857Y-73026247D02*
X221422619Y-72978628D01*
X221422619Y-72978628D02*
X221232143Y-72931009D01*
X221232143Y-72931009D02*
X221136905Y-72883390D01*
X221136905Y-72883390D02*
X221089286Y-72835771D01*
X221089286Y-72835771D02*
X221041667Y-72740533D01*
X221041667Y-72740533D02*
X221041667Y-72645295D01*
X221041667Y-72645295D02*
X221089286Y-72550057D01*
X221089286Y-72550057D02*
X221136905Y-72502438D01*
X221136905Y-72502438D02*
X221232143Y-72454819D01*
X221232143Y-72454819D02*
X221470238Y-72454819D01*
X221470238Y-72454819D02*
X221613095Y-72502438D01*
X221946429Y-72454819D02*
X222184524Y-73454819D01*
X222184524Y-73454819D02*
X222375000Y-72740533D01*
X222375000Y-72740533D02*
X222565476Y-73454819D01*
X222565476Y-73454819D02*
X222803572Y-72454819D01*
X223136905Y-72550057D02*
X223184524Y-72502438D01*
X223184524Y-72502438D02*
X223279762Y-72454819D01*
X223279762Y-72454819D02*
X223517857Y-72454819D01*
X223517857Y-72454819D02*
X223613095Y-72502438D01*
X223613095Y-72502438D02*
X223660714Y-72550057D01*
X223660714Y-72550057D02*
X223708333Y-72645295D01*
X223708333Y-72645295D02*
X223708333Y-72740533D01*
X223708333Y-72740533D02*
X223660714Y-72883390D01*
X223660714Y-72883390D02*
X223089286Y-73454819D01*
X223089286Y-73454819D02*
X223708333Y-73454819D01*
X212566666Y-86554819D02*
X212566666Y-87269104D01*
X212566666Y-87269104D02*
X212519047Y-87411961D01*
X212519047Y-87411961D02*
X212423809Y-87507200D01*
X212423809Y-87507200D02*
X212280952Y-87554819D01*
X212280952Y-87554819D02*
X212185714Y-87554819D01*
X213042857Y-87554819D02*
X213042857Y-86554819D01*
X213042857Y-86554819D02*
X213423809Y-86554819D01*
X213423809Y-86554819D02*
X213519047Y-86602438D01*
X213519047Y-86602438D02*
X213566666Y-86650057D01*
X213566666Y-86650057D02*
X213614285Y-86745295D01*
X213614285Y-86745295D02*
X213614285Y-86888152D01*
X213614285Y-86888152D02*
X213566666Y-86983390D01*
X213566666Y-86983390D02*
X213519047Y-87031009D01*
X213519047Y-87031009D02*
X213423809Y-87078628D01*
X213423809Y-87078628D02*
X213042857Y-87078628D01*
X214566666Y-87554819D02*
X213995238Y-87554819D01*
X214280952Y-87554819D02*
X214280952Y-86554819D01*
X214280952Y-86554819D02*
X214185714Y-86697676D01*
X214185714Y-86697676D02*
X214090476Y-86792914D01*
X214090476Y-86792914D02*
X213995238Y-86840533D01*
X193075714Y-55254819D02*
X193075714Y-54254819D01*
X193075714Y-54254819D02*
X193313809Y-54254819D01*
X193313809Y-54254819D02*
X193456666Y-54302438D01*
X193456666Y-54302438D02*
X193551904Y-54397676D01*
X193551904Y-54397676D02*
X193599523Y-54492914D01*
X193599523Y-54492914D02*
X193647142Y-54683390D01*
X193647142Y-54683390D02*
X193647142Y-54826247D01*
X193647142Y-54826247D02*
X193599523Y-55016723D01*
X193599523Y-55016723D02*
X193551904Y-55111961D01*
X193551904Y-55111961D02*
X193456666Y-55207200D01*
X193456666Y-55207200D02*
X193313809Y-55254819D01*
X193313809Y-55254819D02*
X193075714Y-55254819D01*
X194599523Y-55254819D02*
X194028095Y-55254819D01*
X194313809Y-55254819D02*
X194313809Y-54254819D01*
X194313809Y-54254819D02*
X194218571Y-54397676D01*
X194218571Y-54397676D02*
X194123333Y-54492914D01*
X194123333Y-54492914D02*
X194028095Y-54540533D01*
X195218571Y-54254819D02*
X195313809Y-54254819D01*
X195313809Y-54254819D02*
X195409047Y-54302438D01*
X195409047Y-54302438D02*
X195456666Y-54350057D01*
X195456666Y-54350057D02*
X195504285Y-54445295D01*
X195504285Y-54445295D02*
X195551904Y-54635771D01*
X195551904Y-54635771D02*
X195551904Y-54873866D01*
X195551904Y-54873866D02*
X195504285Y-55064342D01*
X195504285Y-55064342D02*
X195456666Y-55159580D01*
X195456666Y-55159580D02*
X195409047Y-55207200D01*
X195409047Y-55207200D02*
X195313809Y-55254819D01*
X195313809Y-55254819D02*
X195218571Y-55254819D01*
X195218571Y-55254819D02*
X195123333Y-55207200D01*
X195123333Y-55207200D02*
X195075714Y-55159580D01*
X195075714Y-55159580D02*
X195028095Y-55064342D01*
X195028095Y-55064342D02*
X194980476Y-54873866D01*
X194980476Y-54873866D02*
X194980476Y-54635771D01*
X194980476Y-54635771D02*
X195028095Y-54445295D01*
X195028095Y-54445295D02*
X195075714Y-54350057D01*
X195075714Y-54350057D02*
X195123333Y-54302438D01*
X195123333Y-54302438D02*
X195218571Y-54254819D01*
X217854819Y-52738094D02*
X216854819Y-52738094D01*
X216854819Y-52738094D02*
X216854819Y-52499999D01*
X216854819Y-52499999D02*
X216902438Y-52357142D01*
X216902438Y-52357142D02*
X216997676Y-52261904D01*
X216997676Y-52261904D02*
X217092914Y-52214285D01*
X217092914Y-52214285D02*
X217283390Y-52166666D01*
X217283390Y-52166666D02*
X217426247Y-52166666D01*
X217426247Y-52166666D02*
X217616723Y-52214285D01*
X217616723Y-52214285D02*
X217711961Y-52261904D01*
X217711961Y-52261904D02*
X217807200Y-52357142D01*
X217807200Y-52357142D02*
X217854819Y-52499999D01*
X217854819Y-52499999D02*
X217854819Y-52738094D01*
X217283390Y-51595237D02*
X217235771Y-51690475D01*
X217235771Y-51690475D02*
X217188152Y-51738094D01*
X217188152Y-51738094D02*
X217092914Y-51785713D01*
X217092914Y-51785713D02*
X217045295Y-51785713D01*
X217045295Y-51785713D02*
X216950057Y-51738094D01*
X216950057Y-51738094D02*
X216902438Y-51690475D01*
X216902438Y-51690475D02*
X216854819Y-51595237D01*
X216854819Y-51595237D02*
X216854819Y-51404761D01*
X216854819Y-51404761D02*
X216902438Y-51309523D01*
X216902438Y-51309523D02*
X216950057Y-51261904D01*
X216950057Y-51261904D02*
X217045295Y-51214285D01*
X217045295Y-51214285D02*
X217092914Y-51214285D01*
X217092914Y-51214285D02*
X217188152Y-51261904D01*
X217188152Y-51261904D02*
X217235771Y-51309523D01*
X217235771Y-51309523D02*
X217283390Y-51404761D01*
X217283390Y-51404761D02*
X217283390Y-51595237D01*
X217283390Y-51595237D02*
X217331009Y-51690475D01*
X217331009Y-51690475D02*
X217378628Y-51738094D01*
X217378628Y-51738094D02*
X217473866Y-51785713D01*
X217473866Y-51785713D02*
X217664342Y-51785713D01*
X217664342Y-51785713D02*
X217759580Y-51738094D01*
X217759580Y-51738094D02*
X217807200Y-51690475D01*
X217807200Y-51690475D02*
X217854819Y-51595237D01*
X217854819Y-51595237D02*
X217854819Y-51404761D01*
X217854819Y-51404761D02*
X217807200Y-51309523D01*
X217807200Y-51309523D02*
X217759580Y-51261904D01*
X217759580Y-51261904D02*
X217664342Y-51214285D01*
X217664342Y-51214285D02*
X217473866Y-51214285D01*
X217473866Y-51214285D02*
X217378628Y-51261904D01*
X217378628Y-51261904D02*
X217331009Y-51309523D01*
X217331009Y-51309523D02*
X217283390Y-51404761D01*
X185004819Y-52738094D02*
X184004819Y-52738094D01*
X184004819Y-52738094D02*
X184004819Y-52499999D01*
X184004819Y-52499999D02*
X184052438Y-52357142D01*
X184052438Y-52357142D02*
X184147676Y-52261904D01*
X184147676Y-52261904D02*
X184242914Y-52214285D01*
X184242914Y-52214285D02*
X184433390Y-52166666D01*
X184433390Y-52166666D02*
X184576247Y-52166666D01*
X184576247Y-52166666D02*
X184766723Y-52214285D01*
X184766723Y-52214285D02*
X184861961Y-52261904D01*
X184861961Y-52261904D02*
X184957200Y-52357142D01*
X184957200Y-52357142D02*
X185004819Y-52499999D01*
X185004819Y-52499999D02*
X185004819Y-52738094D01*
X184338152Y-51309523D02*
X185004819Y-51309523D01*
X183957200Y-51547618D02*
X184671485Y-51785713D01*
X184671485Y-51785713D02*
X184671485Y-51166666D01*
X199485714Y-82254819D02*
X199485714Y-81254819D01*
X199485714Y-81254819D02*
X199723809Y-81254819D01*
X199723809Y-81254819D02*
X199866666Y-81302438D01*
X199866666Y-81302438D02*
X199961904Y-81397676D01*
X199961904Y-81397676D02*
X200009523Y-81492914D01*
X200009523Y-81492914D02*
X200057142Y-81683390D01*
X200057142Y-81683390D02*
X200057142Y-81826247D01*
X200057142Y-81826247D02*
X200009523Y-82016723D01*
X200009523Y-82016723D02*
X199961904Y-82111961D01*
X199961904Y-82111961D02*
X199866666Y-82207200D01*
X199866666Y-82207200D02*
X199723809Y-82254819D01*
X199723809Y-82254819D02*
X199485714Y-82254819D01*
X200438095Y-81350057D02*
X200485714Y-81302438D01*
X200485714Y-81302438D02*
X200580952Y-81254819D01*
X200580952Y-81254819D02*
X200819047Y-81254819D01*
X200819047Y-81254819D02*
X200914285Y-81302438D01*
X200914285Y-81302438D02*
X200961904Y-81350057D01*
X200961904Y-81350057D02*
X201009523Y-81445295D01*
X201009523Y-81445295D02*
X201009523Y-81540533D01*
X201009523Y-81540533D02*
X200961904Y-81683390D01*
X200961904Y-81683390D02*
X200390476Y-82254819D01*
X200390476Y-82254819D02*
X201009523Y-82254819D01*
X201866666Y-81254819D02*
X201676190Y-81254819D01*
X201676190Y-81254819D02*
X201580952Y-81302438D01*
X201580952Y-81302438D02*
X201533333Y-81350057D01*
X201533333Y-81350057D02*
X201438095Y-81492914D01*
X201438095Y-81492914D02*
X201390476Y-81683390D01*
X201390476Y-81683390D02*
X201390476Y-82064342D01*
X201390476Y-82064342D02*
X201438095Y-82159580D01*
X201438095Y-82159580D02*
X201485714Y-82207200D01*
X201485714Y-82207200D02*
X201580952Y-82254819D01*
X201580952Y-82254819D02*
X201771428Y-82254819D01*
X201771428Y-82254819D02*
X201866666Y-82207200D01*
X201866666Y-82207200D02*
X201914285Y-82159580D01*
X201914285Y-82159580D02*
X201961904Y-82064342D01*
X201961904Y-82064342D02*
X201961904Y-81826247D01*
X201961904Y-81826247D02*
X201914285Y-81731009D01*
X201914285Y-81731009D02*
X201866666Y-81683390D01*
X201866666Y-81683390D02*
X201771428Y-81635771D01*
X201771428Y-81635771D02*
X201580952Y-81635771D01*
X201580952Y-81635771D02*
X201485714Y-81683390D01*
X201485714Y-81683390D02*
X201438095Y-81731009D01*
X201438095Y-81731009D02*
X201390476Y-81826247D01*
X200051905Y-48754819D02*
X200051905Y-47754819D01*
X200051905Y-47754819D02*
X200290000Y-47754819D01*
X200290000Y-47754819D02*
X200432857Y-47802438D01*
X200432857Y-47802438D02*
X200528095Y-47897676D01*
X200528095Y-47897676D02*
X200575714Y-47992914D01*
X200575714Y-47992914D02*
X200623333Y-48183390D01*
X200623333Y-48183390D02*
X200623333Y-48326247D01*
X200623333Y-48326247D02*
X200575714Y-48516723D01*
X200575714Y-48516723D02*
X200528095Y-48611961D01*
X200528095Y-48611961D02*
X200432857Y-48707200D01*
X200432857Y-48707200D02*
X200290000Y-48754819D01*
X200290000Y-48754819D02*
X200051905Y-48754819D01*
X201480476Y-47754819D02*
X201290000Y-47754819D01*
X201290000Y-47754819D02*
X201194762Y-47802438D01*
X201194762Y-47802438D02*
X201147143Y-47850057D01*
X201147143Y-47850057D02*
X201051905Y-47992914D01*
X201051905Y-47992914D02*
X201004286Y-48183390D01*
X201004286Y-48183390D02*
X201004286Y-48564342D01*
X201004286Y-48564342D02*
X201051905Y-48659580D01*
X201051905Y-48659580D02*
X201099524Y-48707200D01*
X201099524Y-48707200D02*
X201194762Y-48754819D01*
X201194762Y-48754819D02*
X201385238Y-48754819D01*
X201385238Y-48754819D02*
X201480476Y-48707200D01*
X201480476Y-48707200D02*
X201528095Y-48659580D01*
X201528095Y-48659580D02*
X201575714Y-48564342D01*
X201575714Y-48564342D02*
X201575714Y-48326247D01*
X201575714Y-48326247D02*
X201528095Y-48231009D01*
X201528095Y-48231009D02*
X201480476Y-48183390D01*
X201480476Y-48183390D02*
X201385238Y-48135771D01*
X201385238Y-48135771D02*
X201194762Y-48135771D01*
X201194762Y-48135771D02*
X201099524Y-48183390D01*
X201099524Y-48183390D02*
X201051905Y-48231009D01*
X201051905Y-48231009D02*
X201004286Y-48326247D01*
X221510714Y-89654819D02*
X221510714Y-88654819D01*
X221510714Y-88654819D02*
X221748809Y-88654819D01*
X221748809Y-88654819D02*
X221891666Y-88702438D01*
X221891666Y-88702438D02*
X221986904Y-88797676D01*
X221986904Y-88797676D02*
X222034523Y-88892914D01*
X222034523Y-88892914D02*
X222082142Y-89083390D01*
X222082142Y-89083390D02*
X222082142Y-89226247D01*
X222082142Y-89226247D02*
X222034523Y-89416723D01*
X222034523Y-89416723D02*
X221986904Y-89511961D01*
X221986904Y-89511961D02*
X221891666Y-89607200D01*
X221891666Y-89607200D02*
X221748809Y-89654819D01*
X221748809Y-89654819D02*
X221510714Y-89654819D01*
X222463095Y-88750057D02*
X222510714Y-88702438D01*
X222510714Y-88702438D02*
X222605952Y-88654819D01*
X222605952Y-88654819D02*
X222844047Y-88654819D01*
X222844047Y-88654819D02*
X222939285Y-88702438D01*
X222939285Y-88702438D02*
X222986904Y-88750057D01*
X222986904Y-88750057D02*
X223034523Y-88845295D01*
X223034523Y-88845295D02*
X223034523Y-88940533D01*
X223034523Y-88940533D02*
X222986904Y-89083390D01*
X222986904Y-89083390D02*
X222415476Y-89654819D01*
X222415476Y-89654819D02*
X223034523Y-89654819D01*
X223510714Y-89654819D02*
X223701190Y-89654819D01*
X223701190Y-89654819D02*
X223796428Y-89607200D01*
X223796428Y-89607200D02*
X223844047Y-89559580D01*
X223844047Y-89559580D02*
X223939285Y-89416723D01*
X223939285Y-89416723D02*
X223986904Y-89226247D01*
X223986904Y-89226247D02*
X223986904Y-88845295D01*
X223986904Y-88845295D02*
X223939285Y-88750057D01*
X223939285Y-88750057D02*
X223891666Y-88702438D01*
X223891666Y-88702438D02*
X223796428Y-88654819D01*
X223796428Y-88654819D02*
X223605952Y-88654819D01*
X223605952Y-88654819D02*
X223510714Y-88702438D01*
X223510714Y-88702438D02*
X223463095Y-88750057D01*
X223463095Y-88750057D02*
X223415476Y-88845295D01*
X223415476Y-88845295D02*
X223415476Y-89083390D01*
X223415476Y-89083390D02*
X223463095Y-89178628D01*
X223463095Y-89178628D02*
X223510714Y-89226247D01*
X223510714Y-89226247D02*
X223605952Y-89273866D01*
X223605952Y-89273866D02*
X223796428Y-89273866D01*
X223796428Y-89273866D02*
X223891666Y-89226247D01*
X223891666Y-89226247D02*
X223939285Y-89178628D01*
X223939285Y-89178628D02*
X223986904Y-89083390D01*
X179338095Y-91454819D02*
X179338095Y-90454819D01*
X179338095Y-90931009D02*
X179909523Y-90931009D01*
X179909523Y-91454819D02*
X179909523Y-90454819D01*
X180909523Y-91454819D02*
X180338095Y-91454819D01*
X180623809Y-91454819D02*
X180623809Y-90454819D01*
X180623809Y-90454819D02*
X180528571Y-90597676D01*
X180528571Y-90597676D02*
X180433333Y-90692914D01*
X180433333Y-90692914D02*
X180338095Y-90740533D01*
X215338095Y-86354819D02*
X215909523Y-86354819D01*
X215623809Y-87354819D02*
X215623809Y-86354819D01*
X216242857Y-87354819D02*
X216242857Y-86354819D01*
X216242857Y-86354819D02*
X216623809Y-86354819D01*
X216623809Y-86354819D02*
X216719047Y-86402438D01*
X216719047Y-86402438D02*
X216766666Y-86450057D01*
X216766666Y-86450057D02*
X216814285Y-86545295D01*
X216814285Y-86545295D02*
X216814285Y-86688152D01*
X216814285Y-86688152D02*
X216766666Y-86783390D01*
X216766666Y-86783390D02*
X216719047Y-86831009D01*
X216719047Y-86831009D02*
X216623809Y-86878628D01*
X216623809Y-86878628D02*
X216242857Y-86878628D01*
X217195238Y-86450057D02*
X217242857Y-86402438D01*
X217242857Y-86402438D02*
X217338095Y-86354819D01*
X217338095Y-86354819D02*
X217576190Y-86354819D01*
X217576190Y-86354819D02*
X217671428Y-86402438D01*
X217671428Y-86402438D02*
X217719047Y-86450057D01*
X217719047Y-86450057D02*
X217766666Y-86545295D01*
X217766666Y-86545295D02*
X217766666Y-86640533D01*
X217766666Y-86640533D02*
X217719047Y-86783390D01*
X217719047Y-86783390D02*
X217147619Y-87354819D01*
X217147619Y-87354819D02*
X217766666Y-87354819D01*
X179554819Y-78338094D02*
X178554819Y-78338094D01*
X178554819Y-78338094D02*
X178554819Y-78099999D01*
X178554819Y-78099999D02*
X178602438Y-77957142D01*
X178602438Y-77957142D02*
X178697676Y-77861904D01*
X178697676Y-77861904D02*
X178792914Y-77814285D01*
X178792914Y-77814285D02*
X178983390Y-77766666D01*
X178983390Y-77766666D02*
X179126247Y-77766666D01*
X179126247Y-77766666D02*
X179316723Y-77814285D01*
X179316723Y-77814285D02*
X179411961Y-77861904D01*
X179411961Y-77861904D02*
X179507200Y-77957142D01*
X179507200Y-77957142D02*
X179554819Y-78099999D01*
X179554819Y-78099999D02*
X179554819Y-78338094D01*
X178650057Y-77385713D02*
X178602438Y-77338094D01*
X178602438Y-77338094D02*
X178554819Y-77242856D01*
X178554819Y-77242856D02*
X178554819Y-77004761D01*
X178554819Y-77004761D02*
X178602438Y-76909523D01*
X178602438Y-76909523D02*
X178650057Y-76861904D01*
X178650057Y-76861904D02*
X178745295Y-76814285D01*
X178745295Y-76814285D02*
X178840533Y-76814285D01*
X178840533Y-76814285D02*
X178983390Y-76861904D01*
X178983390Y-76861904D02*
X179554819Y-77433332D01*
X179554819Y-77433332D02*
X179554819Y-76814285D01*
X192985714Y-82254819D02*
X192985714Y-81254819D01*
X192985714Y-81254819D02*
X193223809Y-81254819D01*
X193223809Y-81254819D02*
X193366666Y-81302438D01*
X193366666Y-81302438D02*
X193461904Y-81397676D01*
X193461904Y-81397676D02*
X193509523Y-81492914D01*
X193509523Y-81492914D02*
X193557142Y-81683390D01*
X193557142Y-81683390D02*
X193557142Y-81826247D01*
X193557142Y-81826247D02*
X193509523Y-82016723D01*
X193509523Y-82016723D02*
X193461904Y-82111961D01*
X193461904Y-82111961D02*
X193366666Y-82207200D01*
X193366666Y-82207200D02*
X193223809Y-82254819D01*
X193223809Y-82254819D02*
X192985714Y-82254819D01*
X193938095Y-81350057D02*
X193985714Y-81302438D01*
X193985714Y-81302438D02*
X194080952Y-81254819D01*
X194080952Y-81254819D02*
X194319047Y-81254819D01*
X194319047Y-81254819D02*
X194414285Y-81302438D01*
X194414285Y-81302438D02*
X194461904Y-81350057D01*
X194461904Y-81350057D02*
X194509523Y-81445295D01*
X194509523Y-81445295D02*
X194509523Y-81540533D01*
X194509523Y-81540533D02*
X194461904Y-81683390D01*
X194461904Y-81683390D02*
X193890476Y-82254819D01*
X193890476Y-82254819D02*
X194509523Y-82254819D01*
X195414285Y-81254819D02*
X194938095Y-81254819D01*
X194938095Y-81254819D02*
X194890476Y-81731009D01*
X194890476Y-81731009D02*
X194938095Y-81683390D01*
X194938095Y-81683390D02*
X195033333Y-81635771D01*
X195033333Y-81635771D02*
X195271428Y-81635771D01*
X195271428Y-81635771D02*
X195366666Y-81683390D01*
X195366666Y-81683390D02*
X195414285Y-81731009D01*
X195414285Y-81731009D02*
X195461904Y-81826247D01*
X195461904Y-81826247D02*
X195461904Y-82064342D01*
X195461904Y-82064342D02*
X195414285Y-82159580D01*
X195414285Y-82159580D02*
X195366666Y-82207200D01*
X195366666Y-82207200D02*
X195271428Y-82254819D01*
X195271428Y-82254819D02*
X195033333Y-82254819D01*
X195033333Y-82254819D02*
X194938095Y-82207200D01*
X194938095Y-82207200D02*
X194890476Y-82159580D01*
X191959580Y-87566666D02*
X192007200Y-87614285D01*
X192007200Y-87614285D02*
X192054819Y-87757142D01*
X192054819Y-87757142D02*
X192054819Y-87852380D01*
X192054819Y-87852380D02*
X192007200Y-87995237D01*
X192007200Y-87995237D02*
X191911961Y-88090475D01*
X191911961Y-88090475D02*
X191816723Y-88138094D01*
X191816723Y-88138094D02*
X191626247Y-88185713D01*
X191626247Y-88185713D02*
X191483390Y-88185713D01*
X191483390Y-88185713D02*
X191292914Y-88138094D01*
X191292914Y-88138094D02*
X191197676Y-88090475D01*
X191197676Y-88090475D02*
X191102438Y-87995237D01*
X191102438Y-87995237D02*
X191054819Y-87852380D01*
X191054819Y-87852380D02*
X191054819Y-87757142D01*
X191054819Y-87757142D02*
X191102438Y-87614285D01*
X191102438Y-87614285D02*
X191150057Y-87566666D01*
X191054819Y-86709523D02*
X191054819Y-86899999D01*
X191054819Y-86899999D02*
X191102438Y-86995237D01*
X191102438Y-86995237D02*
X191150057Y-87042856D01*
X191150057Y-87042856D02*
X191292914Y-87138094D01*
X191292914Y-87138094D02*
X191483390Y-87185713D01*
X191483390Y-87185713D02*
X191864342Y-87185713D01*
X191864342Y-87185713D02*
X191959580Y-87138094D01*
X191959580Y-87138094D02*
X192007200Y-87090475D01*
X192007200Y-87090475D02*
X192054819Y-86995237D01*
X192054819Y-86995237D02*
X192054819Y-86804761D01*
X192054819Y-86804761D02*
X192007200Y-86709523D01*
X192007200Y-86709523D02*
X191959580Y-86661904D01*
X191959580Y-86661904D02*
X191864342Y-86614285D01*
X191864342Y-86614285D02*
X191626247Y-86614285D01*
X191626247Y-86614285D02*
X191531009Y-86661904D01*
X191531009Y-86661904D02*
X191483390Y-86709523D01*
X191483390Y-86709523D02*
X191435771Y-86804761D01*
X191435771Y-86804761D02*
X191435771Y-86995237D01*
X191435771Y-86995237D02*
X191483390Y-87090475D01*
X191483390Y-87090475D02*
X191531009Y-87138094D01*
X191531009Y-87138094D02*
X191626247Y-87185713D01*
X195458333Y-94569415D02*
X195410714Y-94617035D01*
X195410714Y-94617035D02*
X195267857Y-94664654D01*
X195267857Y-94664654D02*
X195172619Y-94664654D01*
X195172619Y-94664654D02*
X195029762Y-94617035D01*
X195029762Y-94617035D02*
X194934524Y-94521796D01*
X194934524Y-94521796D02*
X194886905Y-94426558D01*
X194886905Y-94426558D02*
X194839286Y-94236082D01*
X194839286Y-94236082D02*
X194839286Y-94093225D01*
X194839286Y-94093225D02*
X194886905Y-93902749D01*
X194886905Y-93902749D02*
X194934524Y-93807511D01*
X194934524Y-93807511D02*
X195029762Y-93712273D01*
X195029762Y-93712273D02*
X195172619Y-93664654D01*
X195172619Y-93664654D02*
X195267857Y-93664654D01*
X195267857Y-93664654D02*
X195410714Y-93712273D01*
X195410714Y-93712273D02*
X195458333Y-93759892D01*
X195791667Y-93664654D02*
X196458333Y-93664654D01*
X196458333Y-93664654D02*
X196029762Y-94664654D01*
X193065714Y-68254819D02*
X193065714Y-67254819D01*
X193065714Y-67254819D02*
X193303809Y-67254819D01*
X193303809Y-67254819D02*
X193446666Y-67302438D01*
X193446666Y-67302438D02*
X193541904Y-67397676D01*
X193541904Y-67397676D02*
X193589523Y-67492914D01*
X193589523Y-67492914D02*
X193637142Y-67683390D01*
X193637142Y-67683390D02*
X193637142Y-67826247D01*
X193637142Y-67826247D02*
X193589523Y-68016723D01*
X193589523Y-68016723D02*
X193541904Y-68111961D01*
X193541904Y-68111961D02*
X193446666Y-68207200D01*
X193446666Y-68207200D02*
X193303809Y-68254819D01*
X193303809Y-68254819D02*
X193065714Y-68254819D01*
X194018095Y-67350057D02*
X194065714Y-67302438D01*
X194065714Y-67302438D02*
X194160952Y-67254819D01*
X194160952Y-67254819D02*
X194399047Y-67254819D01*
X194399047Y-67254819D02*
X194494285Y-67302438D01*
X194494285Y-67302438D02*
X194541904Y-67350057D01*
X194541904Y-67350057D02*
X194589523Y-67445295D01*
X194589523Y-67445295D02*
X194589523Y-67540533D01*
X194589523Y-67540533D02*
X194541904Y-67683390D01*
X194541904Y-67683390D02*
X193970476Y-68254819D01*
X193970476Y-68254819D02*
X194589523Y-68254819D01*
X195208571Y-67254819D02*
X195303809Y-67254819D01*
X195303809Y-67254819D02*
X195399047Y-67302438D01*
X195399047Y-67302438D02*
X195446666Y-67350057D01*
X195446666Y-67350057D02*
X195494285Y-67445295D01*
X195494285Y-67445295D02*
X195541904Y-67635771D01*
X195541904Y-67635771D02*
X195541904Y-67873866D01*
X195541904Y-67873866D02*
X195494285Y-68064342D01*
X195494285Y-68064342D02*
X195446666Y-68159580D01*
X195446666Y-68159580D02*
X195399047Y-68207200D01*
X195399047Y-68207200D02*
X195303809Y-68254819D01*
X195303809Y-68254819D02*
X195208571Y-68254819D01*
X195208571Y-68254819D02*
X195113333Y-68207200D01*
X195113333Y-68207200D02*
X195065714Y-68159580D01*
X195065714Y-68159580D02*
X195018095Y-68064342D01*
X195018095Y-68064342D02*
X194970476Y-67873866D01*
X194970476Y-67873866D02*
X194970476Y-67635771D01*
X194970476Y-67635771D02*
X195018095Y-67445295D01*
X195018095Y-67445295D02*
X195065714Y-67350057D01*
X195065714Y-67350057D02*
X195113333Y-67302438D01*
X195113333Y-67302438D02*
X195208571Y-67254819D01*
X221654819Y-61809523D02*
X222369104Y-61809523D01*
X222369104Y-61809523D02*
X222511961Y-61857142D01*
X222511961Y-61857142D02*
X222607200Y-61952380D01*
X222607200Y-61952380D02*
X222654819Y-62095237D01*
X222654819Y-62095237D02*
X222654819Y-62190475D01*
X222654819Y-60809523D02*
X222654819Y-61380951D01*
X222654819Y-61095237D02*
X221654819Y-61095237D01*
X221654819Y-61095237D02*
X221797676Y-61190475D01*
X221797676Y-61190475D02*
X221892914Y-61285713D01*
X221892914Y-61285713D02*
X221940533Y-61380951D01*
X221750057Y-60428570D02*
X221702438Y-60380951D01*
X221702438Y-60380951D02*
X221654819Y-60285713D01*
X221654819Y-60285713D02*
X221654819Y-60047618D01*
X221654819Y-60047618D02*
X221702438Y-59952380D01*
X221702438Y-59952380D02*
X221750057Y-59904761D01*
X221750057Y-59904761D02*
X221845295Y-59857142D01*
X221845295Y-59857142D02*
X221940533Y-59857142D01*
X221940533Y-59857142D02*
X222083390Y-59904761D01*
X222083390Y-59904761D02*
X222654819Y-60476189D01*
X222654819Y-60476189D02*
X222654819Y-59857142D01*
X182854819Y-67991666D02*
X182378628Y-68324999D01*
X182854819Y-68563094D02*
X181854819Y-68563094D01*
X181854819Y-68563094D02*
X181854819Y-68182142D01*
X181854819Y-68182142D02*
X181902438Y-68086904D01*
X181902438Y-68086904D02*
X181950057Y-68039285D01*
X181950057Y-68039285D02*
X182045295Y-67991666D01*
X182045295Y-67991666D02*
X182188152Y-67991666D01*
X182188152Y-67991666D02*
X182283390Y-68039285D01*
X182283390Y-68039285D02*
X182331009Y-68086904D01*
X182331009Y-68086904D02*
X182378628Y-68182142D01*
X182378628Y-68182142D02*
X182378628Y-68563094D01*
X182854819Y-67039285D02*
X182854819Y-67610713D01*
X182854819Y-67324999D02*
X181854819Y-67324999D01*
X181854819Y-67324999D02*
X181997676Y-67420237D01*
X181997676Y-67420237D02*
X182092914Y-67515475D01*
X182092914Y-67515475D02*
X182140533Y-67610713D01*
X191959580Y-85366666D02*
X192007200Y-85414285D01*
X192007200Y-85414285D02*
X192054819Y-85557142D01*
X192054819Y-85557142D02*
X192054819Y-85652380D01*
X192054819Y-85652380D02*
X192007200Y-85795237D01*
X192007200Y-85795237D02*
X191911961Y-85890475D01*
X191911961Y-85890475D02*
X191816723Y-85938094D01*
X191816723Y-85938094D02*
X191626247Y-85985713D01*
X191626247Y-85985713D02*
X191483390Y-85985713D01*
X191483390Y-85985713D02*
X191292914Y-85938094D01*
X191292914Y-85938094D02*
X191197676Y-85890475D01*
X191197676Y-85890475D02*
X191102438Y-85795237D01*
X191102438Y-85795237D02*
X191054819Y-85652380D01*
X191054819Y-85652380D02*
X191054819Y-85557142D01*
X191054819Y-85557142D02*
X191102438Y-85414285D01*
X191102438Y-85414285D02*
X191150057Y-85366666D01*
X191054819Y-85033332D02*
X191054819Y-84414285D01*
X191054819Y-84414285D02*
X191435771Y-84747618D01*
X191435771Y-84747618D02*
X191435771Y-84604761D01*
X191435771Y-84604761D02*
X191483390Y-84509523D01*
X191483390Y-84509523D02*
X191531009Y-84461904D01*
X191531009Y-84461904D02*
X191626247Y-84414285D01*
X191626247Y-84414285D02*
X191864342Y-84414285D01*
X191864342Y-84414285D02*
X191959580Y-84461904D01*
X191959580Y-84461904D02*
X192007200Y-84509523D01*
X192007200Y-84509523D02*
X192054819Y-84604761D01*
X192054819Y-84604761D02*
X192054819Y-84890475D01*
X192054819Y-84890475D02*
X192007200Y-84985713D01*
X192007200Y-84985713D02*
X191959580Y-85033332D01*
X179766666Y-50854819D02*
X179766666Y-51569104D01*
X179766666Y-51569104D02*
X179719047Y-51711961D01*
X179719047Y-51711961D02*
X179623809Y-51807200D01*
X179623809Y-51807200D02*
X179480952Y-51854819D01*
X179480952Y-51854819D02*
X179385714Y-51854819D01*
X180671428Y-51188152D02*
X180671428Y-51854819D01*
X180433333Y-50807200D02*
X180195238Y-51521485D01*
X180195238Y-51521485D02*
X180814285Y-51521485D01*
X200054819Y-85642857D02*
X199578628Y-85976190D01*
X200054819Y-86214285D02*
X199054819Y-86214285D01*
X199054819Y-86214285D02*
X199054819Y-85833333D01*
X199054819Y-85833333D02*
X199102438Y-85738095D01*
X199102438Y-85738095D02*
X199150057Y-85690476D01*
X199150057Y-85690476D02*
X199245295Y-85642857D01*
X199245295Y-85642857D02*
X199388152Y-85642857D01*
X199388152Y-85642857D02*
X199483390Y-85690476D01*
X199483390Y-85690476D02*
X199531009Y-85738095D01*
X199531009Y-85738095D02*
X199578628Y-85833333D01*
X199578628Y-85833333D02*
X199578628Y-86214285D01*
X200054819Y-84690476D02*
X200054819Y-85261904D01*
X200054819Y-84976190D02*
X199054819Y-84976190D01*
X199054819Y-84976190D02*
X199197676Y-85071428D01*
X199197676Y-85071428D02*
X199292914Y-85166666D01*
X199292914Y-85166666D02*
X199340533Y-85261904D01*
X199388152Y-83833333D02*
X200054819Y-83833333D01*
X199007200Y-84071428D02*
X199721485Y-84309523D01*
X199721485Y-84309523D02*
X199721485Y-83690476D01*
X208179819Y-85642857D02*
X207703628Y-85976190D01*
X208179819Y-86214285D02*
X207179819Y-86214285D01*
X207179819Y-86214285D02*
X207179819Y-85833333D01*
X207179819Y-85833333D02*
X207227438Y-85738095D01*
X207227438Y-85738095D02*
X207275057Y-85690476D01*
X207275057Y-85690476D02*
X207370295Y-85642857D01*
X207370295Y-85642857D02*
X207513152Y-85642857D01*
X207513152Y-85642857D02*
X207608390Y-85690476D01*
X207608390Y-85690476D02*
X207656009Y-85738095D01*
X207656009Y-85738095D02*
X207703628Y-85833333D01*
X207703628Y-85833333D02*
X207703628Y-86214285D01*
X208179819Y-84690476D02*
X208179819Y-85261904D01*
X208179819Y-84976190D02*
X207179819Y-84976190D01*
X207179819Y-84976190D02*
X207322676Y-85071428D01*
X207322676Y-85071428D02*
X207417914Y-85166666D01*
X207417914Y-85166666D02*
X207465533Y-85261904D01*
X207179819Y-84357142D02*
X207179819Y-83738095D01*
X207179819Y-83738095D02*
X207560771Y-84071428D01*
X207560771Y-84071428D02*
X207560771Y-83928571D01*
X207560771Y-83928571D02*
X207608390Y-83833333D01*
X207608390Y-83833333D02*
X207656009Y-83785714D01*
X207656009Y-83785714D02*
X207751247Y-83738095D01*
X207751247Y-83738095D02*
X207989342Y-83738095D01*
X207989342Y-83738095D02*
X208084580Y-83785714D01*
X208084580Y-83785714D02*
X208132200Y-83833333D01*
X208132200Y-83833333D02*
X208179819Y-83928571D01*
X208179819Y-83928571D02*
X208179819Y-84214285D01*
X208179819Y-84214285D02*
X208132200Y-84309523D01*
X208132200Y-84309523D02*
X208084580Y-84357142D01*
X199575714Y-55254819D02*
X199575714Y-54254819D01*
X199575714Y-54254819D02*
X199813809Y-54254819D01*
X199813809Y-54254819D02*
X199956666Y-54302438D01*
X199956666Y-54302438D02*
X200051904Y-54397676D01*
X200051904Y-54397676D02*
X200099523Y-54492914D01*
X200099523Y-54492914D02*
X200147142Y-54683390D01*
X200147142Y-54683390D02*
X200147142Y-54826247D01*
X200147142Y-54826247D02*
X200099523Y-55016723D01*
X200099523Y-55016723D02*
X200051904Y-55111961D01*
X200051904Y-55111961D02*
X199956666Y-55207200D01*
X199956666Y-55207200D02*
X199813809Y-55254819D01*
X199813809Y-55254819D02*
X199575714Y-55254819D01*
X201099523Y-55254819D02*
X200528095Y-55254819D01*
X200813809Y-55254819D02*
X200813809Y-54254819D01*
X200813809Y-54254819D02*
X200718571Y-54397676D01*
X200718571Y-54397676D02*
X200623333Y-54492914D01*
X200623333Y-54492914D02*
X200528095Y-54540533D01*
X202051904Y-55254819D02*
X201480476Y-55254819D01*
X201766190Y-55254819D02*
X201766190Y-54254819D01*
X201766190Y-54254819D02*
X201670952Y-54397676D01*
X201670952Y-54397676D02*
X201575714Y-54492914D01*
X201575714Y-54492914D02*
X201480476Y-54540533D01*
X193065714Y-61754819D02*
X193065714Y-60754819D01*
X193065714Y-60754819D02*
X193303809Y-60754819D01*
X193303809Y-60754819D02*
X193446666Y-60802438D01*
X193446666Y-60802438D02*
X193541904Y-60897676D01*
X193541904Y-60897676D02*
X193589523Y-60992914D01*
X193589523Y-60992914D02*
X193637142Y-61183390D01*
X193637142Y-61183390D02*
X193637142Y-61326247D01*
X193637142Y-61326247D02*
X193589523Y-61516723D01*
X193589523Y-61516723D02*
X193541904Y-61611961D01*
X193541904Y-61611961D02*
X193446666Y-61707200D01*
X193446666Y-61707200D02*
X193303809Y-61754819D01*
X193303809Y-61754819D02*
X193065714Y-61754819D01*
X194589523Y-61754819D02*
X194018095Y-61754819D01*
X194303809Y-61754819D02*
X194303809Y-60754819D01*
X194303809Y-60754819D02*
X194208571Y-60897676D01*
X194208571Y-60897676D02*
X194113333Y-60992914D01*
X194113333Y-60992914D02*
X194018095Y-61040533D01*
X195494285Y-60754819D02*
X195018095Y-60754819D01*
X195018095Y-60754819D02*
X194970476Y-61231009D01*
X194970476Y-61231009D02*
X195018095Y-61183390D01*
X195018095Y-61183390D02*
X195113333Y-61135771D01*
X195113333Y-61135771D02*
X195351428Y-61135771D01*
X195351428Y-61135771D02*
X195446666Y-61183390D01*
X195446666Y-61183390D02*
X195494285Y-61231009D01*
X195494285Y-61231009D02*
X195541904Y-61326247D01*
X195541904Y-61326247D02*
X195541904Y-61564342D01*
X195541904Y-61564342D02*
X195494285Y-61659580D01*
X195494285Y-61659580D02*
X195446666Y-61707200D01*
X195446666Y-61707200D02*
X195351428Y-61754819D01*
X195351428Y-61754819D02*
X195113333Y-61754819D01*
X195113333Y-61754819D02*
X195018095Y-61707200D01*
X195018095Y-61707200D02*
X194970476Y-61659580D01*
X184904819Y-72714285D02*
X183904819Y-72714285D01*
X183904819Y-72714285D02*
X183904819Y-72476190D01*
X183904819Y-72476190D02*
X183952438Y-72333333D01*
X183952438Y-72333333D02*
X184047676Y-72238095D01*
X184047676Y-72238095D02*
X184142914Y-72190476D01*
X184142914Y-72190476D02*
X184333390Y-72142857D01*
X184333390Y-72142857D02*
X184476247Y-72142857D01*
X184476247Y-72142857D02*
X184666723Y-72190476D01*
X184666723Y-72190476D02*
X184761961Y-72238095D01*
X184761961Y-72238095D02*
X184857200Y-72333333D01*
X184857200Y-72333333D02*
X184904819Y-72476190D01*
X184904819Y-72476190D02*
X184904819Y-72714285D01*
X184904819Y-71190476D02*
X184904819Y-71761904D01*
X184904819Y-71476190D02*
X183904819Y-71476190D01*
X183904819Y-71476190D02*
X184047676Y-71571428D01*
X184047676Y-71571428D02*
X184142914Y-71666666D01*
X184142914Y-71666666D02*
X184190533Y-71761904D01*
X184904819Y-70714285D02*
X184904819Y-70523809D01*
X184904819Y-70523809D02*
X184857200Y-70428571D01*
X184857200Y-70428571D02*
X184809580Y-70380952D01*
X184809580Y-70380952D02*
X184666723Y-70285714D01*
X184666723Y-70285714D02*
X184476247Y-70238095D01*
X184476247Y-70238095D02*
X184095295Y-70238095D01*
X184095295Y-70238095D02*
X184000057Y-70285714D01*
X184000057Y-70285714D02*
X183952438Y-70333333D01*
X183952438Y-70333333D02*
X183904819Y-70428571D01*
X183904819Y-70428571D02*
X183904819Y-70619047D01*
X183904819Y-70619047D02*
X183952438Y-70714285D01*
X183952438Y-70714285D02*
X184000057Y-70761904D01*
X184000057Y-70761904D02*
X184095295Y-70809523D01*
X184095295Y-70809523D02*
X184333390Y-70809523D01*
X184333390Y-70809523D02*
X184428628Y-70761904D01*
X184428628Y-70761904D02*
X184476247Y-70714285D01*
X184476247Y-70714285D02*
X184523866Y-70619047D01*
X184523866Y-70619047D02*
X184523866Y-70428571D01*
X184523866Y-70428571D02*
X184476247Y-70333333D01*
X184476247Y-70333333D02*
X184428628Y-70285714D01*
X184428628Y-70285714D02*
X184333390Y-70238095D01*
X199565714Y-61754819D02*
X199565714Y-60754819D01*
X199565714Y-60754819D02*
X199803809Y-60754819D01*
X199803809Y-60754819D02*
X199946666Y-60802438D01*
X199946666Y-60802438D02*
X200041904Y-60897676D01*
X200041904Y-60897676D02*
X200089523Y-60992914D01*
X200089523Y-60992914D02*
X200137142Y-61183390D01*
X200137142Y-61183390D02*
X200137142Y-61326247D01*
X200137142Y-61326247D02*
X200089523Y-61516723D01*
X200089523Y-61516723D02*
X200041904Y-61611961D01*
X200041904Y-61611961D02*
X199946666Y-61707200D01*
X199946666Y-61707200D02*
X199803809Y-61754819D01*
X199803809Y-61754819D02*
X199565714Y-61754819D01*
X201089523Y-61754819D02*
X200518095Y-61754819D01*
X200803809Y-61754819D02*
X200803809Y-60754819D01*
X200803809Y-60754819D02*
X200708571Y-60897676D01*
X200708571Y-60897676D02*
X200613333Y-60992914D01*
X200613333Y-60992914D02*
X200518095Y-61040533D01*
X201946666Y-60754819D02*
X201756190Y-60754819D01*
X201756190Y-60754819D02*
X201660952Y-60802438D01*
X201660952Y-60802438D02*
X201613333Y-60850057D01*
X201613333Y-60850057D02*
X201518095Y-60992914D01*
X201518095Y-60992914D02*
X201470476Y-61183390D01*
X201470476Y-61183390D02*
X201470476Y-61564342D01*
X201470476Y-61564342D02*
X201518095Y-61659580D01*
X201518095Y-61659580D02*
X201565714Y-61707200D01*
X201565714Y-61707200D02*
X201660952Y-61754819D01*
X201660952Y-61754819D02*
X201851428Y-61754819D01*
X201851428Y-61754819D02*
X201946666Y-61707200D01*
X201946666Y-61707200D02*
X201994285Y-61659580D01*
X201994285Y-61659580D02*
X202041904Y-61564342D01*
X202041904Y-61564342D02*
X202041904Y-61326247D01*
X202041904Y-61326247D02*
X201994285Y-61231009D01*
X201994285Y-61231009D02*
X201946666Y-61183390D01*
X201946666Y-61183390D02*
X201851428Y-61135771D01*
X201851428Y-61135771D02*
X201660952Y-61135771D01*
X201660952Y-61135771D02*
X201565714Y-61183390D01*
X201565714Y-61183390D02*
X201518095Y-61231009D01*
X201518095Y-61231009D02*
X201470476Y-61326247D01*
X206065714Y-61754819D02*
X206065714Y-60754819D01*
X206065714Y-60754819D02*
X206303809Y-60754819D01*
X206303809Y-60754819D02*
X206446666Y-60802438D01*
X206446666Y-60802438D02*
X206541904Y-60897676D01*
X206541904Y-60897676D02*
X206589523Y-60992914D01*
X206589523Y-60992914D02*
X206637142Y-61183390D01*
X206637142Y-61183390D02*
X206637142Y-61326247D01*
X206637142Y-61326247D02*
X206589523Y-61516723D01*
X206589523Y-61516723D02*
X206541904Y-61611961D01*
X206541904Y-61611961D02*
X206446666Y-61707200D01*
X206446666Y-61707200D02*
X206303809Y-61754819D01*
X206303809Y-61754819D02*
X206065714Y-61754819D01*
X207589523Y-61754819D02*
X207018095Y-61754819D01*
X207303809Y-61754819D02*
X207303809Y-60754819D01*
X207303809Y-60754819D02*
X207208571Y-60897676D01*
X207208571Y-60897676D02*
X207113333Y-60992914D01*
X207113333Y-60992914D02*
X207018095Y-61040533D01*
X207922857Y-60754819D02*
X208589523Y-60754819D01*
X208589523Y-60754819D02*
X208160952Y-61754819D01*
X184904819Y-79264285D02*
X183904819Y-79264285D01*
X183904819Y-79264285D02*
X183904819Y-79026190D01*
X183904819Y-79026190D02*
X183952438Y-78883333D01*
X183952438Y-78883333D02*
X184047676Y-78788095D01*
X184047676Y-78788095D02*
X184142914Y-78740476D01*
X184142914Y-78740476D02*
X184333390Y-78692857D01*
X184333390Y-78692857D02*
X184476247Y-78692857D01*
X184476247Y-78692857D02*
X184666723Y-78740476D01*
X184666723Y-78740476D02*
X184761961Y-78788095D01*
X184761961Y-78788095D02*
X184857200Y-78883333D01*
X184857200Y-78883333D02*
X184904819Y-79026190D01*
X184904819Y-79026190D02*
X184904819Y-79264285D01*
X184000057Y-78311904D02*
X183952438Y-78264285D01*
X183952438Y-78264285D02*
X183904819Y-78169047D01*
X183904819Y-78169047D02*
X183904819Y-77930952D01*
X183904819Y-77930952D02*
X183952438Y-77835714D01*
X183952438Y-77835714D02*
X184000057Y-77788095D01*
X184000057Y-77788095D02*
X184095295Y-77740476D01*
X184095295Y-77740476D02*
X184190533Y-77740476D01*
X184190533Y-77740476D02*
X184333390Y-77788095D01*
X184333390Y-77788095D02*
X184904819Y-78359523D01*
X184904819Y-78359523D02*
X184904819Y-77740476D01*
X184238152Y-76883333D02*
X184904819Y-76883333D01*
X183857200Y-77121428D02*
X184571485Y-77359523D01*
X184571485Y-77359523D02*
X184571485Y-76740476D01*
X218154819Y-66214285D02*
X217154819Y-66214285D01*
X217154819Y-66214285D02*
X217154819Y-65976190D01*
X217154819Y-65976190D02*
X217202438Y-65833333D01*
X217202438Y-65833333D02*
X217297676Y-65738095D01*
X217297676Y-65738095D02*
X217392914Y-65690476D01*
X217392914Y-65690476D02*
X217583390Y-65642857D01*
X217583390Y-65642857D02*
X217726247Y-65642857D01*
X217726247Y-65642857D02*
X217916723Y-65690476D01*
X217916723Y-65690476D02*
X218011961Y-65738095D01*
X218011961Y-65738095D02*
X218107200Y-65833333D01*
X218107200Y-65833333D02*
X218154819Y-65976190D01*
X218154819Y-65976190D02*
X218154819Y-66214285D01*
X218154819Y-64690476D02*
X218154819Y-65261904D01*
X218154819Y-64976190D02*
X217154819Y-64976190D01*
X217154819Y-64976190D02*
X217297676Y-65071428D01*
X217297676Y-65071428D02*
X217392914Y-65166666D01*
X217392914Y-65166666D02*
X217440533Y-65261904D01*
X217583390Y-64119047D02*
X217535771Y-64214285D01*
X217535771Y-64214285D02*
X217488152Y-64261904D01*
X217488152Y-64261904D02*
X217392914Y-64309523D01*
X217392914Y-64309523D02*
X217345295Y-64309523D01*
X217345295Y-64309523D02*
X217250057Y-64261904D01*
X217250057Y-64261904D02*
X217202438Y-64214285D01*
X217202438Y-64214285D02*
X217154819Y-64119047D01*
X217154819Y-64119047D02*
X217154819Y-63928571D01*
X217154819Y-63928571D02*
X217202438Y-63833333D01*
X217202438Y-63833333D02*
X217250057Y-63785714D01*
X217250057Y-63785714D02*
X217345295Y-63738095D01*
X217345295Y-63738095D02*
X217392914Y-63738095D01*
X217392914Y-63738095D02*
X217488152Y-63785714D01*
X217488152Y-63785714D02*
X217535771Y-63833333D01*
X217535771Y-63833333D02*
X217583390Y-63928571D01*
X217583390Y-63928571D02*
X217583390Y-64119047D01*
X217583390Y-64119047D02*
X217631009Y-64214285D01*
X217631009Y-64214285D02*
X217678628Y-64261904D01*
X217678628Y-64261904D02*
X217773866Y-64309523D01*
X217773866Y-64309523D02*
X217964342Y-64309523D01*
X217964342Y-64309523D02*
X218059580Y-64261904D01*
X218059580Y-64261904D02*
X218107200Y-64214285D01*
X218107200Y-64214285D02*
X218154819Y-64119047D01*
X218154819Y-64119047D02*
X218154819Y-63928571D01*
X218154819Y-63928571D02*
X218107200Y-63833333D01*
X218107200Y-63833333D02*
X218059580Y-63785714D01*
X218059580Y-63785714D02*
X217964342Y-63738095D01*
X217964342Y-63738095D02*
X217773866Y-63738095D01*
X217773866Y-63738095D02*
X217678628Y-63785714D01*
X217678628Y-63785714D02*
X217631009Y-63833333D01*
X217631009Y-63833333D02*
X217583390Y-63928571D01*
X215638095Y-81754819D02*
X216209523Y-81754819D01*
X215923809Y-82754819D02*
X215923809Y-81754819D01*
X216542857Y-82754819D02*
X216542857Y-81754819D01*
X216542857Y-81754819D02*
X216923809Y-81754819D01*
X216923809Y-81754819D02*
X217019047Y-81802438D01*
X217019047Y-81802438D02*
X217066666Y-81850057D01*
X217066666Y-81850057D02*
X217114285Y-81945295D01*
X217114285Y-81945295D02*
X217114285Y-82088152D01*
X217114285Y-82088152D02*
X217066666Y-82183390D01*
X217066666Y-82183390D02*
X217019047Y-82231009D01*
X217019047Y-82231009D02*
X216923809Y-82278628D01*
X216923809Y-82278628D02*
X216542857Y-82278628D01*
X218066666Y-82754819D02*
X217495238Y-82754819D01*
X217780952Y-82754819D02*
X217780952Y-81754819D01*
X217780952Y-81754819D02*
X217685714Y-81897676D01*
X217685714Y-81897676D02*
X217590476Y-81992914D01*
X217590476Y-81992914D02*
X217495238Y-82040533D01*
X222538095Y-53254819D02*
X222538095Y-52254819D01*
X222538095Y-52731009D02*
X223109523Y-52731009D01*
X223109523Y-53254819D02*
X223109523Y-52254819D01*
X223538095Y-52350057D02*
X223585714Y-52302438D01*
X223585714Y-52302438D02*
X223680952Y-52254819D01*
X223680952Y-52254819D02*
X223919047Y-52254819D01*
X223919047Y-52254819D02*
X224014285Y-52302438D01*
X224014285Y-52302438D02*
X224061904Y-52350057D01*
X224061904Y-52350057D02*
X224109523Y-52445295D01*
X224109523Y-52445295D02*
X224109523Y-52540533D01*
X224109523Y-52540533D02*
X224061904Y-52683390D01*
X224061904Y-52683390D02*
X223490476Y-53254819D01*
X223490476Y-53254819D02*
X224109523Y-53254819D01*
X188733333Y-82254819D02*
X188400000Y-81778628D01*
X188161905Y-82254819D02*
X188161905Y-81254819D01*
X188161905Y-81254819D02*
X188542857Y-81254819D01*
X188542857Y-81254819D02*
X188638095Y-81302438D01*
X188638095Y-81302438D02*
X188685714Y-81350057D01*
X188685714Y-81350057D02*
X188733333Y-81445295D01*
X188733333Y-81445295D02*
X188733333Y-81588152D01*
X188733333Y-81588152D02*
X188685714Y-81683390D01*
X188685714Y-81683390D02*
X188638095Y-81731009D01*
X188638095Y-81731009D02*
X188542857Y-81778628D01*
X188542857Y-81778628D02*
X188161905Y-81778628D01*
X189114286Y-81350057D02*
X189161905Y-81302438D01*
X189161905Y-81302438D02*
X189257143Y-81254819D01*
X189257143Y-81254819D02*
X189495238Y-81254819D01*
X189495238Y-81254819D02*
X189590476Y-81302438D01*
X189590476Y-81302438D02*
X189638095Y-81350057D01*
X189638095Y-81350057D02*
X189685714Y-81445295D01*
X189685714Y-81445295D02*
X189685714Y-81540533D01*
X189685714Y-81540533D02*
X189638095Y-81683390D01*
X189638095Y-81683390D02*
X189066667Y-82254819D01*
X189066667Y-82254819D02*
X189685714Y-82254819D01*
X179454819Y-72838094D02*
X178454819Y-72838094D01*
X178454819Y-72838094D02*
X178454819Y-72599999D01*
X178454819Y-72599999D02*
X178502438Y-72457142D01*
X178502438Y-72457142D02*
X178597676Y-72361904D01*
X178597676Y-72361904D02*
X178692914Y-72314285D01*
X178692914Y-72314285D02*
X178883390Y-72266666D01*
X178883390Y-72266666D02*
X179026247Y-72266666D01*
X179026247Y-72266666D02*
X179216723Y-72314285D01*
X179216723Y-72314285D02*
X179311961Y-72361904D01*
X179311961Y-72361904D02*
X179407200Y-72457142D01*
X179407200Y-72457142D02*
X179454819Y-72599999D01*
X179454819Y-72599999D02*
X179454819Y-72838094D01*
X179454819Y-71314285D02*
X179454819Y-71885713D01*
X179454819Y-71599999D02*
X178454819Y-71599999D01*
X178454819Y-71599999D02*
X178597676Y-71695237D01*
X178597676Y-71695237D02*
X178692914Y-71790475D01*
X178692914Y-71790475D02*
X178740533Y-71885713D01*
X199565714Y-68254819D02*
X199565714Y-67254819D01*
X199565714Y-67254819D02*
X199803809Y-67254819D01*
X199803809Y-67254819D02*
X199946666Y-67302438D01*
X199946666Y-67302438D02*
X200041904Y-67397676D01*
X200041904Y-67397676D02*
X200089523Y-67492914D01*
X200089523Y-67492914D02*
X200137142Y-67683390D01*
X200137142Y-67683390D02*
X200137142Y-67826247D01*
X200137142Y-67826247D02*
X200089523Y-68016723D01*
X200089523Y-68016723D02*
X200041904Y-68111961D01*
X200041904Y-68111961D02*
X199946666Y-68207200D01*
X199946666Y-68207200D02*
X199803809Y-68254819D01*
X199803809Y-68254819D02*
X199565714Y-68254819D01*
X200518095Y-67350057D02*
X200565714Y-67302438D01*
X200565714Y-67302438D02*
X200660952Y-67254819D01*
X200660952Y-67254819D02*
X200899047Y-67254819D01*
X200899047Y-67254819D02*
X200994285Y-67302438D01*
X200994285Y-67302438D02*
X201041904Y-67350057D01*
X201041904Y-67350057D02*
X201089523Y-67445295D01*
X201089523Y-67445295D02*
X201089523Y-67540533D01*
X201089523Y-67540533D02*
X201041904Y-67683390D01*
X201041904Y-67683390D02*
X200470476Y-68254819D01*
X200470476Y-68254819D02*
X201089523Y-68254819D01*
X202041904Y-68254819D02*
X201470476Y-68254819D01*
X201756190Y-68254819D02*
X201756190Y-67254819D01*
X201756190Y-67254819D02*
X201660952Y-67397676D01*
X201660952Y-67397676D02*
X201565714Y-67492914D01*
X201565714Y-67492914D02*
X201470476Y-67540533D01*
X184333333Y-82154819D02*
X184000000Y-81678628D01*
X183761905Y-82154819D02*
X183761905Y-81154819D01*
X183761905Y-81154819D02*
X184142857Y-81154819D01*
X184142857Y-81154819D02*
X184238095Y-81202438D01*
X184238095Y-81202438D02*
X184285714Y-81250057D01*
X184285714Y-81250057D02*
X184333333Y-81345295D01*
X184333333Y-81345295D02*
X184333333Y-81488152D01*
X184333333Y-81488152D02*
X184285714Y-81583390D01*
X184285714Y-81583390D02*
X184238095Y-81631009D01*
X184238095Y-81631009D02*
X184142857Y-81678628D01*
X184142857Y-81678628D02*
X183761905Y-81678628D01*
X184666667Y-81154819D02*
X185285714Y-81154819D01*
X185285714Y-81154819D02*
X184952381Y-81535771D01*
X184952381Y-81535771D02*
X185095238Y-81535771D01*
X185095238Y-81535771D02*
X185190476Y-81583390D01*
X185190476Y-81583390D02*
X185238095Y-81631009D01*
X185238095Y-81631009D02*
X185285714Y-81726247D01*
X185285714Y-81726247D02*
X185285714Y-81964342D01*
X185285714Y-81964342D02*
X185238095Y-82059580D01*
X185238095Y-82059580D02*
X185190476Y-82107200D01*
X185190476Y-82107200D02*
X185095238Y-82154819D01*
X185095238Y-82154819D02*
X184809524Y-82154819D01*
X184809524Y-82154819D02*
X184714286Y-82107200D01*
X184714286Y-82107200D02*
X184666667Y-82059580D01*
X179654819Y-83838094D02*
X178654819Y-83838094D01*
X178654819Y-83838094D02*
X178654819Y-83599999D01*
X178654819Y-83599999D02*
X178702438Y-83457142D01*
X178702438Y-83457142D02*
X178797676Y-83361904D01*
X178797676Y-83361904D02*
X178892914Y-83314285D01*
X178892914Y-83314285D02*
X179083390Y-83266666D01*
X179083390Y-83266666D02*
X179226247Y-83266666D01*
X179226247Y-83266666D02*
X179416723Y-83314285D01*
X179416723Y-83314285D02*
X179511961Y-83361904D01*
X179511961Y-83361904D02*
X179607200Y-83457142D01*
X179607200Y-83457142D02*
X179654819Y-83599999D01*
X179654819Y-83599999D02*
X179654819Y-83838094D01*
X178654819Y-82933332D02*
X178654819Y-82314285D01*
X178654819Y-82314285D02*
X179035771Y-82647618D01*
X179035771Y-82647618D02*
X179035771Y-82504761D01*
X179035771Y-82504761D02*
X179083390Y-82409523D01*
X179083390Y-82409523D02*
X179131009Y-82361904D01*
X179131009Y-82361904D02*
X179226247Y-82314285D01*
X179226247Y-82314285D02*
X179464342Y-82314285D01*
X179464342Y-82314285D02*
X179559580Y-82361904D01*
X179559580Y-82361904D02*
X179607200Y-82409523D01*
X179607200Y-82409523D02*
X179654819Y-82504761D01*
X179654819Y-82504761D02*
X179654819Y-82790475D01*
X179654819Y-82790475D02*
X179607200Y-82885713D01*
X179607200Y-82885713D02*
X179559580Y-82933332D01*
X184854819Y-59238094D02*
X183854819Y-59238094D01*
X183854819Y-59238094D02*
X183854819Y-58999999D01*
X183854819Y-58999999D02*
X183902438Y-58857142D01*
X183902438Y-58857142D02*
X183997676Y-58761904D01*
X183997676Y-58761904D02*
X184092914Y-58714285D01*
X184092914Y-58714285D02*
X184283390Y-58666666D01*
X184283390Y-58666666D02*
X184426247Y-58666666D01*
X184426247Y-58666666D02*
X184616723Y-58714285D01*
X184616723Y-58714285D02*
X184711961Y-58761904D01*
X184711961Y-58761904D02*
X184807200Y-58857142D01*
X184807200Y-58857142D02*
X184854819Y-58999999D01*
X184854819Y-58999999D02*
X184854819Y-59238094D01*
X184854819Y-58190475D02*
X184854819Y-57999999D01*
X184854819Y-57999999D02*
X184807200Y-57904761D01*
X184807200Y-57904761D02*
X184759580Y-57857142D01*
X184759580Y-57857142D02*
X184616723Y-57761904D01*
X184616723Y-57761904D02*
X184426247Y-57714285D01*
X184426247Y-57714285D02*
X184045295Y-57714285D01*
X184045295Y-57714285D02*
X183950057Y-57761904D01*
X183950057Y-57761904D02*
X183902438Y-57809523D01*
X183902438Y-57809523D02*
X183854819Y-57904761D01*
X183854819Y-57904761D02*
X183854819Y-58095237D01*
X183854819Y-58095237D02*
X183902438Y-58190475D01*
X183902438Y-58190475D02*
X183950057Y-58238094D01*
X183950057Y-58238094D02*
X184045295Y-58285713D01*
X184045295Y-58285713D02*
X184283390Y-58285713D01*
X184283390Y-58285713D02*
X184378628Y-58238094D01*
X184378628Y-58238094D02*
X184426247Y-58190475D01*
X184426247Y-58190475D02*
X184473866Y-58095237D01*
X184473866Y-58095237D02*
X184473866Y-57904761D01*
X184473866Y-57904761D02*
X184426247Y-57809523D01*
X184426247Y-57809523D02*
X184378628Y-57761904D01*
X184378628Y-57761904D02*
X184283390Y-57714285D01*
X221166666Y-56454819D02*
X221166666Y-57169104D01*
X221166666Y-57169104D02*
X221119047Y-57311961D01*
X221119047Y-57311961D02*
X221023809Y-57407200D01*
X221023809Y-57407200D02*
X220880952Y-57454819D01*
X220880952Y-57454819D02*
X220785714Y-57454819D01*
X221547619Y-56454819D02*
X222214285Y-56454819D01*
X222214285Y-56454819D02*
X221785714Y-57454819D01*
X183956666Y-90414819D02*
X183956666Y-91129104D01*
X183956666Y-91129104D02*
X183909047Y-91271961D01*
X183909047Y-91271961D02*
X183813809Y-91367200D01*
X183813809Y-91367200D02*
X183670952Y-91414819D01*
X183670952Y-91414819D02*
X183575714Y-91414819D01*
X184909047Y-90414819D02*
X184432857Y-90414819D01*
X184432857Y-90414819D02*
X184385238Y-90891009D01*
X184385238Y-90891009D02*
X184432857Y-90843390D01*
X184432857Y-90843390D02*
X184528095Y-90795771D01*
X184528095Y-90795771D02*
X184766190Y-90795771D01*
X184766190Y-90795771D02*
X184861428Y-90843390D01*
X184861428Y-90843390D02*
X184909047Y-90891009D01*
X184909047Y-90891009D02*
X184956666Y-90986247D01*
X184956666Y-90986247D02*
X184956666Y-91224342D01*
X184956666Y-91224342D02*
X184909047Y-91319580D01*
X184909047Y-91319580D02*
X184861428Y-91367200D01*
X184861428Y-91367200D02*
X184766190Y-91414819D01*
X184766190Y-91414819D02*
X184528095Y-91414819D01*
X184528095Y-91414819D02*
X184432857Y-91367200D01*
X184432857Y-91367200D02*
X184385238Y-91319580D01*
D11*
%TO.C,D27*%
X204720000Y-76465000D02*
X204720000Y-76930000D01*
X204720000Y-79090000D02*
X204720000Y-79555000D01*
X204720000Y-76465170D02*
G75*
G02*
X210067815Y-76929173I2560000J-1544830D01*
G01*
X205025316Y-76930000D02*
G75*
G02*
X209534479Y-76929571I2254684J-1080000D01*
G01*
X209534479Y-79090429D02*
G75*
G02*
X205025316Y-79090000I-2254479J1080429D01*
G01*
X210067815Y-79090827D02*
G75*
G02*
X204720000Y-79554830I-2787815J1080827D01*
G01*
D10*
%TO.C,J1*%
X197270000Y-94400000D02*
X197270000Y-102900000D01*
X199810000Y-94400000D02*
X199810000Y-102900000D01*
X202350000Y-94400000D02*
X202350000Y-102900000D01*
X204890000Y-94400000D02*
X204890000Y-102900000D01*
X207430000Y-94400000D02*
X207430000Y-102900000D01*
X209970000Y-94400000D02*
X197270000Y-94400000D01*
X209970000Y-94400000D02*
X209970000Y-102900000D01*
X209970000Y-102900000D02*
X197270000Y-102900000D01*
X209919200Y-102845800D02*
X207480800Y-102845800D01*
X207480800Y-94463800D01*
X209919200Y-94463800D01*
X209919200Y-102845800D01*
G36*
X209919200Y-102845800D02*
G01*
X207480800Y-102845800D01*
X207480800Y-94463800D01*
X209919200Y-94463800D01*
X209919200Y-102845800D01*
G37*
D11*
%TO.C,R12*%
X202940000Y-84772936D02*
X202940000Y-85227064D01*
X204410000Y-84772936D02*
X204410000Y-85227064D01*
%TO.C,C8*%
X192390000Y-91971087D02*
X192390000Y-91448583D01*
X193860000Y-91971087D02*
X193860000Y-91448583D01*
%TO.C,D23*%
X211230000Y-69965000D02*
X211230000Y-70430000D01*
X211230000Y-72590000D02*
X211230000Y-73055000D01*
X211230000Y-69965170D02*
G75*
G02*
X216577815Y-70429173I2560000J-1544830D01*
G01*
X211535316Y-70430000D02*
G75*
G02*
X216044479Y-70429571I2254684J-1080000D01*
G01*
X216044479Y-72590429D02*
G75*
G02*
X211535316Y-72590000I-2254479J1080429D01*
G01*
X216577815Y-72590827D02*
G75*
G02*
X211230000Y-73054830I-2787815J1080827D01*
G01*
%TO.C,D12*%
X204730000Y-56965000D02*
X204730000Y-57430000D01*
X204730000Y-59590000D02*
X204730000Y-60055000D01*
X204730000Y-56965170D02*
G75*
G02*
X210077815Y-57429173I2560000J-1544830D01*
G01*
X205035316Y-57430000D02*
G75*
G02*
X209544479Y-57429571I2254684J-1080000D01*
G01*
X209544479Y-59590429D02*
G75*
G02*
X205035316Y-59590000I-2254479J1080429D01*
G01*
X210077815Y-59590827D02*
G75*
G02*
X204730000Y-60054830I-2787815J1080827D01*
G01*
%TO.C,D28*%
X211230000Y-76465000D02*
X211230000Y-76930000D01*
X211230000Y-79090000D02*
X211230000Y-79555000D01*
X211230000Y-76465170D02*
G75*
G02*
X216577815Y-76929173I2560000J-1544830D01*
G01*
X211535316Y-76930000D02*
G75*
G02*
X216044479Y-76929571I2254684J-1080000D01*
G01*
X216044479Y-79090429D02*
G75*
G02*
X211535316Y-79090000I-2254479J1080429D01*
G01*
X216577815Y-79090827D02*
G75*
G02*
X211230000Y-79554830I-2787815J1080827D01*
G01*
D12*
%TO.C,SW1*%
X224281000Y-86710300D02*
G75*
G02*
X223519000Y-86710300I-381000J0D01*
G01*
X223519000Y-86710300D02*
G75*
G02*
X224281000Y-86710300I381000J0D01*
G01*
D13*
X230211900Y-82633600D02*
X230211900Y-78366400D01*
X230211900Y-78366400D02*
X226224100Y-78366400D01*
X226224100Y-84932300D02*
X226224100Y-82633600D01*
X226224100Y-82633600D02*
X230211900Y-82633600D01*
X226224100Y-78366400D02*
X226224100Y-76067700D01*
X226224100Y-76067700D02*
X225194055Y-76067700D01*
X225194055Y-84932300D02*
X226224100Y-84932300D01*
X222605945Y-76067700D02*
X221575900Y-76067700D01*
X221575900Y-84932300D02*
X222605945Y-84932300D01*
X221575900Y-76067700D02*
X221575900Y-84932300D01*
D11*
%TO.C,D7*%
X204730000Y-50465000D02*
X204730000Y-50930000D01*
X204730000Y-53090000D02*
X204730000Y-53555000D01*
X204730000Y-50465170D02*
G75*
G02*
X210077815Y-50929173I2560000J-1544830D01*
G01*
X205035316Y-50930000D02*
G75*
G02*
X209544479Y-50929571I2254684J-1080000D01*
G01*
X209544479Y-53090429D02*
G75*
G02*
X205035316Y-53090000I-2254479J1080429D01*
G01*
X210077815Y-53090827D02*
G75*
G02*
X204730000Y-53554830I-2787815J1080827D01*
G01*
%TO.C,D14*%
X185220000Y-63465000D02*
X185220000Y-63930000D01*
X185220000Y-66090000D02*
X185220000Y-66555000D01*
X185220000Y-63465170D02*
G75*
G02*
X190567815Y-63929173I2560000J-1544830D01*
G01*
X185525316Y-63930000D02*
G75*
G02*
X190034479Y-63929571I2254684J-1080000D01*
G01*
X190034479Y-66090429D02*
G75*
G02*
X185525316Y-66090000I-2254479J1080429D01*
G01*
X190567815Y-66090827D02*
G75*
G02*
X185220000Y-66554830I-2787815J1080827D01*
G01*
%TO.C,D22*%
X204725000Y-69965000D02*
X204725000Y-70430000D01*
X204725000Y-72590000D02*
X204725000Y-73055000D01*
X204725000Y-69965170D02*
G75*
G02*
X210072815Y-70429173I2560000J-1544830D01*
G01*
X205030316Y-70430000D02*
G75*
G02*
X209539479Y-70429571I2254684J-1080000D01*
G01*
X209539479Y-72590429D02*
G75*
G02*
X205030316Y-72590000I-2254479J1080429D01*
G01*
X210072815Y-72590827D02*
G75*
G02*
X204725000Y-73054830I-2787815J1080827D01*
G01*
%TO.C,D5*%
X191730000Y-50465000D02*
X191730000Y-50930000D01*
X191730000Y-53090000D02*
X191730000Y-53555000D01*
X191730000Y-50465170D02*
G75*
G02*
X197077815Y-50929173I2560000J-1544830D01*
G01*
X192035316Y-50930000D02*
G75*
G02*
X196544479Y-50929571I2254684J-1080000D01*
G01*
X196544479Y-53090429D02*
G75*
G02*
X192035316Y-53090000I-2254479J1080429D01*
G01*
X197077815Y-53090827D02*
G75*
G02*
X191730000Y-53554830I-2787815J1080827D01*
G01*
%TO.C,D13*%
X211230000Y-56965000D02*
X211230000Y-57430000D01*
X211230000Y-59590000D02*
X211230000Y-60055000D01*
X211230000Y-56965170D02*
G75*
G02*
X216577815Y-57429173I2560000J-1544830D01*
G01*
X211535316Y-57430000D02*
G75*
G02*
X216044479Y-57429571I2254684J-1080000D01*
G01*
X216044479Y-59590429D02*
G75*
G02*
X211535316Y-59590000I-2254479J1080429D01*
G01*
X216577815Y-59590827D02*
G75*
G02*
X211230000Y-60054830I-2787815J1080827D01*
G01*
D14*
%TO.C,SW2*%
X219375000Y-66820000D02*
X219375000Y-71180000D01*
X223555000Y-66000000D02*
X221195000Y-66000000D01*
X223555000Y-72000000D02*
X221195000Y-72000000D01*
X225375000Y-66820000D02*
X225375000Y-71180000D01*
D15*
X220225000Y-64250000D02*
G75*
G02*
X220025000Y-64250000I-100000J0D01*
G01*
X220025000Y-64250000D02*
G75*
G02*
X220225000Y-64250000I100000J0D01*
G01*
D11*
%TO.C,JP1*%
X212390000Y-90750000D02*
X212390000Y-87950000D01*
X214390000Y-90750000D02*
X212390000Y-90750000D01*
X212390000Y-87950000D02*
X214390000Y-87950000D01*
X214390000Y-87950000D02*
X214390000Y-90750000D01*
%TO.C,D10*%
X191730000Y-56965000D02*
X191730000Y-57430000D01*
X191730000Y-59590000D02*
X191730000Y-60055000D01*
X191730000Y-56965170D02*
G75*
G02*
X197077815Y-57429173I2560000J-1544830D01*
G01*
X192035316Y-57430000D02*
G75*
G02*
X196544479Y-57429571I2254684J-1080000D01*
G01*
X196544479Y-59590429D02*
G75*
G02*
X192035316Y-59590000I-2254479J1080429D01*
G01*
X197077815Y-59590827D02*
G75*
G02*
X191730000Y-60054830I-2787815J1080827D01*
G01*
%TO.C,D8*%
X211230000Y-50465000D02*
X211230000Y-50930000D01*
X211230000Y-53090000D02*
X211230000Y-53555000D01*
X211230000Y-50465170D02*
G75*
G02*
X216577815Y-50929173I2560000J-1544830D01*
G01*
X211535316Y-50930000D02*
G75*
G02*
X216044479Y-50929571I2254684J-1080000D01*
G01*
X216044479Y-53090429D02*
G75*
G02*
X211535316Y-53090000I-2254479J1080429D01*
G01*
X216577815Y-53090827D02*
G75*
G02*
X211230000Y-53554830I-2787815J1080827D01*
G01*
%TO.C,D4*%
X185220000Y-50465000D02*
X185220000Y-50930000D01*
X185220000Y-53090000D02*
X185220000Y-53555000D01*
X185220000Y-50465170D02*
G75*
G02*
X190567815Y-50929173I2560000J-1544830D01*
G01*
X185525316Y-50930000D02*
G75*
G02*
X190034479Y-50929571I2254684J-1080000D01*
G01*
X190034479Y-53090429D02*
G75*
G02*
X185525316Y-53090000I-2254479J1080429D01*
G01*
X190567815Y-53090827D02*
G75*
G02*
X185220000Y-53554830I-2787815J1080827D01*
G01*
%TO.C,D26*%
X198220000Y-76465000D02*
X198220000Y-76930000D01*
X198220000Y-79090000D02*
X198220000Y-79555000D01*
X198220000Y-76465170D02*
G75*
G02*
X203567815Y-76929173I2560000J-1544830D01*
G01*
X198525316Y-76930000D02*
G75*
G02*
X203034479Y-76929571I2254684J-1080000D01*
G01*
X203034479Y-79090429D02*
G75*
G02*
X198525316Y-79090000I-2254479J1080429D01*
G01*
X203567815Y-79090827D02*
G75*
G02*
X198220000Y-79554830I-2787815J1080827D01*
G01*
%TO.C,D6*%
X198230000Y-50465000D02*
X198230000Y-50930000D01*
X198230000Y-53090000D02*
X198230000Y-53555000D01*
X198230000Y-50465170D02*
G75*
G02*
X203577815Y-50929173I2560000J-1544830D01*
G01*
X198535316Y-50930000D02*
G75*
G02*
X203044479Y-50929571I2254684J-1080000D01*
G01*
X203044479Y-53090429D02*
G75*
G02*
X198535316Y-53090000I-2254479J1080429D01*
G01*
X203577815Y-53090827D02*
G75*
G02*
X198230000Y-53554830I-2787815J1080827D01*
G01*
%TO.C,D29*%
X220185000Y-91414835D02*
X220185000Y-94504835D01*
X220185000Y-91415005D02*
G75*
G02*
X225735000Y-92960297I2560000J-1544830D01*
G01*
X225735000Y-92959373D02*
G75*
G02*
X220185000Y-94504665I-2990000J-462D01*
G01*
X225245000Y-92959835D02*
G75*
G02*
X220245000Y-92959835I-2500000J0D01*
G01*
X220245000Y-92959835D02*
G75*
G02*
X225245000Y-92959835I2500000J0D01*
G01*
%TO.C,TP2*%
X217800000Y-88900000D02*
G75*
G02*
X215400000Y-88900000I-1200000J0D01*
G01*
X215400000Y-88900000D02*
G75*
G02*
X217800000Y-88900000I1200000J0D01*
G01*
%TO.C,D2*%
X179765000Y-76000000D02*
X179765000Y-80060000D01*
X179765000Y-80060000D02*
X182035000Y-80060000D01*
X182035000Y-80060000D02*
X182035000Y-76000000D01*
%TO.C,D25*%
X191720000Y-76465000D02*
X191720000Y-76930000D01*
X191720000Y-79090000D02*
X191720000Y-79555000D01*
X191720000Y-76465170D02*
G75*
G02*
X197067815Y-76929173I2560000J-1544830D01*
G01*
X192025316Y-76930000D02*
G75*
G02*
X196534479Y-76929571I2254684J-1080000D01*
G01*
X196534479Y-79090429D02*
G75*
G02*
X192025316Y-79090000I-2254479J1080429D01*
G01*
X197067815Y-79090827D02*
G75*
G02*
X191720000Y-79554830I-2787815J1080827D01*
G01*
%TO.C,C6*%
X194361252Y-86665000D02*
X193838748Y-86665000D01*
X194361252Y-88135000D02*
X193838748Y-88135000D01*
%TO.C,C7*%
X194890000Y-91971087D02*
X194890000Y-91448583D01*
X196360000Y-91971087D02*
X196360000Y-91448583D01*
%TO.C,D20*%
X191720000Y-69965000D02*
X191720000Y-70430000D01*
X191720000Y-72590000D02*
X191720000Y-73055000D01*
X191720000Y-69965170D02*
G75*
G02*
X197067815Y-70429173I2560000J-1544830D01*
G01*
X192025316Y-70430000D02*
G75*
G02*
X196534479Y-70429571I2254684J-1080000D01*
G01*
X196534479Y-72590429D02*
G75*
G02*
X192025316Y-72590000I-2254479J1080429D01*
G01*
X197067815Y-72590827D02*
G75*
G02*
X191720000Y-73054830I-2787815J1080827D01*
G01*
%TO.C,J12*%
X223040000Y-61900000D02*
X223040000Y-57840000D01*
X223040000Y-63960000D02*
X223040000Y-62900000D01*
X224100000Y-63960000D02*
X223040000Y-63960000D01*
X225160000Y-57840000D02*
X223040000Y-57840000D01*
X225160000Y-61900000D02*
X223040000Y-61900000D01*
X225160000Y-61900000D02*
X225160000Y-57840000D01*
%TO.C,R1*%
X180165000Y-67572936D02*
X180165000Y-68027064D01*
X181635000Y-67572936D02*
X181635000Y-68027064D01*
%TO.C,C3*%
X194361252Y-84465000D02*
X193838748Y-84465000D01*
X194361252Y-85935000D02*
X193838748Y-85935000D01*
%TO.C,J4*%
X179265000Y-48315000D02*
X179265000Y-50435000D01*
X181325000Y-48315000D02*
X179265000Y-48315000D01*
X181325000Y-48315000D02*
X181325000Y-50435000D01*
X181325000Y-50435000D02*
X179265000Y-50435000D01*
X183385000Y-49375000D02*
X183385000Y-50435000D01*
X183385000Y-50435000D02*
X182325000Y-50435000D01*
%TO.C,R14*%
X200390000Y-84732771D02*
X200390000Y-85186899D01*
X201860000Y-84732771D02*
X201860000Y-85186899D01*
%TO.C,R13*%
X206935000Y-84772936D02*
X206935000Y-85227064D01*
X205465000Y-84772936D02*
X205465000Y-85227064D01*
%TO.C,D11*%
X198230000Y-56965000D02*
X198230000Y-57430000D01*
X198230000Y-59590000D02*
X198230000Y-60055000D01*
X198230000Y-56965170D02*
G75*
G02*
X203577815Y-57429173I2560000J-1544830D01*
G01*
X198535316Y-57430000D02*
G75*
G02*
X203044479Y-57429571I2254684J-1080000D01*
G01*
X203044479Y-59590429D02*
G75*
G02*
X198535316Y-59590000I-2254479J1080429D01*
G01*
X203577815Y-59590827D02*
G75*
G02*
X198230000Y-60054830I-2787815J1080827D01*
G01*
%TO.C,D15*%
X191720000Y-63465000D02*
X191720000Y-63930000D01*
X191720000Y-66090000D02*
X191720000Y-66555000D01*
X191720000Y-63465170D02*
G75*
G02*
X197067815Y-63929173I2560000J-1544830D01*
G01*
X192025316Y-63930000D02*
G75*
G02*
X196534479Y-63929571I2254684J-1080000D01*
G01*
X196534479Y-66090429D02*
G75*
G02*
X192025316Y-66090000I-2254479J1080429D01*
G01*
X197067815Y-66090827D02*
G75*
G02*
X191720000Y-66554830I-2787815J1080827D01*
G01*
%TO.C,D19*%
X185220000Y-69965000D02*
X185220000Y-70430000D01*
X185220000Y-72590000D02*
X185220000Y-73055000D01*
X185220000Y-69965170D02*
G75*
G02*
X190567815Y-70429173I2560000J-1544830D01*
G01*
X185525316Y-70430000D02*
G75*
G02*
X190034479Y-70429571I2254684J-1080000D01*
G01*
X190034479Y-72590429D02*
G75*
G02*
X185525316Y-72590000I-2254479J1080429D01*
G01*
X190567815Y-72590827D02*
G75*
G02*
X185220000Y-73054830I-2787815J1080827D01*
G01*
%TO.C,D16*%
X198220000Y-63465000D02*
X198220000Y-63930000D01*
X198220000Y-66090000D02*
X198220000Y-66555000D01*
X198220000Y-63465170D02*
G75*
G02*
X203567815Y-63929173I2560000J-1544830D01*
G01*
X198525316Y-63930000D02*
G75*
G02*
X203034479Y-63929571I2254684J-1080000D01*
G01*
X203034479Y-66090429D02*
G75*
G02*
X198525316Y-66090000I-2254479J1080429D01*
G01*
X203567815Y-66090827D02*
G75*
G02*
X198220000Y-66554830I-2787815J1080827D01*
G01*
%TO.C,D17*%
X204720000Y-63465000D02*
X204720000Y-63930000D01*
X204720000Y-66090000D02*
X204720000Y-66555000D01*
X204720000Y-63465170D02*
G75*
G02*
X210067815Y-63929173I2560000J-1544830D01*
G01*
X205025316Y-63930000D02*
G75*
G02*
X209534479Y-63929571I2254684J-1080000D01*
G01*
X209534479Y-66090429D02*
G75*
G02*
X205025316Y-66090000I-2254479J1080429D01*
G01*
X210067815Y-66090827D02*
G75*
G02*
X204720000Y-66554830I-2787815J1080827D01*
G01*
%TO.C,D24*%
X185220000Y-76465000D02*
X185220000Y-76930000D01*
X185220000Y-79090000D02*
X185220000Y-79555000D01*
X185220000Y-76465170D02*
G75*
G02*
X190567815Y-76929173I2560000J-1544830D01*
G01*
X185525316Y-76930000D02*
G75*
G02*
X190034479Y-76929571I2254684J-1080000D01*
G01*
X190034479Y-79090429D02*
G75*
G02*
X185525316Y-79090000I-2254479J1080429D01*
G01*
X190567815Y-79090827D02*
G75*
G02*
X185220000Y-79554830I-2787815J1080827D01*
G01*
%TO.C,D18*%
X211230000Y-63465000D02*
X211230000Y-63930000D01*
X211230000Y-66090000D02*
X211230000Y-66555000D01*
X211230000Y-63465170D02*
G75*
G02*
X216577815Y-63929173I2560000J-1544830D01*
G01*
X211535316Y-63930000D02*
G75*
G02*
X216044479Y-63929571I2254684J-1080000D01*
G01*
X216044479Y-66090429D02*
G75*
G02*
X211535316Y-66090000I-2254479J1080429D01*
G01*
X216577815Y-66090827D02*
G75*
G02*
X211230000Y-66554830I-2787815J1080827D01*
G01*
%TO.C,TP1*%
X220575000Y-82300000D02*
G75*
G02*
X218175000Y-82300000I-1200000J0D01*
G01*
X218175000Y-82300000D02*
G75*
G02*
X220575000Y-82300000I1200000J0D01*
G01*
%TO.C,R2*%
X189177064Y-82565000D02*
X188722936Y-82565000D01*
X189177064Y-84035000D02*
X188722936Y-84035000D01*
%TO.C,D1*%
X179765000Y-70500000D02*
X179765000Y-74560000D01*
X179765000Y-74560000D02*
X182035000Y-74560000D01*
X182035000Y-74560000D02*
X182035000Y-70500000D01*
%TO.C,D21*%
X198220000Y-69965000D02*
X198220000Y-70430000D01*
X198220000Y-72590000D02*
X198220000Y-73055000D01*
X198220000Y-69965170D02*
G75*
G02*
X203567815Y-70429173I2560000J-1544830D01*
G01*
X198525316Y-70430000D02*
G75*
G02*
X203034479Y-70429571I2254684J-1080000D01*
G01*
X203034479Y-72590429D02*
G75*
G02*
X198525316Y-72590000I-2254479J1080429D01*
G01*
X203567815Y-72590827D02*
G75*
G02*
X198220000Y-73054830I-2787815J1080827D01*
G01*
%TO.C,R3*%
X184727064Y-82565000D02*
X184272936Y-82565000D01*
X184727064Y-84035000D02*
X184272936Y-84035000D01*
%TO.C,D3*%
X179865000Y-81500000D02*
X179865000Y-85560000D01*
X179865000Y-85560000D02*
X182135000Y-85560000D01*
X182135000Y-85560000D02*
X182135000Y-81500000D01*
%TO.C,D9*%
X185220000Y-56965000D02*
X185220000Y-57430000D01*
X185220000Y-59590000D02*
X185220000Y-60055000D01*
X185220000Y-56965170D02*
G75*
G02*
X190567815Y-57429173I2560000J-1544830D01*
G01*
X185525316Y-57430000D02*
G75*
G02*
X190034479Y-57429571I2254684J-1080000D01*
G01*
X190034479Y-59590429D02*
G75*
G02*
X185525316Y-59590000I-2254479J1080429D01*
G01*
X190567815Y-59590827D02*
G75*
G02*
X185220000Y-60054830I-2787815J1080827D01*
G01*
%TD*%
D16*
X205375000Y-78010000D03*
X206645000Y-78010000D03*
X207915000Y-78010000D03*
X209185000Y-78010000D03*
X211885000Y-71510000D03*
X213155000Y-71510000D03*
X214425000Y-71510000D03*
X215695000Y-71510000D03*
X205385000Y-58510000D03*
X206655000Y-58510000D03*
X207925000Y-58510000D03*
X209195000Y-58510000D03*
X211885000Y-78010000D03*
X213155000Y-78010000D03*
X214425000Y-78010000D03*
X215695000Y-78010000D03*
X223900000Y-76400001D03*
X223900000Y-84599999D03*
X223900000Y-78499999D03*
X223900000Y-80500000D03*
X223900000Y-82500000D03*
X205385000Y-52010000D03*
X206655000Y-52010000D03*
X207925000Y-52010000D03*
X209195000Y-52010000D03*
X185875000Y-65010000D03*
X187145000Y-65010000D03*
X188415000Y-65010000D03*
X189685000Y-65010000D03*
X205380000Y-71510000D03*
X206650000Y-71510000D03*
X207920000Y-71510000D03*
X209190000Y-71510000D03*
X192385000Y-52010000D03*
X193655000Y-52010000D03*
X194925000Y-52010000D03*
X196195000Y-52010000D03*
X211885000Y-58510000D03*
X213155000Y-58510000D03*
X214425000Y-58510000D03*
X215695000Y-58510000D03*
X220125000Y-65750000D03*
X220125000Y-72250000D03*
X224625000Y-65750000D03*
X224625000Y-72250000D03*
X192385000Y-58510000D03*
X193655000Y-58510000D03*
X194925000Y-58510000D03*
X196195000Y-58510000D03*
X211885000Y-52010000D03*
X213155000Y-52010000D03*
X214425000Y-52010000D03*
X215695000Y-52010000D03*
X185875000Y-52010000D03*
X187145000Y-52010000D03*
X188415000Y-52010000D03*
X189685000Y-52010000D03*
X198875000Y-78010000D03*
X200145000Y-78010000D03*
X201415000Y-78010000D03*
X202685000Y-78010000D03*
X198885000Y-52010000D03*
X200155000Y-52010000D03*
X201425000Y-52010000D03*
X202695000Y-52010000D03*
X221475000Y-92959835D03*
X224015000Y-92959835D03*
X180100000Y-93500000D03*
X216600000Y-88900000D03*
X192375000Y-78010000D03*
X193645000Y-78010000D03*
X194915000Y-78010000D03*
X196185000Y-78010000D03*
X192375000Y-71510000D03*
X193645000Y-71510000D03*
X194915000Y-71510000D03*
X196185000Y-71510000D03*
X224100000Y-62900000D03*
X224100000Y-60900000D03*
X224100000Y-58900000D03*
X182325000Y-49375000D03*
X180325000Y-49375000D03*
X198885000Y-58510000D03*
X200155000Y-58510000D03*
X201425000Y-58510000D03*
X202695000Y-58510000D03*
X192375000Y-65010000D03*
X193645000Y-65010000D03*
X194915000Y-65010000D03*
X196185000Y-65010000D03*
X185875000Y-71510000D03*
X187145000Y-71510000D03*
X188415000Y-71510000D03*
X189685000Y-71510000D03*
X198875000Y-65010000D03*
X200145000Y-65010000D03*
X201415000Y-65010000D03*
X202685000Y-65010000D03*
X205375000Y-65010000D03*
X206645000Y-65010000D03*
X207915000Y-65010000D03*
X209185000Y-65010000D03*
X185875000Y-78010000D03*
X187145000Y-78010000D03*
X188415000Y-78010000D03*
X189685000Y-78010000D03*
X211885000Y-65010000D03*
X213155000Y-65010000D03*
X214425000Y-65010000D03*
X215695000Y-65010000D03*
X219375000Y-82300000D03*
X223300000Y-50300000D03*
X198875000Y-71510000D03*
X200145000Y-71510000D03*
X201415000Y-71510000D03*
X202685000Y-71510000D03*
X185875000Y-58510000D03*
X187145000Y-58510000D03*
X188415000Y-58510000D03*
X189685000Y-58510000D03*
X218675000Y-55300000D03*
X220675000Y-55300000D03*
X222675000Y-55300000D03*
X224675000Y-55300000D03*
X184290000Y-92870000D03*
X184290000Y-94870000D03*
X183780801Y-88935721D03*
X181780801Y-88935721D03*
X183780801Y-86935721D03*
X181780801Y-86935721D03*
X218100000Y-94700000D03*
X218100000Y-92700000D03*
X218900000Y-49300000D03*
X218900000Y-51300000D03*
X212550000Y-92775000D03*
X214550000Y-92775000D03*
X212550000Y-94775000D03*
X214550000Y-94775000D03*
M02*
