%TF.GenerationSoftware,KiCad,Pcbnew,8.0.4*%
%TF.CreationDate,2024-08-07T18:13:10-04:00*%
%TF.ProjectId,led_2048,6c65645f-3230-4343-982e-6b696361645f,rev?*%
%TF.SameCoordinates,Original*%
%TF.FileFunction,Soldermask,Bot*%
%TF.FilePolarity,Negative*%
%FSLAX46Y46*%
G04 Gerber Fmt 4.6, Leading zero omitted, Abs format (unit mm)*
G04 Created by KiCad (PCBNEW 8.0.4) date 2024-08-07 18:13:10*
%MOMM*%
%LPD*%
G01*
G04 APERTURE LIST*
G04 Aperture macros list*
%AMRoundRect*
0 Rectangle with rounded corners*
0 $1 Rounding radius*
0 $2 $3 $4 $5 $6 $7 $8 $9 X,Y pos of 4 corners*
0 Add a 4 corners polygon primitive as box body*
4,1,4,$2,$3,$4,$5,$6,$7,$8,$9,$2,$3,0*
0 Add four circle primitives for the rounded corners*
1,1,$1+$1,$2,$3*
1,1,$1+$1,$4,$5*
1,1,$1+$1,$6,$7*
1,1,$1+$1,$8,$9*
0 Add four rect primitives between the rounded corners*
20,1,$1+$1,$2,$3,$4,$5,0*
20,1,$1+$1,$4,$5,$6,$7,0*
20,1,$1+$1,$6,$7,$8,$9,0*
20,1,$1+$1,$8,$9,$2,$3,0*%
G04 Aperture macros list end*
%ADD10R,1.070000X1.800000*%
%ADD11O,1.070000X1.800000*%
%ADD12C,2.006600*%
%ADD13C,1.320800*%
%ADD14RoundRect,0.102000X-0.787500X0.787500X-0.787500X-0.787500X0.787500X-0.787500X0.787500X0.787500X0*%
%ADD15C,1.779000*%
%ADD16R,1.800000X1.800000*%
%ADD17C,1.800000*%
%ADD18C,3.200000*%
%ADD19C,2.000000*%
%ADD20R,1.350000X1.350000*%
%ADD21O,1.350000X1.350000*%
%ADD22RoundRect,0.150000X-0.512500X-0.150000X0.512500X-0.150000X0.512500X0.150000X-0.512500X0.150000X0*%
%ADD23RoundRect,0.155000X0.155000X-0.212500X0.155000X0.212500X-0.155000X0.212500X-0.155000X-0.212500X0*%
%ADD24R,0.450013X0.400000*%
%ADD25R,1.000000X1.600000*%
%ADD26RoundRect,0.155000X-0.155000X0.212500X-0.155000X-0.212500X0.155000X-0.212500X0.155000X0.212500X0*%
%ADD27O,1.731496X0.343002*%
%ADD28RoundRect,0.250000X-0.350000X-0.450000X0.350000X-0.450000X0.350000X0.450000X-0.350000X0.450000X0*%
%ADD29RoundRect,0.237500X-0.237500X0.300000X-0.237500X-0.300000X0.237500X-0.300000X0.237500X0.300000X0*%
%ADD30RoundRect,0.075000X0.662500X0.075000X-0.662500X0.075000X-0.662500X-0.075000X0.662500X-0.075000X0*%
%ADD31RoundRect,0.075000X0.075000X0.662500X-0.075000X0.662500X-0.075000X-0.662500X0.075000X-0.662500X0*%
%ADD32RoundRect,0.237500X-0.237500X0.250000X-0.237500X-0.250000X0.237500X-0.250000X0.237500X0.250000X0*%
%ADD33RoundRect,0.155000X0.212500X0.155000X-0.212500X0.155000X-0.212500X-0.155000X0.212500X-0.155000X0*%
G04 APERTURE END LIST*
D10*
%TO.C,D27*%
X205375000Y-78010000D03*
D11*
X206645000Y-78010000D03*
X207915000Y-78010000D03*
X209185000Y-78010000D03*
%TD*%
D10*
%TO.C,D23*%
X211885000Y-71510000D03*
D11*
X213155000Y-71510000D03*
X214425000Y-71510000D03*
X215695000Y-71510000D03*
%TD*%
D10*
%TO.C,D12*%
X205385000Y-58510000D03*
D11*
X206655000Y-58510000D03*
X207925000Y-58510000D03*
X209195000Y-58510000D03*
%TD*%
D10*
%TO.C,D28*%
X211885000Y-78010000D03*
D11*
X213155000Y-78010000D03*
X214425000Y-78010000D03*
X215695000Y-78010000D03*
%TD*%
D12*
%TO.C,SW1*%
X223900000Y-76400001D03*
X223900000Y-84599999D03*
D13*
X223900000Y-78499999D03*
X223900000Y-80500000D03*
X223900000Y-82500000D03*
%TD*%
D10*
%TO.C,D7*%
X205385000Y-52010000D03*
D11*
X206655000Y-52010000D03*
X207925000Y-52010000D03*
X209195000Y-52010000D03*
%TD*%
D10*
%TO.C,D14*%
X185875000Y-65010000D03*
D11*
X187145000Y-65010000D03*
X188415000Y-65010000D03*
X189685000Y-65010000D03*
%TD*%
D10*
%TO.C,D22*%
X205380000Y-71510000D03*
D11*
X206650000Y-71510000D03*
X207920000Y-71510000D03*
X209190000Y-71510000D03*
%TD*%
D10*
%TO.C,D5*%
X192385000Y-52010000D03*
D11*
X193655000Y-52010000D03*
X194925000Y-52010000D03*
X196195000Y-52010000D03*
%TD*%
D10*
%TO.C,D13*%
X211885000Y-58510000D03*
D11*
X213155000Y-58510000D03*
X214425000Y-58510000D03*
X215695000Y-58510000D03*
%TD*%
D14*
%TO.C,SW2*%
X220125000Y-65750000D03*
D15*
X220125000Y-72250000D03*
X224625000Y-65750000D03*
X224625000Y-72250000D03*
%TD*%
D10*
%TO.C,D10*%
X192385000Y-58510000D03*
D11*
X193655000Y-58510000D03*
X194925000Y-58510000D03*
X196195000Y-58510000D03*
%TD*%
D10*
%TO.C,D8*%
X211885000Y-52010000D03*
D11*
X213155000Y-52010000D03*
X214425000Y-52010000D03*
X215695000Y-52010000D03*
%TD*%
D10*
%TO.C,D4*%
X185875000Y-52010000D03*
D11*
X187145000Y-52010000D03*
X188415000Y-52010000D03*
X189685000Y-52010000D03*
%TD*%
D10*
%TO.C,D26*%
X198875000Y-78010000D03*
D11*
X200145000Y-78010000D03*
X201415000Y-78010000D03*
X202685000Y-78010000D03*
%TD*%
D10*
%TO.C,D6*%
X198885000Y-52010000D03*
D11*
X200155000Y-52010000D03*
X201425000Y-52010000D03*
X202695000Y-52010000D03*
%TD*%
D16*
%TO.C,D29*%
X221475000Y-92959835D03*
D17*
X224015000Y-92959835D03*
%TD*%
D18*
%TO.C,H1*%
X180100000Y-93500000D03*
%TD*%
D19*
%TO.C,TP2*%
X216600000Y-88900000D03*
%TD*%
D10*
%TO.C,D25*%
X192375000Y-78010000D03*
D11*
X193645000Y-78010000D03*
X194915000Y-78010000D03*
X196185000Y-78010000D03*
%TD*%
D10*
%TO.C,D20*%
X192375000Y-71510000D03*
D11*
X193645000Y-71510000D03*
X194915000Y-71510000D03*
X196185000Y-71510000D03*
%TD*%
D20*
%TO.C,J12*%
X224100000Y-62900000D03*
D21*
X224100000Y-60900000D03*
X224100000Y-58900000D03*
%TD*%
D20*
%TO.C,J4*%
X182325000Y-49375000D03*
D21*
X180325000Y-49375000D03*
%TD*%
D10*
%TO.C,D11*%
X198885000Y-58510000D03*
D11*
X200155000Y-58510000D03*
X201425000Y-58510000D03*
X202695000Y-58510000D03*
%TD*%
D10*
%TO.C,D15*%
X192375000Y-65010000D03*
D11*
X193645000Y-65010000D03*
X194915000Y-65010000D03*
X196185000Y-65010000D03*
%TD*%
D10*
%TO.C,D19*%
X185875000Y-71510000D03*
D11*
X187145000Y-71510000D03*
X188415000Y-71510000D03*
X189685000Y-71510000D03*
%TD*%
D10*
%TO.C,D16*%
X198875000Y-65010000D03*
D11*
X200145000Y-65010000D03*
X201415000Y-65010000D03*
X202685000Y-65010000D03*
%TD*%
D10*
%TO.C,D17*%
X205375000Y-65010000D03*
D11*
X206645000Y-65010000D03*
X207915000Y-65010000D03*
X209185000Y-65010000D03*
%TD*%
D10*
%TO.C,D24*%
X185875000Y-78010000D03*
D11*
X187145000Y-78010000D03*
X188415000Y-78010000D03*
X189685000Y-78010000D03*
%TD*%
D10*
%TO.C,D18*%
X211885000Y-65010000D03*
D11*
X213155000Y-65010000D03*
X214425000Y-65010000D03*
X215695000Y-65010000D03*
%TD*%
D19*
%TO.C,TP1*%
X219375000Y-82300000D03*
%TD*%
D18*
%TO.C,H2*%
X223300000Y-50300000D03*
%TD*%
D10*
%TO.C,D21*%
X198875000Y-71510000D03*
D11*
X200145000Y-71510000D03*
X201415000Y-71510000D03*
X202685000Y-71510000D03*
%TD*%
D10*
%TO.C,D9*%
X185875000Y-58510000D03*
D11*
X187145000Y-58510000D03*
X188415000Y-58510000D03*
X189685000Y-58510000D03*
%TD*%
D22*
%TO.C,Q1*%
X181237500Y-54159835D03*
X181237500Y-52259835D03*
X183512500Y-53209835D03*
%TD*%
%TO.C,Q3*%
X181237500Y-66909835D03*
X181237500Y-65009835D03*
X183512500Y-65959835D03*
%TD*%
D23*
%TO.C,C10*%
X208400000Y-90067500D03*
X208400000Y-88932500D03*
%TD*%
D24*
%TO.C,U1*%
X217899841Y-86459899D03*
X217899841Y-85809886D03*
X217899841Y-85159873D03*
X219850057Y-85159873D03*
X219850057Y-85809886D03*
X219850057Y-86459899D03*
D25*
X218874949Y-85809886D03*
%TD*%
D20*
%TO.C,J7*%
X218675000Y-55300000D03*
D21*
X220675000Y-55300000D03*
X222675000Y-55300000D03*
X224675000Y-55300000D03*
%TD*%
D26*
%TO.C,C9*%
X197875000Y-90532500D03*
X197875000Y-91667500D03*
%TD*%
D20*
%TO.C,J5*%
X184290000Y-92870000D03*
D21*
X184290000Y-94870000D03*
%TD*%
D20*
%TO.C,J2*%
X183780801Y-88935721D03*
D21*
X181780801Y-88935721D03*
X183780801Y-86935721D03*
X181780801Y-86935721D03*
%TD*%
D22*
%TO.C,Q2*%
X181237500Y-60659835D03*
X181237500Y-58759835D03*
X183512500Y-59709835D03*
%TD*%
D27*
%TO.C,U3*%
X200825000Y-89000127D03*
X200825000Y-88350140D03*
X200825000Y-87700153D03*
X200825000Y-87050166D03*
X200825000Y-86400178D03*
X200825000Y-85750191D03*
X200825000Y-85099950D03*
X200825000Y-84449962D03*
X200825000Y-83799975D03*
X200825000Y-83149988D03*
X200825000Y-82500000D03*
X200825000Y-81850013D03*
X200825000Y-81200026D03*
X200825000Y-80550039D03*
X206556522Y-80550039D03*
X206556522Y-81200026D03*
X206556522Y-81850013D03*
X206556522Y-82500000D03*
X206556522Y-83149988D03*
X206556522Y-83799975D03*
X206556522Y-84449962D03*
X206556522Y-85099950D03*
X206556522Y-85750191D03*
X206556522Y-86400178D03*
X206556522Y-87050166D03*
X206556522Y-87700153D03*
X206556522Y-88350140D03*
X206556522Y-89000127D03*
%TD*%
D28*
%TO.C,R7*%
X181375000Y-56459835D03*
X183375000Y-56459835D03*
%TD*%
D29*
%TO.C,C2*%
X213075000Y-88237500D03*
X213075000Y-89962500D03*
%TD*%
D26*
%TO.C,C4*%
X186875000Y-94632500D03*
X186875000Y-95767500D03*
%TD*%
D22*
%TO.C,Q5*%
X181237500Y-79409835D03*
X181237500Y-77509835D03*
X183512500Y-78459835D03*
%TD*%
D28*
%TO.C,R9*%
X181075000Y-69000000D03*
X183075000Y-69000000D03*
%TD*%
%TO.C,R8*%
X181375000Y-62709835D03*
X183375000Y-62709835D03*
%TD*%
D30*
%TO.C,U2*%
X195550000Y-87634835D03*
X195550000Y-88134835D03*
X195550000Y-88634835D03*
X195550000Y-89134835D03*
X195550000Y-89634835D03*
X195550000Y-90134835D03*
X195550000Y-90634835D03*
X195550000Y-91134835D03*
X195550000Y-91634835D03*
X195550000Y-92134835D03*
X195550000Y-92634835D03*
X195550000Y-93134835D03*
D31*
X194137500Y-94547335D03*
X193637500Y-94547335D03*
X193137500Y-94547335D03*
X192637500Y-94547335D03*
X192137500Y-94547335D03*
X191637500Y-94547335D03*
X191137500Y-94547335D03*
X190637500Y-94547335D03*
X190137500Y-94547335D03*
X189637500Y-94547335D03*
X189137500Y-94547335D03*
X188637500Y-94547335D03*
D30*
X187225000Y-93134835D03*
X187225000Y-92634835D03*
X187225000Y-92134835D03*
X187225000Y-91634835D03*
X187225000Y-91134835D03*
X187225000Y-90634835D03*
X187225000Y-90134835D03*
X187225000Y-89634835D03*
X187225000Y-89134835D03*
X187225000Y-88634835D03*
X187225000Y-88134835D03*
X187225000Y-87634835D03*
D31*
X188637500Y-86222335D03*
X189137500Y-86222335D03*
X189637500Y-86222335D03*
X190137500Y-86222335D03*
X190637500Y-86222335D03*
X191137500Y-86222335D03*
X191637500Y-86222335D03*
X192137500Y-86222335D03*
X192637500Y-86222335D03*
X193137500Y-86222335D03*
X193637500Y-86222335D03*
X194137500Y-86222335D03*
%TD*%
D20*
%TO.C,REF\u002A\u002A*%
X218100000Y-94700000D03*
D21*
X218100000Y-92700000D03*
%TD*%
D32*
%TO.C,R6*%
X216375000Y-82787500D03*
X216375000Y-84612500D03*
%TD*%
D23*
%TO.C,C1*%
X213075000Y-86467500D03*
X213075000Y-85332500D03*
%TD*%
D28*
%TO.C,R5*%
X209475000Y-87300000D03*
X211475000Y-87300000D03*
%TD*%
D32*
%TO.C,R4*%
X214575000Y-84637500D03*
X214575000Y-86462500D03*
%TD*%
D20*
%TO.C,REF\u002A\u002A*%
X218900000Y-49300000D03*
D21*
X218900000Y-51300000D03*
%TD*%
D22*
%TO.C,Q4*%
X181237500Y-73159835D03*
X181237500Y-71259835D03*
X183512500Y-72209835D03*
%TD*%
D28*
%TO.C,R11*%
X181275000Y-81400000D03*
X183275000Y-81400000D03*
%TD*%
%TO.C,R10*%
X181175000Y-75200000D03*
X183175000Y-75200000D03*
%TD*%
D20*
%TO.C,J3*%
X212550000Y-92775000D03*
D21*
X214550000Y-92775000D03*
X212550000Y-94775000D03*
X214550000Y-94775000D03*
%TD*%
D33*
%TO.C,C5*%
X187167500Y-85800000D03*
X186032500Y-85800000D03*
%TD*%
M02*
