%TF.GenerationSoftware,KiCad,Pcbnew,8.0.4*%
%TF.CreationDate,2024-08-07T19:34:09-04:00*%
%TF.ProjectId,button_board,62757474-6f6e-45f6-926f-6172642e6b69,rev?*%
%TF.SameCoordinates,Original*%
%TF.FileFunction,Profile,NP*%
%FSLAX46Y46*%
G04 Gerber Fmt 4.6, Leading zero omitted, Abs format (unit mm)*
G04 Created by KiCad (PCBNEW 8.0.4) date 2024-08-07 19:34:09*
%MOMM*%
%LPD*%
G01*
G04 APERTURE LIST*
%TA.AperFunction,Profile*%
%ADD10C,0.050000*%
%TD*%
%ADD11C,0.350000*%
G04 APERTURE END LIST*
D10*
X134706000Y-107509000D02*
G75*
G02*
X134706000Y-109509000I0J-1000000D01*
G01*
X140706000Y-107509000D02*
X162712000Y-107509000D01*
X97706000Y-109509000D02*
X107706000Y-109509000D01*
X177706000Y-109509000D02*
X177706000Y-132509000D01*
X97706000Y-78509000D02*
G75*
G02*
X100706000Y-75509000I3000000J0D01*
G01*
X177706000Y-107509000D02*
X167706000Y-107509000D01*
X177706000Y-109509000D02*
X167706000Y-109509000D01*
X162706000Y-109509000D02*
X140700000Y-109509000D01*
X112706000Y-109509000D02*
G75*
G02*
X112706000Y-107509000I0J1000000D01*
G01*
X112706000Y-107509000D02*
X134700000Y-107509000D01*
X100706000Y-75509000D02*
X174706000Y-75509000D01*
X140706000Y-109509000D02*
G75*
G02*
X140706000Y-107509000I0J1000000D01*
G01*
X174706000Y-135509000D02*
X100706000Y-135509000D01*
X107706000Y-107509000D02*
G75*
G02*
X107706000Y-109509000I0J-1000000D01*
G01*
X177706000Y-132509000D02*
G75*
G02*
X174706000Y-135509000I-3000000J0D01*
G01*
X134700000Y-109509000D02*
X112706000Y-109509000D01*
X97706000Y-109509000D02*
X97706000Y-132509000D01*
X162712000Y-107509000D02*
G75*
G02*
X162712000Y-109509000I0J-1000000D01*
G01*
X167706000Y-109509000D02*
G75*
G02*
X167706000Y-107509000I0J1000000D01*
G01*
X97706000Y-107509000D02*
X97706000Y-78509000D01*
X177706000Y-107509000D02*
X177706000Y-78509000D01*
X100706000Y-135509000D02*
G75*
G02*
X97706000Y-132509000I0J3000000D01*
G01*
X174706000Y-75509000D02*
G75*
G02*
X177706000Y-78509000I0J-3000000D01*
G01*
X97706000Y-107509000D02*
X107706000Y-107509000D01*
D11*
X174406000Y-112809000D03*
X101006000Y-78809000D03*
X159506000Y-83809000D03*
X166006000Y-83809000D03*
X159506000Y-79309000D03*
X166006000Y-79309000D03*
X150506000Y-88309000D03*
X150506000Y-94809000D03*
X155006000Y-88309000D03*
X155006000Y-94809000D03*
X174406000Y-78809000D03*
X174406000Y-132209000D03*
X101006000Y-132209000D03*
X174406000Y-104209000D03*
X109506000Y-83809000D03*
X116006000Y-83809000D03*
X109506000Y-79309000D03*
X116006000Y-79309000D03*
X170506000Y-88309000D03*
X170506000Y-94809000D03*
X175006000Y-88309000D03*
X175006000Y-94809000D03*
X131306000Y-127609000D03*
X133846000Y-127609000D03*
X136386000Y-127609000D03*
X138926000Y-127609000D03*
X141466000Y-127609000D03*
X144006000Y-127609000D03*
X144011000Y-117449000D03*
X141471000Y-117449000D03*
X138931000Y-117449000D03*
X136391000Y-117449000D03*
X133851000Y-117449000D03*
X131311000Y-117449000D03*
X100456000Y-119259000D03*
X100456000Y-125759000D03*
X104956000Y-119259000D03*
X104956000Y-125759000D03*
X101006000Y-104209000D03*
X174956000Y-125759000D03*
X174956000Y-119259000D03*
X170456000Y-125759000D03*
X170456000Y-119259000D03*
X169106000Y-79259000D03*
X171106000Y-79259000D03*
X130256000Y-79259000D03*
X132256000Y-79259000D03*
X134256000Y-79259000D03*
X136256000Y-79259000D03*
X138256000Y-79259000D03*
X140256000Y-79259000D03*
X142256000Y-79259000D03*
X144256000Y-79259000D03*
X159506000Y-103809000D03*
X166006000Y-103809000D03*
X159506000Y-99309000D03*
X166006000Y-99309000D03*
X120506000Y-88309000D03*
X120506000Y-94809000D03*
X125006000Y-88309000D03*
X125006000Y-94809000D03*
X109071000Y-132659000D03*
X111071000Y-132659000D03*
X109506000Y-103809000D03*
X116006000Y-103809000D03*
X109506000Y-99309000D03*
X116006000Y-99309000D03*
X100506000Y-88309000D03*
X100506000Y-94809000D03*
X105006000Y-88309000D03*
X105006000Y-94809000D03*
X163206000Y-132259000D03*
X165206000Y-132259000D03*
X146206000Y-131709000D03*
X148206000Y-131709000D03*
X150206000Y-131709000D03*
X152206000Y-131709000D03*
X110206000Y-120609000D03*
X110206000Y-122609000D03*
X110206000Y-124609000D03*
X101006000Y-112809000D03*
M02*
