M48
; DRILL file {KiCad 8.0.4} date 2024-08-07T19:34:09-0400
; FORMAT={-:-/ absolute / metric / decimal}
; #@! TF.CreationDate,2024-08-07T19:34:09-04:00
; #@! TF.GenerationSoftware,Kicad,Pcbnew,8.0.4
; #@! TF.FileFunction,MixedPlating,1,2
FMAT,2
METRIC
; #@! TA.AperFunction,Plated,PTH,ViaDrill
T1C0.300
; #@! TA.AperFunction,Plated,PTH,ViaDrill
T2C0.400
; #@! TA.AperFunction,Plated,PTH,ComponentDrill
T3C0.800
; #@! TA.AperFunction,Plated,PTH,ComponentDrill
T4C1.000
; #@! TA.AperFunction,Plated,PTH,ComponentDrill
T5C1.050
; #@! TA.AperFunction,NonPlated,NPTH,ComponentDrill
T6C3.200
%
G90
G05
T1
X117.3Y-128.8
T2
X115.446Y-123.059
X119.721Y-128.109
X120.703Y-122.122
X120.871Y-117.959
X129.956Y-129.459
X134.521Y-111.909
X139.956Y-129.459
X141.921Y-112.109
X160.506Y-86.409
T3
X109.071Y-132.659
X110.206Y-120.609
X110.206Y-122.609
X110.206Y-124.609
X111.071Y-132.659
X130.256Y-79.259
X132.256Y-79.259
X134.256Y-79.259
X136.256Y-79.259
X138.256Y-79.259
X140.256Y-79.259
X142.256Y-79.259
X144.256Y-79.259
X146.206Y-131.709
X148.206Y-131.709
X150.206Y-131.709
X152.206Y-131.709
X163.206Y-132.259
X165.206Y-132.259
X169.106Y-79.259
X171.106Y-79.259
T4
X131.306Y-127.609
X131.311Y-117.449
X133.846Y-127.609
X133.851Y-117.449
X136.386Y-127.609
X136.391Y-117.449
X138.926Y-127.609
X138.931Y-117.449
X141.466Y-127.609
X141.471Y-117.449
X144.006Y-127.609
X144.011Y-117.449
T5
X100.456Y-119.259
X100.456Y-125.759
X100.506Y-88.309
X100.506Y-94.809
X104.956Y-119.259
X104.956Y-125.759
X105.006Y-88.309
X105.006Y-94.809
X109.506Y-79.309
X109.506Y-83.809
X109.506Y-99.309
X109.506Y-103.809
X116.006Y-79.309
X116.006Y-83.809
X116.006Y-99.309
X116.006Y-103.809
X120.506Y-88.309
X120.506Y-94.809
X125.006Y-88.309
X125.006Y-94.809
X150.506Y-88.309
X150.506Y-94.809
X155.006Y-88.309
X155.006Y-94.809
X159.506Y-79.309
X159.506Y-83.809
X159.506Y-99.309
X159.506Y-103.809
X166.006Y-79.309
X166.006Y-83.809
X166.006Y-99.309
X166.006Y-103.809
X170.456Y-119.259
X170.456Y-125.759
X170.506Y-88.309
X170.506Y-94.809
X174.956Y-119.259
X174.956Y-125.759
X175.006Y-88.309
X175.006Y-94.809
T6
X101.006Y-78.809
X101.006Y-104.209
X101.006Y-112.809
X101.006Y-132.209
X174.406Y-78.809
X174.406Y-104.209
X174.406Y-112.809
X174.406Y-132.209
M30
